0
SECTION
2
HEADER
9
$INSUNITS
70
4
9
$ACADVER
1
AC1014
9
$HANDSEED
5
FFFF
0
ENDSEC
0
SECTION
2
TABLES
0
TABLE
2
VPORT
5
8
100
AcDbSymbolTable
0
ENDTAB
0
TABLE
2
LTYPE
5
5
100
AcDbSymbolTable
0
LTYPE
5
14
100
AcDbSymbolTableRecord
100
AcDbLinetypeTableRecord
2
BYBLOCK
70
0
0
LTYPE
5
15
100
AcDbSymbolTableRecord
100
AcDbLinetypeTableRecord
2
BYLAYER
70
0
0
ENDTAB
0
TABLE
2
LAYER
5
2
100
AcDbSymbolTable
70
2
0
LAYER
5
50
100
AcDbSymbolTableRecord
100
AcDbLayerTableRecord
2
0
70
0
6
CONTINUOUS
0
ENDTAB
0
TABLE
2
STYLE
5
3
100
AcDbSymbolTable
70
1
0
STYLE
5
11
100
AcDbSymbolTableRecord
100
AcDbTextStyleTableRecord
2
STANDARD
70
0
0
ENDTAB
0
TABLE
2
VIEW
5
6
100
AcDbSymbolTable
70
0
0
ENDTAB
0
TABLE
2
UCS
5
7
100
AcDbSymbolTable
70
0
0
ENDTAB
0
TABLE
2
APPID
5
9
100
AcDbSymbolTable
70
2
0
APPID
5
12
100
AcDbSymbolTableRecord
100
AcDbRegAppTableRecord
2
ACAD
70
0
0
ENDTAB
0
TABLE
2
DIMSTYLE
5
A
100
AcDbSymbolTable
70
1
0
ENDTAB
0
TABLE
2
BLOCK_RECORD
5
1
100
AcDbSymbolTable
70
1
0
BLOCK_RECORD
5
1F
100
AcDbSymbolTableRecord
100
AcDbBlockTableRecord
2
*MODEL_SPACE
0
BLOCK_RECORD
5
1B
100
AcDbSymbolTableRecord
100
AcDbBlockTableRecord
2
*PAPER_SPACE
0
ENDTAB
0
ENDSEC
0
SECTION
2
BLOCKS
0
BLOCK
5
20
100
AcDbEntity
100
AcDbBlockBegin
2
*MODEL_SPACE
0
ENDBLK
5
21
100
AcDbEntity
100
AcDbBlockEnd
0
BLOCK
5
1C
100
AcDbEntity
100
AcDbBlockBegin
2
*PAPER_SPACE
0
ENDBLK
5
1D
100
AcDbEntity
100
AcDbBlockEnd
0
ENDSEC
0
SECTION
2
ENTITIES
0
LWPOLYLINE
5
100
100
AcDbEntity
8
0
100
AcDbPolyline
90
44
70
1
43
0.0
10
18.462012774355458
20
-2.7713780000000012
10
18.462012774355465
20
10.474211384525223
42
-0.41421356237309959
10
19.462012774355461
20
11.474211384525223
10
21.626073193654772
20
11.474211384525221
42
0.41421356237309309
10
22.626073193654772
20
12.474211384525223
10
22.626073193654776
20
17.297414762211464
42
-0.4142135623730957
10
23.626073193654769
20
18.297414762211467
10
28.134694819351779
20
18.297414762211464
42
0.41421356237309437
10
29.134694819351779
20
19.297414762211464
10
29.134694819351775
20
22.990491251794587
42
-0.41421356237309503
10
31.134694819351783
20
24.990491251794595
10
42.259993658016022
20
24.990491251794587
42
-0.41421356237309176
10
44.259993658016029
20
22.990491251794587
10
44.259993658016029
20
18.348789747939836
42
0.41421356237309631
10
45.259993658016029
20
17.348789747939833
10
48.451080541669086
20
17.34878974793984
42
-0.41421356237309437
10
49.451080541669093
20
16.34878974793984
10
49.451080541669086
20
15.845473738056386
42
0.41421356237309243
10
50.451080541669072
20
14.845473738056388
10
57.143909842436891
20
14.845473738056382
42
-0.20288290230128653
10
57.861728494902103
20
14.541703859620384
10
60.684152839598212
20
11.631762480980214
42
-0.19494785636573558
10
60.966334187132993
20
10.935532359416214
10
60.966334187132993
20
0.82292487084888921
42
-0.41421356237309509
10
57.966334187132993
20
-2.1770751291511097
10
44.301598715076366
20
-2.1770751291511115
42
0.19891236737965839
10
43.240938543296544
20
-2.6164149573712905
10
39.061802578070129
20
-6.7955509225977053
42
-0.19891236737965615
10
37.647589015697037
20
-7.3813373602246131
10
27.723655999999998
20
-7.3813373602246131
42
-0.41421356237309698
10
27.223655999999998
20
-6.8813373602246122
10
27.223655999999998
20
-6.2297180000000001
42
0.41421356237309631
10
26.723655999999998
20
-5.7297179999999992
10
25.223655999999998
20
-5.7297179999999992
42
0.41421356237309503
10
24.723655999999998
20
-6.2297179999999974
10
24.723655999999998
20
-6.5713780000000206
42
-0.41421356237310025
10
24.223655999999998
20
-7.0713780000000179
10
13.943742953999998
20
-7.0713780000000002
10
12.613742953999997
20
-7.0713780000000002
42
-0.41421356237310025
10
12.363742953999996
20
-6.8213779999999993
10
12.363742953999999
20
-4.0213779999999995
42
-0.41421356237309698
10
12.613742953999997
20
-3.771377999999999
10
13.943742954000001
20
-3.7713779999999995
10
17.462012774355458
20
-3.7713780000000008
42
0.41421356237309459
0
LINE
5
101
100
AcDbEntity
8
0
100
AcDbLine
10
12.363742953999999
20
-5.4213779999999989
30
0
11
16.828693994602414
21
-5.4213779999999989
31
0
0
LWPOLYLINE
5
102
100
AcDbEntity
8
0
100
AcDbPolyline
90
8
70
1
43
0.0
10
42.400000000000006
20
-0.17157800000000001
10
42.400000000000006
20
1.3284220000000002
42
0.41421356237309537
10
41.900000000000006
20
1.8284219999999989
10
40.399999999999999
20
1.8284220000000002
42
0.41421356237309664
10
39.900000000000006
20
1.3284220000000002
10
39.900000000000006
20
-0.17157800000000004
42
0.4142135623730967
10
40.399999999999999
20
-0.6715779999999999
10
41.900000000000006
20
-0.67157799999999912
42
0.41421356237309548
0
CIRCLE
5
103
100
AcDbEntity
8
0
100
AcDbCircle
10
37.624543000000003
20
-4.1005779999999996
30
0
40
0.75000000000000011
210
0
220
-0
230
1
0
CIRCLE
5
104
100
AcDbEntity
8
0
100
AcDbCircle
10
28.937743000000005
20
4.2814220000000001
30
0
40
0.75000000000000011
210
0
220
-0
230
1
0
CIRCLE
5
105
100
AcDbEntity
8
0
100
AcDbCircle
10
19.819143
20
0.16662199999999999
30
0
40
0.75000000000000011
210
0
220
-0
230
1
0
CIRCLE
5
106
100
AcDbEntity
8
0
100
AcDbCircle
10
30.868143000000003
20
15.914622000000001
30
0
40
0.75000000000000011
210
0
220
-0
230
1
0
CIRCLE
5
107
100
AcDbEntity
8
0
100
AcDbCircle
10
36.938743000000002
20
10.860022000000001
30
0
40
0.75000000000000011
210
0
220
-0
230
1
0
CIRCLE
5
108
100
AcDbEntity
8
0
100
AcDbCircle
10
42.552143000000001
20
12.561821999999999
30
0
40
0.75000000000000011
210
0
220
-0
230
1
0
LWPOLYLINE
5
109
100
AcDbEntity
8
0
100
AcDbPolyline
90
8
70
1
43
0.0
10
38.157874999999997
20
16.200196000000002
10
36.657875000000004
20
16.200195999999998
42
0.41421356237310025
10
36.157875000000004
20
15.700196
10
36.157875000000004
20
14.200195999999998
42
0.41421356237309115
10
36.657875000000004
20
13.700196000000002
10
38.157874999999997
20
13.700196000000002
42
0.41421356237310025
10
38.657874999999997
20
14.200196
10
38.657874999999997
20
15.700196000000002
42
0.41421356237309631
0
LWPOLYLINE
5
110
100
AcDbEntity
8
0
100
AcDbPolyline
90
8
70
1
43
0.0
10
56.912960000000005
20
3.3188199999999997
10
56.912960000000005
20
4.8188199999999997
42
0.41421356237309825
10
56.412960000000005
20
5.3188200000000041
10
54.912959999999998
20
5.3188199999999997
42
0.41421356237309825
10
54.412960000000005
20
4.8188199999999997
10
54.412960000000005
20
3.3188199999999988
42
0.41421356237309798
10
54.912959999999998
20
2.8188199999999992
10
56.412960000000005
20
2.8188199999999961
42
0.41421356237309798
0
CIRCLE
5
111
100
AcDbEntity
8
0
100
AcDbCircle
10
41.150002999999998
20
5.5784210000000005
30
0
40
2.5
210
0
220
-0
230
1
0
CIRCLE
5
112
100
AcDbEntity
8
0
100
AcDbCircle
10
55.662963000000005
20
9.0688190000000013
30
0
40
2.4999999999999982
210
0
220
-0
230
1
0
CIRCLE
5
113
100
AcDbEntity
8
0
100
AcDbCircle
10
37.407878000000004
20
19.950195000000001
30
0
40
2.5000000000000004
210
0
220
-0
230
1
0
CIRCLE
5
114
100
AcDbEntity
8
0
100
AcDbCircle
10
25.973659000000005
20
-1.9797190000000002
30
0
40
2.4999999999999996
210
0
220
-0
230
1
0
LWPOLYLINE
5
115
100
AcDbEntity
8
0
100
AcDbPolyline
90
8
70
1
43
0.0
10
20.249467863117655
20
10.624381766193348
10
21.049467863117655
20
10.624381766193352
42
-0.41421356237310025
10
21.549467863117655
20
10.124381766193348
10
21.549467863117652
20
8.3743817661933502
42
-0.4142135623730957
10
21.049467863117655
20
7.8743817661933502
10
20.249467863117658
20
7.8743817661933502
42
-0.4142135623730937
10
19.749467863117651
20
8.3743817661933502
10
19.749467863117655
20
10.124381766193348
42
-0.41421356237309115
0
LWPOLYLINE
5
116
100
AcDbEntity
8
0
100
AcDbPolyline
90
8
70
1
43
0.0
10
29.749467863117655
20
7.8743817661933502
10
28.949467863117651
20
7.8743817661933511
42
-0.4142135623730957
10
28.449467863117654
20
8.3743817661933502
10
28.449467863117654
20
10.124381766193348
42
-0.41421356237310025
10
28.949467863117651
20
10.624381766193347
10
29.749467863117655
20
10.624381766193352
42
-0.41421356237310025
10
30.249467863117658
20
10.124381766193348
10
30.249467863117655
20
8.3743817661933502
42
-0.4142135623730957
0
CIRCLE
5
117
100
AcDbEntity
8
0
100
AcDbCircle
10
46.950000000000003
20
15.668422
30
0
40
1.2000000000000035
210
0
220
-0
230
1
0
ENDSEC
0
SECTION
2
OBJECTS
0
DICTIONARY
5
C
100
AcDbDictionary
3
ACAD_GROUP
350
D
3
ACAD_MLINESTYLE
350
17
0
DICTIONARY
5
D
100
AcDbDictionary
0
DICTIONARY
5
1A
330
C
100
AcDbDictionary
0
DICTIONARY
5
17
100
AcDbDictionary
0
ENDSEC
0
EOF
