%TF.GenerationSoftware,KiCad,Pcbnew,9.0.3*%
%TF.CreationDate,2025-08-15T00:01:44-07:00*%
%TF.ProjectId,GCU-ADU,4743552d-4144-4552-9e6b-696361645f70,rev?*%
%TF.SameCoordinates,Original*%
%TF.FileFunction,Copper,L1,Top*%
%TF.FilePolarity,Positive*%
%FSLAX46Y46*%
G04 Gerber Fmt 4.6, Leading zero omitted, Abs format (unit mm)*
G04 Created by KiCad (PCBNEW 9.0.3) date 2025-08-15 00:01:44*
%MOMM*%
%LPD*%
G01*
G04 APERTURE LIST*
%TA.AperFunction,SMDPad,CuDef*%
%ADD10R,1.550000X1.300000*%
%TD*%
%TA.AperFunction,ViaPad*%
%ADD11C,0.600000*%
%TD*%
%TA.AperFunction,ViaPad*%
%ADD12C,0.750000*%
%TD*%
%TA.AperFunction,Conductor*%
%ADD13C,0.200000*%
%TD*%
G04 APERTURE END LIST*
D10*
%TO.P,Y1,1,1*%
%TO.N,X1*%
X97057875Y-51704226D03*
X105007875Y-51704226D03*
%TO.P,Y1,2,2*%
%TO.N,X4*%
X97057875Y-56204226D03*
X105007875Y-56204226D03*
%TD*%
%TO.P,A1,1,1*%
%TO.N,X1*%
X100800000Y-66076000D03*
X108750000Y-66076000D03*
%TO.P,A1,2,2*%
%TO.N,X2*%
X100800000Y-70576000D03*
X108750000Y-70576000D03*
%TD*%
%TO.P,X1,1,1*%
%TO.N,X1*%
X115312960Y-62585602D03*
X123262960Y-62585602D03*
%TO.P,X1,2,2*%
%TO.N,X3*%
X115312960Y-67085602D03*
X123262960Y-67085602D03*
%TD*%
%TO.P,B1,1,1*%
%TO.N,X6*%
X85623656Y-73634140D03*
X93573656Y-73634140D03*
%TO.P,B1,2,2*%
%TO.N,X5*%
X85623656Y-78134140D03*
X93573656Y-78134140D03*
%TD*%
D11*
%TO.N,X3*%
X112852200Y-67335400D03*
%TO.N,X1*%
X110845600Y-70561200D03*
D12*
%TO.N,X2*%
X99212400Y-73685400D03*
%TO.N,X6*%
X87960200Y-77343000D03*
%TO.N,X5*%
X87147400Y-77978000D03*
%TO.N,X4*%
X95834200Y-74777600D03*
%TD*%
D13*
%TO.N,X2*%
X100764000Y-70612000D02*
X100800000Y-70576000D01*
X99212400Y-73253600D02*
X100764000Y-71702000D01*
X100764000Y-71702000D02*
X100764000Y-70612000D01*
X99212400Y-73685400D02*
X99212400Y-73253600D01*
%TO.N,X4*%
X96443800Y-56818301D02*
X97057875Y-56204226D01*
X96443800Y-74244200D02*
X96443800Y-56818301D01*
X95910400Y-74777600D02*
X96443800Y-74244200D01*
X95834200Y-74777600D02*
X95910400Y-74777600D01*
%TO.N,X6*%
X87960200Y-77343000D02*
X88417400Y-76885800D01*
X88417400Y-76885800D02*
X88417400Y-74676000D01*
%TO.N,X5*%
X86944200Y-77978000D02*
X86788060Y-78134140D01*
X87147400Y-77978000D02*
X86944200Y-77978000D01*
%TO.N,X1*%
X110708000Y-70423600D02*
X110845600Y-70561200D01*
X110708000Y-66076000D02*
X110708000Y-70423600D01*
X111709200Y-63296800D02*
X112420398Y-62585602D01*
X112420398Y-62585602D02*
X115312960Y-62585602D01*
X100800000Y-66076000D02*
X108750000Y-66076000D01*
X105007875Y-51704226D02*
X106060226Y-51704226D01*
X111709200Y-65074800D02*
X111709200Y-63296800D01*
X100785200Y-66090800D02*
X100800000Y-66076000D01*
X106705400Y-52349400D02*
X106705400Y-58293000D01*
X106060226Y-51704226D02*
X106705400Y-52349400D01*
X106705400Y-58293000D02*
X111709200Y-63296800D01*
X115312960Y-62585602D02*
X123262960Y-62585602D01*
X97057875Y-51704226D02*
X105007875Y-51704226D01*
X108750000Y-66076000D02*
X110708000Y-66076000D01*
X110708000Y-66076000D02*
X111709200Y-65074800D01*
%TO.N,X2*%
X108750000Y-70576000D02*
X100800000Y-70576000D01*
%TO.N,X6*%
X93573656Y-73634140D02*
X89459260Y-73634140D01*
X87375540Y-73634140D02*
X85623656Y-73634140D01*
X89459260Y-73634140D02*
X88417400Y-74676000D01*
X88417400Y-74676000D02*
X87375540Y-73634140D01*
%TO.N,X5*%
X93573656Y-78134140D02*
X86788060Y-78134140D01*
X86788060Y-78134140D02*
X85623656Y-78134140D01*
%TO.N,X3*%
X113101998Y-67085602D02*
X115312960Y-67085602D01*
X112852200Y-67335400D02*
X113101998Y-67085602D01*
X123262960Y-67085602D02*
X115312960Y-67085602D01*
%TO.N,X4*%
X105007875Y-56204226D02*
X97057875Y-56204226D01*
%TD*%
%TA.AperFunction,NonConductor*%
G36*
X105889039Y-49064695D02*
G01*
X105909343Y-49066025D01*
X106118311Y-49079721D01*
X106134367Y-49081836D01*
X106355717Y-49125865D01*
X106371361Y-49130057D01*
X106585069Y-49202602D01*
X106600052Y-49208808D01*
X106802449Y-49308619D01*
X106816496Y-49316729D01*
X107004137Y-49442108D01*
X107017001Y-49451979D01*
X107186667Y-49600773D01*
X107198137Y-49612243D01*
X107346929Y-49781910D01*
X107356802Y-49794778D01*
X107482177Y-49982416D01*
X107490288Y-49996463D01*
X107590099Y-50198863D01*
X107596304Y-50213844D01*
X107663414Y-50411549D01*
X107668842Y-50427538D01*
X107673040Y-50443206D01*
X107717064Y-50664541D01*
X107719181Y-50680622D01*
X107720496Y-50700684D01*
X107734226Y-50910205D01*
X107734491Y-50918295D01*
X107734491Y-55504239D01*
X107734468Y-55504317D01*
X107734470Y-55656279D01*
X107734471Y-55656280D01*
X107769431Y-55854534D01*
X107838287Y-56043704D01*
X107838294Y-56043717D01*
X107938945Y-56218044D01*
X107938950Y-56218052D01*
X108013750Y-56307193D01*
X108068351Y-56372263D01*
X108149420Y-56440287D01*
X108222566Y-56501663D01*
X108222568Y-56501664D01*
X108396911Y-56602320D01*
X108586084Y-56671173D01*
X108784340Y-56706131D01*
X108855061Y-56706131D01*
X110130234Y-56706131D01*
X110197273Y-56725816D01*
X110243028Y-56778620D01*
X110252972Y-56847778D01*
X110223947Y-56911334D01*
X110168553Y-56948061D01*
X110114501Y-56965624D01*
X110056582Y-56984443D01*
X109867176Y-57080950D01*
X109695210Y-57205889D01*
X109544887Y-57356212D01*
X109419948Y-57528178D01*
X109323441Y-57717584D01*
X109257750Y-57919759D01*
X109224497Y-58129712D01*
X109224497Y-58342285D01*
X109257370Y-58549841D01*
X109257751Y-58552242D01*
X109316064Y-58731711D01*
X109323441Y-58754413D01*
X109419948Y-58943819D01*
X109544887Y-59115785D01*
X109695210Y-59266108D01*
X109867176Y-59391047D01*
X109867178Y-59391048D01*
X109867181Y-59391050D01*
X110056585Y-59487556D01*
X110258754Y-59553245D01*
X110468710Y-59586499D01*
X110468711Y-59586499D01*
X110681283Y-59586499D01*
X110681284Y-59586499D01*
X110891240Y-59553245D01*
X111093409Y-59487556D01*
X111282813Y-59391050D01*
X111403977Y-59303020D01*
X111454783Y-59266108D01*
X111454785Y-59266105D01*
X111454789Y-59266103D01*
X111605101Y-59115791D01*
X111605103Y-59115787D01*
X111605106Y-59115785D01*
X111651106Y-59052470D01*
X112240062Y-59052470D01*
X112595030Y-59407439D01*
X112845536Y-59156932D01*
X112743744Y-59036133D01*
X112740359Y-59031933D01*
X112733715Y-59023314D01*
X112730512Y-59018967D01*
X112718033Y-59001232D01*
X112715022Y-58996748D01*
X112709152Y-58987582D01*
X112706343Y-58982978D01*
X112594596Y-58790542D01*
X112591988Y-58785818D01*
X112586935Y-58776173D01*
X112584532Y-58771332D01*
X112575315Y-58751703D01*
X112573132Y-58746780D01*
X112568940Y-58736741D01*
X112566968Y-58731711D01*
X112565317Y-58727216D01*
X112240062Y-59052470D01*
X111651106Y-59052470D01*
X111730045Y-58943819D01*
X111730044Y-58943819D01*
X111730048Y-58943815D01*
X111826554Y-58754411D01*
X111892243Y-58552242D01*
X111925497Y-58342286D01*
X111925497Y-58129712D01*
X111892243Y-57919756D01*
X111826554Y-57717587D01*
X111753698Y-57574598D01*
X112303721Y-57574598D01*
X112365002Y-57763197D01*
X112427578Y-57825773D01*
X112427578Y-57624100D01*
X112427334Y-57619432D01*
X112427483Y-57581725D01*
X112418676Y-57488709D01*
X112411972Y-57466347D01*
X112303721Y-57574598D01*
X111753698Y-57574598D01*
X111730048Y-57528183D01*
X111730046Y-57528180D01*
X111730045Y-57528178D01*
X111605106Y-57356212D01*
X111454783Y-57205889D01*
X111282817Y-57080950D01*
X111093411Y-56984443D01*
X111093410Y-56984442D01*
X111093409Y-56984442D01*
X110981440Y-56948061D01*
X110923766Y-56908625D01*
X110896568Y-56844266D01*
X110908483Y-56775420D01*
X110955727Y-56723944D01*
X111019760Y-56706131D01*
X112041747Y-56706131D01*
X112069989Y-56706131D01*
X112082173Y-56706731D01*
X112093529Y-56707852D01*
X112230059Y-56721333D01*
X112253954Y-56726099D01*
X112390250Y-56767556D01*
X112412756Y-56776904D01*
X112501366Y-56824411D01*
X112538313Y-56844219D01*
X112558551Y-56857786D01*
X112597837Y-56890142D01*
X112668518Y-56948357D01*
X112685716Y-56965624D01*
X112775845Y-57075954D01*
X112789333Y-57096251D01*
X112856139Y-57222071D01*
X112865397Y-57244613D01*
X112877840Y-57286119D01*
X112906308Y-57381079D01*
X112910978Y-57404998D01*
X112925002Y-57553108D01*
X112925553Y-57565289D01*
X112925391Y-57606021D01*
X112925578Y-57607706D01*
X112925578Y-58011978D01*
X112925381Y-58012648D01*
X112925577Y-58067727D01*
X112925578Y-58068168D01*
X112925578Y-58103748D01*
X112925709Y-58105057D01*
X112925917Y-58163639D01*
X112925917Y-58163642D01*
X112961454Y-58361316D01*
X112961454Y-58361317D01*
X113030697Y-58549842D01*
X113131549Y-58723516D01*
X113131550Y-58723517D01*
X113131552Y-58723520D01*
X113260969Y-58877101D01*
X113415036Y-59005940D01*
X113589092Y-59106141D01*
X113777876Y-59174675D01*
X113975677Y-59209468D01*
X114076097Y-59209447D01*
X114110447Y-59209447D01*
X120734547Y-59209447D01*
X120763895Y-59209447D01*
X120773883Y-59209850D01*
X120781259Y-59210446D01*
X120895327Y-59219664D01*
X120915023Y-59222868D01*
X121028444Y-59250855D01*
X121047385Y-59257186D01*
X121101912Y-59280445D01*
X121154838Y-59303021D01*
X121172514Y-59312310D01*
X121271211Y-59374807D01*
X121287168Y-59386816D01*
X121378617Y-59467960D01*
X121385819Y-59474888D01*
X121414228Y-59504515D01*
X121416079Y-59506046D01*
X123083112Y-61224769D01*
X123115657Y-61286597D01*
X123109610Y-61356204D01*
X123066889Y-61411492D01*
X123001060Y-61434907D01*
X122994103Y-61435102D01*
X122440089Y-61435102D01*
X122440083Y-61435103D01*
X122380476Y-61441510D01*
X122245631Y-61491804D01*
X122245624Y-61491808D01*
X122130415Y-61578054D01*
X122130412Y-61578057D01*
X122044166Y-61693266D01*
X122044162Y-61693273D01*
X121993870Y-61828115D01*
X121993869Y-61828119D01*
X121988897Y-61874359D01*
X121962161Y-61938908D01*
X121904769Y-61978756D01*
X121865609Y-61985102D01*
X116710311Y-61985102D01*
X116643272Y-61965417D01*
X116597517Y-61912613D01*
X116587021Y-61874354D01*
X116582051Y-61828118D01*
X116531757Y-61693273D01*
X116531753Y-61693266D01*
X116445507Y-61578057D01*
X116445504Y-61578054D01*
X116330295Y-61491808D01*
X116330288Y-61491804D01*
X116195442Y-61441510D01*
X116195443Y-61441510D01*
X116135843Y-61435103D01*
X116135841Y-61435102D01*
X116135833Y-61435102D01*
X116135824Y-61435102D01*
X114490089Y-61435102D01*
X114490083Y-61435103D01*
X114430476Y-61441510D01*
X114295631Y-61491804D01*
X114295624Y-61491808D01*
X114180415Y-61578054D01*
X114180412Y-61578057D01*
X114094166Y-61693266D01*
X114094162Y-61693273D01*
X114043870Y-61828115D01*
X114043869Y-61828119D01*
X114038897Y-61874359D01*
X114012161Y-61938908D01*
X113954769Y-61978756D01*
X113915609Y-61985102D01*
X112507067Y-61985102D01*
X112507051Y-61985101D01*
X112499455Y-61985101D01*
X112341341Y-61985101D01*
X112233985Y-62013867D01*
X112188608Y-62026026D01*
X112188607Y-62026027D01*
X112138494Y-62054961D01*
X112138493Y-62054962D01*
X112095087Y-62080022D01*
X112051683Y-62105081D01*
X112051680Y-62105083D01*
X111941747Y-62215017D01*
X111939878Y-62216886D01*
X111939876Y-62216888D01*
X111851601Y-62305162D01*
X111796880Y-62359884D01*
X111735557Y-62393368D01*
X111665865Y-62388384D01*
X111621518Y-62359883D01*
X110435427Y-61173792D01*
X111532956Y-61173792D01*
X111887924Y-61528760D01*
X112242892Y-61173792D01*
X112947170Y-61173792D01*
X113260480Y-61487102D01*
X113343796Y-61487102D01*
X113657106Y-61173792D01*
X113657105Y-61173791D01*
X117189810Y-61173791D01*
X117503121Y-61487102D01*
X117586437Y-61487102D01*
X117899747Y-61173792D01*
X118604024Y-61173792D01*
X118917334Y-61487102D01*
X119000650Y-61487102D01*
X119313960Y-61173792D01*
X120018238Y-61173792D01*
X120331548Y-61487102D01*
X120414864Y-61487102D01*
X120728174Y-61173792D01*
X121432451Y-61173792D01*
X121648916Y-61390257D01*
X121742413Y-61265365D01*
X121747964Y-61258476D01*
X121759657Y-61244981D01*
X121765691Y-61238501D01*
X121790859Y-61213333D01*
X121797339Y-61207299D01*
X121810834Y-61195606D01*
X121817723Y-61190055D01*
X121961432Y-61082473D01*
X121968708Y-61077421D01*
X121983731Y-61067767D01*
X121991339Y-61063254D01*
X122017541Y-61048946D01*
X121787419Y-60818824D01*
X121432451Y-61173792D01*
X120728174Y-61173792D01*
X120373206Y-60818824D01*
X120018238Y-61173792D01*
X119313960Y-61173792D01*
X118958992Y-60818824D01*
X118604024Y-61173792D01*
X117899747Y-61173792D01*
X117544778Y-60818823D01*
X117189810Y-61173791D01*
X113657105Y-61173791D01*
X113420416Y-60937102D01*
X114598071Y-60937102D01*
X114834629Y-60937102D01*
X116012287Y-60937102D01*
X116142505Y-60937102D01*
X116145835Y-60937147D01*
X116152536Y-60937327D01*
X116155845Y-60937460D01*
X116169162Y-60938174D01*
X116172481Y-60938397D01*
X116179146Y-60938934D01*
X116182443Y-60939243D01*
X116259240Y-60947499D01*
X116130564Y-60818823D01*
X116012287Y-60937102D01*
X114834629Y-60937102D01*
X114716351Y-60818823D01*
X114598071Y-60937102D01*
X113420416Y-60937102D01*
X113302138Y-60818824D01*
X112947170Y-61173792D01*
X112242892Y-61173792D01*
X111887924Y-60818824D01*
X111532956Y-61173792D01*
X110435427Y-61173792D01*
X109728320Y-60466685D01*
X110825849Y-60466685D01*
X111180817Y-60821653D01*
X111535786Y-60466685D01*
X112240063Y-60466685D01*
X112595031Y-60821653D01*
X112949999Y-60466685D01*
X113654277Y-60466685D01*
X114009245Y-60821653D01*
X114364213Y-60466685D01*
X115068490Y-60466685D01*
X115423458Y-60821653D01*
X115778426Y-60466685D01*
X116482704Y-60466685D01*
X116837672Y-60821653D01*
X117192640Y-60466685D01*
X117896917Y-60466685D01*
X118251885Y-60821653D01*
X118606853Y-60466685D01*
X119311131Y-60466685D01*
X119666099Y-60821653D01*
X120021067Y-60466685D01*
X120725344Y-60466685D01*
X121080312Y-60821653D01*
X121435280Y-60466685D01*
X121080312Y-60111716D01*
X120725344Y-60466685D01*
X120021067Y-60466685D01*
X119666099Y-60111717D01*
X119311131Y-60466685D01*
X118606853Y-60466685D01*
X118251885Y-60111717D01*
X117896917Y-60466685D01*
X117192640Y-60466685D01*
X116837672Y-60111717D01*
X116482704Y-60466685D01*
X115778426Y-60466685D01*
X115423458Y-60111717D01*
X115068490Y-60466685D01*
X114364213Y-60466685D01*
X114009245Y-60111717D01*
X113654277Y-60466685D01*
X112949999Y-60466685D01*
X112595031Y-60111717D01*
X112240063Y-60466685D01*
X111535786Y-60466685D01*
X111180817Y-60111716D01*
X110825849Y-60466685D01*
X109728320Y-60466685D01*
X109059030Y-59797395D01*
X111570773Y-59797395D01*
X111887924Y-60114546D01*
X112242892Y-59759578D01*
X112242891Y-59759577D01*
X112947169Y-59759577D01*
X113302138Y-60114546D01*
X113657106Y-59759578D01*
X114361383Y-59759578D01*
X114716351Y-60114546D01*
X115071318Y-59759578D01*
X115775597Y-59759578D01*
X116130565Y-60114546D01*
X116485533Y-59759578D01*
X116485532Y-59759577D01*
X117189810Y-59759577D01*
X117544778Y-60114546D01*
X117899747Y-59759578D01*
X118604024Y-59759578D01*
X118958992Y-60114546D01*
X119313960Y-59759578D01*
X120018238Y-59759578D01*
X120373206Y-60114546D01*
X120728174Y-59759578D01*
X120676043Y-59707447D01*
X120070369Y-59707447D01*
X120018238Y-59759578D01*
X119313960Y-59759578D01*
X119261829Y-59707447D01*
X118656155Y-59707447D01*
X118604024Y-59759578D01*
X117899747Y-59759578D01*
X117847616Y-59707447D01*
X117241941Y-59707447D01*
X117189810Y-59759577D01*
X116485532Y-59759577D01*
X116433402Y-59707447D01*
X115827728Y-59707447D01*
X115775597Y-59759578D01*
X115071318Y-59759578D01*
X115071319Y-59759577D01*
X115019189Y-59707447D01*
X114413514Y-59707447D01*
X114361383Y-59759578D01*
X113657106Y-59759578D01*
X113501768Y-59604240D01*
X113408963Y-59570549D01*
X113403933Y-59568598D01*
X113393875Y-59564443D01*
X113388934Y-59562275D01*
X113369270Y-59553131D01*
X113364421Y-59550746D01*
X113354761Y-59545731D01*
X113350029Y-59543143D01*
X113231715Y-59475031D01*
X112947169Y-59759577D01*
X112242891Y-59759577D01*
X111954241Y-59470927D01*
X111800015Y-59625154D01*
X111796509Y-59628526D01*
X111789307Y-59635184D01*
X111785673Y-59638413D01*
X111770798Y-59651120D01*
X111767031Y-59654212D01*
X111759312Y-59660298D01*
X111755423Y-59663242D01*
X111570773Y-59797395D01*
X109059030Y-59797395D01*
X107342219Y-58080584D01*
X107308734Y-58019261D01*
X107305900Y-57992903D01*
X107305900Y-57638258D01*
X107997422Y-57638258D01*
X108352390Y-57993226D01*
X108707358Y-57638258D01*
X108352390Y-57283290D01*
X107997422Y-57638258D01*
X107305900Y-57638258D01*
X107305900Y-57127503D01*
X107803900Y-57127503D01*
X107989347Y-56942055D01*
X107964157Y-56927512D01*
X107959531Y-56924704D01*
X107950328Y-56918841D01*
X107945828Y-56915835D01*
X107928021Y-56903366D01*
X107923663Y-56900170D01*
X107915009Y-56893530D01*
X107910787Y-56890142D01*
X107803900Y-56800454D01*
X107803900Y-57127503D01*
X107305900Y-57127503D01*
X107305900Y-52438459D01*
X107305901Y-52438446D01*
X107305901Y-52270345D01*
X107305901Y-52270343D01*
X107264977Y-52117615D01*
X107236039Y-52067495D01*
X107185920Y-51980684D01*
X107074116Y-51868880D01*
X107074115Y-51868879D01*
X107069785Y-51864549D01*
X107069774Y-51864539D01*
X106547816Y-51342581D01*
X106547814Y-51342578D01*
X106428943Y-51223707D01*
X106428938Y-51223703D01*
X106345374Y-51175458D01*
X106297159Y-51124891D01*
X106283374Y-51068071D01*
X106283374Y-51006355D01*
X106283373Y-51006349D01*
X106283372Y-51006342D01*
X106276966Y-50946743D01*
X106267796Y-50922158D01*
X106226672Y-50811897D01*
X106226668Y-50811890D01*
X106140422Y-50696681D01*
X106140419Y-50696678D01*
X106025210Y-50610432D01*
X106025203Y-50610428D01*
X105890357Y-50560134D01*
X105890358Y-50560134D01*
X105830758Y-50553727D01*
X105830756Y-50553726D01*
X105830748Y-50553726D01*
X105830739Y-50553726D01*
X104185004Y-50553726D01*
X104184998Y-50553727D01*
X104125391Y-50560134D01*
X103990546Y-50610428D01*
X103990539Y-50610432D01*
X103875330Y-50696678D01*
X103875327Y-50696681D01*
X103789081Y-50811890D01*
X103789077Y-50811897D01*
X103738785Y-50946739D01*
X103738784Y-50946743D01*
X103733812Y-50992983D01*
X103707076Y-51057532D01*
X103649684Y-51097380D01*
X103610524Y-51103726D01*
X98455226Y-51103726D01*
X98388187Y-51084041D01*
X98342432Y-51031237D01*
X98331936Y-50992978D01*
X98326966Y-50946742D01*
X98276672Y-50811897D01*
X98276668Y-50811890D01*
X98190422Y-50696681D01*
X98190419Y-50696678D01*
X98075210Y-50610432D01*
X98075203Y-50610428D01*
X97940357Y-50560134D01*
X97940358Y-50560134D01*
X97880758Y-50553727D01*
X97880756Y-50553726D01*
X97880748Y-50553726D01*
X97880739Y-50553726D01*
X96235004Y-50553726D01*
X96234998Y-50553727D01*
X96175391Y-50560134D01*
X96040546Y-50610428D01*
X96040539Y-50610432D01*
X95925330Y-50696678D01*
X95925327Y-50696681D01*
X95839081Y-50811890D01*
X95839077Y-50811897D01*
X95788783Y-50946743D01*
X95782376Y-51006342D01*
X95782376Y-51006349D01*
X95782375Y-51006361D01*
X95782375Y-52402096D01*
X95782376Y-52402102D01*
X95788783Y-52461709D01*
X95839077Y-52596554D01*
X95839081Y-52596561D01*
X95925327Y-52711770D01*
X95925330Y-52711773D01*
X96040539Y-52798019D01*
X96040546Y-52798023D01*
X96175392Y-52848317D01*
X96175391Y-52848317D01*
X96182319Y-52849061D01*
X96235002Y-52854726D01*
X97880747Y-52854725D01*
X97940358Y-52848317D01*
X98062594Y-52802726D01*
X98919250Y-52802726D01*
X99160002Y-53043478D01*
X99400754Y-52802726D01*
X100333464Y-52802726D01*
X100574216Y-53043478D01*
X100814968Y-52802726D01*
X101747677Y-52802726D01*
X101988429Y-53043478D01*
X102229181Y-52802726D01*
X103161891Y-52802726D01*
X103402642Y-53043477D01*
X103459213Y-52986907D01*
X103379746Y-52880754D01*
X103374694Y-52873478D01*
X103365040Y-52858455D01*
X103360527Y-52850847D01*
X103343467Y-52819605D01*
X103339504Y-52811689D01*
X103335411Y-52802726D01*
X103161891Y-52802726D01*
X102229181Y-52802726D01*
X101747677Y-52802726D01*
X100814968Y-52802726D01*
X100333464Y-52802726D01*
X99400754Y-52802726D01*
X98919250Y-52802726D01*
X98062594Y-52802726D01*
X98075206Y-52798022D01*
X98190421Y-52711772D01*
X98276671Y-52596557D01*
X98326966Y-52461709D01*
X98331937Y-52415468D01*
X98358674Y-52350920D01*
X98416066Y-52311072D01*
X98455226Y-52304726D01*
X103610524Y-52304726D01*
X103677563Y-52324411D01*
X103723318Y-52377215D01*
X103733814Y-52415474D01*
X103738783Y-52461709D01*
X103789077Y-52596554D01*
X103789081Y-52596561D01*
X103875327Y-52711770D01*
X103875330Y-52711773D01*
X103990539Y-52798019D01*
X103990546Y-52798023D01*
X104125392Y-52848317D01*
X104125391Y-52848317D01*
X104132319Y-52849061D01*
X104185002Y-52854726D01*
X105830747Y-52854725D01*
X105890358Y-52848317D01*
X105937567Y-52830708D01*
X106007258Y-52825725D01*
X106068581Y-52859210D01*
X106102066Y-52920533D01*
X106104900Y-52946891D01*
X106104900Y-54961560D01*
X106085215Y-55028599D01*
X106032411Y-55074354D01*
X105963253Y-55084298D01*
X105937568Y-55077742D01*
X105890360Y-55060135D01*
X105890358Y-55060134D01*
X105830758Y-55053727D01*
X105830756Y-55053726D01*
X105830748Y-55053726D01*
X105830739Y-55053726D01*
X104185004Y-55053726D01*
X104184998Y-55053727D01*
X104125391Y-55060134D01*
X103990546Y-55110428D01*
X103990539Y-55110432D01*
X103875330Y-55196678D01*
X103875327Y-55196681D01*
X103789081Y-55311890D01*
X103789077Y-55311897D01*
X103748048Y-55421904D01*
X103738784Y-55446743D01*
X103733812Y-55492983D01*
X103707076Y-55557532D01*
X103649684Y-55597380D01*
X103610524Y-55603726D01*
X98455226Y-55603726D01*
X98388187Y-55584041D01*
X98342432Y-55531237D01*
X98331936Y-55492978D01*
X98331639Y-55490219D01*
X98329304Y-55468498D01*
X98326966Y-55446742D01*
X98276672Y-55311897D01*
X98276668Y-55311890D01*
X98190422Y-55196681D01*
X98190419Y-55196678D01*
X98075210Y-55110432D01*
X98075203Y-55110428D01*
X97940357Y-55060134D01*
X97940358Y-55060134D01*
X97880758Y-55053727D01*
X97880756Y-55053726D01*
X97880748Y-55053726D01*
X97880739Y-55053726D01*
X96235004Y-55053726D01*
X96234998Y-55053727D01*
X96175391Y-55060134D01*
X96040546Y-55110428D01*
X96040539Y-55110432D01*
X95925330Y-55196678D01*
X95925327Y-55196681D01*
X95839081Y-55311890D01*
X95839077Y-55311897D01*
X95788783Y-55446743D01*
X95782376Y-55506342D01*
X95782375Y-55506361D01*
X95782375Y-56902096D01*
X95782376Y-56902102D01*
X95788783Y-56961709D01*
X95823408Y-57054542D01*
X95833257Y-57080948D01*
X95835482Y-57086912D01*
X95843300Y-57130245D01*
X95843300Y-73781373D01*
X95823615Y-73848412D01*
X95770811Y-73894167D01*
X95743492Y-73902990D01*
X95578831Y-73935743D01*
X95578821Y-73935746D01*
X95419501Y-74001738D01*
X95419488Y-74001745D01*
X95276101Y-74097554D01*
X95276097Y-74097557D01*
X95154157Y-74219497D01*
X95076257Y-74336082D01*
X95022644Y-74380886D01*
X94953319Y-74389593D01*
X94890292Y-74359438D01*
X94853573Y-74299995D01*
X94849155Y-74267197D01*
X94849155Y-72936268D01*
X94843955Y-72887897D01*
X94842747Y-72876656D01*
X94792453Y-72741811D01*
X94792449Y-72741804D01*
X94706203Y-72626595D01*
X94706200Y-72626592D01*
X94590991Y-72540346D01*
X94590984Y-72540342D01*
X94456138Y-72490048D01*
X94456139Y-72490048D01*
X94396539Y-72483641D01*
X94396537Y-72483640D01*
X94396529Y-72483640D01*
X94396520Y-72483640D01*
X92750785Y-72483640D01*
X92750779Y-72483641D01*
X92691172Y-72490048D01*
X92556327Y-72540342D01*
X92556320Y-72540346D01*
X92441111Y-72626592D01*
X92441108Y-72626595D01*
X92354862Y-72741804D01*
X92354858Y-72741811D01*
X92304566Y-72876653D01*
X92304565Y-72876657D01*
X92299593Y-72922897D01*
X92272857Y-72987446D01*
X92215465Y-73027294D01*
X92176305Y-73033640D01*
X89545930Y-73033640D01*
X89545914Y-73033639D01*
X89538318Y-73033639D01*
X89380203Y-73033639D01*
X89303839Y-73054101D01*
X89227474Y-73074563D01*
X89227469Y-73074566D01*
X89090550Y-73153615D01*
X89090542Y-73153621D01*
X88505080Y-73739083D01*
X88443757Y-73772568D01*
X88374065Y-73767584D01*
X88329720Y-73739084D01*
X87863129Y-73272494D01*
X87863128Y-73272492D01*
X87744257Y-73153621D01*
X87744249Y-73153615D01*
X87628486Y-73086780D01*
X87628485Y-73086779D01*
X87613425Y-73078085D01*
X87607325Y-73074563D01*
X87512159Y-73049063D01*
X88343976Y-73049063D01*
X88417398Y-73122485D01*
X88626823Y-72913061D01*
X88553400Y-72839638D01*
X88343976Y-73049063D01*
X87512159Y-73049063D01*
X87454597Y-73033639D01*
X87296483Y-73033639D01*
X87288887Y-73033639D01*
X87288871Y-73033640D01*
X87021007Y-73033640D01*
X86953968Y-73013955D01*
X86908213Y-72961151D01*
X86897717Y-72922892D01*
X86892747Y-72876656D01*
X86842453Y-72741811D01*
X86842449Y-72741804D01*
X86756203Y-72626595D01*
X86756200Y-72626592D01*
X86640991Y-72540346D01*
X86640984Y-72540342D01*
X86506138Y-72490048D01*
X86506139Y-72490048D01*
X86482437Y-72487500D01*
X87491326Y-72487500D01*
X87548020Y-72544194D01*
X87559836Y-72546545D01*
X87567735Y-72548387D01*
X87751977Y-72597755D01*
X87759742Y-72600111D01*
X87775246Y-72605374D01*
X87782844Y-72608234D01*
X87812982Y-72620719D01*
X87820366Y-72624065D01*
X87835040Y-72631301D01*
X87842197Y-72635126D01*
X87976245Y-72712515D01*
X88201260Y-72487500D01*
X88905539Y-72487500D01*
X89033796Y-72615757D01*
X89051970Y-72608229D01*
X89059571Y-72605368D01*
X89075069Y-72600108D01*
X89082828Y-72597754D01*
X89267063Y-72548387D01*
X89274967Y-72546544D01*
X89291020Y-72543351D01*
X89299022Y-72542030D01*
X89331366Y-72537771D01*
X89339442Y-72536976D01*
X89355778Y-72535905D01*
X89363890Y-72535639D01*
X89553697Y-72535639D01*
X89553729Y-72535640D01*
X89567335Y-72535640D01*
X89615475Y-72487500D01*
X90319753Y-72487500D01*
X90367893Y-72535640D01*
X90981549Y-72535640D01*
X91029689Y-72487500D01*
X91733966Y-72487500D01*
X91782106Y-72535640D01*
X91901192Y-72535640D01*
X91905285Y-72526677D01*
X91909248Y-72518761D01*
X91926308Y-72487519D01*
X91930821Y-72479911D01*
X91940475Y-72464888D01*
X91945527Y-72457612D01*
X92053109Y-72313903D01*
X92058660Y-72307014D01*
X92070353Y-72293519D01*
X92076387Y-72287039D01*
X92101555Y-72261871D01*
X92108035Y-72255837D01*
X92121530Y-72244144D01*
X92128419Y-72238593D01*
X92166492Y-72210090D01*
X92106121Y-72149719D01*
X94900174Y-72149719D01*
X95018893Y-72238593D01*
X95025782Y-72244144D01*
X95039277Y-72255837D01*
X95045757Y-72261871D01*
X95070925Y-72287039D01*
X95076959Y-72293519D01*
X95088652Y-72307014D01*
X95094203Y-72313903D01*
X95201785Y-72457612D01*
X95206837Y-72464888D01*
X95216491Y-72479911D01*
X95221004Y-72487519D01*
X95238064Y-72518761D01*
X95239066Y-72520763D01*
X95272329Y-72487499D01*
X94917362Y-72132532D01*
X94900174Y-72149719D01*
X92106121Y-72149719D01*
X92088934Y-72132532D01*
X91733966Y-72487500D01*
X91029689Y-72487500D01*
X90674721Y-72132532D01*
X90319753Y-72487500D01*
X89615475Y-72487500D01*
X89260507Y-72132532D01*
X88905539Y-72487500D01*
X88201260Y-72487500D01*
X88201261Y-72487499D01*
X87846294Y-72132532D01*
X87491326Y-72487500D01*
X86482437Y-72487500D01*
X86446539Y-72483641D01*
X86446537Y-72483640D01*
X86446529Y-72483640D01*
X86446520Y-72483640D01*
X84800785Y-72483640D01*
X84800779Y-72483641D01*
X84741172Y-72490048D01*
X84606327Y-72540342D01*
X84606320Y-72540346D01*
X84491111Y-72626592D01*
X84491108Y-72626595D01*
X84404862Y-72741804D01*
X84404858Y-72741811D01*
X84354564Y-72876657D01*
X84348157Y-72936256D01*
X84348157Y-72936263D01*
X84348156Y-72936275D01*
X84348156Y-74332010D01*
X84348157Y-74332016D01*
X84354564Y-74391623D01*
X84404858Y-74526468D01*
X84404862Y-74526475D01*
X84491108Y-74641684D01*
X84491111Y-74641687D01*
X84606320Y-74727933D01*
X84606327Y-74727937D01*
X84741173Y-74778231D01*
X84741172Y-74778231D01*
X84748100Y-74778975D01*
X84800783Y-74784640D01*
X86446528Y-74784639D01*
X86506139Y-74778231D01*
X86640987Y-74727936D01*
X86756202Y-74641686D01*
X86842452Y-74526471D01*
X86892747Y-74391623D01*
X86897718Y-74345382D01*
X86924455Y-74280834D01*
X86981847Y-74240986D01*
X87021007Y-74234640D01*
X87075443Y-74234640D01*
X87142482Y-74254325D01*
X87163124Y-74270959D01*
X87780581Y-74888416D01*
X87814066Y-74949739D01*
X87816900Y-74976097D01*
X87816900Y-76377087D01*
X87797215Y-76444126D01*
X87744411Y-76489881D01*
X87717097Y-76498703D01*
X87704834Y-76501142D01*
X87704821Y-76501146D01*
X87545501Y-76567138D01*
X87545488Y-76567145D01*
X87402101Y-76662954D01*
X87402097Y-76662957D01*
X87280157Y-76784897D01*
X87280154Y-76784901D01*
X87184345Y-76928288D01*
X87184340Y-76928298D01*
X87142128Y-77030207D01*
X87098287Y-77084610D01*
X87051759Y-77104371D01*
X86892032Y-77136143D01*
X86892025Y-77136145D01*
X86878030Y-77141942D01*
X86808561Y-77149408D01*
X86756271Y-77126646D01*
X86744164Y-77117583D01*
X86640987Y-77040344D01*
X86640986Y-77040343D01*
X86640984Y-77040342D01*
X86506138Y-76990048D01*
X86506139Y-76990048D01*
X86446539Y-76983641D01*
X86446537Y-76983640D01*
X86446529Y-76983640D01*
X86446520Y-76983640D01*
X84800785Y-76983640D01*
X84800779Y-76983641D01*
X84741172Y-76990048D01*
X84606327Y-77040342D01*
X84606320Y-77040346D01*
X84491111Y-77126592D01*
X84491108Y-77126595D01*
X84404862Y-77241804D01*
X84404858Y-77241811D01*
X84354564Y-77376657D01*
X84348872Y-77429604D01*
X84348157Y-77436263D01*
X84348156Y-77436275D01*
X84348156Y-78832010D01*
X84348157Y-78832016D01*
X84354564Y-78891623D01*
X84404858Y-79026468D01*
X84404862Y-79026475D01*
X84491108Y-79141684D01*
X84491111Y-79141687D01*
X84606320Y-79227933D01*
X84606327Y-79227937D01*
X84741173Y-79278231D01*
X84741172Y-79278231D01*
X84748100Y-79278975D01*
X84800783Y-79284640D01*
X86446528Y-79284639D01*
X86506139Y-79278231D01*
X86640987Y-79227936D01*
X86756202Y-79141686D01*
X86842452Y-79026471D01*
X86880739Y-78923815D01*
X86922609Y-78867883D01*
X86988073Y-78843465D01*
X87021113Y-78845532D01*
X87061169Y-78853500D01*
X87061171Y-78853500D01*
X87233631Y-78853500D01*
X87233632Y-78853499D01*
X87402774Y-78819855D01*
X87562105Y-78753858D01*
X87562105Y-78753857D01*
X87567475Y-78750988D01*
X87568427Y-78752769D01*
X87626275Y-78734660D01*
X87628482Y-78734640D01*
X92176305Y-78734640D01*
X92243344Y-78754325D01*
X92289099Y-78807129D01*
X92299595Y-78845388D01*
X92304564Y-78891623D01*
X92354858Y-79026468D01*
X92354862Y-79026475D01*
X92441108Y-79141684D01*
X92441111Y-79141687D01*
X92556320Y-79227933D01*
X92556327Y-79227937D01*
X92691173Y-79278231D01*
X92691172Y-79278231D01*
X92698100Y-79278975D01*
X92750783Y-79284640D01*
X94396528Y-79284639D01*
X94456139Y-79278231D01*
X94590987Y-79227936D01*
X94706202Y-79141686D01*
X94792452Y-79026471D01*
X94831312Y-78922282D01*
X95340321Y-78922282D01*
X95624468Y-79206429D01*
X95979436Y-78851461D01*
X96683714Y-78851461D01*
X97038682Y-79206429D01*
X97393650Y-78851461D01*
X98097927Y-78851461D01*
X98452895Y-79206429D01*
X98807863Y-78851461D01*
X99512141Y-78851461D01*
X99867109Y-79206429D01*
X100222077Y-78851461D01*
X100926354Y-78851461D01*
X101281322Y-79206429D01*
X101636291Y-78851461D01*
X102340568Y-78851461D01*
X102695536Y-79206429D01*
X103050504Y-78851461D01*
X102695536Y-78496493D01*
X102340568Y-78851461D01*
X101636291Y-78851461D01*
X101281322Y-78496492D01*
X100926354Y-78851461D01*
X100222077Y-78851461D01*
X99867109Y-78496493D01*
X99512141Y-78851461D01*
X98807863Y-78851461D01*
X98452895Y-78496492D01*
X98097927Y-78851461D01*
X97393650Y-78851461D01*
X97038682Y-78496493D01*
X96683714Y-78851461D01*
X95979436Y-78851461D01*
X95624467Y-78496492D01*
X95347155Y-78773804D01*
X95347156Y-78838684D01*
X95347111Y-78842015D01*
X95346931Y-78848716D01*
X95346798Y-78852025D01*
X95346084Y-78865342D01*
X95345861Y-78868661D01*
X95345324Y-78875326D01*
X95345015Y-78878623D01*
X95340321Y-78922282D01*
X94831312Y-78922282D01*
X94842747Y-78891623D01*
X94849156Y-78832013D01*
X94849156Y-78144354D01*
X95976606Y-78144354D01*
X96331575Y-78499323D01*
X96686543Y-78144354D01*
X97390820Y-78144354D01*
X97745789Y-78499323D01*
X98100757Y-78144354D01*
X98805033Y-78144354D01*
X99160002Y-78499323D01*
X99514970Y-78144354D01*
X100219247Y-78144354D01*
X100574216Y-78499323D01*
X100929184Y-78144354D01*
X101633460Y-78144354D01*
X101988429Y-78499323D01*
X102343397Y-78144354D01*
X103047674Y-78144354D01*
X103402643Y-78499323D01*
X103757611Y-78144354D01*
X103402643Y-77789386D01*
X103047674Y-78144354D01*
X102343397Y-78144354D01*
X101988429Y-77789386D01*
X101633460Y-78144354D01*
X100929184Y-78144354D01*
X100574216Y-77789386D01*
X100219247Y-78144354D01*
X99514970Y-78144354D01*
X99160002Y-77789386D01*
X98805033Y-78144354D01*
X98100757Y-78144354D01*
X97745789Y-77789386D01*
X97390820Y-78144354D01*
X96686543Y-78144354D01*
X96331575Y-77789386D01*
X95976606Y-78144354D01*
X94849156Y-78144354D01*
X94849155Y-77436268D01*
X94842747Y-77376657D01*
X94838191Y-77364443D01*
X95342303Y-77364443D01*
X95345016Y-77389674D01*
X95345327Y-77392989D01*
X95345864Y-77399668D01*
X95346086Y-77402975D01*
X95346799Y-77416289D01*
X95346932Y-77419600D01*
X95347111Y-77426284D01*
X95347155Y-77429604D01*
X95347155Y-77514903D01*
X95624468Y-77792216D01*
X95979436Y-77437248D01*
X96683714Y-77437248D01*
X97038682Y-77792216D01*
X97393650Y-77437248D01*
X98097927Y-77437248D01*
X98452895Y-77792216D01*
X98807863Y-77437248D01*
X99512141Y-77437248D01*
X99867109Y-77792216D01*
X100222077Y-77437248D01*
X100926354Y-77437248D01*
X101281322Y-77792216D01*
X101636291Y-77437248D01*
X102340568Y-77437248D01*
X102695536Y-77792216D01*
X103050504Y-77437248D01*
X103754782Y-77437248D01*
X104109750Y-77792216D01*
X104464718Y-77437248D01*
X104109750Y-77082280D01*
X103754782Y-77437248D01*
X103050504Y-77437248D01*
X102695536Y-77082280D01*
X102340568Y-77437248D01*
X101636291Y-77437248D01*
X101281322Y-77082279D01*
X100926354Y-77437248D01*
X100222077Y-77437248D01*
X99867109Y-77082280D01*
X99512141Y-77437248D01*
X98807863Y-77437248D01*
X98452895Y-77082279D01*
X98097927Y-77437248D01*
X97393650Y-77437248D01*
X97038682Y-77082280D01*
X96683714Y-77437248D01*
X95979436Y-77437248D01*
X95624467Y-77082279D01*
X95342303Y-77364443D01*
X94838191Y-77364443D01*
X94792453Y-77241811D01*
X94792449Y-77241804D01*
X94706203Y-77126595D01*
X94706200Y-77126592D01*
X94590991Y-77040346D01*
X94590984Y-77040342D01*
X94456138Y-76990048D01*
X94456139Y-76990048D01*
X94396539Y-76983641D01*
X94396537Y-76983640D01*
X94396529Y-76983640D01*
X94396520Y-76983640D01*
X92750785Y-76983640D01*
X92750779Y-76983641D01*
X92691172Y-76990048D01*
X92556327Y-77040342D01*
X92556320Y-77040346D01*
X92441111Y-77126592D01*
X92441108Y-77126595D01*
X92354862Y-77241804D01*
X92354858Y-77241811D01*
X92307757Y-77368098D01*
X92304565Y-77376657D01*
X92299593Y-77422897D01*
X92272857Y-77487446D01*
X92215465Y-77527294D01*
X92176305Y-77533640D01*
X88959700Y-77533640D01*
X88892661Y-77513955D01*
X88846906Y-77461151D01*
X88835700Y-77409640D01*
X88835700Y-77368098D01*
X88855385Y-77301059D01*
X88872019Y-77280417D01*
X88875932Y-77276504D01*
X88897920Y-77254516D01*
X88976977Y-77117584D01*
X89017900Y-76964857D01*
X89017900Y-76730141D01*
X90319753Y-76730141D01*
X90625252Y-77035640D01*
X90724190Y-77035640D01*
X91029689Y-76730141D01*
X91733966Y-76730141D01*
X91952338Y-76948513D01*
X92053109Y-76813903D01*
X92058660Y-76807014D01*
X92070353Y-76793519D01*
X92076387Y-76787039D01*
X92101555Y-76761871D01*
X92108035Y-76755837D01*
X92121530Y-76744144D01*
X92128419Y-76738593D01*
X92272128Y-76631011D01*
X92279404Y-76625959D01*
X92294427Y-76616305D01*
X92302035Y-76611792D01*
X92317247Y-76603485D01*
X92274946Y-76561184D01*
X94731349Y-76561184D01*
X94781695Y-76579962D01*
X94789874Y-76583350D01*
X94806119Y-76590769D01*
X94814035Y-76594732D01*
X94845277Y-76611792D01*
X94852885Y-76616305D01*
X94867908Y-76625959D01*
X94875184Y-76631011D01*
X95018893Y-76738593D01*
X95025782Y-76744144D01*
X95039277Y-76755837D01*
X95045757Y-76761871D01*
X95070925Y-76787039D01*
X95076959Y-76793519D01*
X95088652Y-76807014D01*
X95094203Y-76813903D01*
X95134601Y-76867868D01*
X95272328Y-76730141D01*
X95976607Y-76730141D01*
X96331575Y-77085109D01*
X96686543Y-76730141D01*
X97390821Y-76730141D01*
X97745789Y-77085109D01*
X98100757Y-76730141D01*
X98805034Y-76730141D01*
X99160002Y-77085109D01*
X99514970Y-76730141D01*
X100219248Y-76730141D01*
X100574216Y-77085109D01*
X100929184Y-76730141D01*
X101633461Y-76730141D01*
X101988429Y-77085109D01*
X102343397Y-76730141D01*
X103047675Y-76730141D01*
X103402643Y-77085109D01*
X103757611Y-76730141D01*
X104461888Y-76730141D01*
X104816856Y-77085109D01*
X105171824Y-76730141D01*
X104816856Y-76375172D01*
X104461888Y-76730141D01*
X103757611Y-76730141D01*
X103402643Y-76375173D01*
X103047675Y-76730141D01*
X102343397Y-76730141D01*
X101988429Y-76375173D01*
X101633461Y-76730141D01*
X100929184Y-76730141D01*
X100574216Y-76375173D01*
X100219248Y-76730141D01*
X99514970Y-76730141D01*
X99160002Y-76375173D01*
X98805034Y-76730141D01*
X98100757Y-76730141D01*
X97745789Y-76375173D01*
X97390821Y-76730141D01*
X96686543Y-76730141D01*
X96331575Y-76375173D01*
X95976607Y-76730141D01*
X95272328Y-76730141D01*
X95272329Y-76730140D01*
X94917361Y-76375172D01*
X94731349Y-76561184D01*
X92274946Y-76561184D01*
X92088934Y-76375172D01*
X91733966Y-76730141D01*
X91029689Y-76730141D01*
X90674721Y-76375173D01*
X90319753Y-76730141D01*
X89017900Y-76730141D01*
X89017900Y-76023034D01*
X89612646Y-76023034D01*
X89967614Y-76378002D01*
X90322582Y-76023034D01*
X91026860Y-76023034D01*
X91381828Y-76378002D01*
X91736796Y-76023034D01*
X92441073Y-76023034D01*
X92796041Y-76378002D01*
X93151009Y-76023034D01*
X93855287Y-76023034D01*
X94210255Y-76378002D01*
X94552718Y-76035539D01*
X95282005Y-76035539D01*
X95624468Y-76378002D01*
X95851370Y-76151100D01*
X95735743Y-76151100D01*
X95729660Y-76150951D01*
X95717403Y-76150349D01*
X95711334Y-76149901D01*
X95686993Y-76147504D01*
X95680953Y-76146759D01*
X95668810Y-76144958D01*
X95662811Y-76143917D01*
X95469676Y-76105500D01*
X95463738Y-76104167D01*
X95451829Y-76101184D01*
X95445957Y-76099559D01*
X95422552Y-76092458D01*
X95416779Y-76090551D01*
X95405225Y-76086417D01*
X95399546Y-76084226D01*
X95282005Y-76035539D01*
X94552718Y-76035539D01*
X94565223Y-76023034D01*
X96683714Y-76023034D01*
X97038682Y-76378002D01*
X97393650Y-76023034D01*
X98097927Y-76023034D01*
X98452895Y-76378002D01*
X98807863Y-76023034D01*
X99512141Y-76023034D01*
X99867109Y-76378002D01*
X100222077Y-76023034D01*
X100926354Y-76023034D01*
X101281322Y-76378002D01*
X101636291Y-76023034D01*
X102340568Y-76023034D01*
X102695536Y-76378002D01*
X103050504Y-76023034D01*
X103754782Y-76023034D01*
X104109750Y-76378002D01*
X104464718Y-76023034D01*
X105168995Y-76023034D01*
X105523963Y-76378002D01*
X105878931Y-76023034D01*
X105523963Y-75668066D01*
X105168995Y-76023034D01*
X104464718Y-76023034D01*
X104109750Y-75668066D01*
X103754782Y-76023034D01*
X103050504Y-76023034D01*
X102695536Y-75668066D01*
X102340568Y-76023034D01*
X101636291Y-76023034D01*
X101281322Y-75668065D01*
X100926354Y-76023034D01*
X100222077Y-76023034D01*
X99867109Y-75668066D01*
X99512141Y-76023034D01*
X98807863Y-76023034D01*
X98452895Y-75668065D01*
X98097927Y-76023034D01*
X97393650Y-76023034D01*
X97038682Y-75668066D01*
X96683714Y-76023034D01*
X94565223Y-76023034D01*
X94210255Y-75668066D01*
X93855287Y-76023034D01*
X93151009Y-76023034D01*
X92796041Y-75668066D01*
X92441073Y-76023034D01*
X91736796Y-76023034D01*
X91381828Y-75668066D01*
X91026860Y-76023034D01*
X90322582Y-76023034D01*
X89967614Y-75668066D01*
X89612646Y-76023034D01*
X89017900Y-76023034D01*
X89017900Y-75315927D01*
X90319753Y-75315927D01*
X90674721Y-75670895D01*
X91029689Y-75315927D01*
X91029688Y-75315926D01*
X91733965Y-75315926D01*
X92088934Y-75670895D01*
X92443902Y-75315927D01*
X93148180Y-75315927D01*
X93503148Y-75670895D01*
X93858116Y-75315927D01*
X93824828Y-75282639D01*
X93181468Y-75282639D01*
X93148180Y-75315927D01*
X92443902Y-75315927D01*
X92244745Y-75116770D01*
X92128419Y-75029687D01*
X92121530Y-75024136D01*
X92108035Y-75012443D01*
X92101555Y-75006409D01*
X92076387Y-74981241D01*
X92072656Y-74977235D01*
X91733965Y-75315926D01*
X91029688Y-75315926D01*
X90674721Y-74960959D01*
X90319753Y-75315927D01*
X89017900Y-75315927D01*
X89017900Y-74976097D01*
X89037585Y-74909058D01*
X89054219Y-74888416D01*
X89121091Y-74821544D01*
X89825369Y-74821544D01*
X89967614Y-74963789D01*
X90198763Y-74732640D01*
X91150679Y-74732640D01*
X91381828Y-74963789D01*
X91612977Y-74732640D01*
X91150679Y-74732640D01*
X90198763Y-74732640D01*
X89914274Y-74732640D01*
X89825369Y-74821544D01*
X89121091Y-74821544D01*
X89671677Y-74270959D01*
X89733000Y-74237474D01*
X89759358Y-74234640D01*
X92176305Y-74234640D01*
X92243344Y-74254325D01*
X92289099Y-74307129D01*
X92299595Y-74345388D01*
X92304564Y-74391623D01*
X92354858Y-74526468D01*
X92354862Y-74526475D01*
X92441108Y-74641684D01*
X92441111Y-74641687D01*
X92556320Y-74727933D01*
X92556327Y-74727937D01*
X92691173Y-74778231D01*
X92691172Y-74778231D01*
X92698100Y-74778975D01*
X92750783Y-74784640D01*
X94396528Y-74784639D01*
X94456139Y-74778231D01*
X94590987Y-74727936D01*
X94706202Y-74641686D01*
X94736379Y-74601374D01*
X94792311Y-74559505D01*
X94862002Y-74554521D01*
X94923325Y-74588006D01*
X94956810Y-74649329D01*
X94959048Y-74687832D01*
X94958700Y-74691368D01*
X94958700Y-74863833D01*
X94992343Y-75032966D01*
X94992346Y-75032978D01*
X95058338Y-75192298D01*
X95058345Y-75192311D01*
X95154154Y-75335698D01*
X95154157Y-75335702D01*
X95276097Y-75457642D01*
X95276101Y-75457645D01*
X95419488Y-75553454D01*
X95419501Y-75553461D01*
X95578821Y-75619453D01*
X95578826Y-75619455D01*
X95747966Y-75653099D01*
X95747969Y-75653100D01*
X95747971Y-75653100D01*
X95920431Y-75653100D01*
X95920432Y-75653099D01*
X96089574Y-75619455D01*
X96248905Y-75553458D01*
X96392299Y-75457645D01*
X96514245Y-75335699D01*
X96527456Y-75315927D01*
X97390821Y-75315927D01*
X97745789Y-75670895D01*
X98100757Y-75315927D01*
X98100756Y-75315926D01*
X98805033Y-75315926D01*
X99160002Y-75670895D01*
X99514970Y-75315927D01*
X100219248Y-75315927D01*
X100574216Y-75670895D01*
X100929184Y-75315927D01*
X101633461Y-75315927D01*
X101988429Y-75670895D01*
X102343397Y-75315927D01*
X102343396Y-75315926D01*
X103047674Y-75315926D01*
X103402643Y-75670895D01*
X103757611Y-75315927D01*
X104461888Y-75315927D01*
X104816856Y-75670895D01*
X105171824Y-75315926D01*
X105876101Y-75315926D01*
X106231070Y-75670895D01*
X106586038Y-75315927D01*
X107290316Y-75315927D01*
X107457332Y-75482943D01*
X107482885Y-75476097D01*
X107486815Y-75475112D01*
X107494782Y-75473254D01*
X107498755Y-75472396D01*
X107514743Y-75469216D01*
X107518734Y-75468490D01*
X107526808Y-75467157D01*
X107530822Y-75466562D01*
X107761494Y-75436193D01*
X107765524Y-75435729D01*
X107773666Y-75434927D01*
X107777711Y-75434595D01*
X107793976Y-75433529D01*
X107798025Y-75433331D01*
X107806203Y-75433063D01*
X107810263Y-75432996D01*
X107883182Y-75432995D01*
X108000250Y-75315927D01*
X108704529Y-75315927D01*
X108821598Y-75432996D01*
X109297396Y-75432996D01*
X109414465Y-75315927D01*
X110118743Y-75315927D01*
X110235812Y-75432996D01*
X110711610Y-75432996D01*
X110828679Y-75315927D01*
X111532956Y-75315927D01*
X111650025Y-75432996D01*
X112125823Y-75432996D01*
X112242892Y-75315927D01*
X112947170Y-75315927D01*
X113064239Y-75432996D01*
X113540037Y-75432996D01*
X113657106Y-75315927D01*
X114361383Y-75315927D01*
X114478452Y-75432996D01*
X114954251Y-75432996D01*
X115071319Y-75315927D01*
X115775597Y-75315927D01*
X115892666Y-75432996D01*
X116368464Y-75432996D01*
X116485533Y-75315927D01*
X117189810Y-75315927D01*
X117306879Y-75432996D01*
X117782678Y-75432996D01*
X117899747Y-75315927D01*
X118604024Y-75315927D01*
X118721093Y-75432996D01*
X119196891Y-75432996D01*
X119313960Y-75315927D01*
X120018238Y-75315927D01*
X120135307Y-75432996D01*
X120611105Y-75432996D01*
X120728174Y-75315927D01*
X121432451Y-75315927D01*
X121549520Y-75432996D01*
X121578038Y-75432996D01*
X121854588Y-75417464D01*
X122078974Y-75379338D01*
X122142386Y-75315926D01*
X121787419Y-74960959D01*
X121432451Y-75315927D01*
X120728174Y-75315927D01*
X120373206Y-74960959D01*
X120018238Y-75315927D01*
X119313960Y-75315927D01*
X118958992Y-74960959D01*
X118604024Y-75315927D01*
X117899747Y-75315927D01*
X117544778Y-74960958D01*
X117189810Y-75315927D01*
X116485533Y-75315927D01*
X116130565Y-74960959D01*
X115775597Y-75315927D01*
X115071319Y-75315927D01*
X114716351Y-74960958D01*
X114361383Y-75315927D01*
X113657106Y-75315927D01*
X113302138Y-74960959D01*
X112947170Y-75315927D01*
X112242892Y-75315927D01*
X111887924Y-74960959D01*
X111532956Y-75315927D01*
X110828679Y-75315927D01*
X110473711Y-74960959D01*
X110118743Y-75315927D01*
X109414465Y-75315927D01*
X109059497Y-74960959D01*
X108704529Y-75315927D01*
X108000250Y-75315927D01*
X108000251Y-75315926D01*
X107645284Y-74960959D01*
X107290316Y-75315927D01*
X106586038Y-75315927D01*
X106242765Y-74972654D01*
X106178354Y-75024585D01*
X106172851Y-75028774D01*
X106161522Y-75036909D01*
X106155795Y-75040784D01*
X106143267Y-75048760D01*
X105876101Y-75315926D01*
X105171824Y-75315926D01*
X105080397Y-75224499D01*
X104553316Y-75224499D01*
X104461888Y-75315927D01*
X103757611Y-75315927D01*
X103576374Y-75134690D01*
X103448054Y-75072895D01*
X103441873Y-75069702D01*
X103429595Y-75062916D01*
X103423605Y-75059383D01*
X103399933Y-75044509D01*
X103394153Y-75040647D01*
X103382711Y-75032529D01*
X103377150Y-75028344D01*
X103353843Y-75009757D01*
X103047674Y-75315926D01*
X102343396Y-75315926D01*
X101988429Y-74960959D01*
X101633461Y-75315927D01*
X100929184Y-75315927D01*
X100574216Y-74960959D01*
X100219248Y-75315927D01*
X99514970Y-75315927D01*
X99257943Y-75058900D01*
X99113943Y-75058900D01*
X99107860Y-75058751D01*
X99095603Y-75058149D01*
X99089534Y-75057701D01*
X99065614Y-75055345D01*
X98805033Y-75315926D01*
X98100756Y-75315926D01*
X97745789Y-74960959D01*
X97390821Y-75315927D01*
X96527456Y-75315927D01*
X96610058Y-75192305D01*
X96676055Y-75032974D01*
X96699680Y-74914205D01*
X96710889Y-74857855D01*
X96713128Y-74858300D01*
X96735455Y-74802964D01*
X96745020Y-74792214D01*
X96924320Y-74612916D01*
X96926685Y-74608820D01*
X98097926Y-74608820D01*
X98452895Y-74963789D01*
X98497381Y-74919302D01*
X99822622Y-74919302D01*
X99867109Y-74963789D01*
X100060161Y-74770736D01*
X100057341Y-74772723D01*
X99893611Y-74882125D01*
X99888461Y-74885386D01*
X99877930Y-74891697D01*
X99872641Y-74894693D01*
X99851071Y-74906222D01*
X99845635Y-74908958D01*
X99834541Y-74914205D01*
X99828977Y-74916671D01*
X99822622Y-74919302D01*
X98497381Y-74919302D01*
X98533252Y-74883431D01*
X98531189Y-74882125D01*
X98367459Y-74772723D01*
X98362485Y-74769220D01*
X98352627Y-74761909D01*
X98347826Y-74758163D01*
X98328920Y-74742647D01*
X98324319Y-74738678D01*
X98315223Y-74730435D01*
X98310809Y-74726232D01*
X98193398Y-74608821D01*
X100926354Y-74608821D01*
X101281322Y-74963789D01*
X101636291Y-74608821D01*
X102340568Y-74608821D01*
X102695535Y-74963788D01*
X103021042Y-74638281D01*
X102966307Y-74524624D01*
X102695536Y-74253853D01*
X102340568Y-74608821D01*
X101636291Y-74608821D01*
X101281322Y-74253852D01*
X100926354Y-74608821D01*
X98193398Y-74608821D01*
X98171568Y-74586991D01*
X98167365Y-74582577D01*
X98159122Y-74573481D01*
X98155153Y-74568880D01*
X98147361Y-74559386D01*
X98097926Y-74608820D01*
X96926685Y-74608820D01*
X97003377Y-74475984D01*
X97044301Y-74323257D01*
X97044301Y-74165142D01*
X97044301Y-74157547D01*
X97044300Y-74157529D01*
X97044300Y-73750235D01*
X97542300Y-73750235D01*
X97542300Y-74053193D01*
X97745788Y-74256681D01*
X97899501Y-74102968D01*
X97899449Y-74102821D01*
X97897542Y-74097048D01*
X97890441Y-74073643D01*
X97888816Y-74067771D01*
X97885833Y-74055862D01*
X97884500Y-74049924D01*
X97846083Y-73856789D01*
X97845042Y-73850790D01*
X97843241Y-73838647D01*
X97842496Y-73832607D01*
X97840099Y-73808266D01*
X97839651Y-73802197D01*
X97839049Y-73789940D01*
X97838900Y-73783857D01*
X97838900Y-73639857D01*
X97745789Y-73546746D01*
X97542300Y-73750235D01*
X97044300Y-73750235D01*
X97044300Y-72336021D01*
X97542300Y-72336021D01*
X97542300Y-72638979D01*
X97745789Y-72842468D01*
X98100757Y-72487500D01*
X97745789Y-72132532D01*
X97542300Y-72336021D01*
X97044300Y-72336021D01*
X97044300Y-71780393D01*
X98097926Y-71780393D01*
X98452895Y-72135361D01*
X98807863Y-71780393D01*
X98452895Y-71425424D01*
X98097926Y-71780393D01*
X97044300Y-71780393D01*
X97044300Y-70921808D01*
X97542300Y-70921808D01*
X97542300Y-71224766D01*
X97745789Y-71428255D01*
X98100757Y-71073287D01*
X98100756Y-71073286D01*
X98805033Y-71073286D01*
X99026928Y-71295181D01*
X99026857Y-71293851D01*
X99026724Y-71290540D01*
X99026545Y-71283856D01*
X99026501Y-71280536D01*
X99026500Y-70851819D01*
X98805033Y-71073286D01*
X98100756Y-71073286D01*
X97745789Y-70718319D01*
X97542300Y-70921808D01*
X97044300Y-70921808D01*
X97044300Y-70366180D01*
X98097927Y-70366180D01*
X98452895Y-70721148D01*
X98807863Y-70366180D01*
X98452895Y-70011211D01*
X98097927Y-70366180D01*
X97044300Y-70366180D01*
X97044300Y-69507594D01*
X97542300Y-69507594D01*
X97542300Y-69810552D01*
X97745789Y-70014041D01*
X98100757Y-69659073D01*
X98805034Y-69659073D01*
X99026500Y-69880539D01*
X99026500Y-69871455D01*
X99026545Y-69868125D01*
X99026725Y-69861424D01*
X99026858Y-69858115D01*
X99027572Y-69844798D01*
X99027795Y-69841479D01*
X99028332Y-69834814D01*
X99028641Y-69831517D01*
X99037426Y-69749805D01*
X99038494Y-69742134D01*
X99041130Y-69726738D01*
X99042675Y-69719149D01*
X99049835Y-69688848D01*
X99051850Y-69681372D01*
X99056386Y-69666417D01*
X99058866Y-69659075D01*
X99120822Y-69492961D01*
X99124210Y-69484782D01*
X99131629Y-69468537D01*
X99135592Y-69460621D01*
X99152652Y-69429379D01*
X99157165Y-69421771D01*
X99166819Y-69406748D01*
X99171871Y-69399472D01*
X99207617Y-69351720D01*
X99160002Y-69304105D01*
X98805034Y-69659073D01*
X98100757Y-69659073D01*
X97745789Y-69304105D01*
X97542300Y-69507594D01*
X97044300Y-69507594D01*
X97044300Y-68951966D01*
X98097927Y-68951966D01*
X98452895Y-69306934D01*
X98807863Y-68951966D01*
X99512141Y-68951966D01*
X99584915Y-69024740D01*
X99591961Y-69021822D01*
X99758073Y-68959866D01*
X99765413Y-68957387D01*
X99780364Y-68952852D01*
X99783651Y-68951966D01*
X102340568Y-68951966D01*
X102695536Y-69306934D01*
X103050504Y-68951966D01*
X103754782Y-68951966D01*
X104109750Y-69306934D01*
X104464718Y-68951966D01*
X105168995Y-68951966D01*
X105523963Y-69306934D01*
X105878931Y-68951966D01*
X106583209Y-68951966D01*
X106938177Y-69306934D01*
X107293145Y-68951966D01*
X107268679Y-68927500D01*
X108021888Y-68927500D01*
X108682892Y-68927500D01*
X109436102Y-68927500D01*
X109579545Y-68927500D01*
X109582875Y-68927545D01*
X109589576Y-68927725D01*
X109592885Y-68927858D01*
X109606202Y-68928572D01*
X109609500Y-68928793D01*
X109609500Y-68754102D01*
X109436102Y-68927500D01*
X108682892Y-68927500D01*
X108352390Y-68596998D01*
X108021888Y-68927500D01*
X107268679Y-68927500D01*
X106938177Y-68596998D01*
X106583209Y-68951966D01*
X105878931Y-68951966D01*
X105523963Y-68596998D01*
X105168995Y-68951966D01*
X104464718Y-68951966D01*
X104109750Y-68596998D01*
X103754782Y-68951966D01*
X103050504Y-68951966D01*
X102695536Y-68596998D01*
X102340568Y-68951966D01*
X99783651Y-68951966D01*
X99787840Y-68950837D01*
X99818144Y-68943676D01*
X99825735Y-68942130D01*
X99841137Y-68939493D01*
X99848810Y-68938425D01*
X99930534Y-68929640D01*
X99933849Y-68929329D01*
X99940528Y-68928792D01*
X99943835Y-68928570D01*
X99957149Y-68927857D01*
X99960460Y-68927724D01*
X99967144Y-68927545D01*
X99970464Y-68927501D01*
X100197611Y-68927500D01*
X100950820Y-68927500D01*
X101611825Y-68927500D01*
X101281322Y-68596997D01*
X100950820Y-68927500D01*
X100197611Y-68927500D01*
X99867109Y-68596998D01*
X99512141Y-68951966D01*
X98807863Y-68951966D01*
X98452895Y-68596997D01*
X98097927Y-68951966D01*
X97044300Y-68951966D01*
X97044300Y-68093381D01*
X97542300Y-68093381D01*
X97542300Y-68396339D01*
X97745789Y-68599828D01*
X98100757Y-68244860D01*
X98805034Y-68244860D01*
X99160002Y-68599828D01*
X99514970Y-68244860D01*
X100219248Y-68244860D01*
X100574216Y-68599828D01*
X100929184Y-68244860D01*
X101633461Y-68244860D01*
X101988429Y-68599828D01*
X102343397Y-68244860D01*
X103047675Y-68244860D01*
X103402643Y-68599828D01*
X103757611Y-68244860D01*
X104461888Y-68244860D01*
X104816856Y-68599828D01*
X105171824Y-68244860D01*
X105876102Y-68244860D01*
X106231070Y-68599828D01*
X106586038Y-68244860D01*
X107290316Y-68244860D01*
X107645284Y-68599828D01*
X108000252Y-68244860D01*
X108704529Y-68244860D01*
X109059497Y-68599828D01*
X109414465Y-68244860D01*
X109059497Y-67889892D01*
X108704529Y-68244860D01*
X108000252Y-68244860D01*
X107645284Y-67889892D01*
X107290316Y-68244860D01*
X106586038Y-68244860D01*
X106231070Y-67889892D01*
X105876102Y-68244860D01*
X105171824Y-68244860D01*
X104816856Y-67889891D01*
X104461888Y-68244860D01*
X103757611Y-68244860D01*
X103402643Y-67889892D01*
X103047675Y-68244860D01*
X102343397Y-68244860D01*
X101988429Y-67889892D01*
X101633461Y-68244860D01*
X100929184Y-68244860D01*
X100574216Y-67889892D01*
X100219248Y-68244860D01*
X99514970Y-68244860D01*
X99160002Y-67889892D01*
X98805034Y-68244860D01*
X98100757Y-68244860D01*
X97745789Y-67889892D01*
X97542300Y-68093381D01*
X97044300Y-68093381D01*
X97044300Y-67537753D01*
X98097927Y-67537753D01*
X98452895Y-67892721D01*
X98707941Y-67637675D01*
X99612063Y-67637675D01*
X99867108Y-67892720D01*
X100035329Y-67724499D01*
X101113100Y-67724499D01*
X101281322Y-67892721D01*
X101449544Y-67724499D01*
X101113100Y-67724499D01*
X100035329Y-67724499D01*
X99970455Y-67724500D01*
X99967125Y-67724455D01*
X99960424Y-67724275D01*
X99957115Y-67724142D01*
X99943798Y-67723428D01*
X99940479Y-67723205D01*
X99933814Y-67722668D01*
X99930517Y-67722359D01*
X99848805Y-67713574D01*
X99841134Y-67712506D01*
X99825738Y-67709870D01*
X99818149Y-67708325D01*
X99787848Y-67701165D01*
X99780372Y-67699150D01*
X99765417Y-67694614D01*
X99758075Y-67692134D01*
X99612063Y-67637675D01*
X98707941Y-67637675D01*
X98807863Y-67537753D01*
X102340568Y-67537753D01*
X102695536Y-67892721D01*
X103050504Y-67537753D01*
X103754782Y-67537753D01*
X104109750Y-67892721D01*
X104464718Y-67537753D01*
X105168995Y-67537753D01*
X105523963Y-67892721D01*
X105878931Y-67537753D01*
X106583209Y-67537753D01*
X106938177Y-67892721D01*
X107106399Y-67724499D01*
X108184168Y-67724499D01*
X108352389Y-67892720D01*
X108520611Y-67724499D01*
X108184168Y-67724499D01*
X107106399Y-67724499D01*
X107293145Y-67537753D01*
X106938177Y-67182785D01*
X106583209Y-67537753D01*
X105878931Y-67537753D01*
X105523963Y-67182785D01*
X105168995Y-67537753D01*
X104464718Y-67537753D01*
X104109750Y-67182785D01*
X103754782Y-67537753D01*
X103050504Y-67537753D01*
X102695536Y-67182785D01*
X102340568Y-67537753D01*
X98807863Y-67537753D01*
X98452895Y-67182784D01*
X98097927Y-67537753D01*
X97044300Y-67537753D01*
X97044300Y-66679167D01*
X97542300Y-66679167D01*
X97542300Y-66982125D01*
X97745789Y-67185614D01*
X98100757Y-66830646D01*
X98100756Y-66830645D01*
X98805033Y-66830645D01*
X99113324Y-67138936D01*
X99058866Y-66992927D01*
X99056387Y-66985587D01*
X99051852Y-66970636D01*
X99049837Y-66963160D01*
X99042676Y-66932856D01*
X99041130Y-66925265D01*
X99038493Y-66909863D01*
X99037425Y-66902190D01*
X99028640Y-66820466D01*
X99028329Y-66817151D01*
X99027792Y-66810472D01*
X99027570Y-66807165D01*
X99026857Y-66793851D01*
X99026724Y-66790540D01*
X99026545Y-66783856D01*
X99026501Y-66780536D01*
X99026500Y-66609178D01*
X98805033Y-66830645D01*
X98100756Y-66830645D01*
X97745789Y-66475678D01*
X97542300Y-66679167D01*
X97044300Y-66679167D01*
X97044300Y-66123539D01*
X98097927Y-66123539D01*
X98452895Y-66478507D01*
X98807863Y-66123539D01*
X98452895Y-65768570D01*
X98097927Y-66123539D01*
X97044300Y-66123539D01*
X97044300Y-65264953D01*
X97542300Y-65264953D01*
X97542300Y-65567911D01*
X97745789Y-65771400D01*
X98100757Y-65416432D01*
X98805033Y-65416432D01*
X99026500Y-65637898D01*
X99026500Y-65371455D01*
X99026545Y-65368125D01*
X99026725Y-65361424D01*
X99026858Y-65358115D01*
X99027572Y-65344798D01*
X99027795Y-65341479D01*
X99028332Y-65334814D01*
X99028641Y-65331517D01*
X99037426Y-65249805D01*
X99038494Y-65242134D01*
X99041130Y-65226738D01*
X99042675Y-65219149D01*
X99049835Y-65188848D01*
X99051850Y-65181372D01*
X99056386Y-65166417D01*
X99057067Y-65164398D01*
X98805033Y-65416432D01*
X98100757Y-65416432D01*
X97745789Y-65061464D01*
X97542300Y-65264953D01*
X97044300Y-65264953D01*
X97044300Y-64709326D01*
X98097927Y-64709326D01*
X98452895Y-65064294D01*
X98807863Y-64709326D01*
X102340568Y-64709326D01*
X102608742Y-64977500D01*
X102782330Y-64977500D01*
X103050504Y-64709326D01*
X103754782Y-64709326D01*
X104022956Y-64977500D01*
X104196544Y-64977500D01*
X104464718Y-64709326D01*
X105168995Y-64709326D01*
X105437169Y-64977500D01*
X105610757Y-64977500D01*
X105878931Y-64709326D01*
X106583209Y-64709326D01*
X106851383Y-64977500D01*
X107024971Y-64977500D01*
X107178069Y-64824400D01*
X107229453Y-64755763D01*
X107235004Y-64748874D01*
X107246697Y-64735379D01*
X107252731Y-64728899D01*
X107277899Y-64703731D01*
X107282896Y-64699077D01*
X107020433Y-64436614D01*
X109684346Y-64436614D01*
X109701195Y-64438426D01*
X109708866Y-64439494D01*
X109724262Y-64442130D01*
X109731851Y-64443675D01*
X109762152Y-64450835D01*
X109769628Y-64452850D01*
X109784583Y-64457386D01*
X109791925Y-64459866D01*
X109919809Y-64507563D01*
X109766603Y-64354357D01*
X109684346Y-64436614D01*
X107020433Y-64436614D01*
X106938177Y-64354358D01*
X106583209Y-64709326D01*
X105878931Y-64709326D01*
X105523963Y-64354358D01*
X105168995Y-64709326D01*
X104464718Y-64709326D01*
X104109750Y-64354358D01*
X103754782Y-64709326D01*
X103050504Y-64709326D01*
X102695536Y-64354358D01*
X102340568Y-64709326D01*
X98807863Y-64709326D01*
X98556604Y-64458066D01*
X99763400Y-64458066D01*
X99765413Y-64457387D01*
X99780364Y-64452852D01*
X99787840Y-64450837D01*
X99818144Y-64443676D01*
X99825735Y-64442130D01*
X99841137Y-64439493D01*
X99848810Y-64438425D01*
X99930534Y-64429640D01*
X99933849Y-64429329D01*
X99940528Y-64428792D01*
X99941479Y-64428728D01*
X99867109Y-64354358D01*
X99763400Y-64458066D01*
X98556604Y-64458066D01*
X98452895Y-64354357D01*
X98097927Y-64709326D01*
X97044300Y-64709326D01*
X97044300Y-63850740D01*
X97542300Y-63850740D01*
X97542300Y-64153698D01*
X97745789Y-64357187D01*
X98100757Y-64002219D01*
X98805034Y-64002219D01*
X99160002Y-64357187D01*
X99514970Y-64002219D01*
X100219248Y-64002219D01*
X100574216Y-64357187D01*
X100929184Y-64002219D01*
X101633461Y-64002219D01*
X101988429Y-64357187D01*
X102343397Y-64002219D01*
X103047675Y-64002219D01*
X103402643Y-64357187D01*
X103757611Y-64002219D01*
X104461888Y-64002219D01*
X104816856Y-64357187D01*
X105171824Y-64002219D01*
X105876102Y-64002219D01*
X106231070Y-64357187D01*
X106586038Y-64002219D01*
X107290316Y-64002219D01*
X107645284Y-64357187D01*
X108000252Y-64002219D01*
X108704529Y-64002219D01*
X109059497Y-64357187D01*
X109414465Y-64002219D01*
X110118743Y-64002219D01*
X110473711Y-64357187D01*
X110610700Y-64220198D01*
X110610700Y-63784240D01*
X110473711Y-63647251D01*
X110118743Y-64002219D01*
X109414465Y-64002219D01*
X109059497Y-63647251D01*
X108704529Y-64002219D01*
X108000252Y-64002219D01*
X107645284Y-63647251D01*
X107290316Y-64002219D01*
X106586038Y-64002219D01*
X106231070Y-63647251D01*
X105876102Y-64002219D01*
X105171824Y-64002219D01*
X104816856Y-63647250D01*
X104461888Y-64002219D01*
X103757611Y-64002219D01*
X103402643Y-63647251D01*
X103047675Y-64002219D01*
X102343397Y-64002219D01*
X101988429Y-63647251D01*
X101633461Y-64002219D01*
X100929184Y-64002219D01*
X100574216Y-63647251D01*
X100219248Y-64002219D01*
X99514970Y-64002219D01*
X99160002Y-63647251D01*
X98805034Y-64002219D01*
X98100757Y-64002219D01*
X97745789Y-63647251D01*
X97542300Y-63850740D01*
X97044300Y-63850740D01*
X97044300Y-63295112D01*
X98097927Y-63295112D01*
X98452895Y-63650080D01*
X98807863Y-63295112D01*
X99512141Y-63295112D01*
X99867109Y-63650080D01*
X100222077Y-63295112D01*
X100926354Y-63295112D01*
X101281322Y-63650080D01*
X101636291Y-63295112D01*
X102340568Y-63295112D01*
X102695536Y-63650080D01*
X103050504Y-63295112D01*
X103754782Y-63295112D01*
X104109750Y-63650080D01*
X104464718Y-63295112D01*
X105168995Y-63295112D01*
X105523963Y-63650080D01*
X105878931Y-63295112D01*
X106583209Y-63295112D01*
X106938177Y-63650080D01*
X107293145Y-63295112D01*
X107997422Y-63295112D01*
X108352390Y-63650080D01*
X108707358Y-63295112D01*
X109411636Y-63295112D01*
X109766604Y-63650080D01*
X110121572Y-63295112D01*
X109766604Y-62940144D01*
X109411636Y-63295112D01*
X108707358Y-63295112D01*
X108352390Y-62940144D01*
X107997422Y-63295112D01*
X107293145Y-63295112D01*
X106938177Y-62940144D01*
X106583209Y-63295112D01*
X105878931Y-63295112D01*
X105523963Y-62940144D01*
X105168995Y-63295112D01*
X104464718Y-63295112D01*
X104109750Y-62940144D01*
X103754782Y-63295112D01*
X103050504Y-63295112D01*
X102695536Y-62940144D01*
X102340568Y-63295112D01*
X101636291Y-63295112D01*
X101281322Y-62940143D01*
X100926354Y-63295112D01*
X100222077Y-63295112D01*
X99867109Y-62940144D01*
X99512141Y-63295112D01*
X98807863Y-63295112D01*
X98452895Y-62940143D01*
X98097927Y-63295112D01*
X97044300Y-63295112D01*
X97044300Y-62436526D01*
X97542300Y-62436526D01*
X97542300Y-62739484D01*
X97745789Y-62942973D01*
X98100757Y-62588005D01*
X98805034Y-62588005D01*
X99160002Y-62942973D01*
X99514970Y-62588005D01*
X100219248Y-62588005D01*
X100574216Y-62942973D01*
X100929184Y-62588005D01*
X101633461Y-62588005D01*
X101988429Y-62942973D01*
X102343397Y-62588005D01*
X103047675Y-62588005D01*
X103402643Y-62942973D01*
X103757611Y-62588005D01*
X104461888Y-62588005D01*
X104816856Y-62942973D01*
X105171824Y-62588005D01*
X105876102Y-62588005D01*
X106231070Y-62942973D01*
X106586038Y-62588005D01*
X107290316Y-62588005D01*
X107645284Y-62942973D01*
X108000252Y-62588005D01*
X108704529Y-62588005D01*
X109059497Y-62942973D01*
X109414465Y-62588005D01*
X109059497Y-62233037D01*
X108704529Y-62588005D01*
X108000252Y-62588005D01*
X107645284Y-62233037D01*
X107290316Y-62588005D01*
X106586038Y-62588005D01*
X106231070Y-62233037D01*
X105876102Y-62588005D01*
X105171824Y-62588005D01*
X104816856Y-62233036D01*
X104461888Y-62588005D01*
X103757611Y-62588005D01*
X103402643Y-62233037D01*
X103047675Y-62588005D01*
X102343397Y-62588005D01*
X101988429Y-62233037D01*
X101633461Y-62588005D01*
X100929184Y-62588005D01*
X100574216Y-62233037D01*
X100219248Y-62588005D01*
X99514970Y-62588005D01*
X99160002Y-62233037D01*
X98805034Y-62588005D01*
X98100757Y-62588005D01*
X97745789Y-62233037D01*
X97542300Y-62436526D01*
X97044300Y-62436526D01*
X97044300Y-61880898D01*
X98097926Y-61880898D01*
X98452895Y-62235867D01*
X98807863Y-61880898D01*
X99512140Y-61880898D01*
X99867109Y-62235867D01*
X100222077Y-61880898D01*
X100926354Y-61880898D01*
X101281322Y-62235867D01*
X101636291Y-61880898D01*
X102340567Y-61880898D01*
X102695536Y-62235867D01*
X103050504Y-61880898D01*
X103754781Y-61880898D01*
X104109750Y-62235867D01*
X104464718Y-61880898D01*
X105168994Y-61880898D01*
X105523963Y-62235867D01*
X105878931Y-61880898D01*
X106583208Y-61880898D01*
X106938177Y-62235867D01*
X107293145Y-61880898D01*
X107997421Y-61880898D01*
X108352390Y-62235867D01*
X108707358Y-61880898D01*
X108352390Y-61525930D01*
X107997421Y-61880898D01*
X107293145Y-61880898D01*
X106938177Y-61525930D01*
X106583208Y-61880898D01*
X105878931Y-61880898D01*
X105523963Y-61525930D01*
X105168994Y-61880898D01*
X104464718Y-61880898D01*
X104109750Y-61525930D01*
X103754781Y-61880898D01*
X103050504Y-61880898D01*
X102695536Y-61525930D01*
X102340567Y-61880898D01*
X101636291Y-61880898D01*
X101281322Y-61525930D01*
X100926354Y-61880898D01*
X100222077Y-61880898D01*
X99867109Y-61525930D01*
X99512140Y-61880898D01*
X98807863Y-61880898D01*
X98452895Y-61525930D01*
X98097926Y-61880898D01*
X97044300Y-61880898D01*
X97044300Y-61022313D01*
X97542300Y-61022313D01*
X97542300Y-61325271D01*
X97745789Y-61528760D01*
X98100757Y-61173792D01*
X98805034Y-61173792D01*
X99160002Y-61528760D01*
X99514970Y-61173792D01*
X100219248Y-61173792D01*
X100574216Y-61528760D01*
X100929184Y-61173792D01*
X100929183Y-61173791D01*
X101633460Y-61173791D01*
X101988429Y-61528760D01*
X102343397Y-61173792D01*
X103047675Y-61173792D01*
X103402643Y-61528760D01*
X103757611Y-61173792D01*
X104461888Y-61173792D01*
X104816856Y-61528760D01*
X105171824Y-61173792D01*
X105876102Y-61173792D01*
X106231070Y-61528760D01*
X106586038Y-61173792D01*
X107290316Y-61173792D01*
X107645284Y-61528760D01*
X108000252Y-61173792D01*
X107645284Y-60818824D01*
X107290316Y-61173792D01*
X106586038Y-61173792D01*
X106231070Y-60818824D01*
X105876102Y-61173792D01*
X105171824Y-61173792D01*
X104816856Y-60818823D01*
X104461888Y-61173792D01*
X103757611Y-61173792D01*
X103402643Y-60818824D01*
X103047675Y-61173792D01*
X102343397Y-61173792D01*
X102002509Y-60832904D01*
X101970535Y-60840691D01*
X101965477Y-60841774D01*
X101633460Y-61173791D01*
X100929183Y-61173791D01*
X100608117Y-60852725D01*
X100540315Y-60852725D01*
X100219248Y-61173792D01*
X99514970Y-61173792D01*
X99160002Y-60818824D01*
X98805034Y-61173792D01*
X98100757Y-61173792D01*
X97745789Y-60818824D01*
X97542300Y-61022313D01*
X97044300Y-61022313D01*
X97044300Y-60466685D01*
X98097927Y-60466685D01*
X98452895Y-60821653D01*
X98535686Y-60738862D01*
X99784318Y-60738862D01*
X99867108Y-60821652D01*
X99898055Y-60790706D01*
X99889018Y-60787544D01*
X99882519Y-60785064D01*
X99869559Y-60779696D01*
X99863209Y-60776854D01*
X99784318Y-60738862D01*
X98535686Y-60738862D01*
X98662039Y-60612509D01*
X102486392Y-60612509D01*
X102695536Y-60821653D01*
X103050504Y-60466685D01*
X103754782Y-60466685D01*
X104109750Y-60821653D01*
X104464718Y-60466685D01*
X105168995Y-60466685D01*
X105523963Y-60821653D01*
X105878931Y-60466685D01*
X106583209Y-60466685D01*
X106938177Y-60821653D01*
X107293145Y-60466685D01*
X106938177Y-60111717D01*
X106583209Y-60466685D01*
X105878931Y-60466685D01*
X105523963Y-60111717D01*
X105168995Y-60466685D01*
X104464718Y-60466685D01*
X104109750Y-60111717D01*
X103754782Y-60466685D01*
X103050504Y-60466685D01*
X102807598Y-60223779D01*
X102782912Y-60275659D01*
X102779790Y-60281778D01*
X102773148Y-60293949D01*
X102769687Y-60299893D01*
X102755116Y-60323393D01*
X102751324Y-60329145D01*
X102743363Y-60340521D01*
X102739264Y-60346046D01*
X102632561Y-60481818D01*
X102628160Y-60487108D01*
X102618997Y-60497522D01*
X102614314Y-60502556D01*
X102594926Y-60522271D01*
X102589967Y-60527042D01*
X102579701Y-60536383D01*
X102574485Y-60540870D01*
X102486392Y-60612509D01*
X98662039Y-60612509D01*
X98807863Y-60466685D01*
X98452895Y-60111716D01*
X98097927Y-60466685D01*
X97044300Y-60466685D01*
X97044300Y-59608099D01*
X97542300Y-59608099D01*
X97542300Y-59911057D01*
X97745789Y-60114546D01*
X98100757Y-59759578D01*
X98805034Y-59759578D01*
X99160001Y-60114545D01*
X99193570Y-60080976D01*
X99190336Y-60071733D01*
X99188225Y-60065110D01*
X99184341Y-60051631D01*
X99182603Y-60044894D01*
X99143757Y-59874729D01*
X99142400Y-59867906D01*
X99140050Y-59854077D01*
X99139077Y-59847192D01*
X99135946Y-59819414D01*
X99135362Y-59812490D01*
X99134574Y-59798483D01*
X99134378Y-59791525D01*
X99134376Y-59756859D01*
X99134372Y-59756757D01*
X99134372Y-59430240D01*
X98805034Y-59759578D01*
X98100757Y-59759578D01*
X97745789Y-59404610D01*
X97542300Y-59608099D01*
X97044300Y-59608099D01*
X97044300Y-59052471D01*
X98097926Y-59052471D01*
X98452895Y-59407439D01*
X98807863Y-59052471D01*
X98452895Y-58697502D01*
X98097926Y-59052471D01*
X97044300Y-59052471D01*
X97044300Y-58193886D01*
X97542300Y-58193886D01*
X97542300Y-58496844D01*
X97745789Y-58700333D01*
X98100757Y-58345365D01*
X98805034Y-58345365D01*
X99134372Y-58674703D01*
X99134372Y-58204622D01*
X99134312Y-58131429D01*
X99632312Y-58131429D01*
X99632372Y-58204215D01*
X99632372Y-59745958D01*
X99632376Y-59746005D01*
X99632377Y-59777517D01*
X99632378Y-59777525D01*
X99665000Y-59920428D01*
X99665004Y-59920439D01*
X99728608Y-60052504D01*
X99820007Y-60167110D01*
X99891071Y-60223779D01*
X99934616Y-60258504D01*
X100066688Y-60322106D01*
X100066687Y-60322106D01*
X100209596Y-60354724D01*
X100209599Y-60354724D01*
X100209602Y-60354725D01*
X100252961Y-60354725D01*
X101743798Y-60354725D01*
X101750598Y-60355432D01*
X101759363Y-60355283D01*
X101759364Y-60355284D01*
X101791345Y-60354742D01*
X101793443Y-60354725D01*
X101828426Y-60354725D01*
X101834928Y-60354031D01*
X101866215Y-60353541D01*
X102007128Y-60319226D01*
X102137031Y-60254734D01*
X102249551Y-60163229D01*
X102335610Y-60053725D01*
X102339162Y-60049206D01*
X102339163Y-60049204D01*
X102339162Y-60049204D01*
X102339167Y-60049199D01*
X102401484Y-59918238D01*
X102433444Y-59776773D01*
X102433427Y-59759578D01*
X103047675Y-59759578D01*
X103402643Y-60114546D01*
X103757611Y-59759578D01*
X104461888Y-59759578D01*
X104816856Y-60114546D01*
X105171824Y-59759578D01*
X105876102Y-59759578D01*
X106231070Y-60114546D01*
X106586038Y-59759578D01*
X106231070Y-59404610D01*
X105876102Y-59759578D01*
X105171824Y-59759578D01*
X104816856Y-59404609D01*
X104461888Y-59759578D01*
X103757611Y-59759578D01*
X103402643Y-59404610D01*
X103047675Y-59759578D01*
X102433427Y-59759578D01*
X102433372Y-59704257D01*
X102433380Y-59669907D01*
X102433379Y-59669905D01*
X102433382Y-59656289D01*
X102433372Y-59656188D01*
X102433372Y-59171603D01*
X102931372Y-59171603D01*
X103050504Y-59052471D01*
X103754781Y-59052471D01*
X104109750Y-59407439D01*
X104464718Y-59052471D01*
X105168994Y-59052471D01*
X105523963Y-59407439D01*
X105878931Y-59052471D01*
X105523963Y-58697503D01*
X105168994Y-59052471D01*
X104464718Y-59052471D01*
X104109750Y-58697503D01*
X103754781Y-59052471D01*
X103050504Y-59052471D01*
X102931372Y-58933339D01*
X102931372Y-59171603D01*
X102433372Y-59171603D01*
X102433372Y-58345365D01*
X103047675Y-58345365D01*
X103402643Y-58700333D01*
X103757611Y-58345365D01*
X104461888Y-58345365D01*
X104816856Y-58700333D01*
X105171824Y-58345365D01*
X104816856Y-57990396D01*
X104461888Y-58345365D01*
X103757611Y-58345365D01*
X103402643Y-57990397D01*
X103047675Y-58345365D01*
X102433372Y-58345365D01*
X102433372Y-58247428D01*
X102433779Y-58243662D01*
X102433377Y-58199472D01*
X102433372Y-58198343D01*
X102433372Y-58160277D01*
X102432994Y-58156618D01*
X102432731Y-58125402D01*
X102399192Y-57983579D01*
X102367942Y-57919756D01*
X102335108Y-57852696D01*
X102335104Y-57852689D01*
X102243652Y-57739232D01*
X102243646Y-57739225D01*
X102133802Y-57652328D01*
X102129354Y-57648809D01*
X102129353Y-57648808D01*
X102129350Y-57648806D01*
X101997891Y-57585922D01*
X101997892Y-57585922D01*
X101997887Y-57585920D01*
X101997885Y-57585919D01*
X101997884Y-57585919D01*
X101855759Y-57553676D01*
X101782896Y-57553725D01*
X100326905Y-57553725D01*
X100325174Y-57553216D01*
X100324150Y-57553227D01*
X100324036Y-57553215D01*
X100307216Y-57553396D01*
X100307129Y-57553397D01*
X100275890Y-57553710D01*
X100274988Y-57553719D01*
X100273750Y-57553725D01*
X100238464Y-57553725D01*
X100234615Y-57554122D01*
X100203095Y-57554438D01*
X100203090Y-57554438D01*
X100061455Y-57588146D01*
X99930767Y-57652329D01*
X99817500Y-57743806D01*
X99727250Y-57858060D01*
X99727249Y-57858060D01*
X99664487Y-57989433D01*
X99664487Y-57989434D01*
X99632312Y-58131429D01*
X99134312Y-58131429D01*
X99134301Y-58117902D01*
X99134490Y-58110964D01*
X99135261Y-58097000D01*
X99135836Y-58090097D01*
X99138923Y-58062408D01*
X99139884Y-58055539D01*
X99142207Y-58041756D01*
X99143548Y-58034962D01*
X99151783Y-57998615D01*
X98805034Y-58345365D01*
X98100757Y-58345365D01*
X97745789Y-57990397D01*
X97542300Y-58193886D01*
X97044300Y-58193886D01*
X97044300Y-57771400D01*
X98231069Y-57771400D01*
X98452895Y-57993226D01*
X98807863Y-57638258D01*
X98627932Y-57458326D01*
X98578422Y-57524463D01*
X98572871Y-57531352D01*
X98561178Y-57544847D01*
X98555144Y-57551327D01*
X98529976Y-57576495D01*
X98523496Y-57582529D01*
X98510001Y-57594222D01*
X98503112Y-57599773D01*
X98359403Y-57707355D01*
X98352127Y-57712407D01*
X98337104Y-57722061D01*
X98329496Y-57726574D01*
X98298254Y-57743634D01*
X98290338Y-57747597D01*
X98274093Y-57755016D01*
X98265914Y-57758404D01*
X98231069Y-57771400D01*
X97044300Y-57771400D01*
X97044300Y-57478725D01*
X97063985Y-57411686D01*
X97094704Y-57385068D01*
X102593756Y-57385068D01*
X102604049Y-57395267D01*
X102608827Y-57400273D01*
X102618170Y-57410626D01*
X102622655Y-57415885D01*
X102731550Y-57550983D01*
X102735736Y-57556483D01*
X102743866Y-57567807D01*
X102747739Y-57573531D01*
X102762665Y-57596976D01*
X102766218Y-57602917D01*
X102773044Y-57615089D01*
X102776257Y-57621213D01*
X102852567Y-57777067D01*
X102855432Y-57783356D01*
X102860858Y-57796205D01*
X102863371Y-57802653D01*
X102869364Y-57819396D01*
X102885690Y-57803070D01*
X103919594Y-57803070D01*
X104109749Y-57993225D01*
X104250249Y-57852725D01*
X104178330Y-57852726D01*
X104175000Y-57852681D01*
X104168299Y-57852501D01*
X104164990Y-57852368D01*
X104151673Y-57851654D01*
X104148354Y-57851431D01*
X104141689Y-57850894D01*
X104138392Y-57850585D01*
X104056680Y-57841800D01*
X104049009Y-57840732D01*
X104033613Y-57838096D01*
X104026024Y-57836551D01*
X103995723Y-57829391D01*
X103988247Y-57827376D01*
X103973292Y-57822840D01*
X103965950Y-57820360D01*
X103919594Y-57803070D01*
X102885690Y-57803070D01*
X103050503Y-57638257D01*
X102714972Y-57302726D01*
X102676100Y-57302726D01*
X102593756Y-57385068D01*
X97094704Y-57385068D01*
X97116789Y-57365931D01*
X97168300Y-57354725D01*
X97880746Y-57354725D01*
X97880747Y-57354725D01*
X97940358Y-57348317D01*
X98075206Y-57298022D01*
X98190421Y-57211772D01*
X98276671Y-57096557D01*
X98326966Y-56961709D01*
X98331937Y-56915468D01*
X98358674Y-56850920D01*
X98416066Y-56811072D01*
X98455226Y-56804726D01*
X103610524Y-56804726D01*
X103677563Y-56824411D01*
X103723318Y-56877215D01*
X103733814Y-56915474D01*
X103738783Y-56961709D01*
X103789077Y-57096554D01*
X103789081Y-57096561D01*
X103875327Y-57211770D01*
X103875330Y-57211773D01*
X103990539Y-57298019D01*
X103990546Y-57298023D01*
X104125392Y-57348317D01*
X104125391Y-57348317D01*
X104132319Y-57349061D01*
X104185002Y-57354726D01*
X105830747Y-57354725D01*
X105890358Y-57348317D01*
X105937567Y-57330708D01*
X106007258Y-57325725D01*
X106068581Y-57359210D01*
X106102066Y-57420533D01*
X106104900Y-57446891D01*
X106104900Y-58206330D01*
X106104899Y-58206348D01*
X106104899Y-58372054D01*
X106104898Y-58372054D01*
X106104899Y-58372057D01*
X106145823Y-58524785D01*
X106161673Y-58552238D01*
X106174758Y-58574900D01*
X106174759Y-58574904D01*
X106174760Y-58574904D01*
X106224879Y-58661714D01*
X106224881Y-58661717D01*
X106343749Y-58780585D01*
X106343755Y-58780590D01*
X111072381Y-63509216D01*
X111105866Y-63570539D01*
X111108700Y-63596897D01*
X111108700Y-64774702D01*
X111089015Y-64841741D01*
X111072381Y-64862383D01*
X110495584Y-65439181D01*
X110434261Y-65472666D01*
X110407903Y-65475500D01*
X110147351Y-65475500D01*
X110080312Y-65455815D01*
X110034557Y-65403011D01*
X110024061Y-65364752D01*
X110019091Y-65318516D01*
X109968797Y-65183671D01*
X109968793Y-65183664D01*
X109882547Y-65068455D01*
X109882544Y-65068452D01*
X109767335Y-64982206D01*
X109767328Y-64982202D01*
X109632482Y-64931908D01*
X109632483Y-64931908D01*
X109572883Y-64925501D01*
X109572881Y-64925500D01*
X109572873Y-64925500D01*
X109572864Y-64925500D01*
X107927129Y-64925500D01*
X107927123Y-64925501D01*
X107867516Y-64931908D01*
X107732671Y-64982202D01*
X107732664Y-64982206D01*
X107617455Y-65068452D01*
X107617452Y-65068455D01*
X107531206Y-65183664D01*
X107531202Y-65183671D01*
X107485359Y-65306585D01*
X107480909Y-65318517D01*
X107475937Y-65364757D01*
X107449201Y-65429306D01*
X107391809Y-65469154D01*
X107352649Y-65475500D01*
X102197351Y-65475500D01*
X102130312Y-65455815D01*
X102084557Y-65403011D01*
X102074061Y-65364752D01*
X102069091Y-65318516D01*
X102018797Y-65183671D01*
X102018793Y-65183664D01*
X101932547Y-65068455D01*
X101932544Y-65068452D01*
X101817335Y-64982206D01*
X101817328Y-64982202D01*
X101682482Y-64931908D01*
X101682483Y-64931908D01*
X101622883Y-64925501D01*
X101622881Y-64925500D01*
X101622873Y-64925500D01*
X101622864Y-64925500D01*
X99977129Y-64925500D01*
X99977123Y-64925501D01*
X99917516Y-64931908D01*
X99782671Y-64982202D01*
X99782664Y-64982206D01*
X99667455Y-65068452D01*
X99667452Y-65068455D01*
X99581206Y-65183664D01*
X99581202Y-65183671D01*
X99530908Y-65318517D01*
X99524501Y-65378116D01*
X99524500Y-65378135D01*
X99524500Y-66773870D01*
X99524501Y-66773876D01*
X99530908Y-66833483D01*
X99581202Y-66968328D01*
X99581206Y-66968335D01*
X99667452Y-67083544D01*
X99667455Y-67083547D01*
X99782664Y-67169793D01*
X99782671Y-67169797D01*
X99917517Y-67220091D01*
X99917516Y-67220091D01*
X99924444Y-67220835D01*
X99977127Y-67226500D01*
X101622872Y-67226499D01*
X101682483Y-67220091D01*
X101817331Y-67169796D01*
X101932546Y-67083546D01*
X102018796Y-66968331D01*
X102069091Y-66833483D01*
X102074062Y-66787242D01*
X102100799Y-66722694D01*
X102158191Y-66682846D01*
X102197351Y-66676500D01*
X107352649Y-66676500D01*
X107419688Y-66696185D01*
X107465443Y-66748989D01*
X107475939Y-66787248D01*
X107480908Y-66833483D01*
X107531202Y-66968328D01*
X107531206Y-66968335D01*
X107617452Y-67083544D01*
X107617455Y-67083547D01*
X107732664Y-67169793D01*
X107732671Y-67169797D01*
X107867517Y-67220091D01*
X107867516Y-67220091D01*
X107874444Y-67220835D01*
X107927127Y-67226500D01*
X109572872Y-67226499D01*
X109632483Y-67220091D01*
X109767331Y-67169796D01*
X109882546Y-67083546D01*
X109884232Y-67081292D01*
X109886486Y-67079605D01*
X109888817Y-67077275D01*
X109889152Y-67077610D01*
X109940164Y-67039421D01*
X110009855Y-67034435D01*
X110071179Y-67067919D01*
X110104666Y-67129241D01*
X110107500Y-67155602D01*
X110107500Y-69496397D01*
X110087815Y-69563436D01*
X110035011Y-69609191D01*
X109965853Y-69619135D01*
X109902297Y-69590110D01*
X109884235Y-69570710D01*
X109882546Y-69568454D01*
X109882544Y-69568452D01*
X109767335Y-69482206D01*
X109767328Y-69482202D01*
X109632482Y-69431908D01*
X109632483Y-69431908D01*
X109572883Y-69425501D01*
X109572881Y-69425500D01*
X109572873Y-69425500D01*
X109572864Y-69425500D01*
X107927129Y-69425500D01*
X107927123Y-69425501D01*
X107867516Y-69431908D01*
X107732671Y-69482202D01*
X107732664Y-69482206D01*
X107617455Y-69568452D01*
X107617452Y-69568455D01*
X107531206Y-69683664D01*
X107531202Y-69683671D01*
X107480910Y-69818513D01*
X107480909Y-69818517D01*
X107475937Y-69864757D01*
X107449201Y-69929306D01*
X107391809Y-69969154D01*
X107352649Y-69975500D01*
X102197351Y-69975500D01*
X102130312Y-69955815D01*
X102084557Y-69903011D01*
X102074061Y-69864752D01*
X102069091Y-69818516D01*
X102018797Y-69683671D01*
X102018793Y-69683664D01*
X101932547Y-69568455D01*
X101932544Y-69568452D01*
X101817335Y-69482206D01*
X101817328Y-69482202D01*
X101804721Y-69477500D01*
X103229248Y-69477500D01*
X103576038Y-69477500D01*
X104643461Y-69477500D01*
X104990252Y-69477500D01*
X106057675Y-69477500D01*
X106404465Y-69477500D01*
X106231070Y-69304105D01*
X106057675Y-69477500D01*
X104990252Y-69477500D01*
X104816856Y-69304104D01*
X104643461Y-69477500D01*
X103576038Y-69477500D01*
X103402643Y-69304105D01*
X103229248Y-69477500D01*
X101804721Y-69477500D01*
X101682482Y-69431908D01*
X101682483Y-69431908D01*
X101622883Y-69425501D01*
X101622881Y-69425500D01*
X101622873Y-69425500D01*
X101622864Y-69425500D01*
X99977129Y-69425500D01*
X99977123Y-69425501D01*
X99917516Y-69431908D01*
X99782671Y-69482202D01*
X99782664Y-69482206D01*
X99667455Y-69568452D01*
X99667452Y-69568455D01*
X99581206Y-69683664D01*
X99581202Y-69683671D01*
X99530908Y-69818517D01*
X99524501Y-69878116D01*
X99524500Y-69878135D01*
X99524500Y-71273870D01*
X99524501Y-71273876D01*
X99530908Y-71333483D01*
X99581202Y-71468328D01*
X99581206Y-71468335D01*
X99667452Y-71583544D01*
X99667453Y-71583544D01*
X99667454Y-71583546D01*
X99718976Y-71622116D01*
X99762070Y-71654376D01*
X99803940Y-71710310D01*
X99808924Y-71780002D01*
X99775439Y-71841323D01*
X98843686Y-72773078D01*
X98731881Y-72884882D01*
X98731880Y-72884884D01*
X98702215Y-72936267D01*
X98698630Y-72942476D01*
X98698626Y-72942482D01*
X98680829Y-72973304D01*
X98657898Y-73000341D01*
X98658607Y-73001050D01*
X98654303Y-73005353D01*
X98654301Y-73005355D01*
X98626017Y-73033639D01*
X98532353Y-73127302D01*
X98436545Y-73270688D01*
X98436538Y-73270701D01*
X98370546Y-73430021D01*
X98370543Y-73430033D01*
X98336900Y-73599166D01*
X98336900Y-73771633D01*
X98370543Y-73940766D01*
X98370546Y-73940778D01*
X98436538Y-74100098D01*
X98436545Y-74100111D01*
X98532354Y-74243498D01*
X98532357Y-74243502D01*
X98654297Y-74365442D01*
X98654301Y-74365445D01*
X98797688Y-74461254D01*
X98797701Y-74461261D01*
X98924552Y-74513804D01*
X98957026Y-74527255D01*
X99094102Y-74554521D01*
X99126166Y-74560899D01*
X99126169Y-74560900D01*
X99126171Y-74560900D01*
X99298631Y-74560900D01*
X99298632Y-74560899D01*
X99467774Y-74527255D01*
X99627105Y-74461258D01*
X99770499Y-74365445D01*
X99892445Y-74243499D01*
X99936451Y-74177639D01*
X100495173Y-74177639D01*
X100574216Y-74256682D01*
X100929184Y-73901714D01*
X101633461Y-73901714D01*
X101988429Y-74256682D01*
X102343397Y-73901714D01*
X101988429Y-73546746D01*
X101633461Y-73901714D01*
X100929184Y-73901714D01*
X100584121Y-73556651D01*
X100584701Y-73562534D01*
X100585149Y-73568603D01*
X100585751Y-73580860D01*
X100585900Y-73586943D01*
X100585900Y-73783857D01*
X100585751Y-73789940D01*
X100585149Y-73802197D01*
X100584701Y-73808266D01*
X100582304Y-73832607D01*
X100581559Y-73838647D01*
X100579758Y-73850790D01*
X100578717Y-73856789D01*
X100540300Y-74049924D01*
X100538967Y-74055862D01*
X100535984Y-74067771D01*
X100534359Y-74073643D01*
X100527258Y-74097048D01*
X100525351Y-74102821D01*
X100521217Y-74114375D01*
X100519026Y-74120054D01*
X100495173Y-74177639D01*
X99936451Y-74177639D01*
X99988258Y-74100105D01*
X99989314Y-74097557D01*
X100054253Y-73940778D01*
X100054255Y-73940774D01*
X100087900Y-73771629D01*
X100087900Y-73599171D01*
X100087900Y-73599168D01*
X100087899Y-73599166D01*
X100054256Y-73430033D01*
X100054255Y-73430026D01*
X100036448Y-73387038D01*
X100028979Y-73317572D01*
X100060253Y-73255092D01*
X100063297Y-73251936D01*
X100120626Y-73194607D01*
X100926354Y-73194607D01*
X101281322Y-73549575D01*
X101636291Y-73194607D01*
X102340568Y-73194607D01*
X102695536Y-73549575D01*
X102876497Y-73368614D01*
X102876497Y-73020600D01*
X102695536Y-72839639D01*
X102340568Y-73194607D01*
X101636291Y-73194607D01*
X101281322Y-72839638D01*
X100926354Y-73194607D01*
X100120626Y-73194607D01*
X100827736Y-72487499D01*
X101633460Y-72487499D01*
X101988429Y-72842468D01*
X102328168Y-72502729D01*
X103374494Y-72502729D01*
X103374494Y-72502734D01*
X103374497Y-72570067D01*
X103374497Y-74118928D01*
X103374501Y-74118965D01*
X103374501Y-74149298D01*
X103407118Y-74292204D01*
X103470717Y-74424269D01*
X103470718Y-74424271D01*
X103470720Y-74424274D01*
X103560389Y-74536717D01*
X103562115Y-74538881D01*
X103676719Y-74630276D01*
X103676724Y-74630279D01*
X103796234Y-74687832D01*
X103808791Y-74693879D01*
X103951703Y-74726498D01*
X103970394Y-74726498D01*
X103970398Y-74726499D01*
X103995061Y-74726499D01*
X104024996Y-74726499D01*
X104059347Y-74726499D01*
X105481920Y-74726499D01*
X105485790Y-74726916D01*
X105496747Y-74726813D01*
X105496749Y-74726814D01*
X105529818Y-74726504D01*
X105530980Y-74726499D01*
X105568961Y-74726499D01*
X105572771Y-74726105D01*
X105603951Y-74725835D01*
X105745744Y-74692271D01*
X105876601Y-74628173D01*
X105900604Y-74608821D01*
X106583209Y-74608821D01*
X106938177Y-74963789D01*
X107293145Y-74608821D01*
X107997422Y-74608821D01*
X108352390Y-74963789D01*
X108707358Y-74608821D01*
X109411636Y-74608821D01*
X109766604Y-74963789D01*
X110121572Y-74608821D01*
X110825849Y-74608821D01*
X111180817Y-74963789D01*
X111535786Y-74608821D01*
X112240063Y-74608821D01*
X112595031Y-74963789D01*
X112949999Y-74608821D01*
X113654277Y-74608821D01*
X114009245Y-74963789D01*
X114364213Y-74608821D01*
X115068490Y-74608821D01*
X115423458Y-74963789D01*
X115778426Y-74608821D01*
X116482704Y-74608821D01*
X116837672Y-74963789D01*
X117192640Y-74608821D01*
X117896917Y-74608821D01*
X118251885Y-74963789D01*
X118606853Y-74608821D01*
X119311131Y-74608821D01*
X119666099Y-74963789D01*
X120021067Y-74608821D01*
X120725344Y-74608821D01*
X121080312Y-74963789D01*
X121435280Y-74608821D01*
X122139558Y-74608821D01*
X122494526Y-74963789D01*
X122849494Y-74608821D01*
X122494526Y-74253853D01*
X122139558Y-74608821D01*
X121435280Y-74608821D01*
X121080312Y-74253852D01*
X120725344Y-74608821D01*
X120021067Y-74608821D01*
X119666099Y-74253853D01*
X119311131Y-74608821D01*
X118606853Y-74608821D01*
X118251885Y-74253853D01*
X117896917Y-74608821D01*
X117192640Y-74608821D01*
X116837672Y-74253853D01*
X116482704Y-74608821D01*
X115778426Y-74608821D01*
X115423458Y-74253853D01*
X115068490Y-74608821D01*
X114364213Y-74608821D01*
X114009245Y-74253853D01*
X113654277Y-74608821D01*
X112949999Y-74608821D01*
X112595031Y-74253853D01*
X112240063Y-74608821D01*
X111535786Y-74608821D01*
X111180817Y-74253852D01*
X110825849Y-74608821D01*
X110121572Y-74608821D01*
X109766604Y-74253853D01*
X109411636Y-74608821D01*
X108707358Y-74608821D01*
X108352390Y-74253853D01*
X107997422Y-74608821D01*
X107293145Y-74608821D01*
X106938177Y-74253853D01*
X106583209Y-74608821D01*
X105900604Y-74608821D01*
X105990036Y-74536717D01*
X106080430Y-74422433D01*
X106080430Y-74422431D01*
X106080432Y-74422430D01*
X106080433Y-74422428D01*
X106123679Y-74332013D01*
X106143304Y-74290984D01*
X106175543Y-74148883D01*
X106175497Y-74076027D01*
X106175498Y-74041677D01*
X106175497Y-74041674D01*
X106175497Y-73901714D01*
X107290316Y-73901714D01*
X107645284Y-74256682D01*
X108000252Y-73901714D01*
X108704529Y-73901714D01*
X109059497Y-74256682D01*
X109414465Y-73901714D01*
X110118743Y-73901714D01*
X110473711Y-74256682D01*
X110828679Y-73901714D01*
X111532956Y-73901714D01*
X111887924Y-74256682D01*
X112242892Y-73901714D01*
X112947170Y-73901714D01*
X113302138Y-74256682D01*
X113657106Y-73901714D01*
X114361383Y-73901714D01*
X114716351Y-74256682D01*
X115071319Y-73901714D01*
X115775597Y-73901714D01*
X116130565Y-74256682D01*
X116485533Y-73901714D01*
X117189810Y-73901714D01*
X117544778Y-74256682D01*
X117899747Y-73901714D01*
X118604024Y-73901714D01*
X118958992Y-74256682D01*
X119313960Y-73901714D01*
X120018238Y-73901714D01*
X120373206Y-74256682D01*
X120728174Y-73901714D01*
X121432451Y-73901714D01*
X121787419Y-74256682D01*
X122142387Y-73901714D01*
X122846665Y-73901714D01*
X123201633Y-74256682D01*
X123556601Y-73901714D01*
X123201633Y-73546746D01*
X122846665Y-73901714D01*
X122142387Y-73901714D01*
X121787419Y-73546746D01*
X121432451Y-73901714D01*
X120728174Y-73901714D01*
X120373206Y-73546746D01*
X120018238Y-73901714D01*
X119313960Y-73901714D01*
X118958992Y-73546746D01*
X118604024Y-73901714D01*
X117899747Y-73901714D01*
X117544778Y-73546745D01*
X117189810Y-73901714D01*
X116485533Y-73901714D01*
X116130565Y-73546746D01*
X115775597Y-73901714D01*
X115071319Y-73901714D01*
X114716351Y-73546745D01*
X114361383Y-73901714D01*
X113657106Y-73901714D01*
X113302138Y-73546746D01*
X112947170Y-73901714D01*
X112242892Y-73901714D01*
X111887924Y-73546746D01*
X111532956Y-73901714D01*
X110828679Y-73901714D01*
X110473711Y-73546746D01*
X110118743Y-73901714D01*
X109414465Y-73901714D01*
X109059497Y-73546746D01*
X108704529Y-73901714D01*
X108000252Y-73901714D01*
X107645284Y-73546746D01*
X107290316Y-73901714D01*
X106175497Y-73901714D01*
X106175497Y-73104319D01*
X106673497Y-73104319D01*
X106673497Y-73284895D01*
X106938177Y-73549575D01*
X107293145Y-73194607D01*
X107997422Y-73194607D01*
X108352390Y-73549575D01*
X108707358Y-73194607D01*
X109411636Y-73194607D01*
X109766604Y-73549575D01*
X110121572Y-73194607D01*
X110825849Y-73194607D01*
X111180817Y-73549575D01*
X111535786Y-73194607D01*
X112240063Y-73194607D01*
X112595031Y-73549575D01*
X112949999Y-73194607D01*
X113654277Y-73194607D01*
X114009245Y-73549575D01*
X114364213Y-73194607D01*
X115068490Y-73194607D01*
X115423458Y-73549575D01*
X115778426Y-73194607D01*
X116482704Y-73194607D01*
X116837672Y-73549575D01*
X117192640Y-73194607D01*
X117896917Y-73194607D01*
X118251885Y-73549575D01*
X118606853Y-73194607D01*
X119311131Y-73194607D01*
X119666099Y-73549575D01*
X120021067Y-73194607D01*
X120725344Y-73194607D01*
X121080312Y-73549575D01*
X121435280Y-73194607D01*
X122139558Y-73194607D01*
X122494526Y-73549575D01*
X122849494Y-73194607D01*
X123553771Y-73194607D01*
X123894833Y-73535669D01*
X123927267Y-73344767D01*
X123942831Y-73067589D01*
X123942831Y-72873730D01*
X123908739Y-72839638D01*
X123553771Y-73194607D01*
X122849494Y-73194607D01*
X122494526Y-72839639D01*
X122139558Y-73194607D01*
X121435280Y-73194607D01*
X121080312Y-72839638D01*
X120725344Y-73194607D01*
X120021067Y-73194607D01*
X119666099Y-72839639D01*
X119311131Y-73194607D01*
X118606853Y-73194607D01*
X118251885Y-72839639D01*
X117896917Y-73194607D01*
X117192640Y-73194607D01*
X116837672Y-72839639D01*
X116482704Y-73194607D01*
X115778426Y-73194607D01*
X115423458Y-72839639D01*
X115068490Y-73194607D01*
X114364213Y-73194607D01*
X114009245Y-72839639D01*
X113654277Y-73194607D01*
X112949999Y-73194607D01*
X112595031Y-72839639D01*
X112240063Y-73194607D01*
X111535786Y-73194607D01*
X111180817Y-72839638D01*
X110825849Y-73194607D01*
X110121572Y-73194607D01*
X109766604Y-72839639D01*
X109411636Y-73194607D01*
X108707358Y-73194607D01*
X108352390Y-72839639D01*
X107997422Y-73194607D01*
X107293145Y-73194607D01*
X106938177Y-72839639D01*
X106673497Y-73104319D01*
X106175497Y-73104319D01*
X106175497Y-72619228D01*
X106175904Y-72615462D01*
X106175764Y-72600111D01*
X106175502Y-72571272D01*
X106175497Y-72570143D01*
X106175497Y-72532063D01*
X106175120Y-72528414D01*
X106174857Y-72497199D01*
X106172563Y-72487499D01*
X107290315Y-72487499D01*
X107645284Y-72842468D01*
X108000252Y-72487500D01*
X108000251Y-72487499D01*
X108704528Y-72487499D01*
X109059497Y-72842468D01*
X109414465Y-72487500D01*
X110118743Y-72487500D01*
X110473711Y-72842468D01*
X110828679Y-72487500D01*
X111532956Y-72487500D01*
X111887924Y-72842468D01*
X112242892Y-72487500D01*
X112947170Y-72487500D01*
X113302138Y-72842468D01*
X113657106Y-72487500D01*
X114361383Y-72487500D01*
X114716351Y-72842468D01*
X115071319Y-72487500D01*
X115775597Y-72487500D01*
X116130565Y-72842468D01*
X116485533Y-72487500D01*
X117189810Y-72487500D01*
X117544778Y-72842468D01*
X117899747Y-72487500D01*
X118604024Y-72487500D01*
X118958992Y-72842468D01*
X119313960Y-72487500D01*
X120018238Y-72487500D01*
X120373206Y-72842468D01*
X120728174Y-72487500D01*
X121432451Y-72487500D01*
X121787419Y-72842468D01*
X122142387Y-72487500D01*
X122846665Y-72487500D01*
X123201633Y-72842468D01*
X123556601Y-72487500D01*
X123201633Y-72132532D01*
X122846665Y-72487500D01*
X122142387Y-72487500D01*
X121787419Y-72132532D01*
X121432451Y-72487500D01*
X120728174Y-72487500D01*
X120373206Y-72132532D01*
X120018238Y-72487500D01*
X119313960Y-72487500D01*
X118958992Y-72132532D01*
X118604024Y-72487500D01*
X117899747Y-72487500D01*
X117544778Y-72132531D01*
X117189810Y-72487500D01*
X116485533Y-72487500D01*
X116130565Y-72132532D01*
X115775597Y-72487500D01*
X115071319Y-72487500D01*
X114716351Y-72132531D01*
X114361383Y-72487500D01*
X113657106Y-72487500D01*
X113302138Y-72132532D01*
X112947170Y-72487500D01*
X112242892Y-72487500D01*
X111887924Y-72132532D01*
X111532956Y-72487500D01*
X110828679Y-72487500D01*
X110473711Y-72132532D01*
X110118743Y-72487500D01*
X109414465Y-72487500D01*
X109151464Y-72224499D01*
X108967529Y-72224499D01*
X108704528Y-72487499D01*
X108000251Y-72487499D01*
X107702989Y-72190237D01*
X107618929Y-72158885D01*
X107290315Y-72487499D01*
X106172563Y-72487499D01*
X106141316Y-72355370D01*
X106077227Y-72224477D01*
X105985767Y-72111008D01*
X105871468Y-72020587D01*
X105739995Y-71957695D01*
X105739993Y-71957694D01*
X105739992Y-71957694D01*
X105597862Y-71925450D01*
X105524996Y-71925499D01*
X104076360Y-71925499D01*
X104076349Y-71925496D01*
X103951704Y-71925497D01*
X103951701Y-71925497D01*
X103951700Y-71925498D01*
X103810647Y-71957694D01*
X103808781Y-71958120D01*
X103676715Y-72021721D01*
X103562102Y-72113126D01*
X103470708Y-72227736D01*
X103470706Y-72227740D01*
X103407107Y-72359816D01*
X103374494Y-72502729D01*
X102328168Y-72502729D01*
X102343397Y-72487500D01*
X101992041Y-72136144D01*
X101980517Y-72140442D01*
X101633460Y-72487499D01*
X100827736Y-72487499D01*
X101244520Y-72070716D01*
X101323577Y-71933784D01*
X101354457Y-71818538D01*
X102378713Y-71818538D01*
X102695536Y-72135361D01*
X103050504Y-71780393D01*
X106583208Y-71780393D01*
X106938176Y-72135361D01*
X107207125Y-71866411D01*
X107202101Y-71859700D01*
X110905156Y-71859700D01*
X111180817Y-72135361D01*
X111535786Y-71780393D01*
X112240062Y-71780393D01*
X112595031Y-72135361D01*
X112949999Y-71780393D01*
X113654276Y-71780393D01*
X114009245Y-72135361D01*
X114364213Y-71780393D01*
X115068489Y-71780393D01*
X115423458Y-72135361D01*
X115778426Y-71780393D01*
X116482703Y-71780393D01*
X116837672Y-72135361D01*
X117192640Y-71780393D01*
X117192639Y-71780392D01*
X117896916Y-71780392D01*
X118251885Y-72135361D01*
X118606853Y-71780393D01*
X119311130Y-71780393D01*
X119666099Y-72135361D01*
X120021067Y-71780393D01*
X120725343Y-71780393D01*
X121080312Y-72135361D01*
X121435280Y-71780393D01*
X122139557Y-71780393D01*
X122494526Y-72135361D01*
X122849494Y-71780393D01*
X123553771Y-71780393D01*
X123908739Y-72135361D01*
X123942831Y-72101269D01*
X123942831Y-71459516D01*
X123908739Y-71425424D01*
X123553771Y-71780393D01*
X122849494Y-71780393D01*
X122494526Y-71425425D01*
X122139557Y-71780393D01*
X121435280Y-71780393D01*
X121080312Y-71425424D01*
X120725343Y-71780393D01*
X120021067Y-71780393D01*
X119974775Y-71734101D01*
X119357423Y-71734101D01*
X119311130Y-71780393D01*
X118606853Y-71780393D01*
X118560561Y-71734101D01*
X118538547Y-71734101D01*
X118451910Y-71734179D01*
X118444991Y-71733992D01*
X118431041Y-71733225D01*
X118424133Y-71732651D01*
X118396465Y-71729572D01*
X118389605Y-71728614D01*
X118375829Y-71726296D01*
X118369034Y-71724957D01*
X118200091Y-71686724D01*
X118193410Y-71685015D01*
X118180034Y-71681195D01*
X118173456Y-71679117D01*
X118147259Y-71670032D01*
X118140804Y-71667590D01*
X118127928Y-71662305D01*
X118121621Y-71659509D01*
X118051332Y-71625976D01*
X117896916Y-71780392D01*
X117192639Y-71780392D01*
X116837672Y-71425425D01*
X116482703Y-71780393D01*
X115778426Y-71780393D01*
X115423458Y-71425425D01*
X115068489Y-71780393D01*
X114364213Y-71780393D01*
X114009245Y-71425425D01*
X113654276Y-71780393D01*
X112949999Y-71780393D01*
X112595031Y-71425425D01*
X112240062Y-71780393D01*
X111535786Y-71780393D01*
X111463216Y-71707823D01*
X111448745Y-71715558D01*
X111443309Y-71718294D01*
X111432215Y-71723541D01*
X111426651Y-71726007D01*
X111258375Y-71795708D01*
X111252700Y-71797898D01*
X111241147Y-71802032D01*
X111235366Y-71803941D01*
X111211961Y-71811041D01*
X111206106Y-71812662D01*
X111194198Y-71815646D01*
X111188248Y-71816982D01*
X111009603Y-71852517D01*
X111003603Y-71853558D01*
X110991459Y-71855359D01*
X110985420Y-71856104D01*
X110961079Y-71858501D01*
X110955010Y-71858949D01*
X110942753Y-71859551D01*
X110936670Y-71859700D01*
X110905156Y-71859700D01*
X107202101Y-71859700D01*
X107121871Y-71752528D01*
X107116819Y-71745252D01*
X107107165Y-71730229D01*
X107102652Y-71722621D01*
X107085592Y-71691379D01*
X107081629Y-71683463D01*
X107077536Y-71674500D01*
X106689102Y-71674500D01*
X106583208Y-71780393D01*
X103050504Y-71780393D01*
X102944611Y-71674500D01*
X102472464Y-71674500D01*
X102468371Y-71683463D01*
X102464408Y-71691379D01*
X102447348Y-71722621D01*
X102442835Y-71730229D01*
X102433181Y-71745252D01*
X102428129Y-71752528D01*
X102378713Y-71818538D01*
X101354457Y-71818538D01*
X101354493Y-71818403D01*
X101390859Y-71758744D01*
X101453706Y-71728216D01*
X101474268Y-71726499D01*
X101622871Y-71726499D01*
X101622872Y-71726499D01*
X101682483Y-71720091D01*
X101817331Y-71669796D01*
X101932546Y-71583546D01*
X102018796Y-71468331D01*
X102069091Y-71333483D01*
X102074062Y-71287242D01*
X102100799Y-71222694D01*
X102158191Y-71182846D01*
X102197351Y-71176500D01*
X107352649Y-71176500D01*
X107419688Y-71196185D01*
X107465443Y-71248989D01*
X107475939Y-71287248D01*
X107480908Y-71333483D01*
X107531202Y-71468328D01*
X107531206Y-71468335D01*
X107617452Y-71583544D01*
X107617455Y-71583547D01*
X107732664Y-71669793D01*
X107732671Y-71669797D01*
X107867517Y-71720091D01*
X107867516Y-71720091D01*
X107874444Y-71720835D01*
X107927127Y-71726500D01*
X109572872Y-71726499D01*
X109632483Y-71720091D01*
X109767331Y-71669796D01*
X109882546Y-71583546D01*
X109968796Y-71468331D01*
X109997897Y-71390307D01*
X111849976Y-71390307D01*
X111887924Y-71428255D01*
X112242892Y-71073287D01*
X112947170Y-71073287D01*
X113302138Y-71428255D01*
X113657106Y-71073287D01*
X114361383Y-71073287D01*
X114716351Y-71428255D01*
X115071319Y-71073287D01*
X115775597Y-71073287D01*
X116130565Y-71428255D01*
X116485533Y-71073287D01*
X116485532Y-71073286D01*
X117189810Y-71073286D01*
X117544778Y-71428254D01*
X117653997Y-71319036D01*
X117590776Y-71240946D01*
X117586582Y-71235461D01*
X117578443Y-71224177D01*
X117574569Y-71218479D01*
X117559623Y-71195125D01*
X117556067Y-71189212D01*
X117549230Y-71177093D01*
X117546009Y-71170992D01*
X117469445Y-71015678D01*
X117466567Y-71009406D01*
X117461119Y-70996604D01*
X117458596Y-70990187D01*
X117449174Y-70964111D01*
X117447013Y-70957566D01*
X117443019Y-70944237D01*
X117441222Y-70937570D01*
X117418837Y-70844259D01*
X117189810Y-71073286D01*
X116485532Y-71073286D01*
X116130565Y-70718319D01*
X115775597Y-71073287D01*
X115071319Y-71073287D01*
X114716351Y-70718318D01*
X114361383Y-71073287D01*
X113657106Y-71073287D01*
X113302138Y-70718319D01*
X112947170Y-71073287D01*
X112242892Y-71073287D01*
X112095815Y-70926210D01*
X112095441Y-70927561D01*
X112088341Y-70950966D01*
X112086432Y-70956747D01*
X112082298Y-70968300D01*
X112080108Y-70973975D01*
X112010407Y-71142251D01*
X112007941Y-71147815D01*
X112002694Y-71158909D01*
X111999958Y-71164345D01*
X111988429Y-71185915D01*
X111985433Y-71191204D01*
X111979122Y-71201735D01*
X111975861Y-71206885D01*
X111874667Y-71358331D01*
X111871164Y-71363305D01*
X111863853Y-71373163D01*
X111860107Y-71377964D01*
X111849976Y-71390307D01*
X109997897Y-71390307D01*
X110019091Y-71333483D01*
X110025500Y-71273873D01*
X110025499Y-71172537D01*
X110045183Y-71105502D01*
X110097986Y-71059746D01*
X110167145Y-71049802D01*
X110230701Y-71078826D01*
X110237180Y-71084859D01*
X110335307Y-71182986D01*
X110335311Y-71182989D01*
X110466414Y-71270590D01*
X110466427Y-71270597D01*
X110583371Y-71319036D01*
X110612103Y-71330937D01*
X110749821Y-71358331D01*
X110766753Y-71361699D01*
X110766756Y-71361700D01*
X110766758Y-71361700D01*
X110924444Y-71361700D01*
X110924445Y-71361699D01*
X111079097Y-71330937D01*
X111216839Y-71273883D01*
X111224772Y-71270597D01*
X111224772Y-71270596D01*
X111224779Y-71270594D01*
X111355889Y-71182989D01*
X111467389Y-71071489D01*
X111554994Y-70940379D01*
X111555830Y-70938362D01*
X111599588Y-70832719D01*
X111615337Y-70794697D01*
X111646100Y-70640042D01*
X111646100Y-70482358D01*
X111646100Y-70482355D01*
X111646099Y-70482353D01*
X111622991Y-70366180D01*
X112240063Y-70366180D01*
X112595031Y-70721148D01*
X112949999Y-70366180D01*
X113654277Y-70366180D01*
X114009245Y-70721148D01*
X114364213Y-70366180D01*
X115068490Y-70366180D01*
X115423458Y-70721148D01*
X115778426Y-70366180D01*
X116482704Y-70366180D01*
X116837672Y-70721148D01*
X117013092Y-70545728D01*
X117886851Y-70545728D01*
X117887241Y-70576086D01*
X117887242Y-70576191D01*
X117887448Y-70593364D01*
X117887457Y-70594851D01*
X117887457Y-70630318D01*
X117887945Y-70634995D01*
X117888322Y-70666494D01*
X117888323Y-70666499D01*
X117922248Y-70807915D01*
X117922251Y-70807923D01*
X117986552Y-70938362D01*
X117986554Y-70938365D01*
X118078060Y-71051393D01*
X118078063Y-71051396D01*
X118078065Y-71051398D01*
X118192269Y-71141446D01*
X118323532Y-71204066D01*
X118465379Y-71236167D01*
X118538030Y-71236101D01*
X118538097Y-71236101D01*
X120080067Y-71236101D01*
X120080473Y-71236060D01*
X120111138Y-71236062D01*
X120111230Y-71236063D01*
X120111230Y-71236062D01*
X120111235Y-71236063D01*
X120254144Y-71203457D01*
X120386215Y-71139867D01*
X120462769Y-71078826D01*
X120469716Y-71073287D01*
X121432451Y-71073287D01*
X121787419Y-71428255D01*
X122142387Y-71073287D01*
X122846665Y-71073287D01*
X123201633Y-71428255D01*
X123556601Y-71073287D01*
X123201633Y-70718319D01*
X122846665Y-71073287D01*
X122142387Y-71073287D01*
X121787419Y-70718319D01*
X121432451Y-71073287D01*
X120469716Y-71073287D01*
X120500817Y-71048488D01*
X120500818Y-71048486D01*
X120500823Y-71048483D01*
X120592223Y-70933886D01*
X120655829Y-70801824D01*
X120688454Y-70658918D01*
X120688454Y-70640226D01*
X120688457Y-70640215D01*
X120688457Y-70576086D01*
X120688458Y-70551277D01*
X120688457Y-70551274D01*
X120688457Y-70532401D01*
X121186457Y-70532401D01*
X121186458Y-70532418D01*
X121186457Y-70585627D01*
X121186457Y-70615003D01*
X121435280Y-70366180D01*
X122139558Y-70366180D01*
X122494526Y-70721148D01*
X122849494Y-70366180D01*
X123553771Y-70366180D01*
X123908739Y-70721148D01*
X123942831Y-70687057D01*
X123942831Y-70045303D01*
X123908739Y-70011211D01*
X123553771Y-70366180D01*
X122849494Y-70366180D01*
X122494526Y-70011212D01*
X122139558Y-70366180D01*
X121435280Y-70366180D01*
X121186457Y-70117356D01*
X121186457Y-70532401D01*
X120688457Y-70532401D01*
X120688457Y-69659073D01*
X121432451Y-69659073D01*
X121787419Y-70014041D01*
X122142387Y-69659073D01*
X122846665Y-69659073D01*
X123201633Y-70014041D01*
X123556601Y-69659073D01*
X123201633Y-69304105D01*
X122846665Y-69659073D01*
X122142387Y-69659073D01*
X121787419Y-69304105D01*
X121432451Y-69659073D01*
X120688457Y-69659073D01*
X120688457Y-69137005D01*
X120688499Y-69136861D01*
X120688499Y-69012307D01*
X120688498Y-69012303D01*
X120683723Y-68991381D01*
X120655880Y-68869395D01*
X120614726Y-68783938D01*
X120592280Y-68737327D01*
X120592277Y-68737322D01*
X120589709Y-68734101D01*
X120500882Y-68622716D01*
X120471063Y-68598937D01*
X121078373Y-68598937D01*
X121110629Y-68665917D01*
X121113472Y-68672271D01*
X121118842Y-68685237D01*
X121121322Y-68691734D01*
X121130554Y-68718120D01*
X121132667Y-68724752D01*
X121136548Y-68738227D01*
X121138283Y-68744952D01*
X121177124Y-68915118D01*
X121178482Y-68921945D01*
X121180832Y-68935779D01*
X121181803Y-68942663D01*
X121184933Y-68970444D01*
X121185518Y-68977378D01*
X121186304Y-68991381D01*
X121186499Y-68998330D01*
X121186499Y-69186691D01*
X121186457Y-69186901D01*
X121186457Y-69200789D01*
X121435280Y-68951966D01*
X121435279Y-68951965D01*
X122139557Y-68951965D01*
X122494526Y-69306934D01*
X122849494Y-68951966D01*
X122849493Y-68951965D01*
X123553771Y-68951965D01*
X123908739Y-69306934D01*
X123942831Y-69272843D01*
X123942831Y-68734101D01*
X123771636Y-68734101D01*
X123553771Y-68951965D01*
X122849493Y-68951965D01*
X122631629Y-68734101D01*
X122433415Y-68734102D01*
X122430085Y-68734057D01*
X122423384Y-68733877D01*
X122420075Y-68733744D01*
X122406758Y-68733030D01*
X122403439Y-68732807D01*
X122396774Y-68732270D01*
X122393477Y-68731961D01*
X122362854Y-68728668D01*
X122139557Y-68951965D01*
X121435279Y-68951965D01*
X121080312Y-68596998D01*
X121078373Y-68598937D01*
X120471063Y-68598937D01*
X120386274Y-68531321D01*
X120254203Y-68467719D01*
X120254201Y-68467718D01*
X120111295Y-68435101D01*
X120111290Y-68435101D01*
X120067933Y-68435101D01*
X118583257Y-68435101D01*
X118581791Y-68434670D01*
X118580431Y-68434682D01*
X118580371Y-68434675D01*
X118570340Y-68434765D01*
X118570272Y-68434766D01*
X118532178Y-68435083D01*
X118530492Y-68435097D01*
X118529464Y-68435101D01*
X118493953Y-68435101D01*
X118490770Y-68435427D01*
X118461035Y-68435674D01*
X118459296Y-68435689D01*
X118459294Y-68435689D01*
X118317434Y-68469216D01*
X118317431Y-68469217D01*
X118186513Y-68533300D01*
X118186503Y-68533306D01*
X118073010Y-68624771D01*
X118073007Y-68624774D01*
X117982564Y-68739089D01*
X117919659Y-68870583D01*
X117919658Y-68870586D01*
X117887407Y-69012745D01*
X117887457Y-69085600D01*
X117887457Y-70542852D01*
X117886866Y-70544862D01*
X117886874Y-70545493D01*
X117886851Y-70545728D01*
X117013092Y-70545728D01*
X117192640Y-70366180D01*
X116837672Y-70011212D01*
X116482704Y-70366180D01*
X115778426Y-70366180D01*
X115423458Y-70011212D01*
X115068490Y-70366180D01*
X114364213Y-70366180D01*
X114009245Y-70011212D01*
X113654277Y-70366180D01*
X112949999Y-70366180D01*
X112595031Y-70011212D01*
X112240063Y-70366180D01*
X111622991Y-70366180D01*
X111615337Y-70327703D01*
X111583700Y-70251323D01*
X111554997Y-70182027D01*
X111554990Y-70182014D01*
X111467389Y-70050911D01*
X111467386Y-70050907D01*
X111355888Y-69939409D01*
X111353829Y-69937719D01*
X111353040Y-69936561D01*
X111351582Y-69935103D01*
X111351858Y-69934826D01*
X111314498Y-69879971D01*
X111308500Y-69841871D01*
X111308500Y-69385529D01*
X111806500Y-69385529D01*
X111806500Y-69685743D01*
X111828176Y-69707419D01*
X111832379Y-69711833D01*
X111840622Y-69720929D01*
X111844591Y-69725530D01*
X111860107Y-69744436D01*
X111863853Y-69749237D01*
X111871164Y-69759095D01*
X111874667Y-69764069D01*
X111975861Y-69915515D01*
X111979122Y-69920665D01*
X111979937Y-69922026D01*
X112242890Y-69659073D01*
X112947170Y-69659073D01*
X113302138Y-70014041D01*
X113657106Y-69659073D01*
X114361383Y-69659073D01*
X114716351Y-70014041D01*
X115071319Y-69659073D01*
X115775597Y-69659073D01*
X116130565Y-70014041D01*
X116485533Y-69659073D01*
X116485532Y-69659072D01*
X117189810Y-69659072D01*
X117389457Y-69858719D01*
X117389457Y-69459426D01*
X117189810Y-69659072D01*
X116485532Y-69659072D01*
X116130565Y-69304105D01*
X115775597Y-69659073D01*
X115071319Y-69659073D01*
X114716351Y-69304104D01*
X114361383Y-69659073D01*
X113657106Y-69659073D01*
X113302138Y-69304105D01*
X112947170Y-69659073D01*
X112242890Y-69659073D01*
X112242891Y-69659072D01*
X111887924Y-69304105D01*
X111806500Y-69385529D01*
X111308500Y-69385529D01*
X111308500Y-68951965D01*
X112240062Y-68951965D01*
X112595031Y-69306934D01*
X112949999Y-68951966D01*
X112949998Y-68951965D01*
X113654276Y-68951965D01*
X114009245Y-69306934D01*
X114364213Y-68951966D01*
X114364212Y-68951965D01*
X115068489Y-68951965D01*
X115423458Y-69306934D01*
X115778426Y-68951966D01*
X116482704Y-68951966D01*
X116837672Y-69306934D01*
X117192640Y-68951966D01*
X116837672Y-68596998D01*
X116482704Y-68951966D01*
X115778426Y-68951966D01*
X115560561Y-68734101D01*
X115286354Y-68734101D01*
X115068489Y-68951965D01*
X114364212Y-68951965D01*
X114009244Y-68596997D01*
X113654276Y-68951965D01*
X112949998Y-68951965D01*
X112608995Y-68610962D01*
X112585699Y-68606328D01*
X112240062Y-68951965D01*
X111308500Y-68951965D01*
X111308500Y-68518404D01*
X111806500Y-68518404D01*
X111887923Y-68599827D01*
X111919964Y-68567786D01*
X113270096Y-68567786D01*
X113302137Y-68599827D01*
X113379490Y-68522474D01*
X113270096Y-68567786D01*
X111919964Y-68567786D01*
X112095960Y-68391790D01*
X112055069Y-68364467D01*
X112050095Y-68360964D01*
X112040237Y-68353653D01*
X112035436Y-68349907D01*
X112016530Y-68334391D01*
X112011929Y-68330422D01*
X112002833Y-68322179D01*
X111998419Y-68317976D01*
X111925302Y-68244859D01*
X117189810Y-68244859D01*
X117512551Y-68567600D01*
X117539322Y-68511641D01*
X117542478Y-68505490D01*
X117549189Y-68493263D01*
X117552685Y-68487295D01*
X117567398Y-68463710D01*
X117571224Y-68457941D01*
X117579257Y-68446535D01*
X117583393Y-68440998D01*
X117691087Y-68304878D01*
X117695532Y-68299570D01*
X117704789Y-68289125D01*
X117709518Y-68284080D01*
X117729086Y-68264337D01*
X117734087Y-68259565D01*
X117744438Y-68250225D01*
X117749699Y-68245738D01*
X117750788Y-68244860D01*
X121432451Y-68244860D01*
X121787418Y-68599827D01*
X121868262Y-68518983D01*
X121817723Y-68481149D01*
X121810834Y-68475598D01*
X121797339Y-68463905D01*
X121790859Y-68457871D01*
X121765691Y-68432703D01*
X121759657Y-68426223D01*
X121747964Y-68412728D01*
X121742413Y-68405839D01*
X121634831Y-68262130D01*
X121629779Y-68254854D01*
X121620125Y-68239831D01*
X121615612Y-68232223D01*
X121598552Y-68200981D01*
X121594589Y-68193065D01*
X121590496Y-68184102D01*
X121493209Y-68184102D01*
X121432451Y-68244860D01*
X117750788Y-68244860D01*
X117826179Y-68184102D01*
X117250568Y-68184102D01*
X117189810Y-68244859D01*
X111925302Y-68244859D01*
X111869624Y-68189181D01*
X111865421Y-68184767D01*
X111857178Y-68175671D01*
X111853209Y-68171070D01*
X111837693Y-68152164D01*
X111833947Y-68147363D01*
X111826636Y-68137505D01*
X111823133Y-68132531D01*
X111806500Y-68107638D01*
X111806500Y-68518404D01*
X111308500Y-68518404D01*
X111308500Y-66376097D01*
X111328185Y-66309058D01*
X111344819Y-66288416D01*
X111509696Y-66123539D01*
X112240063Y-66123539D01*
X112282440Y-66165916D01*
X112439425Y-66100892D01*
X112445100Y-66098702D01*
X112456653Y-66094568D01*
X112462434Y-66092659D01*
X112485839Y-66085559D01*
X112491694Y-66083938D01*
X112503602Y-66080954D01*
X112509552Y-66079618D01*
X112688197Y-66044083D01*
X112694197Y-66043042D01*
X112706341Y-66041241D01*
X112712380Y-66040496D01*
X112736721Y-66038099D01*
X112742790Y-66037651D01*
X112755047Y-66037049D01*
X112761130Y-66036900D01*
X112771528Y-66036900D01*
X112843953Y-66017493D01*
X112595031Y-65768571D01*
X112240063Y-66123539D01*
X111509696Y-66123539D01*
X111746676Y-65886559D01*
X112189720Y-65443516D01*
X112205357Y-65416432D01*
X112947169Y-65416432D01*
X113302138Y-65771400D01*
X113657106Y-65416432D01*
X113657105Y-65416431D01*
X114361383Y-65416431D01*
X114389949Y-65444997D01*
X114443494Y-65439242D01*
X114446809Y-65438931D01*
X114453488Y-65438394D01*
X114456795Y-65438172D01*
X114470109Y-65437459D01*
X114473420Y-65437326D01*
X114480104Y-65437147D01*
X114483424Y-65437103D01*
X115050648Y-65437102D01*
X115071319Y-65416431D01*
X115775597Y-65416431D01*
X115796267Y-65437102D01*
X116142505Y-65437102D01*
X116145835Y-65437147D01*
X116152536Y-65437327D01*
X116155845Y-65437460D01*
X116169162Y-65438174D01*
X116172481Y-65438397D01*
X116179146Y-65438934D01*
X116182443Y-65439243D01*
X116264155Y-65448028D01*
X116271826Y-65449096D01*
X116287222Y-65451732D01*
X116294811Y-65453277D01*
X116325112Y-65460437D01*
X116332588Y-65462452D01*
X116347543Y-65466988D01*
X116354884Y-65469468D01*
X116411412Y-65490551D01*
X116485531Y-65416432D01*
X117189810Y-65416432D01*
X117544778Y-65771400D01*
X117899747Y-65416432D01*
X118604023Y-65416432D01*
X118958992Y-65771400D01*
X119313960Y-65416432D01*
X120018237Y-65416432D01*
X120373206Y-65771400D01*
X120728174Y-65416432D01*
X121432451Y-65416432D01*
X121760304Y-65744285D01*
X121765691Y-65738501D01*
X121790859Y-65713333D01*
X121797339Y-65707299D01*
X121810834Y-65695606D01*
X121817723Y-65690055D01*
X121961432Y-65582473D01*
X121968708Y-65577421D01*
X121983731Y-65567767D01*
X121991337Y-65563254D01*
X122000651Y-65558167D01*
X122142387Y-65416432D01*
X122846665Y-65416432D01*
X122867335Y-65437102D01*
X123535929Y-65437102D01*
X123556600Y-65416431D01*
X123201633Y-65061464D01*
X122846665Y-65416432D01*
X122142387Y-65416432D01*
X121787419Y-65061464D01*
X121432451Y-65416432D01*
X120728174Y-65416432D01*
X120373206Y-65061464D01*
X120018237Y-65416432D01*
X119313960Y-65416432D01*
X118958992Y-65061464D01*
X118604023Y-65416432D01*
X117899747Y-65416432D01*
X117544778Y-65061463D01*
X117189810Y-65416432D01*
X116485531Y-65416432D01*
X116485532Y-65416431D01*
X116130565Y-65061464D01*
X115775597Y-65416431D01*
X115071319Y-65416431D01*
X114716351Y-65061463D01*
X114361383Y-65416431D01*
X113657105Y-65416431D01*
X113302138Y-65061464D01*
X112947169Y-65416432D01*
X112205357Y-65416432D01*
X112268777Y-65306584D01*
X112309701Y-65153857D01*
X112309701Y-64995742D01*
X112309701Y-64988147D01*
X112309700Y-64988129D01*
X112309700Y-64851625D01*
X112807700Y-64851625D01*
X112949999Y-64709326D01*
X113654277Y-64709326D01*
X114009245Y-65064294D01*
X114364213Y-64709326D01*
X115068490Y-64709326D01*
X115423458Y-65064294D01*
X115778426Y-64709326D01*
X116482704Y-64709326D01*
X116837672Y-65064294D01*
X117192640Y-64709326D01*
X117896917Y-64709326D01*
X118251885Y-65064294D01*
X118606853Y-64709326D01*
X119311131Y-64709326D01*
X119666099Y-65064294D01*
X120021067Y-64709326D01*
X120725344Y-64709326D01*
X121080312Y-65064294D01*
X121435280Y-64709326D01*
X122139558Y-64709326D01*
X122494526Y-65064294D01*
X122849494Y-64709326D01*
X123553771Y-64709326D01*
X123908739Y-65064294D01*
X123942831Y-65030203D01*
X123942831Y-64388449D01*
X123908739Y-64354357D01*
X123553771Y-64709326D01*
X122849494Y-64709326D01*
X122494526Y-64354358D01*
X122139558Y-64709326D01*
X121435280Y-64709326D01*
X121080312Y-64354357D01*
X120725344Y-64709326D01*
X120021067Y-64709326D01*
X119666099Y-64354358D01*
X119311131Y-64709326D01*
X118606853Y-64709326D01*
X118251885Y-64354358D01*
X117896917Y-64709326D01*
X117192640Y-64709326D01*
X116837672Y-64354358D01*
X116482704Y-64709326D01*
X115778426Y-64709326D01*
X115423458Y-64354358D01*
X115068490Y-64709326D01*
X114364213Y-64709326D01*
X114009245Y-64354358D01*
X113654277Y-64709326D01*
X112949999Y-64709326D01*
X112807700Y-64567027D01*
X112807700Y-64851625D01*
X112309700Y-64851625D01*
X112309700Y-64002219D01*
X112947170Y-64002219D01*
X113302138Y-64357187D01*
X113425224Y-64234101D01*
X114593265Y-64234101D01*
X114716351Y-64357187D01*
X114839436Y-64234101D01*
X116007479Y-64234101D01*
X116130565Y-64357187D01*
X116264643Y-64223108D01*
X116264150Y-64223177D01*
X116182426Y-64231962D01*
X116179111Y-64232273D01*
X116172432Y-64232810D01*
X116169125Y-64233032D01*
X116155811Y-64233745D01*
X116152500Y-64233878D01*
X116145816Y-64234057D01*
X116142496Y-64234101D01*
X116007479Y-64234101D01*
X114839436Y-64234101D01*
X114593265Y-64234101D01*
X113425224Y-64234101D01*
X113657106Y-64002219D01*
X117189810Y-64002219D01*
X117544778Y-64357187D01*
X117899747Y-64002219D01*
X118604024Y-64002219D01*
X118958992Y-64357187D01*
X119313960Y-64002219D01*
X120018238Y-64002219D01*
X120373206Y-64357187D01*
X120728174Y-64002219D01*
X120728173Y-64002218D01*
X121432450Y-64002218D01*
X121787418Y-64357186D01*
X121910503Y-64234101D01*
X123078547Y-64234101D01*
X123201632Y-64357186D01*
X123324719Y-64234101D01*
X123078547Y-64234101D01*
X121910503Y-64234101D01*
X122020649Y-64123955D01*
X121991339Y-64107950D01*
X121983731Y-64103437D01*
X121968708Y-64093783D01*
X121961432Y-64088731D01*
X121817723Y-63981149D01*
X121810834Y-63975598D01*
X121797339Y-63963905D01*
X121790859Y-63957871D01*
X121765691Y-63932703D01*
X121759657Y-63926223D01*
X121747964Y-63912728D01*
X121742413Y-63905839D01*
X121650974Y-63783694D01*
X121432450Y-64002218D01*
X120728173Y-64002218D01*
X120410057Y-63684102D01*
X120336355Y-63684102D01*
X120018238Y-64002219D01*
X119313960Y-64002219D01*
X118995843Y-63684102D01*
X118922141Y-63684102D01*
X118604024Y-64002219D01*
X117899747Y-64002219D01*
X117581630Y-63684102D01*
X117507928Y-63684102D01*
X117189810Y-64002219D01*
X113657106Y-64002219D01*
X113338989Y-63684102D01*
X113265287Y-63684102D01*
X112947170Y-64002219D01*
X112309700Y-64002219D01*
X112309700Y-63596897D01*
X112329385Y-63529858D01*
X112346019Y-63509216D01*
X112632814Y-63222421D01*
X112694137Y-63188936D01*
X112720495Y-63186102D01*
X113915609Y-63186102D01*
X113982648Y-63205787D01*
X114028403Y-63258591D01*
X114038899Y-63296850D01*
X114043868Y-63343085D01*
X114094162Y-63477930D01*
X114094166Y-63477937D01*
X114180412Y-63593146D01*
X114180415Y-63593149D01*
X114295624Y-63679395D01*
X114295631Y-63679399D01*
X114430477Y-63729693D01*
X114430476Y-63729693D01*
X114437404Y-63730437D01*
X114490087Y-63736102D01*
X116135832Y-63736101D01*
X116195443Y-63729693D01*
X116330291Y-63679398D01*
X116445506Y-63593148D01*
X116531756Y-63477933D01*
X116582051Y-63343085D01*
X116587022Y-63296844D01*
X116613759Y-63232296D01*
X116671151Y-63192448D01*
X116710311Y-63186102D01*
X121865609Y-63186102D01*
X121932648Y-63205787D01*
X121978403Y-63258591D01*
X121988899Y-63296850D01*
X121993868Y-63343085D01*
X122044162Y-63477930D01*
X122044166Y-63477937D01*
X122130412Y-63593146D01*
X122130415Y-63593149D01*
X122245624Y-63679395D01*
X122245631Y-63679399D01*
X122380477Y-63729693D01*
X122380476Y-63729693D01*
X122387404Y-63730437D01*
X122440087Y-63736102D01*
X124085832Y-63736101D01*
X124145443Y-63729693D01*
X124207064Y-63706710D01*
X124273498Y-63681932D01*
X124343190Y-63676948D01*
X124404513Y-63710433D01*
X124437997Y-63771757D01*
X124440831Y-63798114D01*
X124440831Y-65873089D01*
X124421146Y-65940128D01*
X124368342Y-65985883D01*
X124299184Y-65995827D01*
X124273499Y-65989271D01*
X124145445Y-65941511D01*
X124145443Y-65941510D01*
X124085843Y-65935103D01*
X124085841Y-65935102D01*
X124085833Y-65935102D01*
X124085824Y-65935102D01*
X122440089Y-65935102D01*
X122440083Y-65935103D01*
X122380476Y-65941510D01*
X122245631Y-65991804D01*
X122245624Y-65991808D01*
X122130415Y-66078054D01*
X122130412Y-66078057D01*
X122044166Y-66193266D01*
X122044162Y-66193273D01*
X121996912Y-66319959D01*
X121993869Y-66328119D01*
X121988897Y-66374359D01*
X121962161Y-66438908D01*
X121904769Y-66478756D01*
X121865609Y-66485102D01*
X116710311Y-66485102D01*
X116643272Y-66465417D01*
X116597517Y-66412613D01*
X116587021Y-66374354D01*
X116582051Y-66328118D01*
X116531757Y-66193273D01*
X116531753Y-66193266D01*
X116445507Y-66078057D01*
X116445504Y-66078054D01*
X116330295Y-65991808D01*
X116330288Y-65991804D01*
X116317681Y-65987102D01*
X118033354Y-65987102D01*
X118470416Y-65987102D01*
X119447568Y-65987102D01*
X119884630Y-65987102D01*
X120861781Y-65987102D01*
X121298844Y-65987102D01*
X121080312Y-65768570D01*
X120861781Y-65987102D01*
X119884630Y-65987102D01*
X119666099Y-65768571D01*
X119447568Y-65987102D01*
X118470416Y-65987102D01*
X118251885Y-65768571D01*
X118033354Y-65987102D01*
X116317681Y-65987102D01*
X116195442Y-65941510D01*
X116195443Y-65941510D01*
X116135843Y-65935103D01*
X116135841Y-65935102D01*
X116135833Y-65935102D01*
X116135824Y-65935102D01*
X114490089Y-65935102D01*
X114490083Y-65935103D01*
X114430476Y-65941510D01*
X114295631Y-65991804D01*
X114295624Y-65991808D01*
X114180415Y-66078054D01*
X114180412Y-66078057D01*
X114094166Y-66193266D01*
X114094162Y-66193273D01*
X114046912Y-66319959D01*
X114043869Y-66328119D01*
X114038897Y-66374359D01*
X114012161Y-66438908D01*
X113954769Y-66478756D01*
X113915609Y-66485102D01*
X113188668Y-66485102D01*
X113188652Y-66485101D01*
X113181056Y-66485101D01*
X113022941Y-66485101D01*
X112870214Y-66526025D01*
X112870212Y-66526026D01*
X112862364Y-66528129D01*
X112862151Y-66527335D01*
X112824123Y-66534900D01*
X112773355Y-66534900D01*
X112618710Y-66565661D01*
X112618698Y-66565664D01*
X112473027Y-66626002D01*
X112473014Y-66626009D01*
X112341911Y-66713610D01*
X112341907Y-66713613D01*
X112230413Y-66825107D01*
X112230410Y-66825111D01*
X112142809Y-66956214D01*
X112142802Y-66956227D01*
X112082464Y-67101898D01*
X112082461Y-67101910D01*
X112051700Y-67256553D01*
X112051700Y-67414246D01*
X112082461Y-67568889D01*
X112082464Y-67568901D01*
X112142802Y-67714572D01*
X112142809Y-67714585D01*
X112230410Y-67845688D01*
X112230413Y-67845692D01*
X112341907Y-67957186D01*
X112341911Y-67957189D01*
X112473014Y-68044790D01*
X112473027Y-68044797D01*
X112589761Y-68093149D01*
X112618703Y-68105137D01*
X112756421Y-68132531D01*
X112773353Y-68135899D01*
X112773356Y-68135900D01*
X112773358Y-68135900D01*
X112931044Y-68135900D01*
X112931045Y-68135899D01*
X113085697Y-68105137D01*
X113231379Y-68044794D01*
X113362489Y-67957189D01*
X113473989Y-67845689D01*
X113543799Y-67741210D01*
X113597411Y-67696406D01*
X113646901Y-67686102D01*
X113915609Y-67686102D01*
X113982648Y-67705787D01*
X114028403Y-67758591D01*
X114038899Y-67796850D01*
X114043868Y-67843085D01*
X114094162Y-67977930D01*
X114094166Y-67977937D01*
X114180412Y-68093146D01*
X114180415Y-68093149D01*
X114295624Y-68179395D01*
X114295631Y-68179399D01*
X114430477Y-68229693D01*
X114430476Y-68229693D01*
X114437404Y-68230437D01*
X114490087Y-68236102D01*
X116135832Y-68236101D01*
X116195443Y-68229693D01*
X116330291Y-68179398D01*
X116445506Y-68093148D01*
X116531756Y-67977933D01*
X116582051Y-67843085D01*
X116587022Y-67796844D01*
X116613759Y-67732296D01*
X116671151Y-67692448D01*
X116710311Y-67686102D01*
X121865609Y-67686102D01*
X121932648Y-67705787D01*
X121978403Y-67758591D01*
X121988899Y-67796850D01*
X121993868Y-67843085D01*
X122044162Y-67977930D01*
X122044166Y-67977937D01*
X122130412Y-68093146D01*
X122130415Y-68093149D01*
X122245624Y-68179395D01*
X122245631Y-68179399D01*
X122380477Y-68229693D01*
X122380476Y-68229693D01*
X122387404Y-68230437D01*
X122440087Y-68236102D01*
X124085832Y-68236101D01*
X124145443Y-68229693D01*
X124197082Y-68210433D01*
X124273498Y-68181932D01*
X124343190Y-68176948D01*
X124404513Y-68210433D01*
X124437997Y-68271757D01*
X124440831Y-68298114D01*
X124440831Y-73078085D01*
X124440636Y-73085036D01*
X124423308Y-73393650D01*
X124421751Y-73407468D01*
X124370563Y-73708760D01*
X124367469Y-73722317D01*
X124282869Y-74015982D01*
X124278277Y-74029108D01*
X124161323Y-74311468D01*
X124155289Y-74323997D01*
X124007459Y-74591478D01*
X124000061Y-74603251D01*
X123823216Y-74852496D01*
X123814546Y-74863368D01*
X123610903Y-75091247D01*
X123601071Y-75101080D01*
X123499000Y-75192298D01*
X123373193Y-75304726D01*
X123362326Y-75313393D01*
X123113076Y-75490247D01*
X123101302Y-75497645D01*
X122833826Y-75645475D01*
X122821297Y-75651509D01*
X122538949Y-75768463D01*
X122525823Y-75773056D01*
X122232149Y-75857661D01*
X122218593Y-75860755D01*
X121917301Y-75911947D01*
X121903483Y-75913504D01*
X121595492Y-75930801D01*
X121588539Y-75930996D01*
X107977960Y-75930996D01*
X107977956Y-75930995D01*
X107818414Y-75930995D01*
X107603909Y-75959236D01*
X107394917Y-76015236D01*
X107195024Y-76098036D01*
X107007645Y-76206221D01*
X106836002Y-76337930D01*
X106835992Y-76337939D01*
X106780676Y-76393254D01*
X106780672Y-76393260D01*
X102583292Y-80590638D01*
X102577330Y-80596220D01*
X102403497Y-80748536D01*
X102390545Y-80758457D01*
X102201616Y-80884369D01*
X102187475Y-80892504D01*
X101983659Y-80992520D01*
X101968571Y-80998729D01*
X101753373Y-81071125D01*
X101737601Y-81075298D01*
X101514773Y-81118813D01*
X101498590Y-81120880D01*
X101267967Y-81135010D01*
X101259813Y-81135241D01*
X101240485Y-81135152D01*
X101229464Y-81135101D01*
X101229463Y-81135101D01*
X101217024Y-81135044D01*
X101215085Y-81135258D01*
X91356825Y-81135258D01*
X91340640Y-81134197D01*
X91324294Y-81132045D01*
X91274410Y-81125477D01*
X91243146Y-81117100D01*
X91189003Y-81094673D01*
X91160971Y-81078489D01*
X91114479Y-81042814D01*
X91091593Y-81019929D01*
X91055917Y-80973439D01*
X91039730Y-80945405D01*
X91017816Y-80892504D01*
X91017301Y-80891261D01*
X91008924Y-80859998D01*
X91004649Y-80827536D01*
X91001763Y-80805614D01*
X91000221Y-80793905D01*
X90999160Y-80777717D01*
X90999160Y-80743965D01*
X90999158Y-80743943D01*
X90999158Y-80738112D01*
X90999153Y-80738064D01*
X90999153Y-80176759D01*
X90999602Y-80172580D01*
X90999493Y-80161845D01*
X90999494Y-80161844D01*
X90999159Y-80128872D01*
X90999153Y-80127612D01*
X90999153Y-80089951D01*
X90998734Y-80085911D01*
X90998441Y-80054680D01*
X90992377Y-80029141D01*
X90991301Y-80024611D01*
X91495732Y-80024611D01*
X91496029Y-80029141D01*
X91496288Y-80036066D01*
X91496533Y-80062169D01*
X91496552Y-80062361D01*
X91497153Y-80074556D01*
X91497153Y-80125682D01*
X91497754Y-80184829D01*
X91497153Y-80197872D01*
X91497153Y-80505318D01*
X91736796Y-80265675D01*
X92441073Y-80265675D01*
X92796041Y-80620643D01*
X93151009Y-80265675D01*
X93855287Y-80265675D01*
X94210255Y-80620643D01*
X94565223Y-80265675D01*
X95269500Y-80265675D01*
X95624468Y-80620643D01*
X95979436Y-80265675D01*
X96683714Y-80265675D01*
X97038682Y-80620643D01*
X97393650Y-80265675D01*
X98097927Y-80265675D01*
X98452895Y-80620643D01*
X98807862Y-80265675D01*
X99512141Y-80265675D01*
X99867109Y-80620643D01*
X100222077Y-80265675D01*
X100222076Y-80265674D01*
X100926354Y-80265674D01*
X101281322Y-80620642D01*
X101636290Y-80265674D01*
X101281322Y-79910706D01*
X100926354Y-80265674D01*
X100222076Y-80265674D01*
X99867109Y-79910707D01*
X99512141Y-80265675D01*
X98807862Y-80265675D01*
X98807863Y-80265674D01*
X98452895Y-79910706D01*
X98097927Y-80265675D01*
X97393650Y-80265675D01*
X97038682Y-79910707D01*
X96683714Y-80265675D01*
X95979436Y-80265675D01*
X95624468Y-79910707D01*
X95269500Y-80265675D01*
X94565223Y-80265675D01*
X94210255Y-79910707D01*
X93855287Y-80265675D01*
X93151009Y-80265675D01*
X92796041Y-79910707D01*
X92441073Y-80265675D01*
X91736796Y-80265675D01*
X91495732Y-80024611D01*
X90991301Y-80024611D01*
X90964800Y-79912988D01*
X90964799Y-79912987D01*
X90964799Y-79912984D01*
X90907607Y-79796394D01*
X90900662Y-79782236D01*
X90900657Y-79782228D01*
X90866787Y-79740259D01*
X90809198Y-79668899D01*
X90809196Y-79668897D01*
X90809195Y-79668896D01*
X90736859Y-79611724D01*
X90694941Y-79578593D01*
X90653048Y-79558568D01*
X90653046Y-79558567D01*
X91733965Y-79558567D01*
X92088933Y-79913535D01*
X92219829Y-79782639D01*
X93372251Y-79782639D01*
X93503147Y-79913535D01*
X93634044Y-79782639D01*
X93372251Y-79782639D01*
X92219829Y-79782639D01*
X92289823Y-79712645D01*
X94716470Y-79712645D01*
X94917361Y-79913536D01*
X95272330Y-79558568D01*
X95976607Y-79558568D01*
X96331575Y-79913536D01*
X96686543Y-79558568D01*
X97390821Y-79558568D01*
X97745789Y-79913536D01*
X98100757Y-79558568D01*
X98805034Y-79558568D01*
X99160002Y-79913536D01*
X99514970Y-79558568D01*
X100219248Y-79558568D01*
X100574216Y-79913536D01*
X100929184Y-79558568D01*
X101633461Y-79558568D01*
X101988429Y-79913536D01*
X102343397Y-79558568D01*
X101988429Y-79203600D01*
X101633461Y-79558568D01*
X100929184Y-79558568D01*
X100574216Y-79203600D01*
X100219248Y-79558568D01*
X99514970Y-79558568D01*
X99160002Y-79203600D01*
X98805034Y-79558568D01*
X98100757Y-79558568D01*
X97745789Y-79203600D01*
X97390821Y-79558568D01*
X96686543Y-79558568D01*
X96331575Y-79203600D01*
X95976607Y-79558568D01*
X95272330Y-79558568D01*
X95125856Y-79412094D01*
X95094203Y-79454377D01*
X95088652Y-79461266D01*
X95076959Y-79474761D01*
X95070925Y-79481241D01*
X95045757Y-79506409D01*
X95039277Y-79512443D01*
X95025782Y-79524136D01*
X95018893Y-79529687D01*
X94875184Y-79637269D01*
X94867908Y-79642321D01*
X94852885Y-79651975D01*
X94845277Y-79656488D01*
X94814035Y-79673548D01*
X94806119Y-79677511D01*
X94789874Y-79684930D01*
X94781695Y-79688318D01*
X94716470Y-79712645D01*
X92289823Y-79712645D01*
X92330459Y-79672009D01*
X92302035Y-79656488D01*
X92294427Y-79651975D01*
X92279404Y-79642321D01*
X92272128Y-79637269D01*
X92128419Y-79529687D01*
X92121530Y-79524136D01*
X92108035Y-79512443D01*
X92101555Y-79506409D01*
X92076387Y-79481241D01*
X92070353Y-79474761D01*
X92058660Y-79461266D01*
X92053109Y-79454377D01*
X91961084Y-79331449D01*
X91733965Y-79558567D01*
X90653046Y-79558567D01*
X90563548Y-79515787D01*
X90563546Y-79515786D01*
X90563545Y-79515786D01*
X90421514Y-79483585D01*
X90421513Y-79483585D01*
X90348696Y-79483639D01*
X88900084Y-79483639D01*
X88899774Y-79483548D01*
X88775444Y-79483559D01*
X88775342Y-79483560D01*
X88775338Y-79483560D01*
X88632427Y-79516191D01*
X88500354Y-79579807D01*
X88385755Y-79671212D01*
X88385746Y-79671220D01*
X88294361Y-79785829D01*
X88230762Y-79917913D01*
X88198151Y-80060822D01*
X88198150Y-80060830D01*
X88198153Y-80127496D01*
X88198153Y-80467687D01*
X88197091Y-80483878D01*
X88188373Y-80550073D01*
X88179993Y-80581343D01*
X88157571Y-80635464D01*
X88141384Y-80663495D01*
X88105722Y-80709965D01*
X88082830Y-80732854D01*
X88036354Y-80768511D01*
X88008318Y-80784695D01*
X87954200Y-80807106D01*
X87922933Y-80815481D01*
X87856377Y-80824238D01*
X87840192Y-80825298D01*
X87820007Y-80825296D01*
X87814317Y-80825296D01*
X87814316Y-80825296D01*
X87799904Y-80825295D01*
X87799870Y-80825299D01*
X78559200Y-80825299D01*
X78492161Y-80805614D01*
X78446406Y-80752810D01*
X78435200Y-80701299D01*
X78435200Y-80265675D01*
X79713151Y-80265675D01*
X79774775Y-80327299D01*
X80361463Y-80327299D01*
X80423087Y-80265675D01*
X81127365Y-80265675D01*
X81188989Y-80327299D01*
X81775677Y-80327299D01*
X81837301Y-80265675D01*
X82541578Y-80265675D01*
X82603202Y-80327299D01*
X83189890Y-80327299D01*
X83251514Y-80265675D01*
X83955792Y-80265675D01*
X84017416Y-80327299D01*
X84604104Y-80327299D01*
X84665728Y-80265675D01*
X85370005Y-80265675D01*
X85431629Y-80327299D01*
X86018317Y-80327299D01*
X86079941Y-80265675D01*
X86784219Y-80265675D01*
X86845843Y-80327299D01*
X87432531Y-80327299D01*
X87494155Y-80265675D01*
X87139187Y-79910707D01*
X86784219Y-80265675D01*
X86079941Y-80265675D01*
X85724973Y-79910707D01*
X85370005Y-80265675D01*
X84665728Y-80265675D01*
X84310760Y-79910707D01*
X83955792Y-80265675D01*
X83251514Y-80265675D01*
X82896546Y-79910707D01*
X82541578Y-80265675D01*
X81837301Y-80265675D01*
X81482333Y-79910707D01*
X81127365Y-80265675D01*
X80423087Y-80265675D01*
X80068119Y-79910707D01*
X79713151Y-80265675D01*
X78435200Y-80265675D01*
X78435200Y-79505412D01*
X79059200Y-79505412D01*
X79059200Y-79611724D01*
X79361012Y-79913536D01*
X79715980Y-79558568D01*
X80420258Y-79558568D01*
X80775226Y-79913536D01*
X81130194Y-79558568D01*
X81834471Y-79558568D01*
X82189439Y-79913536D01*
X82544407Y-79558568D01*
X83248685Y-79558568D01*
X83603653Y-79913536D01*
X83734550Y-79782639D01*
X84886970Y-79782639D01*
X85017866Y-79913535D01*
X85148763Y-79782639D01*
X86301183Y-79782639D01*
X86432080Y-79913536D01*
X86573787Y-79771828D01*
X86493122Y-79780500D01*
X86489807Y-79780811D01*
X86483128Y-79781348D01*
X86479821Y-79781570D01*
X86466507Y-79782283D01*
X86463196Y-79782416D01*
X86456512Y-79782595D01*
X86453192Y-79782639D01*
X86301183Y-79782639D01*
X85148763Y-79782639D01*
X84886970Y-79782639D01*
X83734550Y-79782639D01*
X83958621Y-79558568D01*
X87491326Y-79558568D01*
X87744246Y-79811488D01*
X87748354Y-79793490D01*
X87750090Y-79786756D01*
X87753973Y-79773275D01*
X87756086Y-79766645D01*
X87765318Y-79740259D01*
X87767797Y-79733763D01*
X87773164Y-79720804D01*
X87776005Y-79714455D01*
X87851730Y-79557189D01*
X87854919Y-79551016D01*
X87861703Y-79538738D01*
X87865240Y-79532740D01*
X87880112Y-79509069D01*
X87883976Y-79503286D01*
X87892093Y-79491845D01*
X87896273Y-79486289D01*
X87999509Y-79356815D01*
X87875334Y-79232640D01*
X87817254Y-79232640D01*
X87491326Y-79558568D01*
X83958621Y-79558568D01*
X83603653Y-79203600D01*
X83248685Y-79558568D01*
X82544407Y-79558568D01*
X82189439Y-79203599D01*
X81834471Y-79558568D01*
X81130194Y-79558568D01*
X80775226Y-79203600D01*
X80420258Y-79558568D01*
X79715980Y-79558568D01*
X79361012Y-79203600D01*
X79059200Y-79505412D01*
X78435200Y-79505412D01*
X78435200Y-78851461D01*
X79713151Y-78851461D01*
X80068119Y-79206429D01*
X80423087Y-78851461D01*
X81127365Y-78851461D01*
X81482333Y-79206429D01*
X81837301Y-78851461D01*
X82541578Y-78851461D01*
X82896546Y-79206429D01*
X83251514Y-78851461D01*
X82896546Y-78496493D01*
X82541578Y-78851461D01*
X81837301Y-78851461D01*
X81482333Y-78496493D01*
X81127365Y-78851461D01*
X80423087Y-78851461D01*
X80068119Y-78496493D01*
X79713151Y-78851461D01*
X78435200Y-78851461D01*
X78435200Y-78324299D01*
X79185988Y-78324299D01*
X79361012Y-78499323D01*
X79536036Y-78324299D01*
X80600202Y-78324299D01*
X80775225Y-78499322D01*
X80950249Y-78324299D01*
X80600202Y-78324299D01*
X79536036Y-78324299D01*
X79185988Y-78324299D01*
X78435200Y-78324299D01*
X78435200Y-78146527D01*
X81836643Y-78146527D01*
X82189439Y-78499323D01*
X82544407Y-78144354D01*
X83248684Y-78144354D01*
X83603652Y-78499322D01*
X83850156Y-78252819D01*
X83850156Y-78035889D01*
X83603652Y-77789386D01*
X83248684Y-78144354D01*
X82544407Y-78144354D01*
X82250206Y-77850153D01*
X82248083Y-77852278D01*
X82244167Y-77856027D01*
X82236121Y-77863399D01*
X82232057Y-77866963D01*
X82061197Y-78010327D01*
X82056979Y-78013712D01*
X82048332Y-78020347D01*
X82043978Y-78023540D01*
X82026172Y-78036010D01*
X82021667Y-78039020D01*
X82012458Y-78044887D01*
X82007830Y-78047696D01*
X81836643Y-78146527D01*
X78435200Y-78146527D01*
X78435200Y-77950299D01*
X78454885Y-77883260D01*
X78507689Y-77837505D01*
X78559200Y-77826299D01*
X81035639Y-77826299D01*
X81035676Y-77826310D01*
X81087012Y-77826310D01*
X81187663Y-77826310D01*
X81187665Y-77826310D01*
X81385913Y-77791352D01*
X81575080Y-77722501D01*
X81749417Y-77621849D01*
X81903628Y-77492454D01*
X81907831Y-77487446D01*
X81930319Y-77460646D01*
X81944985Y-77443168D01*
X82547498Y-77443168D01*
X82896546Y-77792216D01*
X83251514Y-77437248D01*
X82896545Y-77082279D01*
X82563676Y-77415148D01*
X82547498Y-77443168D01*
X81944985Y-77443168D01*
X82033029Y-77338246D01*
X82133686Y-77163912D01*
X82202543Y-76974748D01*
X82210736Y-76928295D01*
X82234505Y-76793519D01*
X82237506Y-76776501D01*
X82237507Y-76730444D01*
X82237510Y-76730433D01*
X82237510Y-76730141D01*
X83248685Y-76730141D01*
X83603653Y-77085109D01*
X83958621Y-76730141D01*
X83714120Y-76485640D01*
X84907398Y-76485640D01*
X85128334Y-76485640D01*
X86321613Y-76485640D01*
X86453201Y-76485640D01*
X86456531Y-76485685D01*
X86463232Y-76485865D01*
X86466541Y-76485998D01*
X86479858Y-76486712D01*
X86483177Y-76486935D01*
X86489842Y-76487472D01*
X86493139Y-76487781D01*
X86550897Y-76493990D01*
X86432079Y-76375172D01*
X86321613Y-76485640D01*
X85128334Y-76485640D01*
X85017866Y-76375172D01*
X84907398Y-76485640D01*
X83714120Y-76485640D01*
X83603653Y-76375173D01*
X83248685Y-76730141D01*
X82237510Y-76730141D01*
X82237510Y-76662954D01*
X82237511Y-76641497D01*
X82237510Y-76641494D01*
X82237510Y-75829102D01*
X82735510Y-75829102D01*
X82735510Y-76216966D01*
X82896546Y-76378002D01*
X83251514Y-76023034D01*
X83955792Y-76023034D01*
X84310760Y-76378002D01*
X84665728Y-76023034D01*
X85370005Y-76023034D01*
X85724973Y-76378002D01*
X86079941Y-76023034D01*
X86784219Y-76023034D01*
X87061039Y-76299854D01*
X87063023Y-76297965D01*
X87072119Y-76289722D01*
X87076720Y-76285753D01*
X87095626Y-76270237D01*
X87100427Y-76266491D01*
X87110285Y-76259180D01*
X87115259Y-76255677D01*
X87278989Y-76146275D01*
X87284139Y-76143014D01*
X87294670Y-76136703D01*
X87299959Y-76133707D01*
X87318900Y-76123583D01*
X87318900Y-75847779D01*
X87139187Y-75668066D01*
X86784219Y-76023034D01*
X86079941Y-76023034D01*
X85724973Y-75668066D01*
X85370005Y-76023034D01*
X84665728Y-76023034D01*
X84310760Y-75668066D01*
X83955792Y-76023034D01*
X83251514Y-76023034D01*
X82896546Y-75668066D01*
X82735510Y-75829102D01*
X82237510Y-75829102D01*
X82237510Y-75315927D01*
X83248685Y-75315927D01*
X83603653Y-75670895D01*
X83958621Y-75315927D01*
X83958620Y-75315926D01*
X84662898Y-75315926D01*
X85017867Y-75670895D01*
X85372835Y-75315927D01*
X86077112Y-75315927D01*
X86432080Y-75670895D01*
X86787048Y-75315927D01*
X86706233Y-75235112D01*
X86665583Y-75250274D01*
X86658243Y-75252753D01*
X86643292Y-75257288D01*
X86635816Y-75259303D01*
X86605512Y-75266464D01*
X86597921Y-75268010D01*
X86582519Y-75270647D01*
X86574846Y-75271715D01*
X86493122Y-75280500D01*
X86489807Y-75280811D01*
X86483128Y-75281348D01*
X86479821Y-75281570D01*
X86466507Y-75282283D01*
X86463196Y-75282416D01*
X86456512Y-75282595D01*
X86453192Y-75282639D01*
X86110400Y-75282639D01*
X86077112Y-75315927D01*
X85372835Y-75315927D01*
X85339547Y-75282639D01*
X84794111Y-75282640D01*
X84790781Y-75282595D01*
X84784080Y-75282415D01*
X84780771Y-75282282D01*
X84767454Y-75281568D01*
X84764135Y-75281345D01*
X84757470Y-75280808D01*
X84754173Y-75280499D01*
X84703747Y-75275077D01*
X84662898Y-75315926D01*
X83958620Y-75315926D01*
X83603653Y-74960959D01*
X83248685Y-75315927D01*
X82237510Y-75315927D01*
X82237510Y-74414889D01*
X82735510Y-74414889D01*
X82735510Y-74802753D01*
X82896546Y-74963789D01*
X83251514Y-74608821D01*
X82896546Y-74253853D01*
X82735510Y-74414889D01*
X82237510Y-74414889D01*
X82237510Y-73901714D01*
X83248685Y-73901714D01*
X83603652Y-74256681D01*
X83850156Y-74010178D01*
X83850156Y-73793249D01*
X83603653Y-73546746D01*
X83248685Y-73901714D01*
X82237510Y-73901714D01*
X82237510Y-73000675D01*
X82735510Y-73000675D01*
X82735510Y-73388539D01*
X82896546Y-73549575D01*
X83251514Y-73194607D01*
X82896546Y-72839639D01*
X82735510Y-73000675D01*
X82237510Y-73000675D01*
X82237510Y-72487500D01*
X83248685Y-72487500D01*
X83603652Y-72842467D01*
X83958620Y-72487499D01*
X83603653Y-72132532D01*
X83248685Y-72487500D01*
X82237510Y-72487500D01*
X82237510Y-71586461D01*
X82735510Y-71586461D01*
X82735510Y-71974325D01*
X82896546Y-72135361D01*
X83251514Y-71780393D01*
X83955791Y-71780393D01*
X84310759Y-72135361D01*
X84665728Y-71780393D01*
X85370004Y-71780393D01*
X85575251Y-71985640D01*
X85874694Y-71985640D01*
X86079941Y-71780393D01*
X86784218Y-71780393D01*
X87139187Y-72135361D01*
X87494155Y-71780393D01*
X88198432Y-71780393D01*
X88553400Y-72135361D01*
X88908369Y-71780393D01*
X89612645Y-71780393D01*
X89967614Y-72135361D01*
X90322582Y-71780393D01*
X91026859Y-71780393D01*
X91381828Y-72135361D01*
X91736796Y-71780393D01*
X92441073Y-71780393D01*
X92653869Y-71993189D01*
X92704190Y-71987780D01*
X92707505Y-71987469D01*
X92714184Y-71986932D01*
X92717491Y-71986710D01*
X92730805Y-71985997D01*
X92734116Y-71985864D01*
X92740800Y-71985685D01*
X92744120Y-71985641D01*
X92945760Y-71985640D01*
X93151007Y-71780393D01*
X93855286Y-71780393D01*
X94060533Y-71985640D01*
X94359975Y-71985640D01*
X94565222Y-71780392D01*
X94210255Y-71425425D01*
X93855286Y-71780393D01*
X93151007Y-71780393D01*
X93151008Y-71780392D01*
X92796041Y-71425425D01*
X92441073Y-71780393D01*
X91736796Y-71780393D01*
X91381828Y-71425425D01*
X91026859Y-71780393D01*
X90322582Y-71780393D01*
X89967614Y-71425425D01*
X89612645Y-71780393D01*
X88908369Y-71780393D01*
X88553400Y-71425424D01*
X88198432Y-71780393D01*
X87494155Y-71780393D01*
X87139187Y-71425425D01*
X86784218Y-71780393D01*
X86079941Y-71780393D01*
X85724973Y-71425425D01*
X85370004Y-71780393D01*
X84665728Y-71780393D01*
X84310760Y-71425425D01*
X83955791Y-71780393D01*
X83251514Y-71780393D01*
X82896546Y-71425425D01*
X82735510Y-71586461D01*
X82237510Y-71586461D01*
X82237510Y-71073287D01*
X83248685Y-71073287D01*
X83603653Y-71428255D01*
X83958621Y-71073287D01*
X84662899Y-71073287D01*
X85017867Y-71428255D01*
X85372835Y-71073287D01*
X86077112Y-71073287D01*
X86432080Y-71428255D01*
X86787048Y-71073287D01*
X87491326Y-71073287D01*
X87846294Y-71428255D01*
X88201262Y-71073287D01*
X88905539Y-71073287D01*
X89260507Y-71428255D01*
X89615475Y-71073287D01*
X90319753Y-71073287D01*
X90674721Y-71428255D01*
X91029689Y-71073287D01*
X91733966Y-71073287D01*
X92088934Y-71428255D01*
X92443902Y-71073287D01*
X93148180Y-71073287D01*
X93503148Y-71428255D01*
X93858116Y-71073287D01*
X94562393Y-71073287D01*
X94917361Y-71428255D01*
X95272330Y-71073287D01*
X94917361Y-70718318D01*
X94562393Y-71073287D01*
X93858116Y-71073287D01*
X93503148Y-70718319D01*
X93148180Y-71073287D01*
X92443902Y-71073287D01*
X92088934Y-70718318D01*
X91733966Y-71073287D01*
X91029689Y-71073287D01*
X90674721Y-70718319D01*
X90319753Y-71073287D01*
X89615475Y-71073287D01*
X89260507Y-70718319D01*
X88905539Y-71073287D01*
X88201262Y-71073287D01*
X87846294Y-70718319D01*
X87491326Y-71073287D01*
X86787048Y-71073287D01*
X86432080Y-70718319D01*
X86077112Y-71073287D01*
X85372835Y-71073287D01*
X85017867Y-70718319D01*
X84662899Y-71073287D01*
X83958621Y-71073287D01*
X83603653Y-70718319D01*
X83248685Y-71073287D01*
X82237510Y-71073287D01*
X82237510Y-70172248D01*
X82735510Y-70172248D01*
X82735510Y-70560112D01*
X82896546Y-70721148D01*
X83251514Y-70366180D01*
X83955792Y-70366180D01*
X84310760Y-70721148D01*
X84665728Y-70366180D01*
X85370005Y-70366180D01*
X85724973Y-70721148D01*
X86079941Y-70366180D01*
X86784219Y-70366180D01*
X87139187Y-70721148D01*
X87494155Y-70366180D01*
X88198432Y-70366180D01*
X88553400Y-70721148D01*
X88908369Y-70366180D01*
X89612646Y-70366180D01*
X89967614Y-70721148D01*
X90322582Y-70366180D01*
X91026860Y-70366180D01*
X91381828Y-70721148D01*
X91736796Y-70366180D01*
X92441073Y-70366180D01*
X92796041Y-70721148D01*
X93151009Y-70366180D01*
X93855287Y-70366180D01*
X94210255Y-70721148D01*
X94565223Y-70366180D01*
X94210255Y-70011212D01*
X93855287Y-70366180D01*
X93151009Y-70366180D01*
X92796041Y-70011212D01*
X92441073Y-70366180D01*
X91736796Y-70366180D01*
X91381828Y-70011212D01*
X91026860Y-70366180D01*
X90322582Y-70366180D01*
X89967614Y-70011212D01*
X89612646Y-70366180D01*
X88908369Y-70366180D01*
X88553400Y-70011211D01*
X88198432Y-70366180D01*
X87494155Y-70366180D01*
X87139187Y-70011212D01*
X86784219Y-70366180D01*
X86079941Y-70366180D01*
X85724973Y-70011212D01*
X85370005Y-70366180D01*
X84665728Y-70366180D01*
X84310760Y-70011212D01*
X83955792Y-70366180D01*
X83251514Y-70366180D01*
X82896546Y-70011212D01*
X82735510Y-70172248D01*
X82237510Y-70172248D01*
X82237510Y-69659073D01*
X83248685Y-69659073D01*
X83603653Y-70014041D01*
X83958621Y-69659073D01*
X84662899Y-69659073D01*
X85017867Y-70014041D01*
X85372835Y-69659073D01*
X86077112Y-69659073D01*
X86432080Y-70014041D01*
X86787048Y-69659073D01*
X87491326Y-69659073D01*
X87846294Y-70014041D01*
X88201262Y-69659073D01*
X88905539Y-69659073D01*
X89260507Y-70014041D01*
X89615475Y-69659073D01*
X90319753Y-69659073D01*
X90674721Y-70014041D01*
X91029689Y-69659073D01*
X91733966Y-69659073D01*
X92088934Y-70014041D01*
X92443902Y-69659073D01*
X93148180Y-69659073D01*
X93503148Y-70014041D01*
X93858116Y-69659073D01*
X94562393Y-69659073D01*
X94917361Y-70014041D01*
X95272330Y-69659073D01*
X94917361Y-69304104D01*
X94562393Y-69659073D01*
X93858116Y-69659073D01*
X93503148Y-69304105D01*
X93148180Y-69659073D01*
X92443902Y-69659073D01*
X92088934Y-69304104D01*
X91733966Y-69659073D01*
X91029689Y-69659073D01*
X90674721Y-69304105D01*
X90319753Y-69659073D01*
X89615475Y-69659073D01*
X89260507Y-69304105D01*
X88905539Y-69659073D01*
X88201262Y-69659073D01*
X87846294Y-69304105D01*
X87491326Y-69659073D01*
X86787048Y-69659073D01*
X86432080Y-69304105D01*
X86077112Y-69659073D01*
X85372835Y-69659073D01*
X85017867Y-69304105D01*
X84662899Y-69659073D01*
X83958621Y-69659073D01*
X83603653Y-69304105D01*
X83248685Y-69659073D01*
X82237510Y-69659073D01*
X82237510Y-68758034D01*
X82735510Y-68758034D01*
X82735510Y-69145898D01*
X82896546Y-69306934D01*
X83251514Y-68951966D01*
X83955792Y-68951966D01*
X84310760Y-69306934D01*
X84665728Y-68951966D01*
X85370005Y-68951966D01*
X85724973Y-69306934D01*
X86079941Y-68951966D01*
X86784219Y-68951966D01*
X87139187Y-69306934D01*
X87494155Y-68951966D01*
X88198432Y-68951966D01*
X88553400Y-69306934D01*
X88908369Y-68951966D01*
X89612646Y-68951966D01*
X89967614Y-69306934D01*
X90322582Y-68951966D01*
X91026860Y-68951966D01*
X91381828Y-69306934D01*
X91736796Y-68951966D01*
X92441073Y-68951966D01*
X92796041Y-69306934D01*
X93151009Y-68951966D01*
X93855287Y-68951966D01*
X94210255Y-69306934D01*
X94565223Y-68951966D01*
X94210255Y-68596998D01*
X93855287Y-68951966D01*
X93151009Y-68951966D01*
X92796041Y-68596998D01*
X92441073Y-68951966D01*
X91736796Y-68951966D01*
X91381828Y-68596998D01*
X91026860Y-68951966D01*
X90322582Y-68951966D01*
X89967614Y-68596998D01*
X89612646Y-68951966D01*
X88908369Y-68951966D01*
X88553400Y-68596997D01*
X88198432Y-68951966D01*
X87494155Y-68951966D01*
X87139187Y-68596998D01*
X86784219Y-68951966D01*
X86079941Y-68951966D01*
X85724973Y-68596998D01*
X85370005Y-68951966D01*
X84665728Y-68951966D01*
X84310760Y-68596998D01*
X83955792Y-68951966D01*
X83251514Y-68951966D01*
X82896546Y-68596998D01*
X82735510Y-68758034D01*
X82237510Y-68758034D01*
X82237510Y-68244860D01*
X83248685Y-68244860D01*
X83603653Y-68599828D01*
X83958621Y-68244860D01*
X84662899Y-68244860D01*
X85017867Y-68599828D01*
X85372835Y-68244860D01*
X86077112Y-68244860D01*
X86432080Y-68599828D01*
X86787048Y-68244860D01*
X87491326Y-68244860D01*
X87846294Y-68599828D01*
X88201262Y-68244860D01*
X88905539Y-68244860D01*
X89260507Y-68599828D01*
X89615475Y-68244860D01*
X90319753Y-68244860D01*
X90674721Y-68599828D01*
X91029689Y-68244860D01*
X91733966Y-68244860D01*
X92088934Y-68599828D01*
X92443902Y-68244860D01*
X93148180Y-68244860D01*
X93503148Y-68599828D01*
X93858116Y-68244860D01*
X94562393Y-68244860D01*
X94917361Y-68599828D01*
X95272330Y-68244860D01*
X94917361Y-67889891D01*
X94562393Y-68244860D01*
X93858116Y-68244860D01*
X93503148Y-67889892D01*
X93148180Y-68244860D01*
X92443902Y-68244860D01*
X92088934Y-67889891D01*
X91733966Y-68244860D01*
X91029689Y-68244860D01*
X90674721Y-67889892D01*
X90319753Y-68244860D01*
X89615475Y-68244860D01*
X89260507Y-67889892D01*
X88905539Y-68244860D01*
X88201262Y-68244860D01*
X87846294Y-67889892D01*
X87491326Y-68244860D01*
X86787048Y-68244860D01*
X86432080Y-67889892D01*
X86077112Y-68244860D01*
X85372835Y-68244860D01*
X85017867Y-67889892D01*
X84662899Y-68244860D01*
X83958621Y-68244860D01*
X83603653Y-67889892D01*
X83248685Y-68244860D01*
X82237510Y-68244860D01*
X82237510Y-67343821D01*
X82735510Y-67343821D01*
X82735510Y-67731685D01*
X82896546Y-67892721D01*
X83251514Y-67537753D01*
X83955792Y-67537753D01*
X84310760Y-67892721D01*
X84665728Y-67537753D01*
X85370005Y-67537753D01*
X85724973Y-67892721D01*
X86079941Y-67537753D01*
X86784219Y-67537753D01*
X87139187Y-67892721D01*
X87494155Y-67537753D01*
X88198432Y-67537753D01*
X88553400Y-67892721D01*
X88908369Y-67537753D01*
X89612646Y-67537753D01*
X89967614Y-67892721D01*
X90322582Y-67537753D01*
X91026860Y-67537753D01*
X91381828Y-67892721D01*
X91736796Y-67537753D01*
X92441073Y-67537753D01*
X92796041Y-67892721D01*
X93151009Y-67537753D01*
X93855287Y-67537753D01*
X94210255Y-67892721D01*
X94565223Y-67537753D01*
X94210255Y-67182785D01*
X93855287Y-67537753D01*
X93151009Y-67537753D01*
X92796041Y-67182785D01*
X92441073Y-67537753D01*
X91736796Y-67537753D01*
X91381828Y-67182785D01*
X91026860Y-67537753D01*
X90322582Y-67537753D01*
X89967614Y-67182785D01*
X89612646Y-67537753D01*
X88908369Y-67537753D01*
X88553400Y-67182784D01*
X88198432Y-67537753D01*
X87494155Y-67537753D01*
X87139187Y-67182785D01*
X86784219Y-67537753D01*
X86079941Y-67537753D01*
X85724973Y-67182785D01*
X85370005Y-67537753D01*
X84665728Y-67537753D01*
X84310760Y-67182785D01*
X83955792Y-67537753D01*
X83251514Y-67537753D01*
X82896546Y-67182785D01*
X82735510Y-67343821D01*
X82237510Y-67343821D01*
X82237510Y-66830645D01*
X83248684Y-66830645D01*
X83603653Y-67185614D01*
X83958621Y-66830646D01*
X83958620Y-66830645D01*
X84662898Y-66830645D01*
X85017867Y-67185614D01*
X85372835Y-66830646D01*
X86077112Y-66830646D01*
X86432080Y-67185614D01*
X86787048Y-66830646D01*
X87491326Y-66830646D01*
X87846294Y-67185614D01*
X88201262Y-66830646D01*
X88905539Y-66830646D01*
X89260507Y-67185614D01*
X89615475Y-66830646D01*
X90319753Y-66830646D01*
X90674721Y-67185614D01*
X91029689Y-66830646D01*
X91029688Y-66830645D01*
X91733965Y-66830645D01*
X92088934Y-67185614D01*
X92443901Y-66830646D01*
X93148180Y-66830646D01*
X93503148Y-67185614D01*
X93858116Y-66830646D01*
X94562393Y-66830646D01*
X94917361Y-67185614D01*
X95272330Y-66830646D01*
X94917361Y-66475677D01*
X94562393Y-66830646D01*
X93858116Y-66830646D01*
X93668841Y-66641371D01*
X93530586Y-66671207D01*
X93523719Y-66672487D01*
X93509806Y-66674678D01*
X93502886Y-66675569D01*
X93474949Y-66678370D01*
X93467972Y-66678872D01*
X93453890Y-66679485D01*
X93446904Y-66679592D01*
X93364925Y-66678539D01*
X93300287Y-66678539D01*
X93148180Y-66830646D01*
X92443901Y-66830646D01*
X92443902Y-66830645D01*
X92246459Y-66633202D01*
X92233844Y-66630323D01*
X92227114Y-66628588D01*
X92213633Y-66624705D01*
X92206996Y-66622589D01*
X92180609Y-66613355D01*
X92174119Y-66610878D01*
X92161158Y-66605510D01*
X92154805Y-66602667D01*
X92024631Y-66539979D01*
X91733965Y-66830645D01*
X91029688Y-66830645D01*
X90674721Y-66475678D01*
X90319753Y-66830646D01*
X89615475Y-66830646D01*
X89260507Y-66475678D01*
X88905539Y-66830646D01*
X88201262Y-66830646D01*
X87846294Y-66475678D01*
X87491326Y-66830646D01*
X86787048Y-66830646D01*
X86432080Y-66475678D01*
X86077112Y-66830646D01*
X85372835Y-66830646D01*
X85127972Y-66585783D01*
X85082662Y-66607052D01*
X85076227Y-66609854D01*
X85063099Y-66615132D01*
X85056524Y-66617562D01*
X85029810Y-66626585D01*
X85023095Y-66628643D01*
X85009453Y-66632405D01*
X85002645Y-66634077D01*
X84830586Y-66671207D01*
X84823719Y-66672487D01*
X84820559Y-66672984D01*
X84662898Y-66830645D01*
X83958620Y-66830645D01*
X83806514Y-66678539D01*
X83790788Y-66678539D01*
X83790780Y-66678538D01*
X83787223Y-66678538D01*
X83780274Y-66678343D01*
X83766270Y-66677557D01*
X83759335Y-66676972D01*
X83731556Y-66673842D01*
X83724672Y-66672870D01*
X83710839Y-66670520D01*
X83704015Y-66669163D01*
X83533843Y-66630323D01*
X83527114Y-66628588D01*
X83513633Y-66624705D01*
X83506996Y-66622589D01*
X83480609Y-66613355D01*
X83474119Y-66610878D01*
X83470111Y-66609218D01*
X83248684Y-66830645D01*
X82237510Y-66830645D01*
X82237510Y-65929606D01*
X82735510Y-65929606D01*
X82735510Y-66317471D01*
X82896545Y-66478506D01*
X83044861Y-66330190D01*
X83044794Y-66330119D01*
X83035448Y-66319660D01*
X83030965Y-66314352D01*
X83011706Y-66290203D01*
X85536669Y-66290203D01*
X85724973Y-66478507D01*
X86079941Y-66123539D01*
X86784219Y-66123539D01*
X87139187Y-66478507D01*
X87494155Y-66123539D01*
X88198432Y-66123539D01*
X88553400Y-66478507D01*
X88908369Y-66123539D01*
X89612646Y-66123539D01*
X89967614Y-66478507D01*
X90322582Y-66123539D01*
X91026860Y-66123539D01*
X91381827Y-66478506D01*
X91462831Y-66397502D01*
X94129250Y-66397502D01*
X94210255Y-66478507D01*
X94565223Y-66123539D01*
X94429055Y-65987371D01*
X94368561Y-66111676D01*
X94365312Y-66117897D01*
X94358410Y-66130250D01*
X94354817Y-66136274D01*
X94339694Y-66160072D01*
X94335767Y-66165883D01*
X94327515Y-66177377D01*
X94323263Y-66182958D01*
X94212645Y-66319959D01*
X94208091Y-66325284D01*
X94198592Y-66335776D01*
X94193728Y-66340852D01*
X94173649Y-66360649D01*
X94168519Y-66365429D01*
X94157900Y-66374776D01*
X94152507Y-66379259D01*
X94129250Y-66397502D01*
X91462831Y-66397502D01*
X91648893Y-66211440D01*
X91622135Y-66177888D01*
X91617954Y-66172333D01*
X91609834Y-66160890D01*
X91605965Y-66155100D01*
X91591092Y-66131429D01*
X91587562Y-66125446D01*
X91580777Y-66113171D01*
X91577583Y-66106988D01*
X91501847Y-65949730D01*
X91499006Y-65943382D01*
X91493637Y-65930421D01*
X91491156Y-65923922D01*
X91481923Y-65897537D01*
X91479812Y-65890914D01*
X91475928Y-65877435D01*
X91474190Y-65870699D01*
X91471300Y-65858043D01*
X91381828Y-65768571D01*
X91026860Y-66123539D01*
X90322582Y-66123539D01*
X89967614Y-65768571D01*
X89612646Y-66123539D01*
X88908369Y-66123539D01*
X88553400Y-65768570D01*
X88198432Y-66123539D01*
X87494155Y-66123539D01*
X87139187Y-65768571D01*
X86784219Y-66123539D01*
X86079941Y-66123539D01*
X85784317Y-65827915D01*
X85773758Y-65873720D01*
X85771988Y-65880513D01*
X85768033Y-65894103D01*
X85765884Y-65900777D01*
X85756487Y-65927363D01*
X85753962Y-65933911D01*
X85748501Y-65946960D01*
X85745612Y-65953350D01*
X85668561Y-66111676D01*
X85665312Y-66117897D01*
X85658410Y-66130250D01*
X85654817Y-66136274D01*
X85639694Y-66160072D01*
X85635767Y-66165883D01*
X85627515Y-66177377D01*
X85623263Y-66182958D01*
X85536669Y-66290203D01*
X83011706Y-66290203D01*
X82922134Y-66177888D01*
X82917954Y-66172333D01*
X82909834Y-66160890D01*
X82905965Y-66155100D01*
X82891092Y-66131429D01*
X82887562Y-66125446D01*
X82880777Y-66113171D01*
X82877583Y-66106988D01*
X82801847Y-65949730D01*
X82799006Y-65943382D01*
X82793637Y-65930421D01*
X82791156Y-65923922D01*
X82781923Y-65897537D01*
X82779812Y-65890914D01*
X82778557Y-65886559D01*
X82735510Y-65929606D01*
X82237510Y-65929606D01*
X82237510Y-63828742D01*
X83223958Y-63828742D01*
X83223965Y-63828801D01*
X83223965Y-65478661D01*
X83223959Y-65478681D01*
X83223963Y-65603319D01*
X83223964Y-65603325D01*
X83256587Y-65746232D01*
X83256588Y-65746235D01*
X83256589Y-65746238D01*
X83320196Y-65878311D01*
X83320197Y-65878312D01*
X83320198Y-65878314D01*
X83320199Y-65878315D01*
X83410707Y-65991804D01*
X83411597Y-65992919D01*
X83526209Y-66084316D01*
X83526210Y-66084316D01*
X83526211Y-66084317D01*
X83658284Y-66147919D01*
X83658282Y-66147919D01*
X83801193Y-66180537D01*
X83801198Y-66180537D01*
X83801200Y-66180538D01*
X83819894Y-66180538D01*
X83819898Y-66180539D01*
X83844561Y-66180539D01*
X83874496Y-66180539D01*
X83908847Y-66180539D01*
X84667313Y-66180539D01*
X84668903Y-66180548D01*
X84685113Y-66180757D01*
X84739254Y-66181452D01*
X84739254Y-66181451D01*
X84739257Y-66181452D01*
X84883814Y-66150257D01*
X85017684Y-66087418D01*
X85134038Y-65996140D01*
X85226941Y-65881079D01*
X85291654Y-65748105D01*
X85324876Y-65604000D01*
X85324913Y-65572571D01*
X85324965Y-65572064D01*
X85324965Y-65529986D01*
X85324965Y-65529976D01*
X85324973Y-65495707D01*
X85324972Y-65495705D01*
X85324975Y-65482089D01*
X85324965Y-65481988D01*
X85324965Y-65416432D01*
X86077111Y-65416432D01*
X86432080Y-65771400D01*
X86787048Y-65416432D01*
X87491325Y-65416432D01*
X87846294Y-65771400D01*
X88201262Y-65416432D01*
X88905538Y-65416432D01*
X89260507Y-65771400D01*
X89615475Y-65416432D01*
X90319752Y-65416432D01*
X90674721Y-65771400D01*
X91029689Y-65416432D01*
X90674721Y-65061464D01*
X90319752Y-65416432D01*
X89615475Y-65416432D01*
X89260507Y-65061464D01*
X88905538Y-65416432D01*
X88201262Y-65416432D01*
X87846294Y-65061464D01*
X87491325Y-65416432D01*
X86787048Y-65416432D01*
X86432080Y-65061464D01*
X86077111Y-65416432D01*
X85324965Y-65416432D01*
X85324965Y-64966302D01*
X85822965Y-64966302D01*
X86079941Y-64709326D01*
X86784219Y-64709326D01*
X87139187Y-65064294D01*
X87494155Y-64709326D01*
X88198432Y-64709326D01*
X88553400Y-65064294D01*
X88908369Y-64709326D01*
X89612646Y-64709326D01*
X89967614Y-65064294D01*
X90322582Y-64709326D01*
X91026860Y-64709326D01*
X91381828Y-65064294D01*
X91425965Y-65020157D01*
X91425965Y-64398495D01*
X91381828Y-64354358D01*
X91026860Y-64709326D01*
X90322582Y-64709326D01*
X89967614Y-64354358D01*
X89612646Y-64709326D01*
X88908369Y-64709326D01*
X88553400Y-64354357D01*
X88198432Y-64709326D01*
X87494155Y-64709326D01*
X87139187Y-64354358D01*
X86784219Y-64709326D01*
X86079941Y-64709326D01*
X85822965Y-64452350D01*
X85822965Y-64966302D01*
X85324965Y-64966302D01*
X85324965Y-64002219D01*
X86077112Y-64002219D01*
X86432080Y-64357187D01*
X86787048Y-64002219D01*
X87491326Y-64002219D01*
X87846294Y-64357187D01*
X88201262Y-64002219D01*
X88905539Y-64002219D01*
X89260507Y-64357187D01*
X89615475Y-64002219D01*
X90319753Y-64002219D01*
X90674721Y-64357187D01*
X91029689Y-64002219D01*
X90856212Y-63828742D01*
X91923958Y-63828742D01*
X91923965Y-63828801D01*
X91923965Y-65478661D01*
X91923959Y-65478681D01*
X91923963Y-65603319D01*
X91923964Y-65603325D01*
X91956587Y-65746232D01*
X91956588Y-65746235D01*
X91956589Y-65746238D01*
X92020196Y-65878311D01*
X92020197Y-65878312D01*
X92020198Y-65878314D01*
X92020199Y-65878315D01*
X92110707Y-65991804D01*
X92111597Y-65992919D01*
X92226209Y-66084316D01*
X92226210Y-66084316D01*
X92226211Y-66084317D01*
X92358284Y-66147919D01*
X92358282Y-66147919D01*
X92501193Y-66180537D01*
X92501198Y-66180537D01*
X92501200Y-66180538D01*
X92519894Y-66180538D01*
X92519898Y-66180539D01*
X92544561Y-66180539D01*
X92574496Y-66180539D01*
X92608847Y-66180539D01*
X93367313Y-66180539D01*
X93368903Y-66180548D01*
X93385113Y-66180757D01*
X93439254Y-66181452D01*
X93439254Y-66181451D01*
X93439257Y-66181452D01*
X93583814Y-66150257D01*
X93717684Y-66087418D01*
X93834038Y-65996140D01*
X93926941Y-65881079D01*
X93991654Y-65748105D01*
X94024876Y-65604000D01*
X94024913Y-65572571D01*
X94024965Y-65572064D01*
X94024965Y-65529986D01*
X94024965Y-65529976D01*
X94024973Y-65495707D01*
X94024972Y-65495705D01*
X94024975Y-65482089D01*
X94024965Y-65481988D01*
X94024965Y-65416432D01*
X94562393Y-65416432D01*
X94917361Y-65771400D01*
X95272330Y-65416432D01*
X94917361Y-65061463D01*
X94562393Y-65416432D01*
X94024965Y-65416432D01*
X94024965Y-64002218D01*
X94562393Y-64002218D01*
X94917362Y-64357187D01*
X95272330Y-64002219D01*
X94917361Y-63647250D01*
X94562393Y-64002218D01*
X94024965Y-64002218D01*
X94024965Y-63781988D01*
X94024968Y-63781153D01*
X94025177Y-63750074D01*
X94025440Y-63711092D01*
X94025294Y-63710433D01*
X93993567Y-63567332D01*
X93993566Y-63567330D01*
X93951083Y-63477933D01*
X93930363Y-63434331D01*
X93839030Y-63318824D01*
X93724188Y-63226656D01*
X93715440Y-63222421D01*
X93591656Y-63162493D01*
X93591648Y-63162490D01*
X93448123Y-63129576D01*
X93416752Y-63129560D01*
X93416539Y-63129539D01*
X93404433Y-63129539D01*
X92623250Y-63129539D01*
X92623223Y-63129536D01*
X92574472Y-63129538D01*
X92574454Y-63129539D01*
X92532772Y-63129539D01*
X92532484Y-63129566D01*
X92501168Y-63129568D01*
X92415299Y-63149171D01*
X92358269Y-63162190D01*
X92358267Y-63162190D01*
X92358266Y-63162191D01*
X92226214Y-63225785D01*
X92226212Y-63225786D01*
X92226211Y-63225787D01*
X92111612Y-63317171D01*
X92111611Y-63317172D01*
X92111610Y-63317173D01*
X92020219Y-63431759D01*
X91956608Y-63563816D01*
X91923975Y-63706710D01*
X91923970Y-63739235D01*
X91923965Y-63739301D01*
X91923965Y-63779997D01*
X91923958Y-63828742D01*
X90856212Y-63828742D01*
X90674721Y-63647251D01*
X90319753Y-64002219D01*
X89615475Y-64002219D01*
X89260507Y-63647251D01*
X88905539Y-64002219D01*
X88201262Y-64002219D01*
X87846294Y-63647251D01*
X87491326Y-64002219D01*
X86787048Y-64002219D01*
X86432080Y-63647251D01*
X86077112Y-64002219D01*
X85324965Y-64002219D01*
X85324965Y-63781988D01*
X85324968Y-63781153D01*
X85325177Y-63750074D01*
X85325440Y-63711092D01*
X85325294Y-63710433D01*
X85293567Y-63567332D01*
X85293566Y-63567330D01*
X85251083Y-63477933D01*
X85230363Y-63434331D01*
X85139030Y-63318824D01*
X85024188Y-63226656D01*
X85015440Y-63222421D01*
X84891656Y-63162493D01*
X84891648Y-63162490D01*
X84748123Y-63129576D01*
X84716752Y-63129560D01*
X84716539Y-63129539D01*
X84704433Y-63129539D01*
X83923250Y-63129539D01*
X83923223Y-63129536D01*
X83874472Y-63129538D01*
X83874454Y-63129539D01*
X83832772Y-63129539D01*
X83832484Y-63129566D01*
X83801168Y-63129568D01*
X83715299Y-63149171D01*
X83658269Y-63162190D01*
X83658267Y-63162190D01*
X83658266Y-63162191D01*
X83526214Y-63225785D01*
X83526212Y-63225786D01*
X83526211Y-63225787D01*
X83411612Y-63317171D01*
X83411611Y-63317172D01*
X83411610Y-63317173D01*
X83320219Y-63431759D01*
X83256608Y-63563816D01*
X83223975Y-63706710D01*
X83223970Y-63739235D01*
X83223965Y-63739301D01*
X83223965Y-63779997D01*
X83223958Y-63828742D01*
X82237510Y-63828742D01*
X82237510Y-63454677D01*
X82735510Y-63454677D01*
X82735510Y-63489044D01*
X82757777Y-63511311D01*
X82774219Y-63439315D01*
X82775957Y-63432580D01*
X82779842Y-63419101D01*
X82781956Y-63412473D01*
X82791192Y-63386089D01*
X82793672Y-63379594D01*
X82799041Y-63366636D01*
X82801882Y-63360288D01*
X82877621Y-63203054D01*
X82880812Y-63196879D01*
X82887596Y-63184606D01*
X82891131Y-63178615D01*
X82906003Y-63154950D01*
X82909864Y-63149171D01*
X82917983Y-63137729D01*
X82922168Y-63132169D01*
X82932980Y-63118611D01*
X82893059Y-63139950D01*
X82840161Y-63183362D01*
X82796743Y-63236267D01*
X82764489Y-63296614D01*
X82744626Y-63362097D01*
X82735510Y-63454677D01*
X82237510Y-63454677D01*
X82237510Y-63436307D01*
X82238107Y-63424155D01*
X82241249Y-63392250D01*
X82252633Y-63276637D01*
X82257375Y-63252799D01*
X82265305Y-63226656D01*
X82298624Y-63116810D01*
X82307925Y-63094356D01*
X82315582Y-63080030D01*
X85585085Y-63080030D01*
X85629710Y-63136466D01*
X85633893Y-63142074D01*
X85642001Y-63153610D01*
X85645855Y-63159435D01*
X85660685Y-63183285D01*
X85664205Y-63189320D01*
X85670957Y-63201681D01*
X85674131Y-63207901D01*
X85749388Y-63366263D01*
X85752208Y-63372656D01*
X85757531Y-63385707D01*
X85759987Y-63392250D01*
X85769112Y-63418812D01*
X85771195Y-63425481D01*
X85775016Y-63439047D01*
X85776720Y-63445825D01*
X85804396Y-63570656D01*
X86079941Y-63295112D01*
X86784219Y-63295112D01*
X87139187Y-63650080D01*
X87494155Y-63295112D01*
X88198432Y-63295112D01*
X88553400Y-63650080D01*
X88908369Y-63295112D01*
X89612646Y-63295112D01*
X89967614Y-63650080D01*
X90322582Y-63295112D01*
X91026860Y-63295112D01*
X91381827Y-63650079D01*
X91439185Y-63592721D01*
X91474219Y-63439315D01*
X91475957Y-63432580D01*
X91479842Y-63419101D01*
X91481956Y-63412473D01*
X91491192Y-63386089D01*
X91493672Y-63379594D01*
X91499041Y-63366636D01*
X91501882Y-63360288D01*
X91577621Y-63203054D01*
X91580812Y-63196879D01*
X91587596Y-63184606D01*
X91591131Y-63178615D01*
X91602387Y-63160703D01*
X91404625Y-62962941D01*
X94187457Y-62962941D01*
X94202339Y-62977931D01*
X94207121Y-62983028D01*
X94216470Y-62993572D01*
X94220955Y-62998927D01*
X94329710Y-63136466D01*
X94333893Y-63142074D01*
X94342001Y-63153610D01*
X94345855Y-63159435D01*
X94360685Y-63183285D01*
X94364205Y-63189320D01*
X94370957Y-63201681D01*
X94374131Y-63207901D01*
X94449388Y-63366263D01*
X94452208Y-63372656D01*
X94457531Y-63385707D01*
X94459987Y-63392250D01*
X94462057Y-63398276D01*
X94565222Y-63295111D01*
X94210254Y-62940143D01*
X94187457Y-62962941D01*
X91404625Y-62962941D01*
X91381828Y-62940144D01*
X91026860Y-63295112D01*
X90322582Y-63295112D01*
X89967614Y-62940144D01*
X89612646Y-63295112D01*
X88908369Y-63295112D01*
X88553400Y-62940143D01*
X88198432Y-63295112D01*
X87494155Y-63295112D01*
X87139187Y-62940144D01*
X86784219Y-63295112D01*
X86079941Y-63295112D01*
X85777645Y-62992816D01*
X85710067Y-63017411D01*
X85704947Y-63019149D01*
X85694544Y-63022429D01*
X85689350Y-63023943D01*
X85668353Y-63029569D01*
X85663093Y-63030856D01*
X85652441Y-63033217D01*
X85647136Y-63034272D01*
X85627357Y-63037758D01*
X85585085Y-63080030D01*
X82315582Y-63080030D01*
X82346369Y-63022429D01*
X82374914Y-62969023D01*
X82388414Y-62948818D01*
X82478573Y-62838958D01*
X82495752Y-62821779D01*
X82581169Y-62751678D01*
X86240785Y-62751678D01*
X86432080Y-62942973D01*
X86787048Y-62588005D01*
X87491326Y-62588005D01*
X87846294Y-62942973D01*
X88201262Y-62588005D01*
X88905539Y-62588005D01*
X89260507Y-62942973D01*
X89615475Y-62588005D01*
X90319753Y-62588005D01*
X90674721Y-62942973D01*
X91029689Y-62588005D01*
X91733966Y-62588005D01*
X91954393Y-62808432D01*
X91973095Y-62796682D01*
X91979076Y-62793154D01*
X91991354Y-62786367D01*
X91997541Y-62783170D01*
X92154787Y-62707443D01*
X92161140Y-62704601D01*
X92174103Y-62699232D01*
X92180598Y-62696752D01*
X92206982Y-62687520D01*
X92213613Y-62685407D01*
X92227086Y-62681526D01*
X92233811Y-62679791D01*
X92387114Y-62644793D01*
X92443901Y-62588005D01*
X93148180Y-62588005D01*
X93191714Y-62631539D01*
X93428945Y-62631539D01*
X93429508Y-62631566D01*
X93462390Y-62631584D01*
X93469346Y-62631783D01*
X93483377Y-62632579D01*
X93490329Y-62633170D01*
X93518171Y-62636328D01*
X93525069Y-62637307D01*
X93538936Y-62639675D01*
X93545781Y-62641044D01*
X93716655Y-62680231D01*
X93723415Y-62681983D01*
X93736954Y-62685902D01*
X93743615Y-62688035D01*
X93754320Y-62691799D01*
X93858114Y-62588005D01*
X94562393Y-62588005D01*
X94917361Y-62942973D01*
X95272330Y-62588005D01*
X94917361Y-62233036D01*
X94562393Y-62588005D01*
X93858114Y-62588005D01*
X93858115Y-62588004D01*
X93503148Y-62233037D01*
X93148180Y-62588005D01*
X92443901Y-62588005D01*
X92443902Y-62588004D01*
X92088934Y-62233036D01*
X91733966Y-62588005D01*
X91029689Y-62588005D01*
X90674721Y-62233037D01*
X90319753Y-62588005D01*
X89615475Y-62588005D01*
X89260507Y-62233037D01*
X88905539Y-62588005D01*
X88201262Y-62588005D01*
X87846294Y-62233037D01*
X87491326Y-62588005D01*
X86787048Y-62588005D01*
X86593418Y-62394375D01*
X86588944Y-62400206D01*
X86585562Y-62404419D01*
X86442190Y-62575274D01*
X86438624Y-62579341D01*
X86431261Y-62587376D01*
X86427527Y-62591277D01*
X86412157Y-62606649D01*
X86408241Y-62610397D01*
X86400189Y-62617775D01*
X86396121Y-62621343D01*
X86240785Y-62751678D01*
X82581169Y-62751678D01*
X82605608Y-62731621D01*
X82625812Y-62718121D01*
X82751152Y-62651126D01*
X82773593Y-62641830D01*
X82909600Y-62600574D01*
X82933425Y-62595835D01*
X83080946Y-62581306D01*
X83093099Y-62580710D01*
X85293329Y-62580710D01*
X85293713Y-62580670D01*
X85351719Y-62580673D01*
X85549969Y-62545722D01*
X85739138Y-62476877D01*
X85913478Y-62376228D01*
X86067692Y-62246834D01*
X86197094Y-62092627D01*
X86295168Y-61922767D01*
X86826087Y-61922767D01*
X87139187Y-62235867D01*
X87494155Y-61880898D01*
X88198432Y-61880898D01*
X88553400Y-62235867D01*
X88908369Y-61880898D01*
X89612645Y-61880898D01*
X89967614Y-62235867D01*
X90322582Y-61880898D01*
X91026859Y-61880898D01*
X91381828Y-62235867D01*
X91736796Y-61880898D01*
X92441072Y-61880898D01*
X92796041Y-62235867D01*
X93151009Y-61880898D01*
X93855286Y-61880898D01*
X94210255Y-62235867D01*
X94565223Y-61880898D01*
X94210255Y-61525930D01*
X93855286Y-61880898D01*
X93151009Y-61880898D01*
X92796041Y-61525930D01*
X92441072Y-61880898D01*
X91736796Y-61880898D01*
X91381828Y-61525930D01*
X91026859Y-61880898D01*
X90322582Y-61880898D01*
X89967614Y-61525930D01*
X89612645Y-61880898D01*
X88908369Y-61880898D01*
X88553400Y-61525930D01*
X88198432Y-61880898D01*
X87494155Y-61880898D01*
X87139186Y-61525930D01*
X86858652Y-61806464D01*
X86855152Y-61826315D01*
X86854098Y-61831614D01*
X86851738Y-61842261D01*
X86850451Y-61847521D01*
X86844825Y-61868517D01*
X86843312Y-61873708D01*
X86840030Y-61884118D01*
X86838289Y-61889247D01*
X86826087Y-61922767D01*
X86295168Y-61922767D01*
X86297752Y-61918292D01*
X86366607Y-61729126D01*
X86401568Y-61530878D01*
X86401568Y-61484822D01*
X86401570Y-61484818D01*
X86401570Y-61173792D01*
X87491326Y-61173792D01*
X87846294Y-61528760D01*
X88201262Y-61173792D01*
X88905539Y-61173792D01*
X89260507Y-61528760D01*
X89615475Y-61173792D01*
X90319753Y-61173792D01*
X90674721Y-61528760D01*
X91029689Y-61173792D01*
X91733966Y-61173792D01*
X92088934Y-61528760D01*
X92443902Y-61173792D01*
X93148180Y-61173792D01*
X93503148Y-61528760D01*
X93858116Y-61173792D01*
X94562393Y-61173792D01*
X94917361Y-61528760D01*
X95272330Y-61173792D01*
X94917361Y-60818823D01*
X94562393Y-61173792D01*
X93858116Y-61173792D01*
X93503148Y-60818824D01*
X93148180Y-61173792D01*
X92443902Y-61173792D01*
X92088934Y-60818823D01*
X91733966Y-61173792D01*
X91029689Y-61173792D01*
X90674721Y-60818824D01*
X90319753Y-61173792D01*
X89615475Y-61173792D01*
X89260507Y-60818824D01*
X88905539Y-61173792D01*
X88201262Y-61173792D01*
X87846294Y-60818824D01*
X87491326Y-61173792D01*
X86401570Y-61173792D01*
X86401570Y-60351334D01*
X86899570Y-60351334D01*
X86899570Y-60582036D01*
X87139187Y-60821653D01*
X87494155Y-60466685D01*
X88198432Y-60466685D01*
X88553400Y-60821653D01*
X88908369Y-60466685D01*
X89612646Y-60466685D01*
X89967614Y-60821653D01*
X90322582Y-60466685D01*
X91026860Y-60466685D01*
X91381828Y-60821653D01*
X91736796Y-60466685D01*
X92441073Y-60466685D01*
X92796041Y-60821653D01*
X93151009Y-60466685D01*
X93855287Y-60466685D01*
X94210255Y-60821653D01*
X94565223Y-60466685D01*
X94210255Y-60111717D01*
X93855287Y-60466685D01*
X93151009Y-60466685D01*
X92796041Y-60111717D01*
X92441073Y-60466685D01*
X91736796Y-60466685D01*
X91381828Y-60111717D01*
X91026860Y-60466685D01*
X90322582Y-60466685D01*
X89967614Y-60111717D01*
X89612646Y-60466685D01*
X88908369Y-60466685D01*
X88553400Y-60111716D01*
X88198432Y-60466685D01*
X87494155Y-60466685D01*
X87139187Y-60111717D01*
X86899570Y-60351334D01*
X86401570Y-60351334D01*
X86401570Y-59759578D01*
X87491326Y-59759578D01*
X87846294Y-60114546D01*
X88201262Y-59759578D01*
X88905539Y-59759578D01*
X89260507Y-60114546D01*
X89615475Y-59759578D01*
X90319753Y-59759578D01*
X90674721Y-60114546D01*
X91029689Y-59759578D01*
X91733966Y-59759578D01*
X92088934Y-60114546D01*
X92443902Y-59759578D01*
X93148180Y-59759578D01*
X93503148Y-60114546D01*
X93858116Y-59759578D01*
X94562393Y-59759578D01*
X94917361Y-60114546D01*
X95272330Y-59759578D01*
X94917361Y-59404609D01*
X94562393Y-59759578D01*
X93858116Y-59759578D01*
X93503148Y-59404610D01*
X93148180Y-59759578D01*
X92443902Y-59759578D01*
X92088934Y-59404609D01*
X91733966Y-59759578D01*
X91029689Y-59759578D01*
X90674721Y-59404610D01*
X90319753Y-59759578D01*
X89615475Y-59759578D01*
X89260507Y-59404610D01*
X88905539Y-59759578D01*
X88201262Y-59759578D01*
X87846294Y-59404610D01*
X87491326Y-59759578D01*
X86401570Y-59759578D01*
X86401570Y-58937120D01*
X86899570Y-58937120D01*
X86899570Y-59167822D01*
X87139187Y-59407439D01*
X87494155Y-59052471D01*
X88198432Y-59052471D01*
X88553400Y-59407439D01*
X88908369Y-59052471D01*
X89612645Y-59052471D01*
X89967614Y-59407439D01*
X90322582Y-59052471D01*
X91026859Y-59052471D01*
X91381828Y-59407439D01*
X91736796Y-59052471D01*
X92441072Y-59052471D01*
X92796041Y-59407439D01*
X93151009Y-59052471D01*
X93855286Y-59052471D01*
X94210255Y-59407439D01*
X94565223Y-59052471D01*
X94210255Y-58697503D01*
X93855286Y-59052471D01*
X93151009Y-59052471D01*
X92796041Y-58697503D01*
X92441072Y-59052471D01*
X91736796Y-59052471D01*
X91381828Y-58697503D01*
X91026859Y-59052471D01*
X90322582Y-59052471D01*
X89967614Y-58697503D01*
X89612645Y-59052471D01*
X88908369Y-59052471D01*
X88553400Y-58697502D01*
X88198432Y-59052471D01*
X87494155Y-59052471D01*
X87139187Y-58697503D01*
X86899570Y-58937120D01*
X86401570Y-58937120D01*
X86401570Y-58345365D01*
X87491326Y-58345365D01*
X87846294Y-58700333D01*
X88201262Y-58345365D01*
X88905539Y-58345365D01*
X89260507Y-58700333D01*
X89615475Y-58345365D01*
X90319753Y-58345365D01*
X90674721Y-58700333D01*
X91029689Y-58345365D01*
X91733966Y-58345365D01*
X92088934Y-58700333D01*
X92443902Y-58345365D01*
X93148180Y-58345365D01*
X93503148Y-58700333D01*
X93858116Y-58345365D01*
X94562393Y-58345365D01*
X94917361Y-58700333D01*
X95272330Y-58345365D01*
X94917361Y-57990396D01*
X94562393Y-58345365D01*
X93858116Y-58345365D01*
X93503148Y-57990397D01*
X93148180Y-58345365D01*
X92443902Y-58345365D01*
X92088934Y-57990396D01*
X91733966Y-58345365D01*
X91029689Y-58345365D01*
X90674721Y-57990397D01*
X90319753Y-58345365D01*
X89615475Y-58345365D01*
X89260507Y-57990397D01*
X88905539Y-58345365D01*
X88201262Y-58345365D01*
X87846294Y-57990397D01*
X87491326Y-58345365D01*
X86401570Y-58345365D01*
X86401570Y-57522907D01*
X86899570Y-57522907D01*
X86899570Y-57753609D01*
X87139187Y-57993226D01*
X87494155Y-57638258D01*
X88198432Y-57638258D01*
X88553400Y-57993226D01*
X88908369Y-57638258D01*
X89612646Y-57638258D01*
X89967614Y-57993226D01*
X90322582Y-57638258D01*
X91026860Y-57638258D01*
X91381828Y-57993226D01*
X91736796Y-57638258D01*
X92441073Y-57638258D01*
X92796041Y-57993226D01*
X93151009Y-57638258D01*
X93855287Y-57638258D01*
X94210255Y-57993226D01*
X94565223Y-57638258D01*
X94210255Y-57283290D01*
X93855287Y-57638258D01*
X93151009Y-57638258D01*
X92796041Y-57283290D01*
X92441073Y-57638258D01*
X91736796Y-57638258D01*
X91381828Y-57283290D01*
X91026860Y-57638258D01*
X90322582Y-57638258D01*
X89967614Y-57283290D01*
X89612646Y-57638258D01*
X88908369Y-57638258D01*
X88553400Y-57283289D01*
X88198432Y-57638258D01*
X87494155Y-57638258D01*
X87139187Y-57283290D01*
X86899570Y-57522907D01*
X86401570Y-57522907D01*
X86401570Y-56931151D01*
X87491326Y-56931151D01*
X87846294Y-57286119D01*
X88201262Y-56931151D01*
X88905539Y-56931151D01*
X89260507Y-57286119D01*
X89615475Y-56931151D01*
X90319753Y-56931151D01*
X90674721Y-57286119D01*
X91029689Y-56931151D01*
X91733966Y-56931151D01*
X92088934Y-57286119D01*
X92443902Y-56931151D01*
X93148180Y-56931151D01*
X93503148Y-57286119D01*
X93858116Y-56931151D01*
X94562393Y-56931151D01*
X94917361Y-57286118D01*
X95272329Y-56931150D01*
X94917361Y-56576182D01*
X94562393Y-56931151D01*
X93858116Y-56931151D01*
X93503148Y-56576183D01*
X93148180Y-56931151D01*
X92443902Y-56931151D01*
X92088934Y-56576182D01*
X91733966Y-56931151D01*
X91029689Y-56931151D01*
X90674721Y-56576183D01*
X90319753Y-56931151D01*
X89615475Y-56931151D01*
X89260507Y-56576183D01*
X88905539Y-56931151D01*
X88201262Y-56931151D01*
X87846294Y-56576183D01*
X87491326Y-56931151D01*
X86401570Y-56931151D01*
X86401570Y-56613122D01*
X86402171Y-56600933D01*
X86404527Y-56577085D01*
X86416788Y-56452957D01*
X86421556Y-56429057D01*
X86428510Y-56406208D01*
X86966383Y-56406208D01*
X87139187Y-56579012D01*
X87462693Y-56255506D01*
X88229894Y-56255506D01*
X88553400Y-56579012D01*
X88876907Y-56255506D01*
X89644108Y-56255506D01*
X89967614Y-56579012D01*
X90291120Y-56255506D01*
X91058322Y-56255506D01*
X91381828Y-56579012D01*
X91705079Y-56255760D01*
X91704298Y-56255764D01*
X91699333Y-56255506D01*
X91058322Y-56255506D01*
X90291120Y-56255506D01*
X89644108Y-56255506D01*
X88876907Y-56255506D01*
X88229894Y-56255506D01*
X87462693Y-56255506D01*
X87320996Y-56255506D01*
X87315187Y-56255804D01*
X87277102Y-56255616D01*
X87184466Y-56264311D01*
X87118678Y-56283983D01*
X87058033Y-56316136D01*
X87004848Y-56359540D01*
X86966383Y-56406208D01*
X86428510Y-56406208D01*
X86463064Y-56292665D01*
X86472420Y-56270158D01*
X86497159Y-56224043D01*
X92441072Y-56224043D01*
X92796041Y-56579012D01*
X93151009Y-56224044D01*
X93855287Y-56224044D01*
X94210255Y-56579012D01*
X94565223Y-56224044D01*
X94210255Y-55869076D01*
X93855287Y-56224044D01*
X93151009Y-56224044D01*
X92807117Y-55880152D01*
X92737272Y-55939040D01*
X92733073Y-55942427D01*
X92724456Y-55949073D01*
X92720107Y-55952278D01*
X92702381Y-55964757D01*
X92697909Y-55967762D01*
X92696363Y-55968752D01*
X92441072Y-56224043D01*
X86497159Y-56224043D01*
X86539814Y-56144532D01*
X86553389Y-56124293D01*
X86644077Y-56014268D01*
X86661341Y-55997089D01*
X86771802Y-55906942D01*
X86792100Y-55893469D01*
X86918060Y-55826685D01*
X86940607Y-55817443D01*
X87077207Y-55776598D01*
X87101125Y-55771947D01*
X87248936Y-55758073D01*
X87261105Y-55757532D01*
X87289609Y-55757672D01*
X87289610Y-55757671D01*
X87301968Y-55757732D01*
X87304020Y-55757506D01*
X91715866Y-55757506D01*
X91717647Y-55757703D01*
X91730226Y-55757649D01*
X91730227Y-55757650D01*
X91764103Y-55757506D01*
X91764626Y-55757506D01*
X91804692Y-55757506D01*
X91806597Y-55757313D01*
X91864959Y-55757080D01*
X92062542Y-55721473D01*
X92250972Y-55652187D01*
X92424557Y-55551314D01*
X92465331Y-55516937D01*
X93148179Y-55516937D01*
X93503148Y-55871906D01*
X93858116Y-55516937D01*
X94562393Y-55516937D01*
X94917361Y-55871905D01*
X95272329Y-55516937D01*
X94917361Y-55161969D01*
X94562393Y-55516937D01*
X93858116Y-55516937D01*
X93503147Y-55161969D01*
X93148179Y-55516937D01*
X92465331Y-55516937D01*
X92578049Y-55421904D01*
X92706810Y-55267868D01*
X92806950Y-55093859D01*
X92875441Y-54905138D01*
X92892202Y-54809831D01*
X93855287Y-54809831D01*
X94210255Y-55164799D01*
X94565223Y-54809831D01*
X95269500Y-54809831D01*
X95454414Y-54994745D01*
X95537328Y-54883989D01*
X95542879Y-54877100D01*
X95554572Y-54863605D01*
X95560606Y-54857125D01*
X95585774Y-54831957D01*
X95592254Y-54825923D01*
X95605749Y-54814230D01*
X95612638Y-54808679D01*
X95756347Y-54701097D01*
X95763623Y-54696045D01*
X95778646Y-54686391D01*
X95786254Y-54681878D01*
X95817496Y-54664818D01*
X95825412Y-54660855D01*
X95828877Y-54659272D01*
X95817424Y-54647819D01*
X98259938Y-54647819D01*
X98265914Y-54650048D01*
X98274093Y-54653436D01*
X98290338Y-54660855D01*
X98298254Y-54664818D01*
X98329496Y-54681878D01*
X98337104Y-54686391D01*
X98352127Y-54696045D01*
X98359403Y-54701097D01*
X98503112Y-54808679D01*
X98510001Y-54814230D01*
X98523496Y-54825923D01*
X98529976Y-54831957D01*
X98555144Y-54857125D01*
X98561178Y-54863605D01*
X98572871Y-54877100D01*
X98578422Y-54883989D01*
X98644901Y-54972792D01*
X98807862Y-54809831D01*
X99512141Y-54809831D01*
X99808036Y-55105726D01*
X99926182Y-55105726D01*
X100222077Y-54809831D01*
X100222076Y-54809830D01*
X100926354Y-54809830D01*
X101222250Y-55105726D01*
X101340396Y-55105726D01*
X101636291Y-54809831D01*
X102340568Y-54809831D01*
X102636463Y-55105726D01*
X102754609Y-55105726D01*
X103050504Y-54809831D01*
X102823799Y-54583126D01*
X103981486Y-54583126D01*
X103988239Y-54581078D01*
X103995715Y-54579063D01*
X104026019Y-54571902D01*
X104033610Y-54570356D01*
X104049012Y-54567719D01*
X104056685Y-54566651D01*
X104138409Y-54557866D01*
X104141724Y-54557555D01*
X104148403Y-54557018D01*
X104151710Y-54556796D01*
X104165024Y-54556083D01*
X104168335Y-54555950D01*
X104175019Y-54555771D01*
X104178339Y-54555727D01*
X104210613Y-54555726D01*
X104109750Y-54454863D01*
X103981486Y-54583126D01*
X102823799Y-54583126D01*
X102695536Y-54454863D01*
X102340568Y-54809831D01*
X101636291Y-54809831D01*
X101281322Y-54454862D01*
X100926354Y-54809830D01*
X100222076Y-54809830D01*
X99867109Y-54454863D01*
X99512141Y-54809831D01*
X98807862Y-54809831D01*
X98807863Y-54809830D01*
X98452894Y-54454862D01*
X98259938Y-54647819D01*
X95817424Y-54647819D01*
X95624468Y-54454863D01*
X95269500Y-54809831D01*
X94565223Y-54809831D01*
X94210255Y-54454863D01*
X93855287Y-54809831D01*
X92892202Y-54809831D01*
X92910214Y-54707407D01*
X92910192Y-54607024D01*
X92910192Y-54572674D01*
X92910192Y-53842712D01*
X93408192Y-53842712D01*
X93408192Y-54362736D01*
X93503148Y-54457692D01*
X93858116Y-54102724D01*
X94562393Y-54102724D01*
X94917361Y-54457692D01*
X95272330Y-54102724D01*
X95976607Y-54102724D01*
X96331575Y-54457692D01*
X96686543Y-54102724D01*
X97390821Y-54102724D01*
X97745789Y-54457692D01*
X98100757Y-54102724D01*
X98805034Y-54102724D01*
X99160002Y-54457692D01*
X99514970Y-54102724D01*
X100219248Y-54102724D01*
X100574216Y-54457692D01*
X100929184Y-54102724D01*
X101633461Y-54102724D01*
X101988429Y-54457692D01*
X102343397Y-54102724D01*
X103047675Y-54102724D01*
X103402643Y-54457692D01*
X103757611Y-54102724D01*
X104461888Y-54102724D01*
X104816856Y-54457692D01*
X105171824Y-54102724D01*
X104816856Y-53747755D01*
X104461888Y-54102724D01*
X103757611Y-54102724D01*
X103402643Y-53747756D01*
X103047675Y-54102724D01*
X102343397Y-54102724D01*
X101988429Y-53747756D01*
X101633461Y-54102724D01*
X100929184Y-54102724D01*
X100574216Y-53747756D01*
X100219248Y-54102724D01*
X99514970Y-54102724D01*
X99160002Y-53747756D01*
X98805034Y-54102724D01*
X98100757Y-54102724D01*
X97745789Y-53747756D01*
X97390821Y-54102724D01*
X96686543Y-54102724D01*
X96331575Y-53747756D01*
X95976607Y-54102724D01*
X95272330Y-54102724D01*
X94917361Y-53747755D01*
X94562393Y-54102724D01*
X93858116Y-54102724D01*
X93503148Y-53747756D01*
X93408192Y-53842712D01*
X92910192Y-53842712D01*
X92910192Y-53395617D01*
X93855287Y-53395617D01*
X94210255Y-53750585D01*
X94565223Y-53395617D01*
X94565222Y-53395616D01*
X95269499Y-53395616D01*
X95624468Y-53750585D01*
X95979436Y-53395617D01*
X96683714Y-53395617D01*
X97038682Y-53750585D01*
X97393650Y-53395617D01*
X97393649Y-53395616D01*
X98097926Y-53395616D01*
X98452895Y-53750585D01*
X98807863Y-53395617D01*
X99512141Y-53395617D01*
X99867109Y-53750585D01*
X100222077Y-53395617D01*
X100926354Y-53395617D01*
X101281322Y-53750585D01*
X101636291Y-53395617D01*
X102340568Y-53395617D01*
X102695536Y-53750585D01*
X103050504Y-53395617D01*
X103050503Y-53395616D01*
X103754781Y-53395616D01*
X104109750Y-53750585D01*
X104464718Y-53395617D01*
X105168995Y-53395617D01*
X105523963Y-53750585D01*
X105606900Y-53667648D01*
X105606900Y-53352725D01*
X105211887Y-53352725D01*
X105168995Y-53395617D01*
X104464718Y-53395617D01*
X104421826Y-53352725D01*
X104178330Y-53352726D01*
X104175000Y-53352681D01*
X104168299Y-53352501D01*
X104164990Y-53352368D01*
X104151673Y-53351654D01*
X104148354Y-53351431D01*
X104141689Y-53350894D01*
X104138392Y-53350585D01*
X104056680Y-53341800D01*
X104049009Y-53340732D01*
X104033613Y-53338096D01*
X104026024Y-53336551D01*
X103995723Y-53329391D01*
X103988247Y-53327376D01*
X103973292Y-53322840D01*
X103965950Y-53320360D01*
X103866959Y-53283439D01*
X103754781Y-53395616D01*
X103050503Y-53395616D01*
X102695536Y-53040649D01*
X102340568Y-53395617D01*
X101636291Y-53395617D01*
X101281322Y-53040648D01*
X100926354Y-53395617D01*
X100222077Y-53395617D01*
X99867109Y-53040649D01*
X99512141Y-53395617D01*
X98807863Y-53395617D01*
X98508044Y-53095798D01*
X98503112Y-53099773D01*
X98359403Y-53207355D01*
X98352127Y-53212407D01*
X98337104Y-53222061D01*
X98329496Y-53226574D01*
X98298254Y-53243634D01*
X98290338Y-53247597D01*
X98274093Y-53255016D01*
X98265913Y-53258404D01*
X98216834Y-53276708D01*
X98097926Y-53395616D01*
X97393649Y-53395616D01*
X97350758Y-53352725D01*
X96726606Y-53352725D01*
X96683714Y-53395617D01*
X95979436Y-53395617D01*
X95836462Y-53252643D01*
X95825412Y-53247597D01*
X95817496Y-53243634D01*
X95786254Y-53226574D01*
X95778646Y-53222061D01*
X95763623Y-53212407D01*
X95756347Y-53207355D01*
X95612638Y-53099773D01*
X95605749Y-53094222D01*
X95592254Y-53082529D01*
X95587248Y-53077867D01*
X95269499Y-53395616D01*
X94565222Y-53395616D01*
X94210255Y-53040649D01*
X93855287Y-53395617D01*
X92910192Y-53395617D01*
X92910192Y-52428498D01*
X93408192Y-52428498D01*
X93408192Y-52948522D01*
X93503148Y-53043478D01*
X93858116Y-52688510D01*
X94562393Y-52688510D01*
X94917361Y-53043478D01*
X95272330Y-52688510D01*
X94917361Y-52333541D01*
X94562393Y-52688510D01*
X93858116Y-52688510D01*
X93503148Y-52333542D01*
X93408192Y-52428498D01*
X92910192Y-52428498D01*
X92910192Y-51981404D01*
X93855287Y-51981404D01*
X94210255Y-52336372D01*
X94565223Y-51981404D01*
X94210255Y-51626436D01*
X93855287Y-51981404D01*
X92910192Y-51981404D01*
X92910192Y-51014285D01*
X93408192Y-51014285D01*
X93408192Y-51534309D01*
X93503148Y-51629265D01*
X93858116Y-51274297D01*
X94562393Y-51274297D01*
X94917361Y-51629264D01*
X95272329Y-51274296D01*
X94917361Y-50919328D01*
X94562393Y-51274297D01*
X93858116Y-51274297D01*
X93503148Y-50919329D01*
X93408192Y-51014285D01*
X92910192Y-51014285D01*
X92910192Y-50917982D01*
X92910459Y-50909854D01*
X92912162Y-50883935D01*
X92925554Y-50680050D01*
X92927677Y-50663963D01*
X92946973Y-50567190D01*
X93855287Y-50567190D01*
X94210255Y-50922158D01*
X94565223Y-50567190D01*
X95269500Y-50567190D01*
X95363701Y-50661391D01*
X95378697Y-50621187D01*
X95382085Y-50613008D01*
X95389504Y-50596763D01*
X95393467Y-50588847D01*
X95410527Y-50557605D01*
X95415040Y-50549997D01*
X95424694Y-50534974D01*
X95429746Y-50527698D01*
X95537328Y-50383989D01*
X95542879Y-50377100D01*
X95554572Y-50363605D01*
X95560606Y-50357125D01*
X95585774Y-50331957D01*
X95592254Y-50325923D01*
X95605749Y-50314230D01*
X95612638Y-50308679D01*
X95674565Y-50262319D01*
X95658131Y-50245885D01*
X98419231Y-50245885D01*
X98503112Y-50308679D01*
X98510001Y-50314230D01*
X98523496Y-50325923D01*
X98529976Y-50331957D01*
X98555144Y-50357125D01*
X98561178Y-50363605D01*
X98572871Y-50377100D01*
X98578422Y-50383989D01*
X98686004Y-50527698D01*
X98691056Y-50534974D01*
X98700710Y-50549997D01*
X98705223Y-50557605D01*
X98722283Y-50588847D01*
X98726246Y-50596763D01*
X98730339Y-50605726D01*
X98769328Y-50605726D01*
X98807863Y-50567190D01*
X99512141Y-50567190D01*
X99550677Y-50605726D01*
X100183541Y-50605726D01*
X100222077Y-50567190D01*
X100926354Y-50567190D01*
X100964890Y-50605726D01*
X101597755Y-50605726D01*
X101636291Y-50567190D01*
X102340568Y-50567190D01*
X102379104Y-50605726D01*
X103011968Y-50605726D01*
X103050504Y-50567190D01*
X103003403Y-50520089D01*
X106630308Y-50520089D01*
X106636004Y-50527698D01*
X106641056Y-50534974D01*
X106650710Y-50549997D01*
X106655223Y-50557605D01*
X106672283Y-50588847D01*
X106676246Y-50596763D01*
X106683665Y-50613008D01*
X106687053Y-50621187D01*
X106716703Y-50700684D01*
X106938176Y-50922157D01*
X107207065Y-50653269D01*
X107189389Y-50564398D01*
X107137504Y-50411549D01*
X106938176Y-50212221D01*
X106630308Y-50520089D01*
X103003403Y-50520089D01*
X102695536Y-50212222D01*
X102340568Y-50567190D01*
X101636291Y-50567190D01*
X101281322Y-50212221D01*
X100926354Y-50567190D01*
X100222077Y-50567190D01*
X99867109Y-50212222D01*
X99512141Y-50567190D01*
X98807863Y-50567190D01*
X98452894Y-50212221D01*
X98419231Y-50245885D01*
X95658131Y-50245885D01*
X95624468Y-50212222D01*
X95269500Y-50567190D01*
X94565223Y-50567190D01*
X94210255Y-50212222D01*
X93855287Y-50567190D01*
X92946973Y-50567190D01*
X92971913Y-50442106D01*
X92976130Y-50426407D01*
X93028851Y-50271486D01*
X93049013Y-50212239D01*
X93055241Y-50197243D01*
X93155516Y-49994464D01*
X93163662Y-49980395D01*
X93208789Y-49913060D01*
X93244295Y-49860082D01*
X94562393Y-49860082D01*
X94917361Y-50215051D01*
X95272330Y-49860083D01*
X95976607Y-49860083D01*
X96175750Y-50059226D01*
X96188409Y-50057866D01*
X96191724Y-50057555D01*
X96198403Y-50057018D01*
X96201710Y-50056796D01*
X96215024Y-50056083D01*
X96218335Y-50055950D01*
X96225019Y-50055771D01*
X96228339Y-50055727D01*
X96490898Y-50055726D01*
X96686541Y-49860083D01*
X97390821Y-49860083D01*
X97586464Y-50055726D01*
X97887420Y-50055726D01*
X97890750Y-50055771D01*
X97897451Y-50055951D01*
X97900760Y-50056084D01*
X97904551Y-50056287D01*
X98100755Y-49860083D01*
X98805034Y-49860083D01*
X99160002Y-50215051D01*
X99514970Y-49860083D01*
X100219248Y-49860083D01*
X100574216Y-50215051D01*
X100929184Y-49860083D01*
X101633461Y-49860083D01*
X101988429Y-50215051D01*
X102343397Y-49860083D01*
X103047675Y-49860083D01*
X103402643Y-50215051D01*
X103757611Y-49860083D01*
X104461888Y-49860083D01*
X104657531Y-50055726D01*
X104976179Y-50055726D01*
X105171824Y-49860082D01*
X105876101Y-49860082D01*
X106136416Y-50120397D01*
X106215914Y-50150048D01*
X106224093Y-50153436D01*
X106240338Y-50160855D01*
X106248254Y-50164818D01*
X106269629Y-50176490D01*
X106586037Y-49860082D01*
X106387349Y-49661394D01*
X106234500Y-49609507D01*
X106144565Y-49591618D01*
X105876101Y-49860082D01*
X105171824Y-49860082D01*
X104874171Y-49562430D01*
X104759541Y-49562430D01*
X104461888Y-49860083D01*
X103757611Y-49860083D01*
X103459958Y-49562430D01*
X103345328Y-49562430D01*
X103047675Y-49860083D01*
X102343397Y-49860083D01*
X102045744Y-49562430D01*
X101931114Y-49562430D01*
X101633461Y-49860083D01*
X100929184Y-49860083D01*
X100631531Y-49562430D01*
X100516901Y-49562430D01*
X100219248Y-49860083D01*
X99514970Y-49860083D01*
X99217317Y-49562430D01*
X99102687Y-49562430D01*
X98805034Y-49860083D01*
X98100755Y-49860083D01*
X98100756Y-49860082D01*
X97803104Y-49562430D01*
X97688474Y-49562430D01*
X97390821Y-49860083D01*
X96686541Y-49860083D01*
X96686542Y-49860082D01*
X96388890Y-49562430D01*
X96274260Y-49562430D01*
X95976607Y-49860083D01*
X95272330Y-49860083D01*
X94974677Y-49562430D01*
X94860046Y-49562430D01*
X94562393Y-49860082D01*
X93244295Y-49860082D01*
X93289607Y-49792471D01*
X93299508Y-49779609D01*
X93448965Y-49609772D01*
X93460470Y-49598310D01*
X93630854Y-49449496D01*
X93643761Y-49439635D01*
X93832162Y-49314385D01*
X93846240Y-49306304D01*
X94049417Y-49206775D01*
X94064418Y-49200611D01*
X94278864Y-49128523D01*
X94294569Y-49124367D01*
X94516585Y-49080960D01*
X94532701Y-49078894D01*
X94762222Y-49064677D01*
X94770300Y-49064442D01*
X94800967Y-49064557D01*
X94800968Y-49064556D01*
X94813708Y-49064604D01*
X94815281Y-49064430D01*
X105850647Y-49064430D01*
X105880930Y-49064430D01*
X105889039Y-49064695D01*
G37*
%TD.AperFunction*%
M02*
