%TF.GenerationSoftware,KiCad,Pcbnew,9.0.3*%
%TF.CreationDate,2025-08-15T00:01:44-07:00*%
%TF.ProjectId,GCU-ADU,4743552d-4144-4552-9e6b-696361645f70,rev?*%
%TF.SameCoordinates,Original*%
%TF.FileFunction,Profile,NP*%
%FSLAX46Y46*%
G04 Gerber Fmt 4.6, Leading zero omitted, Abs format (unit mm)*
G04 Created by KiCad (PCBNEW 9.0.3) date 2025-08-15 00:01:44*
%MOMM*%
%LPD*%
G01*
G04 APERTURE LIST*
%TA.AperFunction,Profile*%
%ADD10C,0.010000*%
%TD*%
G04 APERTURE END LIST*
D10*
X75988740Y-77925921D02*
G75*
G02*
X76242980Y-77675773I250160J21D01*
G01*
X88348653Y-80134121D02*
G75*
G02*
X88848653Y-79634053I500047J21D01*
G01*
X86251070Y-61430221D02*
X86251070Y-56607021D01*
X102282872Y-59704221D02*
X102282872Y-58199639D01*
X93374497Y-63280039D02*
G75*
G02*
X93874448Y-63783626I3J-499961D01*
G01*
X92074465Y-63780021D02*
G75*
G02*
X92574465Y-63280065I500035J-79D01*
G01*
X75988740Y-80722659D02*
X75988740Y-77925921D01*
X83874497Y-66030039D02*
G75*
G02*
X83374461Y-65530021I3J500039D01*
G01*
X83874465Y-63280039D02*
X84674497Y-63280039D01*
X103524997Y-72576021D02*
G75*
G02*
X104024997Y-72075997I500003J21D01*
G01*
X83374465Y-65530021D02*
X83374465Y-63780021D01*
X83374465Y-63780021D02*
G75*
G02*
X83874465Y-63280065I500035J-79D01*
G01*
X105884997Y-48913930D02*
G75*
G02*
X107884970Y-50913921I3J-1999970D01*
G01*
X120037997Y-68585601D02*
G75*
G02*
X120537999Y-69085601I3J-499999D01*
G01*
X118037957Y-69085621D02*
G75*
G02*
X118533525Y-68585577I500043J21D01*
G01*
X114076097Y-59058947D02*
G75*
G02*
X113076060Y-58062662I3J1000047D01*
G01*
X112076097Y-56555631D02*
G75*
G02*
X113076061Y-57559620I3J-999969D01*
G01*
X93367397Y-66030039D02*
X92574497Y-66030039D01*
X106865924Y-76520848D02*
G75*
G02*
X107926597Y-76081495I1060676J-1060652D01*
G01*
X86251070Y-61430221D02*
G75*
G02*
X85251070Y-62430170I-999970J21D01*
G01*
X83374479Y-65530021D02*
X83374465Y-65530021D01*
X101782897Y-57704225D02*
G75*
G02*
X102282854Y-58199639I3J-499975D01*
G01*
X92074465Y-65530021D02*
X92074465Y-63780021D01*
X99782872Y-58204221D02*
G75*
G02*
X100277512Y-57704201I500028J21D01*
G01*
X92759692Y-54607021D02*
G75*
G02*
X91763939Y-55606983I-999992J21D01*
G01*
X76242980Y-77675799D02*
X77568740Y-77675799D01*
X102282872Y-59704221D02*
G75*
G02*
X101791163Y-60204200I-500172J121D01*
G01*
X118538097Y-71085601D02*
X120037957Y-71085601D01*
X104024997Y-74575999D02*
X105529687Y-74575999D01*
X82087010Y-76675841D02*
G75*
G02*
X81087010Y-77675810I-1000010J41D01*
G01*
X101263116Y-81285758D02*
X91348697Y-81285758D01*
X77568740Y-77675799D02*
X81087010Y-77675799D01*
X94767180Y-48913930D02*
X105884997Y-48913930D01*
X121490696Y-59366811D02*
X124309198Y-62272708D01*
X92759692Y-50913921D02*
G75*
G02*
X94767180Y-48913906I2000008J21D01*
G01*
X118538097Y-71085601D02*
G75*
G02*
X118037941Y-70591845I3J500201D01*
G01*
X82087010Y-76675841D02*
X82087010Y-63430221D01*
X108884997Y-56555631D02*
G75*
G02*
X107884969Y-55555621I3J1000031D01*
G01*
X101782897Y-57704225D02*
X100277512Y-57704225D01*
X83087010Y-62430210D02*
X85251070Y-62430210D01*
X105524997Y-72075999D02*
X104024997Y-72075999D01*
X103524997Y-72576021D02*
X103524997Y-74075999D01*
X90848660Y-80785721D02*
X90848653Y-80785721D01*
X106024997Y-74076021D02*
X106024997Y-72571439D01*
X124591331Y-62977865D02*
X124591331Y-73081561D01*
X105524997Y-72075999D02*
G75*
G02*
X106024980Y-72571439I3J-500001D01*
G01*
X124309198Y-62272708D02*
G75*
G02*
X124591347Y-62977865I-718198J-696392D01*
G01*
X107926597Y-76081503D02*
X107926597Y-76081496D01*
X91348697Y-81285758D02*
G75*
G02*
X90848642Y-80785721I3J500058D01*
G01*
X88348653Y-80134121D02*
X88348653Y-80475821D01*
X90348697Y-79634139D02*
G75*
G02*
X90848635Y-80129023I3J-499961D01*
G01*
X85174465Y-65530021D02*
G75*
G02*
X84667397Y-66030017I-500165J121D01*
G01*
X100282897Y-60204225D02*
X101791163Y-60204225D01*
X90848653Y-80785721D02*
X90848653Y-80129023D01*
X76238697Y-80975799D02*
G75*
G02*
X75988721Y-80722659I3J249999D01*
G01*
X120768897Y-59058947D02*
G75*
G02*
X121490671Y-59366835I3J-999953D01*
G01*
X121591397Y-76081496D02*
X107926597Y-76081496D01*
X93874465Y-65530021D02*
G75*
G02*
X93367397Y-66030017I-500165J121D01*
G01*
X106865924Y-76520848D02*
X102686824Y-80699948D01*
X120037997Y-68585601D02*
X118533525Y-68585601D01*
X102686824Y-80699948D02*
G75*
G02*
X101263116Y-81285764I-1414424J1414548D01*
G01*
X100282897Y-60204225D02*
G75*
G02*
X99782875Y-59704221I3J500025D01*
G01*
X118037957Y-69085621D02*
X118037957Y-70591845D01*
X106024997Y-74076021D02*
G75*
G02*
X105529687Y-74575975I-499997J21D01*
G01*
X99782893Y-59704221D02*
X99782872Y-59704221D01*
X111774997Y-58235999D02*
G75*
G02*
X109374997Y-58235999I-1200000J0D01*
G01*
X109374997Y-58235999D02*
G75*
G02*
X111774997Y-58235999I1200000J0D01*
G01*
X86251070Y-56607021D02*
G75*
G02*
X87255996Y-55606982I1000030J21D01*
G01*
X99782872Y-58204221D02*
X99782872Y-59704221D01*
X85174465Y-63783626D02*
X85174465Y-65530021D01*
X87848653Y-80975799D02*
X77568740Y-80975799D01*
X107884991Y-50913921D02*
X107884991Y-55555621D01*
X88348653Y-80475821D02*
G75*
G02*
X87848653Y-80975753I-499953J21D01*
G01*
X90348697Y-79634139D02*
X88848653Y-79634139D01*
X104024997Y-74575999D02*
G75*
G02*
X103525001Y-74075999I3J499999D01*
G01*
X93874465Y-63783626D02*
X93874465Y-65530021D01*
X92574465Y-63280039D02*
X93374497Y-63280039D01*
X104024997Y-72076021D02*
X104024997Y-72075999D01*
X92574497Y-66030039D02*
G75*
G02*
X92074461Y-65530021I3J500039D01*
G01*
X114076097Y-59058947D02*
X120768897Y-59058947D01*
X84674497Y-63280039D02*
G75*
G02*
X85174448Y-63783626I3J-499961D01*
G01*
X108884997Y-56555631D02*
X112076097Y-56555631D01*
X82087010Y-63430221D02*
G75*
G02*
X83087010Y-62430210I999990J21D01*
G01*
X120537957Y-70585621D02*
G75*
G02*
X120037957Y-71085557I-499957J21D01*
G01*
X92759692Y-54607021D02*
X92759692Y-50913921D01*
X124591331Y-73081561D02*
G75*
G02*
X121591397Y-76081531I-2999931J-39D01*
G01*
X84667397Y-66030039D02*
X83874497Y-66030039D01*
X120537957Y-70585621D02*
X120537957Y-69085601D01*
X92074479Y-65530021D02*
X92074465Y-65530021D01*
X87255996Y-55607006D02*
X91763939Y-55607006D01*
X113076078Y-57559620D02*
X113076078Y-58062662D01*
X77568740Y-80975799D02*
X76238697Y-80975799D01*
M02*
