%TF.GenerationSoftware,KiCad,Pcbnew,8.0.2*%
%TF.CreationDate,2024-08-31T13:36:34-07:00*%
%TF.ProjectId,GCU-ADU,4743552d-4144-4552-9e6b-696361645f70,rev?*%
%TF.SameCoordinates,Original*%
%TF.FileFunction,Drillmap*%
%TF.FilePolarity,Positive*%
%FSLAX45Y45*%
G04 Gerber Fmt 4.5, Leading zero omitted, Abs format (unit mm)*
G04 Created by KiCad (PCBNEW 8.0.2) date 2024-08-31 13:36:34*
%MOMM*%
%LPD*%
G01*
G04 APERTURE LIST*
%ADD10C,0.010000*%
%ADD11C,0.200000*%
%ADD12C,0.100000*%
G04 APERTURE END LIST*
D10*
X9207448Y-6553002D02*
X9207447Y-6553002D01*
X8337448Y-6553002D02*
X8337446Y-6553002D01*
X10402500Y-7207602D02*
X10402500Y-7207600D01*
X9978289Y-5970422D02*
X9978287Y-5970422D01*
X9084866Y-8078572D02*
X9084865Y-8078572D01*
X10792660Y-7608150D02*
X10792660Y-7608150D01*
X11177500Y-5823600D02*
G75*
G02*
X10937500Y-5823600I-120000J0D01*
G01*
X10937500Y-5823600D02*
G75*
G02*
X11177500Y-5823600I120000J0D01*
G01*
X9387447Y-6553002D02*
G75*
G02*
X9336740Y-6603004I-50017J10D01*
G01*
X9387447Y-6378363D02*
X9387447Y-6553002D01*
X9337450Y-6328004D02*
G75*
G02*
X9387447Y-6378363I0J-49998D01*
G01*
X9257447Y-6328004D02*
X9337450Y-6328004D01*
X9207447Y-6378002D02*
G75*
G02*
X9257447Y-6328009I49993J0D01*
G01*
X9207447Y-6553002D02*
X9207447Y-6378002D01*
X9257450Y-6603004D02*
G75*
G02*
X9207448Y-6553002I0J50002D01*
G01*
X9336740Y-6603004D02*
X9257450Y-6603004D01*
X8337446Y-6378002D02*
G75*
G02*
X8387446Y-6328009I49993J0D01*
G01*
X8337446Y-6553002D02*
X8337446Y-6378002D01*
X8387450Y-6603004D02*
G75*
G02*
X8337448Y-6553002I0J50002D01*
G01*
X8466740Y-6603004D02*
X8387450Y-6603004D01*
X8517447Y-6553002D02*
G75*
G02*
X8466740Y-6603004I-50017J10D01*
G01*
X8517447Y-6378363D02*
X8517447Y-6553002D01*
X8467450Y-6328004D02*
G75*
G02*
X8517447Y-6378363I0J-49998D01*
G01*
X8387446Y-6328004D02*
X8467450Y-6328004D01*
X12053796Y-7058562D02*
G75*
G02*
X12003796Y-7108558I-49996J0D01*
G01*
X11853810Y-7108560D02*
X12003796Y-7108560D01*
X11853810Y-7108560D02*
G75*
G02*
X11803796Y-7059184I0J50018D01*
G01*
X11803796Y-6908562D02*
X11803796Y-7059184D01*
X11803796Y-6908562D02*
G75*
G02*
X11853352Y-6858560I50004J0D01*
G01*
X12003800Y-6858560D02*
X11853352Y-6858560D01*
X12003800Y-6858560D02*
G75*
G02*
X12053792Y-6908560I0J-49992D01*
G01*
X12053796Y-7058562D02*
X12053796Y-6908560D01*
X10178290Y-5770422D02*
G75*
G02*
X10228287Y-5819964I0J-50000D01*
G01*
X10228287Y-5970422D02*
X10228287Y-5819964D01*
X10228287Y-5970422D02*
G75*
G02*
X10179116Y-6020422I-50018J10D01*
G01*
X10028290Y-6020422D02*
X10179116Y-6020422D01*
X10028290Y-6020422D02*
G75*
G02*
X9978289Y-5970422I0J50000D01*
G01*
X9978287Y-5820422D02*
X9978287Y-5970422D01*
X9978287Y-5820422D02*
G75*
G02*
X10027751Y-5770422I50003J0D01*
G01*
X10178290Y-5770422D02*
X10027751Y-5770422D01*
X10602500Y-7407602D02*
G75*
G02*
X10552969Y-7457600I-50000J0D01*
G01*
X10402500Y-7457600D02*
X10552969Y-7457600D01*
X10402500Y-7457600D02*
G75*
G02*
X10352502Y-7407600I0J49998D01*
G01*
X10352500Y-7257602D02*
X10352500Y-7407600D01*
X10352500Y-7257602D02*
G75*
G02*
X10402500Y-7207602I50000J0D01*
G01*
X10552500Y-7207600D02*
X10402500Y-7207600D01*
X10552500Y-7207600D02*
G75*
G02*
X10602500Y-7257144I0J-50002D01*
G01*
X10602500Y-7407602D02*
X10602500Y-7257144D01*
X8208701Y-7667584D02*
G75*
G02*
X8108701Y-7767579I-99995J0D01*
G01*
X7756874Y-7767580D02*
X8108701Y-7767580D01*
X7624298Y-7767580D02*
X7756874Y-7767580D01*
X7598874Y-7792592D02*
G75*
G02*
X7624298Y-7767580I25016J0D01*
G01*
X7598874Y-8072266D02*
X7598874Y-7792592D01*
X7623870Y-8097580D02*
G75*
G02*
X7598874Y-8072266I0J24998D01*
G01*
X7756874Y-8097580D02*
X7623870Y-8097580D01*
X8784865Y-8097580D02*
X7756874Y-8097580D01*
X8834865Y-8047582D02*
G75*
G02*
X8784865Y-8097578I-49996J0D01*
G01*
X8834865Y-8013412D02*
X8834865Y-8047582D01*
X8834865Y-8013412D02*
G75*
G02*
X8884865Y-7963418I49994J0D01*
G01*
X9034870Y-7963414D02*
X8884865Y-7963414D01*
X9034870Y-7963414D02*
G75*
G02*
X9084865Y-8012902I0J-49998D01*
G01*
X9084865Y-8078572D02*
X9084865Y-8012902D01*
X9134870Y-8128576D02*
G75*
G02*
X9084866Y-8078572I0J50004D01*
G01*
X10126312Y-8128576D02*
X9134870Y-8128576D01*
X10268682Y-8069995D02*
G75*
G02*
X10126312Y-8128573I-141433J141443D01*
G01*
X10686592Y-7652085D02*
X10268682Y-8069995D01*
X10686592Y-7652085D02*
G75*
G02*
X10792660Y-7608150I106067J-106067D01*
G01*
X12159140Y-7608150D02*
X10792660Y-7608150D01*
X12459133Y-7308156D02*
G75*
G02*
X12159140Y-7608149I-299993J0D01*
G01*
X12459133Y-6297786D02*
X12459133Y-7308156D01*
X12430920Y-6227271D02*
G75*
G02*
X12459132Y-6297786I-71810J-69631D01*
G01*
X12149070Y-5936681D02*
X12430920Y-6227271D01*
X12076890Y-5905895D02*
G75*
G02*
X12149072Y-5936679I0J-100017D01*
G01*
X11407610Y-5905895D02*
X12076890Y-5905895D01*
X11407610Y-5905895D02*
G75*
G02*
X11307608Y-5806266I0J100003D01*
G01*
X11307608Y-5755962D02*
X11307608Y-5806266D01*
X11207610Y-5655563D02*
G75*
G02*
X11307608Y-5755962I0J-99999D01*
G01*
X10888500Y-5655563D02*
X11207610Y-5655563D01*
X10888500Y-5655563D02*
G75*
G02*
X10788499Y-5555562I0J100001D01*
G01*
X10788499Y-5091392D02*
X10788499Y-5555562D01*
X10588500Y-4891393D02*
G75*
G02*
X10788499Y-5091392I0J-199999D01*
G01*
X9476718Y-4891393D02*
X10588500Y-4891393D01*
X9275969Y-5091392D02*
G75*
G02*
X9476718Y-4891393I200001J0D01*
G01*
X9275969Y-5460702D02*
X9275969Y-5091392D01*
X9275969Y-5460702D02*
G75*
G02*
X9176394Y-5560701I-100000J0D01*
G01*
X8725600Y-5560701D02*
X9176394Y-5560701D01*
X8625107Y-5660702D02*
G75*
G02*
X8725600Y-5560701I100003J0D01*
G01*
X8625107Y-6143022D02*
X8625107Y-5660702D01*
X8625107Y-6143022D02*
G75*
G02*
X8525107Y-6243019I-99997J0D01*
G01*
X8308701Y-6243021D02*
X8525107Y-6243021D01*
X8208701Y-6343022D02*
G75*
G02*
X8308701Y-6243023I99999J0D01*
G01*
X8208701Y-7667584D02*
X8208701Y-6343022D01*
D11*
D12*
X8720100Y-7561860D02*
X8755100Y-7596860D01*
X8755100Y-7561860D02*
X8720100Y-7596860D01*
X8824240Y-7559320D02*
X8859240Y-7594320D01*
X8859240Y-7559320D02*
X8824240Y-7594320D01*
X9626880Y-7305320D02*
X9661880Y-7340320D01*
X9661880Y-7305320D02*
X9626880Y-7340320D01*
X9771660Y-7043700D02*
X9806660Y-7078700D01*
X9806660Y-7043700D02*
X9771660Y-7078700D01*
X9794520Y-6591580D02*
X9829520Y-6626580D01*
X9829520Y-6591580D02*
X9794520Y-6626580D01*
X11267720Y-6716040D02*
X11302720Y-6751040D01*
X11302720Y-6716040D02*
X11267720Y-6751040D01*
D11*
X7859149Y-8440560D02*
X7859149Y-8240560D01*
X7859149Y-8240560D02*
X7906768Y-8240560D01*
X7906768Y-8240560D02*
X7935339Y-8250083D01*
X7935339Y-8250083D02*
X7954387Y-8269131D01*
X7954387Y-8269131D02*
X7963911Y-8288179D01*
X7963911Y-8288179D02*
X7973434Y-8326274D01*
X7973434Y-8326274D02*
X7973434Y-8354845D01*
X7973434Y-8354845D02*
X7963911Y-8392941D01*
X7963911Y-8392941D02*
X7954387Y-8411988D01*
X7954387Y-8411988D02*
X7935339Y-8431036D01*
X7935339Y-8431036D02*
X7906768Y-8440560D01*
X7906768Y-8440560D02*
X7859149Y-8440560D01*
X8059149Y-8440560D02*
X8059149Y-8307226D01*
X8059149Y-8345321D02*
X8068672Y-8326274D01*
X8068672Y-8326274D02*
X8078196Y-8316750D01*
X8078196Y-8316750D02*
X8097244Y-8307226D01*
X8097244Y-8307226D02*
X8116292Y-8307226D01*
X8182958Y-8440560D02*
X8182958Y-8307226D01*
X8182958Y-8240560D02*
X8173434Y-8250083D01*
X8173434Y-8250083D02*
X8182958Y-8259607D01*
X8182958Y-8259607D02*
X8192482Y-8250083D01*
X8192482Y-8250083D02*
X8182958Y-8240560D01*
X8182958Y-8240560D02*
X8182958Y-8259607D01*
X8306768Y-8440560D02*
X8287720Y-8431036D01*
X8287720Y-8431036D02*
X8278196Y-8411988D01*
X8278196Y-8411988D02*
X8278196Y-8240560D01*
X8411530Y-8440560D02*
X8392482Y-8431036D01*
X8392482Y-8431036D02*
X8382958Y-8411988D01*
X8382958Y-8411988D02*
X8382958Y-8240560D01*
X8640101Y-8440560D02*
X8640101Y-8240560D01*
X8640101Y-8240560D02*
X8706768Y-8383417D01*
X8706768Y-8383417D02*
X8773434Y-8240560D01*
X8773434Y-8240560D02*
X8773434Y-8440560D01*
X8954387Y-8440560D02*
X8954387Y-8335798D01*
X8954387Y-8335798D02*
X8944863Y-8316750D01*
X8944863Y-8316750D02*
X8925815Y-8307226D01*
X8925815Y-8307226D02*
X8887720Y-8307226D01*
X8887720Y-8307226D02*
X8868673Y-8316750D01*
X8954387Y-8431036D02*
X8935339Y-8440560D01*
X8935339Y-8440560D02*
X8887720Y-8440560D01*
X8887720Y-8440560D02*
X8868673Y-8431036D01*
X8868673Y-8431036D02*
X8859149Y-8411988D01*
X8859149Y-8411988D02*
X8859149Y-8392941D01*
X8859149Y-8392941D02*
X8868673Y-8373893D01*
X8868673Y-8373893D02*
X8887720Y-8364369D01*
X8887720Y-8364369D02*
X8935339Y-8364369D01*
X8935339Y-8364369D02*
X8954387Y-8354845D01*
X9049625Y-8307226D02*
X9049625Y-8507226D01*
X9049625Y-8316750D02*
X9068673Y-8307226D01*
X9068673Y-8307226D02*
X9106768Y-8307226D01*
X9106768Y-8307226D02*
X9125815Y-8316750D01*
X9125815Y-8316750D02*
X9135339Y-8326274D01*
X9135339Y-8326274D02*
X9144863Y-8345321D01*
X9144863Y-8345321D02*
X9144863Y-8402464D01*
X9144863Y-8402464D02*
X9135339Y-8421512D01*
X9135339Y-8421512D02*
X9125815Y-8431036D01*
X9125815Y-8431036D02*
X9106768Y-8440560D01*
X9106768Y-8440560D02*
X9068673Y-8440560D01*
X9068673Y-8440560D02*
X9049625Y-8431036D01*
X9230577Y-8421512D02*
X9240101Y-8431036D01*
X9240101Y-8431036D02*
X9230577Y-8440560D01*
X9230577Y-8440560D02*
X9221054Y-8431036D01*
X9221054Y-8431036D02*
X9230577Y-8421512D01*
X9230577Y-8421512D02*
X9230577Y-8440560D01*
X9230577Y-8316750D02*
X9240101Y-8326274D01*
X9240101Y-8326274D02*
X9230577Y-8335798D01*
X9230577Y-8335798D02*
X9221054Y-8326274D01*
X9221054Y-8326274D02*
X9230577Y-8316750D01*
X9230577Y-8316750D02*
X9230577Y-8335798D01*
D12*
X7563372Y-8751576D02*
X7598372Y-8786576D01*
X7598372Y-8751576D02*
X7563372Y-8786576D01*
D11*
X7897244Y-8660560D02*
X7916292Y-8660560D01*
X7916292Y-8660560D02*
X7935339Y-8670083D01*
X7935339Y-8670083D02*
X7944863Y-8679607D01*
X7944863Y-8679607D02*
X7954387Y-8698655D01*
X7954387Y-8698655D02*
X7963911Y-8736750D01*
X7963911Y-8736750D02*
X7963911Y-8784369D01*
X7963911Y-8784369D02*
X7954387Y-8822464D01*
X7954387Y-8822464D02*
X7944863Y-8841512D01*
X7944863Y-8841512D02*
X7935339Y-8851036D01*
X7935339Y-8851036D02*
X7916292Y-8860560D01*
X7916292Y-8860560D02*
X7897244Y-8860560D01*
X7897244Y-8860560D02*
X7878196Y-8851036D01*
X7878196Y-8851036D02*
X7868672Y-8841512D01*
X7868672Y-8841512D02*
X7859149Y-8822464D01*
X7859149Y-8822464D02*
X7849625Y-8784369D01*
X7849625Y-8784369D02*
X7849625Y-8736750D01*
X7849625Y-8736750D02*
X7859149Y-8698655D01*
X7859149Y-8698655D02*
X7868672Y-8679607D01*
X7868672Y-8679607D02*
X7878196Y-8670083D01*
X7878196Y-8670083D02*
X7897244Y-8660560D01*
X8049625Y-8841512D02*
X8059149Y-8851036D01*
X8059149Y-8851036D02*
X8049625Y-8860560D01*
X8049625Y-8860560D02*
X8040101Y-8851036D01*
X8040101Y-8851036D02*
X8049625Y-8841512D01*
X8049625Y-8841512D02*
X8049625Y-8860560D01*
X8125815Y-8660560D02*
X8249625Y-8660560D01*
X8249625Y-8660560D02*
X8182958Y-8736750D01*
X8182958Y-8736750D02*
X8211530Y-8736750D01*
X8211530Y-8736750D02*
X8230577Y-8746274D01*
X8230577Y-8746274D02*
X8240101Y-8755798D01*
X8240101Y-8755798D02*
X8249625Y-8774845D01*
X8249625Y-8774845D02*
X8249625Y-8822464D01*
X8249625Y-8822464D02*
X8240101Y-8841512D01*
X8240101Y-8841512D02*
X8230577Y-8851036D01*
X8230577Y-8851036D02*
X8211530Y-8860560D01*
X8211530Y-8860560D02*
X8154387Y-8860560D01*
X8154387Y-8860560D02*
X8135339Y-8851036D01*
X8135339Y-8851036D02*
X8125815Y-8841512D01*
X8430577Y-8660560D02*
X8335339Y-8660560D01*
X8335339Y-8660560D02*
X8325815Y-8755798D01*
X8325815Y-8755798D02*
X8335339Y-8746274D01*
X8335339Y-8746274D02*
X8354387Y-8736750D01*
X8354387Y-8736750D02*
X8402006Y-8736750D01*
X8402006Y-8736750D02*
X8421054Y-8746274D01*
X8421054Y-8746274D02*
X8430577Y-8755798D01*
X8430577Y-8755798D02*
X8440101Y-8774845D01*
X8440101Y-8774845D02*
X8440101Y-8822464D01*
X8440101Y-8822464D02*
X8430577Y-8841512D01*
X8430577Y-8841512D02*
X8421054Y-8851036D01*
X8421054Y-8851036D02*
X8402006Y-8860560D01*
X8402006Y-8860560D02*
X8354387Y-8860560D01*
X8354387Y-8860560D02*
X8335339Y-8851036D01*
X8335339Y-8851036D02*
X8325815Y-8841512D01*
X8563911Y-8660560D02*
X8582958Y-8660560D01*
X8582958Y-8660560D02*
X8602006Y-8670083D01*
X8602006Y-8670083D02*
X8611530Y-8679607D01*
X8611530Y-8679607D02*
X8621054Y-8698655D01*
X8621054Y-8698655D02*
X8630577Y-8736750D01*
X8630577Y-8736750D02*
X8630577Y-8784369D01*
X8630577Y-8784369D02*
X8621054Y-8822464D01*
X8621054Y-8822464D02*
X8611530Y-8841512D01*
X8611530Y-8841512D02*
X8602006Y-8851036D01*
X8602006Y-8851036D02*
X8582958Y-8860560D01*
X8582958Y-8860560D02*
X8563911Y-8860560D01*
X8563911Y-8860560D02*
X8544863Y-8851036D01*
X8544863Y-8851036D02*
X8535339Y-8841512D01*
X8535339Y-8841512D02*
X8525815Y-8822464D01*
X8525815Y-8822464D02*
X8516292Y-8784369D01*
X8516292Y-8784369D02*
X8516292Y-8736750D01*
X8516292Y-8736750D02*
X8525815Y-8698655D01*
X8525815Y-8698655D02*
X8535339Y-8679607D01*
X8535339Y-8679607D02*
X8544863Y-8670083D01*
X8544863Y-8670083D02*
X8563911Y-8660560D01*
X8716292Y-8860560D02*
X8716292Y-8727226D01*
X8716292Y-8746274D02*
X8725815Y-8736750D01*
X8725815Y-8736750D02*
X8744863Y-8727226D01*
X8744863Y-8727226D02*
X8773435Y-8727226D01*
X8773435Y-8727226D02*
X8792482Y-8736750D01*
X8792482Y-8736750D02*
X8802006Y-8755798D01*
X8802006Y-8755798D02*
X8802006Y-8860560D01*
X8802006Y-8755798D02*
X8811530Y-8736750D01*
X8811530Y-8736750D02*
X8830577Y-8727226D01*
X8830577Y-8727226D02*
X8859149Y-8727226D01*
X8859149Y-8727226D02*
X8878196Y-8736750D01*
X8878196Y-8736750D02*
X8887720Y-8755798D01*
X8887720Y-8755798D02*
X8887720Y-8860560D01*
X8982958Y-8860560D02*
X8982958Y-8727226D01*
X8982958Y-8746274D02*
X8992482Y-8736750D01*
X8992482Y-8736750D02*
X9011530Y-8727226D01*
X9011530Y-8727226D02*
X9040101Y-8727226D01*
X9040101Y-8727226D02*
X9059149Y-8736750D01*
X9059149Y-8736750D02*
X9068673Y-8755798D01*
X9068673Y-8755798D02*
X9068673Y-8860560D01*
X9068673Y-8755798D02*
X9078196Y-8736750D01*
X9078196Y-8736750D02*
X9097244Y-8727226D01*
X9097244Y-8727226D02*
X9125815Y-8727226D01*
X9125815Y-8727226D02*
X9144863Y-8736750D01*
X9144863Y-8736750D02*
X9154387Y-8755798D01*
X9154387Y-8755798D02*
X9154387Y-8860560D01*
X9544863Y-8651036D02*
X9373435Y-8908179D01*
X9802006Y-8660560D02*
X9821054Y-8660560D01*
X9821054Y-8660560D02*
X9840101Y-8670083D01*
X9840101Y-8670083D02*
X9849625Y-8679607D01*
X9849625Y-8679607D02*
X9859149Y-8698655D01*
X9859149Y-8698655D02*
X9868673Y-8736750D01*
X9868673Y-8736750D02*
X9868673Y-8784369D01*
X9868673Y-8784369D02*
X9859149Y-8822464D01*
X9859149Y-8822464D02*
X9849625Y-8841512D01*
X9849625Y-8841512D02*
X9840101Y-8851036D01*
X9840101Y-8851036D02*
X9821054Y-8860560D01*
X9821054Y-8860560D02*
X9802006Y-8860560D01*
X9802006Y-8860560D02*
X9782958Y-8851036D01*
X9782958Y-8851036D02*
X9773435Y-8841512D01*
X9773435Y-8841512D02*
X9763911Y-8822464D01*
X9763911Y-8822464D02*
X9754387Y-8784369D01*
X9754387Y-8784369D02*
X9754387Y-8736750D01*
X9754387Y-8736750D02*
X9763911Y-8698655D01*
X9763911Y-8698655D02*
X9773435Y-8679607D01*
X9773435Y-8679607D02*
X9782958Y-8670083D01*
X9782958Y-8670083D02*
X9802006Y-8660560D01*
X9954387Y-8841512D02*
X9963911Y-8851036D01*
X9963911Y-8851036D02*
X9954387Y-8860560D01*
X9954387Y-8860560D02*
X9944863Y-8851036D01*
X9944863Y-8851036D02*
X9954387Y-8841512D01*
X9954387Y-8841512D02*
X9954387Y-8860560D01*
X10087720Y-8660560D02*
X10106768Y-8660560D01*
X10106768Y-8660560D02*
X10125816Y-8670083D01*
X10125816Y-8670083D02*
X10135339Y-8679607D01*
X10135339Y-8679607D02*
X10144863Y-8698655D01*
X10144863Y-8698655D02*
X10154387Y-8736750D01*
X10154387Y-8736750D02*
X10154387Y-8784369D01*
X10154387Y-8784369D02*
X10144863Y-8822464D01*
X10144863Y-8822464D02*
X10135339Y-8841512D01*
X10135339Y-8841512D02*
X10125816Y-8851036D01*
X10125816Y-8851036D02*
X10106768Y-8860560D01*
X10106768Y-8860560D02*
X10087720Y-8860560D01*
X10087720Y-8860560D02*
X10068673Y-8851036D01*
X10068673Y-8851036D02*
X10059149Y-8841512D01*
X10059149Y-8841512D02*
X10049625Y-8822464D01*
X10049625Y-8822464D02*
X10040101Y-8784369D01*
X10040101Y-8784369D02*
X10040101Y-8736750D01*
X10040101Y-8736750D02*
X10049625Y-8698655D01*
X10049625Y-8698655D02*
X10059149Y-8679607D01*
X10059149Y-8679607D02*
X10068673Y-8670083D01*
X10068673Y-8670083D02*
X10087720Y-8660560D01*
X10344863Y-8860560D02*
X10230578Y-8860560D01*
X10287720Y-8860560D02*
X10287720Y-8660560D01*
X10287720Y-8660560D02*
X10268673Y-8689131D01*
X10268673Y-8689131D02*
X10249625Y-8708179D01*
X10249625Y-8708179D02*
X10230578Y-8717702D01*
X10411530Y-8660560D02*
X10535339Y-8660560D01*
X10535339Y-8660560D02*
X10468673Y-8736750D01*
X10468673Y-8736750D02*
X10497244Y-8736750D01*
X10497244Y-8736750D02*
X10516292Y-8746274D01*
X10516292Y-8746274D02*
X10525816Y-8755798D01*
X10525816Y-8755798D02*
X10535339Y-8774845D01*
X10535339Y-8774845D02*
X10535339Y-8822464D01*
X10535339Y-8822464D02*
X10525816Y-8841512D01*
X10525816Y-8841512D02*
X10516292Y-8851036D01*
X10516292Y-8851036D02*
X10497244Y-8860560D01*
X10497244Y-8860560D02*
X10440101Y-8860560D01*
X10440101Y-8860560D02*
X10421054Y-8851036D01*
X10421054Y-8851036D02*
X10411530Y-8841512D01*
X10649625Y-8746274D02*
X10630578Y-8736750D01*
X10630578Y-8736750D02*
X10621054Y-8727226D01*
X10621054Y-8727226D02*
X10611530Y-8708179D01*
X10611530Y-8708179D02*
X10611530Y-8698655D01*
X10611530Y-8698655D02*
X10621054Y-8679607D01*
X10621054Y-8679607D02*
X10630578Y-8670083D01*
X10630578Y-8670083D02*
X10649625Y-8660560D01*
X10649625Y-8660560D02*
X10687720Y-8660560D01*
X10687720Y-8660560D02*
X10706768Y-8670083D01*
X10706768Y-8670083D02*
X10716292Y-8679607D01*
X10716292Y-8679607D02*
X10725816Y-8698655D01*
X10725816Y-8698655D02*
X10725816Y-8708179D01*
X10725816Y-8708179D02*
X10716292Y-8727226D01*
X10716292Y-8727226D02*
X10706768Y-8736750D01*
X10706768Y-8736750D02*
X10687720Y-8746274D01*
X10687720Y-8746274D02*
X10649625Y-8746274D01*
X10649625Y-8746274D02*
X10630578Y-8755798D01*
X10630578Y-8755798D02*
X10621054Y-8765322D01*
X10621054Y-8765322D02*
X10611530Y-8784369D01*
X10611530Y-8784369D02*
X10611530Y-8822464D01*
X10611530Y-8822464D02*
X10621054Y-8841512D01*
X10621054Y-8841512D02*
X10630578Y-8851036D01*
X10630578Y-8851036D02*
X10649625Y-8860560D01*
X10649625Y-8860560D02*
X10687720Y-8860560D01*
X10687720Y-8860560D02*
X10706768Y-8851036D01*
X10706768Y-8851036D02*
X10716292Y-8841512D01*
X10716292Y-8841512D02*
X10725816Y-8822464D01*
X10725816Y-8822464D02*
X10725816Y-8784369D01*
X10725816Y-8784369D02*
X10716292Y-8765322D01*
X10716292Y-8765322D02*
X10706768Y-8755798D01*
X10706768Y-8755798D02*
X10687720Y-8746274D01*
X10802006Y-8660560D02*
X10802006Y-8698655D01*
X10878197Y-8660560D02*
X10878197Y-8698655D01*
X11173435Y-8936750D02*
X11163911Y-8927226D01*
X11163911Y-8927226D02*
X11144863Y-8898655D01*
X11144863Y-8898655D02*
X11135340Y-8879607D01*
X11135340Y-8879607D02*
X11125816Y-8851036D01*
X11125816Y-8851036D02*
X11116292Y-8803417D01*
X11116292Y-8803417D02*
X11116292Y-8765322D01*
X11116292Y-8765322D02*
X11125816Y-8717702D01*
X11125816Y-8717702D02*
X11135340Y-8689131D01*
X11135340Y-8689131D02*
X11144863Y-8670083D01*
X11144863Y-8670083D02*
X11163911Y-8641512D01*
X11163911Y-8641512D02*
X11173435Y-8631988D01*
X11335339Y-8660560D02*
X11297244Y-8660560D01*
X11297244Y-8660560D02*
X11278197Y-8670083D01*
X11278197Y-8670083D02*
X11268673Y-8679607D01*
X11268673Y-8679607D02*
X11249625Y-8708179D01*
X11249625Y-8708179D02*
X11240101Y-8746274D01*
X11240101Y-8746274D02*
X11240101Y-8822464D01*
X11240101Y-8822464D02*
X11249625Y-8841512D01*
X11249625Y-8841512D02*
X11259149Y-8851036D01*
X11259149Y-8851036D02*
X11278197Y-8860560D01*
X11278197Y-8860560D02*
X11316292Y-8860560D01*
X11316292Y-8860560D02*
X11335339Y-8851036D01*
X11335339Y-8851036D02*
X11344863Y-8841512D01*
X11344863Y-8841512D02*
X11354387Y-8822464D01*
X11354387Y-8822464D02*
X11354387Y-8774845D01*
X11354387Y-8774845D02*
X11344863Y-8755798D01*
X11344863Y-8755798D02*
X11335339Y-8746274D01*
X11335339Y-8746274D02*
X11316292Y-8736750D01*
X11316292Y-8736750D02*
X11278197Y-8736750D01*
X11278197Y-8736750D02*
X11259149Y-8746274D01*
X11259149Y-8746274D02*
X11249625Y-8755798D01*
X11249625Y-8755798D02*
X11240101Y-8774845D01*
X11592482Y-8860560D02*
X11592482Y-8660560D01*
X11678197Y-8860560D02*
X11678197Y-8755798D01*
X11678197Y-8755798D02*
X11668673Y-8736750D01*
X11668673Y-8736750D02*
X11649625Y-8727226D01*
X11649625Y-8727226D02*
X11621054Y-8727226D01*
X11621054Y-8727226D02*
X11602006Y-8736750D01*
X11602006Y-8736750D02*
X11592482Y-8746274D01*
X11802006Y-8860560D02*
X11782959Y-8851036D01*
X11782959Y-8851036D02*
X11773435Y-8841512D01*
X11773435Y-8841512D02*
X11763911Y-8822464D01*
X11763911Y-8822464D02*
X11763911Y-8765322D01*
X11763911Y-8765322D02*
X11773435Y-8746274D01*
X11773435Y-8746274D02*
X11782959Y-8736750D01*
X11782959Y-8736750D02*
X11802006Y-8727226D01*
X11802006Y-8727226D02*
X11830578Y-8727226D01*
X11830578Y-8727226D02*
X11849625Y-8736750D01*
X11849625Y-8736750D02*
X11859149Y-8746274D01*
X11859149Y-8746274D02*
X11868673Y-8765322D01*
X11868673Y-8765322D02*
X11868673Y-8822464D01*
X11868673Y-8822464D02*
X11859149Y-8841512D01*
X11859149Y-8841512D02*
X11849625Y-8851036D01*
X11849625Y-8851036D02*
X11830578Y-8860560D01*
X11830578Y-8860560D02*
X11802006Y-8860560D01*
X11982959Y-8860560D02*
X11963911Y-8851036D01*
X11963911Y-8851036D02*
X11954387Y-8831988D01*
X11954387Y-8831988D02*
X11954387Y-8660560D01*
X12135340Y-8851036D02*
X12116292Y-8860560D01*
X12116292Y-8860560D02*
X12078197Y-8860560D01*
X12078197Y-8860560D02*
X12059149Y-8851036D01*
X12059149Y-8851036D02*
X12049625Y-8831988D01*
X12049625Y-8831988D02*
X12049625Y-8755798D01*
X12049625Y-8755798D02*
X12059149Y-8736750D01*
X12059149Y-8736750D02*
X12078197Y-8727226D01*
X12078197Y-8727226D02*
X12116292Y-8727226D01*
X12116292Y-8727226D02*
X12135340Y-8736750D01*
X12135340Y-8736750D02*
X12144863Y-8755798D01*
X12144863Y-8755798D02*
X12144863Y-8774845D01*
X12144863Y-8774845D02*
X12049625Y-8793893D01*
X12221054Y-8851036D02*
X12240101Y-8860560D01*
X12240101Y-8860560D02*
X12278197Y-8860560D01*
X12278197Y-8860560D02*
X12297244Y-8851036D01*
X12297244Y-8851036D02*
X12306768Y-8831988D01*
X12306768Y-8831988D02*
X12306768Y-8822464D01*
X12306768Y-8822464D02*
X12297244Y-8803417D01*
X12297244Y-8803417D02*
X12278197Y-8793893D01*
X12278197Y-8793893D02*
X12249625Y-8793893D01*
X12249625Y-8793893D02*
X12230578Y-8784369D01*
X12230578Y-8784369D02*
X12221054Y-8765322D01*
X12221054Y-8765322D02*
X12221054Y-8755798D01*
X12221054Y-8755798D02*
X12230578Y-8736750D01*
X12230578Y-8736750D02*
X12249625Y-8727226D01*
X12249625Y-8727226D02*
X12278197Y-8727226D01*
X12278197Y-8727226D02*
X12297244Y-8736750D01*
X12373435Y-8936750D02*
X12382959Y-8927226D01*
X12382959Y-8927226D02*
X12402006Y-8898655D01*
X12402006Y-8898655D02*
X12411530Y-8879607D01*
X12411530Y-8879607D02*
X12421054Y-8851036D01*
X12421054Y-8851036D02*
X12430578Y-8803417D01*
X12430578Y-8803417D02*
X12430578Y-8765322D01*
X12430578Y-8765322D02*
X12421054Y-8717702D01*
X12421054Y-8717702D02*
X12411530Y-8689131D01*
X12411530Y-8689131D02*
X12402006Y-8670083D01*
X12402006Y-8670083D02*
X12382959Y-8641512D01*
X12382959Y-8641512D02*
X12373435Y-8631988D01*
M02*
