%TF.GenerationSoftware,KiCad,Pcbnew,8.0.2*%
%TF.CreationDate,2024-08-31T13:36:28-07:00*%
%TF.ProjectId,GCU-ADU,4743552d-4144-4552-9e6b-696361645f70,rev?*%
%TF.SameCoordinates,Original*%
%TF.FileFunction,Copper,L2,Bot*%
%TF.FilePolarity,Positive*%
%FSLAX46Y46*%
G04 Gerber Fmt 4.6, Leading zero omitted, Abs format (unit mm)*
G04 Created by KiCad (PCBNEW 8.0.2) date 2024-08-31 13:36:28*
%MOMM*%
%LPD*%
G01*
G04 APERTURE LIST*
G04 Aperture macros list*
%AMRoundRect*
0 Rectangle with rounded corners*
0 $1 Rounding radius*
0 $2 $3 $4 $5 $6 $7 $8 $9 X,Y pos of 4 corners*
0 Add a 4 corners polygon primitive as box body*
4,1,4,$2,$3,$4,$5,$6,$7,$8,$9,$2,$3,0*
0 Add four circle primitives for the rounded corners*
1,1,$1+$1,$2,$3*
1,1,$1+$1,$4,$5*
1,1,$1+$1,$6,$7*
1,1,$1+$1,$8,$9*
0 Add four rect primitives between the rounded corners*
20,1,$1+$1,$2,$3,$4,$5,0*
20,1,$1+$1,$4,$5,$6,$7,0*
20,1,$1+$1,$6,$7,$8,$9,0*
20,1,$1+$1,$8,$9,$2,$3,0*%
G04 Aperture macros list end*
%TA.AperFunction,ConnectorPad*%
%ADD10RoundRect,0.062500X0.937500X-0.062500X0.937500X0.062500X-0.937500X0.062500X-0.937500X-0.062500X0*%
%TD*%
%TA.AperFunction,ViaPad*%
%ADD11C,0.750000*%
%TD*%
%TA.AperFunction,Conductor*%
%ADD12C,0.200000*%
%TD*%
G04 APERTURE END LIST*
D10*
%TO.P,PINS1,1,1*%
%TO.N,X1*%
X77038200Y-78070200D03*
%TO.P,PINS1,2,2*%
%TO.N,X5*%
X77038200Y-78570200D03*
%TO.P,PINS1,3,3*%
%TO.N,X6*%
X77038200Y-79070200D03*
%TO.P,PINS1,4,4*%
%TO.N,X2*%
X77038200Y-79570200D03*
%TO.P,PINS1,5,5*%
%TO.N,X3*%
X77038200Y-80070200D03*
%TO.P,PINS1,6,6*%
%TO.N,X4*%
X77038200Y-80570200D03*
%TD*%
D11*
%TO.N,X4*%
X96443800Y-73228200D03*
%TO.N,X3*%
X112852200Y-67335400D03*
%TO.N,X2*%
X97891600Y-70612000D03*
%TO.N,X6*%
X88417400Y-75768200D03*
%TO.N,X5*%
X87376000Y-75793600D03*
%TO.N,X1*%
X98120200Y-66090800D03*
%TD*%
D12*
%TO.N,X4*%
X95377000Y-73228200D02*
X96443800Y-73228200D01*
X90627200Y-77978000D02*
X95377000Y-73228200D01*
X89941400Y-78663800D02*
X90627200Y-77978000D01*
X84861400Y-78663800D02*
X85801200Y-78663800D01*
X82955000Y-80570200D02*
X83489800Y-80035400D01*
X85801200Y-78663800D02*
X89941400Y-78663800D01*
X83489800Y-80035400D02*
X84861400Y-78663800D01*
X77038200Y-80570200D02*
X82955000Y-80570200D01*
%TO.N,X3*%
X111734600Y-68453000D02*
X112852200Y-67335400D01*
X111531400Y-68453000D02*
X111734600Y-68453000D01*
X102311200Y-68453000D02*
X111531400Y-68453000D01*
X100177600Y-70586600D02*
X102311200Y-68453000D01*
X99060000Y-71704200D02*
X100177600Y-70586600D01*
X98196400Y-71704200D02*
X99060000Y-71704200D01*
X96291400Y-71704200D02*
X98196400Y-71704200D01*
X85699600Y-78257400D02*
X89738200Y-78257400D01*
X84632800Y-78257400D02*
X85699600Y-78257400D01*
X90449400Y-77546200D02*
X96291400Y-71704200D01*
X82820000Y-80070200D02*
X83261200Y-79629000D01*
X83261200Y-79629000D02*
X84632800Y-78257400D01*
X89738200Y-78257400D02*
X90449400Y-77546200D01*
X77038200Y-80070200D02*
X82820000Y-80070200D01*
%TO.N,X2*%
X85039200Y-77825600D02*
X89585800Y-77825600D01*
X89585800Y-77825600D02*
X90703400Y-76708000D01*
X90703400Y-76708000D02*
X96799400Y-70612000D01*
X84480400Y-77825600D02*
X85039200Y-77825600D01*
X83210400Y-79095600D02*
X84480400Y-77825600D01*
X96799400Y-70612000D02*
X97891600Y-70612000D01*
X82735800Y-79570200D02*
X83210400Y-79095600D01*
X77038200Y-79570200D02*
X82735800Y-79570200D01*
%TO.N,X6*%
X86817200Y-77368400D02*
X88417400Y-75768200D01*
X84937600Y-77368400D02*
X86817200Y-77368400D01*
X84277200Y-77368400D02*
X84937600Y-77368400D01*
X82575400Y-79070200D02*
X83159600Y-78486000D01*
X83159600Y-78486000D02*
X84277200Y-77368400D01*
X77038200Y-79070200D02*
X82575400Y-79070200D01*
%TO.N,X5*%
X86258400Y-76911200D02*
X87376000Y-75793600D01*
X84124800Y-76911200D02*
X84582000Y-76911200D01*
X84582000Y-76911200D02*
X86258400Y-76911200D01*
X82956400Y-78079600D02*
X84124800Y-76911200D01*
X82465800Y-78570200D02*
X82956400Y-78079600D01*
X77038200Y-78570200D02*
X82465800Y-78570200D01*
%TO.N,X1*%
X95478600Y-68732400D02*
X98120200Y-66090800D01*
X93319600Y-68732400D02*
X95478600Y-68732400D01*
X83921600Y-76479400D02*
X85572600Y-76479400D01*
X77038200Y-78070200D02*
X82330800Y-78070200D01*
X82330800Y-78070200D02*
X83921600Y-76479400D01*
X85572600Y-76479400D02*
X93319600Y-68732400D01*
%TD*%
%TA.AperFunction,NonConductor*%
G36*
X88073545Y-79283985D02*
G01*
X88119300Y-79336789D01*
X88129244Y-79405947D01*
X88101501Y-79467999D01*
X88025934Y-79558067D01*
X87938407Y-79709688D01*
X87878541Y-79874198D01*
X87848149Y-80046604D01*
X87848149Y-80046608D01*
X87848153Y-80123941D01*
X87848153Y-80351299D01*
X87828468Y-80418338D01*
X87775664Y-80464093D01*
X87724153Y-80475299D01*
X84198498Y-80475299D01*
X84131459Y-80455614D01*
X84085704Y-80402810D01*
X84075760Y-80333652D01*
X84104785Y-80270096D01*
X84110817Y-80263618D01*
X84553467Y-79820968D01*
X85257744Y-79820968D01*
X85414075Y-79977299D01*
X85452549Y-79977299D01*
X85667548Y-79762300D01*
X86613289Y-79762300D01*
X86828288Y-79977299D01*
X86866762Y-79977299D01*
X87081761Y-79762300D01*
X86613289Y-79762300D01*
X85667548Y-79762300D01*
X85316413Y-79762300D01*
X85257744Y-79820968D01*
X84553467Y-79820968D01*
X85073816Y-79300619D01*
X85135139Y-79267134D01*
X85161497Y-79264300D01*
X85722143Y-79264300D01*
X88006506Y-79264300D01*
X88073545Y-79283985D01*
G37*
%TD.AperFunction*%
%TA.AperFunction,NonConductor*%
G36*
X105889415Y-49414746D02*
G01*
X105934835Y-49417994D01*
X106089554Y-49429059D01*
X106107057Y-49431576D01*
X106298788Y-49473284D01*
X106315747Y-49478263D01*
X106499605Y-49546839D01*
X106515679Y-49554180D01*
X106687902Y-49648222D01*
X106702778Y-49657783D01*
X106859844Y-49775361D01*
X106873216Y-49786947D01*
X107011957Y-49925690D01*
X107023543Y-49939062D01*
X107141124Y-50096135D01*
X107150688Y-50111018D01*
X107244719Y-50283225D01*
X107252069Y-50299318D01*
X107320635Y-50483155D01*
X107325619Y-50500130D01*
X107367324Y-50691847D01*
X107369842Y-50709361D01*
X107384174Y-50909789D01*
X107384490Y-50918633D01*
X107384490Y-50989795D01*
X107384491Y-50989808D01*
X107384491Y-55482121D01*
X107384489Y-55482155D01*
X107384489Y-55504249D01*
X107384468Y-55504320D01*
X107384470Y-55662947D01*
X107415021Y-55875401D01*
X107475494Y-56081341D01*
X107564660Y-56276582D01*
X107564666Y-56276591D01*
X107629701Y-56377785D01*
X107680705Y-56457145D01*
X107821264Y-56619356D01*
X107943049Y-56724882D01*
X107983470Y-56759907D01*
X107983479Y-56759914D01*
X108138795Y-56859728D01*
X108164041Y-56875952D01*
X108164047Y-56875954D01*
X108164053Y-56875958D01*
X108359276Y-56965113D01*
X108359280Y-56965114D01*
X108359282Y-56965115D01*
X108565225Y-57025585D01*
X108777677Y-57056131D01*
X108819105Y-57056131D01*
X109083400Y-57056131D01*
X109150439Y-57075816D01*
X109196194Y-57128620D01*
X109206138Y-57197778D01*
X109180348Y-57257443D01*
X109166037Y-57275387D01*
X109038605Y-57496108D01*
X108945489Y-57733361D01*
X108945487Y-57733368D01*
X108888774Y-57981844D01*
X108869729Y-58235994D01*
X108869729Y-58236003D01*
X108888774Y-58490153D01*
X108940875Y-58718424D01*
X108945489Y-58738636D01*
X109038604Y-58975887D01*
X109166038Y-59196611D01*
X109324947Y-59395876D01*
X109511780Y-59569231D01*
X109722363Y-59712804D01*
X109722368Y-59712806D01*
X109722369Y-59712807D01*
X109722370Y-59712808D01*
X109802471Y-59751382D01*
X109951989Y-59823386D01*
X109951990Y-59823386D01*
X109951993Y-59823388D01*
X110195539Y-59898512D01*
X110447562Y-59936499D01*
X110702432Y-59936499D01*
X110918808Y-59903885D01*
X112009708Y-59903885D01*
X112303369Y-60197546D01*
X112531237Y-59969678D01*
X113489715Y-59969678D01*
X113717583Y-60197546D01*
X113857681Y-60057447D01*
X114991697Y-60057447D01*
X115131796Y-60197546D01*
X115271896Y-60057447D01*
X116405911Y-60057447D01*
X116546010Y-60197546D01*
X116686109Y-60057447D01*
X117820124Y-60057447D01*
X117960223Y-60197546D01*
X118100323Y-60057447D01*
X119234338Y-60057447D01*
X119374437Y-60197546D01*
X119514536Y-60057447D01*
X119234338Y-60057447D01*
X118100323Y-60057447D01*
X117820124Y-60057447D01*
X116686109Y-60057447D01*
X116405911Y-60057447D01*
X115271896Y-60057447D01*
X114991697Y-60057447D01*
X113857681Y-60057447D01*
X113867176Y-60047952D01*
X113677584Y-60020759D01*
X113673220Y-60020053D01*
X113664454Y-60018475D01*
X113660128Y-60017617D01*
X113642791Y-60013855D01*
X113638484Y-60012840D01*
X113629857Y-60010643D01*
X113625605Y-60009479D01*
X113489715Y-59969678D01*
X112531237Y-59969678D01*
X112658337Y-59842578D01*
X112350929Y-59535170D01*
X112208591Y-59713656D01*
X112205639Y-59717219D01*
X112199542Y-59724305D01*
X112196445Y-59727771D01*
X112183772Y-59741429D01*
X112180555Y-59744768D01*
X112173941Y-59751382D01*
X112170601Y-59754600D01*
X112009708Y-59903885D01*
X110918808Y-59903885D01*
X110954455Y-59898512D01*
X111198001Y-59823388D01*
X111418463Y-59717219D01*
X111427623Y-59712808D01*
X111427623Y-59712807D01*
X111427631Y-59712804D01*
X111638214Y-59569231D01*
X111825047Y-59395876D01*
X111983956Y-59196611D01*
X112111390Y-58975887D01*
X112204505Y-58738636D01*
X112261219Y-58490156D01*
X112270133Y-58371201D01*
X112280265Y-58236003D01*
X112280265Y-58235994D01*
X112261219Y-57981844D01*
X112253045Y-57946032D01*
X112204505Y-57733362D01*
X112111390Y-57496111D01*
X111983956Y-57275387D01*
X111969645Y-57257442D01*
X111943238Y-57192756D01*
X111955995Y-57124061D01*
X112003866Y-57073167D01*
X112066594Y-57056131D01*
X112069122Y-57056131D01*
X112083039Y-57056914D01*
X112173602Y-57067144D01*
X112200736Y-57073354D01*
X112280112Y-57101206D01*
X112305173Y-57113310D01*
X112376338Y-57158168D01*
X112398065Y-57175556D01*
X112457430Y-57235159D01*
X112474737Y-57256964D01*
X112519304Y-57328301D01*
X112531310Y-57353416D01*
X112558841Y-57432899D01*
X112564942Y-57460060D01*
X112574825Y-57550818D01*
X112575553Y-57564741D01*
X112575294Y-57628974D01*
X112575578Y-57633430D01*
X112575578Y-57988845D01*
X112575311Y-57993038D01*
X112575387Y-58013019D01*
X112575377Y-58013052D01*
X112575379Y-58013052D01*
X112575577Y-58068169D01*
X112575578Y-58068614D01*
X112575578Y-58134415D01*
X112575827Y-58138125D01*
X112575948Y-58171607D01*
X112607146Y-58383456D01*
X112629033Y-58457155D01*
X112659114Y-58558447D01*
X112668105Y-58588720D01*
X112668107Y-58588726D01*
X112757582Y-58783242D01*
X112757589Y-58783254D01*
X112873789Y-58963117D01*
X113014342Y-59124653D01*
X113014344Y-59124655D01*
X113121072Y-59216817D01*
X113176411Y-59264603D01*
X113356702Y-59380121D01*
X113356706Y-59380123D01*
X113551575Y-59468876D01*
X113757071Y-59529063D01*
X113969031Y-59559465D01*
X114076095Y-59559447D01*
X114141988Y-59559447D01*
X120703006Y-59559447D01*
X120762640Y-59559447D01*
X120775117Y-59560076D01*
X120806469Y-59563246D01*
X120856434Y-59568300D01*
X120880876Y-59573295D01*
X120952907Y-59595766D01*
X120975845Y-59605552D01*
X121020616Y-59630244D01*
X121041908Y-59641987D01*
X121062436Y-59656176D01*
X121124911Y-59709400D01*
X121134000Y-59717970D01*
X121178076Y-59763938D01*
X121182757Y-59768196D01*
X123945661Y-62616770D01*
X123953641Y-62625843D01*
X123983649Y-62663514D01*
X124002874Y-62687648D01*
X124015988Y-62707871D01*
X124049543Y-62772650D01*
X124058496Y-62795026D01*
X124078885Y-62865066D01*
X124083341Y-62888755D01*
X124090317Y-62967304D01*
X124090798Y-62979358D01*
X124090250Y-63042001D01*
X124090831Y-63051494D01*
X124090831Y-73008064D01*
X124090830Y-73008082D01*
X124090830Y-73077820D01*
X124090604Y-73085305D01*
X124073063Y-73375358D01*
X124071258Y-73390223D01*
X124019561Y-73672346D01*
X124015978Y-73686886D01*
X123930647Y-73960729D01*
X123925337Y-73974729D01*
X123807623Y-74236285D01*
X123800664Y-74249544D01*
X123746177Y-74339681D01*
X123652282Y-74495005D01*
X123643775Y-74507328D01*
X123466892Y-74733106D01*
X123456963Y-74744315D01*
X123254141Y-74947140D01*
X123242933Y-74957069D01*
X123017154Y-75133957D01*
X123004830Y-75142464D01*
X122759366Y-75290853D01*
X122746108Y-75297811D01*
X122484554Y-75415529D01*
X122470552Y-75420839D01*
X122196722Y-75506167D01*
X122182184Y-75509751D01*
X121900051Y-75561454D01*
X121885186Y-75563259D01*
X121595713Y-75580770D01*
X121588226Y-75580996D01*
X107977959Y-75580996D01*
X107977956Y-75580995D01*
X107926596Y-75580995D01*
X107814249Y-75580995D01*
X107814245Y-75580995D01*
X107590979Y-75606152D01*
X107590967Y-75606154D01*
X107371913Y-75656152D01*
X107371904Y-75656154D01*
X107159827Y-75730364D01*
X107159820Y-75730367D01*
X106957378Y-75827860D01*
X106767127Y-75947406D01*
X106767116Y-75947413D01*
X106591455Y-76087501D01*
X106572923Y-76106034D01*
X106542042Y-76136916D01*
X102335823Y-80343133D01*
X102329861Y-80348715D01*
X102190656Y-80470690D01*
X102177705Y-80480611D01*
X102027095Y-80580986D01*
X102012953Y-80589121D01*
X101850478Y-80668850D01*
X101835390Y-80675059D01*
X101663838Y-80732771D01*
X101648066Y-80736944D01*
X101470434Y-80771633D01*
X101454251Y-80773700D01*
X101269609Y-80785013D01*
X101261452Y-80785244D01*
X101230975Y-80785102D01*
X101199547Y-80784957D01*
X101199545Y-80784957D01*
X101194469Y-80784934D01*
X101189342Y-80785258D01*
X91473153Y-80785258D01*
X91406114Y-80765573D01*
X91360359Y-80712769D01*
X91349153Y-80661258D01*
X91349153Y-80202622D01*
X91349814Y-80191681D01*
X91349795Y-80189831D01*
X91349796Y-80189829D01*
X91349159Y-80127091D01*
X91349153Y-80125833D01*
X91349153Y-80061092D01*
X91348405Y-80050459D01*
X91348338Y-80043477D01*
X91847043Y-80043477D01*
X91847153Y-80046812D01*
X91847153Y-80123911D01*
X91847936Y-80201087D01*
X91847752Y-80209201D01*
X91847153Y-80220018D01*
X91847153Y-80287258D01*
X92090824Y-80287258D01*
X92917935Y-80287258D01*
X93505037Y-80287258D01*
X94332149Y-80287258D01*
X94919251Y-80287258D01*
X95746362Y-80287258D01*
X96333464Y-80287258D01*
X97160576Y-80287258D01*
X97747678Y-80287258D01*
X98574789Y-80287258D01*
X99161892Y-80287258D01*
X99989003Y-80287258D01*
X100576105Y-80287258D01*
X100563794Y-80274947D01*
X101415527Y-80274947D01*
X101528417Y-80252901D01*
X101653232Y-80210913D01*
X101771426Y-80152913D01*
X101822161Y-80119100D01*
X101696768Y-79993707D01*
X101415527Y-80274947D01*
X100563794Y-80274947D01*
X100282554Y-79993707D01*
X99989003Y-80287258D01*
X99161892Y-80287258D01*
X98868340Y-79993706D01*
X98574789Y-80287258D01*
X97747678Y-80287258D01*
X97454127Y-79993707D01*
X97160576Y-80287258D01*
X96333464Y-80287258D01*
X96039913Y-79993707D01*
X95746362Y-80287258D01*
X94919251Y-80287258D01*
X94625700Y-79993707D01*
X94332149Y-80287258D01*
X93505037Y-80287258D01*
X93211486Y-79993707D01*
X92917935Y-80287258D01*
X92090824Y-80287258D01*
X91847043Y-80043477D01*
X91348338Y-80043477D01*
X91348276Y-80036983D01*
X91348276Y-80036980D01*
X91316528Y-79865972D01*
X91314572Y-79860728D01*
X91255755Y-79703014D01*
X91255754Y-79703013D01*
X91255752Y-79703006D01*
X91219724Y-79641568D01*
X92149411Y-79641568D01*
X92504379Y-79996536D01*
X92859347Y-79641568D01*
X93563625Y-79641568D01*
X93918593Y-79996536D01*
X94273561Y-79641568D01*
X94977838Y-79641568D01*
X95332806Y-79996536D01*
X95687775Y-79641568D01*
X96392052Y-79641568D01*
X96747020Y-79996536D01*
X97101988Y-79641568D01*
X97806266Y-79641568D01*
X98161234Y-79996536D01*
X98516202Y-79641568D01*
X99220479Y-79641568D01*
X99575447Y-79996536D01*
X99930415Y-79641568D01*
X100634693Y-79641568D01*
X100989661Y-79996536D01*
X101344629Y-79641568D01*
X102048906Y-79641568D01*
X102191007Y-79783669D01*
X102545975Y-79428701D01*
X102403874Y-79286600D01*
X102048906Y-79641568D01*
X101344629Y-79641568D01*
X100989661Y-79286600D01*
X100634693Y-79641568D01*
X99930415Y-79641568D01*
X99575447Y-79286600D01*
X99220479Y-79641568D01*
X98516202Y-79641568D01*
X98161234Y-79286600D01*
X97806266Y-79641568D01*
X97101988Y-79641568D01*
X96747020Y-79286600D01*
X96392052Y-79641568D01*
X95687775Y-79641568D01*
X95332806Y-79286599D01*
X94977838Y-79641568D01*
X94273561Y-79641568D01*
X93918593Y-79286600D01*
X93563625Y-79641568D01*
X92859347Y-79641568D01*
X92504379Y-79286599D01*
X92149411Y-79641568D01*
X91219724Y-79641568D01*
X91167769Y-79552971D01*
X91055218Y-79420366D01*
X90921477Y-79309169D01*
X90770555Y-79222715D01*
X90770552Y-79222714D01*
X90770547Y-79222711D01*
X90606979Y-79163596D01*
X90606980Y-79163596D01*
X90572911Y-79157628D01*
X90510274Y-79126671D01*
X90474316Y-79066764D01*
X90476455Y-78996927D01*
X90506624Y-78947810D01*
X90519973Y-78934461D01*
X91442304Y-78934461D01*
X91797273Y-79289430D01*
X92152241Y-78934461D01*
X92856517Y-78934461D01*
X93211486Y-79289430D01*
X93566454Y-78934461D01*
X94270731Y-78934461D01*
X94625700Y-79289430D01*
X94980668Y-78934461D01*
X95684944Y-78934461D01*
X96039913Y-79289430D01*
X96394881Y-78934461D01*
X97099158Y-78934461D01*
X97454127Y-79289430D01*
X97809095Y-78934461D01*
X98513371Y-78934461D01*
X98868340Y-79289430D01*
X99223308Y-78934461D01*
X99927585Y-78934461D01*
X100282554Y-79289430D01*
X100637522Y-78934461D01*
X101341799Y-78934461D01*
X101696768Y-79289430D01*
X102051736Y-78934461D01*
X102756012Y-78934461D01*
X102898114Y-79076563D01*
X103253082Y-78721594D01*
X103110980Y-78579493D01*
X102756012Y-78934461D01*
X102051736Y-78934461D01*
X101696768Y-78579493D01*
X101341799Y-78934461D01*
X100637522Y-78934461D01*
X100282554Y-78579493D01*
X99927585Y-78934461D01*
X99223308Y-78934461D01*
X98868340Y-78579493D01*
X98513371Y-78934461D01*
X97809095Y-78934461D01*
X97454127Y-78579493D01*
X97099158Y-78934461D01*
X96394881Y-78934461D01*
X96039913Y-78579493D01*
X95684944Y-78934461D01*
X94980668Y-78934461D01*
X94625700Y-78579493D01*
X94270731Y-78934461D01*
X93566454Y-78934461D01*
X93211486Y-78579493D01*
X92856517Y-78934461D01*
X92152241Y-78934461D01*
X91797273Y-78579493D01*
X91442304Y-78934461D01*
X90519973Y-78934461D01*
X91107720Y-78346716D01*
X91107720Y-78346714D01*
X91117924Y-78336511D01*
X91117927Y-78336506D01*
X91227078Y-78227355D01*
X92149411Y-78227355D01*
X92504379Y-78582323D01*
X92859347Y-78227355D01*
X93563625Y-78227355D01*
X93918593Y-78582323D01*
X94273561Y-78227355D01*
X94977838Y-78227355D01*
X95332806Y-78582323D01*
X95687775Y-78227355D01*
X96392052Y-78227355D01*
X96747020Y-78582323D01*
X97101988Y-78227355D01*
X97806266Y-78227355D01*
X98161234Y-78582323D01*
X98516202Y-78227355D01*
X99220479Y-78227355D01*
X99575447Y-78582323D01*
X99930415Y-78227355D01*
X100634693Y-78227355D01*
X100989661Y-78582323D01*
X101344629Y-78227355D01*
X102048906Y-78227355D01*
X102403874Y-78582323D01*
X102758842Y-78227355D01*
X103463120Y-78227355D01*
X103605221Y-78369456D01*
X103960189Y-78014488D01*
X103818088Y-77872387D01*
X103463120Y-78227355D01*
X102758842Y-78227355D01*
X102403874Y-77872387D01*
X102048906Y-78227355D01*
X101344629Y-78227355D01*
X100989661Y-77872387D01*
X100634693Y-78227355D01*
X99930415Y-78227355D01*
X99575447Y-77872387D01*
X99220479Y-78227355D01*
X98516202Y-78227355D01*
X98161234Y-77872387D01*
X97806266Y-78227355D01*
X97101988Y-78227355D01*
X96747020Y-77872387D01*
X96392052Y-78227355D01*
X95687775Y-78227355D01*
X95332806Y-77872386D01*
X94977838Y-78227355D01*
X94273561Y-78227355D01*
X93918593Y-77872387D01*
X93563625Y-78227355D01*
X92859347Y-78227355D01*
X92504379Y-77872386D01*
X92149411Y-78227355D01*
X91227078Y-78227355D01*
X91934185Y-77520248D01*
X92856518Y-77520248D01*
X93211486Y-77875216D01*
X93566454Y-77520248D01*
X94270732Y-77520248D01*
X94625700Y-77875216D01*
X94980668Y-77520248D01*
X95684945Y-77520248D01*
X96039913Y-77875216D01*
X96394881Y-77520248D01*
X97099159Y-77520248D01*
X97454127Y-77875216D01*
X97809095Y-77520248D01*
X98513372Y-77520248D01*
X98868340Y-77875216D01*
X99223308Y-77520248D01*
X99927586Y-77520248D01*
X100282554Y-77875216D01*
X100637522Y-77520248D01*
X101341800Y-77520248D01*
X101696768Y-77875216D01*
X102051736Y-77520248D01*
X102756013Y-77520248D01*
X103110981Y-77875216D01*
X103465949Y-77520248D01*
X104170227Y-77520248D01*
X104312328Y-77662349D01*
X104667296Y-77307381D01*
X104525195Y-77165280D01*
X104170227Y-77520248D01*
X103465949Y-77520248D01*
X103110981Y-77165280D01*
X102756013Y-77520248D01*
X102051736Y-77520248D01*
X101696768Y-77165280D01*
X101341800Y-77520248D01*
X100637522Y-77520248D01*
X100282554Y-77165280D01*
X99927586Y-77520248D01*
X99223308Y-77520248D01*
X98868340Y-77165279D01*
X98513372Y-77520248D01*
X97809095Y-77520248D01*
X97454127Y-77165280D01*
X97099159Y-77520248D01*
X96394881Y-77520248D01*
X96039913Y-77165280D01*
X95684945Y-77520248D01*
X94980668Y-77520248D01*
X94625700Y-77165280D01*
X94270732Y-77520248D01*
X93566454Y-77520248D01*
X93211486Y-77165280D01*
X92856518Y-77520248D01*
X91934185Y-77520248D01*
X92641293Y-76813141D01*
X93563625Y-76813141D01*
X93918593Y-77168109D01*
X94273561Y-76813141D01*
X94977838Y-76813141D01*
X95332806Y-77168109D01*
X95687775Y-76813141D01*
X96392052Y-76813141D01*
X96747020Y-77168109D01*
X97101988Y-76813141D01*
X97806266Y-76813141D01*
X98161234Y-77168109D01*
X98516202Y-76813141D01*
X99220479Y-76813141D01*
X99575447Y-77168109D01*
X99930415Y-76813141D01*
X100634693Y-76813141D01*
X100989661Y-77168109D01*
X101344629Y-76813141D01*
X102048906Y-76813141D01*
X102403874Y-77168109D01*
X102758842Y-76813141D01*
X103463120Y-76813141D01*
X103818088Y-77168109D01*
X104173056Y-76813141D01*
X104877333Y-76813141D01*
X105019435Y-76955243D01*
X105374403Y-76600274D01*
X105232301Y-76458172D01*
X104877333Y-76813141D01*
X104173056Y-76813141D01*
X103818088Y-76458173D01*
X103463120Y-76813141D01*
X102758842Y-76813141D01*
X102403874Y-76458173D01*
X102048906Y-76813141D01*
X101344629Y-76813141D01*
X100989661Y-76458173D01*
X100634693Y-76813141D01*
X99930415Y-76813141D01*
X99575447Y-76458173D01*
X99220479Y-76813141D01*
X98516202Y-76813141D01*
X98161234Y-76458173D01*
X97806266Y-76813141D01*
X97101988Y-76813141D01*
X96747020Y-76458173D01*
X96392052Y-76813141D01*
X95687775Y-76813141D01*
X95332806Y-76458172D01*
X94977838Y-76813141D01*
X94273561Y-76813141D01*
X93918593Y-76458173D01*
X93563625Y-76813141D01*
X92641293Y-76813141D01*
X93348400Y-76106034D01*
X94270732Y-76106034D01*
X94625700Y-76461002D01*
X94980668Y-76106034D01*
X95684945Y-76106034D01*
X96039913Y-76461002D01*
X96394881Y-76106034D01*
X97099159Y-76106034D01*
X97454127Y-76461002D01*
X97809095Y-76106034D01*
X98513372Y-76106034D01*
X98868340Y-76461002D01*
X99223308Y-76106034D01*
X99927586Y-76106034D01*
X100282554Y-76461002D01*
X100637522Y-76106034D01*
X101341800Y-76106034D01*
X101696768Y-76461002D01*
X102051736Y-76106034D01*
X102756013Y-76106034D01*
X103110981Y-76461002D01*
X103465949Y-76106034D01*
X104170227Y-76106034D01*
X104525195Y-76461002D01*
X104880163Y-76106034D01*
X105584440Y-76106034D01*
X105726542Y-76248136D01*
X106081510Y-75893168D01*
X105939408Y-75751066D01*
X105584440Y-76106034D01*
X104880163Y-76106034D01*
X104525195Y-75751066D01*
X104170227Y-76106034D01*
X103465949Y-76106034D01*
X103110981Y-75751066D01*
X102756013Y-76106034D01*
X102051736Y-76106034D01*
X101696768Y-75751066D01*
X101341800Y-76106034D01*
X100637522Y-76106034D01*
X100282554Y-75751066D01*
X99927586Y-76106034D01*
X99223308Y-76106034D01*
X98868340Y-75751065D01*
X98513372Y-76106034D01*
X97809095Y-76106034D01*
X97454127Y-75751066D01*
X97099159Y-76106034D01*
X96394881Y-76106034D01*
X96039913Y-75751066D01*
X95684945Y-76106034D01*
X94980668Y-76106034D01*
X94625700Y-75751066D01*
X94270732Y-76106034D01*
X93348400Y-76106034D01*
X94055507Y-75398928D01*
X94977838Y-75398928D01*
X95332806Y-75753896D01*
X95687775Y-75398928D01*
X96392052Y-75398928D01*
X96747020Y-75753896D01*
X97101988Y-75398928D01*
X97806266Y-75398928D01*
X98161234Y-75753896D01*
X98516202Y-75398928D01*
X99220479Y-75398928D01*
X99575447Y-75753896D01*
X99930415Y-75398928D01*
X100634693Y-75398928D01*
X100989661Y-75753896D01*
X101344629Y-75398928D01*
X102048906Y-75398928D01*
X102403874Y-75753896D01*
X102653133Y-75504637D01*
X103568829Y-75504637D01*
X103818088Y-75753896D01*
X103997485Y-75574499D01*
X105052904Y-75574499D01*
X105232301Y-75753896D01*
X105411698Y-75574499D01*
X105052904Y-75574499D01*
X103997485Y-75574499D01*
X103926591Y-75574499D01*
X103921182Y-75574381D01*
X103910280Y-75573905D01*
X103904880Y-75573551D01*
X103883224Y-75571656D01*
X103877844Y-75571067D01*
X103867030Y-75569643D01*
X103861686Y-75568820D01*
X103667871Y-75534644D01*
X103662559Y-75533587D01*
X103651903Y-75531224D01*
X103646650Y-75529939D01*
X103625653Y-75524312D01*
X103620465Y-75522799D01*
X103610065Y-75519520D01*
X103604940Y-75517781D01*
X103568829Y-75504637D01*
X102653133Y-75504637D01*
X102758842Y-75398928D01*
X102758841Y-75398927D01*
X106291546Y-75398927D01*
X106453314Y-75560695D01*
X106462090Y-75553698D01*
X106464845Y-75551564D01*
X106470457Y-75547341D01*
X106473267Y-75545287D01*
X106484662Y-75537203D01*
X106487521Y-75535235D01*
X106493343Y-75531345D01*
X106496259Y-75529455D01*
X106698337Y-75402478D01*
X106701313Y-75400666D01*
X106707352Y-75397104D01*
X106710362Y-75395384D01*
X106722590Y-75388625D01*
X106725657Y-75386986D01*
X106731889Y-75383766D01*
X106735007Y-75382210D01*
X106903582Y-75301027D01*
X106658812Y-75056257D01*
X106614372Y-75109668D01*
X106610840Y-75113731D01*
X106603548Y-75121759D01*
X106599848Y-75125659D01*
X106584640Y-75141009D01*
X106580777Y-75144742D01*
X106572818Y-75152108D01*
X106568790Y-75155677D01*
X106419588Y-75282197D01*
X106415413Y-75285584D01*
X106406849Y-75292230D01*
X106402534Y-75295432D01*
X106384906Y-75307927D01*
X106380450Y-75310942D01*
X106377860Y-75312613D01*
X106291546Y-75398927D01*
X102758841Y-75398927D01*
X102403874Y-75043960D01*
X102048906Y-75398928D01*
X101344629Y-75398928D01*
X100989661Y-75043960D01*
X100634693Y-75398928D01*
X99930415Y-75398928D01*
X99575447Y-75043960D01*
X99220479Y-75398928D01*
X98516202Y-75398928D01*
X98161234Y-75043960D01*
X97806266Y-75398928D01*
X97101988Y-75398928D01*
X96747020Y-75043960D01*
X96392052Y-75398928D01*
X95687775Y-75398928D01*
X95332806Y-75043959D01*
X94977838Y-75398928D01*
X94055507Y-75398928D01*
X94762615Y-74691820D01*
X95684944Y-74691820D01*
X96039913Y-75046789D01*
X96394881Y-74691821D01*
X97099159Y-74691821D01*
X97454127Y-75046789D01*
X97809095Y-74691821D01*
X98513372Y-74691821D01*
X98868340Y-75046789D01*
X99223308Y-74691821D01*
X99927586Y-74691821D01*
X100282554Y-75046789D01*
X100637522Y-74691821D01*
X101341800Y-74691821D01*
X101696768Y-75046789D01*
X102051736Y-74691821D01*
X101696768Y-74336853D01*
X101341800Y-74691821D01*
X100637522Y-74691821D01*
X100282554Y-74336853D01*
X99927586Y-74691821D01*
X99223308Y-74691821D01*
X98868340Y-74336852D01*
X98513372Y-74691821D01*
X97809095Y-74691821D01*
X97454127Y-74336853D01*
X97099159Y-74691821D01*
X96394881Y-74691821D01*
X96302302Y-74599242D01*
X96286741Y-74597606D01*
X96280315Y-74596760D01*
X96267387Y-74594713D01*
X96260997Y-74593529D01*
X96055466Y-74549841D01*
X96049154Y-74548326D01*
X96036510Y-74544938D01*
X96030291Y-74543096D01*
X96005478Y-74535035D01*
X95999349Y-74532864D01*
X95987122Y-74528170D01*
X95981128Y-74525688D01*
X95891141Y-74485623D01*
X95684944Y-74691820D01*
X94762615Y-74691820D01*
X95589417Y-73865019D01*
X95650740Y-73831534D01*
X95677098Y-73828700D01*
X95751183Y-73828700D01*
X95818222Y-73848385D01*
X95843333Y-73869728D01*
X95854744Y-73882402D01*
X95854751Y-73882408D01*
X96003634Y-73990578D01*
X96003635Y-73990578D01*
X96003639Y-73990581D01*
X96140753Y-74051628D01*
X96171761Y-74065434D01*
X96171766Y-74065436D01*
X96351781Y-74103700D01*
X96535819Y-74103700D01*
X96715834Y-74065436D01*
X96883961Y-73990581D01*
X96892036Y-73984714D01*
X97806266Y-73984714D01*
X98161234Y-74339682D01*
X98516202Y-73984714D01*
X99220479Y-73984714D01*
X99575447Y-74339682D01*
X99930415Y-73984714D01*
X100634693Y-73984714D01*
X100989661Y-74339682D01*
X101344629Y-73984714D01*
X102048906Y-73984714D01*
X102403873Y-74339681D01*
X102529057Y-74214497D01*
X102527449Y-74196115D01*
X102527095Y-74190713D01*
X102526619Y-74179809D01*
X102526501Y-74174401D01*
X102526501Y-74159516D01*
X102526497Y-74159404D01*
X102526497Y-73752369D01*
X102403874Y-73629746D01*
X102048906Y-73984714D01*
X101344629Y-73984714D01*
X100989661Y-73629746D01*
X100634693Y-73984714D01*
X99930415Y-73984714D01*
X99575447Y-73629746D01*
X99220479Y-73984714D01*
X98516202Y-73984714D01*
X98161234Y-73629746D01*
X97806266Y-73984714D01*
X96892036Y-73984714D01*
X97032850Y-73882407D01*
X97155995Y-73745640D01*
X97248014Y-73586259D01*
X97304885Y-73411229D01*
X97318929Y-73277607D01*
X98513372Y-73277607D01*
X98868340Y-73632575D01*
X99223308Y-73277607D01*
X99927586Y-73277607D01*
X100282554Y-73632575D01*
X100637522Y-73277607D01*
X101341800Y-73277607D01*
X101696768Y-73632575D01*
X102051736Y-73277607D01*
X101696768Y-72922639D01*
X101341800Y-73277607D01*
X100637522Y-73277607D01*
X100282554Y-72922639D01*
X99927586Y-73277607D01*
X99223308Y-73277607D01*
X98868340Y-72922638D01*
X98513372Y-73277607D01*
X97318929Y-73277607D01*
X97324122Y-73228200D01*
X97304885Y-73045171D01*
X97248014Y-72870141D01*
X97209077Y-72802700D01*
X98038465Y-72802700D01*
X98161234Y-72925468D01*
X98284003Y-72802700D01*
X98038465Y-72802700D01*
X97209077Y-72802700D01*
X97178811Y-72750279D01*
X99400258Y-72750279D01*
X99575447Y-72925468D01*
X99930415Y-72570500D01*
X100634692Y-72570500D01*
X100989661Y-72925468D01*
X101344629Y-72570500D01*
X102048905Y-72570500D01*
X102403873Y-72925468D01*
X102526497Y-72802845D01*
X102526497Y-72566898D01*
X102526493Y-72488504D01*
X103024493Y-72488504D01*
X103024493Y-72488505D01*
X103024497Y-72566874D01*
X103024497Y-74150503D01*
X103024501Y-74150560D01*
X103024501Y-74163532D01*
X103054899Y-74335934D01*
X103096836Y-74451156D01*
X103114775Y-74500442D01*
X103142421Y-74548326D01*
X103202307Y-74652054D01*
X103314834Y-74786159D01*
X103370664Y-74833006D01*
X103448941Y-74898689D01*
X103532860Y-74947140D01*
X103595550Y-74983335D01*
X103600551Y-74986222D01*
X103765057Y-75046098D01*
X103937462Y-75076499D01*
X103937464Y-75076499D01*
X104024994Y-75076499D01*
X104090886Y-75076500D01*
X104090890Y-75076499D01*
X105456063Y-75076499D01*
X105466210Y-75077116D01*
X105468487Y-75077094D01*
X105468489Y-75077095D01*
X105531499Y-75076504D01*
X105532662Y-75076499D01*
X105597987Y-75076499D01*
X105607940Y-75075801D01*
X105621384Y-75075683D01*
X105792500Y-75044039D01*
X105947824Y-74986222D01*
X105955580Y-74983335D01*
X105955580Y-74983334D01*
X105955585Y-74983333D01*
X106105744Y-74895386D01*
X106238467Y-74782840D01*
X106314200Y-74691821D01*
X106998654Y-74691821D01*
X107353622Y-75046789D01*
X107708590Y-74691821D01*
X108412867Y-74691821D01*
X108767835Y-75046789D01*
X109122802Y-74691821D01*
X109827081Y-74691821D01*
X110182049Y-75046789D01*
X110537017Y-74691821D01*
X110537016Y-74691820D01*
X111241294Y-74691820D01*
X111596262Y-75046789D01*
X111951231Y-74691821D01*
X112655508Y-74691821D01*
X113010476Y-75046789D01*
X113365444Y-74691821D01*
X114069722Y-74691821D01*
X114424690Y-75046789D01*
X114779658Y-74691821D01*
X115483935Y-74691821D01*
X115838903Y-75046789D01*
X116193871Y-74691821D01*
X116898149Y-74691821D01*
X117253117Y-75046789D01*
X117608085Y-74691821D01*
X118312362Y-74691821D01*
X118667330Y-75046789D01*
X119022298Y-74691821D01*
X119726576Y-74691821D01*
X120081544Y-75046789D01*
X120436512Y-74691821D01*
X121140789Y-74691821D01*
X121495757Y-75046789D01*
X121850724Y-74691821D01*
X122555003Y-74691821D01*
X122642659Y-74779477D01*
X122727833Y-74727988D01*
X122917996Y-74579004D01*
X123035058Y-74461940D01*
X122909971Y-74336853D01*
X122555003Y-74691821D01*
X121850724Y-74691821D01*
X121850725Y-74691820D01*
X121495757Y-74336852D01*
X121140789Y-74691821D01*
X120436512Y-74691821D01*
X120081544Y-74336853D01*
X119726576Y-74691821D01*
X119022298Y-74691821D01*
X118667330Y-74336853D01*
X118312362Y-74691821D01*
X117608085Y-74691821D01*
X117253117Y-74336853D01*
X116898149Y-74691821D01*
X116193871Y-74691821D01*
X115838903Y-74336853D01*
X115483935Y-74691821D01*
X114779658Y-74691821D01*
X114424690Y-74336853D01*
X114069722Y-74691821D01*
X113365444Y-74691821D01*
X113010476Y-74336853D01*
X112655508Y-74691821D01*
X111951231Y-74691821D01*
X111596262Y-74336852D01*
X111241294Y-74691820D01*
X110537016Y-74691820D01*
X110182049Y-74336853D01*
X109827081Y-74691821D01*
X109122802Y-74691821D01*
X109122803Y-74691820D01*
X108767835Y-74336852D01*
X108412867Y-74691821D01*
X107708590Y-74691821D01*
X107353622Y-74336853D01*
X106998654Y-74691821D01*
X106314200Y-74691821D01*
X106349770Y-74649072D01*
X106436311Y-74498100D01*
X106495494Y-74334455D01*
X106525539Y-74163051D01*
X106525497Y-74076042D01*
X106525500Y-74010150D01*
X106525498Y-74010145D01*
X106525499Y-74002575D01*
X106525497Y-74002525D01*
X106525497Y-73984714D01*
X107705761Y-73984714D01*
X108060729Y-74339682D01*
X108415697Y-73984714D01*
X109119974Y-73984714D01*
X109474942Y-74339682D01*
X109829910Y-73984714D01*
X110534188Y-73984714D01*
X110889156Y-74339682D01*
X111244124Y-73984714D01*
X111948401Y-73984714D01*
X112303369Y-74339682D01*
X112658337Y-73984714D01*
X113362615Y-73984714D01*
X113717583Y-74339682D01*
X114072551Y-73984714D01*
X114776828Y-73984714D01*
X115131796Y-74339682D01*
X115486764Y-73984714D01*
X116191042Y-73984714D01*
X116546010Y-74339682D01*
X116900978Y-73984714D01*
X117605255Y-73984714D01*
X117960223Y-74339682D01*
X118315192Y-73984714D01*
X119019469Y-73984714D01*
X119374437Y-74339682D01*
X119729405Y-73984714D01*
X120433683Y-73984714D01*
X120788651Y-74339682D01*
X121143619Y-73984714D01*
X121847896Y-73984714D01*
X122202864Y-74339682D01*
X122557832Y-73984714D01*
X123262110Y-73984714D01*
X123334857Y-74057461D01*
X123362778Y-74011273D01*
X123461922Y-73790979D01*
X123464674Y-73782149D01*
X123262110Y-73984714D01*
X122557832Y-73984714D01*
X122202864Y-73629746D01*
X121847896Y-73984714D01*
X121143619Y-73984714D01*
X120788651Y-73629746D01*
X120433683Y-73984714D01*
X119729405Y-73984714D01*
X119374437Y-73629746D01*
X119019469Y-73984714D01*
X118315192Y-73984714D01*
X117960223Y-73629745D01*
X117605255Y-73984714D01*
X116900978Y-73984714D01*
X116546010Y-73629746D01*
X116191042Y-73984714D01*
X115486764Y-73984714D01*
X115131796Y-73629745D01*
X114776828Y-73984714D01*
X114072551Y-73984714D01*
X113717583Y-73629746D01*
X113362615Y-73984714D01*
X112658337Y-73984714D01*
X112303369Y-73629746D01*
X111948401Y-73984714D01*
X111244124Y-73984714D01*
X110889156Y-73629746D01*
X110534188Y-73984714D01*
X109829910Y-73984714D01*
X109474942Y-73629746D01*
X109119974Y-73984714D01*
X108415697Y-73984714D01*
X108060729Y-73629746D01*
X107705761Y-73984714D01*
X106525497Y-73984714D01*
X106525497Y-73252764D01*
X107023497Y-73252764D01*
X107023497Y-73302450D01*
X107353622Y-73632575D01*
X107708590Y-73277607D01*
X108412867Y-73277607D01*
X108767835Y-73632575D01*
X109122803Y-73277607D01*
X109827081Y-73277607D01*
X110182049Y-73632575D01*
X110537017Y-73277607D01*
X111241294Y-73277607D01*
X111596262Y-73632575D01*
X111951231Y-73277607D01*
X112655508Y-73277607D01*
X113010476Y-73632575D01*
X113365444Y-73277607D01*
X114069722Y-73277607D01*
X114424690Y-73632575D01*
X114779658Y-73277607D01*
X115483935Y-73277607D01*
X115838903Y-73632575D01*
X116193871Y-73277607D01*
X116898149Y-73277607D01*
X117253117Y-73632575D01*
X117608085Y-73277607D01*
X118312362Y-73277607D01*
X118667330Y-73632575D01*
X119022298Y-73277607D01*
X119726576Y-73277607D01*
X120081544Y-73632575D01*
X120436512Y-73277607D01*
X121140789Y-73277607D01*
X121495757Y-73632575D01*
X121850725Y-73277607D01*
X122555003Y-73277607D01*
X122909971Y-73632575D01*
X123264939Y-73277607D01*
X122909971Y-72922639D01*
X122555003Y-73277607D01*
X121850725Y-73277607D01*
X121495757Y-72922638D01*
X121140789Y-73277607D01*
X120436512Y-73277607D01*
X120081544Y-72922639D01*
X119726576Y-73277607D01*
X119022298Y-73277607D01*
X118667330Y-72922639D01*
X118312362Y-73277607D01*
X117608085Y-73277607D01*
X117253117Y-72922639D01*
X116898149Y-73277607D01*
X116193871Y-73277607D01*
X115838903Y-72922639D01*
X115483935Y-73277607D01*
X114779658Y-73277607D01*
X114424690Y-72922639D01*
X114069722Y-73277607D01*
X113365444Y-73277607D01*
X113010476Y-72922639D01*
X112655508Y-73277607D01*
X111951231Y-73277607D01*
X111596262Y-72922638D01*
X111241294Y-73277607D01*
X110537017Y-73277607D01*
X110182049Y-72922639D01*
X109827081Y-73277607D01*
X109122803Y-73277607D01*
X108767835Y-72922638D01*
X108412867Y-73277607D01*
X107708590Y-73277607D01*
X107353622Y-72922639D01*
X107023497Y-73252764D01*
X106525497Y-73252764D01*
X106525497Y-72645062D01*
X106526099Y-72635192D01*
X106525509Y-72570500D01*
X107705760Y-72570500D01*
X108060729Y-72925468D01*
X108415697Y-72570500D01*
X109119973Y-72570500D01*
X109474942Y-72925468D01*
X109829910Y-72570500D01*
X110534187Y-72570500D01*
X110889156Y-72925468D01*
X111244124Y-72570500D01*
X111948400Y-72570500D01*
X112303369Y-72925468D01*
X112658337Y-72570500D01*
X113362614Y-72570500D01*
X113717583Y-72925468D01*
X114072551Y-72570500D01*
X114776827Y-72570500D01*
X115131796Y-72925468D01*
X115486764Y-72570500D01*
X116191041Y-72570500D01*
X116546010Y-72925468D01*
X116900978Y-72570500D01*
X117605255Y-72570500D01*
X117960223Y-72925468D01*
X118315192Y-72570500D01*
X119019468Y-72570500D01*
X119374437Y-72925468D01*
X119729405Y-72570500D01*
X120433682Y-72570500D01*
X120788651Y-72925468D01*
X121143619Y-72570500D01*
X121847895Y-72570500D01*
X122202864Y-72925468D01*
X122557832Y-72570500D01*
X123262109Y-72570500D01*
X123592831Y-72901221D01*
X123592831Y-72239779D01*
X123262109Y-72570500D01*
X122557832Y-72570500D01*
X122202864Y-72215532D01*
X121847895Y-72570500D01*
X121143619Y-72570500D01*
X120788651Y-72215532D01*
X120433682Y-72570500D01*
X119729405Y-72570500D01*
X119374437Y-72215532D01*
X119019468Y-72570500D01*
X118315192Y-72570500D01*
X117960223Y-72215531D01*
X117605255Y-72570500D01*
X116900978Y-72570500D01*
X116546010Y-72215532D01*
X116191041Y-72570500D01*
X115486764Y-72570500D01*
X115131796Y-72215531D01*
X114776827Y-72570500D01*
X114072551Y-72570500D01*
X113717583Y-72215532D01*
X113362614Y-72570500D01*
X112658337Y-72570500D01*
X112303369Y-72215532D01*
X111948400Y-72570500D01*
X111244124Y-72570500D01*
X110889156Y-72215532D01*
X110534187Y-72570500D01*
X109829910Y-72570500D01*
X109474942Y-72215532D01*
X109119973Y-72570500D01*
X108415697Y-72570500D01*
X108060729Y-72215532D01*
X107705760Y-72570500D01*
X106525509Y-72570500D01*
X106525502Y-72569724D01*
X106525497Y-72568593D01*
X106525497Y-72502951D01*
X106524826Y-72493346D01*
X106524710Y-72479860D01*
X106524710Y-72479851D01*
X106493097Y-72308694D01*
X106491611Y-72304701D01*
X106446975Y-72184719D01*
X106432409Y-72145566D01*
X106344468Y-71995365D01*
X106232586Y-71863394D01*
X106998654Y-71863394D01*
X107353622Y-72218362D01*
X107708590Y-71863394D01*
X108412867Y-71863394D01*
X108767835Y-72218362D01*
X109122803Y-71863394D01*
X109827081Y-71863394D01*
X110182049Y-72218362D01*
X110537017Y-71863394D01*
X111241294Y-71863394D01*
X111596262Y-72218362D01*
X111951231Y-71863394D01*
X112655508Y-71863394D01*
X113010476Y-72218362D01*
X113365444Y-71863394D01*
X114069722Y-71863394D01*
X114424690Y-72218362D01*
X114779658Y-71863394D01*
X115483935Y-71863394D01*
X115838903Y-72218362D01*
X116193871Y-71863394D01*
X116898149Y-71863394D01*
X117253117Y-72218362D01*
X117387375Y-72084104D01*
X118533072Y-72084104D01*
X118667330Y-72218362D01*
X118801591Y-72084101D01*
X119947283Y-72084101D01*
X120081544Y-72218362D01*
X120225863Y-72074042D01*
X120201180Y-72078393D01*
X120195830Y-72079216D01*
X120185013Y-72080639D01*
X120179641Y-72081227D01*
X120157979Y-72083121D01*
X120152572Y-72083475D01*
X120141662Y-72083950D01*
X120136244Y-72084067D01*
X120121534Y-72084064D01*
X120120456Y-72084101D01*
X119947283Y-72084101D01*
X118801591Y-72084101D01*
X118619390Y-72084101D01*
X118619358Y-72084102D01*
X118538443Y-72084101D01*
X118533072Y-72084104D01*
X117387375Y-72084104D01*
X117608085Y-71863394D01*
X121140789Y-71863394D01*
X121495757Y-72218362D01*
X121850725Y-71863394D01*
X122555003Y-71863394D01*
X122909971Y-72218362D01*
X123264939Y-71863394D01*
X122909971Y-71508426D01*
X122555003Y-71863394D01*
X121850725Y-71863394D01*
X121495757Y-71508425D01*
X121140789Y-71863394D01*
X117608085Y-71863394D01*
X117253117Y-71508426D01*
X116898149Y-71863394D01*
X116193871Y-71863394D01*
X115838903Y-71508426D01*
X115483935Y-71863394D01*
X114779658Y-71863394D01*
X114424690Y-71508426D01*
X114069722Y-71863394D01*
X113365444Y-71863394D01*
X113010476Y-71508426D01*
X112655508Y-71863394D01*
X111951231Y-71863394D01*
X111596262Y-71508425D01*
X111241294Y-71863394D01*
X110537017Y-71863394D01*
X110182049Y-71508426D01*
X109827081Y-71863394D01*
X109122803Y-71863394D01*
X108767835Y-71508425D01*
X108412867Y-71863394D01*
X107708590Y-71863394D01*
X107353622Y-71508426D01*
X106998654Y-71863394D01*
X106232586Y-71863394D01*
X106231915Y-71862603D01*
X106098131Y-71751266D01*
X106048309Y-71722703D01*
X105947139Y-71664702D01*
X105947134Y-71664700D01*
X105783458Y-71605503D01*
X105783457Y-71605502D01*
X105783452Y-71605501D01*
X105612017Y-71575453D01*
X105524994Y-71575499D01*
X104076358Y-71575499D01*
X104076351Y-71575497D01*
X104024994Y-71575497D01*
X103937459Y-71575497D01*
X103910273Y-71580290D01*
X103765056Y-71605898D01*
X103765051Y-71605899D01*
X103600540Y-71665778D01*
X103448929Y-71753314D01*
X103314816Y-71865853D01*
X103202289Y-71999964D01*
X103114758Y-72151583D01*
X103114757Y-72151586D01*
X103054887Y-72316094D01*
X103024493Y-72488504D01*
X102526493Y-72488504D01*
X102526493Y-72477664D01*
X102526611Y-72472257D01*
X102527086Y-72461361D01*
X102527439Y-72455965D01*
X102529332Y-72434307D01*
X102529921Y-72428926D01*
X102531345Y-72418105D01*
X102532168Y-72412756D01*
X102542498Y-72354156D01*
X102403874Y-72215532D01*
X102048905Y-72570500D01*
X101344629Y-72570500D01*
X100989661Y-72215532D01*
X100634692Y-72570500D01*
X99930415Y-72570500D01*
X99838815Y-72478900D01*
X99769320Y-72548396D01*
X99763392Y-72553948D01*
X99751079Y-72564745D01*
X99744805Y-72569892D01*
X99718921Y-72589751D01*
X99712330Y-72594474D01*
X99698724Y-72603565D01*
X99691832Y-72607851D01*
X99590925Y-72666105D01*
X99590913Y-72666114D01*
X99526670Y-72703207D01*
X99519512Y-72707034D01*
X99504827Y-72714276D01*
X99497436Y-72717625D01*
X99467293Y-72730111D01*
X99459696Y-72732970D01*
X99444197Y-72738231D01*
X99436434Y-72740586D01*
X99400258Y-72750279D01*
X97178811Y-72750279D01*
X97155995Y-72710760D01*
X97032850Y-72573993D01*
X96970946Y-72529017D01*
X96928282Y-72473688D01*
X96922303Y-72404074D01*
X96954909Y-72342279D01*
X97015748Y-72307922D01*
X97043833Y-72304700D01*
X98117343Y-72304700D01*
X98973331Y-72304700D01*
X98973347Y-72304701D01*
X98980943Y-72304701D01*
X99139054Y-72304701D01*
X99139057Y-72304701D01*
X99291785Y-72263777D01*
X99341904Y-72234839D01*
X99428716Y-72184720D01*
X99486677Y-72126759D01*
X100190951Y-72126759D01*
X100282554Y-72218362D01*
X100637522Y-71863394D01*
X101341800Y-71863394D01*
X101696768Y-72218362D01*
X102051736Y-71863394D01*
X101696768Y-71508426D01*
X101341800Y-71863394D01*
X100637522Y-71863394D01*
X100545919Y-71771791D01*
X100190951Y-72126759D01*
X99486677Y-72126759D01*
X99540520Y-72072916D01*
X99540520Y-72072914D01*
X99550728Y-72062707D01*
X99550729Y-72062704D01*
X100193781Y-71419653D01*
X100898059Y-71419653D01*
X100989661Y-71511255D01*
X101344629Y-71156287D01*
X102048906Y-71156287D01*
X102403874Y-71511255D01*
X102758842Y-71156287D01*
X103463120Y-71156287D01*
X103484782Y-71177949D01*
X103544297Y-71156287D01*
X106291547Y-71156287D01*
X106646515Y-71511255D01*
X107001483Y-71156287D01*
X107705761Y-71156287D01*
X108060729Y-71511255D01*
X108415697Y-71156287D01*
X109119974Y-71156287D01*
X109474942Y-71511255D01*
X109829910Y-71156287D01*
X110534188Y-71156287D01*
X110889156Y-71511255D01*
X111244124Y-71156287D01*
X111948401Y-71156287D01*
X112303369Y-71511255D01*
X112658337Y-71156287D01*
X113362615Y-71156287D01*
X113717583Y-71511255D01*
X114072551Y-71156287D01*
X114776828Y-71156287D01*
X115131796Y-71511255D01*
X115486764Y-71156287D01*
X116191042Y-71156287D01*
X116546010Y-71511255D01*
X116900978Y-71156287D01*
X116546010Y-70801319D01*
X116191042Y-71156287D01*
X115486764Y-71156287D01*
X115131796Y-70801318D01*
X114776828Y-71156287D01*
X114072551Y-71156287D01*
X113717583Y-70801319D01*
X113362615Y-71156287D01*
X112658337Y-71156287D01*
X112303369Y-70801319D01*
X111948401Y-71156287D01*
X111244124Y-71156287D01*
X110889156Y-70801319D01*
X110534188Y-71156287D01*
X109829910Y-71156287D01*
X109474942Y-70801319D01*
X109119974Y-71156287D01*
X108415697Y-71156287D01*
X108060729Y-70801319D01*
X107705761Y-71156287D01*
X107001483Y-71156287D01*
X106646515Y-70801319D01*
X106291547Y-71156287D01*
X103544297Y-71156287D01*
X103604931Y-71134218D01*
X103610046Y-71132482D01*
X103620443Y-71129203D01*
X103625639Y-71127688D01*
X103646635Y-71122061D01*
X103651895Y-71120774D01*
X103662553Y-71118411D01*
X103667859Y-71117355D01*
X103861680Y-71083176D01*
X103867028Y-71082353D01*
X103877844Y-71080929D01*
X103883221Y-71080340D01*
X103904878Y-71078445D01*
X103910278Y-71078091D01*
X103921180Y-71077615D01*
X103926497Y-71077499D01*
X104956121Y-71077499D01*
X105508482Y-71077499D01*
X105232301Y-70801318D01*
X104956121Y-71077499D01*
X103926497Y-71077499D01*
X103926589Y-71077497D01*
X104094266Y-71077497D01*
X103818088Y-70801319D01*
X103463120Y-71156287D01*
X102758842Y-71156287D01*
X102403874Y-70801319D01*
X102048906Y-71156287D01*
X101344629Y-71156287D01*
X101253027Y-71064685D01*
X101010258Y-71307455D01*
X100898059Y-71419653D01*
X100193781Y-71419653D01*
X100658119Y-70955316D01*
X100900889Y-70712546D01*
X101605166Y-70712546D01*
X101696768Y-70804148D01*
X102051736Y-70449180D01*
X102756013Y-70449180D01*
X103110981Y-70804148D01*
X103465949Y-70449180D01*
X104170227Y-70449180D01*
X104525195Y-70804148D01*
X104880163Y-70449180D01*
X105584440Y-70449180D01*
X105939408Y-70804148D01*
X106294376Y-70449180D01*
X106998654Y-70449180D01*
X107353622Y-70804148D01*
X107708590Y-70449180D01*
X108412867Y-70449180D01*
X108767835Y-70804148D01*
X109122803Y-70449180D01*
X109827081Y-70449180D01*
X110182049Y-70804148D01*
X110537017Y-70449180D01*
X111241294Y-70449180D01*
X111596262Y-70804148D01*
X111951231Y-70449180D01*
X112655508Y-70449180D01*
X113010476Y-70804148D01*
X113365444Y-70449180D01*
X114069722Y-70449180D01*
X114424690Y-70804148D01*
X114779658Y-70449180D01*
X115483935Y-70449180D01*
X115838903Y-70804148D01*
X116193871Y-70449180D01*
X116898149Y-70449180D01*
X117039355Y-70590386D01*
X117038602Y-70532020D01*
X117536643Y-70532020D01*
X117537447Y-70594262D01*
X117537457Y-70595862D01*
X117537457Y-70658614D01*
X117538370Y-70671356D01*
X117538406Y-70674322D01*
X117538538Y-70685121D01*
X117553987Y-70767225D01*
X117570651Y-70855792D01*
X117628564Y-71010077D01*
X117631682Y-71018383D01*
X117719803Y-71168031D01*
X117719804Y-71168032D01*
X117832381Y-71300263D01*
X117832382Y-71300264D01*
X117962636Y-71408297D01*
X117966056Y-71411133D01*
X118116827Y-71497320D01*
X118280190Y-71556251D01*
X118451261Y-71586163D01*
X118538094Y-71586101D01*
X118603986Y-71586102D01*
X118603990Y-71586101D01*
X120037914Y-71586101D01*
X120103849Y-71586101D01*
X120111759Y-71586101D01*
X120112310Y-71586063D01*
X120125445Y-71586065D01*
X120297850Y-71555679D01*
X120462359Y-71495817D01*
X120613974Y-71408297D01*
X120748087Y-71295778D01*
X120860623Y-71161679D01*
X120863736Y-71156287D01*
X121847896Y-71156287D01*
X122202864Y-71511255D01*
X122557832Y-71156287D01*
X123262110Y-71156287D01*
X123592831Y-71487008D01*
X123592831Y-70825566D01*
X123262110Y-71156287D01*
X122557832Y-71156287D01*
X122202864Y-70801319D01*
X121847896Y-71156287D01*
X120863736Y-71156287D01*
X120948163Y-71010076D01*
X121008046Y-70845574D01*
X121020767Y-70773450D01*
X121526454Y-70773450D01*
X121850725Y-70449180D01*
X122555003Y-70449180D01*
X122909971Y-70804148D01*
X123264939Y-70449180D01*
X122909971Y-70094212D01*
X122555003Y-70449180D01*
X121850725Y-70449180D01*
X121536457Y-70134911D01*
X121536457Y-70504593D01*
X121536460Y-70504696D01*
X121536457Y-70585116D01*
X121536457Y-70674258D01*
X121536454Y-70674322D01*
X121536454Y-70684045D01*
X121536336Y-70689455D01*
X121535860Y-70700355D01*
X121535506Y-70705752D01*
X121533611Y-70727413D01*
X121533022Y-70732794D01*
X121531597Y-70743616D01*
X121530773Y-70748967D01*
X121526454Y-70773450D01*
X121020767Y-70773450D01*
X121023250Y-70759373D01*
X121038454Y-70673174D01*
X121038454Y-70662681D01*
X121038457Y-70662648D01*
X121038457Y-70585096D01*
X121038457Y-70577667D01*
X121038460Y-70519750D01*
X121038458Y-70519745D01*
X121038459Y-70512175D01*
X121038457Y-70512125D01*
X121038457Y-69742073D01*
X121847896Y-69742073D01*
X122202864Y-70097041D01*
X122557832Y-69742073D01*
X123262110Y-69742073D01*
X123592831Y-70072794D01*
X123592831Y-69411352D01*
X123262110Y-69742073D01*
X122557832Y-69742073D01*
X122202864Y-69387105D01*
X121847896Y-69742073D01*
X121038457Y-69742073D01*
X121038457Y-69137006D01*
X121038499Y-69136862D01*
X121038499Y-68998073D01*
X121038499Y-68998069D01*
X121008100Y-68825663D01*
X120958274Y-68688767D01*
X121486987Y-68688767D01*
X121491948Y-68707286D01*
X121493233Y-68712538D01*
X121495593Y-68723185D01*
X121496647Y-68728487D01*
X121530820Y-68922296D01*
X121531642Y-68927636D01*
X121533066Y-68938448D01*
X121533656Y-68943830D01*
X121535551Y-68965484D01*
X121535905Y-68970886D01*
X121536381Y-68981790D01*
X121536499Y-68987198D01*
X121536499Y-69186692D01*
X121536457Y-69186902D01*
X121536457Y-69349235D01*
X121850725Y-69034966D01*
X122555002Y-69034966D01*
X122909971Y-69389935D01*
X123264939Y-69034966D01*
X122909971Y-68679998D01*
X122555002Y-69034966D01*
X121850725Y-69034966D01*
X121495757Y-68679998D01*
X121486987Y-68688767D01*
X120958274Y-68688767D01*
X120948224Y-68661155D01*
X120932952Y-68634703D01*
X120860695Y-68509550D01*
X120860693Y-68509547D01*
X120860691Y-68509544D01*
X120748161Y-68375436D01*
X120691461Y-68327860D01*
X121847896Y-68327860D01*
X122202864Y-68682828D01*
X122557832Y-68327860D01*
X123262110Y-68327860D01*
X123592831Y-68658581D01*
X123592831Y-67997139D01*
X123262110Y-68327860D01*
X122557832Y-68327860D01*
X122202864Y-67972892D01*
X121847896Y-68327860D01*
X120691461Y-68327860D01*
X120614052Y-68262907D01*
X120523974Y-68210900D01*
X120462445Y-68175376D01*
X120462443Y-68175375D01*
X120462441Y-68175374D01*
X120297933Y-68115499D01*
X120125527Y-68085100D01*
X120125526Y-68085100D01*
X120037994Y-68085101D01*
X118607156Y-68085101D01*
X118597451Y-68084508D01*
X118578066Y-68084681D01*
X118578011Y-68084682D01*
X118529047Y-68085097D01*
X118529045Y-68085097D01*
X118529043Y-68085097D01*
X118527996Y-68085101D01*
X118464663Y-68085101D01*
X118455863Y-68085714D01*
X118442021Y-68085831D01*
X118442000Y-68085833D01*
X118270819Y-68117424D01*
X118270808Y-68117427D01*
X118107657Y-68178101D01*
X117957417Y-68266043D01*
X117824621Y-68378606D01*
X117713255Y-68512412D01*
X117713249Y-68512420D01*
X117626675Y-68663420D01*
X117626670Y-68663431D01*
X117567463Y-68827128D01*
X117567460Y-68827140D01*
X117537409Y-68998600D01*
X117537457Y-69085491D01*
X117537457Y-70518264D01*
X117536643Y-70532020D01*
X117038602Y-70532020D01*
X117038479Y-70522521D01*
X117038640Y-70514407D01*
X117039457Y-70498876D01*
X117039457Y-70307872D01*
X116898149Y-70449180D01*
X116193871Y-70449180D01*
X115838903Y-70094212D01*
X115483935Y-70449180D01*
X114779658Y-70449180D01*
X114424690Y-70094212D01*
X114069722Y-70449180D01*
X113365444Y-70449180D01*
X113010476Y-70094212D01*
X112655508Y-70449180D01*
X111951231Y-70449180D01*
X111596262Y-70094211D01*
X111241294Y-70449180D01*
X110537017Y-70449180D01*
X110182049Y-70094212D01*
X109827081Y-70449180D01*
X109122803Y-70449180D01*
X108767835Y-70094211D01*
X108412867Y-70449180D01*
X107708590Y-70449180D01*
X107353622Y-70094212D01*
X106998654Y-70449180D01*
X106294376Y-70449180D01*
X105939408Y-70094212D01*
X105584440Y-70449180D01*
X104880163Y-70449180D01*
X104525195Y-70094212D01*
X104170227Y-70449180D01*
X103465949Y-70449180D01*
X103110981Y-70094212D01*
X102756013Y-70449180D01*
X102051736Y-70449180D01*
X101960134Y-70357578D01*
X101605166Y-70712546D01*
X100900889Y-70712546D01*
X101607995Y-70005440D01*
X102312273Y-70005440D01*
X102403874Y-70097041D01*
X102758842Y-69742073D01*
X103463120Y-69742073D01*
X103818088Y-70097041D01*
X104173056Y-69742073D01*
X104877333Y-69742073D01*
X105232301Y-70097041D01*
X105587270Y-69742073D01*
X106291547Y-69742073D01*
X106646515Y-70097041D01*
X107001483Y-69742073D01*
X107705761Y-69742073D01*
X108060729Y-70097041D01*
X108415697Y-69742073D01*
X109119974Y-69742073D01*
X109474942Y-70097041D01*
X109829910Y-69742073D01*
X110534188Y-69742073D01*
X110889156Y-70097041D01*
X111244124Y-69742073D01*
X111244123Y-69742072D01*
X111948400Y-69742072D01*
X112303369Y-70097041D01*
X112658337Y-69742073D01*
X113362615Y-69742073D01*
X113717583Y-70097041D01*
X114072551Y-69742073D01*
X114776828Y-69742073D01*
X115131796Y-70097041D01*
X115486764Y-69742073D01*
X116191042Y-69742073D01*
X116546010Y-70097041D01*
X116900978Y-69742073D01*
X116546010Y-69387105D01*
X116191042Y-69742073D01*
X115486764Y-69742073D01*
X115131796Y-69387104D01*
X114776828Y-69742073D01*
X114072551Y-69742073D01*
X113717583Y-69387105D01*
X113362615Y-69742073D01*
X112658337Y-69742073D01*
X112307143Y-69390879D01*
X112289281Y-69401191D01*
X111948400Y-69742072D01*
X111244123Y-69742072D01*
X111053551Y-69551500D01*
X110724761Y-69551500D01*
X110534188Y-69742073D01*
X109829910Y-69742073D01*
X109639337Y-69551500D01*
X109310547Y-69551500D01*
X109119974Y-69742073D01*
X108415697Y-69742073D01*
X108225124Y-69551500D01*
X107896334Y-69551500D01*
X107705761Y-69742073D01*
X107001483Y-69742073D01*
X106810910Y-69551500D01*
X106482120Y-69551500D01*
X106291547Y-69742073D01*
X105587270Y-69742073D01*
X105396697Y-69551500D01*
X105067907Y-69551500D01*
X104877333Y-69742073D01*
X104173056Y-69742073D01*
X103982483Y-69551500D01*
X103653693Y-69551500D01*
X103463120Y-69742073D01*
X102758842Y-69742073D01*
X102667241Y-69650472D01*
X102312273Y-70005440D01*
X101607995Y-70005440D01*
X102523616Y-69089819D01*
X102577705Y-69060284D01*
X112680825Y-69060284D01*
X113010476Y-69389935D01*
X113365444Y-69034967D01*
X113365443Y-69034966D01*
X114069721Y-69034966D01*
X114424690Y-69389935D01*
X114779658Y-69034966D01*
X115483934Y-69034966D01*
X115838903Y-69389935D01*
X116193871Y-69034966D01*
X116898148Y-69034966D01*
X117039457Y-69176275D01*
X117039457Y-69085760D01*
X117039404Y-68988029D01*
X117039519Y-68982630D01*
X117039987Y-68971756D01*
X117040336Y-68966373D01*
X117042209Y-68944778D01*
X117042792Y-68939415D01*
X117044202Y-68928632D01*
X117045017Y-68923304D01*
X117052498Y-68880617D01*
X116898148Y-69034966D01*
X116193871Y-69034966D01*
X115838903Y-68679998D01*
X115483934Y-69034966D01*
X114779658Y-69034966D01*
X114424690Y-68679998D01*
X114069721Y-69034966D01*
X113365443Y-69034966D01*
X113035793Y-68705316D01*
X112680825Y-69060284D01*
X102577705Y-69060284D01*
X102584939Y-69056334D01*
X102611297Y-69053500D01*
X111452343Y-69053500D01*
X111647931Y-69053500D01*
X111647947Y-69053501D01*
X111655543Y-69053501D01*
X111813654Y-69053501D01*
X111813657Y-69053501D01*
X111966385Y-69012577D01*
X112050202Y-68964185D01*
X112103316Y-68933520D01*
X112215120Y-68821716D01*
X112215120Y-68821714D01*
X112225324Y-68811511D01*
X112225327Y-68811506D01*
X112516057Y-68520777D01*
X113555532Y-68520777D01*
X113717583Y-68682828D01*
X114072551Y-68327860D01*
X114776828Y-68327860D01*
X115131796Y-68682828D01*
X115486764Y-68327860D01*
X116191042Y-68327860D01*
X116546010Y-68682828D01*
X116900978Y-68327860D01*
X116546010Y-67972892D01*
X116191042Y-68327860D01*
X115486764Y-68327860D01*
X115131796Y-67972891D01*
X114776828Y-68327860D01*
X114072551Y-68327860D01*
X113932716Y-68188025D01*
X113802608Y-68332527D01*
X113798144Y-68337232D01*
X113788886Y-68346491D01*
X113784172Y-68350964D01*
X113764783Y-68368422D01*
X113759844Y-68372641D01*
X113749669Y-68380880D01*
X113744522Y-68384829D01*
X113574523Y-68508341D01*
X113569167Y-68512021D01*
X113558182Y-68519154D01*
X113555532Y-68520777D01*
X112516057Y-68520777D01*
X112789616Y-68247219D01*
X112850939Y-68213734D01*
X112877297Y-68210900D01*
X112944219Y-68210900D01*
X113124234Y-68172636D01*
X113292361Y-68097781D01*
X113441250Y-67989607D01*
X113564395Y-67852840D01*
X113640024Y-67721848D01*
X114170817Y-67721848D01*
X114424690Y-67975721D01*
X114779658Y-67620753D01*
X115483935Y-67620753D01*
X115838903Y-67975721D01*
X116193871Y-67620753D01*
X116898149Y-67620753D01*
X117253117Y-67975721D01*
X117608085Y-67620753D01*
X117586742Y-67599410D01*
X118333704Y-67599410D01*
X118362292Y-67594135D01*
X118367610Y-67593272D01*
X118378387Y-67591764D01*
X118383756Y-67591132D01*
X118405329Y-67589067D01*
X118410697Y-67588671D01*
X118421550Y-67588106D01*
X118426933Y-67587943D01*
X118435535Y-67587869D01*
X118443250Y-67587365D01*
X118451337Y-67587101D01*
X118526360Y-67587101D01*
X118573790Y-67586699D01*
X118606800Y-67586405D01*
X118614913Y-67586598D01*
X118623801Y-67587101D01*
X118988646Y-67587101D01*
X119760228Y-67587101D01*
X120037989Y-67587101D01*
X120136393Y-67587100D01*
X120141802Y-67587218D01*
X120152706Y-67587694D01*
X120158107Y-67588048D01*
X120179763Y-67589943D01*
X120185144Y-67590532D01*
X120195957Y-67591956D01*
X120201299Y-67592779D01*
X120395109Y-67626952D01*
X120400414Y-67628007D01*
X120411060Y-67630367D01*
X120416309Y-67631651D01*
X120423646Y-67633616D01*
X120436510Y-67620753D01*
X121140789Y-67620753D01*
X121495757Y-67975721D01*
X121850725Y-67620753D01*
X122555003Y-67620753D01*
X122909971Y-67975721D01*
X123264939Y-67620753D01*
X122909971Y-67265785D01*
X122555003Y-67620753D01*
X121850725Y-67620753D01*
X121495757Y-67265784D01*
X121140789Y-67620753D01*
X120436510Y-67620753D01*
X120436511Y-67620752D01*
X120081544Y-67265785D01*
X119760228Y-67587101D01*
X118988646Y-67587101D01*
X118667330Y-67265785D01*
X118333704Y-67599410D01*
X117586742Y-67599410D01*
X117253117Y-67265785D01*
X116898149Y-67620753D01*
X116193871Y-67620753D01*
X115838903Y-67265785D01*
X115483935Y-67620753D01*
X114779658Y-67620753D01*
X114424689Y-67265784D01*
X114218958Y-67471515D01*
X114207193Y-67583455D01*
X114206346Y-67589888D01*
X114204299Y-67602815D01*
X114203116Y-67609199D01*
X114197692Y-67634720D01*
X114196178Y-67641028D01*
X114192789Y-67653679D01*
X114190943Y-67659912D01*
X114170817Y-67721848D01*
X113640024Y-67721848D01*
X113656414Y-67693459D01*
X113713285Y-67518429D01*
X113732522Y-67335400D01*
X113713285Y-67152371D01*
X113664703Y-67002851D01*
X113656416Y-66977346D01*
X113656413Y-66977340D01*
X113655934Y-66976510D01*
X113619639Y-66913646D01*
X114776828Y-66913646D01*
X115131796Y-67268614D01*
X115486764Y-66913646D01*
X116191042Y-66913646D01*
X116546010Y-67268614D01*
X116900978Y-66913646D01*
X117605255Y-66913646D01*
X117960223Y-67268614D01*
X118315192Y-66913646D01*
X119019469Y-66913646D01*
X119374437Y-67268614D01*
X119729405Y-66913646D01*
X120433683Y-66913646D01*
X120788651Y-67268614D01*
X121143619Y-66913646D01*
X121847896Y-66913646D01*
X122202864Y-67268614D01*
X122557832Y-66913646D01*
X123262110Y-66913646D01*
X123592831Y-67244367D01*
X123592831Y-66582925D01*
X123262110Y-66913646D01*
X122557832Y-66913646D01*
X122202864Y-66558678D01*
X121847896Y-66913646D01*
X121143619Y-66913646D01*
X120788651Y-66558678D01*
X120433683Y-66913646D01*
X119729405Y-66913646D01*
X119374437Y-66558678D01*
X119019469Y-66913646D01*
X118315192Y-66913646D01*
X117960223Y-66558677D01*
X117605255Y-66913646D01*
X116900978Y-66913646D01*
X116546010Y-66558678D01*
X116191042Y-66913646D01*
X115486764Y-66913646D01*
X115131796Y-66558677D01*
X114776828Y-66913646D01*
X113619639Y-66913646D01*
X113564395Y-66817960D01*
X113441250Y-66681193D01*
X113441248Y-66681191D01*
X113292365Y-66573021D01*
X113292362Y-66573019D01*
X113292361Y-66573019D01*
X113199380Y-66531621D01*
X113124238Y-66498165D01*
X113124233Y-66498163D01*
X112944219Y-66459900D01*
X112760181Y-66459900D01*
X112580166Y-66498163D01*
X112580161Y-66498165D01*
X112412039Y-66573019D01*
X112412034Y-66573021D01*
X112263151Y-66681191D01*
X112263149Y-66681193D01*
X112140004Y-66817961D01*
X112047986Y-66977340D01*
X112047983Y-66977346D01*
X111991116Y-67152367D01*
X111991115Y-67152371D01*
X111972817Y-67326467D01*
X111946232Y-67391081D01*
X111937177Y-67401186D01*
X111522184Y-67816181D01*
X111460861Y-67849666D01*
X111434503Y-67852500D01*
X102390257Y-67852500D01*
X102232143Y-67852500D01*
X102079415Y-67893423D01*
X102079414Y-67893423D01*
X102079412Y-67893424D01*
X102079409Y-67893425D01*
X102029296Y-67922359D01*
X102029295Y-67922360D01*
X101985889Y-67947420D01*
X101942485Y-67972479D01*
X101942482Y-67972481D01*
X101830678Y-68084286D01*
X99808884Y-70106081D01*
X98941143Y-70973821D01*
X98879820Y-71007306D01*
X98810128Y-71002322D01*
X98754195Y-70960450D01*
X98729778Y-70894986D01*
X98735530Y-70847824D01*
X98752685Y-70795029D01*
X98771922Y-70612000D01*
X98752685Y-70428971D01*
X98695814Y-70253941D01*
X98603795Y-70094560D01*
X98480650Y-69957793D01*
X98480648Y-69957791D01*
X98331765Y-69849621D01*
X98331762Y-69849619D01*
X98331761Y-69849619D01*
X98270712Y-69822438D01*
X98163638Y-69774765D01*
X98163633Y-69774763D01*
X98009838Y-69742073D01*
X99220479Y-69742073D01*
X99344546Y-69866140D01*
X99456745Y-69753942D01*
X99699514Y-69511172D01*
X99575447Y-69387105D01*
X99220479Y-69742073D01*
X98009838Y-69742073D01*
X97983619Y-69736500D01*
X97799581Y-69736500D01*
X97619566Y-69774763D01*
X97619561Y-69774765D01*
X97451439Y-69849619D01*
X97451434Y-69849621D01*
X97302551Y-69957791D01*
X97302544Y-69957797D01*
X97291133Y-69970472D01*
X97231647Y-70007121D01*
X97198983Y-70011500D01*
X96886069Y-70011500D01*
X96886053Y-70011499D01*
X96878457Y-70011499D01*
X96720343Y-70011499D01*
X96612987Y-70040265D01*
X96567610Y-70052424D01*
X96567609Y-70052425D01*
X96517496Y-70081359D01*
X96517495Y-70081360D01*
X96495235Y-70094212D01*
X96430685Y-70131479D01*
X96430682Y-70131481D01*
X96318878Y-70243286D01*
X90334684Y-76227481D01*
X89373384Y-77188781D01*
X89312061Y-77222266D01*
X89285703Y-77225100D01*
X88109097Y-77225100D01*
X88042058Y-77205415D01*
X87996303Y-77152611D01*
X87986359Y-77083453D01*
X88015384Y-77019897D01*
X88021416Y-77013419D01*
X88113491Y-76921345D01*
X88354817Y-76680019D01*
X88416140Y-76646534D01*
X88442498Y-76643700D01*
X88509419Y-76643700D01*
X88689434Y-76605436D01*
X88857561Y-76530581D01*
X89006450Y-76422407D01*
X89129595Y-76285640D01*
X89221614Y-76126259D01*
X89278485Y-75951229D01*
X89297722Y-75768200D01*
X89278485Y-75585171D01*
X89238650Y-75462572D01*
X89221616Y-75410146D01*
X89221613Y-75410140D01*
X89220699Y-75408557D01*
X89129595Y-75250760D01*
X89006450Y-75113993D01*
X89006448Y-75113991D01*
X88989213Y-75101469D01*
X89618442Y-75101469D01*
X89659415Y-75172436D01*
X89662511Y-75178138D01*
X89668452Y-75189797D01*
X89671246Y-75195654D01*
X89681859Y-75219488D01*
X89684344Y-75225485D01*
X89689039Y-75237714D01*
X89691208Y-75243840D01*
X89756143Y-75443689D01*
X89757989Y-75449921D01*
X89761378Y-75462572D01*
X89762892Y-75468880D01*
X89768316Y-75494401D01*
X89769499Y-75500785D01*
X89771546Y-75513712D01*
X89772393Y-75520144D01*
X89785452Y-75644395D01*
X90030920Y-75398928D01*
X89675951Y-75043959D01*
X89618442Y-75101469D01*
X88989213Y-75101469D01*
X88857565Y-75005821D01*
X88857562Y-75005819D01*
X88857561Y-75005819D01*
X88796512Y-74978638D01*
X88689438Y-74930965D01*
X88689433Y-74930963D01*
X88509419Y-74892700D01*
X88325381Y-74892700D01*
X88325378Y-74892700D01*
X88319563Y-74893311D01*
X88250833Y-74880740D01*
X88199811Y-74833006D01*
X88182695Y-74765266D01*
X88204920Y-74699025D01*
X88210955Y-74691821D01*
X90028091Y-74691821D01*
X90383059Y-75046789D01*
X90738027Y-74691821D01*
X90383059Y-74336853D01*
X90028091Y-74691821D01*
X88210955Y-74691821D01*
X88218918Y-74682315D01*
X88766613Y-74134620D01*
X89470890Y-74134620D01*
X89675952Y-74339682D01*
X90030920Y-73984714D01*
X90735198Y-73984714D01*
X91090166Y-74339682D01*
X91445134Y-73984714D01*
X91090166Y-73629746D01*
X90735198Y-73984714D01*
X90030920Y-73984714D01*
X89825858Y-73779652D01*
X89470890Y-74134620D01*
X88766613Y-74134620D01*
X89473720Y-73427513D01*
X90177997Y-73427513D01*
X90383059Y-73632575D01*
X90738027Y-73277607D01*
X91442305Y-73277607D01*
X91797273Y-73632575D01*
X92152241Y-73277607D01*
X91797273Y-72922639D01*
X91442305Y-73277607D01*
X90738027Y-73277607D01*
X90532965Y-73072545D01*
X90177997Y-73427513D01*
X89473720Y-73427513D01*
X90180827Y-72720406D01*
X90885103Y-72720406D01*
X91090166Y-72925468D01*
X91445134Y-72570500D01*
X92149410Y-72570500D01*
X92504379Y-72925468D01*
X92859347Y-72570500D01*
X92504379Y-72215531D01*
X92149410Y-72570500D01*
X91445134Y-72570500D01*
X91240072Y-72365438D01*
X90885103Y-72720406D01*
X90180827Y-72720406D01*
X90887933Y-72013300D01*
X91592211Y-72013300D01*
X91797273Y-72218362D01*
X92152241Y-71863394D01*
X92856518Y-71863394D01*
X93211486Y-72218362D01*
X93566454Y-71863394D01*
X93211486Y-71508426D01*
X92856518Y-71863394D01*
X92152241Y-71863394D01*
X91947179Y-71658332D01*
X91592211Y-72013300D01*
X90887933Y-72013300D01*
X91595040Y-71306194D01*
X92299318Y-71306194D01*
X92504379Y-71511255D01*
X92859347Y-71156287D01*
X93563625Y-71156287D01*
X93918593Y-71511255D01*
X94273561Y-71156287D01*
X93918593Y-70801319D01*
X93563625Y-71156287D01*
X92859347Y-71156287D01*
X92654286Y-70951225D01*
X92299318Y-71306194D01*
X91595040Y-71306194D01*
X92302147Y-70599087D01*
X93006425Y-70599087D01*
X93211486Y-70804148D01*
X93566454Y-70449180D01*
X94270732Y-70449180D01*
X94625700Y-70804148D01*
X94980668Y-70449180D01*
X94625700Y-70094212D01*
X94270732Y-70449180D01*
X93566454Y-70449180D01*
X93361393Y-70244119D01*
X93006425Y-70599087D01*
X92302147Y-70599087D01*
X93009255Y-69891980D01*
X93713532Y-69891980D01*
X93918593Y-70097041D01*
X94184734Y-69830900D01*
X95066665Y-69830900D01*
X95332806Y-70097041D01*
X95600487Y-69829360D01*
X95598419Y-69829564D01*
X95582083Y-69830635D01*
X95573971Y-69830901D01*
X95384164Y-69830901D01*
X95384132Y-69830900D01*
X95066665Y-69830900D01*
X94184734Y-69830900D01*
X93774613Y-69830900D01*
X93713532Y-69891980D01*
X93009255Y-69891980D01*
X93375193Y-69526042D01*
X96608082Y-69526042D01*
X96615105Y-69524405D01*
X96631156Y-69521212D01*
X96639161Y-69519890D01*
X96671505Y-69515631D01*
X96679581Y-69514836D01*
X96695917Y-69513765D01*
X96704029Y-69513499D01*
X96873414Y-69513499D01*
X96747020Y-69387105D01*
X96608082Y-69526042D01*
X93375193Y-69526042D01*
X93532016Y-69369219D01*
X93593339Y-69335734D01*
X93619697Y-69332900D01*
X95391931Y-69332900D01*
X95391947Y-69332901D01*
X95399543Y-69332901D01*
X95557654Y-69332901D01*
X95557657Y-69332901D01*
X95710385Y-69291977D01*
X95760504Y-69263039D01*
X95847316Y-69212920D01*
X95959120Y-69101116D01*
X95959120Y-69101114D01*
X95969328Y-69090907D01*
X95969329Y-69090904D01*
X96025267Y-69034966D01*
X97099158Y-69034966D01*
X97394176Y-69329984D01*
X97428929Y-69314512D01*
X97434922Y-69312030D01*
X97447149Y-69307336D01*
X97453278Y-69305165D01*
X97478091Y-69297104D01*
X97484310Y-69295262D01*
X97496954Y-69291874D01*
X97503266Y-69290359D01*
X97567317Y-69276743D01*
X97809094Y-69034966D01*
X98513371Y-69034966D01*
X98868340Y-69389935D01*
X99223308Y-69034966D01*
X99927585Y-69034966D01*
X100051652Y-69159033D01*
X100406620Y-68804064D01*
X100282553Y-68679998D01*
X99927585Y-69034966D01*
X99223308Y-69034966D01*
X98868340Y-68679998D01*
X98513371Y-69034966D01*
X97809094Y-69034966D01*
X97454127Y-68679998D01*
X97099158Y-69034966D01*
X96025267Y-69034966D01*
X96732374Y-68327860D01*
X97806266Y-68327860D01*
X98161234Y-68682828D01*
X98516202Y-68327860D01*
X99220479Y-68327860D01*
X99575447Y-68682828D01*
X99930415Y-68327860D01*
X100634693Y-68327860D01*
X100758759Y-68451926D01*
X101113727Y-68096958D01*
X100989661Y-67972892D01*
X100634693Y-68327860D01*
X99930415Y-68327860D01*
X99575447Y-67972892D01*
X99220479Y-68327860D01*
X98516202Y-68327860D01*
X98161234Y-67972892D01*
X97806266Y-68327860D01*
X96732374Y-68327860D01*
X97439483Y-67620752D01*
X98513371Y-67620752D01*
X98868340Y-67975721D01*
X99223308Y-67620753D01*
X99927586Y-67620753D01*
X100282554Y-67975721D01*
X100637522Y-67620753D01*
X101341800Y-67620753D01*
X101465865Y-67744818D01*
X101478539Y-67732146D01*
X101601878Y-67608808D01*
X101607801Y-67603260D01*
X101620105Y-67592470D01*
X101626374Y-67587325D01*
X101652256Y-67567464D01*
X101658854Y-67562736D01*
X101672467Y-67553640D01*
X101679358Y-67549355D01*
X101780296Y-67491079D01*
X101844540Y-67453987D01*
X101851699Y-67450160D01*
X101866385Y-67442918D01*
X101871557Y-67440574D01*
X101696768Y-67265785D01*
X101341800Y-67620753D01*
X100637522Y-67620753D01*
X100282554Y-67265785D01*
X99927586Y-67620753D01*
X99223308Y-67620753D01*
X98868339Y-67265784D01*
X98513371Y-67620752D01*
X97439483Y-67620752D01*
X98057617Y-67002619D01*
X98118940Y-66969134D01*
X98145298Y-66966300D01*
X98212219Y-66966300D01*
X98392234Y-66928036D01*
X98417569Y-66916756D01*
X99223589Y-66916756D01*
X99575447Y-67268614D01*
X99930415Y-66913646D01*
X100634693Y-66913646D01*
X100989661Y-67268614D01*
X101344629Y-66913646D01*
X102048906Y-66913646D01*
X102403874Y-67268614D01*
X102758842Y-66913646D01*
X103463120Y-66913646D01*
X103818088Y-67268614D01*
X104173056Y-66913646D01*
X104877333Y-66913646D01*
X105232301Y-67268614D01*
X105587270Y-66913646D01*
X106291547Y-66913646D01*
X106646515Y-67268614D01*
X107001483Y-66913646D01*
X107705761Y-66913646D01*
X108060729Y-67268614D01*
X108415697Y-66913646D01*
X109119974Y-66913646D01*
X109474942Y-67268614D01*
X109829910Y-66913646D01*
X110534188Y-66913646D01*
X110889156Y-67268614D01*
X111244124Y-66913646D01*
X110889156Y-66558678D01*
X110534188Y-66913646D01*
X109829910Y-66913646D01*
X109474942Y-66558678D01*
X109119974Y-66913646D01*
X108415697Y-66913646D01*
X108060729Y-66558678D01*
X107705761Y-66913646D01*
X107001483Y-66913646D01*
X106646515Y-66558678D01*
X106291547Y-66913646D01*
X105587270Y-66913646D01*
X105232301Y-66558677D01*
X104877333Y-66913646D01*
X104173056Y-66913646D01*
X103818088Y-66558678D01*
X103463120Y-66913646D01*
X102758842Y-66913646D01*
X102403874Y-66558678D01*
X102048906Y-66913646D01*
X101344629Y-66913646D01*
X100989661Y-66558678D01*
X100634693Y-66913646D01*
X99930415Y-66913646D01*
X99575446Y-66558677D01*
X99240916Y-66893207D01*
X99227613Y-66911517D01*
X99223659Y-66916670D01*
X99223589Y-66916756D01*
X98417569Y-66916756D01*
X98560361Y-66853181D01*
X98709250Y-66745007D01*
X98832395Y-66608240D01*
X98924414Y-66448859D01*
X98981285Y-66273829D01*
X98988357Y-66206539D01*
X99927585Y-66206539D01*
X100282554Y-66561507D01*
X100637522Y-66206539D01*
X101341799Y-66206539D01*
X101696768Y-66561507D01*
X102051736Y-66206539D01*
X102756012Y-66206539D01*
X103110981Y-66561507D01*
X103465949Y-66206539D01*
X104170226Y-66206539D01*
X104525195Y-66561507D01*
X104880163Y-66206539D01*
X105584439Y-66206539D01*
X105939408Y-66561507D01*
X106294376Y-66206539D01*
X106998653Y-66206539D01*
X107353622Y-66561507D01*
X107708590Y-66206539D01*
X108412866Y-66206539D01*
X108767835Y-66561507D01*
X109122803Y-66206539D01*
X109827080Y-66206539D01*
X110182049Y-66561507D01*
X110537017Y-66206539D01*
X111241294Y-66206539D01*
X111596262Y-66561507D01*
X111951231Y-66206539D01*
X114069721Y-66206539D01*
X114424690Y-66561507D01*
X114779658Y-66206539D01*
X115483934Y-66206539D01*
X115838903Y-66561507D01*
X116193871Y-66206539D01*
X116898148Y-66206539D01*
X117253117Y-66561507D01*
X117608085Y-66206539D01*
X118312361Y-66206539D01*
X118667330Y-66561507D01*
X119022298Y-66206539D01*
X119726575Y-66206539D01*
X120081544Y-66561507D01*
X120436512Y-66206539D01*
X121140788Y-66206539D01*
X121495757Y-66561507D01*
X121850725Y-66206539D01*
X122555002Y-66206539D01*
X122909971Y-66561507D01*
X123264939Y-66206539D01*
X122909971Y-65851571D01*
X122555002Y-66206539D01*
X121850725Y-66206539D01*
X121495757Y-65851570D01*
X121140788Y-66206539D01*
X120436512Y-66206539D01*
X120081544Y-65851571D01*
X119726575Y-66206539D01*
X119022298Y-66206539D01*
X118667330Y-65851571D01*
X118312361Y-66206539D01*
X117608085Y-66206539D01*
X117253117Y-65851571D01*
X116898148Y-66206539D01*
X116193871Y-66206539D01*
X115838903Y-65851571D01*
X115483934Y-66206539D01*
X114779658Y-66206539D01*
X114424690Y-65851571D01*
X114069721Y-66206539D01*
X111951231Y-66206539D01*
X111706592Y-65961900D01*
X112900147Y-65961900D01*
X112957267Y-65961900D01*
X112963762Y-65962070D01*
X112976841Y-65962756D01*
X112983312Y-65963266D01*
X113009259Y-65965994D01*
X113015685Y-65966840D01*
X113028613Y-65968887D01*
X113035003Y-65970071D01*
X113154343Y-65995438D01*
X113010475Y-65851570D01*
X112900147Y-65961900D01*
X111706592Y-65961900D01*
X111596262Y-65851570D01*
X111241294Y-66206539D01*
X110537017Y-66206539D01*
X110182049Y-65851571D01*
X109827080Y-66206539D01*
X109122803Y-66206539D01*
X108767835Y-65851570D01*
X108412866Y-66206539D01*
X107708590Y-66206539D01*
X107353622Y-65851571D01*
X106998653Y-66206539D01*
X106294376Y-66206539D01*
X105939408Y-65851571D01*
X105584439Y-66206539D01*
X104880163Y-66206539D01*
X104525195Y-65851571D01*
X104170226Y-66206539D01*
X103465949Y-66206539D01*
X103110981Y-65851571D01*
X102756012Y-66206539D01*
X102051736Y-66206539D01*
X101696768Y-65851571D01*
X101341799Y-66206539D01*
X100637522Y-66206539D01*
X100282554Y-65851571D01*
X99927585Y-66206539D01*
X98988357Y-66206539D01*
X99000522Y-66090800D01*
X98981285Y-65907771D01*
X98941450Y-65785172D01*
X98924416Y-65732746D01*
X98924413Y-65732740D01*
X98889244Y-65671825D01*
X98832395Y-65573360D01*
X98709250Y-65436593D01*
X98709248Y-65436591D01*
X98669848Y-65407965D01*
X99311945Y-65407965D01*
X99362215Y-65495036D01*
X99365311Y-65500738D01*
X99371252Y-65512397D01*
X99374046Y-65518254D01*
X99384659Y-65542088D01*
X99387144Y-65548085D01*
X99391839Y-65560314D01*
X99394008Y-65566440D01*
X99445276Y-65724230D01*
X99575447Y-65854401D01*
X99930415Y-65499433D01*
X100634693Y-65499433D01*
X100989661Y-65854401D01*
X101344629Y-65499433D01*
X102048906Y-65499433D01*
X102403874Y-65854401D01*
X102758842Y-65499433D01*
X103463120Y-65499433D01*
X103818088Y-65854401D01*
X104173056Y-65499433D01*
X104877333Y-65499433D01*
X105232301Y-65854401D01*
X105587270Y-65499433D01*
X106291547Y-65499433D01*
X106646515Y-65854401D01*
X107001483Y-65499433D01*
X107705761Y-65499433D01*
X108060729Y-65854401D01*
X108415697Y-65499433D01*
X109119974Y-65499433D01*
X109474942Y-65854401D01*
X109829910Y-65499433D01*
X110534188Y-65499433D01*
X110889156Y-65854401D01*
X111244124Y-65499433D01*
X111948401Y-65499433D01*
X112303369Y-65854401D01*
X112658337Y-65499433D01*
X113362615Y-65499433D01*
X113717583Y-65854401D01*
X114072551Y-65499433D01*
X114776828Y-65499433D01*
X115131796Y-65854401D01*
X115486764Y-65499433D01*
X116191042Y-65499433D01*
X116546010Y-65854401D01*
X116900978Y-65499433D01*
X117605255Y-65499433D01*
X117960223Y-65854401D01*
X118315192Y-65499433D01*
X119019469Y-65499433D01*
X119374437Y-65854401D01*
X119729405Y-65499433D01*
X120433683Y-65499433D01*
X120788651Y-65854401D01*
X121143619Y-65499433D01*
X121847896Y-65499433D01*
X122202864Y-65854401D01*
X122557832Y-65499433D01*
X123262110Y-65499433D01*
X123592831Y-65830154D01*
X123592831Y-65168712D01*
X123262110Y-65499433D01*
X122557832Y-65499433D01*
X122202864Y-65144465D01*
X121847896Y-65499433D01*
X121143619Y-65499433D01*
X120788651Y-65144465D01*
X120433683Y-65499433D01*
X119729405Y-65499433D01*
X119374437Y-65144465D01*
X119019469Y-65499433D01*
X118315192Y-65499433D01*
X117960223Y-65144464D01*
X117605255Y-65499433D01*
X116900978Y-65499433D01*
X116546010Y-65144465D01*
X116191042Y-65499433D01*
X115486764Y-65499433D01*
X115131796Y-65144464D01*
X114776828Y-65499433D01*
X114072551Y-65499433D01*
X113717583Y-65144465D01*
X113362615Y-65499433D01*
X112658337Y-65499433D01*
X112303369Y-65144465D01*
X111948401Y-65499433D01*
X111244124Y-65499433D01*
X110889156Y-65144465D01*
X110534188Y-65499433D01*
X109829910Y-65499433D01*
X109474942Y-65144465D01*
X109119974Y-65499433D01*
X108415697Y-65499433D01*
X108060729Y-65144465D01*
X107705761Y-65499433D01*
X107001483Y-65499433D01*
X106646515Y-65144465D01*
X106291547Y-65499433D01*
X105587270Y-65499433D01*
X105232301Y-65144464D01*
X104877333Y-65499433D01*
X104173056Y-65499433D01*
X103818088Y-65144465D01*
X103463120Y-65499433D01*
X102758842Y-65499433D01*
X102403874Y-65144465D01*
X102048906Y-65499433D01*
X101344629Y-65499433D01*
X100989661Y-65144465D01*
X100634693Y-65499433D01*
X99930415Y-65499433D01*
X99575446Y-65144464D01*
X99311945Y-65407965D01*
X98669848Y-65407965D01*
X98560365Y-65328421D01*
X98560362Y-65328419D01*
X98560361Y-65328419D01*
X98499312Y-65301238D01*
X98392238Y-65253565D01*
X98392233Y-65253563D01*
X98212219Y-65215300D01*
X98028181Y-65215300D01*
X97848166Y-65253563D01*
X97848161Y-65253565D01*
X97680039Y-65328419D01*
X97680034Y-65328421D01*
X97531151Y-65436591D01*
X97531149Y-65436593D01*
X97408004Y-65573361D01*
X97315986Y-65732740D01*
X97315983Y-65732746D01*
X97264748Y-65890433D01*
X97259115Y-65907771D01*
X97240817Y-66081866D01*
X97214232Y-66146481D01*
X97205177Y-66156585D01*
X95266184Y-68095581D01*
X95204861Y-68129066D01*
X95178503Y-68131900D01*
X93240540Y-68131900D01*
X93199619Y-68142864D01*
X93199619Y-68142865D01*
X93162351Y-68152851D01*
X93087814Y-68172823D01*
X93087809Y-68172826D01*
X92950890Y-68251875D01*
X92950882Y-68251881D01*
X92839078Y-68363686D01*
X85360184Y-75842581D01*
X85298861Y-75876066D01*
X85272503Y-75878900D01*
X84008269Y-75878900D01*
X84008253Y-75878899D01*
X84000657Y-75878899D01*
X83842543Y-75878899D01*
X83776655Y-75896554D01*
X83689816Y-75919822D01*
X83642037Y-75947408D01*
X83642036Y-75947407D01*
X83552887Y-75998877D01*
X83552882Y-75998881D01*
X83441078Y-76110686D01*
X82799191Y-76752572D01*
X82737868Y-76786057D01*
X82668176Y-76781073D01*
X82612243Y-76739201D01*
X82587826Y-76673737D01*
X82587510Y-76664885D01*
X82587511Y-76643700D01*
X82587513Y-76609969D01*
X82587511Y-76609964D01*
X82587512Y-76602395D01*
X82587510Y-76602345D01*
X82587510Y-75398928D01*
X83664130Y-75398928D01*
X83673759Y-75408557D01*
X83729406Y-75393647D01*
X83737304Y-75391805D01*
X83753354Y-75388612D01*
X83761361Y-75387290D01*
X83793705Y-75383031D01*
X83801781Y-75382236D01*
X83818117Y-75381165D01*
X83826229Y-75380899D01*
X84016036Y-75380899D01*
X84016068Y-75380900D01*
X84356038Y-75380900D01*
X85096372Y-75380900D01*
X85117587Y-75380900D01*
X85443919Y-75054567D01*
X85433312Y-75043960D01*
X85096372Y-75380900D01*
X84356038Y-75380900D01*
X84019098Y-75043960D01*
X83664130Y-75398928D01*
X82587510Y-75398928D01*
X82587510Y-74563334D01*
X83085510Y-74563334D01*
X83085510Y-74820308D01*
X83311991Y-75046789D01*
X83666959Y-74691821D01*
X84371237Y-74691821D01*
X84726205Y-75046789D01*
X85081173Y-74691821D01*
X85785450Y-74691821D01*
X85796057Y-74702428D01*
X86151025Y-74347460D01*
X86140418Y-74336852D01*
X85785450Y-74691821D01*
X85081173Y-74691821D01*
X84726205Y-74336853D01*
X84371237Y-74691821D01*
X83666959Y-74691821D01*
X83311991Y-74336853D01*
X83085510Y-74563334D01*
X82587510Y-74563334D01*
X82587510Y-73984714D01*
X83664130Y-73984714D01*
X84019098Y-74339682D01*
X84374066Y-73984714D01*
X85078344Y-73984714D01*
X85433312Y-74339682D01*
X85788280Y-73984714D01*
X86492557Y-73984714D01*
X86503164Y-73995321D01*
X86858132Y-73640353D01*
X86847525Y-73629746D01*
X86492557Y-73984714D01*
X85788280Y-73984714D01*
X85433312Y-73629746D01*
X85078344Y-73984714D01*
X84374066Y-73984714D01*
X84019098Y-73629746D01*
X83664130Y-73984714D01*
X82587510Y-73984714D01*
X82587510Y-73149120D01*
X83085510Y-73149120D01*
X83085510Y-73406094D01*
X83311991Y-73632575D01*
X83666959Y-73277607D01*
X84371237Y-73277607D01*
X84726205Y-73632575D01*
X85081173Y-73277607D01*
X85785450Y-73277607D01*
X86140418Y-73632575D01*
X86495386Y-73277607D01*
X87199664Y-73277607D01*
X87210271Y-73288214D01*
X87565239Y-72933246D01*
X87554632Y-72922639D01*
X87199664Y-73277607D01*
X86495386Y-73277607D01*
X86140418Y-72922638D01*
X85785450Y-73277607D01*
X85081173Y-73277607D01*
X84726205Y-72922639D01*
X84371237Y-73277607D01*
X83666959Y-73277607D01*
X83311991Y-72922639D01*
X83085510Y-73149120D01*
X82587510Y-73149120D01*
X82587510Y-72570500D01*
X83664129Y-72570500D01*
X84019098Y-72925468D01*
X84374066Y-72570500D01*
X85078343Y-72570500D01*
X85433312Y-72925468D01*
X85788280Y-72570500D01*
X86492556Y-72570500D01*
X86847525Y-72925468D01*
X87202493Y-72570500D01*
X87906771Y-72570500D01*
X87917378Y-72581107D01*
X88272346Y-72226139D01*
X88261739Y-72215532D01*
X87906771Y-72570500D01*
X87202493Y-72570500D01*
X86847525Y-72215532D01*
X86492556Y-72570500D01*
X85788280Y-72570500D01*
X85433312Y-72215532D01*
X85078343Y-72570500D01*
X84374066Y-72570500D01*
X84019098Y-72215532D01*
X83664129Y-72570500D01*
X82587510Y-72570500D01*
X82587510Y-71734907D01*
X83085510Y-71734907D01*
X83085510Y-71991881D01*
X83311991Y-72218362D01*
X83666959Y-71863394D01*
X84371237Y-71863394D01*
X84726205Y-72218362D01*
X85081173Y-71863394D01*
X85785450Y-71863394D01*
X86140418Y-72218362D01*
X86495386Y-71863394D01*
X87199664Y-71863394D01*
X87554632Y-72218362D01*
X87909600Y-71863394D01*
X88613877Y-71863394D01*
X88624484Y-71874001D01*
X88979452Y-71519032D01*
X88968845Y-71508425D01*
X88613877Y-71863394D01*
X87909600Y-71863394D01*
X87554632Y-71508426D01*
X87199664Y-71863394D01*
X86495386Y-71863394D01*
X86140418Y-71508425D01*
X85785450Y-71863394D01*
X85081173Y-71863394D01*
X84726205Y-71508426D01*
X84371237Y-71863394D01*
X83666959Y-71863394D01*
X83311991Y-71508426D01*
X83085510Y-71734907D01*
X82587510Y-71734907D01*
X82587510Y-71156287D01*
X83664130Y-71156287D01*
X84019098Y-71511255D01*
X84374066Y-71156287D01*
X85078344Y-71156287D01*
X85433312Y-71511255D01*
X85788280Y-71156287D01*
X86492557Y-71156287D01*
X86847525Y-71511255D01*
X87202493Y-71156287D01*
X87906771Y-71156287D01*
X88261739Y-71511255D01*
X88616707Y-71156287D01*
X89320984Y-71156287D01*
X89331591Y-71166894D01*
X89686559Y-70811926D01*
X89675952Y-70801319D01*
X89320984Y-71156287D01*
X88616707Y-71156287D01*
X88261739Y-70801319D01*
X87906771Y-71156287D01*
X87202493Y-71156287D01*
X86847525Y-70801319D01*
X86492557Y-71156287D01*
X85788280Y-71156287D01*
X85433312Y-70801319D01*
X85078344Y-71156287D01*
X84374066Y-71156287D01*
X84019098Y-70801319D01*
X83664130Y-71156287D01*
X82587510Y-71156287D01*
X82587510Y-70320693D01*
X83085510Y-70320693D01*
X83085510Y-70577667D01*
X83311991Y-70804148D01*
X83666959Y-70449180D01*
X84371237Y-70449180D01*
X84726205Y-70804148D01*
X85081173Y-70449180D01*
X85785450Y-70449180D01*
X86140418Y-70804148D01*
X86495386Y-70449180D01*
X87199664Y-70449180D01*
X87554632Y-70804148D01*
X87909600Y-70449180D01*
X88613877Y-70449180D01*
X88968845Y-70804148D01*
X89323814Y-70449180D01*
X90028091Y-70449180D01*
X90038698Y-70459787D01*
X90393666Y-70104819D01*
X90383059Y-70094212D01*
X90028091Y-70449180D01*
X89323814Y-70449180D01*
X88968845Y-70094211D01*
X88613877Y-70449180D01*
X87909600Y-70449180D01*
X87554632Y-70094212D01*
X87199664Y-70449180D01*
X86495386Y-70449180D01*
X86140418Y-70094211D01*
X85785450Y-70449180D01*
X85081173Y-70449180D01*
X84726205Y-70094212D01*
X84371237Y-70449180D01*
X83666959Y-70449180D01*
X83311991Y-70094212D01*
X83085510Y-70320693D01*
X82587510Y-70320693D01*
X82587510Y-69742073D01*
X83664130Y-69742073D01*
X84019098Y-70097041D01*
X84374066Y-69742073D01*
X85078344Y-69742073D01*
X85433312Y-70097041D01*
X85788280Y-69742073D01*
X86492557Y-69742073D01*
X86847525Y-70097041D01*
X87202493Y-69742073D01*
X87906771Y-69742073D01*
X88261739Y-70097041D01*
X88616707Y-69742073D01*
X89320984Y-69742073D01*
X89675952Y-70097041D01*
X90030920Y-69742073D01*
X90735198Y-69742073D01*
X90745805Y-69752680D01*
X91100773Y-69397712D01*
X91090166Y-69387105D01*
X90735198Y-69742073D01*
X90030920Y-69742073D01*
X89675952Y-69387105D01*
X89320984Y-69742073D01*
X88616707Y-69742073D01*
X88261739Y-69387105D01*
X87906771Y-69742073D01*
X87202493Y-69742073D01*
X86847525Y-69387105D01*
X86492557Y-69742073D01*
X85788280Y-69742073D01*
X85433312Y-69387105D01*
X85078344Y-69742073D01*
X84374066Y-69742073D01*
X84019098Y-69387105D01*
X83664130Y-69742073D01*
X82587510Y-69742073D01*
X82587510Y-68906479D01*
X83085510Y-68906479D01*
X83085510Y-69163454D01*
X83311991Y-69389935D01*
X83666959Y-69034966D01*
X84371236Y-69034966D01*
X84726205Y-69389935D01*
X85081173Y-69034966D01*
X85785449Y-69034966D01*
X86140418Y-69389935D01*
X86495386Y-69034966D01*
X87199663Y-69034966D01*
X87554632Y-69389935D01*
X87909600Y-69034966D01*
X88613877Y-69034966D01*
X88968845Y-69389935D01*
X89323814Y-69034966D01*
X90028090Y-69034966D01*
X90383059Y-69389935D01*
X90738027Y-69034966D01*
X91442304Y-69034966D01*
X91452911Y-69045573D01*
X91807880Y-68690605D01*
X91797273Y-68679998D01*
X91442304Y-69034966D01*
X90738027Y-69034966D01*
X90383059Y-68679998D01*
X90028090Y-69034966D01*
X89323814Y-69034966D01*
X88968845Y-68679998D01*
X88613877Y-69034966D01*
X87909600Y-69034966D01*
X87554632Y-68679998D01*
X87199663Y-69034966D01*
X86495386Y-69034966D01*
X86140418Y-68679998D01*
X85785449Y-69034966D01*
X85081173Y-69034966D01*
X84726205Y-68679998D01*
X84371236Y-69034966D01*
X83666959Y-69034966D01*
X83311990Y-68679998D01*
X83085510Y-68906479D01*
X82587510Y-68906479D01*
X82587510Y-68327860D01*
X83664130Y-68327860D01*
X84019098Y-68682828D01*
X84374066Y-68327860D01*
X85078344Y-68327860D01*
X85433312Y-68682828D01*
X85788280Y-68327860D01*
X86492557Y-68327860D01*
X86847525Y-68682828D01*
X87202493Y-68327860D01*
X87906771Y-68327860D01*
X88261739Y-68682828D01*
X88616707Y-68327860D01*
X89320984Y-68327860D01*
X89675952Y-68682828D01*
X90030920Y-68327860D01*
X90735198Y-68327860D01*
X91090166Y-68682828D01*
X91445134Y-68327860D01*
X92149411Y-68327860D01*
X92160018Y-68338467D01*
X92486938Y-68011547D01*
X92514985Y-67983498D01*
X92504379Y-67972892D01*
X92149411Y-68327860D01*
X91445134Y-68327860D01*
X91090166Y-67972892D01*
X90735198Y-68327860D01*
X90030920Y-68327860D01*
X89675952Y-67972892D01*
X89320984Y-68327860D01*
X88616707Y-68327860D01*
X88261739Y-67972892D01*
X87906771Y-68327860D01*
X87202493Y-68327860D01*
X86847525Y-67972892D01*
X86492557Y-68327860D01*
X85788280Y-68327860D01*
X85433312Y-67972892D01*
X85078344Y-68327860D01*
X84374066Y-68327860D01*
X84019098Y-67972892D01*
X83664130Y-68327860D01*
X82587510Y-68327860D01*
X82587510Y-67492266D01*
X83085510Y-67492266D01*
X83085510Y-67749240D01*
X83311991Y-67975721D01*
X83666959Y-67620753D01*
X84371237Y-67620753D01*
X84726205Y-67975721D01*
X85081173Y-67620753D01*
X85785450Y-67620753D01*
X86140418Y-67975721D01*
X86495386Y-67620753D01*
X87199664Y-67620753D01*
X87554632Y-67975721D01*
X87909600Y-67620753D01*
X88613877Y-67620753D01*
X88968845Y-67975721D01*
X89323814Y-67620753D01*
X90028091Y-67620753D01*
X90383059Y-67975721D01*
X90738027Y-67620753D01*
X91442305Y-67620753D01*
X91797273Y-67975721D01*
X92152241Y-67620753D01*
X92856518Y-67620753D01*
X92934456Y-67698691D01*
X92935409Y-67698368D01*
X92943167Y-67696015D01*
X93070727Y-67661834D01*
X93070731Y-67661833D01*
X93127410Y-67646647D01*
X93135306Y-67644805D01*
X93151356Y-67641612D01*
X93159366Y-67640290D01*
X93191709Y-67636032D01*
X93199782Y-67635237D01*
X93216118Y-67634166D01*
X93224230Y-67633900D01*
X93553307Y-67633900D01*
X93566454Y-67620753D01*
X94270732Y-67620753D01*
X94283879Y-67633900D01*
X94967521Y-67633900D01*
X94980668Y-67620753D01*
X94625700Y-67265785D01*
X94270732Y-67620753D01*
X93566454Y-67620753D01*
X93211486Y-67265785D01*
X92856518Y-67620753D01*
X92152241Y-67620753D01*
X91797273Y-67265785D01*
X91442305Y-67620753D01*
X90738027Y-67620753D01*
X90383059Y-67265785D01*
X90028091Y-67620753D01*
X89323814Y-67620753D01*
X88968845Y-67265784D01*
X88613877Y-67620753D01*
X87909600Y-67620753D01*
X87554632Y-67265785D01*
X87199664Y-67620753D01*
X86495386Y-67620753D01*
X86140418Y-67265784D01*
X85785450Y-67620753D01*
X85081173Y-67620753D01*
X84726205Y-67265785D01*
X84371237Y-67620753D01*
X83666959Y-67620753D01*
X83311991Y-67265785D01*
X83085510Y-67492266D01*
X82587510Y-67492266D01*
X82587510Y-67028539D01*
X83779023Y-67028539D01*
X84019098Y-67268614D01*
X84259173Y-67028539D01*
X83955790Y-67028539D01*
X83955758Y-67028540D01*
X83874487Y-67028539D01*
X83779023Y-67028539D01*
X82587510Y-67028539D01*
X82587510Y-66960058D01*
X85124756Y-66960058D01*
X85433312Y-67268614D01*
X85788280Y-66913646D01*
X86492557Y-66913646D01*
X86847525Y-67268614D01*
X87202493Y-66913646D01*
X87906771Y-66913646D01*
X88261739Y-67268614D01*
X88616707Y-66913646D01*
X89320984Y-66913646D01*
X89675952Y-67268614D01*
X90030920Y-66913646D01*
X90735198Y-66913646D01*
X91090166Y-67268614D01*
X91368580Y-66990200D01*
X92225965Y-66990200D01*
X92504379Y-67268614D01*
X92744455Y-67028539D01*
X92655790Y-67028539D01*
X92655758Y-67028540D01*
X92574487Y-67028539D01*
X92476090Y-67028539D01*
X92470681Y-67028421D01*
X92459779Y-67027945D01*
X92454379Y-67027591D01*
X92432723Y-67025696D01*
X92427342Y-67025107D01*
X92416529Y-67023683D01*
X92411187Y-67022860D01*
X92297712Y-67002851D01*
X93652830Y-67002851D01*
X93918593Y-67268614D01*
X94273561Y-66913646D01*
X94977838Y-66913646D01*
X95332806Y-67268614D01*
X95687775Y-66913646D01*
X95332806Y-66558677D01*
X94977838Y-66913646D01*
X94273561Y-66913646D01*
X94164565Y-66804650D01*
X94025098Y-66883455D01*
X94020281Y-66886038D01*
X94010471Y-66891024D01*
X94005564Y-66893385D01*
X93985602Y-66902451D01*
X93980586Y-66904597D01*
X93970377Y-66908702D01*
X93965269Y-66910626D01*
X93777995Y-66976510D01*
X93772811Y-66978207D01*
X93762283Y-66981398D01*
X93757029Y-66982865D01*
X93735786Y-66988296D01*
X93730462Y-66989533D01*
X93719687Y-66991787D01*
X93714326Y-66992786D01*
X93652830Y-67002851D01*
X92297712Y-67002851D01*
X92225965Y-66990200D01*
X91368580Y-66990200D01*
X91445134Y-66913646D01*
X91090166Y-66558678D01*
X90735198Y-66913646D01*
X90030920Y-66913646D01*
X89675952Y-66558678D01*
X89320984Y-66913646D01*
X88616707Y-66913646D01*
X88261739Y-66558678D01*
X87906771Y-66913646D01*
X87202493Y-66913646D01*
X86847525Y-66558678D01*
X86492557Y-66913646D01*
X85788280Y-66913646D01*
X85591031Y-66716397D01*
X85552094Y-66748558D01*
X85547812Y-66751939D01*
X85539031Y-66758564D01*
X85534608Y-66761751D01*
X85516542Y-66774174D01*
X85511976Y-66777168D01*
X85502638Y-66783001D01*
X85497944Y-66785791D01*
X85325098Y-66883455D01*
X85320281Y-66886038D01*
X85310471Y-66891024D01*
X85305564Y-66893385D01*
X85285602Y-66902451D01*
X85280586Y-66904597D01*
X85270377Y-66908702D01*
X85265269Y-66910626D01*
X85124756Y-66960058D01*
X82587510Y-66960058D01*
X82587510Y-63504755D01*
X82587511Y-63504726D01*
X82587510Y-63496106D01*
X82587512Y-63496103D01*
X82587510Y-63437174D01*
X82588289Y-63423293D01*
X82589728Y-63410518D01*
X82598467Y-63332939D01*
X82604646Y-63305871D01*
X82632360Y-63226665D01*
X82644400Y-63201662D01*
X82689052Y-63130598D01*
X82706350Y-63108906D01*
X82765694Y-63049561D01*
X82787402Y-63032251D01*
X82811870Y-63016875D01*
X82858451Y-62987607D01*
X82883461Y-62975562D01*
X82962675Y-62947844D01*
X82989737Y-62941668D01*
X82993089Y-62941291D01*
X83061909Y-62953345D01*
X83113289Y-63000695D01*
X83130913Y-63068305D01*
X83109186Y-63134711D01*
X83101956Y-63144222D01*
X83051822Y-63203961D01*
X83051821Y-63203963D01*
X82964287Y-63355548D01*
X82964280Y-63355562D01*
X82904398Y-63520031D01*
X82904394Y-63520048D01*
X82873979Y-63692408D01*
X82873977Y-63692425D01*
X82873975Y-63706661D01*
X82873965Y-63706835D01*
X82873965Y-63779962D01*
X82873953Y-63853864D01*
X82873965Y-63854047D01*
X82873965Y-65478676D01*
X82873959Y-65478696D01*
X82873963Y-65617574D01*
X82873964Y-65617580D01*
X82904368Y-65789970D01*
X82904370Y-65789976D01*
X82904371Y-65789981D01*
X82964252Y-65954487D01*
X83042957Y-66090800D01*
X83051790Y-66106098D01*
X83164314Y-66240195D01*
X83164319Y-66240200D01*
X83164322Y-66240203D01*
X83164327Y-66240207D01*
X83164329Y-66240209D01*
X83298426Y-66352727D01*
X83298429Y-66352728D01*
X83298433Y-66352732D01*
X83450045Y-66440263D01*
X83614554Y-66500139D01*
X83786961Y-66530539D01*
X83786963Y-66530539D01*
X83874494Y-66530539D01*
X83940386Y-66530540D01*
X83940390Y-66530539D01*
X84665003Y-66530539D01*
X84666621Y-66530550D01*
X84748783Y-66531622D01*
X84923065Y-66503096D01*
X85089658Y-66444488D01*
X85243412Y-66357611D01*
X85251170Y-66351203D01*
X85930114Y-66351203D01*
X86140418Y-66561507D01*
X86495386Y-66206539D01*
X87199663Y-66206539D01*
X87554632Y-66561507D01*
X87909600Y-66206539D01*
X88613877Y-66206539D01*
X88968845Y-66561507D01*
X89323814Y-66206539D01*
X90028090Y-66206539D01*
X90383059Y-66561507D01*
X90738027Y-66206539D01*
X90383059Y-65851571D01*
X90028090Y-66206539D01*
X89323814Y-66206539D01*
X88968845Y-65851570D01*
X88613877Y-66206539D01*
X87909600Y-66206539D01*
X87554632Y-65851571D01*
X87199663Y-66206539D01*
X86495386Y-66206539D01*
X86140418Y-65851571D01*
X86138922Y-65853066D01*
X86132267Y-65890433D01*
X86131190Y-65895790D01*
X86128785Y-65906528D01*
X86127477Y-65911822D01*
X86121749Y-65932986D01*
X86120208Y-65938218D01*
X86116869Y-65948703D01*
X86115099Y-65953865D01*
X86046592Y-66140198D01*
X86044597Y-66145278D01*
X86040349Y-66155429D01*
X86038132Y-66160416D01*
X86028786Y-66180250D01*
X86026351Y-66185135D01*
X86021227Y-66194873D01*
X86018582Y-66199642D01*
X85930114Y-66351203D01*
X85251170Y-66351203D01*
X85379575Y-66245149D01*
X85493938Y-66110579D01*
X85582965Y-65958060D01*
X85643906Y-65792307D01*
X85674877Y-65618443D01*
X85674890Y-65604515D01*
X85674965Y-65603409D01*
X85674965Y-65528677D01*
X85674972Y-65499433D01*
X86492557Y-65499433D01*
X86847525Y-65854401D01*
X87202493Y-65499433D01*
X87906771Y-65499433D01*
X88261739Y-65854401D01*
X88616707Y-65499433D01*
X89320984Y-65499433D01*
X89675952Y-65854401D01*
X90030920Y-65499433D01*
X90735198Y-65499433D01*
X91090165Y-65854400D01*
X91107065Y-65837499D01*
X91081645Y-65693367D01*
X91080820Y-65688010D01*
X91079396Y-65677191D01*
X91078809Y-65671825D01*
X91076913Y-65650169D01*
X91076558Y-65644765D01*
X91076082Y-65633867D01*
X91075964Y-65628460D01*
X91075957Y-65433935D01*
X91075965Y-65433889D01*
X91075965Y-65158666D01*
X90735198Y-65499433D01*
X90030920Y-65499433D01*
X89675952Y-65144465D01*
X89320984Y-65499433D01*
X88616707Y-65499433D01*
X88261739Y-65144465D01*
X87906771Y-65499433D01*
X87202493Y-65499433D01*
X86847525Y-65144465D01*
X86492557Y-65499433D01*
X85674972Y-65499433D01*
X85674981Y-65464250D01*
X85674980Y-65464246D01*
X85674982Y-65456321D01*
X85674965Y-65456045D01*
X85674965Y-65114747D01*
X86172965Y-65114747D01*
X86495386Y-64792326D01*
X87199664Y-64792326D01*
X87554632Y-65147294D01*
X87909600Y-64792326D01*
X88613877Y-64792326D01*
X88968845Y-65147294D01*
X89323814Y-64792326D01*
X90028091Y-64792326D01*
X90383059Y-65147294D01*
X90738027Y-64792326D01*
X90383059Y-64437358D01*
X90028091Y-64792326D01*
X89323814Y-64792326D01*
X88968845Y-64437357D01*
X88613877Y-64792326D01*
X87909600Y-64792326D01*
X87554632Y-64437358D01*
X87199664Y-64792326D01*
X86495386Y-64792326D01*
X86172965Y-64469904D01*
X86172965Y-65114747D01*
X85674965Y-65114747D01*
X85674965Y-64085219D01*
X86492557Y-64085219D01*
X86847525Y-64440187D01*
X87202493Y-64085219D01*
X87906771Y-64085219D01*
X88261739Y-64440187D01*
X88616707Y-64085219D01*
X89320984Y-64085219D01*
X89675952Y-64440187D01*
X90030920Y-64085219D01*
X90735198Y-64085219D01*
X91075965Y-64425986D01*
X91075965Y-63862501D01*
X91075952Y-63862103D01*
X91075953Y-63853864D01*
X91573953Y-63853864D01*
X91573965Y-63854047D01*
X91573965Y-65478676D01*
X91573959Y-65478696D01*
X91573963Y-65617574D01*
X91573964Y-65617580D01*
X91604368Y-65789970D01*
X91604370Y-65789976D01*
X91604371Y-65789981D01*
X91664252Y-65954487D01*
X91742957Y-66090800D01*
X91751790Y-66106098D01*
X91864314Y-66240195D01*
X91864319Y-66240200D01*
X91864322Y-66240203D01*
X91864327Y-66240207D01*
X91864329Y-66240209D01*
X91998426Y-66352727D01*
X91998429Y-66352728D01*
X91998433Y-66352732D01*
X92150045Y-66440263D01*
X92314554Y-66500139D01*
X92486961Y-66530539D01*
X92486963Y-66530539D01*
X92574494Y-66530539D01*
X92640386Y-66530540D01*
X92640390Y-66530539D01*
X93365003Y-66530539D01*
X93366621Y-66530550D01*
X93448783Y-66531622D01*
X93623065Y-66503096D01*
X93705097Y-66474237D01*
X94538430Y-66474237D01*
X94625700Y-66561507D01*
X94980668Y-66206539D01*
X95684944Y-66206539D01*
X96039913Y-66561507D01*
X96394881Y-66206539D01*
X96039913Y-65851571D01*
X95684944Y-66206539D01*
X94980668Y-66206539D01*
X94791683Y-66017554D01*
X94746592Y-66140198D01*
X94744597Y-66145278D01*
X94740349Y-66155429D01*
X94738132Y-66160416D01*
X94728786Y-66180250D01*
X94726351Y-66185135D01*
X94721227Y-66194873D01*
X94718582Y-66199642D01*
X94618502Y-66371097D01*
X94615644Y-66375755D01*
X94609682Y-66385007D01*
X94606630Y-66389521D01*
X94593955Y-66407412D01*
X94590703Y-66411795D01*
X94583954Y-66420484D01*
X94580513Y-66424719D01*
X94538430Y-66474237D01*
X93705097Y-66474237D01*
X93789658Y-66444488D01*
X93943412Y-66357611D01*
X94079575Y-66245149D01*
X94193938Y-66110579D01*
X94282965Y-65958060D01*
X94343906Y-65792307D01*
X94374877Y-65618443D01*
X94374890Y-65604515D01*
X94374965Y-65603409D01*
X94374965Y-65528677D01*
X94374972Y-65499433D01*
X94977838Y-65499433D01*
X95332806Y-65854401D01*
X95687775Y-65499433D01*
X96392052Y-65499433D01*
X96747019Y-65854400D01*
X96766232Y-65835186D01*
X96768101Y-65823386D01*
X96769284Y-65816999D01*
X96774708Y-65791479D01*
X96776222Y-65785172D01*
X96779611Y-65772521D01*
X96781457Y-65766289D01*
X96846392Y-65566440D01*
X96848561Y-65560314D01*
X96853256Y-65548085D01*
X96855741Y-65542088D01*
X96866354Y-65518254D01*
X96869148Y-65512397D01*
X96875089Y-65500738D01*
X96878185Y-65495036D01*
X96958493Y-65355938D01*
X96747020Y-65144465D01*
X96392052Y-65499433D01*
X95687775Y-65499433D01*
X95332806Y-65144464D01*
X94977838Y-65499433D01*
X94374972Y-65499433D01*
X94374981Y-65464250D01*
X94374980Y-65464246D01*
X94374982Y-65456321D01*
X94374965Y-65456045D01*
X94374965Y-64792326D01*
X95684945Y-64792326D01*
X96039913Y-65147294D01*
X96394881Y-64792326D01*
X97099159Y-64792326D01*
X97297569Y-64990736D01*
X97397877Y-64917859D01*
X97403233Y-64914179D01*
X97414218Y-64907046D01*
X97419752Y-64903654D01*
X97442347Y-64890610D01*
X97448053Y-64887513D01*
X97459714Y-64881572D01*
X97465568Y-64878780D01*
X97657528Y-64793313D01*
X97663522Y-64790830D01*
X97675749Y-64786136D01*
X97681878Y-64783965D01*
X97706691Y-64775904D01*
X97709713Y-64775009D01*
X98530688Y-64775009D01*
X98533709Y-64775904D01*
X98558522Y-64783965D01*
X98564651Y-64786136D01*
X98576878Y-64790830D01*
X98582872Y-64793313D01*
X98774832Y-64878780D01*
X98780686Y-64881572D01*
X98792347Y-64887513D01*
X98798053Y-64890610D01*
X98820648Y-64903654D01*
X98826182Y-64907046D01*
X98837167Y-64914179D01*
X98842523Y-64917859D01*
X98990362Y-65025271D01*
X99223307Y-64792326D01*
X99927586Y-64792326D01*
X100282554Y-65147294D01*
X100637522Y-64792326D01*
X101341800Y-64792326D01*
X101696768Y-65147294D01*
X102051736Y-64792326D01*
X102756013Y-64792326D01*
X103110981Y-65147294D01*
X103465949Y-64792326D01*
X104170227Y-64792326D01*
X104525195Y-65147294D01*
X104880163Y-64792326D01*
X105584440Y-64792326D01*
X105939408Y-65147294D01*
X106294376Y-64792326D01*
X106998654Y-64792326D01*
X107353622Y-65147294D01*
X107708590Y-64792326D01*
X108412867Y-64792326D01*
X108767835Y-65147294D01*
X109122803Y-64792326D01*
X109827081Y-64792326D01*
X110182049Y-65147294D01*
X110537017Y-64792326D01*
X111241294Y-64792326D01*
X111596262Y-65147294D01*
X111951231Y-64792326D01*
X112655508Y-64792326D01*
X113010476Y-65147294D01*
X113365444Y-64792326D01*
X114069722Y-64792326D01*
X114424690Y-65147294D01*
X114779658Y-64792326D01*
X115483935Y-64792326D01*
X115838903Y-65147294D01*
X116193871Y-64792326D01*
X116898149Y-64792326D01*
X117253117Y-65147294D01*
X117608085Y-64792326D01*
X118312362Y-64792326D01*
X118667330Y-65147294D01*
X119022298Y-64792326D01*
X119726576Y-64792326D01*
X120081544Y-65147294D01*
X120436512Y-64792326D01*
X121140789Y-64792326D01*
X121495757Y-65147294D01*
X121850725Y-64792326D01*
X122555003Y-64792326D01*
X122909971Y-65147294D01*
X123264939Y-64792326D01*
X122909971Y-64437358D01*
X122555003Y-64792326D01*
X121850725Y-64792326D01*
X121495757Y-64437357D01*
X121140789Y-64792326D01*
X120436512Y-64792326D01*
X120081544Y-64437358D01*
X119726576Y-64792326D01*
X119022298Y-64792326D01*
X118667330Y-64437358D01*
X118312362Y-64792326D01*
X117608085Y-64792326D01*
X117253117Y-64437358D01*
X116898149Y-64792326D01*
X116193871Y-64792326D01*
X115838903Y-64437358D01*
X115483935Y-64792326D01*
X114779658Y-64792326D01*
X114424690Y-64437358D01*
X114069722Y-64792326D01*
X113365444Y-64792326D01*
X113010476Y-64437358D01*
X112655508Y-64792326D01*
X111951231Y-64792326D01*
X111596262Y-64437357D01*
X111241294Y-64792326D01*
X110537017Y-64792326D01*
X110182049Y-64437358D01*
X109827081Y-64792326D01*
X109122803Y-64792326D01*
X108767835Y-64437357D01*
X108412867Y-64792326D01*
X107708590Y-64792326D01*
X107353622Y-64437358D01*
X106998654Y-64792326D01*
X106294376Y-64792326D01*
X105939408Y-64437358D01*
X105584440Y-64792326D01*
X104880163Y-64792326D01*
X104525195Y-64437358D01*
X104170227Y-64792326D01*
X103465949Y-64792326D01*
X103110981Y-64437358D01*
X102756013Y-64792326D01*
X102051736Y-64792326D01*
X101696768Y-64437358D01*
X101341800Y-64792326D01*
X100637522Y-64792326D01*
X100282554Y-64437358D01*
X99927586Y-64792326D01*
X99223307Y-64792326D01*
X99223308Y-64792325D01*
X98868340Y-64437357D01*
X98530688Y-64775009D01*
X97709713Y-64775009D01*
X97712910Y-64774062D01*
X97725554Y-64770674D01*
X97731866Y-64769159D01*
X97776450Y-64759681D01*
X97454127Y-64437358D01*
X97099159Y-64792326D01*
X96394881Y-64792326D01*
X96039913Y-64437358D01*
X95684945Y-64792326D01*
X94374965Y-64792326D01*
X94374965Y-64085219D01*
X94977838Y-64085219D01*
X95332806Y-64440187D01*
X95687775Y-64085219D01*
X96392052Y-64085219D01*
X96747020Y-64440187D01*
X97101988Y-64085219D01*
X97806266Y-64085219D01*
X98161234Y-64440187D01*
X98516202Y-64085219D01*
X99220479Y-64085219D01*
X99575447Y-64440187D01*
X99930415Y-64085219D01*
X100634693Y-64085219D01*
X100989661Y-64440187D01*
X101344629Y-64085219D01*
X102048906Y-64085219D01*
X102403874Y-64440187D01*
X102758842Y-64085219D01*
X103463120Y-64085219D01*
X103818088Y-64440187D01*
X104173056Y-64085219D01*
X104877333Y-64085219D01*
X105232301Y-64440187D01*
X105587270Y-64085219D01*
X106291547Y-64085219D01*
X106646515Y-64440187D01*
X107001483Y-64085219D01*
X107705761Y-64085219D01*
X108060729Y-64440187D01*
X108415697Y-64085219D01*
X109119974Y-64085219D01*
X109474942Y-64440187D01*
X109829910Y-64085219D01*
X110534188Y-64085219D01*
X110889156Y-64440187D01*
X111244124Y-64085219D01*
X111948401Y-64085219D01*
X112303369Y-64440187D01*
X112658337Y-64085219D01*
X113362615Y-64085219D01*
X113717583Y-64440187D01*
X114072551Y-64085219D01*
X114776828Y-64085219D01*
X115131796Y-64440187D01*
X115486764Y-64085219D01*
X116191042Y-64085219D01*
X116546010Y-64440187D01*
X116900978Y-64085219D01*
X117605255Y-64085219D01*
X117960223Y-64440187D01*
X118315192Y-64085219D01*
X119019469Y-64085219D01*
X119374437Y-64440187D01*
X119729405Y-64085219D01*
X120433683Y-64085219D01*
X120788651Y-64440187D01*
X121143619Y-64085219D01*
X121847896Y-64085219D01*
X122202864Y-64440187D01*
X122557832Y-64085219D01*
X123262110Y-64085219D01*
X123592831Y-64415940D01*
X123592831Y-63754498D01*
X123262110Y-64085219D01*
X122557832Y-64085219D01*
X122202864Y-63730251D01*
X121847896Y-64085219D01*
X121143619Y-64085219D01*
X120788651Y-63730251D01*
X120433683Y-64085219D01*
X119729405Y-64085219D01*
X119374437Y-63730251D01*
X119019469Y-64085219D01*
X118315192Y-64085219D01*
X117960223Y-63730250D01*
X117605255Y-64085219D01*
X116900978Y-64085219D01*
X116546010Y-63730251D01*
X116191042Y-64085219D01*
X115486764Y-64085219D01*
X115131796Y-63730250D01*
X114776828Y-64085219D01*
X114072551Y-64085219D01*
X113717583Y-63730251D01*
X113362615Y-64085219D01*
X112658337Y-64085219D01*
X112303369Y-63730251D01*
X111948401Y-64085219D01*
X111244124Y-64085219D01*
X110889156Y-63730251D01*
X110534188Y-64085219D01*
X109829910Y-64085219D01*
X109474942Y-63730251D01*
X109119974Y-64085219D01*
X108415697Y-64085219D01*
X108060729Y-63730251D01*
X107705761Y-64085219D01*
X107001483Y-64085219D01*
X106646515Y-63730251D01*
X106291547Y-64085219D01*
X105587270Y-64085219D01*
X105232301Y-63730250D01*
X104877333Y-64085219D01*
X104173056Y-64085219D01*
X103818088Y-63730251D01*
X103463120Y-64085219D01*
X102758842Y-64085219D01*
X102403874Y-63730251D01*
X102048906Y-64085219D01*
X101344629Y-64085219D01*
X100989661Y-63730251D01*
X100634693Y-64085219D01*
X99930415Y-64085219D01*
X99575447Y-63730251D01*
X99220479Y-64085219D01*
X98516202Y-64085219D01*
X98161234Y-63730251D01*
X97806266Y-64085219D01*
X97101988Y-64085219D01*
X96747020Y-63730251D01*
X96392052Y-64085219D01*
X95687775Y-64085219D01*
X95332806Y-63730250D01*
X94977838Y-64085219D01*
X94374965Y-64085219D01*
X94374965Y-63783284D01*
X94374968Y-63782435D01*
X94375228Y-63744452D01*
X94375537Y-63699325D01*
X94346116Y-63525939D01*
X94291670Y-63373685D01*
X94286902Y-63360351D01*
X94286901Y-63360350D01*
X94286899Y-63360343D01*
X94199704Y-63207617D01*
X94153134Y-63151660D01*
X94127895Y-63121334D01*
X94723890Y-63121334D01*
X94724791Y-63122912D01*
X94727378Y-63127683D01*
X94732389Y-63137427D01*
X94734770Y-63142318D01*
X94743896Y-63162158D01*
X94746058Y-63167143D01*
X94750199Y-63177295D01*
X94752142Y-63182375D01*
X94818712Y-63368535D01*
X94820428Y-63373685D01*
X94823663Y-63384156D01*
X94825154Y-63389389D01*
X94830679Y-63410518D01*
X94831938Y-63415804D01*
X94834244Y-63426521D01*
X94835272Y-63431861D01*
X94848566Y-63510213D01*
X94980668Y-63378112D01*
X95684945Y-63378112D01*
X96039913Y-63733080D01*
X96394881Y-63378112D01*
X97099159Y-63378112D01*
X97454127Y-63733080D01*
X97809095Y-63378112D01*
X98513372Y-63378112D01*
X98868340Y-63733080D01*
X99223308Y-63378112D01*
X99927586Y-63378112D01*
X100282554Y-63733080D01*
X100637522Y-63378112D01*
X101341800Y-63378112D01*
X101696768Y-63733080D01*
X102051736Y-63378112D01*
X102756013Y-63378112D01*
X103110981Y-63733080D01*
X103465949Y-63378112D01*
X104170227Y-63378112D01*
X104525195Y-63733080D01*
X104880163Y-63378112D01*
X105584440Y-63378112D01*
X105939408Y-63733080D01*
X106294376Y-63378112D01*
X106998654Y-63378112D01*
X107353622Y-63733080D01*
X107708590Y-63378112D01*
X108412867Y-63378112D01*
X108767835Y-63733080D01*
X109122803Y-63378112D01*
X109827081Y-63378112D01*
X110182049Y-63733080D01*
X110537017Y-63378112D01*
X111241294Y-63378112D01*
X111596262Y-63733080D01*
X111951231Y-63378112D01*
X112655508Y-63378112D01*
X113010476Y-63733080D01*
X113365444Y-63378112D01*
X114069722Y-63378112D01*
X114424690Y-63733080D01*
X114779658Y-63378112D01*
X115483935Y-63378112D01*
X115838903Y-63733080D01*
X116193871Y-63378112D01*
X116898149Y-63378112D01*
X117253117Y-63733080D01*
X117608085Y-63378112D01*
X118312362Y-63378112D01*
X118667330Y-63733080D01*
X119022298Y-63378112D01*
X119726576Y-63378112D01*
X120081544Y-63733080D01*
X120436512Y-63378112D01*
X121140789Y-63378112D01*
X121495757Y-63733080D01*
X121850725Y-63378112D01*
X122555003Y-63378112D01*
X122909971Y-63733080D01*
X123264939Y-63378112D01*
X122909971Y-63023144D01*
X122555003Y-63378112D01*
X121850725Y-63378112D01*
X121495757Y-63023143D01*
X121140789Y-63378112D01*
X120436512Y-63378112D01*
X120081544Y-63023144D01*
X119726576Y-63378112D01*
X119022298Y-63378112D01*
X118667330Y-63023144D01*
X118312362Y-63378112D01*
X117608085Y-63378112D01*
X117253117Y-63023144D01*
X116898149Y-63378112D01*
X116193871Y-63378112D01*
X115838903Y-63023144D01*
X115483935Y-63378112D01*
X114779658Y-63378112D01*
X114424690Y-63023144D01*
X114069722Y-63378112D01*
X113365444Y-63378112D01*
X113010476Y-63023144D01*
X112655508Y-63378112D01*
X111951231Y-63378112D01*
X111596262Y-63023143D01*
X111241294Y-63378112D01*
X110537017Y-63378112D01*
X110182049Y-63023144D01*
X109827081Y-63378112D01*
X109122803Y-63378112D01*
X108767835Y-63023143D01*
X108412867Y-63378112D01*
X107708590Y-63378112D01*
X107353622Y-63023144D01*
X106998654Y-63378112D01*
X106294376Y-63378112D01*
X105939408Y-63023144D01*
X105584440Y-63378112D01*
X104880163Y-63378112D01*
X104525195Y-63023144D01*
X104170227Y-63378112D01*
X103465949Y-63378112D01*
X103110981Y-63023144D01*
X102756013Y-63378112D01*
X102051736Y-63378112D01*
X101696768Y-63023144D01*
X101341800Y-63378112D01*
X100637522Y-63378112D01*
X100282554Y-63023144D01*
X99927586Y-63378112D01*
X99223308Y-63378112D01*
X98868340Y-63023143D01*
X98513372Y-63378112D01*
X97809095Y-63378112D01*
X97454127Y-63023144D01*
X97099159Y-63378112D01*
X96394881Y-63378112D01*
X96039913Y-63023144D01*
X95684945Y-63378112D01*
X94980668Y-63378112D01*
X94723890Y-63121334D01*
X94127895Y-63121334D01*
X94087205Y-63072442D01*
X93952850Y-62958966D01*
X93800757Y-62870666D01*
X93635593Y-62810250D01*
X93462421Y-62779572D01*
X93462423Y-62779572D01*
X93448544Y-62779567D01*
X93448107Y-62779539D01*
X93440389Y-62779539D01*
X92648349Y-62779539D01*
X92648256Y-62779533D01*
X92574445Y-62779538D01*
X92574430Y-62779539D01*
X92500964Y-62779539D01*
X92500493Y-62779568D01*
X92486923Y-62779569D01*
X92486907Y-62779570D01*
X92486902Y-62779570D01*
X92486899Y-62779571D01*
X92314525Y-62809973D01*
X92314517Y-62809975D01*
X92150038Y-62869843D01*
X92150028Y-62869848D01*
X91998443Y-62957366D01*
X91998435Y-62957371D01*
X91864347Y-63069876D01*
X91751822Y-63203961D01*
X91751821Y-63203963D01*
X91664287Y-63355548D01*
X91664280Y-63355562D01*
X91604398Y-63520031D01*
X91604394Y-63520048D01*
X91573979Y-63692408D01*
X91573977Y-63692425D01*
X91573975Y-63706661D01*
X91573965Y-63706835D01*
X91573965Y-63779962D01*
X91573953Y-63853864D01*
X91075953Y-63853864D01*
X91075965Y-63779922D01*
X91075965Y-63744452D01*
X90735198Y-64085219D01*
X90030920Y-64085219D01*
X89675952Y-63730251D01*
X89320984Y-64085219D01*
X88616707Y-64085219D01*
X88261739Y-63730251D01*
X87906771Y-64085219D01*
X87202493Y-64085219D01*
X86847525Y-63730251D01*
X86492557Y-64085219D01*
X85674965Y-64085219D01*
X85674965Y-63783284D01*
X85674968Y-63782435D01*
X85675228Y-63744452D01*
X85675537Y-63699325D01*
X85646116Y-63525939D01*
X85591670Y-63373685D01*
X85586902Y-63360351D01*
X85586901Y-63360350D01*
X85586899Y-63360343D01*
X85524069Y-63250293D01*
X86076429Y-63250293D01*
X86118712Y-63368535D01*
X86120428Y-63373685D01*
X86123663Y-63384156D01*
X86125154Y-63389389D01*
X86130679Y-63410518D01*
X86131938Y-63415804D01*
X86134244Y-63426521D01*
X86135272Y-63431861D01*
X86168342Y-63626754D01*
X86169132Y-63632120D01*
X86170488Y-63642970D01*
X86171043Y-63648365D01*
X86172797Y-63670082D01*
X86173114Y-63675484D01*
X86173518Y-63686411D01*
X86173600Y-63691841D01*
X86173544Y-63699953D01*
X86495385Y-63378112D01*
X87199664Y-63378112D01*
X87554632Y-63733080D01*
X87909600Y-63378112D01*
X88613877Y-63378112D01*
X88968845Y-63733080D01*
X89323814Y-63378112D01*
X90028091Y-63378112D01*
X90383059Y-63733080D01*
X90738027Y-63378112D01*
X90383059Y-63023144D01*
X90028091Y-63378112D01*
X89323814Y-63378112D01*
X88968845Y-63023143D01*
X88613877Y-63378112D01*
X87909600Y-63378112D01*
X87554632Y-63023144D01*
X87199664Y-63378112D01*
X86495385Y-63378112D01*
X86495386Y-63378111D01*
X86268935Y-63151660D01*
X86233750Y-63174272D01*
X86229980Y-63176600D01*
X86222307Y-63181152D01*
X86218469Y-63183338D01*
X86202861Y-63191861D01*
X86198931Y-63193917D01*
X86190945Y-63197914D01*
X86186954Y-63199823D01*
X86076429Y-63250293D01*
X85524069Y-63250293D01*
X85499704Y-63207617D01*
X85499702Y-63207614D01*
X85420641Y-63112617D01*
X85392886Y-63048496D01*
X85404204Y-62979549D01*
X85451001Y-62927666D01*
X85498303Y-62910558D01*
X85570820Y-62900134D01*
X85570825Y-62900132D01*
X85570828Y-62900132D01*
X85756173Y-62845716D01*
X86667267Y-62845716D01*
X86847525Y-63025974D01*
X87202493Y-62671005D01*
X87906770Y-62671005D01*
X88261739Y-63025974D01*
X88616707Y-62671005D01*
X89320983Y-62671005D01*
X89675952Y-63025974D01*
X90030920Y-62671005D01*
X90735197Y-62671005D01*
X91090166Y-63025974D01*
X91445134Y-62671005D01*
X94977838Y-62671005D01*
X95332806Y-63025974D01*
X95687775Y-62671005D01*
X96392051Y-62671005D01*
X96747020Y-63025974D01*
X97101988Y-62671005D01*
X97806265Y-62671005D01*
X98161234Y-63025974D01*
X98516202Y-62671005D01*
X99220478Y-62671005D01*
X99575447Y-63025974D01*
X99930415Y-62671005D01*
X100634692Y-62671005D01*
X100989661Y-63025974D01*
X101344629Y-62671005D01*
X102048905Y-62671005D01*
X102403874Y-63025974D01*
X102758842Y-62671005D01*
X103463119Y-62671005D01*
X103818088Y-63025974D01*
X104173056Y-62671005D01*
X104877333Y-62671005D01*
X105232301Y-63025974D01*
X105587270Y-62671005D01*
X106291546Y-62671005D01*
X106646515Y-63025974D01*
X107001483Y-62671005D01*
X107705760Y-62671005D01*
X108060729Y-63025974D01*
X108415697Y-62671005D01*
X109119973Y-62671005D01*
X109474942Y-63025974D01*
X109829910Y-62671005D01*
X110534187Y-62671005D01*
X110889156Y-63025974D01*
X111244124Y-62671005D01*
X111948400Y-62671005D01*
X112303369Y-63025974D01*
X112658337Y-62671005D01*
X113362614Y-62671005D01*
X113717583Y-63025974D01*
X114072551Y-62671005D01*
X114776827Y-62671005D01*
X115131796Y-63025974D01*
X115486764Y-62671005D01*
X116191041Y-62671005D01*
X116546010Y-63025974D01*
X116900978Y-62671005D01*
X117605255Y-62671005D01*
X117960223Y-63025974D01*
X118315192Y-62671005D01*
X119019468Y-62671005D01*
X119374437Y-63025974D01*
X119729405Y-62671005D01*
X120433682Y-62671005D01*
X120788651Y-63025974D01*
X121143619Y-62671005D01*
X121847895Y-62671005D01*
X122202864Y-63025974D01*
X122557832Y-62671005D01*
X123262109Y-62671005D01*
X123592585Y-63001481D01*
X123592658Y-62993225D01*
X123590531Y-62969285D01*
X123575489Y-62950402D01*
X123283626Y-62649489D01*
X123262109Y-62671005D01*
X122557832Y-62671005D01*
X122202864Y-62316037D01*
X121847895Y-62671005D01*
X121143619Y-62671005D01*
X120788651Y-62316037D01*
X120433682Y-62671005D01*
X119729405Y-62671005D01*
X119374437Y-62316037D01*
X119019468Y-62671005D01*
X118315192Y-62671005D01*
X117960223Y-62316037D01*
X117605255Y-62671005D01*
X116900978Y-62671005D01*
X116546010Y-62316037D01*
X116191041Y-62671005D01*
X115486764Y-62671005D01*
X115131796Y-62316037D01*
X114776827Y-62671005D01*
X114072551Y-62671005D01*
X113717583Y-62316037D01*
X113362614Y-62671005D01*
X112658337Y-62671005D01*
X112303369Y-62316037D01*
X111948400Y-62671005D01*
X111244124Y-62671005D01*
X110889156Y-62316037D01*
X110534187Y-62671005D01*
X109829910Y-62671005D01*
X109474942Y-62316037D01*
X109119973Y-62671005D01*
X108415697Y-62671005D01*
X108060729Y-62316037D01*
X107705760Y-62671005D01*
X107001483Y-62671005D01*
X106646515Y-62316037D01*
X106291546Y-62671005D01*
X105587270Y-62671005D01*
X105232301Y-62316037D01*
X104877333Y-62671005D01*
X104173056Y-62671005D01*
X103818088Y-62316037D01*
X103463119Y-62671005D01*
X102758842Y-62671005D01*
X102403874Y-62316037D01*
X102048905Y-62671005D01*
X101344629Y-62671005D01*
X100989661Y-62316037D01*
X100634692Y-62671005D01*
X99930415Y-62671005D01*
X99575447Y-62316037D01*
X99220478Y-62671005D01*
X98516202Y-62671005D01*
X98161234Y-62316037D01*
X97806265Y-62671005D01*
X97101988Y-62671005D01*
X96747020Y-62316037D01*
X96392051Y-62671005D01*
X95687775Y-62671005D01*
X95332806Y-62316037D01*
X94977838Y-62671005D01*
X91445134Y-62671005D01*
X91139559Y-62365430D01*
X93869199Y-62365430D01*
X93982091Y-62406726D01*
X93987146Y-62408701D01*
X93997267Y-62412914D01*
X94002246Y-62415116D01*
X94022019Y-62424385D01*
X94026887Y-62426799D01*
X94032064Y-62429508D01*
X93918592Y-62316037D01*
X93869199Y-62365430D01*
X91139559Y-62365430D01*
X91090166Y-62316037D01*
X90735197Y-62671005D01*
X90030920Y-62671005D01*
X89675952Y-62316037D01*
X89320983Y-62671005D01*
X88616707Y-62671005D01*
X88261739Y-62316037D01*
X87906770Y-62671005D01*
X87202493Y-62671005D01*
X86975287Y-62443799D01*
X86869464Y-62608456D01*
X86867000Y-62612143D01*
X86861907Y-62619477D01*
X86859321Y-62623062D01*
X86848664Y-62637297D01*
X86845946Y-62640796D01*
X86840347Y-62647743D01*
X86837512Y-62651135D01*
X86685307Y-62826782D01*
X86682345Y-62830080D01*
X86676257Y-62836618D01*
X86673182Y-62839803D01*
X86667267Y-62845716D01*
X85756173Y-62845716D01*
X85776752Y-62839674D01*
X85776755Y-62839673D01*
X85776756Y-62839672D01*
X85776761Y-62839671D01*
X85972000Y-62750515D01*
X86152563Y-62634480D01*
X86314776Y-62493930D01*
X86455334Y-62331725D01*
X86571378Y-62151167D01*
X86656906Y-61963898D01*
X87199663Y-61963898D01*
X87554632Y-62318867D01*
X87909600Y-61963899D01*
X88613877Y-61963899D01*
X88968845Y-62318867D01*
X89323814Y-61963899D01*
X90028091Y-61963899D01*
X90383059Y-62318867D01*
X90738027Y-61963899D01*
X91442305Y-61963899D01*
X91797273Y-62318867D01*
X92152241Y-61963899D01*
X92856518Y-61963899D01*
X93174158Y-62281539D01*
X93248814Y-62281539D01*
X93566454Y-61963899D01*
X94270732Y-61963899D01*
X94625700Y-62318867D01*
X94980668Y-61963899D01*
X95684945Y-61963899D01*
X96039913Y-62318867D01*
X96394881Y-61963899D01*
X97099159Y-61963899D01*
X97454127Y-62318867D01*
X97809095Y-61963899D01*
X98513372Y-61963899D01*
X98868340Y-62318867D01*
X99223308Y-61963899D01*
X99927586Y-61963899D01*
X100282554Y-62318867D01*
X100637522Y-61963899D01*
X101341800Y-61963899D01*
X101696768Y-62318867D01*
X102051736Y-61963899D01*
X102756013Y-61963899D01*
X103110981Y-62318867D01*
X103465949Y-61963899D01*
X104170227Y-61963899D01*
X104525195Y-62318867D01*
X104880163Y-61963899D01*
X105584440Y-61963899D01*
X105939408Y-62318867D01*
X106294376Y-61963899D01*
X106998654Y-61963899D01*
X107353622Y-62318867D01*
X107708590Y-61963899D01*
X108412867Y-61963899D01*
X108767835Y-62318867D01*
X109122803Y-61963899D01*
X109827081Y-61963899D01*
X110182049Y-62318867D01*
X110537017Y-61963899D01*
X111241294Y-61963899D01*
X111596262Y-62318867D01*
X111951231Y-61963899D01*
X112655508Y-61963899D01*
X113010476Y-62318867D01*
X113365444Y-61963899D01*
X114069722Y-61963899D01*
X114424690Y-62318867D01*
X114779658Y-61963899D01*
X115483935Y-61963899D01*
X115838903Y-62318867D01*
X116193871Y-61963899D01*
X116898149Y-61963899D01*
X117253117Y-62318867D01*
X117608085Y-61963899D01*
X118312362Y-61963899D01*
X118667330Y-62318867D01*
X119022298Y-61963899D01*
X119726576Y-61963899D01*
X120081544Y-62318867D01*
X120436512Y-61963899D01*
X121140789Y-61963899D01*
X121495757Y-62318867D01*
X121850725Y-61963899D01*
X121850724Y-61963898D01*
X122555002Y-61963898D01*
X122909970Y-62318866D01*
X122936863Y-62291973D01*
X122587315Y-61931586D01*
X122555002Y-61963898D01*
X121850724Y-61963898D01*
X121495757Y-61608930D01*
X121140789Y-61963899D01*
X120436512Y-61963899D01*
X120081544Y-61608931D01*
X119726576Y-61963899D01*
X119022298Y-61963899D01*
X118667330Y-61608931D01*
X118312362Y-61963899D01*
X117608085Y-61963899D01*
X117253117Y-61608931D01*
X116898149Y-61963899D01*
X116193871Y-61963899D01*
X115838903Y-61608931D01*
X115483935Y-61963899D01*
X114779658Y-61963899D01*
X114424690Y-61608931D01*
X114069722Y-61963899D01*
X113365444Y-61963899D01*
X113010476Y-61608931D01*
X112655508Y-61963899D01*
X111951231Y-61963899D01*
X111596262Y-61608930D01*
X111241294Y-61963899D01*
X110537017Y-61963899D01*
X110182049Y-61608931D01*
X109827081Y-61963899D01*
X109122803Y-61963899D01*
X108767835Y-61608930D01*
X108412867Y-61963899D01*
X107708590Y-61963899D01*
X107353622Y-61608931D01*
X106998654Y-61963899D01*
X106294376Y-61963899D01*
X105939408Y-61608931D01*
X105584440Y-61963899D01*
X104880163Y-61963899D01*
X104525195Y-61608931D01*
X104170227Y-61963899D01*
X103465949Y-61963899D01*
X103110981Y-61608931D01*
X102756013Y-61963899D01*
X102051736Y-61963899D01*
X101696768Y-61608931D01*
X101341800Y-61963899D01*
X100637522Y-61963899D01*
X100282554Y-61608931D01*
X99927586Y-61963899D01*
X99223308Y-61963899D01*
X98868340Y-61608930D01*
X98513372Y-61963899D01*
X97809095Y-61963899D01*
X97454127Y-61608931D01*
X97099159Y-61963899D01*
X96394881Y-61963899D01*
X96039913Y-61608931D01*
X95684945Y-61963899D01*
X94980668Y-61963899D01*
X94625700Y-61608931D01*
X94270732Y-61963899D01*
X93566454Y-61963899D01*
X93211486Y-61608931D01*
X92856518Y-61963899D01*
X92152241Y-61963899D01*
X91797273Y-61608931D01*
X91442305Y-61963899D01*
X90738027Y-61963899D01*
X90383059Y-61608931D01*
X90028091Y-61963899D01*
X89323814Y-61963899D01*
X88968845Y-61608930D01*
X88613877Y-61963899D01*
X87909600Y-61963899D01*
X87554631Y-61608930D01*
X87199663Y-61963898D01*
X86656906Y-61963898D01*
X86660544Y-61955932D01*
X86721018Y-61749995D01*
X86751568Y-61537548D01*
X86751568Y-61510559D01*
X86751570Y-61510542D01*
X86751570Y-61430211D01*
X86751570Y-61430209D01*
X86751572Y-61364339D01*
X86751570Y-61364334D01*
X86751571Y-61356755D01*
X86751570Y-61356721D01*
X86751570Y-61256792D01*
X87906771Y-61256792D01*
X88261739Y-61611760D01*
X88616707Y-61256792D01*
X89320984Y-61256792D01*
X89675952Y-61611760D01*
X90030920Y-61256792D01*
X90735198Y-61256792D01*
X91090166Y-61611760D01*
X91445134Y-61256792D01*
X92149411Y-61256792D01*
X92504379Y-61611760D01*
X92859347Y-61256792D01*
X93563625Y-61256792D01*
X93918593Y-61611760D01*
X94273561Y-61256792D01*
X94977838Y-61256792D01*
X95332806Y-61611760D01*
X95687775Y-61256792D01*
X96392052Y-61256792D01*
X96747020Y-61611760D01*
X97101988Y-61256792D01*
X97806266Y-61256792D01*
X98161234Y-61611760D01*
X98516202Y-61256792D01*
X98516201Y-61256791D01*
X99220478Y-61256791D01*
X99575447Y-61611760D01*
X99930415Y-61256792D01*
X100634693Y-61256792D01*
X100989661Y-61611760D01*
X101344629Y-61256792D01*
X101344628Y-61256791D01*
X102048905Y-61256791D01*
X102403874Y-61611760D01*
X102758842Y-61256792D01*
X103463120Y-61256792D01*
X103818088Y-61611760D01*
X104173056Y-61256792D01*
X104877333Y-61256792D01*
X105232301Y-61611760D01*
X105587270Y-61256792D01*
X106291547Y-61256792D01*
X106646515Y-61611760D01*
X107001483Y-61256792D01*
X107705761Y-61256792D01*
X108060729Y-61611760D01*
X108415697Y-61256792D01*
X109119974Y-61256792D01*
X109474942Y-61611760D01*
X109829910Y-61256792D01*
X110534188Y-61256792D01*
X110889156Y-61611760D01*
X111244124Y-61256792D01*
X111948401Y-61256792D01*
X112303369Y-61611760D01*
X112658337Y-61256792D01*
X113362615Y-61256792D01*
X113717583Y-61611760D01*
X114072551Y-61256792D01*
X114776828Y-61256792D01*
X115131796Y-61611760D01*
X115486764Y-61256792D01*
X116191042Y-61256792D01*
X116546010Y-61611760D01*
X116900978Y-61256792D01*
X117605255Y-61256792D01*
X117960223Y-61611760D01*
X118315192Y-61256792D01*
X119019469Y-61256792D01*
X119374437Y-61611760D01*
X119729405Y-61256792D01*
X120433683Y-61256792D01*
X120788651Y-61611760D01*
X121143619Y-61256792D01*
X121143618Y-61256791D01*
X121847895Y-61256791D01*
X122202863Y-61611759D01*
X122240551Y-61574071D01*
X121891003Y-61213684D01*
X121847895Y-61256791D01*
X121143618Y-61256791D01*
X120788651Y-60901824D01*
X120433683Y-61256792D01*
X119729405Y-61256792D01*
X119374437Y-60901824D01*
X119019469Y-61256792D01*
X118315192Y-61256792D01*
X117960223Y-60901823D01*
X117605255Y-61256792D01*
X116900978Y-61256792D01*
X116546010Y-60901824D01*
X116191042Y-61256792D01*
X115486764Y-61256792D01*
X115131796Y-60901823D01*
X114776828Y-61256792D01*
X114072551Y-61256792D01*
X113717583Y-60901824D01*
X113362615Y-61256792D01*
X112658337Y-61256792D01*
X112303369Y-60901824D01*
X111948401Y-61256792D01*
X111244124Y-61256792D01*
X110889156Y-60901824D01*
X110534188Y-61256792D01*
X109829910Y-61256792D01*
X109474942Y-60901824D01*
X109119974Y-61256792D01*
X108415697Y-61256792D01*
X108060729Y-60901824D01*
X107705761Y-61256792D01*
X107001483Y-61256792D01*
X106646515Y-60901824D01*
X106291547Y-61256792D01*
X105587270Y-61256792D01*
X105232301Y-60901823D01*
X104877333Y-61256792D01*
X104173056Y-61256792D01*
X103818088Y-60901824D01*
X103463120Y-61256792D01*
X102758842Y-61256792D01*
X102514582Y-61012532D01*
X102462818Y-61043197D01*
X102458153Y-61045826D01*
X102448640Y-61050920D01*
X102443871Y-61053343D01*
X102424496Y-61062666D01*
X102419633Y-61064879D01*
X102409716Y-61069135D01*
X102404747Y-61071141D01*
X102222690Y-61140119D01*
X102217641Y-61141908D01*
X102207397Y-61145291D01*
X102202292Y-61146856D01*
X102181605Y-61152713D01*
X102176421Y-61154061D01*
X102165919Y-61156550D01*
X102160684Y-61157672D01*
X102145020Y-61160676D01*
X102048905Y-61256791D01*
X101344628Y-61256791D01*
X101290562Y-61202725D01*
X100688760Y-61202725D01*
X100634693Y-61256792D01*
X99930415Y-61256792D01*
X99794903Y-61121280D01*
X99677912Y-61078701D01*
X99672870Y-61076741D01*
X99662783Y-61072563D01*
X99657819Y-61070378D01*
X99638118Y-61061189D01*
X99633275Y-61058801D01*
X99623605Y-61053767D01*
X99618864Y-61051166D01*
X99496658Y-60980611D01*
X99220478Y-61256791D01*
X98516201Y-61256791D01*
X98161234Y-60901824D01*
X97806266Y-61256792D01*
X97101988Y-61256792D01*
X96747020Y-60901824D01*
X96392052Y-61256792D01*
X95687775Y-61256792D01*
X95332806Y-60901823D01*
X94977838Y-61256792D01*
X94273561Y-61256792D01*
X93918593Y-60901824D01*
X93563625Y-61256792D01*
X92859347Y-61256792D01*
X92504379Y-60901823D01*
X92149411Y-61256792D01*
X91445134Y-61256792D01*
X91090166Y-60901824D01*
X90735198Y-61256792D01*
X90030920Y-61256792D01*
X89675952Y-60901824D01*
X89320984Y-61256792D01*
X88616707Y-61256792D01*
X88261739Y-60901824D01*
X87906771Y-61256792D01*
X86751570Y-61256792D01*
X86751570Y-60499779D01*
X87249570Y-60499779D01*
X87249570Y-60599591D01*
X87554632Y-60904653D01*
X87909600Y-60549685D01*
X88613877Y-60549685D01*
X88968845Y-60904653D01*
X89323814Y-60549685D01*
X90028091Y-60549685D01*
X90383059Y-60904653D01*
X90738027Y-60549685D01*
X91442305Y-60549685D01*
X91797273Y-60904653D01*
X92152241Y-60549685D01*
X92856518Y-60549685D01*
X93211486Y-60904653D01*
X93566454Y-60549685D01*
X94270732Y-60549685D01*
X94625700Y-60904653D01*
X94980668Y-60549685D01*
X95684945Y-60549685D01*
X96039913Y-60904653D01*
X96394881Y-60549685D01*
X97099159Y-60549685D01*
X97454127Y-60904653D01*
X97809095Y-60549685D01*
X98513372Y-60549685D01*
X98868340Y-60904653D01*
X99121547Y-60651445D01*
X99071732Y-60592081D01*
X99068343Y-60587858D01*
X99061705Y-60579207D01*
X99058512Y-60574852D01*
X99046043Y-60557047D01*
X99043036Y-60552548D01*
X99037171Y-60543343D01*
X99034362Y-60538715D01*
X98935956Y-60368281D01*
X98933355Y-60363539D01*
X98928318Y-60353864D01*
X98925925Y-60349013D01*
X98916738Y-60329314D01*
X98914557Y-60324356D01*
X98910381Y-60314274D01*
X98908422Y-60309236D01*
X98867164Y-60195892D01*
X98513372Y-60549685D01*
X97809095Y-60549685D01*
X97454127Y-60194717D01*
X97099159Y-60549685D01*
X96394881Y-60549685D01*
X96039913Y-60194717D01*
X95684945Y-60549685D01*
X94980668Y-60549685D01*
X94625700Y-60194717D01*
X94270732Y-60549685D01*
X93566454Y-60549685D01*
X93211486Y-60194717D01*
X92856518Y-60549685D01*
X92152241Y-60549685D01*
X91797273Y-60194717D01*
X91442305Y-60549685D01*
X90738027Y-60549685D01*
X90383059Y-60194717D01*
X90028091Y-60549685D01*
X89323814Y-60549685D01*
X88968845Y-60194716D01*
X88613877Y-60549685D01*
X87909600Y-60549685D01*
X87554632Y-60194717D01*
X87249570Y-60499779D01*
X86751570Y-60499779D01*
X86751570Y-59842578D01*
X87906771Y-59842578D01*
X88261739Y-60197546D01*
X88616707Y-59842578D01*
X89320984Y-59842578D01*
X89675952Y-60197546D01*
X90030920Y-59842578D01*
X90735198Y-59842578D01*
X91090166Y-60197546D01*
X91445134Y-59842578D01*
X92149411Y-59842578D01*
X92504379Y-60197546D01*
X92859347Y-59842578D01*
X93563625Y-59842578D01*
X93918593Y-60197546D01*
X94273561Y-59842578D01*
X94977838Y-59842578D01*
X95332806Y-60197546D01*
X95687775Y-59842578D01*
X96392052Y-59842578D01*
X96747020Y-60197546D01*
X97101988Y-59842578D01*
X97806266Y-59842578D01*
X98161234Y-60197546D01*
X98516202Y-59842578D01*
X98161234Y-59487610D01*
X97806266Y-59842578D01*
X97101988Y-59842578D01*
X96747020Y-59487610D01*
X96392052Y-59842578D01*
X95687775Y-59842578D01*
X95332806Y-59487609D01*
X94977838Y-59842578D01*
X94273561Y-59842578D01*
X93918593Y-59487610D01*
X93563625Y-59842578D01*
X92859347Y-59842578D01*
X92504379Y-59487609D01*
X92149411Y-59842578D01*
X91445134Y-59842578D01*
X91090166Y-59487610D01*
X90735198Y-59842578D01*
X90030920Y-59842578D01*
X89675952Y-59487610D01*
X89320984Y-59842578D01*
X88616707Y-59842578D01*
X88261739Y-59487610D01*
X87906771Y-59842578D01*
X86751570Y-59842578D01*
X86751570Y-59085566D01*
X87249570Y-59085566D01*
X87249570Y-59185378D01*
X87554632Y-59490440D01*
X87909600Y-59135472D01*
X88613877Y-59135472D01*
X88968845Y-59490440D01*
X89323814Y-59135472D01*
X90028091Y-59135472D01*
X90383059Y-59490440D01*
X90738027Y-59135472D01*
X91442305Y-59135472D01*
X91797273Y-59490440D01*
X92152241Y-59135472D01*
X92856518Y-59135472D01*
X93211486Y-59490440D01*
X93566454Y-59135472D01*
X94270732Y-59135472D01*
X94625700Y-59490440D01*
X94980668Y-59135472D01*
X95684945Y-59135472D01*
X96039913Y-59490440D01*
X96394881Y-59135472D01*
X97099159Y-59135472D01*
X97454127Y-59490440D01*
X97809095Y-59135472D01*
X98513372Y-59135472D01*
X98784372Y-59406472D01*
X98784372Y-58864472D01*
X98513372Y-59135472D01*
X97809095Y-59135472D01*
X97454127Y-58780504D01*
X97099159Y-59135472D01*
X96394881Y-59135472D01*
X96039913Y-58780504D01*
X95684945Y-59135472D01*
X94980668Y-59135472D01*
X94625700Y-58780504D01*
X94270732Y-59135472D01*
X93566454Y-59135472D01*
X93211486Y-58780504D01*
X92856518Y-59135472D01*
X92152241Y-59135472D01*
X91797273Y-58780504D01*
X91442305Y-59135472D01*
X90738027Y-59135472D01*
X90383059Y-58780504D01*
X90028091Y-59135472D01*
X89323814Y-59135472D01*
X88968845Y-58780503D01*
X88613877Y-59135472D01*
X87909600Y-59135472D01*
X87554632Y-58780504D01*
X87249570Y-59085566D01*
X86751570Y-59085566D01*
X86751570Y-58428365D01*
X87906771Y-58428365D01*
X88261739Y-58783333D01*
X88616707Y-58428365D01*
X89320984Y-58428365D01*
X89675952Y-58783333D01*
X90030920Y-58428365D01*
X90735198Y-58428365D01*
X91090166Y-58783333D01*
X91445134Y-58428365D01*
X92149411Y-58428365D01*
X92504379Y-58783333D01*
X92859347Y-58428365D01*
X93563625Y-58428365D01*
X93918593Y-58783333D01*
X94273561Y-58428365D01*
X94977838Y-58428365D01*
X95332806Y-58783333D01*
X95687775Y-58428365D01*
X96392052Y-58428365D01*
X96747020Y-58783333D01*
X97101988Y-58428365D01*
X97806266Y-58428365D01*
X98161234Y-58783333D01*
X98516202Y-58428365D01*
X98205138Y-58117301D01*
X99282316Y-58117301D01*
X99282316Y-58117305D01*
X99282372Y-58203987D01*
X99282372Y-59778053D01*
X99282377Y-59778134D01*
X99282377Y-59791773D01*
X99282378Y-59791780D01*
X99312781Y-59964166D01*
X99312783Y-59964172D01*
X99312784Y-59964177D01*
X99343279Y-60047952D01*
X99371140Y-60124493D01*
X99372665Y-60128681D01*
X99457118Y-60274950D01*
X99460202Y-60280290D01*
X99551895Y-60389562D01*
X99572732Y-60414393D01*
X99706841Y-60526920D01*
X99858451Y-60614451D01*
X99858453Y-60614451D01*
X99858457Y-60614454D01*
X100012767Y-60670616D01*
X100022958Y-60674325D01*
X100195362Y-60704725D01*
X100195364Y-60704725D01*
X100282894Y-60704725D01*
X100348786Y-60704726D01*
X100348790Y-60704725D01*
X101717563Y-60704725D01*
X101731669Y-60705530D01*
X101733746Y-60705767D01*
X101733748Y-60705768D01*
X101733749Y-60705767D01*
X101733750Y-60705768D01*
X101794313Y-60704743D01*
X101796412Y-60704725D01*
X101857049Y-60704725D01*
X101857055Y-60704725D01*
X101857060Y-60704723D01*
X101858726Y-60704504D01*
X101872945Y-60703457D01*
X101886213Y-60703246D01*
X101909815Y-60698718D01*
X102905046Y-60698718D01*
X103110981Y-60904653D01*
X103465949Y-60549685D01*
X104170227Y-60549685D01*
X104525195Y-60904653D01*
X104880163Y-60549685D01*
X105584440Y-60549685D01*
X105939408Y-60904653D01*
X106294376Y-60549685D01*
X106998654Y-60549685D01*
X107353622Y-60904653D01*
X107708590Y-60549685D01*
X108412867Y-60549685D01*
X108767835Y-60904653D01*
X109122803Y-60549685D01*
X109122802Y-60549684D01*
X109827080Y-60549684D01*
X110182049Y-60904653D01*
X110537017Y-60549685D01*
X110537016Y-60549684D01*
X111241294Y-60549684D01*
X111596262Y-60904653D01*
X111951231Y-60549685D01*
X112655508Y-60549685D01*
X113010476Y-60904653D01*
X113365444Y-60549685D01*
X114069722Y-60549685D01*
X114424690Y-60904653D01*
X114779658Y-60549685D01*
X115483935Y-60549685D01*
X115838903Y-60904653D01*
X116193871Y-60549685D01*
X116898149Y-60549685D01*
X117253117Y-60904653D01*
X117608085Y-60549685D01*
X118312362Y-60549685D01*
X118667330Y-60904653D01*
X119022298Y-60549685D01*
X119726576Y-60549685D01*
X120081544Y-60904653D01*
X120436512Y-60549685D01*
X120436511Y-60549684D01*
X121140788Y-60549684D01*
X121495757Y-60904653D01*
X121544240Y-60856169D01*
X121194691Y-60495782D01*
X121140788Y-60549684D01*
X120436511Y-60549684D01*
X120081544Y-60194717D01*
X119726576Y-60549685D01*
X119022298Y-60549685D01*
X118667330Y-60194717D01*
X118312362Y-60549685D01*
X117608085Y-60549685D01*
X117253117Y-60194717D01*
X116898149Y-60549685D01*
X116193871Y-60549685D01*
X115838903Y-60194717D01*
X115483935Y-60549685D01*
X114779658Y-60549685D01*
X114424690Y-60194717D01*
X114069722Y-60549685D01*
X113365444Y-60549685D01*
X113010476Y-60194717D01*
X112655508Y-60549685D01*
X111951231Y-60549685D01*
X111596262Y-60194716D01*
X111241294Y-60549684D01*
X110537016Y-60549684D01*
X110421223Y-60433891D01*
X110419655Y-60433804D01*
X110401075Y-60432413D01*
X110396445Y-60431979D01*
X110387146Y-60430931D01*
X110382551Y-60430326D01*
X110112109Y-60389562D01*
X110107540Y-60388786D01*
X110098364Y-60387050D01*
X110093832Y-60386104D01*
X110075669Y-60381960D01*
X110071166Y-60380844D01*
X110062121Y-60378421D01*
X110057657Y-60377135D01*
X110013309Y-60363455D01*
X109827080Y-60549684D01*
X109122802Y-60549684D01*
X108767835Y-60194716D01*
X108412867Y-60549685D01*
X107708590Y-60549685D01*
X107353622Y-60194717D01*
X106998654Y-60549685D01*
X106294376Y-60549685D01*
X105939408Y-60194717D01*
X105584440Y-60549685D01*
X104880163Y-60549685D01*
X104525195Y-60194717D01*
X104170227Y-60549685D01*
X103465949Y-60549685D01*
X103175698Y-60259434D01*
X103159922Y-60303264D01*
X103158006Y-60308249D01*
X103153917Y-60318237D01*
X103151778Y-60323156D01*
X103142780Y-60342681D01*
X103140437Y-60347488D01*
X103135503Y-60357083D01*
X103132954Y-60361787D01*
X103036537Y-60530921D01*
X103033786Y-60535515D01*
X103028041Y-60544652D01*
X103025095Y-60549120D01*
X103012875Y-60566812D01*
X103009747Y-60571138D01*
X103003239Y-60579743D01*
X102999915Y-60583947D01*
X102905046Y-60698718D01*
X101909815Y-60698718D01*
X102056298Y-60670616D01*
X102218250Y-60609255D01*
X102367254Y-60520987D01*
X102498883Y-60408437D01*
X102609222Y-60274950D01*
X102694992Y-60124493D01*
X102726045Y-60038220D01*
X102753642Y-59961548D01*
X102753644Y-59961539D01*
X102774416Y-59842578D01*
X103463120Y-59842578D01*
X103818088Y-60197546D01*
X104173056Y-59842578D01*
X104877333Y-59842578D01*
X105232301Y-60197546D01*
X105587270Y-59842578D01*
X106291547Y-59842578D01*
X106646515Y-60197546D01*
X107001483Y-59842578D01*
X107705761Y-59842578D01*
X108060729Y-60197546D01*
X108220055Y-60038220D01*
X109315616Y-60038220D01*
X109474941Y-60197545D01*
X109509468Y-60163018D01*
X109497895Y-60157445D01*
X109493753Y-60155354D01*
X109485481Y-60150982D01*
X109481419Y-60148736D01*
X109465285Y-60139420D01*
X109461315Y-60137028D01*
X109453401Y-60132055D01*
X109449524Y-60129517D01*
X109315616Y-60038220D01*
X108220055Y-60038220D01*
X108415697Y-59842578D01*
X108060729Y-59487610D01*
X107705761Y-59842578D01*
X107001483Y-59842578D01*
X106646515Y-59487610D01*
X106291547Y-59842578D01*
X105587270Y-59842578D01*
X105232301Y-59487609D01*
X104877333Y-59842578D01*
X104173056Y-59842578D01*
X103818088Y-59487610D01*
X103463120Y-59842578D01*
X102774416Y-59842578D01*
X102783434Y-59790935D01*
X102783372Y-59704342D01*
X102783388Y-59638450D01*
X102783387Y-59638446D01*
X102783389Y-59630520D01*
X102783372Y-59630244D01*
X102783372Y-59320049D01*
X103281372Y-59320049D01*
X103465949Y-59135472D01*
X104170227Y-59135472D01*
X104525195Y-59490440D01*
X104880163Y-59135472D01*
X105584440Y-59135472D01*
X105939408Y-59490440D01*
X106294376Y-59135472D01*
X106998654Y-59135472D01*
X107353622Y-59490440D01*
X107708590Y-59135472D01*
X107708589Y-59135471D01*
X108412866Y-59135471D01*
X108754639Y-59477244D01*
X108749320Y-59469442D01*
X108746781Y-59465564D01*
X108741807Y-59457648D01*
X108739414Y-59453676D01*
X108602664Y-59216817D01*
X108600416Y-59212749D01*
X108596045Y-59204477D01*
X108593958Y-59200343D01*
X108585875Y-59183557D01*
X108583944Y-59179347D01*
X108580207Y-59170782D01*
X108578432Y-59166497D01*
X108523022Y-59025316D01*
X108412866Y-59135471D01*
X107708589Y-59135471D01*
X107353622Y-58780504D01*
X106998654Y-59135472D01*
X106294376Y-59135472D01*
X105939408Y-58780504D01*
X105584440Y-59135472D01*
X104880163Y-59135472D01*
X104525195Y-58780504D01*
X104170227Y-59135472D01*
X103465949Y-59135472D01*
X103281372Y-58950895D01*
X103281372Y-59320049D01*
X102783372Y-59320049D01*
X102783372Y-58428365D01*
X103463120Y-58428365D01*
X103818088Y-58783333D01*
X104173056Y-58428365D01*
X104877333Y-58428365D01*
X105232301Y-58783333D01*
X105587270Y-58428365D01*
X106291547Y-58428365D01*
X106646515Y-58783333D01*
X107001483Y-58428365D01*
X107705761Y-58428365D01*
X108060728Y-58783332D01*
X108386905Y-58457155D01*
X108382241Y-58394909D01*
X108060729Y-58073397D01*
X107705761Y-58428365D01*
X107001483Y-58428365D01*
X106646515Y-58073397D01*
X106291547Y-58428365D01*
X105587270Y-58428365D01*
X105232301Y-58073396D01*
X104877333Y-58428365D01*
X104173056Y-58428365D01*
X103818088Y-58073397D01*
X103463120Y-58428365D01*
X102783372Y-58428365D01*
X102783372Y-58273262D01*
X102783974Y-58263392D01*
X102783377Y-58197923D01*
X102783372Y-58196792D01*
X102783372Y-58131164D01*
X102782700Y-58121539D01*
X102782584Y-58108062D01*
X102782584Y-58108053D01*
X102750972Y-57936901D01*
X102690285Y-57773777D01*
X102690283Y-57773773D01*
X102690282Y-57773771D01*
X102602348Y-57623582D01*
X102602347Y-57623580D01*
X102489797Y-57490821D01*
X102402452Y-57418132D01*
X103059137Y-57418132D01*
X103125505Y-57531487D01*
X103128121Y-57536185D01*
X103133193Y-57545779D01*
X103135606Y-57550595D01*
X103144867Y-57570121D01*
X103147066Y-57575029D01*
X103151282Y-57585015D01*
X103153264Y-57590008D01*
X103221487Y-57773385D01*
X103223255Y-57778474D01*
X103226593Y-57788798D01*
X103228135Y-57793944D01*
X103233887Y-57814777D01*
X103235205Y-57819992D01*
X103237635Y-57830560D01*
X103238727Y-57835825D01*
X103256290Y-57930915D01*
X103465947Y-57721258D01*
X104170227Y-57721258D01*
X104525195Y-58076226D01*
X104880163Y-57721258D01*
X105584440Y-57721258D01*
X105939408Y-58076226D01*
X106294376Y-57721258D01*
X106998654Y-57721258D01*
X107353622Y-58076226D01*
X107708590Y-57721258D01*
X107353622Y-57366290D01*
X106998654Y-57721258D01*
X106294376Y-57721258D01*
X105939408Y-57366290D01*
X105584440Y-57721258D01*
X104880163Y-57721258D01*
X104525195Y-57366290D01*
X104170227Y-57721258D01*
X103465947Y-57721258D01*
X103465948Y-57721257D01*
X103110980Y-57366289D01*
X103059137Y-57418132D01*
X102402452Y-57418132D01*
X102356016Y-57379488D01*
X102337930Y-57369119D01*
X102205028Y-57292925D01*
X102205025Y-57292924D01*
X102205024Y-57292923D01*
X102205023Y-57292923D01*
X102156537Y-57275387D01*
X102041351Y-57233727D01*
X101869915Y-57203679D01*
X101782894Y-57203725D01*
X100351104Y-57203725D01*
X100339514Y-57203028D01*
X100338007Y-57203044D01*
X100277150Y-57203699D01*
X100275459Y-57203718D01*
X100274124Y-57203725D01*
X100209621Y-57203725D01*
X100199031Y-57204472D01*
X100185196Y-57204613D01*
X100185183Y-57204614D01*
X100014249Y-57236447D01*
X100014247Y-57236447D01*
X99851363Y-57297284D01*
X99701415Y-57385302D01*
X99701413Y-57385303D01*
X99568885Y-57497869D01*
X99457762Y-57631601D01*
X99457757Y-57631609D01*
X99371370Y-57782498D01*
X99312301Y-57946020D01*
X99312299Y-57946028D01*
X99312298Y-57946032D01*
X99300572Y-58013019D01*
X99282316Y-58117301D01*
X98205138Y-58117301D01*
X98161234Y-58073397D01*
X97806266Y-58428365D01*
X97101988Y-58428365D01*
X96747020Y-58073397D01*
X96392052Y-58428365D01*
X95687775Y-58428365D01*
X95332806Y-58073396D01*
X94977838Y-58428365D01*
X94273561Y-58428365D01*
X93918593Y-58073397D01*
X93563625Y-58428365D01*
X92859347Y-58428365D01*
X92504379Y-58073396D01*
X92149411Y-58428365D01*
X91445134Y-58428365D01*
X91090166Y-58073397D01*
X90735198Y-58428365D01*
X90030920Y-58428365D01*
X89675952Y-58073397D01*
X89320984Y-58428365D01*
X88616707Y-58428365D01*
X88261739Y-58073397D01*
X87906771Y-58428365D01*
X86751570Y-58428365D01*
X86751570Y-57671352D01*
X87249570Y-57671352D01*
X87249570Y-57771164D01*
X87554632Y-58076226D01*
X87909600Y-57721258D01*
X88613877Y-57721258D01*
X88968845Y-58076226D01*
X89323814Y-57721258D01*
X90028091Y-57721258D01*
X90383059Y-58076226D01*
X90738027Y-57721258D01*
X91442305Y-57721258D01*
X91797273Y-58076226D01*
X92152241Y-57721258D01*
X92856518Y-57721258D01*
X93211486Y-58076226D01*
X93566454Y-57721258D01*
X94270732Y-57721258D01*
X94625700Y-58076226D01*
X94980668Y-57721258D01*
X95684945Y-57721258D01*
X96039913Y-58076226D01*
X96394881Y-57721258D01*
X97099159Y-57721258D01*
X97454127Y-58076226D01*
X97809095Y-57721258D01*
X98513372Y-57721258D01*
X98796508Y-58004394D01*
X98823619Y-57849529D01*
X98824658Y-57844267D01*
X98826985Y-57833690D01*
X98828254Y-57828464D01*
X98833803Y-57807599D01*
X98835299Y-57802429D01*
X98838537Y-57792084D01*
X98840251Y-57786997D01*
X98906659Y-57603155D01*
X98908594Y-57598143D01*
X98912714Y-57588119D01*
X98914864Y-57583193D01*
X98923928Y-57563601D01*
X98926294Y-57558765D01*
X98931265Y-57549140D01*
X98933827Y-57544432D01*
X98974842Y-57472791D01*
X98868340Y-57366289D01*
X98513372Y-57721258D01*
X97809095Y-57721258D01*
X97454127Y-57366290D01*
X97099159Y-57721258D01*
X96394881Y-57721258D01*
X96039913Y-57366290D01*
X95684945Y-57721258D01*
X94980668Y-57721258D01*
X94625700Y-57366290D01*
X94270732Y-57721258D01*
X93566454Y-57721258D01*
X93211486Y-57366290D01*
X92856518Y-57721258D01*
X92152241Y-57721258D01*
X91797273Y-57366290D01*
X91442305Y-57721258D01*
X90738027Y-57721258D01*
X90383059Y-57366290D01*
X90028091Y-57721258D01*
X89323814Y-57721258D01*
X88968845Y-57366289D01*
X88613877Y-57721258D01*
X87909600Y-57721258D01*
X87554632Y-57366290D01*
X87249570Y-57671352D01*
X86751570Y-57671352D01*
X86751570Y-57014151D01*
X87906771Y-57014151D01*
X88261739Y-57369119D01*
X88616707Y-57014151D01*
X89320984Y-57014151D01*
X89675952Y-57369119D01*
X90030920Y-57014151D01*
X90735198Y-57014151D01*
X91090166Y-57369119D01*
X91445134Y-57014151D01*
X92149411Y-57014151D01*
X92504379Y-57369119D01*
X92859347Y-57014151D01*
X93563625Y-57014151D01*
X93918593Y-57369119D01*
X94273561Y-57014151D01*
X94977838Y-57014151D01*
X95332806Y-57369119D01*
X95687775Y-57014151D01*
X96392052Y-57014151D01*
X96747020Y-57369119D01*
X97101988Y-57014151D01*
X97806266Y-57014151D01*
X98161234Y-57369119D01*
X98516202Y-57014151D01*
X99220479Y-57014151D01*
X99288746Y-57082418D01*
X99387244Y-56998757D01*
X99391412Y-56995369D01*
X99399961Y-56988723D01*
X99404268Y-56985522D01*
X99421869Y-56973022D01*
X99426322Y-56970003D01*
X99435425Y-56964115D01*
X99439999Y-56961295D01*
X99608569Y-56862346D01*
X99613259Y-56859728D01*
X99622826Y-56854656D01*
X99627624Y-56852244D01*
X99647118Y-56842967D01*
X99652019Y-56840764D01*
X99662003Y-56836533D01*
X99667000Y-56834542D01*
X99728016Y-56811752D01*
X99704764Y-56788500D01*
X102274555Y-56788500D01*
X102384559Y-56828286D01*
X102389577Y-56830225D01*
X102399605Y-56834352D01*
X102404531Y-56836506D01*
X102424142Y-56845590D01*
X102428973Y-56847956D01*
X102438611Y-56852939D01*
X102443335Y-56855513D01*
X102613080Y-56952828D01*
X102617686Y-56955603D01*
X102626857Y-56961403D01*
X102631346Y-56964380D01*
X102649091Y-56976713D01*
X102653435Y-56979874D01*
X102662061Y-56986441D01*
X102666268Y-56989790D01*
X102730089Y-57042902D01*
X102758840Y-57014151D01*
X103463120Y-57014151D01*
X103818088Y-57369119D01*
X104173056Y-57014151D01*
X104877333Y-57014151D01*
X105232301Y-57369119D01*
X105587270Y-57014151D01*
X106291547Y-57014151D01*
X106646515Y-57369119D01*
X107001483Y-57014151D01*
X106646515Y-56659183D01*
X106291547Y-57014151D01*
X105587270Y-57014151D01*
X105232301Y-56659182D01*
X104877333Y-57014151D01*
X104173056Y-57014151D01*
X103818088Y-56659183D01*
X103463120Y-57014151D01*
X102758840Y-57014151D01*
X102758841Y-57014150D01*
X102403873Y-56659182D01*
X102274555Y-56788500D01*
X99704764Y-56788500D01*
X99575447Y-56659183D01*
X99220479Y-57014151D01*
X98516202Y-57014151D01*
X98161234Y-56659183D01*
X97806266Y-57014151D01*
X97101988Y-57014151D01*
X96747020Y-56659183D01*
X96392052Y-57014151D01*
X95687775Y-57014151D01*
X95332806Y-56659182D01*
X94977838Y-57014151D01*
X94273561Y-57014151D01*
X93918593Y-56659183D01*
X93563625Y-57014151D01*
X92859347Y-57014151D01*
X92504379Y-56659182D01*
X92149411Y-57014151D01*
X91445134Y-57014151D01*
X91090166Y-56659183D01*
X90735198Y-57014151D01*
X90030920Y-57014151D01*
X89675952Y-56659183D01*
X89320984Y-57014151D01*
X88616707Y-57014151D01*
X88261739Y-56659183D01*
X87906771Y-57014151D01*
X86751570Y-57014151D01*
X86751570Y-56681555D01*
X86751571Y-56681526D01*
X86751570Y-56672906D01*
X86751572Y-56672903D01*
X86751570Y-56613994D01*
X86752354Y-56600070D01*
X86759015Y-56541129D01*
X86762596Y-56509431D01*
X86768811Y-56482291D01*
X86796697Y-56402859D01*
X86808816Y-56377785D01*
X86853437Y-56307044D01*
X92856517Y-56307044D01*
X93211486Y-56662013D01*
X93566454Y-56307044D01*
X94270731Y-56307044D01*
X94625700Y-56662013D01*
X94980668Y-56307044D01*
X95684944Y-56307044D01*
X96039913Y-56662013D01*
X96394881Y-56307044D01*
X97099158Y-56307044D01*
X97454127Y-56662013D01*
X97809095Y-56307044D01*
X98513371Y-56307044D01*
X98868340Y-56662013D01*
X99223308Y-56307044D01*
X99927585Y-56307044D01*
X100282553Y-56662012D01*
X100637521Y-56307044D01*
X101341799Y-56307044D01*
X101696768Y-56662013D01*
X102051736Y-56307044D01*
X102756012Y-56307044D01*
X103110981Y-56662013D01*
X103465949Y-56307044D01*
X104170226Y-56307044D01*
X104525195Y-56662013D01*
X104880163Y-56307044D01*
X105584439Y-56307044D01*
X105939408Y-56662013D01*
X106294376Y-56307044D01*
X105939408Y-55952076D01*
X105584439Y-56307044D01*
X104880163Y-56307044D01*
X104525195Y-55952076D01*
X104170226Y-56307044D01*
X103465949Y-56307044D01*
X103110981Y-55952076D01*
X102756012Y-56307044D01*
X102051736Y-56307044D01*
X101696768Y-55952076D01*
X101341799Y-56307044D01*
X100637521Y-56307044D01*
X100282554Y-55952076D01*
X99927585Y-56307044D01*
X99223308Y-56307044D01*
X98868340Y-55952076D01*
X98513371Y-56307044D01*
X97809095Y-56307044D01*
X97454127Y-55952076D01*
X97099158Y-56307044D01*
X96394881Y-56307044D01*
X96039913Y-55952076D01*
X95684944Y-56307044D01*
X94980668Y-56307044D01*
X94625700Y-55952076D01*
X94270731Y-56307044D01*
X93566454Y-56307044D01*
X93226104Y-55966695D01*
X93196851Y-56000587D01*
X93193908Y-56003876D01*
X93187853Y-56010406D01*
X93184790Y-56013593D01*
X93172276Y-56026159D01*
X93169104Y-56029232D01*
X93162605Y-56035309D01*
X93159333Y-56038263D01*
X92984511Y-56190454D01*
X92981129Y-56193293D01*
X92974210Y-56198896D01*
X92970733Y-56201611D01*
X92956562Y-56212275D01*
X92952984Y-56214869D01*
X92945686Y-56219964D01*
X92942021Y-56222426D01*
X92939518Y-56224043D01*
X92856517Y-56307044D01*
X86853437Y-56307044D01*
X86853724Y-56306589D01*
X86871135Y-56284849D01*
X86930811Y-56225463D01*
X86952619Y-56208171D01*
X87024051Y-56163599D01*
X87049170Y-56151610D01*
X87128751Y-56124106D01*
X87155916Y-56118026D01*
X87246383Y-56108249D01*
X87260309Y-56107533D01*
X87319437Y-56107823D01*
X87319440Y-56107821D01*
X87324360Y-56107846D01*
X87329758Y-56107506D01*
X91690148Y-56107506D01*
X91694835Y-56107803D01*
X91700166Y-56107780D01*
X91700169Y-56107781D01*
X91764292Y-56107509D01*
X91764881Y-56107507D01*
X91765405Y-56107506D01*
X91835142Y-56107506D01*
X91839955Y-56107179D01*
X91873086Y-56107046D01*
X92057986Y-56079734D01*
X92084837Y-56075768D01*
X92084838Y-56075767D01*
X92084842Y-56075767D01*
X92290015Y-56014750D01*
X92484450Y-55925230D01*
X92664212Y-55809020D01*
X92825659Y-55668473D01*
X92884816Y-55599938D01*
X93563625Y-55599938D01*
X93918593Y-55954906D01*
X94273561Y-55599938D01*
X94977838Y-55599938D01*
X95332806Y-55954906D01*
X95687775Y-55599938D01*
X96392052Y-55599938D01*
X96747020Y-55954906D01*
X97101988Y-55599938D01*
X97806266Y-55599938D01*
X98161234Y-55954906D01*
X98516202Y-55599938D01*
X99220479Y-55599938D01*
X99575447Y-55954906D01*
X99930415Y-55599938D01*
X100634693Y-55599938D01*
X100989661Y-55954906D01*
X101344629Y-55599938D01*
X102048906Y-55599938D01*
X102403874Y-55954906D01*
X102758842Y-55599938D01*
X103463120Y-55599938D01*
X103818088Y-55954906D01*
X104173056Y-55599938D01*
X104877333Y-55599938D01*
X105232301Y-55954906D01*
X105587270Y-55599938D01*
X106291547Y-55599938D01*
X106646514Y-55954905D01*
X106888855Y-55712564D01*
X106888769Y-55711757D01*
X106888375Y-55707355D01*
X106887106Y-55689617D01*
X106886869Y-55685200D01*
X106886550Y-55676280D01*
X106886471Y-55671850D01*
X106886467Y-55484922D01*
X106646515Y-55244970D01*
X106291547Y-55599938D01*
X105587270Y-55599938D01*
X105232301Y-55244969D01*
X104877333Y-55599938D01*
X104173056Y-55599938D01*
X103818088Y-55244970D01*
X103463120Y-55599938D01*
X102758842Y-55599938D01*
X102403874Y-55244970D01*
X102048906Y-55599938D01*
X101344629Y-55599938D01*
X100989661Y-55244970D01*
X100634693Y-55599938D01*
X99930415Y-55599938D01*
X99575447Y-55244970D01*
X99220479Y-55599938D01*
X98516202Y-55599938D01*
X98161234Y-55244970D01*
X97806266Y-55599938D01*
X97101988Y-55599938D01*
X96747020Y-55244970D01*
X96392052Y-55599938D01*
X95687775Y-55599938D01*
X95332806Y-55244969D01*
X94977838Y-55599938D01*
X94273561Y-55599938D01*
X93918593Y-55244970D01*
X93563625Y-55599938D01*
X92884816Y-55599938D01*
X92965525Y-55506434D01*
X93080975Y-55326184D01*
X93169674Y-55131372D01*
X93229825Y-54925944D01*
X93234574Y-54892831D01*
X94270732Y-54892831D01*
X94625700Y-55247799D01*
X94980668Y-54892831D01*
X95684945Y-54892831D01*
X96039913Y-55247799D01*
X96394881Y-54892831D01*
X97099159Y-54892831D01*
X97454127Y-55247799D01*
X97809095Y-54892831D01*
X98513372Y-54892831D01*
X98868340Y-55247799D01*
X99223308Y-54892831D01*
X99927586Y-54892831D01*
X100282554Y-55247799D01*
X100637522Y-54892831D01*
X101341800Y-54892831D01*
X101696768Y-55247799D01*
X102051736Y-54892831D01*
X102756013Y-54892831D01*
X103110981Y-55247799D01*
X103465949Y-54892831D01*
X104170227Y-54892831D01*
X104525195Y-55247799D01*
X104880163Y-54892831D01*
X105584440Y-54892831D01*
X105939408Y-55247799D01*
X106294376Y-54892831D01*
X105939408Y-54537863D01*
X105584440Y-54892831D01*
X104880163Y-54892831D01*
X104525195Y-54537863D01*
X104170227Y-54892831D01*
X103465949Y-54892831D01*
X103110981Y-54537863D01*
X102756013Y-54892831D01*
X102051736Y-54892831D01*
X101696768Y-54537863D01*
X101341800Y-54892831D01*
X100637522Y-54892831D01*
X100282554Y-54537863D01*
X99927586Y-54892831D01*
X99223308Y-54892831D01*
X98868340Y-54537862D01*
X98513372Y-54892831D01*
X97809095Y-54892831D01*
X97454127Y-54537863D01*
X97099159Y-54892831D01*
X96394881Y-54892831D01*
X96039913Y-54537863D01*
X95684945Y-54892831D01*
X94980668Y-54892831D01*
X94625700Y-54537863D01*
X94270732Y-54892831D01*
X93234574Y-54892831D01*
X93260211Y-54714058D01*
X93260192Y-54607032D01*
X93260194Y-54541139D01*
X93260192Y-54541134D01*
X93260193Y-54533555D01*
X93260192Y-54533521D01*
X93260192Y-53991157D01*
X93758192Y-53991157D01*
X93758192Y-54380291D01*
X93918593Y-54540692D01*
X94273561Y-54185724D01*
X94977838Y-54185724D01*
X95332806Y-54540692D01*
X95687775Y-54185724D01*
X96392052Y-54185724D01*
X96747020Y-54540692D01*
X97101988Y-54185724D01*
X97806266Y-54185724D01*
X98161234Y-54540692D01*
X98516202Y-54185724D01*
X99220479Y-54185724D01*
X99575447Y-54540692D01*
X99930415Y-54185724D01*
X100634693Y-54185724D01*
X100989661Y-54540692D01*
X101344629Y-54185724D01*
X102048906Y-54185724D01*
X102403874Y-54540692D01*
X102758842Y-54185724D01*
X103463120Y-54185724D01*
X103818088Y-54540692D01*
X104173056Y-54185724D01*
X104877333Y-54185724D01*
X105232301Y-54540692D01*
X105587270Y-54185724D01*
X106291547Y-54185724D01*
X106646515Y-54540692D01*
X106886491Y-54300716D01*
X106886491Y-54070732D01*
X106646515Y-53830756D01*
X106291547Y-54185724D01*
X105587270Y-54185724D01*
X105232301Y-53830755D01*
X104877333Y-54185724D01*
X104173056Y-54185724D01*
X103818088Y-53830756D01*
X103463120Y-54185724D01*
X102758842Y-54185724D01*
X102403874Y-53830756D01*
X102048906Y-54185724D01*
X101344629Y-54185724D01*
X100989661Y-53830756D01*
X100634693Y-54185724D01*
X99930415Y-54185724D01*
X99575447Y-53830756D01*
X99220479Y-54185724D01*
X98516202Y-54185724D01*
X98161234Y-53830756D01*
X97806266Y-54185724D01*
X97101988Y-54185724D01*
X96747020Y-53830756D01*
X96392052Y-54185724D01*
X95687775Y-54185724D01*
X95332806Y-53830755D01*
X94977838Y-54185724D01*
X94273561Y-54185724D01*
X93918593Y-53830756D01*
X93758192Y-53991157D01*
X93260192Y-53991157D01*
X93260192Y-53478617D01*
X94270732Y-53478617D01*
X94625700Y-53833585D01*
X94980668Y-53478617D01*
X95684945Y-53478617D01*
X96039913Y-53833585D01*
X96394881Y-53478617D01*
X97099159Y-53478617D01*
X97454127Y-53833585D01*
X97809095Y-53478617D01*
X98513372Y-53478617D01*
X98868340Y-53833585D01*
X99223308Y-53478617D01*
X99927586Y-53478617D01*
X100282554Y-53833585D01*
X100637522Y-53478617D01*
X101341800Y-53478617D01*
X101696768Y-53833585D01*
X102051736Y-53478617D01*
X102756013Y-53478617D01*
X103110981Y-53833585D01*
X103465949Y-53478617D01*
X104170227Y-53478617D01*
X104525195Y-53833585D01*
X104880163Y-53478617D01*
X105584440Y-53478617D01*
X105939408Y-53833585D01*
X106294376Y-53478617D01*
X105939408Y-53123649D01*
X105584440Y-53478617D01*
X104880163Y-53478617D01*
X104525195Y-53123649D01*
X104170227Y-53478617D01*
X103465949Y-53478617D01*
X103110981Y-53123649D01*
X102756013Y-53478617D01*
X102051736Y-53478617D01*
X101696768Y-53123649D01*
X101341800Y-53478617D01*
X100637522Y-53478617D01*
X100282554Y-53123649D01*
X99927586Y-53478617D01*
X99223308Y-53478617D01*
X98868340Y-53123648D01*
X98513372Y-53478617D01*
X97809095Y-53478617D01*
X97454127Y-53123649D01*
X97099159Y-53478617D01*
X96394881Y-53478617D01*
X96039913Y-53123649D01*
X95684945Y-53478617D01*
X94980668Y-53478617D01*
X94625700Y-53123649D01*
X94270732Y-53478617D01*
X93260192Y-53478617D01*
X93260192Y-52576944D01*
X93758192Y-52576944D01*
X93758192Y-52966078D01*
X93918593Y-53126479D01*
X94273561Y-52771511D01*
X94977838Y-52771511D01*
X95332806Y-53126479D01*
X95687775Y-52771511D01*
X96392052Y-52771511D01*
X96747020Y-53126479D01*
X97101988Y-52771511D01*
X97806266Y-52771511D01*
X98161234Y-53126479D01*
X98516202Y-52771511D01*
X99220479Y-52771511D01*
X99575447Y-53126479D01*
X99930415Y-52771511D01*
X100634693Y-52771511D01*
X100989661Y-53126479D01*
X101344629Y-52771511D01*
X102048906Y-52771511D01*
X102403874Y-53126479D01*
X102758842Y-52771511D01*
X103463120Y-52771511D01*
X103818088Y-53126479D01*
X104173056Y-52771511D01*
X104877333Y-52771511D01*
X105232301Y-53126479D01*
X105587270Y-52771511D01*
X106291547Y-52771511D01*
X106646515Y-53126479D01*
X106886491Y-52886503D01*
X106886491Y-52656519D01*
X106646515Y-52416543D01*
X106291547Y-52771511D01*
X105587270Y-52771511D01*
X105232301Y-52416542D01*
X104877333Y-52771511D01*
X104173056Y-52771511D01*
X103818088Y-52416543D01*
X103463120Y-52771511D01*
X102758842Y-52771511D01*
X102403874Y-52416543D01*
X102048906Y-52771511D01*
X101344629Y-52771511D01*
X100989661Y-52416543D01*
X100634693Y-52771511D01*
X99930415Y-52771511D01*
X99575447Y-52416543D01*
X99220479Y-52771511D01*
X98516202Y-52771511D01*
X98161234Y-52416543D01*
X97806266Y-52771511D01*
X97101988Y-52771511D01*
X96747020Y-52416543D01*
X96392052Y-52771511D01*
X95687775Y-52771511D01*
X95332806Y-52416542D01*
X94977838Y-52771511D01*
X94273561Y-52771511D01*
X93918593Y-52416543D01*
X93758192Y-52576944D01*
X93260192Y-52576944D01*
X93260192Y-52064404D01*
X94270732Y-52064404D01*
X94625700Y-52419372D01*
X94980668Y-52064404D01*
X95684945Y-52064404D01*
X96039913Y-52419372D01*
X96394881Y-52064404D01*
X97099159Y-52064404D01*
X97454127Y-52419372D01*
X97809095Y-52064404D01*
X98513372Y-52064404D01*
X98868340Y-52419372D01*
X99223308Y-52064404D01*
X99927586Y-52064404D01*
X100282554Y-52419372D01*
X100637522Y-52064404D01*
X101341800Y-52064404D01*
X101696768Y-52419372D01*
X102051736Y-52064404D01*
X102756013Y-52064404D01*
X103110981Y-52419372D01*
X103465949Y-52064404D01*
X104170227Y-52064404D01*
X104525195Y-52419372D01*
X104880163Y-52064404D01*
X105584440Y-52064404D01*
X105939408Y-52419372D01*
X106294376Y-52064404D01*
X105939408Y-51709436D01*
X105584440Y-52064404D01*
X104880163Y-52064404D01*
X104525195Y-51709436D01*
X104170227Y-52064404D01*
X103465949Y-52064404D01*
X103110981Y-51709436D01*
X102756013Y-52064404D01*
X102051736Y-52064404D01*
X101696768Y-51709436D01*
X101341800Y-52064404D01*
X100637522Y-52064404D01*
X100282554Y-51709436D01*
X99927586Y-52064404D01*
X99223308Y-52064404D01*
X98868340Y-51709435D01*
X98513372Y-52064404D01*
X97809095Y-52064404D01*
X97454127Y-51709436D01*
X97099159Y-52064404D01*
X96394881Y-52064404D01*
X96039913Y-51709436D01*
X95684945Y-52064404D01*
X94980668Y-52064404D01*
X94625700Y-51709436D01*
X94270732Y-52064404D01*
X93260192Y-52064404D01*
X93260192Y-51162730D01*
X93758192Y-51162730D01*
X93758192Y-51551864D01*
X93918593Y-51712265D01*
X94273561Y-51357297D01*
X94977838Y-51357297D01*
X95332806Y-51712265D01*
X95687775Y-51357297D01*
X96392052Y-51357297D01*
X96747020Y-51712265D01*
X97101988Y-51357297D01*
X97806266Y-51357297D01*
X98161234Y-51712265D01*
X98516202Y-51357297D01*
X99220479Y-51357297D01*
X99575447Y-51712265D01*
X99930415Y-51357297D01*
X100634693Y-51357297D01*
X100989661Y-51712265D01*
X101344629Y-51357297D01*
X102048906Y-51357297D01*
X102403874Y-51712265D01*
X102758842Y-51357297D01*
X103463120Y-51357297D01*
X103818088Y-51712265D01*
X104173056Y-51357297D01*
X104877333Y-51357297D01*
X105232301Y-51712265D01*
X105587270Y-51357297D01*
X106291547Y-51357297D01*
X106646515Y-51712265D01*
X106886491Y-51472289D01*
X106886491Y-51242305D01*
X106646515Y-51002329D01*
X106291547Y-51357297D01*
X105587270Y-51357297D01*
X105232301Y-51002328D01*
X104877333Y-51357297D01*
X104173056Y-51357297D01*
X103818088Y-51002329D01*
X103463120Y-51357297D01*
X102758842Y-51357297D01*
X102403874Y-51002329D01*
X102048906Y-51357297D01*
X101344629Y-51357297D01*
X100989661Y-51002329D01*
X100634693Y-51357297D01*
X99930415Y-51357297D01*
X99575447Y-51002329D01*
X99220479Y-51357297D01*
X98516202Y-51357297D01*
X98161234Y-51002329D01*
X97806266Y-51357297D01*
X97101988Y-51357297D01*
X96747020Y-51002329D01*
X96392052Y-51357297D01*
X95687775Y-51357297D01*
X95332806Y-51002328D01*
X94977838Y-51357297D01*
X94273561Y-51357297D01*
X93918593Y-51002329D01*
X93758192Y-51162730D01*
X93260192Y-51162730D01*
X93260192Y-50979811D01*
X93260193Y-50979808D01*
X93260192Y-50918358D01*
X93260509Y-50909493D01*
X93271033Y-50762675D01*
X93274890Y-50708864D01*
X93277417Y-50691328D01*
X93286388Y-50650190D01*
X94270732Y-50650190D01*
X94625700Y-51005158D01*
X94980668Y-50650190D01*
X95684945Y-50650190D01*
X96039913Y-51005158D01*
X96394881Y-50650190D01*
X97099159Y-50650190D01*
X97454127Y-51005158D01*
X97809095Y-50650190D01*
X98513372Y-50650190D01*
X98868340Y-51005158D01*
X99223308Y-50650190D01*
X99927586Y-50650190D01*
X100282554Y-51005158D01*
X100637522Y-50650190D01*
X101341800Y-50650190D01*
X101696768Y-51005158D01*
X102051736Y-50650190D01*
X102756013Y-50650190D01*
X103110981Y-51005158D01*
X103465949Y-50650190D01*
X104170227Y-50650190D01*
X104525195Y-51005158D01*
X104880163Y-50650190D01*
X105584440Y-50650190D01*
X105939408Y-51005158D01*
X106294376Y-50650190D01*
X105939408Y-50295222D01*
X105584440Y-50650190D01*
X104880163Y-50650190D01*
X104525195Y-50295222D01*
X104170227Y-50650190D01*
X103465949Y-50650190D01*
X103110981Y-50295222D01*
X102756013Y-50650190D01*
X102051736Y-50650190D01*
X101696768Y-50295222D01*
X101341800Y-50650190D01*
X100637522Y-50650190D01*
X100282554Y-50295222D01*
X99927586Y-50650190D01*
X99223308Y-50650190D01*
X98868340Y-50295221D01*
X98513372Y-50650190D01*
X97809095Y-50650190D01*
X97454127Y-50295222D01*
X97099159Y-50650190D01*
X96394881Y-50650190D01*
X96039913Y-50295222D01*
X95684945Y-50650190D01*
X94980668Y-50650190D01*
X94625700Y-50295222D01*
X94270732Y-50650190D01*
X93286388Y-50650190D01*
X93319325Y-50499146D01*
X93324327Y-50482155D01*
X93393218Y-50297923D01*
X93400593Y-50281816D01*
X93495065Y-50109289D01*
X93504670Y-50094390D01*
X93525464Y-50066701D01*
X93618296Y-49943083D01*
X94977838Y-49943083D01*
X95332806Y-50298051D01*
X95687775Y-49943083D01*
X96392051Y-49943083D01*
X96747020Y-50298051D01*
X97101988Y-49943083D01*
X97806265Y-49943083D01*
X98161234Y-50298051D01*
X98516202Y-49943083D01*
X99220478Y-49943083D01*
X99575447Y-50298051D01*
X99930415Y-49943083D01*
X100634692Y-49943083D01*
X100989661Y-50298051D01*
X101344629Y-49943083D01*
X102048905Y-49943083D01*
X102403874Y-50298051D01*
X102758842Y-49943083D01*
X103463119Y-49943083D01*
X103818088Y-50298051D01*
X104173056Y-49943083D01*
X104877333Y-49943083D01*
X105232301Y-50298051D01*
X105463652Y-50066701D01*
X106415165Y-50066701D01*
X106646514Y-50298051D01*
X106660059Y-50284506D01*
X106640898Y-50258909D01*
X106539991Y-50158000D01*
X106425755Y-50072484D01*
X106415165Y-50066701D01*
X105463652Y-50066701D01*
X105587270Y-49943083D01*
X105556617Y-49912430D01*
X104907986Y-49912430D01*
X104877333Y-49943083D01*
X104173056Y-49943083D01*
X104142403Y-49912430D01*
X103493773Y-49912430D01*
X103463119Y-49943083D01*
X102758842Y-49943083D01*
X102728189Y-49912430D01*
X102079559Y-49912430D01*
X102048905Y-49943083D01*
X101344629Y-49943083D01*
X101313976Y-49912430D01*
X100665346Y-49912430D01*
X100634692Y-49943083D01*
X99930415Y-49943083D01*
X99899762Y-49912430D01*
X99251132Y-49912430D01*
X99220478Y-49943083D01*
X98516202Y-49943083D01*
X98485549Y-49912430D01*
X97836919Y-49912430D01*
X97806265Y-49943083D01*
X97101988Y-49943083D01*
X97071335Y-49912430D01*
X96422705Y-49912430D01*
X96392051Y-49943083D01*
X95687775Y-49943083D01*
X95657122Y-49912430D01*
X95008491Y-49912430D01*
X94977838Y-49943083D01*
X93618296Y-49943083D01*
X93622780Y-49937112D01*
X93634403Y-49923744D01*
X93773752Y-49784915D01*
X93787155Y-49773348D01*
X93944887Y-49655814D01*
X93959805Y-49646277D01*
X94132688Y-49552446D01*
X94148821Y-49545132D01*
X94333307Y-49476928D01*
X94350324Y-49471987D01*
X94542656Y-49430798D01*
X94560208Y-49428335D01*
X94760559Y-49414724D01*
X94769406Y-49414441D01*
X94831200Y-49414673D01*
X94831200Y-49414672D01*
X94836839Y-49414694D01*
X94840996Y-49414430D01*
X105819106Y-49414430D01*
X105880570Y-49414430D01*
X105889415Y-49414746D01*
G37*
%TD.AperFunction*%
M02*
