%TF.GenerationSoftware,KiCad,Pcbnew,8.0.2*%
%TF.CreationDate,2024-08-31T13:36:28-07:00*%
%TF.ProjectId,GCU-ADU,4743552d-4144-4552-9e6b-696361645f70,rev?*%
%TF.SameCoordinates,Original*%
%TF.FileFunction,Legend,Top*%
%TF.FilePolarity,Positive*%
%FSLAX46Y46*%
G04 Gerber Fmt 4.6, Leading zero omitted, Abs format (unit mm)*
G04 Created by KiCad (PCBNEW 8.0.2) date 2024-08-31 13:36:28*
%MOMM*%
%LPD*%
G01*
G04 APERTURE LIST*
%ADD10C,0.150000*%
%ADD11C,0.120000*%
G04 APERTURE END LIST*
D10*
X100556684Y-49882854D02*
X100556684Y-50359045D01*
X100223351Y-49359045D02*
X100556684Y-49882854D01*
X100556684Y-49882854D02*
X100890017Y-49359045D01*
X101747160Y-50359045D02*
X101175732Y-50359045D01*
X101461446Y-50359045D02*
X101461446Y-49359045D01*
X101461446Y-49359045D02*
X101366208Y-49501902D01*
X101366208Y-49501902D02*
X101270970Y-49597140D01*
X101270970Y-49597140D02*
X101175732Y-49644759D01*
X118478436Y-60240421D02*
X119145102Y-61240421D01*
X119145102Y-60240421D02*
X118478436Y-61240421D01*
X120049864Y-61240421D02*
X119478436Y-61240421D01*
X119764150Y-61240421D02*
X119764150Y-60240421D01*
X119764150Y-60240421D02*
X119668912Y-60383278D01*
X119668912Y-60383278D02*
X119573674Y-60478516D01*
X119573674Y-60478516D02*
X119478436Y-60526135D01*
X89193894Y-71765149D02*
X89336751Y-71812768D01*
X89336751Y-71812768D02*
X89384370Y-71860387D01*
X89384370Y-71860387D02*
X89431989Y-71955625D01*
X89431989Y-71955625D02*
X89431989Y-72098482D01*
X89431989Y-72098482D02*
X89384370Y-72193720D01*
X89384370Y-72193720D02*
X89336751Y-72241340D01*
X89336751Y-72241340D02*
X89241513Y-72288959D01*
X89241513Y-72288959D02*
X88860561Y-72288959D01*
X88860561Y-72288959D02*
X88860561Y-71288959D01*
X88860561Y-71288959D02*
X89193894Y-71288959D01*
X89193894Y-71288959D02*
X89289132Y-71336578D01*
X89289132Y-71336578D02*
X89336751Y-71384197D01*
X89336751Y-71384197D02*
X89384370Y-71479435D01*
X89384370Y-71479435D02*
X89384370Y-71574673D01*
X89384370Y-71574673D02*
X89336751Y-71669911D01*
X89336751Y-71669911D02*
X89289132Y-71717530D01*
X89289132Y-71717530D02*
X89193894Y-71765149D01*
X89193894Y-71765149D02*
X88860561Y-71765149D01*
X90384370Y-72288959D02*
X89812942Y-72288959D01*
X90098656Y-72288959D02*
X90098656Y-71288959D01*
X90098656Y-71288959D02*
X90003418Y-71431816D01*
X90003418Y-71431816D02*
X89908180Y-71527054D01*
X89908180Y-71527054D02*
X89812942Y-71574673D01*
X104060714Y-64445104D02*
X104536904Y-64445104D01*
X103965476Y-64730819D02*
X104298809Y-63730819D01*
X104298809Y-63730819D02*
X104632142Y-64730819D01*
X105489285Y-64730819D02*
X104917857Y-64730819D01*
X105203571Y-64730819D02*
X105203571Y-63730819D01*
X105203571Y-63730819D02*
X105108333Y-63873676D01*
X105108333Y-63873676D02*
X105013095Y-63968914D01*
X105013095Y-63968914D02*
X104917857Y-64016533D01*
D11*
%TO.C,Y1*%
X97802875Y-50724226D02*
X104262875Y-50724226D01*
X97802875Y-50754226D02*
X97802875Y-50724226D01*
X97802875Y-52654226D02*
X97802875Y-55254226D01*
X97802875Y-57184226D02*
X97802875Y-57154226D01*
X97802875Y-57184226D02*
X104262875Y-57184226D01*
X104262875Y-50724226D02*
X104262875Y-50754226D01*
X104262875Y-52654226D02*
X104262875Y-55254226D01*
X104262875Y-57184226D02*
X104262875Y-57154226D01*
%TO.C,X1*%
X116057960Y-61605602D02*
X122517960Y-61605602D01*
X116057960Y-61635602D02*
X116057960Y-61605602D01*
X116057960Y-63535602D02*
X116057960Y-66135602D01*
X116057960Y-68065602D02*
X116057960Y-68035602D01*
X116057960Y-68065602D02*
X122517960Y-68065602D01*
X122517960Y-61605602D02*
X122517960Y-61635602D01*
X122517960Y-63535602D02*
X122517960Y-66135602D01*
X122517960Y-68065602D02*
X122517960Y-68035602D01*
%TO.C,B1*%
X86368656Y-72654140D02*
X92828656Y-72654140D01*
X86368656Y-72684140D02*
X86368656Y-72654140D01*
X86368656Y-74584140D02*
X86368656Y-77184140D01*
X86368656Y-79114140D02*
X86368656Y-79084140D01*
X86368656Y-79114140D02*
X92828656Y-79114140D01*
X92828656Y-72654140D02*
X92828656Y-72684140D01*
X92828656Y-74584140D02*
X92828656Y-77184140D01*
X92828656Y-79114140D02*
X92828656Y-79084140D01*
%TO.C,A1*%
X101545000Y-65096000D02*
X108005000Y-65096000D01*
X101545000Y-65126000D02*
X101545000Y-65096000D01*
X101545000Y-67026000D02*
X101545000Y-69626000D01*
X101545000Y-71556000D02*
X101545000Y-71526000D01*
X101545000Y-71556000D02*
X108005000Y-71556000D01*
X108005000Y-65096000D02*
X108005000Y-65126000D01*
X108005000Y-67026000D02*
X108005000Y-69626000D01*
X108005000Y-71556000D02*
X108005000Y-71526000D01*
%TD*%
M02*
