%TF.GenerationSoftware,KiCad,Pcbnew,9.0.3*%
%TF.CreationDate,2025-08-17T14:16:40-07:00*%
%TF.ProjectId,GCU-ADU,4743552d-4144-4552-9e6b-696361645f70,rev?*%
%TF.SameCoordinates,Original*%
%TF.FileFunction,Copper,L2,Bot*%
%TF.FilePolarity,Positive*%
%FSLAX46Y46*%
G04 Gerber Fmt 4.6, Leading zero omitted, Abs format (unit mm)*
G04 Created by KiCad (PCBNEW 9.0.3) date 2025-08-17 14:16:40*
%MOMM*%
%LPD*%
G01*
G04 APERTURE LIST*
G04 Aperture macros list*
%AMRoundRect*
0 Rectangle with rounded corners*
0 $1 Rounding radius*
0 $2 $3 $4 $5 $6 $7 $8 $9 X,Y pos of 4 corners*
0 Add a 4 corners polygon primitive as box body*
4,1,4,$2,$3,$4,$5,$6,$7,$8,$9,$2,$3,0*
0 Add four circle primitives for the rounded corners*
1,1,$1+$1,$2,$3*
1,1,$1+$1,$4,$5*
1,1,$1+$1,$6,$7*
1,1,$1+$1,$8,$9*
0 Add four rect primitives between the rounded corners*
20,1,$1+$1,$2,$3,$4,$5,0*
20,1,$1+$1,$4,$5,$6,$7,0*
20,1,$1+$1,$6,$7,$8,$9,0*
20,1,$1+$1,$8,$9,$2,$3,0*%
G04 Aperture macros list end*
%TA.AperFunction,ConnectorPad*%
%ADD10RoundRect,0.062500X0.937500X-0.062500X0.937500X0.062500X-0.937500X0.062500X-0.937500X-0.062500X0*%
%TD*%
%TA.AperFunction,ViaPad*%
%ADD11C,0.600000*%
%TD*%
%TA.AperFunction,ViaPad*%
%ADD12C,0.750000*%
%TD*%
%TA.AperFunction,Conductor*%
%ADD13C,0.200000*%
%TD*%
G04 APERTURE END LIST*
D10*
%TO.P,PINS1,1,1*%
%TO.N,X4*%
X77038200Y-78070200D03*
%TO.P,PINS1,2,2*%
%TO.N,X3*%
X77038200Y-78570200D03*
%TO.P,PINS1,3,3*%
%TO.N,X2*%
X77038200Y-79070200D03*
%TO.P,PINS1,4,4*%
%TO.N,X6*%
X77038200Y-79570200D03*
%TO.P,PINS1,5,5*%
%TO.N,X5*%
X77038200Y-80070200D03*
%TO.P,PINS1,6,6*%
%TO.N,X1*%
X77038200Y-80570200D03*
%TD*%
D11*
%TO.N,X1*%
X98920300Y-75095100D03*
X110845600Y-70561200D03*
D12*
%TO.N,X2*%
X99212400Y-73685400D03*
%TO.N,X6*%
X88798400Y-76708000D03*
%TO.N,X5*%
X85902800Y-79197200D03*
D11*
%TO.N,X3*%
X112852200Y-67335400D03*
D12*
%TO.N,X4*%
X98729800Y-71856600D03*
%TD*%
D13*
%TO.N,X1*%
X86842600Y-79248000D02*
X85520400Y-80570200D01*
X86842600Y-78359000D02*
X86842600Y-79248000D01*
X85520400Y-80570200D02*
X77038200Y-80570200D01*
X103454200Y-70561200D02*
X110845600Y-70561200D01*
X87780731Y-77420869D02*
X86842600Y-78359000D01*
X98920300Y-75095100D02*
X96594531Y-77420869D01*
X98920300Y-75095100D02*
X103454200Y-70561200D01*
X96594531Y-77420869D02*
X87780731Y-77420869D01*
%TO.N,X2*%
X84378800Y-79070200D02*
X77038200Y-79070200D01*
X87426800Y-76022200D02*
X84378800Y-79070200D01*
X98780600Y-73685400D02*
X96443800Y-76022200D01*
X99212400Y-73685400D02*
X98780600Y-73685400D01*
X96443800Y-76022200D02*
X87426800Y-76022200D01*
%TO.N,X6*%
X87528400Y-76555600D02*
X84513800Y-79570200D01*
X88798400Y-76708000D02*
X88646000Y-76555600D01*
X84513800Y-79570200D02*
X77038200Y-79570200D01*
X88646000Y-76555600D02*
X87528400Y-76555600D01*
%TO.N,X5*%
X85453300Y-80070200D02*
X77038200Y-80070200D01*
X85902800Y-79620700D02*
X85453300Y-80070200D01*
X85902800Y-79197200D02*
X85902800Y-79620700D01*
%TO.N,X3*%
X112801400Y-67335400D02*
X112852200Y-67335400D01*
X101523800Y-70104000D02*
X110032800Y-70104000D01*
X84243800Y-78570200D02*
X87299800Y-75514200D01*
X87299800Y-75514200D02*
X96113600Y-75514200D01*
X77038200Y-78570200D02*
X84243800Y-78570200D01*
X110032800Y-70104000D02*
X112801400Y-67335400D01*
X96113600Y-75514200D02*
X101523800Y-70104000D01*
%TO.N,X4*%
X84083400Y-78070200D02*
X77038200Y-78070200D01*
X95631000Y-74980800D02*
X87172800Y-74980800D01*
X87172800Y-74980800D02*
X84083400Y-78070200D01*
X98729800Y-71856600D02*
X98729800Y-71882000D01*
X98729800Y-71882000D02*
X95631000Y-74980800D01*
%TD*%
%TA.AperFunction,NonConductor*%
G36*
X102229342Y-70724185D02*
G01*
X102275097Y-70776989D01*
X102285041Y-70846147D01*
X102256016Y-70909703D01*
X102249984Y-70916181D01*
X100053335Y-73112828D01*
X99992012Y-73146313D01*
X99922320Y-73141329D01*
X99877973Y-73112828D01*
X99770502Y-73005357D01*
X99770498Y-73005354D01*
X99716999Y-72969607D01*
X99672194Y-72915995D01*
X99663487Y-72846670D01*
X99693641Y-72783642D01*
X99698189Y-72778844D01*
X101736216Y-70740819D01*
X101797539Y-70707334D01*
X101823897Y-70704500D01*
X102162303Y-70704500D01*
X102229342Y-70724185D01*
G37*
%TD.AperFunction*%
%TA.AperFunction,NonConductor*%
G36*
X105889039Y-49064695D02*
G01*
X105909343Y-49066025D01*
X106118311Y-49079721D01*
X106134367Y-49081836D01*
X106355717Y-49125865D01*
X106371361Y-49130057D01*
X106585069Y-49202602D01*
X106600052Y-49208808D01*
X106802449Y-49308619D01*
X106816496Y-49316729D01*
X107004137Y-49442108D01*
X107017001Y-49451979D01*
X107186667Y-49600773D01*
X107198137Y-49612243D01*
X107346929Y-49781910D01*
X107356802Y-49794778D01*
X107482177Y-49982416D01*
X107490288Y-49996463D01*
X107590099Y-50198863D01*
X107596304Y-50213844D01*
X107616376Y-50272976D01*
X107668842Y-50427538D01*
X107673040Y-50443206D01*
X107717064Y-50664541D01*
X107719181Y-50680622D01*
X107734226Y-50910205D01*
X107734491Y-50918295D01*
X107734491Y-55504239D01*
X107734468Y-55504317D01*
X107734470Y-55656279D01*
X107734471Y-55656280D01*
X107769431Y-55854534D01*
X107838287Y-56043704D01*
X107838294Y-56043717D01*
X107938945Y-56218044D01*
X107938950Y-56218052D01*
X108013750Y-56307193D01*
X108068351Y-56372263D01*
X108149420Y-56440287D01*
X108222566Y-56501663D01*
X108222568Y-56501664D01*
X108396911Y-56602320D01*
X108586084Y-56671173D01*
X108784340Y-56706131D01*
X108855061Y-56706131D01*
X110130234Y-56706131D01*
X110197273Y-56725816D01*
X110243028Y-56778620D01*
X110252972Y-56847778D01*
X110223947Y-56911334D01*
X110168553Y-56948061D01*
X110114501Y-56965624D01*
X110056582Y-56984443D01*
X109867176Y-57080950D01*
X109695210Y-57205889D01*
X109544887Y-57356212D01*
X109419948Y-57528178D01*
X109323441Y-57717584D01*
X109257750Y-57919759D01*
X109224497Y-58129712D01*
X109224497Y-58342285D01*
X109255652Y-58538994D01*
X109257751Y-58552242D01*
X109320579Y-58745607D01*
X109323441Y-58754413D01*
X109419948Y-58943819D01*
X109544887Y-59115785D01*
X109695210Y-59266108D01*
X109867176Y-59391047D01*
X109867178Y-59391048D01*
X109867181Y-59391050D01*
X110056585Y-59487556D01*
X110258754Y-59553245D01*
X110468710Y-59586499D01*
X110468711Y-59586499D01*
X110681283Y-59586499D01*
X110681284Y-59586499D01*
X110891240Y-59553245D01*
X111093409Y-59487556D01*
X111282813Y-59391050D01*
X111312677Y-59369353D01*
X111454783Y-59266108D01*
X111454785Y-59266105D01*
X111454789Y-59266103D01*
X111604627Y-59116265D01*
X112201098Y-59116265D01*
X112543652Y-59458819D01*
X112646046Y-59356425D01*
X113855472Y-59356425D01*
X113957865Y-59458819D01*
X114047352Y-59369332D01*
X113961687Y-59369353D01*
X113956287Y-59369237D01*
X113945398Y-59368765D01*
X113940003Y-59368413D01*
X113918373Y-59366528D01*
X113913000Y-59365941D01*
X113902197Y-59364523D01*
X113896858Y-59363704D01*
X113855472Y-59356425D01*
X112646046Y-59356425D01*
X112898620Y-59103850D01*
X112543651Y-58748882D01*
X112226890Y-59065643D01*
X112201098Y-59116265D01*
X111604627Y-59116265D01*
X111605101Y-59115791D01*
X111605103Y-59115787D01*
X111605106Y-59115785D01*
X111730045Y-58943819D01*
X111730044Y-58943819D01*
X111730048Y-58943815D01*
X111826554Y-58754411D01*
X111892243Y-58552242D01*
X111925497Y-58342286D01*
X111925497Y-58129712D01*
X111892243Y-57919756D01*
X111826554Y-57717587D01*
X111753698Y-57574598D01*
X112303721Y-57574598D01*
X112368891Y-57775165D01*
X112370306Y-57779829D01*
X112372970Y-57789276D01*
X112374196Y-57793978D01*
X112378764Y-57813001D01*
X112379810Y-57817764D01*
X112381726Y-57827397D01*
X112382581Y-57832189D01*
X112392243Y-57893196D01*
X112436835Y-57937788D01*
X112430573Y-57902951D01*
X112429733Y-57897613D01*
X112428275Y-57886820D01*
X112427669Y-57881455D01*
X112425702Y-57859834D01*
X112425330Y-57854447D01*
X112424816Y-57843560D01*
X112424679Y-57838154D01*
X112424500Y-57788123D01*
X112423732Y-57778328D01*
X112423376Y-57766197D01*
X112424294Y-57719362D01*
X112424092Y-57664635D01*
X112424817Y-57650781D01*
X112425822Y-57641523D01*
X112427080Y-57577484D01*
X112418676Y-57488710D01*
X112411972Y-57466347D01*
X112303721Y-57574598D01*
X111753698Y-57574598D01*
X111730048Y-57528183D01*
X111730046Y-57528180D01*
X111730045Y-57528178D01*
X111605106Y-57356212D01*
X111454783Y-57205889D01*
X111282817Y-57080950D01*
X111093411Y-56984443D01*
X111093410Y-56984442D01*
X111093409Y-56984442D01*
X110981440Y-56948061D01*
X110923766Y-56908625D01*
X110896568Y-56844266D01*
X110908483Y-56775420D01*
X110955727Y-56723944D01*
X111019760Y-56706131D01*
X112041747Y-56706131D01*
X112069989Y-56706131D01*
X112082173Y-56706731D01*
X112093529Y-56707852D01*
X112230059Y-56721333D01*
X112253954Y-56726099D01*
X112390250Y-56767556D01*
X112412755Y-56776904D01*
X112538313Y-56844219D01*
X112558551Y-56857786D01*
X112604369Y-56895522D01*
X112668518Y-56948357D01*
X112685716Y-56965624D01*
X112775845Y-57075954D01*
X112789333Y-57096251D01*
X112856139Y-57222071D01*
X112865398Y-57244614D01*
X112906308Y-57381079D01*
X112910978Y-57404999D01*
X112924877Y-57551800D01*
X112925405Y-57565924D01*
X112923271Y-57674542D01*
X112922165Y-57683714D01*
X112922307Y-57721899D01*
X112922284Y-57724792D01*
X112921648Y-57757179D01*
X112922424Y-57765779D01*
X112922636Y-57825516D01*
X112922636Y-57825521D01*
X112922637Y-57825525D01*
X112952102Y-57989437D01*
X112958172Y-58023202D01*
X112958172Y-58023204D01*
X113027412Y-58211723D01*
X113027420Y-58211739D01*
X113128268Y-58385407D01*
X113128274Y-58385416D01*
X113257682Y-58538984D01*
X113257689Y-58538990D01*
X113257692Y-58538994D01*
X113411764Y-58667834D01*
X113585826Y-58768034D01*
X113585829Y-58768035D01*
X113585831Y-58768036D01*
X113620513Y-58780625D01*
X113774615Y-58836564D01*
X113972422Y-58871351D01*
X114072820Y-58871326D01*
X114072845Y-58871326D01*
X118186363Y-58871326D01*
X118253402Y-58891011D01*
X118299157Y-58943815D01*
X118309101Y-59012973D01*
X118280076Y-59076529D01*
X118241027Y-59106626D01*
X118221401Y-59116265D01*
X118185860Y-59133719D01*
X118185855Y-59133723D01*
X118072599Y-59225190D01*
X117982349Y-59339440D01*
X117919582Y-59470810D01*
X117887404Y-59612798D01*
X117887460Y-59685597D01*
X117887460Y-59719951D01*
X117887497Y-61137481D01*
X117887481Y-61137622D01*
X117887480Y-61236807D01*
X117887498Y-61236975D01*
X117887498Y-61258895D01*
X117920114Y-61401798D01*
X117920115Y-61401801D01*
X117934019Y-61430674D01*
X117983712Y-61533868D01*
X117983714Y-61533870D01*
X118075107Y-61648477D01*
X118189711Y-61739874D01*
X118321778Y-61803478D01*
X118321779Y-61803478D01*
X118321781Y-61803479D01*
X118321786Y-61803480D01*
X118352671Y-61810530D01*
X118464688Y-61836100D01*
X118493609Y-61836100D01*
X118493617Y-61836102D01*
X118537980Y-61836102D01*
X118572331Y-61836103D01*
X118572333Y-61836102D01*
X119998884Y-61836102D01*
X120005678Y-61836809D01*
X120014447Y-61836660D01*
X120014448Y-61836661D01*
X120046484Y-61836119D01*
X120048578Y-61836102D01*
X120083583Y-61836102D01*
X120089966Y-61835421D01*
X120121302Y-61834931D01*
X120262219Y-61800617D01*
X120392125Y-61736124D01*
X120504647Y-61644615D01*
X120594264Y-61530580D01*
X120656579Y-61399615D01*
X120688535Y-61258145D01*
X120688501Y-61225171D01*
X121381072Y-61225171D01*
X121736040Y-61580139D01*
X122091008Y-61225171D01*
X121736040Y-60870203D01*
X121381072Y-61225171D01*
X120688501Y-61225171D01*
X120688460Y-61185627D01*
X120688466Y-61151277D01*
X120688465Y-61151274D01*
X120688467Y-61137873D01*
X120688460Y-61137799D01*
X120688460Y-60715505D01*
X121186460Y-60715505D01*
X121383901Y-60518064D01*
X121186460Y-60320623D01*
X121186460Y-60715505D01*
X120688460Y-60715505D01*
X120688460Y-59730700D01*
X120688893Y-59729222D01*
X120688883Y-59727965D01*
X120688894Y-59727854D01*
X120688690Y-59705390D01*
X120688690Y-59705316D01*
X120688465Y-59678930D01*
X120688460Y-59677873D01*
X120688460Y-59641482D01*
X120688116Y-59638159D01*
X120687850Y-59606770D01*
X120664725Y-59509001D01*
X120654305Y-59464947D01*
X120618117Y-59391047D01*
X120590211Y-59334058D01*
X120498748Y-59220594D01*
X120384448Y-59130178D01*
X120384446Y-59130177D01*
X120384445Y-59130176D01*
X120384444Y-59130175D01*
X120336385Y-59107188D01*
X120284402Y-59060503D01*
X120265911Y-58993125D01*
X120286782Y-58926445D01*
X120340390Y-58881635D01*
X120389891Y-58871326D01*
X120716852Y-58871326D01*
X120716878Y-58871328D01*
X120731295Y-58871327D01*
X120731297Y-58871328D01*
X120760646Y-58871326D01*
X120770622Y-58871727D01*
X120892075Y-58881535D01*
X120911786Y-58884741D01*
X120980915Y-58901795D01*
X121025208Y-58912722D01*
X121044149Y-58919051D01*
X121151605Y-58964881D01*
X121169279Y-58974167D01*
X121267987Y-59036663D01*
X121283941Y-59048668D01*
X121374956Y-59129418D01*
X121382153Y-59136341D01*
X121410991Y-59166413D01*
X121412830Y-59167934D01*
X122746804Y-60543271D01*
X124189070Y-62030258D01*
X124194510Y-62035866D01*
X124200968Y-62043066D01*
X124242047Y-62092628D01*
X124276099Y-62133711D01*
X124287215Y-62149475D01*
X124316056Y-62197991D01*
X124344893Y-62246502D01*
X124353432Y-62263804D01*
X124395362Y-62368612D01*
X124401113Y-62387029D01*
X124426274Y-62497060D01*
X124429099Y-62516149D01*
X124437241Y-62633913D01*
X124437531Y-62643555D01*
X124437200Y-62681166D01*
X124438017Y-62688387D01*
X124440825Y-62977999D01*
X124440831Y-62979201D01*
X124440831Y-73078085D01*
X124440636Y-73085036D01*
X124423308Y-73393650D01*
X124421751Y-73407468D01*
X124370563Y-73708760D01*
X124367469Y-73722317D01*
X124282869Y-74015982D01*
X124278277Y-74029108D01*
X124161323Y-74311468D01*
X124155289Y-74323997D01*
X124007459Y-74591478D01*
X124000061Y-74603251D01*
X123823216Y-74852496D01*
X123814546Y-74863368D01*
X123610903Y-75091247D01*
X123601071Y-75101080D01*
X123553229Y-75143835D01*
X123373193Y-75304726D01*
X123362326Y-75313393D01*
X123113076Y-75490247D01*
X123101302Y-75497645D01*
X122833826Y-75645475D01*
X122821297Y-75651509D01*
X122538949Y-75768463D01*
X122525823Y-75773056D01*
X122232149Y-75857661D01*
X122218593Y-75860755D01*
X121917301Y-75911947D01*
X121903483Y-75913504D01*
X121595491Y-75930801D01*
X121588538Y-75930996D01*
X121557046Y-75930996D01*
X107977965Y-75931001D01*
X107977944Y-75930995D01*
X107818414Y-75930995D01*
X107603909Y-75959236D01*
X107394917Y-76015236D01*
X107195024Y-76098036D01*
X107007645Y-76206221D01*
X106836002Y-76337930D01*
X106835992Y-76337939D01*
X106780676Y-76393254D01*
X106780672Y-76393260D01*
X102583292Y-80590638D01*
X102577330Y-80596220D01*
X102403497Y-80748536D01*
X102390545Y-80758457D01*
X102201616Y-80884369D01*
X102187475Y-80892504D01*
X101983659Y-80992520D01*
X101968571Y-80998729D01*
X101753373Y-81071125D01*
X101737601Y-81075298D01*
X101514773Y-81118813D01*
X101498590Y-81120880D01*
X101267967Y-81135010D01*
X101259813Y-81135241D01*
X101240485Y-81135152D01*
X101229464Y-81135101D01*
X101229463Y-81135101D01*
X101217024Y-81135044D01*
X101215085Y-81135258D01*
X91356825Y-81135258D01*
X91340640Y-81134197D01*
X91324294Y-81132045D01*
X91274410Y-81125477D01*
X91243146Y-81117100D01*
X91189003Y-81094673D01*
X91160971Y-81078489D01*
X91114479Y-81042814D01*
X91091593Y-81019929D01*
X91055917Y-80973439D01*
X91039730Y-80945404D01*
X91017302Y-80891261D01*
X91008924Y-80859997D01*
X91008796Y-80859025D01*
X91000220Y-80793908D01*
X90999159Y-80777739D01*
X90999158Y-80751364D01*
X90999157Y-80751363D01*
X90999157Y-80737625D01*
X90999103Y-80737162D01*
X90998396Y-80128033D01*
X91496396Y-80128033D01*
X91496834Y-80505636D01*
X91685417Y-80317054D01*
X92389694Y-80317054D01*
X92709898Y-80637258D01*
X92779426Y-80637258D01*
X93099630Y-80317054D01*
X93803908Y-80317054D01*
X94124112Y-80637258D01*
X94193640Y-80637258D01*
X94513844Y-80317054D01*
X95218121Y-80317054D01*
X95538325Y-80637258D01*
X95607853Y-80637258D01*
X95928057Y-80317054D01*
X96632335Y-80317054D01*
X96952539Y-80637258D01*
X97022067Y-80637258D01*
X97342271Y-80317054D01*
X98046548Y-80317054D01*
X98366752Y-80637258D01*
X98436280Y-80637258D01*
X98756484Y-80317054D01*
X99460762Y-80317054D01*
X99780966Y-80637258D01*
X99850494Y-80637258D01*
X100170698Y-80317054D01*
X100874975Y-80317054D01*
X101195179Y-80637258D01*
X101198307Y-80637258D01*
X101203757Y-80636977D01*
X101249794Y-80637189D01*
X101265752Y-80636211D01*
X101584911Y-80317053D01*
X101229943Y-79962085D01*
X100874975Y-80317054D01*
X100170698Y-80317054D01*
X99815730Y-79962086D01*
X99460762Y-80317054D01*
X98756484Y-80317054D01*
X98401516Y-79962086D01*
X98046548Y-80317054D01*
X97342271Y-80317054D01*
X96987303Y-79962086D01*
X96632335Y-80317054D01*
X95928057Y-80317054D01*
X95573089Y-79962086D01*
X95218121Y-80317054D01*
X94513844Y-80317054D01*
X94158876Y-79962086D01*
X93803908Y-80317054D01*
X93099630Y-80317054D01*
X92744662Y-79962086D01*
X92389694Y-80317054D01*
X91685417Y-80317054D01*
X91496396Y-80128033D01*
X90998396Y-80128033D01*
X90997795Y-79609947D01*
X91682587Y-79609947D01*
X92037555Y-79964915D01*
X92392523Y-79609947D01*
X93096801Y-79609947D01*
X93451769Y-79964915D01*
X93806737Y-79609947D01*
X94511014Y-79609947D01*
X94865982Y-79964915D01*
X95220950Y-79609947D01*
X95925228Y-79609947D01*
X96280196Y-79964915D01*
X96635164Y-79609947D01*
X97339441Y-79609947D01*
X97694409Y-79964915D01*
X98049378Y-79609947D01*
X98753655Y-79609947D01*
X99108623Y-79964915D01*
X99463591Y-79609947D01*
X100167869Y-79609947D01*
X100522837Y-79964915D01*
X100877805Y-79609947D01*
X101582082Y-79609947D01*
X101937050Y-79964915D01*
X102292018Y-79609947D01*
X101937050Y-79254979D01*
X101582082Y-79609947D01*
X100877805Y-79609947D01*
X100522837Y-79254979D01*
X100167869Y-79609947D01*
X99463591Y-79609947D01*
X99108623Y-79254979D01*
X98753655Y-79609947D01*
X98049378Y-79609947D01*
X97694409Y-79254978D01*
X97339441Y-79609947D01*
X96635164Y-79609947D01*
X96280196Y-79254979D01*
X95925228Y-79609947D01*
X95220950Y-79609947D01*
X94865982Y-79254978D01*
X94511014Y-79609947D01*
X93806737Y-79609947D01*
X93451769Y-79254979D01*
X93096801Y-79609947D01*
X92392523Y-79609947D01*
X92037555Y-79254979D01*
X91682587Y-79609947D01*
X90997795Y-79609947D01*
X90997306Y-79188375D01*
X90997740Y-79186890D01*
X90997310Y-79137182D01*
X90997311Y-79137182D01*
X90997241Y-79129105D01*
X90997237Y-79128461D01*
X90997215Y-79108465D01*
X90997214Y-79108463D01*
X90997203Y-79098325D01*
X90996956Y-79095943D01*
X90996685Y-79064314D01*
X90963128Y-78922489D01*
X90899025Y-78791602D01*
X90899022Y-78791598D01*
X90899021Y-78791596D01*
X90811287Y-78682773D01*
X90807553Y-78678141D01*
X90782438Y-78658276D01*
X90693248Y-78587730D01*
X90624418Y-78554810D01*
X91337387Y-78554810D01*
X91340155Y-78560084D01*
X91416481Y-78715928D01*
X91419349Y-78722223D01*
X91424775Y-78735070D01*
X91427286Y-78741509D01*
X91436656Y-78767674D01*
X91438805Y-78774245D01*
X91442768Y-78787617D01*
X91444547Y-78794301D01*
X91484513Y-78963211D01*
X91485921Y-78970005D01*
X91488375Y-78983774D01*
X91489400Y-78990625D01*
X91492751Y-79018299D01*
X91493392Y-79025212D01*
X91494294Y-79039177D01*
X91494547Y-79046112D01*
X91494799Y-79075718D01*
X91495187Y-79083399D01*
X91495197Y-79093058D01*
X91685415Y-78902840D01*
X92389694Y-78902840D01*
X92744662Y-79257808D01*
X93099630Y-78902840D01*
X93803908Y-78902840D01*
X94158876Y-79257808D01*
X94513844Y-78902840D01*
X95218121Y-78902840D01*
X95573089Y-79257808D01*
X95928057Y-78902840D01*
X96632335Y-78902840D01*
X96987303Y-79257808D01*
X97342271Y-78902840D01*
X98046548Y-78902840D01*
X98401516Y-79257808D01*
X98756484Y-78902840D01*
X99460762Y-78902840D01*
X99815730Y-79257808D01*
X100170698Y-78902840D01*
X100874975Y-78902840D01*
X101229943Y-79257808D01*
X101584911Y-78902840D01*
X102289189Y-78902840D01*
X102644157Y-79257808D01*
X102999125Y-78902840D01*
X102644157Y-78547872D01*
X102289189Y-78902840D01*
X101584911Y-78902840D01*
X101229943Y-78547871D01*
X100874975Y-78902840D01*
X100170698Y-78902840D01*
X99815730Y-78547872D01*
X99460762Y-78902840D01*
X98756484Y-78902840D01*
X98401516Y-78547872D01*
X98046548Y-78902840D01*
X97342271Y-78902840D01*
X96987303Y-78547872D01*
X96632335Y-78902840D01*
X95928057Y-78902840D01*
X95573089Y-78547872D01*
X95218121Y-78902840D01*
X94513844Y-78902840D01*
X94158876Y-78547872D01*
X93803908Y-78902840D01*
X93099630Y-78902840D01*
X92744662Y-78547872D01*
X92389694Y-78902840D01*
X91685415Y-78902840D01*
X91685416Y-78902839D01*
X91337387Y-78554810D01*
X90624418Y-78554810D01*
X90615829Y-78550702D01*
X90561769Y-78524846D01*
X90419638Y-78492610D01*
X90419636Y-78492610D01*
X90419632Y-78492609D01*
X90346767Y-78492661D01*
X88889074Y-78492661D01*
X88884634Y-78492185D01*
X88842516Y-78492640D01*
X88841242Y-78492654D01*
X88839904Y-78492661D01*
X88802526Y-78492661D01*
X88798233Y-78493105D01*
X88777223Y-78493316D01*
X88766973Y-78493419D01*
X88766971Y-78493419D01*
X88766966Y-78493420D01*
X88625345Y-78527127D01*
X88494665Y-78591304D01*
X88381402Y-78682773D01*
X88291155Y-78797010D01*
X88228388Y-78928366D01*
X88228383Y-78928380D01*
X88196199Y-79070348D01*
X88196199Y-79070349D01*
X88196220Y-79101624D01*
X88196186Y-79101991D01*
X88196204Y-79113491D01*
X88196250Y-79143144D01*
X88196248Y-79172110D01*
X88196246Y-79190730D01*
X88196323Y-79191420D01*
X88198229Y-80427015D01*
X88198155Y-80427669D01*
X88198153Y-80467692D01*
X88197092Y-80483869D01*
X88188372Y-80550077D01*
X88179993Y-80581343D01*
X88157571Y-80635464D01*
X88141384Y-80663495D01*
X88105722Y-80709965D01*
X88082830Y-80732854D01*
X88036354Y-80768511D01*
X88008318Y-80784695D01*
X87954200Y-80807106D01*
X87922933Y-80815481D01*
X87856377Y-80824238D01*
X87840192Y-80825298D01*
X87820007Y-80825296D01*
X87814317Y-80825296D01*
X87814316Y-80825296D01*
X87799904Y-80825295D01*
X87799870Y-80825299D01*
X86413898Y-80825299D01*
X86346859Y-80805614D01*
X86301104Y-80752810D01*
X86291160Y-80683652D01*
X86320185Y-80620096D01*
X86326217Y-80613618D01*
X86512820Y-80427015D01*
X87201106Y-79738727D01*
X87201111Y-79738724D01*
X87211314Y-79728520D01*
X87211316Y-79728520D01*
X87323120Y-79616716D01*
X87380593Y-79517169D01*
X87402177Y-79479785D01*
X87443100Y-79327057D01*
X87443100Y-79168943D01*
X87443100Y-78659097D01*
X87462785Y-78592058D01*
X87479419Y-78571416D01*
X87838232Y-78212604D01*
X97356311Y-78212604D01*
X97694409Y-78550702D01*
X98049378Y-78195734D01*
X98753655Y-78195734D01*
X99108623Y-78550702D01*
X99463591Y-78195734D01*
X100167869Y-78195734D01*
X100522837Y-78550702D01*
X100877805Y-78195734D01*
X101582082Y-78195734D01*
X101937050Y-78550702D01*
X102292018Y-78195734D01*
X102996296Y-78195734D01*
X103351264Y-78550702D01*
X103706232Y-78195734D01*
X103351264Y-77840766D01*
X102996296Y-78195734D01*
X102292018Y-78195734D01*
X101937050Y-77840766D01*
X101582082Y-78195734D01*
X100877805Y-78195734D01*
X100522837Y-77840766D01*
X100167869Y-78195734D01*
X99463591Y-78195734D01*
X99108623Y-77840766D01*
X98753655Y-78195734D01*
X98049378Y-78195734D01*
X97711277Y-77857633D01*
X97451665Y-78117244D01*
X97451650Y-78117264D01*
X97356311Y-78212604D01*
X87838232Y-78212604D01*
X87993148Y-78057688D01*
X88054471Y-78024203D01*
X88080829Y-78021369D01*
X96507862Y-78021369D01*
X96507878Y-78021370D01*
X96515474Y-78021370D01*
X96673585Y-78021370D01*
X96673588Y-78021370D01*
X96826316Y-77980446D01*
X96876435Y-77951508D01*
X96963247Y-77901389D01*
X97075051Y-77789585D01*
X97075051Y-77789583D01*
X97085259Y-77779376D01*
X97085260Y-77779373D01*
X97359139Y-77505494D01*
X98063415Y-77505494D01*
X98401516Y-77843595D01*
X98756484Y-77488627D01*
X99460762Y-77488627D01*
X99815730Y-77843595D01*
X100170698Y-77488627D01*
X100874975Y-77488627D01*
X101229943Y-77843595D01*
X101584911Y-77488627D01*
X102289189Y-77488627D01*
X102644157Y-77843595D01*
X102999125Y-77488627D01*
X103703403Y-77488627D01*
X104058371Y-77843595D01*
X104413339Y-77488627D01*
X104058371Y-77133659D01*
X103703403Y-77488627D01*
X102999125Y-77488627D01*
X102644157Y-77133659D01*
X102289189Y-77488627D01*
X101584911Y-77488627D01*
X101229943Y-77133658D01*
X100874975Y-77488627D01*
X100170698Y-77488627D01*
X99815730Y-77133659D01*
X99460762Y-77488627D01*
X98756484Y-77488627D01*
X98418383Y-77150526D01*
X98063415Y-77505494D01*
X97359139Y-77505494D01*
X98066246Y-76798387D01*
X98770522Y-76798387D01*
X99108623Y-77136488D01*
X99463591Y-76781520D01*
X100167869Y-76781520D01*
X100522837Y-77136488D01*
X100877805Y-76781520D01*
X101582082Y-76781520D01*
X101937050Y-77136488D01*
X102292018Y-76781520D01*
X102996296Y-76781520D01*
X103351264Y-77136488D01*
X103706232Y-76781520D01*
X104410509Y-76781520D01*
X104765477Y-77136488D01*
X105120445Y-76781520D01*
X104765477Y-76426552D01*
X104410509Y-76781520D01*
X103706232Y-76781520D01*
X103351264Y-76426552D01*
X102996296Y-76781520D01*
X102292018Y-76781520D01*
X101937050Y-76426552D01*
X101582082Y-76781520D01*
X100877805Y-76781520D01*
X100522837Y-76426552D01*
X100167869Y-76781520D01*
X99463591Y-76781520D01*
X99125490Y-76443419D01*
X98770522Y-76798387D01*
X98066246Y-76798387D01*
X98657588Y-76207046D01*
X99593395Y-76207046D01*
X99815730Y-76429381D01*
X100170698Y-76074413D01*
X100874975Y-76074413D01*
X101229943Y-76429381D01*
X101584911Y-76074413D01*
X102289189Y-76074413D01*
X102644157Y-76429381D01*
X102999125Y-76074413D01*
X103703403Y-76074413D01*
X104058371Y-76429381D01*
X104413339Y-76074413D01*
X105117616Y-76074413D01*
X105472584Y-76429381D01*
X105827552Y-76074413D01*
X105472584Y-75719445D01*
X105117616Y-76074413D01*
X104413339Y-76074413D01*
X104058371Y-75719445D01*
X103703403Y-76074413D01*
X102999125Y-76074413D01*
X102644157Y-75719445D01*
X102289189Y-76074413D01*
X101584911Y-76074413D01*
X101229943Y-75719444D01*
X100874975Y-76074413D01*
X100170698Y-76074413D01*
X99965047Y-75868762D01*
X99949367Y-75892231D01*
X99945864Y-75897205D01*
X99938553Y-75907063D01*
X99934807Y-75911864D01*
X99919291Y-75930770D01*
X99915322Y-75935371D01*
X99907079Y-75944467D01*
X99902876Y-75948881D01*
X99774081Y-76077676D01*
X99769667Y-76081879D01*
X99760571Y-76090122D01*
X99755970Y-76094091D01*
X99737064Y-76109607D01*
X99732263Y-76113353D01*
X99722405Y-76120664D01*
X99717431Y-76124167D01*
X99593395Y-76207046D01*
X98657588Y-76207046D01*
X98934962Y-75929672D01*
X98996283Y-75896189D01*
X98998450Y-75895738D01*
X99056385Y-75884213D01*
X99153797Y-75864837D01*
X99299479Y-75804494D01*
X99430589Y-75716889D01*
X99542089Y-75605389D01*
X99629694Y-75474279D01*
X99632891Y-75466562D01*
X99666325Y-75385843D01*
X100186406Y-75385843D01*
X100522837Y-75722274D01*
X100877805Y-75367306D01*
X101582081Y-75367306D01*
X101937050Y-75722274D01*
X102292018Y-75367306D01*
X102292017Y-75367305D01*
X102996295Y-75367305D01*
X103351264Y-75722274D01*
X103706232Y-75367306D01*
X104410508Y-75367306D01*
X104765477Y-75722274D01*
X105120445Y-75367306D01*
X105120444Y-75367305D01*
X105824722Y-75367305D01*
X106179691Y-75722274D01*
X106534659Y-75367306D01*
X107238936Y-75367306D01*
X107376289Y-75504659D01*
X107482885Y-75476097D01*
X107486815Y-75475112D01*
X107494782Y-75473254D01*
X107498755Y-75472396D01*
X107514743Y-75469216D01*
X107518734Y-75468490D01*
X107526808Y-75467157D01*
X107530822Y-75466562D01*
X107761494Y-75436193D01*
X107765524Y-75435729D01*
X107773666Y-75434927D01*
X107777711Y-75434595D01*
X107793976Y-75433529D01*
X107798025Y-75433331D01*
X107806203Y-75433063D01*
X107810263Y-75432996D01*
X107883182Y-75432995D01*
X107948871Y-75367306D01*
X108653150Y-75367306D01*
X108718843Y-75432999D01*
X109297392Y-75432999D01*
X109363084Y-75367306D01*
X110067364Y-75367306D01*
X110133057Y-75432999D01*
X110711607Y-75432999D01*
X110777300Y-75367306D01*
X111481577Y-75367306D01*
X111547269Y-75432998D01*
X112125820Y-75432998D01*
X112191511Y-75367306D01*
X112895791Y-75367306D01*
X112961483Y-75432998D01*
X113540035Y-75432998D01*
X113605727Y-75367306D01*
X114310003Y-75367306D01*
X114375695Y-75432997D01*
X114954248Y-75432997D01*
X115019938Y-75367306D01*
X115724218Y-75367306D01*
X115789909Y-75432997D01*
X116368462Y-75432997D01*
X116434152Y-75367306D01*
X117138430Y-75367306D01*
X117204121Y-75432997D01*
X117782676Y-75432997D01*
X117848366Y-75367306D01*
X118552645Y-75367306D01*
X118618335Y-75432996D01*
X119196890Y-75432996D01*
X119262579Y-75367306D01*
X119966858Y-75367306D01*
X120032548Y-75432996D01*
X120611105Y-75432996D01*
X120676795Y-75367306D01*
X121381071Y-75367306D01*
X121446761Y-75432996D01*
X121578037Y-75432996D01*
X121854588Y-75417464D01*
X122078973Y-75379338D01*
X122091007Y-75367305D01*
X121736040Y-75012338D01*
X121381071Y-75367306D01*
X120676795Y-75367306D01*
X120321826Y-75012337D01*
X119966858Y-75367306D01*
X119262579Y-75367306D01*
X119262580Y-75367305D01*
X118907613Y-75012338D01*
X118552645Y-75367306D01*
X117848366Y-75367306D01*
X117848367Y-75367305D01*
X117493399Y-75012337D01*
X117138430Y-75367306D01*
X116434152Y-75367306D01*
X116434153Y-75367305D01*
X116079186Y-75012338D01*
X115724218Y-75367306D01*
X115019938Y-75367306D01*
X115019939Y-75367305D01*
X114664972Y-75012338D01*
X114310003Y-75367306D01*
X113605727Y-75367306D01*
X113250759Y-75012338D01*
X112895791Y-75367306D01*
X112191511Y-75367306D01*
X112191512Y-75367305D01*
X111836545Y-75012338D01*
X111481577Y-75367306D01*
X110777300Y-75367306D01*
X110422332Y-75012338D01*
X110067364Y-75367306D01*
X109363084Y-75367306D01*
X109363085Y-75367305D01*
X109008118Y-75012338D01*
X108653150Y-75367306D01*
X107948871Y-75367306D01*
X107948872Y-75367305D01*
X107593904Y-75012337D01*
X107238936Y-75367306D01*
X106534659Y-75367306D01*
X106181979Y-75014626D01*
X106179168Y-75016787D01*
X106167937Y-75024931D01*
X106165281Y-75026746D01*
X105824722Y-75367305D01*
X105120444Y-75367305D01*
X104968619Y-75215480D01*
X104562335Y-75215480D01*
X104410508Y-75367306D01*
X103706232Y-75367306D01*
X103351263Y-75012337D01*
X102996295Y-75367305D01*
X102292017Y-75367305D01*
X101937050Y-75012338D01*
X101582081Y-75367306D01*
X100877805Y-75367306D01*
X100539704Y-75029205D01*
X100187234Y-75381675D01*
X100186406Y-75385843D01*
X99666325Y-75385843D01*
X99690037Y-75328597D01*
X99720800Y-75173942D01*
X99720938Y-75173250D01*
X99753323Y-75111339D01*
X99754819Y-75109815D01*
X100187567Y-74677067D01*
X100891842Y-74677067D01*
X101229943Y-75015168D01*
X101584911Y-74660200D01*
X102289189Y-74660200D01*
X102644157Y-75015168D01*
X102999125Y-74660200D01*
X102644157Y-74305232D01*
X102289189Y-74660200D01*
X101584911Y-74660200D01*
X101246810Y-74322098D01*
X100891842Y-74677067D01*
X100187567Y-74677067D01*
X100894674Y-73969960D01*
X101598949Y-73969960D01*
X101937050Y-74308061D01*
X102292018Y-73953093D01*
X101953917Y-73614992D01*
X101598949Y-73969960D01*
X100894674Y-73969960D01*
X101601781Y-73262853D01*
X102306056Y-73262853D01*
X102644156Y-73600953D01*
X102877332Y-73367777D01*
X102876956Y-73123817D01*
X102661024Y-72907885D01*
X102306056Y-73262853D01*
X101601781Y-73262853D01*
X103161224Y-71703409D01*
X103222545Y-71669926D01*
X103292237Y-71674910D01*
X103348170Y-71716782D01*
X103372587Y-71782246D01*
X103372903Y-71790901D01*
X103375367Y-73388526D01*
X103376419Y-74071091D01*
X103376417Y-74140266D01*
X103409033Y-74283186D01*
X103472637Y-74415264D01*
X103472638Y-74415265D01*
X103560960Y-74526017D01*
X103564038Y-74529876D01*
X103678652Y-74621274D01*
X103810732Y-74684873D01*
X103953653Y-74717485D01*
X104026951Y-74717480D01*
X105487835Y-74717480D01*
X105490510Y-74718265D01*
X105537764Y-74717519D01*
X105537765Y-74717520D01*
X105539349Y-74717494D01*
X105541305Y-74717480D01*
X105572864Y-74717480D01*
X105578519Y-74716876D01*
X105610277Y-74716376D01*
X105610281Y-74716375D01*
X105610282Y-74716375D01*
X105635510Y-74710228D01*
X105751196Y-74682046D01*
X105795192Y-74660199D01*
X106531829Y-74660199D01*
X106886798Y-75015168D01*
X107241766Y-74660200D01*
X107946043Y-74660200D01*
X108301011Y-75015168D01*
X108655979Y-74660200D01*
X109360257Y-74660200D01*
X109715225Y-75015168D01*
X110070193Y-74660200D01*
X110774470Y-74660200D01*
X111129438Y-75015168D01*
X111484406Y-74660200D01*
X112188684Y-74660200D01*
X112543652Y-75015168D01*
X112898620Y-74660200D01*
X113602897Y-74660200D01*
X113957865Y-75015168D01*
X114312834Y-74660200D01*
X115017111Y-74660200D01*
X115372079Y-75015168D01*
X115727047Y-74660200D01*
X116431325Y-74660200D01*
X116786293Y-75015168D01*
X117141261Y-74660200D01*
X117845538Y-74660200D01*
X118200506Y-75015168D01*
X118555474Y-74660200D01*
X119259752Y-74660200D01*
X119614720Y-75015168D01*
X119969688Y-74660200D01*
X120673965Y-74660200D01*
X121028933Y-75015168D01*
X121383901Y-74660200D01*
X122088179Y-74660200D01*
X122443147Y-75015168D01*
X122798115Y-74660200D01*
X122443147Y-74305232D01*
X122088179Y-74660200D01*
X121383901Y-74660200D01*
X121028933Y-74305232D01*
X120673965Y-74660200D01*
X119969688Y-74660200D01*
X119614720Y-74305232D01*
X119259752Y-74660200D01*
X118555474Y-74660200D01*
X118200506Y-74305232D01*
X117845538Y-74660200D01*
X117141261Y-74660200D01*
X116786293Y-74305232D01*
X116431325Y-74660200D01*
X115727047Y-74660200D01*
X115372079Y-74305232D01*
X115017111Y-74660200D01*
X114312834Y-74660200D01*
X113957865Y-74305231D01*
X113602897Y-74660200D01*
X112898620Y-74660200D01*
X112543652Y-74305232D01*
X112188684Y-74660200D01*
X111484406Y-74660200D01*
X111129438Y-74305231D01*
X110774470Y-74660200D01*
X110070193Y-74660200D01*
X109715225Y-74305232D01*
X109360257Y-74660200D01*
X108655979Y-74660200D01*
X108301011Y-74305232D01*
X107946043Y-74660200D01*
X107241766Y-74660200D01*
X106886797Y-74305231D01*
X106531829Y-74660199D01*
X105795192Y-74660199D01*
X105881102Y-74617539D01*
X105993621Y-74526017D01*
X106083233Y-74411972D01*
X106145543Y-74280997D01*
X106177492Y-74139519D01*
X106177459Y-74109697D01*
X106177479Y-74109503D01*
X106177459Y-74096681D01*
X106177460Y-74096680D01*
X106177414Y-74066808D01*
X106177419Y-74032648D01*
X106177418Y-74032646D01*
X106177420Y-74019196D01*
X106177339Y-74018479D01*
X106177238Y-73953093D01*
X107238936Y-73953093D01*
X107593904Y-74308061D01*
X107948873Y-73953093D01*
X108653150Y-73953093D01*
X109008118Y-74308061D01*
X109363086Y-73953093D01*
X110067364Y-73953093D01*
X110422332Y-74308061D01*
X110777300Y-73953093D01*
X111481577Y-73953093D01*
X111836545Y-74308061D01*
X112191513Y-73953093D01*
X112895791Y-73953093D01*
X113250759Y-74308061D01*
X113605727Y-73953093D01*
X114310004Y-73953093D01*
X114664972Y-74308061D01*
X115019940Y-73953093D01*
X115724218Y-73953093D01*
X116079186Y-74308061D01*
X116434154Y-73953093D01*
X117138431Y-73953093D01*
X117493399Y-74308061D01*
X117848367Y-73953093D01*
X118552645Y-73953093D01*
X118907613Y-74308061D01*
X119262581Y-73953093D01*
X119966858Y-73953093D01*
X120321826Y-74308061D01*
X120676795Y-73953093D01*
X121381072Y-73953093D01*
X121736040Y-74308061D01*
X122091008Y-73953093D01*
X122795286Y-73953093D01*
X123150254Y-74308061D01*
X123505222Y-73953093D01*
X123150254Y-73598125D01*
X122795286Y-73953093D01*
X122091008Y-73953093D01*
X121736040Y-73598125D01*
X121381072Y-73953093D01*
X120676795Y-73953093D01*
X120321826Y-73598124D01*
X119966858Y-73953093D01*
X119262581Y-73953093D01*
X118907613Y-73598125D01*
X118552645Y-73953093D01*
X117848367Y-73953093D01*
X117493399Y-73598124D01*
X117138431Y-73953093D01*
X116434154Y-73953093D01*
X116079186Y-73598125D01*
X115724218Y-73953093D01*
X115019940Y-73953093D01*
X114664972Y-73598125D01*
X114310004Y-73953093D01*
X113605727Y-73953093D01*
X113250759Y-73598125D01*
X112895791Y-73953093D01*
X112191513Y-73953093D01*
X111836545Y-73598125D01*
X111481577Y-73953093D01*
X110777300Y-73953093D01*
X110422332Y-73598125D01*
X110067364Y-73953093D01*
X109363086Y-73953093D01*
X109008118Y-73598125D01*
X108653150Y-73953093D01*
X107948873Y-73953093D01*
X107593904Y-73598124D01*
X107238936Y-73953093D01*
X106177238Y-73953093D01*
X106175931Y-73103883D01*
X106673931Y-73103883D01*
X106674370Y-73388526D01*
X106886798Y-73600954D01*
X107241766Y-73245986D01*
X107946043Y-73245986D01*
X108301011Y-73600954D01*
X108655979Y-73245986D01*
X109360257Y-73245986D01*
X109715225Y-73600954D01*
X110070193Y-73245986D01*
X110774470Y-73245986D01*
X111129438Y-73600954D01*
X111484406Y-73245986D01*
X112188684Y-73245986D01*
X112543652Y-73600954D01*
X112898620Y-73245986D01*
X113602897Y-73245986D01*
X113957865Y-73600954D01*
X114312834Y-73245986D01*
X115017111Y-73245986D01*
X115372079Y-73600954D01*
X115727047Y-73245986D01*
X116431325Y-73245986D01*
X116786293Y-73600954D01*
X117141261Y-73245986D01*
X117845538Y-73245986D01*
X118200506Y-73600954D01*
X118555474Y-73245986D01*
X119259752Y-73245986D01*
X119614720Y-73600954D01*
X119969688Y-73245986D01*
X120673965Y-73245986D01*
X121028933Y-73600954D01*
X121383901Y-73245986D01*
X122088179Y-73245986D01*
X122443147Y-73600954D01*
X122798115Y-73245986D01*
X123502392Y-73245986D01*
X123857359Y-73600953D01*
X123889142Y-73569170D01*
X123927267Y-73344767D01*
X123942831Y-73067589D01*
X123942831Y-72976488D01*
X123857360Y-72891017D01*
X123502392Y-73245986D01*
X122798115Y-73245986D01*
X122443147Y-72891018D01*
X122088179Y-73245986D01*
X121383901Y-73245986D01*
X121028933Y-72891018D01*
X120673965Y-73245986D01*
X119969688Y-73245986D01*
X119614720Y-72891018D01*
X119259752Y-73245986D01*
X118555474Y-73245986D01*
X118200506Y-72891018D01*
X117845538Y-73245986D01*
X117141261Y-73245986D01*
X116786293Y-72891018D01*
X116431325Y-73245986D01*
X115727047Y-73245986D01*
X115372079Y-72891018D01*
X115017111Y-73245986D01*
X114312834Y-73245986D01*
X113957865Y-72891017D01*
X113602897Y-73245986D01*
X112898620Y-73245986D01*
X112543652Y-72891018D01*
X112188684Y-73245986D01*
X111484406Y-73245986D01*
X111129438Y-72891017D01*
X110774470Y-73245986D01*
X110070193Y-73245986D01*
X109715225Y-72891018D01*
X109360257Y-73245986D01*
X108655979Y-73245986D01*
X108301011Y-72891018D01*
X107946043Y-73245986D01*
X107241766Y-73245986D01*
X106886797Y-72891017D01*
X106673931Y-73103883D01*
X106175931Y-73103883D01*
X106175062Y-72538879D01*
X107238936Y-72538879D01*
X107593904Y-72893847D01*
X107948873Y-72538879D01*
X108653150Y-72538879D01*
X109008118Y-72893847D01*
X109363086Y-72538879D01*
X110067364Y-72538879D01*
X110422332Y-72893847D01*
X110777300Y-72538879D01*
X111481577Y-72538879D01*
X111836545Y-72893847D01*
X112191513Y-72538879D01*
X112895791Y-72538879D01*
X113250759Y-72893847D01*
X113605727Y-72538879D01*
X114310004Y-72538879D01*
X114664972Y-72893847D01*
X115019940Y-72538879D01*
X115724218Y-72538879D01*
X116079186Y-72893847D01*
X116434154Y-72538879D01*
X117138431Y-72538879D01*
X117493399Y-72893847D01*
X117848367Y-72538879D01*
X118552645Y-72538879D01*
X118907613Y-72893847D01*
X119262581Y-72538879D01*
X119966858Y-72538879D01*
X120321826Y-72893847D01*
X120676795Y-72538879D01*
X121381072Y-72538879D01*
X121736040Y-72893847D01*
X122091008Y-72538879D01*
X122795286Y-72538879D01*
X123150254Y-72893847D01*
X123505222Y-72538879D01*
X123150254Y-72183911D01*
X122795286Y-72538879D01*
X122091008Y-72538879D01*
X121736040Y-72183911D01*
X121381072Y-72538879D01*
X120676795Y-72538879D01*
X120321826Y-72183910D01*
X119966858Y-72538879D01*
X119262581Y-72538879D01*
X118907613Y-72183911D01*
X118552645Y-72538879D01*
X117848367Y-72538879D01*
X117493399Y-72183910D01*
X117138431Y-72538879D01*
X116434154Y-72538879D01*
X116079186Y-72183911D01*
X115724218Y-72538879D01*
X115019940Y-72538879D01*
X114664972Y-72183911D01*
X114310004Y-72538879D01*
X113605727Y-72538879D01*
X113250759Y-72183911D01*
X112895791Y-72538879D01*
X112191513Y-72538879D01*
X111836545Y-72183911D01*
X111481577Y-72538879D01*
X110777300Y-72538879D01*
X110422332Y-72183911D01*
X110067364Y-72538879D01*
X109363086Y-72538879D01*
X109008118Y-72183911D01*
X108653150Y-72538879D01*
X107948873Y-72538879D01*
X107593904Y-72183910D01*
X107238936Y-72538879D01*
X106175062Y-72538879D01*
X106173758Y-71691844D01*
X106671758Y-71691844D01*
X106672189Y-71972132D01*
X106886798Y-72186741D01*
X107241766Y-71831772D01*
X107946042Y-71831772D01*
X108301011Y-72186741D01*
X108655979Y-71831772D01*
X109360256Y-71831772D01*
X109715225Y-72186741D01*
X110042265Y-71859700D01*
X110802397Y-71859700D01*
X111129438Y-72186741D01*
X111484406Y-71831772D01*
X112188683Y-71831772D01*
X112543652Y-72186741D01*
X112898620Y-71831772D01*
X113602897Y-71831772D01*
X113957865Y-72186741D01*
X114312834Y-71831772D01*
X115017110Y-71831772D01*
X115372079Y-72186741D01*
X115727047Y-71831772D01*
X116431324Y-71831772D01*
X116786293Y-72186741D01*
X117141261Y-71831772D01*
X117845537Y-71831772D01*
X118200506Y-72186741D01*
X118555474Y-71831773D01*
X119259752Y-71831773D01*
X119614720Y-72186741D01*
X119969688Y-71831773D01*
X119969687Y-71831772D01*
X120673964Y-71831772D01*
X121028933Y-72186741D01*
X121383901Y-71831772D01*
X122088178Y-71831772D01*
X122443147Y-72186741D01*
X122798115Y-71831772D01*
X123502391Y-71831772D01*
X123857360Y-72186741D01*
X123942831Y-72101270D01*
X123942831Y-71562275D01*
X123857360Y-71476804D01*
X123502391Y-71831772D01*
X122798115Y-71831772D01*
X122443147Y-71476804D01*
X122088178Y-71831772D01*
X121383901Y-71831772D01*
X121028933Y-71476804D01*
X120673964Y-71831772D01*
X119969687Y-71831772D01*
X119862997Y-71725082D01*
X119366443Y-71725082D01*
X119259752Y-71831773D01*
X118555474Y-71831773D01*
X118448671Y-71724970D01*
X118445679Y-71724887D01*
X118431676Y-71724101D01*
X118424742Y-71723516D01*
X118396961Y-71720386D01*
X118390079Y-71719415D01*
X118376244Y-71717065D01*
X118369415Y-71715707D01*
X118199245Y-71676865D01*
X118192505Y-71675126D01*
X118179026Y-71671242D01*
X118172406Y-71669132D01*
X118146019Y-71659899D01*
X118139521Y-71657418D01*
X118126559Y-71652049D01*
X118120208Y-71649207D01*
X118058041Y-71619268D01*
X117845537Y-71831772D01*
X117141261Y-71831772D01*
X116786293Y-71476804D01*
X116431324Y-71831772D01*
X115727047Y-71831772D01*
X115372079Y-71476804D01*
X115017110Y-71831772D01*
X114312834Y-71831772D01*
X113957865Y-71476804D01*
X113602897Y-71831772D01*
X112898620Y-71831772D01*
X112543652Y-71476804D01*
X112188683Y-71831772D01*
X111484406Y-71831772D01*
X111392702Y-71740068D01*
X111258375Y-71795708D01*
X111252700Y-71797898D01*
X111241147Y-71802032D01*
X111235366Y-71803941D01*
X111211961Y-71811041D01*
X111206106Y-71812662D01*
X111194198Y-71815646D01*
X111188248Y-71816982D01*
X111009603Y-71852517D01*
X111003603Y-71853558D01*
X110991459Y-71855359D01*
X110985420Y-71856104D01*
X110961079Y-71858501D01*
X110955010Y-71858949D01*
X110942753Y-71859551D01*
X110936670Y-71859700D01*
X110802397Y-71859700D01*
X110042265Y-71859700D01*
X110070193Y-71831772D01*
X109898121Y-71659700D01*
X109532329Y-71659700D01*
X109360256Y-71831772D01*
X108655979Y-71831772D01*
X108483907Y-71659700D01*
X108118115Y-71659700D01*
X107946042Y-71831772D01*
X107241766Y-71831772D01*
X107069694Y-71659700D01*
X106703903Y-71659700D01*
X106671758Y-71691844D01*
X106173758Y-71691844D01*
X106173660Y-71628061D01*
X106173998Y-71624919D01*
X106173893Y-71613411D01*
X106173894Y-71613410D01*
X106173589Y-71580027D01*
X106173585Y-71579158D01*
X106173559Y-71562275D01*
X106173541Y-71550267D01*
X106173540Y-71550265D01*
X106173525Y-71540415D01*
X106173196Y-71537250D01*
X106172934Y-71506198D01*
X106158018Y-71443123D01*
X111800034Y-71443123D01*
X111836545Y-71479634D01*
X112191513Y-71124666D01*
X112895791Y-71124666D01*
X113250759Y-71479634D01*
X113605727Y-71124666D01*
X114310004Y-71124666D01*
X114664972Y-71479634D01*
X115019940Y-71124666D01*
X115724218Y-71124666D01*
X116079186Y-71479634D01*
X116434154Y-71124666D01*
X117138431Y-71124666D01*
X117493399Y-71479634D01*
X117659011Y-71314021D01*
X117587549Y-71224408D01*
X117583362Y-71218845D01*
X117575239Y-71207395D01*
X117571373Y-71201607D01*
X117556502Y-71177934D01*
X117552972Y-71171949D01*
X117546191Y-71159678D01*
X117543000Y-71153501D01*
X117467275Y-70996245D01*
X117464435Y-70989898D01*
X117459067Y-70976938D01*
X117456587Y-70970441D01*
X117447353Y-70944051D01*
X117445241Y-70937424D01*
X117441357Y-70923942D01*
X117439619Y-70917202D01*
X117422205Y-70840891D01*
X117138431Y-71124666D01*
X116434154Y-71124666D01*
X116079186Y-70769698D01*
X115724218Y-71124666D01*
X115019940Y-71124666D01*
X114664972Y-70769698D01*
X114310004Y-71124666D01*
X113605727Y-71124666D01*
X113250759Y-70769698D01*
X112895791Y-71124666D01*
X112191513Y-71124666D01*
X112068601Y-71001754D01*
X112010407Y-71142251D01*
X112007941Y-71147815D01*
X112002694Y-71158909D01*
X111999958Y-71164345D01*
X111988429Y-71185915D01*
X111985433Y-71191204D01*
X111979122Y-71201735D01*
X111975861Y-71206885D01*
X111874667Y-71358331D01*
X111871164Y-71363305D01*
X111863853Y-71373163D01*
X111860107Y-71377964D01*
X111844591Y-71396870D01*
X111840622Y-71401471D01*
X111832379Y-71410567D01*
X111828176Y-71414981D01*
X111800034Y-71443123D01*
X106158018Y-71443123D01*
X106139396Y-71364377D01*
X106139393Y-71364372D01*
X106139392Y-71364367D01*
X106127573Y-71340228D01*
X106115772Y-71271363D01*
X106143076Y-71207049D01*
X106200816Y-71167706D01*
X106238940Y-71161700D01*
X110265834Y-71161700D01*
X110332873Y-71181385D01*
X110334725Y-71182598D01*
X110466414Y-71270590D01*
X110466427Y-71270597D01*
X110612098Y-71330935D01*
X110612103Y-71330937D01*
X110749821Y-71358331D01*
X110766753Y-71361699D01*
X110766756Y-71361700D01*
X110766758Y-71361700D01*
X110924444Y-71361700D01*
X110924445Y-71361699D01*
X111079097Y-71330937D01*
X111203488Y-71279413D01*
X111224772Y-71270597D01*
X111224772Y-71270596D01*
X111224779Y-71270594D01*
X111355889Y-71182989D01*
X111467389Y-71071489D01*
X111554994Y-70940379D01*
X111615337Y-70794697D01*
X111646100Y-70640042D01*
X111646100Y-70482358D01*
X111646100Y-70482355D01*
X111646099Y-70482353D01*
X111635869Y-70430926D01*
X111633210Y-70417558D01*
X112188683Y-70417558D01*
X112543652Y-70772527D01*
X112898620Y-70417559D01*
X113602897Y-70417559D01*
X113957865Y-70772527D01*
X114312834Y-70417559D01*
X115017111Y-70417559D01*
X115372079Y-70772527D01*
X115727047Y-70417559D01*
X116431325Y-70417559D01*
X116786293Y-70772527D01*
X117141261Y-70417559D01*
X116786293Y-70062591D01*
X116431325Y-70417559D01*
X115727047Y-70417559D01*
X115372079Y-70062591D01*
X115017111Y-70417559D01*
X114312834Y-70417559D01*
X113957865Y-70062590D01*
X113602897Y-70417559D01*
X112898620Y-70417559D01*
X112543651Y-70062590D01*
X112188683Y-70417558D01*
X111633210Y-70417558D01*
X111615337Y-70327703D01*
X111592973Y-70273711D01*
X111554997Y-70182027D01*
X111554990Y-70182014D01*
X111467389Y-70050911D01*
X111467386Y-70050907D01*
X111355892Y-69939413D01*
X111355888Y-69939410D01*
X111296127Y-69899479D01*
X111251322Y-69845867D01*
X111244931Y-69794985D01*
X111895325Y-69794985D01*
X111975861Y-69915515D01*
X111979122Y-69920665D01*
X111979937Y-69922026D01*
X112191511Y-69710452D01*
X112895791Y-69710452D01*
X113250759Y-70065420D01*
X113605727Y-69710452D01*
X114310004Y-69710452D01*
X114664972Y-70065420D01*
X115019940Y-69710452D01*
X115724218Y-69710452D01*
X116079186Y-70065420D01*
X116434154Y-69710452D01*
X117138431Y-69710452D01*
X117390423Y-69962444D01*
X117389647Y-69459235D01*
X117138431Y-69710452D01*
X116434154Y-69710452D01*
X116079186Y-69355484D01*
X115724218Y-69710452D01*
X115019940Y-69710452D01*
X114664972Y-69355484D01*
X114310004Y-69710452D01*
X113605727Y-69710452D01*
X113250759Y-69355484D01*
X112895791Y-69710452D01*
X112191511Y-69710452D01*
X112191512Y-69710451D01*
X112085686Y-69604625D01*
X111895325Y-69794985D01*
X111244931Y-69794985D01*
X111242615Y-69776542D01*
X111272769Y-69713515D01*
X111277316Y-69708717D01*
X111733548Y-69252486D01*
X112437824Y-69252486D01*
X112543652Y-69358313D01*
X112898620Y-69003345D01*
X113602897Y-69003345D01*
X113957865Y-69358313D01*
X114312834Y-69003345D01*
X115017110Y-69003345D01*
X115372079Y-69358313D01*
X115727047Y-69003345D01*
X116431324Y-69003345D01*
X116786293Y-69358313D01*
X117141261Y-69003345D01*
X116786293Y-68648377D01*
X116431324Y-69003345D01*
X115727047Y-69003345D01*
X115372079Y-68648377D01*
X115017110Y-69003345D01*
X114312834Y-69003345D01*
X113957865Y-68648376D01*
X113602897Y-69003345D01*
X112898620Y-69003345D01*
X112792793Y-68897518D01*
X112437824Y-69252486D01*
X111733548Y-69252486D01*
X112394171Y-68591864D01*
X113191416Y-68591864D01*
X113250759Y-68651207D01*
X113379491Y-68522474D01*
X113264975Y-68569908D01*
X113259300Y-68572098D01*
X113247747Y-68576232D01*
X113241966Y-68578141D01*
X113218561Y-68585241D01*
X113212706Y-68586862D01*
X113200798Y-68589846D01*
X113194848Y-68591182D01*
X113191416Y-68591864D01*
X112394171Y-68591864D01*
X112689797Y-68296239D01*
X114310004Y-68296239D01*
X114664972Y-68651207D01*
X115019940Y-68296239D01*
X115724218Y-68296239D01*
X116079186Y-68651207D01*
X116434154Y-68296239D01*
X117138431Y-68296239D01*
X117388239Y-68546047D01*
X117387642Y-68158335D01*
X117387551Y-68156685D01*
X117387547Y-68095384D01*
X117387482Y-68053632D01*
X117885483Y-68053632D01*
X117885547Y-68094613D01*
X117885547Y-68094797D01*
X117885549Y-68142308D01*
X117885620Y-68142934D01*
X117889238Y-70489242D01*
X117889416Y-70604702D01*
X117889415Y-70649865D01*
X117889415Y-70649868D01*
X117889416Y-70649870D01*
X117922026Y-70792773D01*
X117922027Y-70792776D01*
X117922028Y-70792778D01*
X117985626Y-70924851D01*
X118077019Y-71039460D01*
X118186940Y-71127123D01*
X118191627Y-71130861D01*
X118315213Y-71190378D01*
X118323693Y-71194462D01*
X118466605Y-71227082D01*
X118509963Y-71227082D01*
X120000801Y-71227082D01*
X120007601Y-71227789D01*
X120016366Y-71227640D01*
X120016367Y-71227641D01*
X120048348Y-71227099D01*
X120050446Y-71227082D01*
X120085648Y-71227082D01*
X120091698Y-71226436D01*
X120123223Y-71225942D01*
X120264143Y-71191623D01*
X120394051Y-71127124D01*
X120397073Y-71124666D01*
X121381072Y-71124666D01*
X121736040Y-71479634D01*
X122091008Y-71124666D01*
X122795286Y-71124666D01*
X123150254Y-71479634D01*
X123505222Y-71124666D01*
X123150254Y-70769698D01*
X122795286Y-71124666D01*
X122091008Y-71124666D01*
X121736040Y-70769698D01*
X121381072Y-71124666D01*
X120397073Y-71124666D01*
X120506573Y-71035609D01*
X120596188Y-70921568D01*
X120658500Y-70790597D01*
X120690451Y-70649121D01*
X120690418Y-70618962D01*
X120690438Y-70618767D01*
X120690419Y-70606284D01*
X120690420Y-70606282D01*
X120690374Y-70576410D01*
X120690379Y-70542251D01*
X120690378Y-70542249D01*
X120690380Y-70528799D01*
X120690299Y-70528082D01*
X120690239Y-70489242D01*
X120689827Y-70221486D01*
X121187828Y-70221486D01*
X121188275Y-70512266D01*
X121188383Y-70514167D01*
X121188374Y-70576062D01*
X121188431Y-70613028D01*
X121383901Y-70417559D01*
X122088179Y-70417559D01*
X122443147Y-70772527D01*
X122798115Y-70417559D01*
X123502392Y-70417559D01*
X123857360Y-70772527D01*
X123942831Y-70687056D01*
X123942831Y-70148061D01*
X123857360Y-70062590D01*
X123502392Y-70417559D01*
X122798115Y-70417559D01*
X122443147Y-70062591D01*
X122088179Y-70417559D01*
X121383901Y-70417559D01*
X121187828Y-70221486D01*
X120689827Y-70221486D01*
X120689041Y-69710452D01*
X121381072Y-69710452D01*
X121736040Y-70065420D01*
X122091008Y-69710452D01*
X122795286Y-69710452D01*
X123150254Y-70065420D01*
X123505222Y-69710452D01*
X123150254Y-69355484D01*
X122795286Y-69710452D01*
X122091008Y-69710452D01*
X121736040Y-69355484D01*
X121381072Y-69710452D01*
X120689041Y-69710452D01*
X120687648Y-68805091D01*
X121185647Y-68805091D01*
X121186257Y-69200988D01*
X121383901Y-69003345D01*
X122088178Y-69003345D01*
X122443147Y-69358313D01*
X122798115Y-69003345D01*
X123502391Y-69003345D01*
X123857360Y-69358313D01*
X123942831Y-69272843D01*
X123942831Y-68733847D01*
X123857360Y-68648376D01*
X123502391Y-69003345D01*
X122798115Y-69003345D01*
X122443147Y-68648377D01*
X122088178Y-69003345D01*
X121383901Y-69003345D01*
X121185647Y-68805091D01*
X120687648Y-68805091D01*
X120686865Y-68296239D01*
X121381072Y-68296239D01*
X121736040Y-68651207D01*
X122091008Y-68296239D01*
X122795286Y-68296239D01*
X123150254Y-68651207D01*
X123505222Y-68296239D01*
X123150254Y-67941271D01*
X122795286Y-68296239D01*
X122091008Y-68296239D01*
X121736040Y-67941271D01*
X121381072Y-68296239D01*
X120686865Y-68296239D01*
X120686624Y-68139818D01*
X120686993Y-68138554D01*
X120686979Y-68136997D01*
X120686981Y-68136986D01*
X120686921Y-68130401D01*
X120686921Y-68130375D01*
X120686548Y-68088478D01*
X120686543Y-68087563D01*
X120686501Y-68059869D01*
X120686500Y-68059867D01*
X120686485Y-68049817D01*
X120686196Y-68047035D01*
X120686177Y-68044790D01*
X120685932Y-68015796D01*
X120683319Y-68004749D01*
X120652391Y-67873969D01*
X120638545Y-67845692D01*
X120588300Y-67743079D01*
X120588298Y-67743077D01*
X120588297Y-67743074D01*
X120496838Y-67629613D01*
X120419168Y-67568174D01*
X120382536Y-67539196D01*
X120382534Y-67539195D01*
X120382533Y-67539194D01*
X120382532Y-67539193D01*
X120251064Y-67476309D01*
X120251056Y-67476307D01*
X120108934Y-67444072D01*
X120108932Y-67444071D01*
X120036064Y-67444123D01*
X118579143Y-67444123D01*
X118577361Y-67443599D01*
X118525874Y-67444117D01*
X118524628Y-67444123D01*
X118491547Y-67444123D01*
X118487911Y-67444498D01*
X118456262Y-67444817D01*
X118399985Y-67458213D01*
X118323971Y-67476307D01*
X118314619Y-67478533D01*
X118183939Y-67542717D01*
X118183933Y-67542720D01*
X118070672Y-67634199D01*
X117980423Y-67748457D01*
X117917661Y-67879829D01*
X117917661Y-67879831D01*
X117885488Y-68021821D01*
X117885488Y-68021823D01*
X117885512Y-68053311D01*
X117885483Y-68053632D01*
X117387482Y-68053632D01*
X117387472Y-68047197D01*
X117138431Y-68296239D01*
X116434154Y-68296239D01*
X116079186Y-67941271D01*
X115724218Y-68296239D01*
X115019940Y-68296239D01*
X114664972Y-67941271D01*
X114310004Y-68296239D01*
X112689797Y-68296239D01*
X112813817Y-68172219D01*
X112875140Y-68138734D01*
X112901498Y-68135900D01*
X112931044Y-68135900D01*
X112931045Y-68135899D01*
X113085697Y-68105137D01*
X113231379Y-68044794D01*
X113362489Y-67957189D01*
X113456987Y-67862691D01*
X114039274Y-67862691D01*
X114312834Y-67589132D01*
X115017111Y-67589132D01*
X115372079Y-67944100D01*
X115727047Y-67589132D01*
X116431325Y-67589132D01*
X116786293Y-67944100D01*
X117141261Y-67589132D01*
X116903237Y-67351108D01*
X120911987Y-67351108D01*
X120984743Y-67441366D01*
X120988937Y-67446876D01*
X120997075Y-67458213D01*
X121000949Y-67463940D01*
X121015873Y-67487387D01*
X121019416Y-67493312D01*
X121026235Y-67505470D01*
X121029450Y-67511597D01*
X121105763Y-67667447D01*
X121108630Y-67673741D01*
X121114057Y-67686593D01*
X121116569Y-67693038D01*
X121125937Y-67719207D01*
X121128086Y-67725781D01*
X121132047Y-67739153D01*
X121133824Y-67745833D01*
X121151683Y-67821349D01*
X121383899Y-67589132D01*
X122088179Y-67589132D01*
X122443147Y-67944100D01*
X122798115Y-67589132D01*
X123502392Y-67589132D01*
X123857360Y-67944100D01*
X123942831Y-67858629D01*
X123942831Y-67319634D01*
X123857360Y-67234163D01*
X123502392Y-67589132D01*
X122798115Y-67589132D01*
X122443147Y-67234164D01*
X122088179Y-67589132D01*
X121383899Y-67589132D01*
X121383900Y-67589131D01*
X121028932Y-67234163D01*
X120911987Y-67351108D01*
X116903237Y-67351108D01*
X116786293Y-67234164D01*
X116431325Y-67589132D01*
X115727047Y-67589132D01*
X115372079Y-67234164D01*
X115017111Y-67589132D01*
X114312834Y-67589132D01*
X114150687Y-67426985D01*
X114150551Y-67432553D01*
X114149949Y-67444810D01*
X114149501Y-67450879D01*
X114147104Y-67475220D01*
X114146359Y-67481259D01*
X114144558Y-67493403D01*
X114143517Y-67499403D01*
X114107982Y-67678048D01*
X114106646Y-67683998D01*
X114103662Y-67695906D01*
X114102041Y-67701761D01*
X114094941Y-67725166D01*
X114093032Y-67730947D01*
X114088898Y-67742500D01*
X114086708Y-67748175D01*
X114039274Y-67862691D01*
X113456987Y-67862691D01*
X113473989Y-67845689D01*
X113561594Y-67714579D01*
X113621937Y-67568897D01*
X113652700Y-67414242D01*
X113652700Y-67256558D01*
X113652700Y-67256555D01*
X113652699Y-67256553D01*
X113648808Y-67236993D01*
X113621937Y-67101903D01*
X113580292Y-67001362D01*
X113561597Y-66956227D01*
X113561590Y-66956214D01*
X113512018Y-66882025D01*
X114310004Y-66882025D01*
X114664972Y-67236993D01*
X115019940Y-66882025D01*
X115724218Y-66882025D01*
X116079186Y-67236993D01*
X116434154Y-66882025D01*
X117138431Y-66882025D01*
X117493399Y-67236993D01*
X117848367Y-66882025D01*
X118552645Y-66882025D01*
X118615807Y-66945187D01*
X118624025Y-66945105D01*
X118629486Y-66946123D01*
X119198483Y-66946123D01*
X119262581Y-66882025D01*
X119966858Y-66882025D01*
X120030956Y-66946123D01*
X120035715Y-66946123D01*
X120122522Y-66946062D01*
X120129460Y-66946251D01*
X120143430Y-66947024D01*
X120150338Y-66947601D01*
X120178040Y-66950694D01*
X120184907Y-66951655D01*
X120198696Y-66953981D01*
X120205498Y-66955326D01*
X120374770Y-66993719D01*
X120381464Y-66995434D01*
X120394873Y-66999272D01*
X120401472Y-67001362D01*
X120427726Y-67010490D01*
X120434189Y-67012941D01*
X120447089Y-67018249D01*
X120453411Y-67021059D01*
X120510468Y-67048350D01*
X120676793Y-66882025D01*
X121381072Y-66882025D01*
X121736040Y-67236993D01*
X122091008Y-66882025D01*
X122795286Y-66882025D01*
X123150254Y-67236993D01*
X123505222Y-66882025D01*
X123150254Y-66527057D01*
X122795286Y-66882025D01*
X122091008Y-66882025D01*
X121736040Y-66527057D01*
X121381072Y-66882025D01*
X120676793Y-66882025D01*
X120676794Y-66882024D01*
X120321826Y-66527056D01*
X119966858Y-66882025D01*
X119262581Y-66882025D01*
X118907613Y-66527057D01*
X118552645Y-66882025D01*
X117848367Y-66882025D01*
X117493399Y-66527056D01*
X117138431Y-66882025D01*
X116434154Y-66882025D01*
X116079186Y-66527057D01*
X115724218Y-66882025D01*
X115019940Y-66882025D01*
X114664972Y-66527057D01*
X114310004Y-66882025D01*
X113512018Y-66882025D01*
X113473989Y-66825111D01*
X113473986Y-66825107D01*
X113362492Y-66713613D01*
X113362488Y-66713610D01*
X113231385Y-66626009D01*
X113231372Y-66626002D01*
X113085701Y-66565664D01*
X113085689Y-66565661D01*
X112931045Y-66534900D01*
X112931042Y-66534900D01*
X112773358Y-66534900D01*
X112773355Y-66534900D01*
X112618710Y-66565661D01*
X112618698Y-66565664D01*
X112473027Y-66626002D01*
X112473014Y-66626009D01*
X112341911Y-66713610D01*
X112341907Y-66713613D01*
X112230413Y-66825107D01*
X112230410Y-66825111D01*
X112142809Y-66956214D01*
X112142802Y-66956227D01*
X112082464Y-67101898D01*
X112082461Y-67101908D01*
X112064176Y-67193833D01*
X112031791Y-67255744D01*
X112030240Y-67257322D01*
X109820384Y-69467181D01*
X109759061Y-69500666D01*
X109732703Y-69503500D01*
X101602857Y-69503500D01*
X101444742Y-69503500D01*
X101292015Y-69544423D01*
X101292014Y-69544423D01*
X101292012Y-69544424D01*
X101292009Y-69544425D01*
X101241896Y-69573359D01*
X101241895Y-69573360D01*
X101211040Y-69591174D01*
X101155085Y-69623479D01*
X101155082Y-69623481D01*
X101043278Y-69735286D01*
X99532635Y-71245928D01*
X99471312Y-71279413D01*
X99401620Y-71274429D01*
X99357273Y-71245928D01*
X99287902Y-71176557D01*
X99287898Y-71176554D01*
X99144511Y-71080745D01*
X99144498Y-71080738D01*
X98985178Y-71014746D01*
X98985166Y-71014743D01*
X98816032Y-70981100D01*
X98816029Y-70981100D01*
X98643571Y-70981100D01*
X98643568Y-70981100D01*
X98474433Y-71014743D01*
X98474421Y-71014746D01*
X98315101Y-71080738D01*
X98315088Y-71080745D01*
X98171701Y-71176554D01*
X98171697Y-71176557D01*
X98049757Y-71298497D01*
X98049754Y-71298501D01*
X97953945Y-71441888D01*
X97953938Y-71441901D01*
X97887946Y-71601221D01*
X97887943Y-71601233D01*
X97854300Y-71770366D01*
X97854300Y-71856903D01*
X97834615Y-71923942D01*
X97817981Y-71944584D01*
X95418584Y-74343981D01*
X95357261Y-74377466D01*
X95330903Y-74380300D01*
X87093739Y-74380300D01*
X87073566Y-74385705D01*
X87073567Y-74385706D01*
X86941014Y-74421223D01*
X86941009Y-74421226D01*
X86804090Y-74500275D01*
X86804082Y-74500281D01*
X86712886Y-74591478D01*
X86692280Y-74612084D01*
X86692278Y-74612086D01*
X85274290Y-76030075D01*
X83870984Y-77433381D01*
X83809661Y-77466866D01*
X83783303Y-77469700D01*
X82171910Y-77469700D01*
X82104871Y-77450015D01*
X82059116Y-77397211D01*
X82049172Y-77328053D01*
X82064523Y-77283699D01*
X82133686Y-77163912D01*
X82202543Y-76974748D01*
X82236621Y-76781520D01*
X83197306Y-76781520D01*
X83387486Y-76971700D01*
X83628387Y-76971700D01*
X83862904Y-76737182D01*
X83552274Y-76426552D01*
X83197306Y-76781520D01*
X82236621Y-76781520D01*
X82237506Y-76776501D01*
X82237507Y-76730444D01*
X82237510Y-76730433D01*
X82237510Y-76666556D01*
X82237511Y-76641497D01*
X82237510Y-76641494D01*
X82237510Y-75829102D01*
X82735510Y-75829102D01*
X82735510Y-76319724D01*
X82845167Y-76429381D01*
X83200135Y-76074413D01*
X83904413Y-76074413D01*
X84215043Y-76385043D01*
X84570011Y-76030075D01*
X84259381Y-75719445D01*
X83904413Y-76074413D01*
X83200135Y-76074413D01*
X82845167Y-75719445D01*
X82735510Y-75829102D01*
X82237510Y-75829102D01*
X82237510Y-75367306D01*
X83197305Y-75367306D01*
X83552274Y-75722274D01*
X83907242Y-75367306D01*
X84611519Y-75367306D01*
X84922149Y-75677936D01*
X85277117Y-75322967D01*
X84966487Y-75012337D01*
X84611519Y-75367306D01*
X83907242Y-75367306D01*
X83552274Y-75012338D01*
X83197305Y-75367306D01*
X82237510Y-75367306D01*
X82237510Y-74414889D01*
X82735510Y-74414889D01*
X82735510Y-74905511D01*
X82845167Y-75015168D01*
X83200135Y-74660200D01*
X83904413Y-74660200D01*
X84259381Y-75015168D01*
X84614349Y-74660200D01*
X85318626Y-74660200D01*
X85629256Y-74970830D01*
X85984224Y-74615862D01*
X85673594Y-74305232D01*
X85318626Y-74660200D01*
X84614349Y-74660200D01*
X84259381Y-74305232D01*
X83904413Y-74660200D01*
X83200135Y-74660200D01*
X82845167Y-74305232D01*
X82735510Y-74414889D01*
X82237510Y-74414889D01*
X82237510Y-73953093D01*
X83197306Y-73953093D01*
X83552274Y-74308061D01*
X83907242Y-73953093D01*
X84611519Y-73953093D01*
X84966487Y-74308061D01*
X85321456Y-73953093D01*
X86025733Y-73953093D01*
X86336363Y-74263723D01*
X86463478Y-74136608D01*
X86469401Y-74131060D01*
X86481705Y-74120270D01*
X86487974Y-74115125D01*
X86513856Y-74095264D01*
X86520454Y-74090536D01*
X86534067Y-74081440D01*
X86540959Y-74077155D01*
X86706145Y-73981786D01*
X86707926Y-73980833D01*
X86735668Y-73953092D01*
X86664876Y-73882300D01*
X87510740Y-73882300D01*
X88079090Y-73882300D01*
X88924953Y-73882300D01*
X89493303Y-73882300D01*
X90339167Y-73882300D01*
X90907517Y-73882300D01*
X91753380Y-73882300D01*
X92321730Y-73882300D01*
X93167594Y-73882300D01*
X93735944Y-73882300D01*
X94581807Y-73882300D01*
X95150158Y-73882300D01*
X94865982Y-73598124D01*
X94581807Y-73882300D01*
X93735944Y-73882300D01*
X93451769Y-73598125D01*
X93167594Y-73882300D01*
X92321730Y-73882300D01*
X92037555Y-73598125D01*
X91753380Y-73882300D01*
X90907517Y-73882300D01*
X90623342Y-73598125D01*
X90339167Y-73882300D01*
X89493303Y-73882300D01*
X89209128Y-73598125D01*
X88924953Y-73882300D01*
X88079090Y-73882300D01*
X87794915Y-73598125D01*
X87510740Y-73882300D01*
X86664876Y-73882300D01*
X86380701Y-73598125D01*
X86025733Y-73953093D01*
X85321456Y-73953093D01*
X84966487Y-73598124D01*
X84611519Y-73953093D01*
X83907242Y-73953093D01*
X83552274Y-73598125D01*
X83197306Y-73953093D01*
X82237510Y-73953093D01*
X82237510Y-73000675D01*
X82735510Y-73000675D01*
X82735510Y-73491297D01*
X82845167Y-73600954D01*
X83200135Y-73245986D01*
X83904413Y-73245986D01*
X84259381Y-73600954D01*
X84614349Y-73245986D01*
X85318626Y-73245986D01*
X85673594Y-73600954D01*
X86028562Y-73245986D01*
X86732840Y-73245986D01*
X87087808Y-73600954D01*
X87442776Y-73245986D01*
X87442775Y-73245985D01*
X88147052Y-73245985D01*
X88502021Y-73600954D01*
X88720334Y-73382640D01*
X89697921Y-73382640D01*
X89916234Y-73600953D01*
X90134548Y-73382640D01*
X89697921Y-73382640D01*
X88720334Y-73382640D01*
X88723080Y-73379894D01*
X88705714Y-73377937D01*
X88698839Y-73376967D01*
X88685011Y-73374618D01*
X88678183Y-73373259D01*
X88508022Y-73334417D01*
X88501289Y-73332681D01*
X88487811Y-73328798D01*
X88481185Y-73326686D01*
X88454798Y-73317453D01*
X88448296Y-73314971D01*
X88435335Y-73309602D01*
X88428989Y-73306762D01*
X88302786Y-73245986D01*
X90975480Y-73245986D01*
X91330448Y-73600954D01*
X91685417Y-73245986D01*
X92389694Y-73245986D01*
X92744662Y-73600954D01*
X93099630Y-73245986D01*
X93803908Y-73245986D01*
X94158876Y-73600954D01*
X94513844Y-73245986D01*
X95218121Y-73245986D01*
X95515210Y-73543075D01*
X95870178Y-73188107D01*
X95573089Y-72891018D01*
X95218121Y-73245986D01*
X94513844Y-73245986D01*
X94158876Y-72891018D01*
X93803908Y-73245986D01*
X93099630Y-73245986D01*
X92744662Y-72891018D01*
X92389694Y-73245986D01*
X91685417Y-73245986D01*
X91330448Y-72891017D01*
X90975480Y-73245986D01*
X88302786Y-73245986D01*
X88271732Y-73231031D01*
X88265546Y-73227835D01*
X88253264Y-73221046D01*
X88247278Y-73217514D01*
X88223609Y-73202641D01*
X88217828Y-73198778D01*
X88206391Y-73190663D01*
X88204099Y-73188938D01*
X88147052Y-73245985D01*
X87442775Y-73245985D01*
X87087808Y-72891018D01*
X86732840Y-73245986D01*
X86028562Y-73245986D01*
X85673594Y-72891018D01*
X85318626Y-73245986D01*
X84614349Y-73245986D01*
X84259381Y-72891018D01*
X83904413Y-73245986D01*
X83200135Y-73245986D01*
X82845167Y-72891018D01*
X82735510Y-73000675D01*
X82237510Y-73000675D01*
X82237510Y-72538879D01*
X83197306Y-72538879D01*
X83552274Y-72893847D01*
X83907242Y-72538879D01*
X84611519Y-72538879D01*
X84966487Y-72893847D01*
X85321456Y-72538879D01*
X86025733Y-72538879D01*
X86380701Y-72893847D01*
X86735669Y-72538879D01*
X87439947Y-72538879D01*
X87794914Y-72893846D01*
X87860855Y-72827906D01*
X87854983Y-72817283D01*
X87851788Y-72811100D01*
X87776052Y-72653847D01*
X87773210Y-72647495D01*
X87767842Y-72634536D01*
X87765363Y-72628044D01*
X87756129Y-72601660D01*
X87754016Y-72595032D01*
X87750132Y-72581553D01*
X87748394Y-72574818D01*
X87709547Y-72404659D01*
X87708192Y-72397846D01*
X87705842Y-72384025D01*
X87704868Y-72377136D01*
X87701735Y-72349358D01*
X87701150Y-72342423D01*
X87700362Y-72328411D01*
X87700166Y-72321460D01*
X87700163Y-72288410D01*
X87700156Y-72288260D01*
X87700156Y-72278670D01*
X87439947Y-72538879D01*
X86735669Y-72538879D01*
X86380701Y-72183911D01*
X86025733Y-72538879D01*
X85321456Y-72538879D01*
X84966487Y-72183910D01*
X84611519Y-72538879D01*
X83907242Y-72538879D01*
X83552274Y-72183911D01*
X83197306Y-72538879D01*
X82237510Y-72538879D01*
X82237510Y-71586461D01*
X82735510Y-71586461D01*
X82735510Y-72077084D01*
X82845167Y-72186741D01*
X83200135Y-71831772D01*
X83904412Y-71831772D01*
X84259381Y-72186741D01*
X84614349Y-71831772D01*
X85318625Y-71831772D01*
X85673594Y-72186741D01*
X86028562Y-71831772D01*
X86732839Y-71831772D01*
X87087808Y-72186741D01*
X87442776Y-71831772D01*
X87087808Y-71476804D01*
X86732839Y-71831772D01*
X86028562Y-71831772D01*
X85673594Y-71476804D01*
X85318625Y-71831772D01*
X84614349Y-71831772D01*
X84259381Y-71476804D01*
X83904412Y-71831772D01*
X83200135Y-71831772D01*
X82845166Y-71476804D01*
X82735510Y-71586461D01*
X82237510Y-71586461D01*
X82237510Y-71124666D01*
X83197306Y-71124666D01*
X83552274Y-71479634D01*
X83907242Y-71124666D01*
X84611519Y-71124666D01*
X84966487Y-71479634D01*
X85321456Y-71124666D01*
X86025733Y-71124666D01*
X86380701Y-71479634D01*
X86735669Y-71124666D01*
X87439947Y-71124666D01*
X87700156Y-71384875D01*
X87700156Y-70864457D01*
X87439947Y-71124666D01*
X86735669Y-71124666D01*
X86380701Y-70769698D01*
X86025733Y-71124666D01*
X85321456Y-71124666D01*
X84966487Y-70769697D01*
X84611519Y-71124666D01*
X83907242Y-71124666D01*
X83552274Y-70769698D01*
X83197306Y-71124666D01*
X82237510Y-71124666D01*
X82237510Y-70172248D01*
X82735510Y-70172248D01*
X82735510Y-70662870D01*
X82845167Y-70772527D01*
X83200135Y-70417559D01*
X83904413Y-70417559D01*
X84259381Y-70772527D01*
X84614349Y-70417559D01*
X85318626Y-70417559D01*
X85673594Y-70772527D01*
X86028562Y-70417559D01*
X86732840Y-70417559D01*
X87087808Y-70772527D01*
X87198990Y-70661345D01*
X88198094Y-70661345D01*
X88198156Y-70734125D01*
X88198156Y-72276624D01*
X88198162Y-72276689D01*
X88198164Y-72307432D01*
X88198164Y-72307436D01*
X88230792Y-72450349D01*
X88230792Y-72450351D01*
X88294398Y-72582416D01*
X88385790Y-72697014D01*
X88385793Y-72697016D01*
X88385796Y-72697020D01*
X88500403Y-72788414D01*
X88632472Y-72852016D01*
X88775382Y-72884637D01*
X88800379Y-72884637D01*
X88800393Y-72884640D01*
X88848675Y-72884640D01*
X88883026Y-72884641D01*
X88883028Y-72884640D01*
X90309583Y-72884640D01*
X90316367Y-72885346D01*
X90344744Y-72884867D01*
X90357175Y-72884657D01*
X90359265Y-72884640D01*
X90394069Y-72884640D01*
X90400874Y-72883914D01*
X90431992Y-72883428D01*
X90572903Y-72849119D01*
X90702805Y-72784632D01*
X90815325Y-72693132D01*
X90904943Y-72579107D01*
X90924087Y-72538879D01*
X91682587Y-72538879D01*
X92037555Y-72893847D01*
X92392523Y-72538879D01*
X93096801Y-72538879D01*
X93451769Y-72893847D01*
X93806737Y-72538879D01*
X94511014Y-72538879D01*
X94865982Y-72893847D01*
X95220950Y-72538879D01*
X95925228Y-72538879D01*
X96222317Y-72835968D01*
X96577285Y-72481000D01*
X96280196Y-72183911D01*
X95925228Y-72538879D01*
X95220950Y-72538879D01*
X94865982Y-72183910D01*
X94511014Y-72538879D01*
X93806737Y-72538879D01*
X93451769Y-72183911D01*
X93096801Y-72538879D01*
X92392523Y-72538879D01*
X92037555Y-72183911D01*
X91682587Y-72538879D01*
X90924087Y-72538879D01*
X90967262Y-72448152D01*
X90999226Y-72306691D01*
X90999156Y-72234177D01*
X90999165Y-72199826D01*
X90999164Y-72199825D01*
X90999168Y-72186139D01*
X90999156Y-72186022D01*
X90999156Y-72020033D01*
X91497156Y-72020033D01*
X91685416Y-71831772D01*
X92389693Y-71831772D01*
X92744662Y-72186741D01*
X93099630Y-71831772D01*
X93803907Y-71831772D01*
X94158876Y-72186741D01*
X94513844Y-71831772D01*
X95218120Y-71831772D01*
X95573089Y-72186741D01*
X95928057Y-71831772D01*
X96632334Y-71831772D01*
X96929423Y-72128861D01*
X97284392Y-71773893D01*
X96987303Y-71476804D01*
X96632334Y-71831772D01*
X95928057Y-71831772D01*
X95573089Y-71476804D01*
X95218120Y-71831772D01*
X94513844Y-71831772D01*
X94158876Y-71476804D01*
X93803907Y-71831772D01*
X93099630Y-71831772D01*
X92744662Y-71476804D01*
X92389693Y-71831772D01*
X91685416Y-71831772D01*
X91497156Y-71643511D01*
X91497156Y-72020033D01*
X90999156Y-72020033D01*
X90999156Y-71124666D01*
X91682587Y-71124666D01*
X92037555Y-71479634D01*
X92392523Y-71124666D01*
X93096801Y-71124666D01*
X93451769Y-71479634D01*
X93806737Y-71124666D01*
X94511014Y-71124666D01*
X94865982Y-71479634D01*
X95220950Y-71124666D01*
X95925228Y-71124666D01*
X96280196Y-71479634D01*
X96635164Y-71124666D01*
X96635163Y-71124665D01*
X97339441Y-71124665D01*
X97485720Y-71270944D01*
X97498529Y-71240022D01*
X97500995Y-71234459D01*
X97506242Y-71223365D01*
X97508978Y-71217929D01*
X97520507Y-71196359D01*
X97523503Y-71191070D01*
X97529814Y-71180539D01*
X97533075Y-71175389D01*
X97642477Y-71011659D01*
X97645980Y-71006685D01*
X97653291Y-70996827D01*
X97657037Y-70992026D01*
X97672553Y-70973120D01*
X97676522Y-70968519D01*
X97684765Y-70959423D01*
X97688968Y-70955009D01*
X97784344Y-70859632D01*
X97694409Y-70769697D01*
X97339441Y-71124665D01*
X96635163Y-71124665D01*
X96280196Y-70769698D01*
X95925228Y-71124666D01*
X95220950Y-71124666D01*
X94865982Y-70769697D01*
X94511014Y-71124666D01*
X93806737Y-71124666D01*
X93451769Y-70769698D01*
X93096801Y-71124666D01*
X92392523Y-71124666D01*
X92037555Y-70769698D01*
X91682587Y-71124666D01*
X90999156Y-71124666D01*
X90999156Y-70777343D01*
X90999562Y-70773586D01*
X90999161Y-70729396D01*
X90999156Y-70728270D01*
X90999156Y-70690179D01*
X90998781Y-70686534D01*
X90998518Y-70655320D01*
X90997052Y-70649122D01*
X90981654Y-70584002D01*
X90964981Y-70513494D01*
X90900895Y-70382603D01*
X90809437Y-70269137D01*
X90809435Y-70269135D01*
X90695141Y-70178719D01*
X90695140Y-70178718D01*
X90623455Y-70144428D01*
X90563673Y-70115831D01*
X90563671Y-70115830D01*
X90563670Y-70115830D01*
X90509218Y-70103478D01*
X90447039Y-70089373D01*
X91303666Y-70089373D01*
X91309676Y-70097746D01*
X91313553Y-70103478D01*
X91328477Y-70126927D01*
X91332022Y-70132855D01*
X91338840Y-70145013D01*
X91342053Y-70151137D01*
X91418359Y-70306987D01*
X91421224Y-70313276D01*
X91426649Y-70326123D01*
X91429161Y-70332569D01*
X91438529Y-70358738D01*
X91440677Y-70365311D01*
X91444639Y-70378686D01*
X91446418Y-70385371D01*
X91486360Y-70554286D01*
X91487767Y-70561076D01*
X91490220Y-70574848D01*
X91491245Y-70581709D01*
X91494483Y-70608492D01*
X91685417Y-70417559D01*
X92389694Y-70417559D01*
X92744662Y-70772527D01*
X93099630Y-70417559D01*
X93803908Y-70417559D01*
X94158876Y-70772527D01*
X94513844Y-70417559D01*
X95218121Y-70417559D01*
X95573089Y-70772527D01*
X95928057Y-70417559D01*
X96632335Y-70417559D01*
X96987303Y-70772527D01*
X97342271Y-70417559D01*
X98046548Y-70417559D01*
X98212991Y-70584002D01*
X98295147Y-70549974D01*
X98300825Y-70547783D01*
X98312379Y-70543649D01*
X98318152Y-70541742D01*
X98341557Y-70534641D01*
X98347429Y-70533016D01*
X98359338Y-70530033D01*
X98365276Y-70528700D01*
X98558411Y-70490283D01*
X98564410Y-70489242D01*
X98576553Y-70487441D01*
X98582593Y-70486696D01*
X98606934Y-70484299D01*
X98613003Y-70483851D01*
X98625260Y-70483249D01*
X98631343Y-70483100D01*
X98690943Y-70483100D01*
X98756484Y-70417559D01*
X99460762Y-70417559D01*
X99558744Y-70515541D01*
X99913712Y-70160573D01*
X99815730Y-70062591D01*
X99460762Y-70417559D01*
X98756484Y-70417559D01*
X98401516Y-70062591D01*
X98046548Y-70417559D01*
X97342271Y-70417559D01*
X96987303Y-70062591D01*
X96632335Y-70417559D01*
X95928057Y-70417559D01*
X95573089Y-70062591D01*
X95218121Y-70417559D01*
X94513844Y-70417559D01*
X94158876Y-70062591D01*
X93803908Y-70417559D01*
X93099630Y-70417559D01*
X92744662Y-70062591D01*
X92389694Y-70417559D01*
X91685417Y-70417559D01*
X91330449Y-70062591D01*
X91303666Y-70089373D01*
X90447039Y-70089373D01*
X90421542Y-70083589D01*
X90348675Y-70083640D01*
X88892714Y-70083640D01*
X88890875Y-70083100D01*
X88837685Y-70083634D01*
X88836441Y-70083640D01*
X88804081Y-70083640D01*
X88800533Y-70084006D01*
X88768873Y-70084325D01*
X88768868Y-70084325D01*
X88627232Y-70118037D01*
X88496543Y-70182225D01*
X88496538Y-70182228D01*
X88383278Y-70273707D01*
X88383273Y-70273711D01*
X88293029Y-70387963D01*
X88293026Y-70387969D01*
X88230266Y-70519343D01*
X88230266Y-70519345D01*
X88198094Y-70661345D01*
X87198990Y-70661345D01*
X87442776Y-70417559D01*
X87087808Y-70062591D01*
X86732840Y-70417559D01*
X86028562Y-70417559D01*
X85673594Y-70062591D01*
X85318626Y-70417559D01*
X84614349Y-70417559D01*
X84259381Y-70062591D01*
X83904413Y-70417559D01*
X83200135Y-70417559D01*
X82845167Y-70062591D01*
X82735510Y-70172248D01*
X82237510Y-70172248D01*
X82237510Y-69710452D01*
X83197306Y-69710452D01*
X83552274Y-70065420D01*
X83907242Y-69710452D01*
X84611519Y-69710452D01*
X84966487Y-70065420D01*
X85321456Y-69710452D01*
X86025733Y-69710452D01*
X86380701Y-70065420D01*
X86735669Y-69710452D01*
X87439947Y-69710452D01*
X87794915Y-70065420D01*
X88149883Y-69710452D01*
X88025071Y-69585640D01*
X88978972Y-69585640D01*
X89439284Y-69585640D01*
X89439252Y-69585608D01*
X90393217Y-69585608D01*
X90435138Y-69585580D01*
X90442076Y-69585769D01*
X90456043Y-69586542D01*
X90462949Y-69587119D01*
X90490653Y-69590212D01*
X90497522Y-69591174D01*
X90511316Y-69593501D01*
X90518120Y-69594845D01*
X90687389Y-69633242D01*
X90694092Y-69634961D01*
X90707496Y-69638799D01*
X90714079Y-69640884D01*
X90740333Y-69650011D01*
X90746806Y-69652466D01*
X90759709Y-69657776D01*
X90766027Y-69660584D01*
X90922570Y-69735466D01*
X90928721Y-69738622D01*
X90940942Y-69745329D01*
X90942512Y-69746248D01*
X90978308Y-69710452D01*
X91682587Y-69710452D01*
X92037555Y-70065420D01*
X92392523Y-69710452D01*
X93096801Y-69710452D01*
X93451769Y-70065420D01*
X93806737Y-69710452D01*
X94511014Y-69710452D01*
X94865982Y-70065420D01*
X95220950Y-69710452D01*
X95925228Y-69710452D01*
X96280196Y-70065420D01*
X96635164Y-69710452D01*
X97339441Y-69710452D01*
X97694409Y-70065420D01*
X98049378Y-69710452D01*
X98753655Y-69710452D01*
X99108623Y-70065420D01*
X99463591Y-69710452D01*
X100167869Y-69710452D01*
X100265851Y-69808434D01*
X100620819Y-69453466D01*
X100522837Y-69355484D01*
X100167869Y-69710452D01*
X99463591Y-69710452D01*
X99108623Y-69355484D01*
X98753655Y-69710452D01*
X98049378Y-69710452D01*
X97694409Y-69355483D01*
X97339441Y-69710452D01*
X96635164Y-69710452D01*
X96280196Y-69355484D01*
X95925228Y-69710452D01*
X95220950Y-69710452D01*
X94865982Y-69355483D01*
X94511014Y-69710452D01*
X93806737Y-69710452D01*
X93451769Y-69355484D01*
X93096801Y-69710452D01*
X92392523Y-69710452D01*
X92037555Y-69355484D01*
X91682587Y-69710452D01*
X90978308Y-69710452D01*
X90978309Y-69710451D01*
X90623342Y-69355484D01*
X90393217Y-69585608D01*
X89439252Y-69585608D01*
X89209128Y-69355484D01*
X88978972Y-69585640D01*
X88025071Y-69585640D01*
X87794915Y-69355484D01*
X87439947Y-69710452D01*
X86735669Y-69710452D01*
X86380701Y-69355484D01*
X86025733Y-69710452D01*
X85321456Y-69710452D01*
X84966487Y-69355483D01*
X84611519Y-69710452D01*
X83907242Y-69710452D01*
X83552274Y-69355484D01*
X83197306Y-69710452D01*
X82237510Y-69710452D01*
X82237510Y-68758034D01*
X82735510Y-68758034D01*
X82735510Y-69248656D01*
X82845167Y-69358313D01*
X83200135Y-69003345D01*
X83904412Y-69003345D01*
X84259381Y-69358313D01*
X84614349Y-69003345D01*
X85318625Y-69003345D01*
X85673594Y-69358313D01*
X86028562Y-69003345D01*
X86732839Y-69003345D01*
X87087808Y-69358313D01*
X87442776Y-69003345D01*
X88147052Y-69003345D01*
X88502021Y-69358313D01*
X88856989Y-69003345D01*
X89561266Y-69003345D01*
X89916235Y-69358313D01*
X90271203Y-69003345D01*
X90975480Y-69003345D01*
X91330448Y-69358313D01*
X91685417Y-69003345D01*
X92389693Y-69003345D01*
X92744662Y-69358313D01*
X93099630Y-69003345D01*
X93803907Y-69003345D01*
X94158876Y-69358313D01*
X94513844Y-69003345D01*
X95218120Y-69003345D01*
X95573089Y-69358313D01*
X95928057Y-69003345D01*
X96632334Y-69003345D01*
X96987303Y-69358313D01*
X97342271Y-69003345D01*
X98046547Y-69003345D01*
X98401516Y-69358313D01*
X98756484Y-69003345D01*
X99460761Y-69003345D01*
X99815730Y-69358313D01*
X100170698Y-69003345D01*
X100874974Y-69003345D01*
X101006090Y-69134461D01*
X101057140Y-69104987D01*
X101064299Y-69101160D01*
X101078985Y-69093918D01*
X101086380Y-69090568D01*
X101116521Y-69078085D01*
X101124108Y-69075229D01*
X101139603Y-69069969D01*
X101147370Y-69067613D01*
X101331606Y-69018248D01*
X101339506Y-69016406D01*
X101355557Y-69013213D01*
X101363562Y-69011891D01*
X101395906Y-69007632D01*
X101403982Y-69006837D01*
X101420318Y-69005766D01*
X101428430Y-69005500D01*
X101582757Y-69005500D01*
X101584911Y-69003345D01*
X102289189Y-69003345D01*
X102291344Y-69005500D01*
X102996970Y-69005500D01*
X102999125Y-69003345D01*
X103703403Y-69003345D01*
X103705558Y-69005500D01*
X104411184Y-69005500D01*
X104413339Y-69003345D01*
X105117616Y-69003345D01*
X105119771Y-69005500D01*
X105825397Y-69005500D01*
X105827552Y-69003345D01*
X106531830Y-69003345D01*
X106533985Y-69005500D01*
X107239611Y-69005500D01*
X107241766Y-69003345D01*
X107946043Y-69003345D01*
X107948198Y-69005500D01*
X108653824Y-69005500D01*
X108655979Y-69003345D01*
X109360257Y-69003345D01*
X109362412Y-69005500D01*
X109577787Y-69005500D01*
X109825067Y-68758219D01*
X109715225Y-68648377D01*
X109360257Y-69003345D01*
X108655979Y-69003345D01*
X108301011Y-68648377D01*
X107946043Y-69003345D01*
X107241766Y-69003345D01*
X106886798Y-68648377D01*
X106531830Y-69003345D01*
X105827552Y-69003345D01*
X105472584Y-68648377D01*
X105117616Y-69003345D01*
X104413339Y-69003345D01*
X104058371Y-68648377D01*
X103703403Y-69003345D01*
X102999125Y-69003345D01*
X102644157Y-68648377D01*
X102289189Y-69003345D01*
X101584911Y-69003345D01*
X101229943Y-68648376D01*
X100874974Y-69003345D01*
X100170698Y-69003345D01*
X99815730Y-68648377D01*
X99460761Y-69003345D01*
X98756484Y-69003345D01*
X98401516Y-68648377D01*
X98046547Y-69003345D01*
X97342271Y-69003345D01*
X96987303Y-68648377D01*
X96632334Y-69003345D01*
X95928057Y-69003345D01*
X95573089Y-68648377D01*
X95218120Y-69003345D01*
X94513844Y-69003345D01*
X94158876Y-68648377D01*
X93803907Y-69003345D01*
X93099630Y-69003345D01*
X92744662Y-68648377D01*
X92389693Y-69003345D01*
X91685417Y-69003345D01*
X91330448Y-68648376D01*
X90975480Y-69003345D01*
X90271203Y-69003345D01*
X89916235Y-68648377D01*
X89561266Y-69003345D01*
X88856989Y-69003345D01*
X88502021Y-68648376D01*
X88147052Y-69003345D01*
X87442776Y-69003345D01*
X87087808Y-68648377D01*
X86732839Y-69003345D01*
X86028562Y-69003345D01*
X85673594Y-68648377D01*
X85318625Y-69003345D01*
X84614349Y-69003345D01*
X84259381Y-68648377D01*
X83904412Y-69003345D01*
X83200135Y-69003345D01*
X82845167Y-68648377D01*
X82735510Y-68758034D01*
X82237510Y-68758034D01*
X82237510Y-68296239D01*
X83197306Y-68296239D01*
X83552274Y-68651207D01*
X83907242Y-68296239D01*
X84611519Y-68296239D01*
X84966487Y-68651207D01*
X85321456Y-68296239D01*
X86025733Y-68296239D01*
X86380701Y-68651207D01*
X86735669Y-68296239D01*
X87439947Y-68296239D01*
X87794915Y-68651207D01*
X88149883Y-68296239D01*
X88854160Y-68296239D01*
X89209128Y-68651207D01*
X89564096Y-68296239D01*
X90268374Y-68296239D01*
X90623342Y-68651207D01*
X90978310Y-68296239D01*
X91682587Y-68296239D01*
X92037555Y-68651207D01*
X92392523Y-68296239D01*
X93096801Y-68296239D01*
X93451769Y-68651207D01*
X93806737Y-68296239D01*
X94511014Y-68296239D01*
X94865982Y-68651207D01*
X95220950Y-68296239D01*
X95925228Y-68296239D01*
X96280196Y-68651207D01*
X96635164Y-68296239D01*
X97339441Y-68296239D01*
X97694409Y-68651207D01*
X98049378Y-68296239D01*
X98753655Y-68296239D01*
X99108623Y-68651207D01*
X99463591Y-68296239D01*
X100167869Y-68296239D01*
X100522837Y-68651207D01*
X100877805Y-68296239D01*
X101582082Y-68296239D01*
X101937050Y-68651207D01*
X102292018Y-68296239D01*
X102996296Y-68296239D01*
X103351264Y-68651207D01*
X103706232Y-68296239D01*
X104410509Y-68296239D01*
X104765477Y-68651207D01*
X105120445Y-68296239D01*
X105824723Y-68296239D01*
X106179691Y-68651207D01*
X106534659Y-68296239D01*
X107238936Y-68296239D01*
X107593904Y-68651207D01*
X107948873Y-68296239D01*
X108653150Y-68296239D01*
X109008118Y-68651207D01*
X109363086Y-68296239D01*
X110067364Y-68296239D01*
X110177204Y-68406079D01*
X110532172Y-68051111D01*
X110422332Y-67941271D01*
X110067364Y-68296239D01*
X109363086Y-68296239D01*
X109008118Y-67941271D01*
X108653150Y-68296239D01*
X107948873Y-68296239D01*
X107593904Y-67941270D01*
X107238936Y-68296239D01*
X106534659Y-68296239D01*
X106179691Y-67941271D01*
X105824723Y-68296239D01*
X105120445Y-68296239D01*
X104765477Y-67941271D01*
X104410509Y-68296239D01*
X103706232Y-68296239D01*
X103351264Y-67941271D01*
X102996296Y-68296239D01*
X102292018Y-68296239D01*
X101937050Y-67941271D01*
X101582082Y-68296239D01*
X100877805Y-68296239D01*
X100522837Y-67941271D01*
X100167869Y-68296239D01*
X99463591Y-68296239D01*
X99108623Y-67941271D01*
X98753655Y-68296239D01*
X98049378Y-68296239D01*
X97694409Y-67941270D01*
X97339441Y-68296239D01*
X96635164Y-68296239D01*
X96280196Y-67941271D01*
X95925228Y-68296239D01*
X95220950Y-68296239D01*
X94865982Y-67941270D01*
X94511014Y-68296239D01*
X93806737Y-68296239D01*
X93451769Y-67941271D01*
X93096801Y-68296239D01*
X92392523Y-68296239D01*
X92037555Y-67941271D01*
X91682587Y-68296239D01*
X90978310Y-68296239D01*
X90623342Y-67941271D01*
X90268374Y-68296239D01*
X89564096Y-68296239D01*
X89209128Y-67941271D01*
X88854160Y-68296239D01*
X88149883Y-68296239D01*
X87794915Y-67941271D01*
X87439947Y-68296239D01*
X86735669Y-68296239D01*
X86380701Y-67941271D01*
X86025733Y-68296239D01*
X85321456Y-68296239D01*
X84966487Y-67941270D01*
X84611519Y-68296239D01*
X83907242Y-68296239D01*
X83552274Y-67941271D01*
X83197306Y-68296239D01*
X82237510Y-68296239D01*
X82237510Y-67343821D01*
X82735510Y-67343821D01*
X82735510Y-67834443D01*
X82845167Y-67944100D01*
X83200135Y-67589132D01*
X83904413Y-67589132D01*
X84259381Y-67944100D01*
X84614349Y-67589132D01*
X85318626Y-67589132D01*
X85673594Y-67944100D01*
X86028562Y-67589132D01*
X86732840Y-67589132D01*
X87087808Y-67944100D01*
X87442776Y-67589132D01*
X88147053Y-67589132D01*
X88502021Y-67944100D01*
X88856989Y-67589132D01*
X89561267Y-67589132D01*
X89916235Y-67944100D01*
X90271203Y-67589132D01*
X90975480Y-67589132D01*
X91330448Y-67944100D01*
X91685417Y-67589132D01*
X92389694Y-67589132D01*
X92744662Y-67944100D01*
X93099630Y-67589132D01*
X93803908Y-67589132D01*
X94158876Y-67944100D01*
X94513844Y-67589132D01*
X95218121Y-67589132D01*
X95573089Y-67944100D01*
X95928057Y-67589132D01*
X96632335Y-67589132D01*
X96987303Y-67944100D01*
X97342271Y-67589132D01*
X98046548Y-67589132D01*
X98401516Y-67944100D01*
X98756484Y-67589132D01*
X99460762Y-67589132D01*
X99815730Y-67944100D01*
X100170698Y-67589132D01*
X100874975Y-67589132D01*
X101229943Y-67944100D01*
X101584911Y-67589132D01*
X102289189Y-67589132D01*
X102644157Y-67944100D01*
X102999125Y-67589132D01*
X103703403Y-67589132D01*
X104058371Y-67944100D01*
X104413339Y-67589132D01*
X105117616Y-67589132D01*
X105472584Y-67944100D01*
X105827552Y-67589132D01*
X106531830Y-67589132D01*
X106886798Y-67944100D01*
X107241766Y-67589132D01*
X107946043Y-67589132D01*
X108301011Y-67944100D01*
X108655979Y-67589132D01*
X109360257Y-67589132D01*
X109715225Y-67944100D01*
X110070193Y-67589132D01*
X110774470Y-67589132D01*
X110884310Y-67698972D01*
X111239278Y-67344004D01*
X111129438Y-67234163D01*
X110774470Y-67589132D01*
X110070193Y-67589132D01*
X109715225Y-67234164D01*
X109360257Y-67589132D01*
X108655979Y-67589132D01*
X108301011Y-67234164D01*
X107946043Y-67589132D01*
X107241766Y-67589132D01*
X106886798Y-67234164D01*
X106531830Y-67589132D01*
X105827552Y-67589132D01*
X105472584Y-67234164D01*
X105117616Y-67589132D01*
X104413339Y-67589132D01*
X104058371Y-67234164D01*
X103703403Y-67589132D01*
X102999125Y-67589132D01*
X102644157Y-67234164D01*
X102289189Y-67589132D01*
X101584911Y-67589132D01*
X101229943Y-67234163D01*
X100874975Y-67589132D01*
X100170698Y-67589132D01*
X99815730Y-67234164D01*
X99460762Y-67589132D01*
X98756484Y-67589132D01*
X98401516Y-67234164D01*
X98046548Y-67589132D01*
X97342271Y-67589132D01*
X96987303Y-67234164D01*
X96632335Y-67589132D01*
X95928057Y-67589132D01*
X95573089Y-67234164D01*
X95218121Y-67589132D01*
X94513844Y-67589132D01*
X94158876Y-67234164D01*
X93803908Y-67589132D01*
X93099630Y-67589132D01*
X92744662Y-67234164D01*
X92389694Y-67589132D01*
X91685417Y-67589132D01*
X91330448Y-67234163D01*
X90975480Y-67589132D01*
X90271203Y-67589132D01*
X89916235Y-67234164D01*
X89561267Y-67589132D01*
X88856989Y-67589132D01*
X88502021Y-67234163D01*
X88147053Y-67589132D01*
X87442776Y-67589132D01*
X87087808Y-67234164D01*
X86732840Y-67589132D01*
X86028562Y-67589132D01*
X85673594Y-67234164D01*
X85318626Y-67589132D01*
X84614349Y-67589132D01*
X84259381Y-67234164D01*
X83904413Y-67589132D01*
X83200135Y-67589132D01*
X82845167Y-67234164D01*
X82735510Y-67343821D01*
X82237510Y-67343821D01*
X82237510Y-66882024D01*
X83197305Y-66882024D01*
X83552274Y-67236993D01*
X83907242Y-66882025D01*
X83907241Y-66882024D01*
X84611519Y-66882024D01*
X84966487Y-67236993D01*
X85321456Y-66882025D01*
X86025733Y-66882025D01*
X86380701Y-67236993D01*
X86735669Y-66882025D01*
X87439947Y-66882025D01*
X87794915Y-67236993D01*
X88149883Y-66882025D01*
X88854160Y-66882025D01*
X89209128Y-67236993D01*
X89564096Y-66882025D01*
X90268374Y-66882025D01*
X90623342Y-67236993D01*
X90978310Y-66882025D01*
X90978309Y-66882024D01*
X91682586Y-66882024D01*
X92037555Y-67236993D01*
X92392523Y-66882025D01*
X93096801Y-66882025D01*
X93451769Y-67236993D01*
X93806737Y-66882025D01*
X94511014Y-66882025D01*
X94865982Y-67236993D01*
X95220950Y-66882025D01*
X95925228Y-66882025D01*
X96280196Y-67236993D01*
X96635164Y-66882025D01*
X97339441Y-66882025D01*
X97694409Y-67236993D01*
X98049378Y-66882025D01*
X98753655Y-66882025D01*
X99108623Y-67236993D01*
X99463591Y-66882025D01*
X100167869Y-66882025D01*
X100522837Y-67236993D01*
X100877805Y-66882025D01*
X101582082Y-66882025D01*
X101937050Y-67236993D01*
X102292018Y-66882025D01*
X102996296Y-66882025D01*
X103351264Y-67236993D01*
X103706232Y-66882025D01*
X104410509Y-66882025D01*
X104765477Y-67236993D01*
X105120445Y-66882025D01*
X105824723Y-66882025D01*
X106179691Y-67236993D01*
X106534659Y-66882025D01*
X107238936Y-66882025D01*
X107593904Y-67236993D01*
X107948873Y-66882025D01*
X108653150Y-66882025D01*
X109008118Y-67236993D01*
X109363086Y-66882025D01*
X110067364Y-66882025D01*
X110422332Y-67236993D01*
X110777300Y-66882025D01*
X111481577Y-66882025D01*
X111591416Y-66991864D01*
X111598181Y-66985100D01*
X111600735Y-66974905D01*
X111602359Y-66969036D01*
X111609459Y-66945632D01*
X111611368Y-66939853D01*
X111615502Y-66928300D01*
X111617692Y-66922625D01*
X111687393Y-66754349D01*
X111689859Y-66748785D01*
X111695106Y-66737691D01*
X111697842Y-66732255D01*
X111709371Y-66710685D01*
X111712367Y-66705396D01*
X111718678Y-66694865D01*
X111721939Y-66689715D01*
X111818702Y-66544899D01*
X111481577Y-66882025D01*
X110777300Y-66882025D01*
X110422332Y-66527057D01*
X110067364Y-66882025D01*
X109363086Y-66882025D01*
X109008118Y-66527057D01*
X108653150Y-66882025D01*
X107948873Y-66882025D01*
X107593904Y-66527056D01*
X107238936Y-66882025D01*
X106534659Y-66882025D01*
X106179691Y-66527057D01*
X105824723Y-66882025D01*
X105120445Y-66882025D01*
X104765477Y-66527057D01*
X104410509Y-66882025D01*
X103706232Y-66882025D01*
X103351264Y-66527057D01*
X102996296Y-66882025D01*
X102292018Y-66882025D01*
X101937050Y-66527057D01*
X101582082Y-66882025D01*
X100877805Y-66882025D01*
X100522837Y-66527057D01*
X100167869Y-66882025D01*
X99463591Y-66882025D01*
X99108623Y-66527057D01*
X98753655Y-66882025D01*
X98049378Y-66882025D01*
X97694409Y-66527056D01*
X97339441Y-66882025D01*
X96635164Y-66882025D01*
X96280196Y-66527057D01*
X95925228Y-66882025D01*
X95220950Y-66882025D01*
X94865982Y-66527056D01*
X94511014Y-66882025D01*
X93806737Y-66882025D01*
X93584322Y-66659610D01*
X93530586Y-66671207D01*
X93523719Y-66672487D01*
X93509806Y-66674678D01*
X93502886Y-66675569D01*
X93474949Y-66678370D01*
X93467972Y-66678872D01*
X93453890Y-66679485D01*
X93446904Y-66679592D01*
X93364925Y-66678539D01*
X93300287Y-66678539D01*
X93096801Y-66882025D01*
X92392523Y-66882025D01*
X92074485Y-66563987D01*
X92024631Y-66539979D01*
X91682586Y-66882024D01*
X90978309Y-66882024D01*
X90623342Y-66527057D01*
X90268374Y-66882025D01*
X89564096Y-66882025D01*
X89209128Y-66527057D01*
X88854160Y-66882025D01*
X88149883Y-66882025D01*
X87794915Y-66527057D01*
X87439947Y-66882025D01*
X86735669Y-66882025D01*
X86380701Y-66527057D01*
X86025733Y-66882025D01*
X85321456Y-66882025D01*
X85056866Y-66617435D01*
X85056524Y-66617562D01*
X85029810Y-66626585D01*
X85023095Y-66628643D01*
X85009453Y-66632405D01*
X85002645Y-66634077D01*
X84830586Y-66671207D01*
X84823719Y-66672487D01*
X84820559Y-66672984D01*
X84611519Y-66882024D01*
X83907241Y-66882024D01*
X83691530Y-66666313D01*
X83533843Y-66630323D01*
X83527114Y-66628588D01*
X83513633Y-66624705D01*
X83506996Y-66622589D01*
X83480609Y-66613355D01*
X83474119Y-66610878D01*
X83470111Y-66609218D01*
X83197305Y-66882024D01*
X82237510Y-66882024D01*
X82237510Y-65929607D01*
X82735510Y-65929607D01*
X82735510Y-66420229D01*
X82845166Y-66529885D01*
X83029648Y-66345403D01*
X85489111Y-66345403D01*
X85673594Y-66529886D01*
X86028562Y-66174918D01*
X86732840Y-66174918D01*
X87087808Y-66529886D01*
X87442776Y-66174918D01*
X88147053Y-66174918D01*
X88502021Y-66529886D01*
X88856989Y-66174918D01*
X89561267Y-66174918D01*
X89916235Y-66529886D01*
X90271203Y-66174918D01*
X90975480Y-66174918D01*
X91330448Y-66529885D01*
X91417657Y-66442676D01*
X94071666Y-66442676D01*
X94158876Y-66529886D01*
X94513844Y-66174918D01*
X95218121Y-66174918D01*
X95573089Y-66529886D01*
X95928057Y-66174918D01*
X96632335Y-66174918D01*
X96987303Y-66529886D01*
X97342271Y-66174918D01*
X98046548Y-66174918D01*
X98401516Y-66529886D01*
X98756484Y-66174918D01*
X99460762Y-66174918D01*
X99815730Y-66529886D01*
X100170698Y-66174918D01*
X100874975Y-66174918D01*
X101229943Y-66529886D01*
X101584911Y-66174918D01*
X102289189Y-66174918D01*
X102644157Y-66529886D01*
X102999125Y-66174918D01*
X102999124Y-66174917D01*
X103703402Y-66174917D01*
X104058371Y-66529886D01*
X104413339Y-66174918D01*
X105117616Y-66174918D01*
X105472584Y-66529886D01*
X105827552Y-66174918D01*
X106531830Y-66174918D01*
X106886798Y-66529886D01*
X107241766Y-66174918D01*
X107946043Y-66174918D01*
X108301011Y-66529886D01*
X108655979Y-66174918D01*
X109360257Y-66174918D01*
X109715225Y-66529886D01*
X110070193Y-66174918D01*
X110774470Y-66174918D01*
X111129438Y-66529886D01*
X111484406Y-66174918D01*
X112188684Y-66174918D01*
X112214152Y-66200386D01*
X112222196Y-66195567D01*
X112227485Y-66192571D01*
X112249055Y-66181042D01*
X112254491Y-66178306D01*
X112261654Y-66174918D01*
X113602897Y-66174918D01*
X113957865Y-66529886D01*
X114312834Y-66174918D01*
X115017111Y-66174918D01*
X115372079Y-66529886D01*
X115727047Y-66174918D01*
X116431325Y-66174918D01*
X116786293Y-66529886D01*
X117141261Y-66174918D01*
X117845538Y-66174918D01*
X118200506Y-66529886D01*
X118555474Y-66174918D01*
X119259752Y-66174918D01*
X119614720Y-66529886D01*
X119969688Y-66174918D01*
X120673965Y-66174918D01*
X121028933Y-66529886D01*
X121383901Y-66174918D01*
X122088179Y-66174918D01*
X122443147Y-66529886D01*
X122798115Y-66174918D01*
X123502392Y-66174918D01*
X123857360Y-66529886D01*
X123942831Y-66444415D01*
X123942831Y-65905420D01*
X123857360Y-65819949D01*
X123502392Y-66174918D01*
X122798115Y-66174918D01*
X122443147Y-65819950D01*
X122088179Y-66174918D01*
X121383901Y-66174918D01*
X121028933Y-65819950D01*
X120673965Y-66174918D01*
X119969688Y-66174918D01*
X119614720Y-65819950D01*
X119259752Y-66174918D01*
X118555474Y-66174918D01*
X118200506Y-65819950D01*
X117845538Y-66174918D01*
X117141261Y-66174918D01*
X116786293Y-65819950D01*
X116431325Y-66174918D01*
X115727047Y-66174918D01*
X115372079Y-65819950D01*
X115017111Y-66174918D01*
X114312834Y-66174918D01*
X113957865Y-65819949D01*
X113602897Y-66174918D01*
X112261654Y-66174918D01*
X112265585Y-66173059D01*
X112271149Y-66170593D01*
X112439425Y-66100892D01*
X112445100Y-66098702D01*
X112456653Y-66094568D01*
X112462434Y-66092659D01*
X112485839Y-66085559D01*
X112491694Y-66083938D01*
X112503602Y-66080954D01*
X112509552Y-66079618D01*
X112688197Y-66044083D01*
X112694197Y-66043042D01*
X112706341Y-66041241D01*
X112712380Y-66040496D01*
X112736721Y-66038099D01*
X112742790Y-66037651D01*
X112755047Y-66037049D01*
X112760614Y-66036912D01*
X112543652Y-65819950D01*
X112188684Y-66174918D01*
X111484406Y-66174918D01*
X111129438Y-65819949D01*
X110774470Y-66174918D01*
X110070193Y-66174918D01*
X109715225Y-65819950D01*
X109360257Y-66174918D01*
X108655979Y-66174918D01*
X108301011Y-65819950D01*
X107946043Y-66174918D01*
X107241766Y-66174918D01*
X106886798Y-65819950D01*
X106531830Y-66174918D01*
X105827552Y-66174918D01*
X105478113Y-65825479D01*
X105466874Y-65825659D01*
X105117616Y-66174918D01*
X104413339Y-66174918D01*
X104062921Y-65824500D01*
X104053820Y-65824500D01*
X103703402Y-66174917D01*
X102999124Y-66174917D01*
X102644157Y-65819950D01*
X102289189Y-66174918D01*
X101584911Y-66174918D01*
X101229943Y-65819949D01*
X100874975Y-66174918D01*
X100170698Y-66174918D01*
X99815730Y-65819950D01*
X99460762Y-66174918D01*
X98756484Y-66174918D01*
X98401516Y-65819950D01*
X98046548Y-66174918D01*
X97342271Y-66174918D01*
X96987303Y-65819950D01*
X96632335Y-66174918D01*
X95928057Y-66174918D01*
X95573089Y-65819950D01*
X95218121Y-66174918D01*
X94513844Y-66174918D01*
X94395417Y-66056491D01*
X94368561Y-66111676D01*
X94365312Y-66117897D01*
X94358410Y-66130250D01*
X94354817Y-66136274D01*
X94339694Y-66160072D01*
X94335767Y-66165883D01*
X94327515Y-66177377D01*
X94323263Y-66182958D01*
X94212645Y-66319959D01*
X94208091Y-66325284D01*
X94198592Y-66335776D01*
X94193728Y-66340852D01*
X94173649Y-66360649D01*
X94168519Y-66365429D01*
X94157900Y-66374776D01*
X94152507Y-66379258D01*
X94071666Y-66442676D01*
X91417657Y-66442676D01*
X91648893Y-66211440D01*
X91622135Y-66177888D01*
X91617954Y-66172333D01*
X91609834Y-66160890D01*
X91605965Y-66155100D01*
X91591092Y-66131429D01*
X91587562Y-66125446D01*
X91580777Y-66113171D01*
X91577583Y-66106988D01*
X91540510Y-66030011D01*
X91330448Y-65819949D01*
X90975480Y-66174918D01*
X90271203Y-66174918D01*
X89916235Y-65819950D01*
X89561267Y-66174918D01*
X88856989Y-66174918D01*
X88502021Y-65819949D01*
X88147053Y-66174918D01*
X87442776Y-66174918D01*
X87087808Y-65819950D01*
X86732840Y-66174918D01*
X86028562Y-66174918D01*
X85762890Y-65909246D01*
X85756487Y-65927363D01*
X85753962Y-65933911D01*
X85748501Y-65946960D01*
X85745612Y-65953350D01*
X85668561Y-66111676D01*
X85665312Y-66117897D01*
X85658410Y-66130250D01*
X85654817Y-66136274D01*
X85639694Y-66160072D01*
X85635767Y-66165883D01*
X85627515Y-66177377D01*
X85623263Y-66182958D01*
X85512645Y-66319959D01*
X85508091Y-66325284D01*
X85498592Y-66335776D01*
X85493728Y-66340852D01*
X85489111Y-66345403D01*
X83029648Y-66345403D01*
X83044861Y-66330190D01*
X83044794Y-66330119D01*
X83035448Y-66319660D01*
X83030965Y-66314352D01*
X82922134Y-66177888D01*
X82917954Y-66172333D01*
X82909834Y-66160890D01*
X82905965Y-66155100D01*
X82891092Y-66131429D01*
X82887562Y-66125446D01*
X82880777Y-66113171D01*
X82877583Y-66106988D01*
X82801847Y-65949730D01*
X82799006Y-65943382D01*
X82793637Y-65930421D01*
X82791156Y-65923922D01*
X82781923Y-65897537D01*
X82779812Y-65890914D01*
X82778557Y-65886559D01*
X82735510Y-65929607D01*
X82237510Y-65929607D01*
X82237510Y-63826134D01*
X83223958Y-63826134D01*
X83223963Y-63826197D01*
X83223961Y-65574360D01*
X83223962Y-65574373D01*
X83223963Y-65603318D01*
X83223964Y-65603325D01*
X83256587Y-65746232D01*
X83256588Y-65746235D01*
X83256589Y-65746238D01*
X83320196Y-65878311D01*
X83320197Y-65878312D01*
X83320198Y-65878314D01*
X83320199Y-65878315D01*
X83372090Y-65943382D01*
X83411597Y-65992919D01*
X83526209Y-66084316D01*
X83526210Y-66084316D01*
X83526211Y-66084317D01*
X83658284Y-66147919D01*
X83658282Y-66147919D01*
X83801193Y-66180537D01*
X83801198Y-66180537D01*
X83801200Y-66180538D01*
X83819894Y-66180538D01*
X83819898Y-66180539D01*
X83844561Y-66180539D01*
X83874496Y-66180539D01*
X83908847Y-66180539D01*
X84667313Y-66180539D01*
X84668903Y-66180548D01*
X84685113Y-66180757D01*
X84739254Y-66181452D01*
X84739254Y-66181451D01*
X84739257Y-66181452D01*
X84883814Y-66150257D01*
X85017684Y-66087418D01*
X85134038Y-65996140D01*
X85226941Y-65881079D01*
X85291654Y-65748105D01*
X85324876Y-65604000D01*
X85324913Y-65572571D01*
X85324965Y-65572064D01*
X85324965Y-65529986D01*
X85324970Y-65508158D01*
X85324973Y-65495707D01*
X85324972Y-65495705D01*
X85324975Y-65482089D01*
X85324965Y-65481988D01*
X85324965Y-65467811D01*
X86025732Y-65467811D01*
X86380701Y-65822780D01*
X86735669Y-65467811D01*
X87439946Y-65467811D01*
X87794915Y-65822780D01*
X88149883Y-65467811D01*
X88854159Y-65467811D01*
X89209128Y-65822780D01*
X89564096Y-65467811D01*
X90268373Y-65467811D01*
X90623342Y-65822780D01*
X90978310Y-65467811D01*
X90623342Y-65112843D01*
X90268373Y-65467811D01*
X89564096Y-65467811D01*
X89209128Y-65112843D01*
X88854159Y-65467811D01*
X88149883Y-65467811D01*
X87794915Y-65112843D01*
X87439946Y-65467811D01*
X86735669Y-65467811D01*
X86380701Y-65112843D01*
X86025732Y-65467811D01*
X85324965Y-65467811D01*
X85324965Y-64966302D01*
X85822965Y-64966302D01*
X86028562Y-64760705D01*
X86732840Y-64760705D01*
X87087808Y-65115673D01*
X87442776Y-64760705D01*
X88147053Y-64760705D01*
X88502021Y-65115673D01*
X88856989Y-64760705D01*
X89561267Y-64760705D01*
X89916235Y-65115673D01*
X90271203Y-64760705D01*
X90975480Y-64760705D01*
X91330448Y-65115672D01*
X91425972Y-65020148D01*
X91425969Y-64501257D01*
X91330448Y-64405736D01*
X90975480Y-64760705D01*
X90271203Y-64760705D01*
X89916235Y-64405737D01*
X89561267Y-64760705D01*
X88856989Y-64760705D01*
X88502021Y-64405736D01*
X88147053Y-64760705D01*
X87442776Y-64760705D01*
X87087808Y-64405737D01*
X86732840Y-64760705D01*
X86028562Y-64760705D01*
X85822965Y-64555108D01*
X85822965Y-64966302D01*
X85324965Y-64966302D01*
X85324965Y-64053598D01*
X86025733Y-64053598D01*
X86380701Y-64408566D01*
X86735669Y-64053598D01*
X87439947Y-64053598D01*
X87794915Y-64408566D01*
X88149883Y-64053598D01*
X88854160Y-64053598D01*
X89209128Y-64408566D01*
X89564096Y-64053598D01*
X90268374Y-64053598D01*
X90623342Y-64408566D01*
X90978310Y-64053598D01*
X90752288Y-63827576D01*
X91923958Y-63827576D01*
X91923965Y-63827641D01*
X91923977Y-65478648D01*
X91923959Y-65478709D01*
X91923963Y-65603319D01*
X91923964Y-65603325D01*
X91956587Y-65746232D01*
X91956588Y-65746235D01*
X91956589Y-65746238D01*
X92020196Y-65878311D01*
X92020197Y-65878312D01*
X92020198Y-65878314D01*
X92020199Y-65878315D01*
X92072090Y-65943382D01*
X92111597Y-65992919D01*
X92226209Y-66084316D01*
X92226210Y-66084316D01*
X92226211Y-66084317D01*
X92358284Y-66147919D01*
X92358282Y-66147919D01*
X92501193Y-66180537D01*
X92501198Y-66180537D01*
X92501200Y-66180538D01*
X92519894Y-66180538D01*
X92519898Y-66180539D01*
X92544561Y-66180539D01*
X92574496Y-66180539D01*
X92608847Y-66180539D01*
X93367313Y-66180539D01*
X93368903Y-66180548D01*
X93385113Y-66180757D01*
X93439254Y-66181452D01*
X93439254Y-66181451D01*
X93439257Y-66181452D01*
X93583814Y-66150257D01*
X93717684Y-66087418D01*
X93834038Y-65996140D01*
X93926941Y-65881079D01*
X93991654Y-65748105D01*
X94024876Y-65604000D01*
X94024913Y-65572571D01*
X94024965Y-65572064D01*
X94024965Y-65529986D01*
X94024970Y-65508158D01*
X94024973Y-65495707D01*
X94024972Y-65495705D01*
X94024975Y-65482089D01*
X94024965Y-65481988D01*
X94024965Y-65455860D01*
X94522965Y-65455860D01*
X94522965Y-65468301D01*
X94522979Y-65468561D01*
X94522976Y-65479774D01*
X94865982Y-65822780D01*
X95220950Y-65467811D01*
X95925227Y-65467811D01*
X96280196Y-65822780D01*
X96635164Y-65467811D01*
X97339441Y-65467811D01*
X97694409Y-65822780D01*
X98049378Y-65467811D01*
X98753654Y-65467811D01*
X99108623Y-65822780D01*
X99463591Y-65467811D01*
X100167868Y-65467811D01*
X100522837Y-65822780D01*
X100877805Y-65467811D01*
X101582081Y-65467811D01*
X101937050Y-65822780D01*
X102292017Y-65467812D01*
X102996296Y-65467812D01*
X103351263Y-65822779D01*
X103477852Y-65696190D01*
X106053101Y-65696190D01*
X106179691Y-65822780D01*
X106534659Y-65467811D01*
X107238936Y-65467811D01*
X107593904Y-65822780D01*
X107948873Y-65467811D01*
X108653149Y-65467811D01*
X109008118Y-65822780D01*
X109363086Y-65467811D01*
X110067363Y-65467811D01*
X110422332Y-65822780D01*
X110777300Y-65467811D01*
X111481576Y-65467811D01*
X111836545Y-65822780D01*
X112191513Y-65467811D01*
X112895790Y-65467811D01*
X113250759Y-65822780D01*
X113605727Y-65467811D01*
X114310003Y-65467811D01*
X114664972Y-65822780D01*
X115019940Y-65467811D01*
X115724217Y-65467811D01*
X116079186Y-65822780D01*
X116434154Y-65467811D01*
X117138430Y-65467811D01*
X117493399Y-65822780D01*
X117848367Y-65467811D01*
X118552644Y-65467811D01*
X118907613Y-65822780D01*
X119262581Y-65467811D01*
X119966858Y-65467811D01*
X120321826Y-65822780D01*
X120676795Y-65467811D01*
X121381071Y-65467811D01*
X121736040Y-65822780D01*
X122091008Y-65467811D01*
X122795285Y-65467811D01*
X123150254Y-65822780D01*
X123505222Y-65467811D01*
X123150254Y-65112843D01*
X122795285Y-65467811D01*
X122091008Y-65467811D01*
X121736040Y-65112843D01*
X121381071Y-65467811D01*
X120676795Y-65467811D01*
X120321826Y-65112843D01*
X119966858Y-65467811D01*
X119262581Y-65467811D01*
X118907613Y-65112843D01*
X118552644Y-65467811D01*
X117848367Y-65467811D01*
X117493399Y-65112843D01*
X117138430Y-65467811D01*
X116434154Y-65467811D01*
X116079186Y-65112843D01*
X115724217Y-65467811D01*
X115019940Y-65467811D01*
X114664972Y-65112843D01*
X114310003Y-65467811D01*
X113605727Y-65467811D01*
X113250759Y-65112843D01*
X112895790Y-65467811D01*
X112191513Y-65467811D01*
X111836545Y-65112843D01*
X111481576Y-65467811D01*
X110777300Y-65467811D01*
X110422332Y-65112843D01*
X110067363Y-65467811D01*
X109363086Y-65467811D01*
X109008118Y-65112843D01*
X108653149Y-65467811D01*
X107948873Y-65467811D01*
X107593904Y-65112843D01*
X107238936Y-65467811D01*
X106534659Y-65467811D01*
X106438841Y-65371993D01*
X106374720Y-65453592D01*
X106370320Y-65458883D01*
X106361157Y-65469298D01*
X106356477Y-65474329D01*
X106337092Y-65494044D01*
X106332130Y-65498818D01*
X106321866Y-65508158D01*
X106316653Y-65512644D01*
X106182682Y-65621609D01*
X106177221Y-65625804D01*
X106165986Y-65633949D01*
X106160311Y-65637828D01*
X106137058Y-65652793D01*
X106131170Y-65656355D01*
X106119104Y-65663205D01*
X106113031Y-65666434D01*
X106053101Y-65696190D01*
X103477852Y-65696190D01*
X103483888Y-65690154D01*
X103448085Y-65672914D01*
X103441902Y-65669720D01*
X103429620Y-65662932D01*
X103423631Y-65659399D01*
X103399960Y-65644526D01*
X103394173Y-65640659D01*
X103382735Y-65632543D01*
X103377183Y-65628365D01*
X103240710Y-65519540D01*
X103235389Y-65515047D01*
X103224926Y-65505696D01*
X103219877Y-65500922D01*
X103200107Y-65481153D01*
X103195323Y-65476093D01*
X103185977Y-65465634D01*
X103181494Y-65460325D01*
X103102648Y-65361459D01*
X102996296Y-65467812D01*
X102292017Y-65467812D01*
X102292018Y-65467811D01*
X101937050Y-65112843D01*
X101582081Y-65467811D01*
X100877805Y-65467811D01*
X100522837Y-65112843D01*
X100167868Y-65467811D01*
X99463591Y-65467811D01*
X99108623Y-65112843D01*
X98753654Y-65467811D01*
X98049378Y-65467811D01*
X97694409Y-65112843D01*
X97339441Y-65467811D01*
X96635164Y-65467811D01*
X96280196Y-65112843D01*
X95925227Y-65467811D01*
X95220950Y-65467811D01*
X94865982Y-65112843D01*
X94522965Y-65455860D01*
X94024965Y-65455860D01*
X94024965Y-64760705D01*
X95218121Y-64760705D01*
X95573089Y-65115673D01*
X95928057Y-64760705D01*
X96632335Y-64760705D01*
X96987303Y-65115673D01*
X97342271Y-64760705D01*
X98046548Y-64760705D01*
X98401516Y-65115673D01*
X98756484Y-64760705D01*
X99460762Y-64760705D01*
X99815730Y-65115673D01*
X100170698Y-64760705D01*
X100874975Y-64760705D01*
X101229943Y-65115673D01*
X101584911Y-64760705D01*
X102289189Y-64760705D01*
X102644156Y-65115672D01*
X102890980Y-64868848D01*
X102885875Y-64846478D01*
X102884518Y-64839653D01*
X102882168Y-64825820D01*
X102881196Y-64818935D01*
X102878066Y-64791155D01*
X102877481Y-64784221D01*
X102876695Y-64770217D01*
X102876500Y-64763268D01*
X102876500Y-64638080D01*
X102644157Y-64405737D01*
X102289189Y-64760705D01*
X101584911Y-64760705D01*
X101229943Y-64405736D01*
X100874975Y-64760705D01*
X100170698Y-64760705D01*
X99815730Y-64405737D01*
X99460762Y-64760705D01*
X98756484Y-64760705D01*
X98401516Y-64405737D01*
X98046548Y-64760705D01*
X97342271Y-64760705D01*
X96987303Y-64405737D01*
X96632335Y-64760705D01*
X95928057Y-64760705D01*
X95573089Y-64405737D01*
X95218121Y-64760705D01*
X94024965Y-64760705D01*
X94024965Y-64041647D01*
X94522965Y-64041647D01*
X94522965Y-64065549D01*
X94865982Y-64408566D01*
X95220950Y-64053598D01*
X95925228Y-64053598D01*
X96280196Y-64408566D01*
X96635164Y-64053598D01*
X97339441Y-64053598D01*
X97694409Y-64408566D01*
X98049378Y-64053598D01*
X98753655Y-64053598D01*
X99108623Y-64408566D01*
X99463591Y-64053598D01*
X100167869Y-64053598D01*
X100522837Y-64408566D01*
X100877805Y-64053598D01*
X101582082Y-64053598D01*
X101937050Y-64408566D01*
X102292018Y-64053598D01*
X101937050Y-63698630D01*
X101582082Y-64053598D01*
X100877805Y-64053598D01*
X100522837Y-63698630D01*
X100167869Y-64053598D01*
X99463591Y-64053598D01*
X99108623Y-63698630D01*
X98753655Y-64053598D01*
X98049378Y-64053598D01*
X97694409Y-63698629D01*
X97339441Y-64053598D01*
X96635164Y-64053598D01*
X96280196Y-63698630D01*
X95925228Y-64053598D01*
X95220950Y-64053598D01*
X94865982Y-63698629D01*
X94522965Y-64041647D01*
X94024965Y-64041647D01*
X94024965Y-63781988D01*
X94024968Y-63781153D01*
X94025177Y-63750074D01*
X94025440Y-63711092D01*
X94025439Y-63711086D01*
X93993567Y-63567332D01*
X93993566Y-63567330D01*
X93977219Y-63532931D01*
X93930363Y-63434331D01*
X93839030Y-63318824D01*
X93724188Y-63226656D01*
X93708793Y-63219203D01*
X93680710Y-63205607D01*
X94372960Y-63205607D01*
X94374131Y-63207901D01*
X94449388Y-63366263D01*
X94452208Y-63372656D01*
X94457531Y-63385707D01*
X94459987Y-63392250D01*
X94462057Y-63398277D01*
X94513842Y-63346491D01*
X95218121Y-63346491D01*
X95573089Y-63701459D01*
X95928057Y-63346491D01*
X96632335Y-63346491D01*
X96987303Y-63701459D01*
X97342271Y-63346491D01*
X98046548Y-63346491D01*
X98401516Y-63701459D01*
X98756484Y-63346491D01*
X99460762Y-63346491D01*
X99815730Y-63701459D01*
X100170698Y-63346491D01*
X100874975Y-63346491D01*
X101229943Y-63701459D01*
X101584911Y-63346491D01*
X102289189Y-63346491D01*
X102644157Y-63701459D01*
X102876500Y-63469116D01*
X102876500Y-63223866D01*
X102755832Y-63103198D01*
X103374445Y-63103198D01*
X103374500Y-63175996D01*
X103374500Y-64749294D01*
X103391587Y-64824154D01*
X103407120Y-64892209D01*
X103464989Y-65012373D01*
X103470725Y-65024284D01*
X103470726Y-65024286D01*
X103562126Y-65138894D01*
X103657432Y-65214892D01*
X103676740Y-65230289D01*
X103808817Y-65293889D01*
X103951736Y-65326503D01*
X104025033Y-65326500D01*
X105485049Y-65326500D01*
X105487733Y-65327288D01*
X105487787Y-65327293D01*
X105501498Y-65327060D01*
X105501500Y-65327061D01*
X105513431Y-65326858D01*
X105535278Y-65326515D01*
X105537227Y-65326500D01*
X105570803Y-65326500D01*
X105576797Y-65325860D01*
X105608356Y-65325364D01*
X105749272Y-65291040D01*
X105879176Y-65226539D01*
X105991695Y-65135023D01*
X106081309Y-65020984D01*
X106143621Y-64890016D01*
X106144906Y-64884325D01*
X106655450Y-64884325D01*
X106886798Y-65115673D01*
X107241766Y-64760705D01*
X107946043Y-64760705D01*
X108301011Y-65115673D01*
X108655979Y-64760705D01*
X109360257Y-64760705D01*
X109715225Y-65115673D01*
X110070193Y-64760705D01*
X110774470Y-64760705D01*
X111129438Y-65115673D01*
X111484406Y-64760705D01*
X112188684Y-64760705D01*
X112543652Y-65115673D01*
X112898620Y-64760705D01*
X113602897Y-64760705D01*
X113957865Y-65115673D01*
X114312834Y-64760705D01*
X115017111Y-64760705D01*
X115372079Y-65115673D01*
X115727047Y-64760705D01*
X116431325Y-64760705D01*
X116786293Y-65115673D01*
X117141261Y-64760705D01*
X117845538Y-64760705D01*
X118200506Y-65115673D01*
X118555474Y-64760705D01*
X119259752Y-64760705D01*
X119614720Y-65115673D01*
X119969688Y-64760705D01*
X120673965Y-64760705D01*
X121028933Y-65115673D01*
X121383901Y-64760705D01*
X122088179Y-64760705D01*
X122443147Y-65115673D01*
X122798115Y-64760705D01*
X123502392Y-64760705D01*
X123857360Y-65115673D01*
X123942831Y-65030202D01*
X123942831Y-64491207D01*
X123857360Y-64405736D01*
X123502392Y-64760705D01*
X122798115Y-64760705D01*
X122443147Y-64405737D01*
X122088179Y-64760705D01*
X121383901Y-64760705D01*
X121028933Y-64405737D01*
X120673965Y-64760705D01*
X119969688Y-64760705D01*
X119614720Y-64405737D01*
X119259752Y-64760705D01*
X118555474Y-64760705D01*
X118200506Y-64405737D01*
X117845538Y-64760705D01*
X117141261Y-64760705D01*
X116786293Y-64405737D01*
X116431325Y-64760705D01*
X115727047Y-64760705D01*
X115372079Y-64405737D01*
X115017111Y-64760705D01*
X114312834Y-64760705D01*
X113957865Y-64405736D01*
X113602897Y-64760705D01*
X112898620Y-64760705D01*
X112543652Y-64405737D01*
X112188684Y-64760705D01*
X111484406Y-64760705D01*
X111129438Y-64405736D01*
X110774470Y-64760705D01*
X110070193Y-64760705D01*
X109715225Y-64405737D01*
X109360257Y-64760705D01*
X108655979Y-64760705D01*
X108301011Y-64405737D01*
X107946043Y-64760705D01*
X107241766Y-64760705D01*
X106886798Y-64405737D01*
X106673509Y-64619025D01*
X106673500Y-64676109D01*
X106673589Y-64761929D01*
X106673403Y-64768839D01*
X106672640Y-64782768D01*
X106672069Y-64789665D01*
X106669002Y-64817298D01*
X106668047Y-64824154D01*
X106665736Y-64837916D01*
X106664401Y-64844701D01*
X106655450Y-64884325D01*
X106144906Y-64884325D01*
X106175575Y-64748543D01*
X106175500Y-64676025D01*
X106175506Y-64641674D01*
X106175505Y-64641671D01*
X106175507Y-64628270D01*
X106175500Y-64628196D01*
X106175500Y-64053598D01*
X107238936Y-64053598D01*
X107593904Y-64408566D01*
X107948873Y-64053598D01*
X108653150Y-64053598D01*
X109008118Y-64408566D01*
X109363086Y-64053598D01*
X110067364Y-64053598D01*
X110422332Y-64408566D01*
X110777300Y-64053598D01*
X111481577Y-64053598D01*
X111836545Y-64408566D01*
X112191513Y-64053598D01*
X112895791Y-64053598D01*
X113250759Y-64408566D01*
X113605727Y-64053598D01*
X114310004Y-64053598D01*
X114664972Y-64408566D01*
X115019940Y-64053598D01*
X115724218Y-64053598D01*
X116079186Y-64408566D01*
X116434154Y-64053598D01*
X117138431Y-64053598D01*
X117493399Y-64408566D01*
X117848367Y-64053598D01*
X118552645Y-64053598D01*
X118907613Y-64408566D01*
X119262581Y-64053598D01*
X119966858Y-64053598D01*
X120321826Y-64408566D01*
X120676795Y-64053598D01*
X121381072Y-64053598D01*
X121736040Y-64408566D01*
X122091008Y-64053598D01*
X122795286Y-64053598D01*
X123150254Y-64408566D01*
X123505222Y-64053598D01*
X123150254Y-63698630D01*
X122795286Y-64053598D01*
X122091008Y-64053598D01*
X121736040Y-63698630D01*
X121381072Y-64053598D01*
X120676795Y-64053598D01*
X120321826Y-63698629D01*
X119966858Y-64053598D01*
X119262581Y-64053598D01*
X118907613Y-63698630D01*
X118552645Y-64053598D01*
X117848367Y-64053598D01*
X117493399Y-63698629D01*
X117138431Y-64053598D01*
X116434154Y-64053598D01*
X116079186Y-63698630D01*
X115724218Y-64053598D01*
X115019940Y-64053598D01*
X114664972Y-63698630D01*
X114310004Y-64053598D01*
X113605727Y-64053598D01*
X113250759Y-63698630D01*
X112895791Y-64053598D01*
X112191513Y-64053598D01*
X111836545Y-63698630D01*
X111481577Y-64053598D01*
X110777300Y-64053598D01*
X110422332Y-63698630D01*
X110067364Y-64053598D01*
X109363086Y-64053598D01*
X109008118Y-63698630D01*
X108653150Y-64053598D01*
X107948873Y-64053598D01*
X107593904Y-63698629D01*
X107238936Y-64053598D01*
X106175500Y-64053598D01*
X106175500Y-63239431D01*
X106673500Y-63239431D01*
X106673500Y-63488161D01*
X106886798Y-63701459D01*
X107241766Y-63346491D01*
X107946043Y-63346491D01*
X108301011Y-63701459D01*
X108655979Y-63346491D01*
X109360257Y-63346491D01*
X109715225Y-63701459D01*
X110070193Y-63346491D01*
X110774470Y-63346491D01*
X111129438Y-63701459D01*
X111484406Y-63346491D01*
X112188684Y-63346491D01*
X112543652Y-63701459D01*
X112898620Y-63346491D01*
X113602897Y-63346491D01*
X113957865Y-63701459D01*
X114312834Y-63346491D01*
X115017111Y-63346491D01*
X115372079Y-63701459D01*
X115727047Y-63346491D01*
X116431325Y-63346491D01*
X116786293Y-63701459D01*
X117141261Y-63346491D01*
X117845538Y-63346491D01*
X118200506Y-63701459D01*
X118555474Y-63346491D01*
X119259752Y-63346491D01*
X119614720Y-63701459D01*
X119969688Y-63346491D01*
X120673965Y-63346491D01*
X121028933Y-63701459D01*
X121383901Y-63346491D01*
X122088179Y-63346491D01*
X122443147Y-63701459D01*
X122798115Y-63346491D01*
X123502392Y-63346491D01*
X123857360Y-63701459D01*
X123942831Y-63615988D01*
X123942831Y-63076993D01*
X123857360Y-62991522D01*
X123502392Y-63346491D01*
X122798115Y-63346491D01*
X122443147Y-62991523D01*
X122088179Y-63346491D01*
X121383901Y-63346491D01*
X121028933Y-62991523D01*
X120673965Y-63346491D01*
X119969688Y-63346491D01*
X119614720Y-62991523D01*
X119259752Y-63346491D01*
X118555474Y-63346491D01*
X118200506Y-62991523D01*
X117845538Y-63346491D01*
X117141261Y-63346491D01*
X116786293Y-62991523D01*
X116431325Y-63346491D01*
X115727047Y-63346491D01*
X115372079Y-62991523D01*
X115017111Y-63346491D01*
X114312834Y-63346491D01*
X113957865Y-62991522D01*
X113602897Y-63346491D01*
X112898620Y-63346491D01*
X112543652Y-62991523D01*
X112188684Y-63346491D01*
X111484406Y-63346491D01*
X111129438Y-62991522D01*
X110774470Y-63346491D01*
X110070193Y-63346491D01*
X109715225Y-62991523D01*
X109360257Y-63346491D01*
X108655979Y-63346491D01*
X108301011Y-62991523D01*
X107946043Y-63346491D01*
X107241766Y-63346491D01*
X106886798Y-62991523D01*
X106673830Y-63204490D01*
X106674044Y-63227877D01*
X106673500Y-63239431D01*
X106175500Y-63239431D01*
X106175500Y-63219203D01*
X106175909Y-63215423D01*
X106175505Y-63171237D01*
X106175500Y-63170103D01*
X106175500Y-63132067D01*
X106175117Y-63128359D01*
X106174852Y-63097171D01*
X106141309Y-62955354D01*
X106084318Y-62838962D01*
X106077224Y-62824474D01*
X106077221Y-62824469D01*
X105985768Y-62711011D01*
X105985764Y-62711008D01*
X105977665Y-62704601D01*
X105895228Y-62639384D01*
X107238936Y-62639384D01*
X107593904Y-62994352D01*
X107948873Y-62639384D01*
X108653149Y-62639384D01*
X109008118Y-62994352D01*
X109363086Y-62639384D01*
X110067363Y-62639384D01*
X110422332Y-62994352D01*
X110777300Y-62639384D01*
X111481576Y-62639384D01*
X111836545Y-62994352D01*
X112191513Y-62639384D01*
X112895790Y-62639384D01*
X113250759Y-62994352D01*
X113605727Y-62639384D01*
X114310003Y-62639384D01*
X114664972Y-62994352D01*
X115019940Y-62639384D01*
X115724217Y-62639384D01*
X116079186Y-62994352D01*
X116434154Y-62639384D01*
X117138430Y-62639384D01*
X117493399Y-62994352D01*
X117848367Y-62639384D01*
X118552644Y-62639384D01*
X118907613Y-62994352D01*
X119262581Y-62639384D01*
X119966858Y-62639384D01*
X120321826Y-62994352D01*
X120676795Y-62639384D01*
X121381071Y-62639384D01*
X121736040Y-62994352D01*
X122091008Y-62639384D01*
X122795285Y-62639384D01*
X123150254Y-62994352D01*
X123505222Y-62639384D01*
X123150254Y-62284416D01*
X122795285Y-62639384D01*
X122091008Y-62639384D01*
X121736040Y-62284416D01*
X121381071Y-62639384D01*
X120676795Y-62639384D01*
X120333276Y-62295865D01*
X120303005Y-62303236D01*
X119966858Y-62639384D01*
X119262581Y-62639384D01*
X118957299Y-62334102D01*
X118857927Y-62334102D01*
X118552644Y-62639384D01*
X117848367Y-62639384D01*
X117493399Y-62284415D01*
X117138430Y-62639384D01*
X116434154Y-62639384D01*
X116079186Y-62284416D01*
X115724217Y-62639384D01*
X115019940Y-62639384D01*
X114664972Y-62284416D01*
X114310003Y-62639384D01*
X113605727Y-62639384D01*
X113250759Y-62284416D01*
X112895790Y-62639384D01*
X112191513Y-62639384D01*
X111836545Y-62284416D01*
X111481576Y-62639384D01*
X110777300Y-62639384D01*
X110422332Y-62284416D01*
X110067363Y-62639384D01*
X109363086Y-62639384D01*
X109008118Y-62284416D01*
X108653149Y-62639384D01*
X107948873Y-62639384D01*
X107593904Y-62284415D01*
X107238936Y-62639384D01*
X105895228Y-62639384D01*
X105871477Y-62620594D01*
X105740015Y-62557704D01*
X105740013Y-62557703D01*
X105740014Y-62557703D01*
X105630145Y-62532773D01*
X105597898Y-62525456D01*
X105597897Y-62525456D01*
X105525033Y-62525499D01*
X105476251Y-62525499D01*
X105476243Y-62525500D01*
X104067335Y-62525500D01*
X104062934Y-62525027D01*
X104019859Y-62525489D01*
X104019519Y-62525493D01*
X104018192Y-62525500D01*
X103980833Y-62525500D01*
X103976469Y-62525950D01*
X103945238Y-62526261D01*
X103945235Y-62526262D01*
X103803599Y-62559961D01*
X103672913Y-62624132D01*
X103559645Y-62715600D01*
X103559642Y-62715603D01*
X103469393Y-62829844D01*
X103406625Y-62961208D01*
X103374445Y-63103198D01*
X102755832Y-63103198D01*
X102644157Y-62991523D01*
X102289189Y-63346491D01*
X101584911Y-63346491D01*
X101229943Y-62991522D01*
X100874975Y-63346491D01*
X100170698Y-63346491D01*
X99815730Y-62991523D01*
X99460762Y-63346491D01*
X98756484Y-63346491D01*
X98401516Y-62991523D01*
X98046548Y-63346491D01*
X97342271Y-63346491D01*
X96987303Y-62991523D01*
X96632335Y-63346491D01*
X95928057Y-63346491D01*
X95573089Y-62991523D01*
X95218121Y-63346491D01*
X94513842Y-63346491D01*
X94513843Y-63346490D01*
X94372960Y-63205607D01*
X93680710Y-63205607D01*
X93591656Y-63162493D01*
X93591648Y-63162490D01*
X93448123Y-63129576D01*
X93416752Y-63129560D01*
X93416539Y-63129539D01*
X93404433Y-63129539D01*
X92623250Y-63129539D01*
X92623223Y-63129536D01*
X92574472Y-63129538D01*
X92574454Y-63129539D01*
X92532772Y-63129539D01*
X92532484Y-63129566D01*
X92501168Y-63129568D01*
X92415299Y-63149171D01*
X92358269Y-63162190D01*
X92358267Y-63162190D01*
X92358266Y-63162191D01*
X92226214Y-63225785D01*
X92226212Y-63225786D01*
X92226211Y-63225787D01*
X92111612Y-63317171D01*
X92111611Y-63317172D01*
X92111610Y-63317173D01*
X92020219Y-63431759D01*
X91956608Y-63563816D01*
X91923975Y-63706710D01*
X91923970Y-63739236D01*
X91923965Y-63739302D01*
X91923965Y-63779997D01*
X91923958Y-63827576D01*
X90752288Y-63827576D01*
X90623342Y-63698630D01*
X90268374Y-64053598D01*
X89564096Y-64053598D01*
X89209128Y-63698630D01*
X88854160Y-64053598D01*
X88149883Y-64053598D01*
X87794915Y-63698630D01*
X87439947Y-64053598D01*
X86735669Y-64053598D01*
X86380701Y-63698630D01*
X86025733Y-64053598D01*
X85324965Y-64053598D01*
X85324965Y-63781988D01*
X85324968Y-63781153D01*
X85325177Y-63750074D01*
X85325440Y-63711092D01*
X85325439Y-63711086D01*
X85293567Y-63567332D01*
X85293566Y-63567330D01*
X85277219Y-63532931D01*
X85230363Y-63434331D01*
X85139030Y-63318824D01*
X85024188Y-63226656D01*
X85008793Y-63219203D01*
X84891656Y-63162493D01*
X84891648Y-63162490D01*
X84748123Y-63129576D01*
X84716752Y-63129560D01*
X84716539Y-63129539D01*
X84704433Y-63129539D01*
X83923250Y-63129539D01*
X83923223Y-63129536D01*
X83874472Y-63129538D01*
X83874454Y-63129539D01*
X83832772Y-63129539D01*
X83832484Y-63129566D01*
X83801168Y-63129568D01*
X83715299Y-63149171D01*
X83658269Y-63162190D01*
X83658267Y-63162190D01*
X83658266Y-63162191D01*
X83526214Y-63225785D01*
X83526212Y-63225786D01*
X83526211Y-63225787D01*
X83411612Y-63317171D01*
X83411611Y-63317172D01*
X83411610Y-63317173D01*
X83320219Y-63431759D01*
X83256608Y-63563816D01*
X83223975Y-63706710D01*
X83223970Y-63739235D01*
X83223965Y-63739301D01*
X83223965Y-63780016D01*
X83223958Y-63826134D01*
X82237510Y-63826134D01*
X82237510Y-63454677D01*
X82735510Y-63454677D01*
X82735510Y-63591802D01*
X82738673Y-63594965D01*
X82774219Y-63439315D01*
X82775957Y-63432580D01*
X82779842Y-63419101D01*
X82781956Y-63412473D01*
X82791192Y-63386089D01*
X82793672Y-63379594D01*
X82799041Y-63366636D01*
X82801882Y-63360288D01*
X82877621Y-63203054D01*
X82880812Y-63196879D01*
X82887596Y-63184606D01*
X82891131Y-63178615D01*
X82906003Y-63154950D01*
X82909864Y-63149171D01*
X82917983Y-63137729D01*
X82922168Y-63132169D01*
X82932980Y-63118611D01*
X82893059Y-63139950D01*
X82840161Y-63183362D01*
X82796743Y-63236267D01*
X82764489Y-63296614D01*
X82744626Y-63362097D01*
X82735510Y-63454677D01*
X82237510Y-63454677D01*
X82237510Y-63436307D01*
X82238107Y-63424155D01*
X82241249Y-63392250D01*
X82252633Y-63276637D01*
X82257375Y-63252799D01*
X82265305Y-63226656D01*
X82298624Y-63116810D01*
X82307925Y-63094356D01*
X82315582Y-63080030D01*
X85585085Y-63080030D01*
X85629710Y-63136466D01*
X85633893Y-63142074D01*
X85642001Y-63153610D01*
X85645855Y-63159435D01*
X85660685Y-63183285D01*
X85664205Y-63189320D01*
X85670957Y-63201681D01*
X85674131Y-63207901D01*
X85749388Y-63366263D01*
X85752208Y-63372656D01*
X85757531Y-63385707D01*
X85759987Y-63392250D01*
X85769112Y-63418812D01*
X85771195Y-63425481D01*
X85775016Y-63439047D01*
X85776720Y-63445825D01*
X85804396Y-63570656D01*
X86028562Y-63346491D01*
X86732840Y-63346491D01*
X87087808Y-63701459D01*
X87442776Y-63346491D01*
X88147053Y-63346491D01*
X88502021Y-63701459D01*
X88856989Y-63346491D01*
X89561267Y-63346491D01*
X89916235Y-63701459D01*
X90271203Y-63346491D01*
X90975480Y-63346491D01*
X91330448Y-63701458D01*
X91439185Y-63592721D01*
X91474219Y-63439315D01*
X91475957Y-63432580D01*
X91479842Y-63419101D01*
X91481956Y-63412473D01*
X91491192Y-63386089D01*
X91493672Y-63379594D01*
X91499041Y-63366636D01*
X91501882Y-63360288D01*
X91566034Y-63227108D01*
X91330448Y-62991522D01*
X90975480Y-63346491D01*
X90271203Y-63346491D01*
X89916235Y-62991523D01*
X89561267Y-63346491D01*
X88856989Y-63346491D01*
X88502021Y-62991522D01*
X88147053Y-63346491D01*
X87442776Y-63346491D01*
X87087808Y-62991523D01*
X86732840Y-63346491D01*
X86028562Y-63346491D01*
X85702113Y-63020042D01*
X85694544Y-63022429D01*
X85689350Y-63023943D01*
X85668353Y-63029569D01*
X85663093Y-63030856D01*
X85652441Y-63033217D01*
X85647136Y-63034272D01*
X85627357Y-63037758D01*
X85585085Y-63080030D01*
X82315582Y-63080030D01*
X82354968Y-63006341D01*
X82374914Y-62969023D01*
X82388414Y-62948818D01*
X82478573Y-62838958D01*
X82495752Y-62821779D01*
X82527497Y-62795726D01*
X86182074Y-62795726D01*
X86380701Y-62994352D01*
X86735669Y-62639384D01*
X87439946Y-62639384D01*
X87794915Y-62994352D01*
X88149883Y-62639384D01*
X88854159Y-62639384D01*
X89209128Y-62994352D01*
X89564096Y-62639384D01*
X90268373Y-62639384D01*
X90623342Y-62994352D01*
X90978310Y-62639384D01*
X91682587Y-62639384D01*
X91895643Y-62852440D01*
X91926652Y-62827713D01*
X91932201Y-62823536D01*
X91943637Y-62815421D01*
X91949427Y-62811553D01*
X91973095Y-62796682D01*
X91979076Y-62793154D01*
X91991354Y-62786367D01*
X91997541Y-62783170D01*
X92154787Y-62707443D01*
X92161140Y-62704601D01*
X92174103Y-62699232D01*
X92180598Y-62696752D01*
X92206982Y-62687520D01*
X92213613Y-62685407D01*
X92227086Y-62681526D01*
X92233811Y-62679791D01*
X92387111Y-62644793D01*
X92392522Y-62639383D01*
X92384678Y-62631539D01*
X93104646Y-62631539D01*
X93428945Y-62631539D01*
X93429508Y-62631566D01*
X93462390Y-62631584D01*
X93469346Y-62631783D01*
X93483377Y-62632579D01*
X93490329Y-62633170D01*
X93518171Y-62636328D01*
X93525069Y-62637307D01*
X93538936Y-62639675D01*
X93545781Y-62641044D01*
X93716655Y-62680231D01*
X93723415Y-62681983D01*
X93736954Y-62685902D01*
X93743615Y-62688035D01*
X93754320Y-62691799D01*
X93806735Y-62639384D01*
X94511013Y-62639384D01*
X94865982Y-62994352D01*
X95220950Y-62639384D01*
X95925227Y-62639384D01*
X96280196Y-62994352D01*
X96635164Y-62639384D01*
X97339441Y-62639384D01*
X97694409Y-62994352D01*
X98049378Y-62639384D01*
X98753654Y-62639384D01*
X99108623Y-62994352D01*
X99463591Y-62639384D01*
X100167868Y-62639384D01*
X100522837Y-62994352D01*
X100877805Y-62639384D01*
X101582081Y-62639384D01*
X101937050Y-62994352D01*
X102292018Y-62639384D01*
X102996296Y-62639384D01*
X103004533Y-62647621D01*
X103019608Y-62616071D01*
X102996296Y-62639384D01*
X102292018Y-62639384D01*
X101937050Y-62284416D01*
X101582081Y-62639384D01*
X100877805Y-62639384D01*
X100522837Y-62284416D01*
X100167868Y-62639384D01*
X99463591Y-62639384D01*
X99108623Y-62284416D01*
X98753654Y-62639384D01*
X98049378Y-62639384D01*
X97694409Y-62284415D01*
X97339441Y-62639384D01*
X96635164Y-62639384D01*
X96280196Y-62284416D01*
X95925227Y-62639384D01*
X95220950Y-62639384D01*
X94865982Y-62284415D01*
X94511013Y-62639384D01*
X93806735Y-62639384D01*
X93806736Y-62639383D01*
X93451769Y-62284416D01*
X93104646Y-62631539D01*
X92384678Y-62631539D01*
X92037555Y-62284416D01*
X91682587Y-62639384D01*
X90978310Y-62639384D01*
X90623342Y-62284416D01*
X90268373Y-62639384D01*
X89564096Y-62639384D01*
X89209128Y-62284416D01*
X88854159Y-62639384D01*
X88149883Y-62639384D01*
X87794915Y-62284416D01*
X87439946Y-62639384D01*
X86735669Y-62639384D01*
X86546843Y-62450558D01*
X86442190Y-62575274D01*
X86438624Y-62579341D01*
X86431261Y-62587376D01*
X86427527Y-62591277D01*
X86412157Y-62606649D01*
X86408241Y-62610397D01*
X86400189Y-62617775D01*
X86396121Y-62621343D01*
X86225248Y-62764715D01*
X86221029Y-62768100D01*
X86212370Y-62774744D01*
X86208001Y-62777948D01*
X86190193Y-62790415D01*
X86185697Y-62793419D01*
X86182074Y-62795726D01*
X82527497Y-62795726D01*
X82605608Y-62731621D01*
X82625812Y-62718121D01*
X82751152Y-62651126D01*
X82773593Y-62641830D01*
X82909600Y-62600574D01*
X82933425Y-62595835D01*
X83080946Y-62581306D01*
X83093099Y-62580710D01*
X85293329Y-62580710D01*
X85293713Y-62580670D01*
X85351719Y-62580673D01*
X85549969Y-62545722D01*
X85739138Y-62476877D01*
X85913478Y-62376228D01*
X86067692Y-62246834D01*
X86197094Y-62092627D01*
X86251671Y-61998103D01*
X86798665Y-61998103D01*
X87087808Y-62287246D01*
X87442776Y-61932278D01*
X88147053Y-61932278D01*
X88502021Y-62287246D01*
X88856989Y-61932278D01*
X89561267Y-61932278D01*
X89916235Y-62287246D01*
X90271203Y-61932278D01*
X90975480Y-61932278D01*
X91330448Y-62287246D01*
X91685417Y-61932278D01*
X92389694Y-61932278D01*
X92744662Y-62287246D01*
X93099630Y-61932278D01*
X93803908Y-61932278D01*
X94158876Y-62287246D01*
X94513844Y-61932278D01*
X95218121Y-61932278D01*
X95573089Y-62287246D01*
X95928057Y-61932278D01*
X96632335Y-61932278D01*
X96987303Y-62287246D01*
X97342271Y-61932278D01*
X98046548Y-61932278D01*
X98401516Y-62287246D01*
X98756484Y-61932278D01*
X99460762Y-61932278D01*
X99815730Y-62287246D01*
X100170698Y-61932278D01*
X100874975Y-61932278D01*
X101229943Y-62287246D01*
X101584911Y-61932278D01*
X102289189Y-61932278D01*
X102644157Y-62287246D01*
X102999125Y-61932278D01*
X103703403Y-61932278D01*
X103816188Y-62045063D01*
X103843517Y-62038562D01*
X103850297Y-62037148D01*
X103864055Y-62034677D01*
X103870911Y-62033642D01*
X103898561Y-62030258D01*
X103905456Y-62029609D01*
X103919405Y-62028688D01*
X103926333Y-62028425D01*
X103952474Y-62028163D01*
X103953213Y-62028091D01*
X103965301Y-62027500D01*
X104016145Y-62027500D01*
X104075062Y-62026869D01*
X104088939Y-62027500D01*
X104318117Y-62027500D01*
X104413339Y-61932278D01*
X105117616Y-61932278D01*
X105212838Y-62027500D01*
X105460901Y-62027500D01*
X105460917Y-62027499D01*
X105524740Y-62027499D01*
X105611539Y-62027448D01*
X105618475Y-62027638D01*
X105632439Y-62028412D01*
X105639345Y-62028989D01*
X105667046Y-62032084D01*
X105673907Y-62033045D01*
X105687699Y-62035372D01*
X105694508Y-62036718D01*
X105717821Y-62042007D01*
X105827550Y-61932278D01*
X106531830Y-61932278D01*
X106886798Y-62287246D01*
X107241766Y-61932278D01*
X107946043Y-61932278D01*
X108301011Y-62287246D01*
X108655979Y-61932278D01*
X109360257Y-61932278D01*
X109715225Y-62287246D01*
X110070193Y-61932278D01*
X110774470Y-61932278D01*
X111129438Y-62287246D01*
X111484406Y-61932278D01*
X112188684Y-61932278D01*
X112543652Y-62287246D01*
X112898620Y-61932278D01*
X113602897Y-61932278D01*
X113957865Y-62287246D01*
X114312834Y-61932278D01*
X115017111Y-61932278D01*
X115372079Y-62287246D01*
X115727047Y-61932278D01*
X116431325Y-61932278D01*
X116786293Y-62287246D01*
X117021844Y-62051695D01*
X120793382Y-62051695D01*
X121028933Y-62287246D01*
X121383901Y-61932278D01*
X122088179Y-61932278D01*
X122443147Y-62287246D01*
X122798115Y-61932278D01*
X122443147Y-61577310D01*
X122088179Y-61932278D01*
X121383901Y-61932278D01*
X121093030Y-61641407D01*
X121038014Y-61757033D01*
X121034888Y-61763160D01*
X121028240Y-61775341D01*
X121024776Y-61781289D01*
X121010203Y-61804788D01*
X121006418Y-61810530D01*
X120998463Y-61821898D01*
X120994363Y-61827423D01*
X120887661Y-61963198D01*
X120883263Y-61968486D01*
X120874099Y-61978902D01*
X120869412Y-61983940D01*
X120850023Y-62003656D01*
X120845063Y-62008427D01*
X120834798Y-62017767D01*
X120829584Y-62022254D01*
X120793382Y-62051695D01*
X117021844Y-62051695D01*
X117141261Y-61932278D01*
X116786293Y-61577310D01*
X116431325Y-61932278D01*
X115727047Y-61932278D01*
X115372079Y-61577310D01*
X115017111Y-61932278D01*
X114312834Y-61932278D01*
X113957865Y-61577309D01*
X113602897Y-61932278D01*
X112898620Y-61932278D01*
X112543652Y-61577310D01*
X112188684Y-61932278D01*
X111484406Y-61932278D01*
X111129438Y-61577309D01*
X110774470Y-61932278D01*
X110070193Y-61932278D01*
X109715225Y-61577310D01*
X109360257Y-61932278D01*
X108655979Y-61932278D01*
X108301011Y-61577310D01*
X107946043Y-61932278D01*
X107241766Y-61932278D01*
X106886798Y-61577310D01*
X106531830Y-61932278D01*
X105827550Y-61932278D01*
X105827551Y-61932277D01*
X105472584Y-61577310D01*
X105117616Y-61932278D01*
X104413339Y-61932278D01*
X104058371Y-61577310D01*
X103703403Y-61932278D01*
X102999125Y-61932278D01*
X102644157Y-61577310D01*
X102289189Y-61932278D01*
X101584911Y-61932278D01*
X101229943Y-61577309D01*
X100874975Y-61932278D01*
X100170698Y-61932278D01*
X99815730Y-61577310D01*
X99460762Y-61932278D01*
X98756484Y-61932278D01*
X98401516Y-61577310D01*
X98046548Y-61932278D01*
X97342271Y-61932278D01*
X96987303Y-61577310D01*
X96632335Y-61932278D01*
X95928057Y-61932278D01*
X95573089Y-61577310D01*
X95218121Y-61932278D01*
X94513844Y-61932278D01*
X94158876Y-61577310D01*
X93803908Y-61932278D01*
X93099630Y-61932278D01*
X92744662Y-61577310D01*
X92389694Y-61932278D01*
X91685417Y-61932278D01*
X91330448Y-61577309D01*
X90975480Y-61932278D01*
X90271203Y-61932278D01*
X89916235Y-61577310D01*
X89561267Y-61932278D01*
X88856989Y-61932278D01*
X88502021Y-61577309D01*
X88147053Y-61932278D01*
X87442776Y-61932278D01*
X87087807Y-61577309D01*
X86858652Y-61806464D01*
X86855152Y-61826315D01*
X86854098Y-61831614D01*
X86851738Y-61842261D01*
X86850451Y-61847521D01*
X86844825Y-61868517D01*
X86843312Y-61873708D01*
X86840030Y-61884118D01*
X86838289Y-61889246D01*
X86798665Y-61998103D01*
X86251671Y-61998103D01*
X86297752Y-61918292D01*
X86366607Y-61729126D01*
X86401568Y-61530878D01*
X86401568Y-61484822D01*
X86401570Y-61484818D01*
X86401570Y-61225171D01*
X87439947Y-61225171D01*
X87794915Y-61580139D01*
X88149883Y-61225171D01*
X88854160Y-61225171D01*
X89209128Y-61580139D01*
X89564096Y-61225171D01*
X90268374Y-61225171D01*
X90623342Y-61580139D01*
X90978310Y-61225171D01*
X91682587Y-61225171D01*
X92037555Y-61580139D01*
X92392523Y-61225171D01*
X93096801Y-61225171D01*
X93451769Y-61580139D01*
X93806737Y-61225171D01*
X94511014Y-61225171D01*
X94865982Y-61580139D01*
X95220950Y-61225171D01*
X95925228Y-61225171D01*
X96280196Y-61580139D01*
X96635164Y-61225171D01*
X97339441Y-61225171D01*
X97694409Y-61580139D01*
X98049378Y-61225171D01*
X98753655Y-61225171D01*
X99108623Y-61580139D01*
X99463591Y-61225171D01*
X100167869Y-61225171D01*
X100522837Y-61580139D01*
X100877805Y-61225171D01*
X100877804Y-61225170D01*
X101582081Y-61225170D01*
X101937050Y-61580139D01*
X102292018Y-61225171D01*
X102996296Y-61225171D01*
X103351264Y-61580139D01*
X103706232Y-61225171D01*
X104410509Y-61225171D01*
X104765477Y-61580139D01*
X105120445Y-61225171D01*
X105824723Y-61225171D01*
X106179691Y-61580139D01*
X106534659Y-61225171D01*
X107238936Y-61225171D01*
X107593904Y-61580139D01*
X107948873Y-61225171D01*
X108653150Y-61225171D01*
X109008118Y-61580139D01*
X109363086Y-61225171D01*
X110067364Y-61225171D01*
X110422332Y-61580139D01*
X110777300Y-61225171D01*
X111481577Y-61225171D01*
X111836545Y-61580139D01*
X112191513Y-61225171D01*
X112895791Y-61225171D01*
X113250759Y-61580139D01*
X113605727Y-61225171D01*
X114310004Y-61225171D01*
X114664972Y-61580139D01*
X115019940Y-61225171D01*
X115724218Y-61225171D01*
X116079186Y-61580139D01*
X116434154Y-61225171D01*
X117138431Y-61225171D01*
X117437180Y-61523920D01*
X117398873Y-61356073D01*
X117397517Y-61349259D01*
X117395166Y-61335426D01*
X117394192Y-61328531D01*
X117391334Y-61303162D01*
X117392725Y-61303005D01*
X117389479Y-61286679D01*
X117389482Y-61124343D01*
X117389495Y-61124064D01*
X117389491Y-60974110D01*
X117138431Y-61225171D01*
X116434154Y-61225171D01*
X116079186Y-60870203D01*
X115724218Y-61225171D01*
X115019940Y-61225171D01*
X114664972Y-60870203D01*
X114310004Y-61225171D01*
X113605727Y-61225171D01*
X113250759Y-60870203D01*
X112895791Y-61225171D01*
X112191513Y-61225171D01*
X111836545Y-60870203D01*
X111481577Y-61225171D01*
X110777300Y-61225171D01*
X110422332Y-60870203D01*
X110067364Y-61225171D01*
X109363086Y-61225171D01*
X109008118Y-60870203D01*
X108653150Y-61225171D01*
X107948873Y-61225171D01*
X107593904Y-60870202D01*
X107238936Y-61225171D01*
X106534659Y-61225171D01*
X106179691Y-60870203D01*
X105824723Y-61225171D01*
X105120445Y-61225171D01*
X104765477Y-60870203D01*
X104410509Y-61225171D01*
X103706232Y-61225171D01*
X103351264Y-60870203D01*
X102996296Y-61225171D01*
X102292018Y-61225171D01*
X101937049Y-60870202D01*
X101582081Y-61225170D01*
X100877804Y-61225170D01*
X100522837Y-60870203D01*
X100167869Y-61225171D01*
X99463591Y-61225171D01*
X99108623Y-60870203D01*
X98753655Y-61225171D01*
X98049378Y-61225171D01*
X97694409Y-60870202D01*
X97339441Y-61225171D01*
X96635164Y-61225171D01*
X96280196Y-60870203D01*
X95925228Y-61225171D01*
X95220950Y-61225171D01*
X94865982Y-60870202D01*
X94511014Y-61225171D01*
X93806737Y-61225171D01*
X93451769Y-60870203D01*
X93096801Y-61225171D01*
X92392523Y-61225171D01*
X92037555Y-60870203D01*
X91682587Y-61225171D01*
X90978310Y-61225171D01*
X90623342Y-60870203D01*
X90268374Y-61225171D01*
X89564096Y-61225171D01*
X89209128Y-60870203D01*
X88854160Y-61225171D01*
X88149883Y-61225171D01*
X87794915Y-60870203D01*
X87439947Y-61225171D01*
X86401570Y-61225171D01*
X86401570Y-60351334D01*
X86899570Y-60351334D01*
X86899570Y-60684794D01*
X87087808Y-60873032D01*
X87442776Y-60518064D01*
X88147053Y-60518064D01*
X88502021Y-60873032D01*
X88856989Y-60518064D01*
X89561267Y-60518064D01*
X89916235Y-60873032D01*
X90271203Y-60518064D01*
X90975480Y-60518064D01*
X91330448Y-60873032D01*
X91685417Y-60518064D01*
X92389694Y-60518064D01*
X92744662Y-60873032D01*
X93099630Y-60518064D01*
X93803908Y-60518064D01*
X94158876Y-60873032D01*
X94513844Y-60518064D01*
X95218121Y-60518064D01*
X95573089Y-60873032D01*
X95928057Y-60518064D01*
X96632335Y-60518064D01*
X96987303Y-60873032D01*
X97342271Y-60518064D01*
X98046548Y-60518064D01*
X98401516Y-60873032D01*
X98756484Y-60518064D01*
X98756483Y-60518063D01*
X99460761Y-60518063D01*
X99815729Y-60873031D01*
X99898054Y-60790706D01*
X99889016Y-60787544D01*
X99882515Y-60785063D01*
X99869559Y-60779696D01*
X99863215Y-60776857D01*
X99705956Y-60701128D01*
X99699781Y-60697938D01*
X99687501Y-60691152D01*
X99681502Y-60687614D01*
X99657831Y-60672740D01*
X99652050Y-60668877D01*
X99640610Y-60660760D01*
X99637186Y-60658183D01*
X102429308Y-60658183D01*
X102644157Y-60873032D01*
X102999125Y-60518064D01*
X103703403Y-60518064D01*
X104058371Y-60873032D01*
X104413339Y-60518064D01*
X105117616Y-60518064D01*
X105472584Y-60873032D01*
X105827552Y-60518064D01*
X106531830Y-60518064D01*
X106886798Y-60873032D01*
X107241766Y-60518064D01*
X107946043Y-60518064D01*
X108301011Y-60873032D01*
X108655979Y-60518064D01*
X109360257Y-60518064D01*
X109715225Y-60873032D01*
X110070193Y-60518064D01*
X110774470Y-60518064D01*
X111129438Y-60873032D01*
X111484406Y-60518064D01*
X112188684Y-60518064D01*
X112543652Y-60873032D01*
X112898620Y-60518064D01*
X113602897Y-60518064D01*
X113957865Y-60873032D01*
X114312834Y-60518064D01*
X115017111Y-60518064D01*
X115372079Y-60873032D01*
X115727047Y-60518064D01*
X116431325Y-60518064D01*
X116786293Y-60873032D01*
X117141261Y-60518064D01*
X116786293Y-60163096D01*
X116431325Y-60518064D01*
X115727047Y-60518064D01*
X115372079Y-60163096D01*
X115017111Y-60518064D01*
X114312834Y-60518064D01*
X113957865Y-60163095D01*
X113602897Y-60518064D01*
X112898620Y-60518064D01*
X112543652Y-60163096D01*
X112188684Y-60518064D01*
X111484406Y-60518064D01*
X111129438Y-60163095D01*
X110774470Y-60518064D01*
X110070193Y-60518064D01*
X109715225Y-60163096D01*
X109360257Y-60518064D01*
X108655979Y-60518064D01*
X108301011Y-60163096D01*
X107946043Y-60518064D01*
X107241766Y-60518064D01*
X106886798Y-60163096D01*
X106531830Y-60518064D01*
X105827552Y-60518064D01*
X105472584Y-60163096D01*
X105117616Y-60518064D01*
X104413339Y-60518064D01*
X104058371Y-60163096D01*
X103703403Y-60518064D01*
X102999125Y-60518064D01*
X102773807Y-60292746D01*
X102773133Y-60293982D01*
X102769674Y-60299921D01*
X102755102Y-60323418D01*
X102751313Y-60329165D01*
X102743359Y-60340530D01*
X102739263Y-60346051D01*
X102632564Y-60481818D01*
X102628167Y-60487104D01*
X102619004Y-60497519D01*
X102614317Y-60502557D01*
X102594929Y-60522272D01*
X102589974Y-60527039D01*
X102579709Y-60536380D01*
X102574489Y-60540871D01*
X102440515Y-60649824D01*
X102435057Y-60654017D01*
X102429308Y-60658183D01*
X99637186Y-60658183D01*
X99635054Y-60656578D01*
X99498590Y-60547755D01*
X99493279Y-60543271D01*
X99482822Y-60533927D01*
X99477767Y-60529149D01*
X99463721Y-60515104D01*
X99460761Y-60518063D01*
X98756483Y-60518063D01*
X98401516Y-60163096D01*
X98046548Y-60518064D01*
X97342271Y-60518064D01*
X96987303Y-60163096D01*
X96632335Y-60518064D01*
X95928057Y-60518064D01*
X95573089Y-60163096D01*
X95218121Y-60518064D01*
X94513844Y-60518064D01*
X94158876Y-60163096D01*
X93803908Y-60518064D01*
X93099630Y-60518064D01*
X92744662Y-60163096D01*
X92389694Y-60518064D01*
X91685417Y-60518064D01*
X91330448Y-60163095D01*
X90975480Y-60518064D01*
X90271203Y-60518064D01*
X89916235Y-60163096D01*
X89561267Y-60518064D01*
X88856989Y-60518064D01*
X88502021Y-60163095D01*
X88147053Y-60518064D01*
X87442776Y-60518064D01*
X87087808Y-60163096D01*
X86899570Y-60351334D01*
X86401570Y-60351334D01*
X86401570Y-59810957D01*
X87439947Y-59810957D01*
X87794915Y-60165925D01*
X88149883Y-59810957D01*
X88854160Y-59810957D01*
X89209128Y-60165925D01*
X89564096Y-59810957D01*
X90268374Y-59810957D01*
X90623342Y-60165925D01*
X90978310Y-59810957D01*
X91682587Y-59810957D01*
X92037555Y-60165925D01*
X92392523Y-59810957D01*
X93096801Y-59810957D01*
X93451769Y-60165925D01*
X93806737Y-59810957D01*
X94511014Y-59810957D01*
X94865982Y-60165925D01*
X95220950Y-59810957D01*
X95925228Y-59810957D01*
X96280196Y-60165925D01*
X96635164Y-59810957D01*
X97339441Y-59810957D01*
X97694409Y-60165925D01*
X98049378Y-59810957D01*
X98753655Y-59810957D01*
X99108622Y-60165924D01*
X99193570Y-60080977D01*
X99190335Y-60071732D01*
X99188220Y-60065099D01*
X99184338Y-60051623D01*
X99182603Y-60044896D01*
X99143756Y-59874732D01*
X99142398Y-59867906D01*
X99140048Y-59854076D01*
X99139076Y-59847192D01*
X99135945Y-59819413D01*
X99135361Y-59812489D01*
X99134573Y-59798481D01*
X99134377Y-59791522D01*
X99134370Y-59612313D01*
X99134375Y-59612280D01*
X99134375Y-59481741D01*
X99108623Y-59455989D01*
X98753655Y-59810957D01*
X98049378Y-59810957D01*
X97694409Y-59455988D01*
X97339441Y-59810957D01*
X96635164Y-59810957D01*
X96280196Y-59455989D01*
X95925228Y-59810957D01*
X95220950Y-59810957D01*
X94865982Y-59455988D01*
X94511014Y-59810957D01*
X93806737Y-59810957D01*
X93451769Y-59455989D01*
X93096801Y-59810957D01*
X92392523Y-59810957D01*
X92037555Y-59455989D01*
X91682587Y-59810957D01*
X90978310Y-59810957D01*
X90623342Y-59455989D01*
X90268374Y-59810957D01*
X89564096Y-59810957D01*
X89209128Y-59455989D01*
X88854160Y-59810957D01*
X88149883Y-59810957D01*
X87794915Y-59455989D01*
X87439947Y-59810957D01*
X86401570Y-59810957D01*
X86401570Y-58937120D01*
X86899570Y-58937120D01*
X86899570Y-59270581D01*
X87087808Y-59458819D01*
X87442776Y-59103850D01*
X88147052Y-59103850D01*
X88502021Y-59458819D01*
X88856989Y-59103850D01*
X89561266Y-59103850D01*
X89916235Y-59458819D01*
X90271203Y-59103850D01*
X90975480Y-59103850D01*
X91330448Y-59458819D01*
X91685417Y-59103850D01*
X92389693Y-59103850D01*
X92744662Y-59458819D01*
X93099630Y-59103850D01*
X93803907Y-59103850D01*
X94158876Y-59458819D01*
X94513844Y-59103850D01*
X95218120Y-59103850D01*
X95573089Y-59458819D01*
X95928057Y-59103850D01*
X96632334Y-59103850D01*
X96987303Y-59458819D01*
X97342271Y-59103850D01*
X98046547Y-59103850D01*
X98401516Y-59458819D01*
X98756484Y-59103850D01*
X98401516Y-58748882D01*
X98046547Y-59103850D01*
X97342271Y-59103850D01*
X96987303Y-58748882D01*
X96632334Y-59103850D01*
X95928057Y-59103850D01*
X95573089Y-58748882D01*
X95218120Y-59103850D01*
X94513844Y-59103850D01*
X94158876Y-58748882D01*
X93803907Y-59103850D01*
X93099630Y-59103850D01*
X92744662Y-58748882D01*
X92389693Y-59103850D01*
X91685417Y-59103850D01*
X91330448Y-58748882D01*
X90975480Y-59103850D01*
X90271203Y-59103850D01*
X89916235Y-58748882D01*
X89561266Y-59103850D01*
X88856989Y-59103850D01*
X88502021Y-58748882D01*
X88147052Y-59103850D01*
X87442776Y-59103850D01*
X87087807Y-58748882D01*
X86899570Y-58937120D01*
X86401570Y-58937120D01*
X86401570Y-58396744D01*
X87439947Y-58396744D01*
X87794915Y-58751712D01*
X88149883Y-58396744D01*
X88854160Y-58396744D01*
X89209128Y-58751712D01*
X89564096Y-58396744D01*
X90268374Y-58396744D01*
X90623342Y-58751712D01*
X90978310Y-58396744D01*
X91682587Y-58396744D01*
X92037555Y-58751712D01*
X92392523Y-58396744D01*
X93096801Y-58396744D01*
X93451769Y-58751712D01*
X93806737Y-58396744D01*
X94511014Y-58396744D01*
X94865982Y-58751712D01*
X95220950Y-58396744D01*
X95925228Y-58396744D01*
X96280196Y-58751712D01*
X96635164Y-58396744D01*
X97339441Y-58396744D01*
X97694409Y-58751712D01*
X98049378Y-58396744D01*
X98753655Y-58396744D01*
X99108623Y-58751712D01*
X99134375Y-58725960D01*
X99134375Y-58204622D01*
X99134315Y-58131431D01*
X99632315Y-58131431D01*
X99632375Y-58204215D01*
X99632375Y-59652866D01*
X99632372Y-59652876D01*
X99632376Y-59777519D01*
X99632377Y-59777523D01*
X99665003Y-59920440D01*
X99728606Y-60052501D01*
X99728607Y-60052502D01*
X99728609Y-60052506D01*
X99751315Y-60080977D01*
X99820007Y-60167111D01*
X99820011Y-60167115D01*
X99929885Y-60254733D01*
X99934618Y-60258507D01*
X100066691Y-60322108D01*
X100066697Y-60322109D01*
X100066699Y-60322110D01*
X100209599Y-60354725D01*
X100209603Y-60354725D01*
X100209605Y-60354726D01*
X100252964Y-60354726D01*
X101743802Y-60354726D01*
X101750602Y-60355433D01*
X101759367Y-60355284D01*
X101759368Y-60355285D01*
X101791349Y-60354743D01*
X101793447Y-60354726D01*
X101828439Y-60354726D01*
X101834921Y-60354034D01*
X101866219Y-60353544D01*
X102007132Y-60319228D01*
X102137034Y-60254736D01*
X102249554Y-60163230D01*
X102339170Y-60049200D01*
X102401487Y-59918240D01*
X102425724Y-59810957D01*
X102996296Y-59810957D01*
X103351264Y-60165925D01*
X103706232Y-59810957D01*
X104410509Y-59810957D01*
X104765477Y-60165925D01*
X105120445Y-59810957D01*
X105824723Y-59810957D01*
X106179691Y-60165925D01*
X106534659Y-59810957D01*
X107238936Y-59810957D01*
X107593904Y-60165925D01*
X107948873Y-59810957D01*
X108653150Y-59810957D01*
X109008118Y-60165925D01*
X109338088Y-59835955D01*
X111506575Y-59835955D01*
X111836545Y-60165925D01*
X112191513Y-59810957D01*
X112895791Y-59810957D01*
X113250759Y-60165925D01*
X113605727Y-59810957D01*
X114310004Y-59810957D01*
X114664972Y-60165925D01*
X115019940Y-59810957D01*
X115724218Y-59810957D01*
X116079186Y-60165925D01*
X116434154Y-59810957D01*
X117138431Y-59810957D01*
X117389468Y-60061994D01*
X117389460Y-59719957D01*
X117389460Y-59685977D01*
X117389394Y-59599253D01*
X117389582Y-59592329D01*
X117390352Y-59578371D01*
X117390928Y-59571461D01*
X117392559Y-59556828D01*
X117138431Y-59810957D01*
X116434154Y-59810957D01*
X116079186Y-59455989D01*
X115724218Y-59810957D01*
X115019940Y-59810957D01*
X114664972Y-59455989D01*
X114310004Y-59810957D01*
X113605727Y-59810957D01*
X113250759Y-59455989D01*
X112895791Y-59810957D01*
X112191513Y-59810957D01*
X111902862Y-59522306D01*
X111800015Y-59625154D01*
X111796509Y-59628526D01*
X111789307Y-59635184D01*
X111785673Y-59638413D01*
X111770798Y-59651120D01*
X111767031Y-59654212D01*
X111759312Y-59660298D01*
X111755423Y-59663242D01*
X111567615Y-59799691D01*
X111563615Y-59802479D01*
X111555450Y-59807934D01*
X111551355Y-59810555D01*
X111534676Y-59820776D01*
X111530473Y-59823240D01*
X111521907Y-59828037D01*
X111517614Y-59830331D01*
X111506575Y-59835955D01*
X109338088Y-59835955D01*
X109363086Y-59810957D01*
X109008118Y-59455989D01*
X108653150Y-59810957D01*
X107948873Y-59810957D01*
X107593904Y-59455988D01*
X107238936Y-59810957D01*
X106534659Y-59810957D01*
X106179691Y-59455989D01*
X105824723Y-59810957D01*
X105120445Y-59810957D01*
X104765477Y-59455989D01*
X104410509Y-59810957D01*
X103706232Y-59810957D01*
X103351264Y-59455989D01*
X102996296Y-59810957D01*
X102425724Y-59810957D01*
X102433447Y-59776774D01*
X102433375Y-59704259D01*
X102433383Y-59669908D01*
X102433382Y-59669906D01*
X102433385Y-59656290D01*
X102433375Y-59656189D01*
X102433375Y-59103850D01*
X103703402Y-59103850D01*
X104058371Y-59458819D01*
X104413339Y-59103850D01*
X105117615Y-59103850D01*
X105472584Y-59458819D01*
X105827552Y-59103850D01*
X106531829Y-59103850D01*
X106886798Y-59458819D01*
X107241766Y-59103850D01*
X107946042Y-59103850D01*
X108301011Y-59458819D01*
X108655979Y-59103850D01*
X108301011Y-58748882D01*
X107946042Y-59103850D01*
X107241766Y-59103850D01*
X106886798Y-58748882D01*
X106531829Y-59103850D01*
X105827552Y-59103850D01*
X105472584Y-58748882D01*
X105117615Y-59103850D01*
X104413339Y-59103850D01*
X104058371Y-58748882D01*
X103703402Y-59103850D01*
X102433375Y-59103850D01*
X102433375Y-58396744D01*
X102996296Y-58396744D01*
X103351264Y-58751712D01*
X103706232Y-58396744D01*
X104410509Y-58396744D01*
X104765477Y-58751712D01*
X105120445Y-58396744D01*
X105824723Y-58396744D01*
X106179691Y-58751712D01*
X106534659Y-58396744D01*
X107238936Y-58396744D01*
X107593904Y-58751712D01*
X107948873Y-58396744D01*
X107593904Y-58041775D01*
X107238936Y-58396744D01*
X106534659Y-58396744D01*
X106179691Y-58041776D01*
X105824723Y-58396744D01*
X105120445Y-58396744D01*
X104765477Y-58041776D01*
X104410509Y-58396744D01*
X103706232Y-58396744D01*
X103351264Y-58041776D01*
X102996296Y-58396744D01*
X102433375Y-58396744D01*
X102433375Y-58247430D01*
X102433782Y-58243664D01*
X102433491Y-58211728D01*
X102433380Y-58199473D01*
X102433375Y-58198344D01*
X102433375Y-58160306D01*
X102432993Y-58156604D01*
X102432730Y-58125403D01*
X102399191Y-57983581D01*
X102335106Y-57852694D01*
X102243650Y-57739229D01*
X102243649Y-57739228D01*
X102243648Y-57739227D01*
X102180267Y-57689087D01*
X102129356Y-57648811D01*
X102129355Y-57648810D01*
X102129352Y-57648808D01*
X101997894Y-57585924D01*
X101997889Y-57585922D01*
X101855764Y-57553677D01*
X101782900Y-57553726D01*
X100326907Y-57553726D01*
X100325183Y-57553219D01*
X100324166Y-57553230D01*
X100324033Y-57553216D01*
X100304613Y-57553425D01*
X100304527Y-57553426D01*
X100275894Y-57553713D01*
X100275191Y-57553720D01*
X100273954Y-57553726D01*
X100238479Y-57553726D01*
X100234609Y-57554125D01*
X100203099Y-57554441D01*
X100203092Y-57554442D01*
X100061458Y-57588148D01*
X99930774Y-57652328D01*
X99930772Y-57652330D01*
X99817503Y-57743808D01*
X99727253Y-57858061D01*
X99664488Y-57989437D01*
X99632315Y-58131431D01*
X99134315Y-58131431D01*
X99134304Y-58117905D01*
X99134493Y-58110967D01*
X99135264Y-58097003D01*
X99135839Y-58090100D01*
X99137956Y-58071109D01*
X99108623Y-58041776D01*
X98753655Y-58396744D01*
X98049378Y-58396744D01*
X97694409Y-58041775D01*
X97339441Y-58396744D01*
X96635164Y-58396744D01*
X96280196Y-58041776D01*
X95925228Y-58396744D01*
X95220950Y-58396744D01*
X94865982Y-58041775D01*
X94511014Y-58396744D01*
X93806737Y-58396744D01*
X93451769Y-58041776D01*
X93096801Y-58396744D01*
X92392523Y-58396744D01*
X92037555Y-58041776D01*
X91682587Y-58396744D01*
X90978310Y-58396744D01*
X90623342Y-58041776D01*
X90268374Y-58396744D01*
X89564096Y-58396744D01*
X89209128Y-58041776D01*
X88854160Y-58396744D01*
X88149883Y-58396744D01*
X87794915Y-58041776D01*
X87439947Y-58396744D01*
X86401570Y-58396744D01*
X86401570Y-57522907D01*
X86899570Y-57522907D01*
X86899570Y-57856367D01*
X87087808Y-58044605D01*
X87442776Y-57689637D01*
X88147053Y-57689637D01*
X88502021Y-58044605D01*
X88856989Y-57689637D01*
X89561267Y-57689637D01*
X89916235Y-58044605D01*
X90271203Y-57689637D01*
X90975480Y-57689637D01*
X91330448Y-58044605D01*
X91685417Y-57689637D01*
X92389694Y-57689637D01*
X92744662Y-58044605D01*
X93099630Y-57689637D01*
X93803908Y-57689637D01*
X94158876Y-58044605D01*
X94513844Y-57689637D01*
X95218121Y-57689637D01*
X95573089Y-58044605D01*
X95928057Y-57689637D01*
X96632335Y-57689637D01*
X96987303Y-58044605D01*
X97342271Y-57689637D01*
X98046548Y-57689637D01*
X98401516Y-58044605D01*
X98756484Y-57689637D01*
X98451915Y-57385068D01*
X102593756Y-57385068D01*
X102604053Y-57395272D01*
X102608824Y-57400271D01*
X102618168Y-57410624D01*
X102622659Y-57415889D01*
X102731556Y-57550993D01*
X102735744Y-57556495D01*
X102743877Y-57567824D01*
X102747749Y-57573548D01*
X102762674Y-57596993D01*
X102766227Y-57602935D01*
X102773049Y-57615101D01*
X102776260Y-57621221D01*
X102852569Y-57777073D01*
X102855436Y-57783367D01*
X102860863Y-57796220D01*
X102863376Y-57802667D01*
X102869364Y-57819397D01*
X102999123Y-57689637D01*
X103703403Y-57689637D01*
X104058371Y-58044605D01*
X104413339Y-57689637D01*
X105117616Y-57689637D01*
X105472584Y-58044605D01*
X105827552Y-57689637D01*
X106531830Y-57689637D01*
X106886798Y-58044605D01*
X107241766Y-57689637D01*
X107946043Y-57689637D01*
X108301011Y-58044605D01*
X108655979Y-57689637D01*
X108301011Y-57334669D01*
X107946043Y-57689637D01*
X107241766Y-57689637D01*
X106886798Y-57334669D01*
X106531830Y-57689637D01*
X105827552Y-57689637D01*
X105472584Y-57334669D01*
X105117616Y-57689637D01*
X104413339Y-57689637D01*
X104058371Y-57334669D01*
X103703403Y-57689637D01*
X102999123Y-57689637D01*
X102999124Y-57689636D01*
X102644156Y-57334668D01*
X102593756Y-57385068D01*
X98451915Y-57385068D01*
X98401516Y-57334669D01*
X98046548Y-57689637D01*
X97342271Y-57689637D01*
X96987303Y-57334669D01*
X96632335Y-57689637D01*
X95928057Y-57689637D01*
X95573089Y-57334669D01*
X95218121Y-57689637D01*
X94513844Y-57689637D01*
X94158876Y-57334669D01*
X93803908Y-57689637D01*
X93099630Y-57689637D01*
X92744662Y-57334669D01*
X92389694Y-57689637D01*
X91685417Y-57689637D01*
X91330448Y-57334668D01*
X90975480Y-57689637D01*
X90271203Y-57689637D01*
X89916235Y-57334669D01*
X89561267Y-57689637D01*
X88856989Y-57689637D01*
X88502021Y-57334668D01*
X88147053Y-57689637D01*
X87442776Y-57689637D01*
X87087808Y-57334669D01*
X86899570Y-57522907D01*
X86401570Y-57522907D01*
X86401570Y-56982530D01*
X87439947Y-56982530D01*
X87794915Y-57337498D01*
X88149883Y-56982530D01*
X88854160Y-56982530D01*
X89209128Y-57337498D01*
X89564096Y-56982530D01*
X90268374Y-56982530D01*
X90623342Y-57337498D01*
X90978310Y-56982530D01*
X91682587Y-56982530D01*
X92037555Y-57337498D01*
X92392523Y-56982530D01*
X93096801Y-56982530D01*
X93451769Y-57337498D01*
X93806737Y-56982530D01*
X94511014Y-56982530D01*
X94865982Y-57337498D01*
X95220950Y-56982530D01*
X95925228Y-56982530D01*
X96280196Y-57337498D01*
X96635164Y-56982530D01*
X97339441Y-56982530D01*
X97694409Y-57337498D01*
X98049378Y-56982530D01*
X98753655Y-56982530D01*
X99108623Y-57337498D01*
X99463591Y-56982530D01*
X100167869Y-56982530D01*
X100241065Y-57055726D01*
X100272096Y-57055726D01*
X100299358Y-57055452D01*
X100332613Y-57055096D01*
X100333087Y-57055116D01*
X100372740Y-57054725D01*
X100378008Y-57055726D01*
X100804609Y-57055726D01*
X100877805Y-56982530D01*
X101582082Y-56982530D01*
X101655278Y-57055726D01*
X101782569Y-57055726D01*
X101869377Y-57055668D01*
X101876318Y-57055858D01*
X101890291Y-57056632D01*
X101897200Y-57057209D01*
X101924904Y-57060304D01*
X101931771Y-57061266D01*
X101945560Y-57063593D01*
X101952361Y-57064937D01*
X102121623Y-57103338D01*
X102128324Y-57105056D01*
X102141727Y-57108894D01*
X102148311Y-57110980D01*
X102159631Y-57114915D01*
X102292016Y-56982530D01*
X102996296Y-56982530D01*
X103351264Y-57337498D01*
X103706232Y-56982530D01*
X104410509Y-56982530D01*
X104765477Y-57337498D01*
X105120445Y-56982530D01*
X105824723Y-56982530D01*
X106179691Y-57337498D01*
X106534659Y-56982530D01*
X107238936Y-56982530D01*
X107593904Y-57337498D01*
X107948873Y-56982530D01*
X107593904Y-56627561D01*
X107238936Y-56982530D01*
X106534659Y-56982530D01*
X106179691Y-56627562D01*
X105824723Y-56982530D01*
X105120445Y-56982530D01*
X104765477Y-56627562D01*
X104410509Y-56982530D01*
X103706232Y-56982530D01*
X103351264Y-56627562D01*
X102996296Y-56982530D01*
X102292016Y-56982530D01*
X102292017Y-56982529D01*
X101937050Y-56627562D01*
X101582082Y-56982530D01*
X100877805Y-56982530D01*
X100522837Y-56627562D01*
X100167869Y-56982530D01*
X99463591Y-56982530D01*
X99108623Y-56627562D01*
X98753655Y-56982530D01*
X98049378Y-56982530D01*
X97694409Y-56627561D01*
X97339441Y-56982530D01*
X96635164Y-56982530D01*
X96280196Y-56627562D01*
X95925228Y-56982530D01*
X95220950Y-56982530D01*
X94865982Y-56627561D01*
X94511014Y-56982530D01*
X93806737Y-56982530D01*
X93451769Y-56627562D01*
X93096801Y-56982530D01*
X92392523Y-56982530D01*
X92037555Y-56627562D01*
X91682587Y-56982530D01*
X90978310Y-56982530D01*
X90623342Y-56627562D01*
X90268374Y-56982530D01*
X89564096Y-56982530D01*
X89209128Y-56627562D01*
X88854160Y-56982530D01*
X88149883Y-56982530D01*
X87794915Y-56627562D01*
X87439947Y-56982530D01*
X86401570Y-56982530D01*
X86401570Y-56613122D01*
X86402171Y-56600933D01*
X86404527Y-56577085D01*
X86414916Y-56471906D01*
X86929323Y-56471906D01*
X87087808Y-56630391D01*
X87442776Y-56275423D01*
X88147053Y-56275423D01*
X88502021Y-56630391D01*
X88856988Y-56275423D01*
X89561267Y-56275423D01*
X89916235Y-56630391D01*
X90271203Y-56275423D01*
X90271202Y-56275422D01*
X90975480Y-56275422D01*
X91330448Y-56630391D01*
X91685417Y-56275423D01*
X91685416Y-56275422D01*
X92389693Y-56275422D01*
X92744662Y-56630391D01*
X93099630Y-56275423D01*
X93803908Y-56275423D01*
X94158876Y-56630391D01*
X94513844Y-56275423D01*
X95218121Y-56275423D01*
X95573089Y-56630391D01*
X95928057Y-56275423D01*
X96632335Y-56275423D01*
X96987303Y-56630391D01*
X97342271Y-56275423D01*
X98046548Y-56275423D01*
X98401516Y-56630391D01*
X98756484Y-56275423D01*
X99460762Y-56275423D01*
X99815730Y-56630391D01*
X100170698Y-56275423D01*
X100874975Y-56275423D01*
X101229943Y-56630391D01*
X101584911Y-56275423D01*
X102289189Y-56275423D01*
X102644157Y-56630391D01*
X102999125Y-56275423D01*
X103703403Y-56275423D01*
X104058371Y-56630391D01*
X104413339Y-56275423D01*
X105117616Y-56275423D01*
X105472584Y-56630391D01*
X105827552Y-56275423D01*
X106531830Y-56275423D01*
X106886798Y-56630391D01*
X107241766Y-56275423D01*
X106886798Y-55920455D01*
X106531830Y-56275423D01*
X105827552Y-56275423D01*
X105472584Y-55920455D01*
X105117616Y-56275423D01*
X104413339Y-56275423D01*
X104058371Y-55920455D01*
X103703403Y-56275423D01*
X102999125Y-56275423D01*
X102644157Y-55920455D01*
X102289189Y-56275423D01*
X101584911Y-56275423D01*
X101229943Y-55920454D01*
X100874975Y-56275423D01*
X100170698Y-56275423D01*
X99815730Y-55920455D01*
X99460762Y-56275423D01*
X98756484Y-56275423D01*
X98401516Y-55920455D01*
X98046548Y-56275423D01*
X97342271Y-56275423D01*
X96987303Y-55920455D01*
X96632335Y-56275423D01*
X95928057Y-56275423D01*
X95573089Y-55920455D01*
X95218121Y-56275423D01*
X94513844Y-56275423D01*
X94158876Y-55920455D01*
X93803908Y-56275423D01*
X93099630Y-56275423D01*
X92751365Y-55927158D01*
X92737272Y-55939040D01*
X92733073Y-55942427D01*
X92724456Y-55949073D01*
X92720107Y-55952278D01*
X92702381Y-55964757D01*
X92697909Y-55967762D01*
X92696363Y-55968752D01*
X92389693Y-56275422D01*
X91685416Y-56275422D01*
X91665500Y-56255506D01*
X90995397Y-56255506D01*
X90975480Y-56275422D01*
X90271202Y-56275422D01*
X90251286Y-56255506D01*
X89581184Y-56255506D01*
X89561267Y-56275423D01*
X88856988Y-56275423D01*
X88856989Y-56275422D01*
X88837073Y-56255506D01*
X88166970Y-56255506D01*
X88147053Y-56275423D01*
X87442776Y-56275423D01*
X87422859Y-56255506D01*
X87320996Y-56255506D01*
X87315187Y-56255804D01*
X87277102Y-56255616D01*
X87184466Y-56264311D01*
X87118678Y-56283983D01*
X87058033Y-56316136D01*
X87004848Y-56359540D01*
X86961183Y-56412515D01*
X86929323Y-56471906D01*
X86414916Y-56471906D01*
X86416788Y-56452957D01*
X86421556Y-56429057D01*
X86463064Y-56292665D01*
X86472420Y-56270158D01*
X86539814Y-56144532D01*
X86553389Y-56124293D01*
X86644077Y-56014268D01*
X86661341Y-55997089D01*
X86771802Y-55906942D01*
X86792100Y-55893469D01*
X86918060Y-55826685D01*
X86940607Y-55817443D01*
X87077207Y-55776598D01*
X87101125Y-55771947D01*
X87248936Y-55758073D01*
X87261105Y-55757532D01*
X87289609Y-55757672D01*
X87289610Y-55757671D01*
X87301968Y-55757732D01*
X87304020Y-55757506D01*
X91715866Y-55757506D01*
X91717647Y-55757703D01*
X91730226Y-55757649D01*
X91730227Y-55757650D01*
X91764103Y-55757506D01*
X91764626Y-55757506D01*
X91804692Y-55757506D01*
X91806597Y-55757313D01*
X91864959Y-55757080D01*
X92062542Y-55721473D01*
X92250972Y-55652187D01*
X92388158Y-55572466D01*
X93100950Y-55572466D01*
X93451769Y-55923285D01*
X93806737Y-55568317D01*
X94511014Y-55568317D01*
X94865982Y-55923285D01*
X94956658Y-55832609D01*
X97603734Y-55832609D01*
X97694409Y-55923285D01*
X97875909Y-55741785D01*
X97816198Y-55771430D01*
X97809956Y-55774316D01*
X97797204Y-55779788D01*
X97790805Y-55782326D01*
X97764831Y-55791802D01*
X97758309Y-55793978D01*
X97745033Y-55798003D01*
X97738396Y-55799816D01*
X97603734Y-55832609D01*
X94956658Y-55832609D01*
X95178103Y-55611163D01*
X95124375Y-55568317D01*
X98753655Y-55568317D01*
X99108623Y-55923285D01*
X99463591Y-55568317D01*
X100167869Y-55568317D01*
X100522837Y-55923285D01*
X100877805Y-55568317D01*
X101582082Y-55568317D01*
X101937050Y-55923285D01*
X102292018Y-55568317D01*
X102996296Y-55568317D01*
X103351264Y-55923285D01*
X103706232Y-55568317D01*
X103351264Y-55213349D01*
X102996296Y-55568317D01*
X102292018Y-55568317D01*
X101937050Y-55213349D01*
X101582082Y-55568317D01*
X100877805Y-55568317D01*
X100522837Y-55213349D01*
X100167869Y-55568317D01*
X99463591Y-55568317D01*
X99108623Y-55213349D01*
X98753655Y-55568317D01*
X95124375Y-55568317D01*
X95098590Y-55547755D01*
X95093279Y-55543271D01*
X95082822Y-55533927D01*
X95077767Y-55529149D01*
X95057998Y-55509382D01*
X95053218Y-55504326D01*
X95043867Y-55493863D01*
X95039378Y-55488548D01*
X94930548Y-55352085D01*
X94926367Y-55346529D01*
X94918250Y-55335090D01*
X94914385Y-55329305D01*
X94899512Y-55305636D01*
X94895979Y-55299647D01*
X94889192Y-55287368D01*
X94885999Y-55281189D01*
X94857439Y-55221891D01*
X94511014Y-55568317D01*
X93806737Y-55568317D01*
X93451768Y-55213348D01*
X93121918Y-55543198D01*
X93121410Y-55543962D01*
X93109004Y-55561740D01*
X93105822Y-55566095D01*
X93100950Y-55572466D01*
X92388158Y-55572466D01*
X92424557Y-55551314D01*
X92428779Y-55547755D01*
X92578045Y-55421907D01*
X92578049Y-55421904D01*
X92706810Y-55267868D01*
X92806950Y-55093859D01*
X92875441Y-54905138D01*
X92883166Y-54861210D01*
X93803908Y-54861210D01*
X94158876Y-55216178D01*
X94513844Y-54861210D01*
X94158876Y-54506242D01*
X93803908Y-54861210D01*
X92883166Y-54861210D01*
X92910214Y-54707407D01*
X92910192Y-54607024D01*
X92910192Y-54572674D01*
X92910192Y-53842712D01*
X93408192Y-53842712D01*
X93408192Y-54465494D01*
X93451769Y-54509071D01*
X93806737Y-54154103D01*
X94511014Y-54154103D01*
X94734375Y-54377464D01*
X94734375Y-53930742D01*
X94511014Y-54154103D01*
X93806737Y-54154103D01*
X93451769Y-53799135D01*
X93408192Y-53842712D01*
X92910192Y-53842712D01*
X92910192Y-53446996D01*
X93803908Y-53446996D01*
X94158876Y-53801964D01*
X94513844Y-53446996D01*
X94198279Y-53131431D01*
X95232315Y-53131431D01*
X95232375Y-53204215D01*
X95232375Y-54652866D01*
X95232372Y-54652876D01*
X95232376Y-54777519D01*
X95232377Y-54777523D01*
X95265003Y-54920440D01*
X95328606Y-55052501D01*
X95328607Y-55052502D01*
X95328609Y-55052506D01*
X95382227Y-55119738D01*
X95420007Y-55167111D01*
X95420011Y-55167115D01*
X95481537Y-55216178D01*
X95534618Y-55258507D01*
X95666691Y-55322108D01*
X95666697Y-55322109D01*
X95666699Y-55322110D01*
X95809599Y-55354725D01*
X95809603Y-55354725D01*
X95809605Y-55354726D01*
X95852964Y-55354726D01*
X97343802Y-55354726D01*
X97350602Y-55355433D01*
X97359367Y-55355284D01*
X97359368Y-55355285D01*
X97391349Y-55354743D01*
X97393447Y-55354726D01*
X97428439Y-55354726D01*
X97434921Y-55354034D01*
X97466219Y-55353544D01*
X97607132Y-55319228D01*
X97737034Y-55254736D01*
X97807216Y-55197661D01*
X98420032Y-55197661D01*
X98756484Y-54861210D01*
X99460762Y-54861210D01*
X99815730Y-55216178D01*
X100170698Y-54861210D01*
X100874975Y-54861210D01*
X101229943Y-55216178D01*
X101584911Y-54861210D01*
X102289189Y-54861210D01*
X102644157Y-55216178D01*
X102999125Y-54861210D01*
X102644157Y-54506242D01*
X102289189Y-54861210D01*
X101584911Y-54861210D01*
X101229943Y-54506241D01*
X100874975Y-54861210D01*
X100170698Y-54861210D01*
X99815730Y-54506242D01*
X99460762Y-54861210D01*
X98756484Y-54861210D01*
X98531375Y-54636101D01*
X98531375Y-54642502D01*
X98531389Y-54642762D01*
X98531375Y-54704373D01*
X98531461Y-54790181D01*
X98531275Y-54797103D01*
X98530510Y-54811036D01*
X98529938Y-54817925D01*
X98526869Y-54845560D01*
X98525914Y-54852414D01*
X98523603Y-54866172D01*
X98522268Y-54872956D01*
X98484198Y-55041469D01*
X98482497Y-55048134D01*
X98478693Y-55061480D01*
X98476623Y-55068045D01*
X98467580Y-55094174D01*
X98465152Y-55100605D01*
X98459895Y-55113444D01*
X98457112Y-55119738D01*
X98420032Y-55197661D01*
X97807216Y-55197661D01*
X97849554Y-55163230D01*
X97939170Y-55049200D01*
X98001487Y-54918240D01*
X98033447Y-54776774D01*
X98033375Y-54704259D01*
X98033383Y-54669908D01*
X98033382Y-54669906D01*
X98033385Y-54656290D01*
X98033375Y-54656189D01*
X98033375Y-54154103D01*
X98753655Y-54154103D01*
X99108623Y-54509071D01*
X99463591Y-54154103D01*
X100167869Y-54154103D01*
X100522837Y-54509071D01*
X100877805Y-54154103D01*
X101582082Y-54154103D01*
X101937050Y-54509071D01*
X102292018Y-54154103D01*
X102996296Y-54154103D01*
X103351264Y-54509071D01*
X103534375Y-54325960D01*
X103534375Y-53982246D01*
X103351264Y-53799135D01*
X102996296Y-54154103D01*
X102292018Y-54154103D01*
X101937050Y-53799135D01*
X101582082Y-54154103D01*
X100877805Y-54154103D01*
X100522837Y-53799135D01*
X100167869Y-54154103D01*
X99463591Y-54154103D01*
X99108623Y-53799135D01*
X98753655Y-54154103D01*
X98033375Y-54154103D01*
X98033375Y-53267621D01*
X98531375Y-53267621D01*
X98531375Y-53672105D01*
X98756484Y-53446996D01*
X99460762Y-53446996D01*
X99815730Y-53801964D01*
X100170698Y-53446996D01*
X100874975Y-53446996D01*
X101229943Y-53801964D01*
X101584911Y-53446996D01*
X102289189Y-53446996D01*
X102644157Y-53801964D01*
X102999125Y-53446996D01*
X102683560Y-53131431D01*
X104032315Y-53131431D01*
X104032375Y-53204215D01*
X104032375Y-54652866D01*
X104032372Y-54652876D01*
X104032376Y-54777519D01*
X104032377Y-54777523D01*
X104065003Y-54920440D01*
X104128606Y-55052501D01*
X104128607Y-55052502D01*
X104128609Y-55052506D01*
X104182227Y-55119738D01*
X104220007Y-55167111D01*
X104220011Y-55167115D01*
X104281537Y-55216178D01*
X104334618Y-55258507D01*
X104466691Y-55322108D01*
X104466697Y-55322109D01*
X104466699Y-55322110D01*
X104609599Y-55354725D01*
X104609603Y-55354725D01*
X104609605Y-55354726D01*
X104652964Y-55354726D01*
X106143802Y-55354726D01*
X106150602Y-55355433D01*
X106159367Y-55355284D01*
X106159368Y-55355285D01*
X106191349Y-55354743D01*
X106193447Y-55354726D01*
X106228439Y-55354726D01*
X106234921Y-55354034D01*
X106266219Y-55353544D01*
X106407132Y-55319228D01*
X106537034Y-55254736D01*
X106649554Y-55163230D01*
X106739170Y-55049200D01*
X106801487Y-54918240D01*
X106833447Y-54776774D01*
X106833375Y-54704259D01*
X106833383Y-54669908D01*
X106833382Y-54669906D01*
X106833385Y-54656290D01*
X106833375Y-54656189D01*
X106833375Y-53247430D01*
X106833782Y-53243664D01*
X106833380Y-53199473D01*
X106833375Y-53198344D01*
X106833375Y-53160306D01*
X106832993Y-53156604D01*
X106832730Y-53125403D01*
X106799191Y-52983581D01*
X106735106Y-52852694D01*
X106643650Y-52739229D01*
X106643649Y-52739228D01*
X106643648Y-52739227D01*
X106533804Y-52652330D01*
X106529356Y-52648811D01*
X106529355Y-52648810D01*
X106529352Y-52648808D01*
X106397894Y-52585924D01*
X106397889Y-52585922D01*
X106255764Y-52553677D01*
X106182900Y-52553726D01*
X104726907Y-52553726D01*
X104725183Y-52553219D01*
X104724166Y-52553230D01*
X104724033Y-52553216D01*
X104704613Y-52553425D01*
X104704527Y-52553426D01*
X104675894Y-52553713D01*
X104675191Y-52553720D01*
X104673954Y-52553726D01*
X104638479Y-52553726D01*
X104634609Y-52554125D01*
X104603099Y-52554441D01*
X104603092Y-52554442D01*
X104461458Y-52588148D01*
X104330774Y-52652328D01*
X104330772Y-52652330D01*
X104217503Y-52743808D01*
X104127253Y-52858061D01*
X104064488Y-52989437D01*
X104032315Y-53131431D01*
X102683560Y-53131431D01*
X102644157Y-53092028D01*
X102289189Y-53446996D01*
X101584911Y-53446996D01*
X101229943Y-53092027D01*
X100874975Y-53446996D01*
X100170698Y-53446996D01*
X99815730Y-53092028D01*
X99460762Y-53446996D01*
X98756484Y-53446996D01*
X98531607Y-53222119D01*
X98531917Y-53256116D01*
X98531375Y-53267621D01*
X98033375Y-53267621D01*
X98033375Y-53247430D01*
X98033782Y-53243664D01*
X98033380Y-53199473D01*
X98033375Y-53198344D01*
X98033375Y-53160306D01*
X98032993Y-53156604D01*
X98032730Y-53125403D01*
X97999191Y-52983581D01*
X97935106Y-52852694D01*
X97844182Y-52739889D01*
X98753654Y-52739889D01*
X99108623Y-53094857D01*
X99463591Y-52739889D01*
X100167868Y-52739889D01*
X100522837Y-53094857D01*
X100877805Y-52739889D01*
X101582081Y-52739889D01*
X101937050Y-53094857D01*
X102292018Y-52739889D01*
X102996295Y-52739889D01*
X103351263Y-53094857D01*
X103582417Y-52863702D01*
X103583584Y-52859150D01*
X103587416Y-52845751D01*
X103589499Y-52839165D01*
X103598608Y-52812937D01*
X103601057Y-52806473D01*
X103606353Y-52793590D01*
X103609154Y-52787282D01*
X103655860Y-52689517D01*
X103351264Y-52384921D01*
X102996295Y-52739889D01*
X102292018Y-52739889D01*
X101937050Y-52384921D01*
X101582081Y-52739889D01*
X100877805Y-52739889D01*
X100522837Y-52384921D01*
X100167868Y-52739889D01*
X99463591Y-52739889D01*
X99108623Y-52384921D01*
X98753654Y-52739889D01*
X97844182Y-52739889D01*
X97843650Y-52739229D01*
X97843649Y-52739228D01*
X97843648Y-52739227D01*
X97733804Y-52652330D01*
X97729356Y-52648811D01*
X97729355Y-52648810D01*
X97729352Y-52648808D01*
X97597894Y-52585924D01*
X97597889Y-52585922D01*
X97455764Y-52553677D01*
X97382900Y-52553726D01*
X95926907Y-52553726D01*
X95925183Y-52553219D01*
X95924166Y-52553230D01*
X95924033Y-52553216D01*
X95904613Y-52553425D01*
X95904527Y-52553426D01*
X95875894Y-52553713D01*
X95875191Y-52553720D01*
X95873954Y-52553726D01*
X95838479Y-52553726D01*
X95834609Y-52554125D01*
X95803099Y-52554441D01*
X95803092Y-52554442D01*
X95661458Y-52588148D01*
X95530774Y-52652328D01*
X95530772Y-52652330D01*
X95417503Y-52743808D01*
X95327253Y-52858061D01*
X95264488Y-52989437D01*
X95232315Y-53131431D01*
X94198279Y-53131431D01*
X94158876Y-53092028D01*
X93803908Y-53446996D01*
X92910192Y-53446996D01*
X92910192Y-52428498D01*
X93408192Y-52428498D01*
X93408192Y-53051279D01*
X93451769Y-53094857D01*
X93806737Y-52739889D01*
X94511014Y-52739889D01*
X94755102Y-52983977D01*
X94781869Y-52865844D01*
X94783584Y-52859150D01*
X94787416Y-52845751D01*
X94789499Y-52839165D01*
X94798608Y-52812937D01*
X94801057Y-52806473D01*
X94806353Y-52793590D01*
X94809154Y-52787282D01*
X94883888Y-52630853D01*
X94887040Y-52624703D01*
X94893739Y-52612482D01*
X94897226Y-52606520D01*
X94911907Y-52582954D01*
X94915722Y-52577195D01*
X94923734Y-52565801D01*
X94927862Y-52560264D01*
X94977934Y-52496873D01*
X94865982Y-52384921D01*
X94511014Y-52739889D01*
X93806737Y-52739889D01*
X93451769Y-52384921D01*
X93408192Y-52428498D01*
X92910192Y-52428498D01*
X92910192Y-52032783D01*
X93803908Y-52032783D01*
X94158876Y-52387751D01*
X94513844Y-52032783D01*
X95218121Y-52032783D01*
X95364507Y-52179169D01*
X95454394Y-52135026D01*
X95460677Y-52132155D01*
X95473506Y-52126719D01*
X95479940Y-52124201D01*
X95506069Y-52114809D01*
X95512626Y-52112657D01*
X95525979Y-52108681D01*
X95532658Y-52106893D01*
X95701357Y-52066745D01*
X95708149Y-52065328D01*
X95721915Y-52062856D01*
X95728768Y-52061822D01*
X95756419Y-52058438D01*
X95763317Y-52057789D01*
X95777258Y-52056869D01*
X95784177Y-52056606D01*
X95810878Y-52056337D01*
X95811099Y-52056316D01*
X95823186Y-52055726D01*
X95872096Y-52055726D01*
X95899358Y-52055452D01*
X95905451Y-52055386D01*
X95928055Y-52032783D01*
X96632335Y-52032783D01*
X96655278Y-52055726D01*
X97319328Y-52055726D01*
X97342271Y-52032783D01*
X98046548Y-52032783D01*
X98401516Y-52387751D01*
X98756484Y-52032783D01*
X99460762Y-52032783D01*
X99815730Y-52387751D01*
X100170698Y-52032783D01*
X100874975Y-52032783D01*
X101229943Y-52387751D01*
X101584911Y-52032783D01*
X102289189Y-52032783D01*
X102644157Y-52387751D01*
X102999125Y-52032783D01*
X103703403Y-52032783D01*
X103972316Y-52301696D01*
X104028676Y-52256180D01*
X104034170Y-52251990D01*
X104045479Y-52243854D01*
X104051196Y-52239979D01*
X104074601Y-52225045D01*
X104080525Y-52221493D01*
X104092670Y-52214664D01*
X104098784Y-52211447D01*
X104254394Y-52135026D01*
X104260677Y-52132155D01*
X104273506Y-52126719D01*
X104279940Y-52124201D01*
X104306069Y-52114809D01*
X104312626Y-52112657D01*
X104325979Y-52108681D01*
X104332656Y-52106893D01*
X104341280Y-52104840D01*
X104413337Y-52032783D01*
X105117616Y-52032783D01*
X105140559Y-52055726D01*
X105804609Y-52055726D01*
X105827552Y-52032783D01*
X106531830Y-52032783D01*
X106656753Y-52157706D01*
X106756795Y-52205563D01*
X106762945Y-52208719D01*
X106775171Y-52215429D01*
X106781140Y-52218924D01*
X106804723Y-52233635D01*
X106810491Y-52237461D01*
X106821895Y-52245492D01*
X106827431Y-52249626D01*
X106937693Y-52336854D01*
X107236491Y-52038057D01*
X107236491Y-52027508D01*
X106886798Y-51677815D01*
X106531830Y-52032783D01*
X105827552Y-52032783D01*
X105472584Y-51677815D01*
X105117616Y-52032783D01*
X104413337Y-52032783D01*
X104413338Y-52032782D01*
X104058371Y-51677815D01*
X103703403Y-52032783D01*
X102999125Y-52032783D01*
X102644157Y-51677815D01*
X102289189Y-52032783D01*
X101584911Y-52032783D01*
X101229943Y-51677814D01*
X100874975Y-52032783D01*
X100170698Y-52032783D01*
X99815730Y-51677815D01*
X99460762Y-52032783D01*
X98756484Y-52032783D01*
X98401516Y-51677815D01*
X98046548Y-52032783D01*
X97342271Y-52032783D01*
X96987303Y-51677815D01*
X96632335Y-52032783D01*
X95928055Y-52032783D01*
X95928056Y-52032782D01*
X95573089Y-51677815D01*
X95218121Y-52032783D01*
X94513844Y-52032783D01*
X94158876Y-51677815D01*
X93803908Y-52032783D01*
X92910192Y-52032783D01*
X92910192Y-51014285D01*
X93408192Y-51014285D01*
X93408192Y-51637067D01*
X93451769Y-51680644D01*
X93806737Y-51325676D01*
X94511014Y-51325676D01*
X94865982Y-51680644D01*
X95220950Y-51325676D01*
X95925228Y-51325676D01*
X96280196Y-51680644D01*
X96635164Y-51325676D01*
X97339441Y-51325676D01*
X97694409Y-51680644D01*
X98049378Y-51325676D01*
X98753655Y-51325676D01*
X99108623Y-51680644D01*
X99463591Y-51325676D01*
X100167869Y-51325676D01*
X100522837Y-51680644D01*
X100877805Y-51325676D01*
X101582082Y-51325676D01*
X101937050Y-51680644D01*
X102292018Y-51325676D01*
X102996296Y-51325676D01*
X103351264Y-51680644D01*
X103706232Y-51325676D01*
X104410509Y-51325676D01*
X104765477Y-51680644D01*
X105120445Y-51325676D01*
X105824723Y-51325676D01*
X106179691Y-51680644D01*
X106534659Y-51325676D01*
X106179691Y-50970708D01*
X105824723Y-51325676D01*
X105120445Y-51325676D01*
X104765477Y-50970708D01*
X104410509Y-51325676D01*
X103706232Y-51325676D01*
X103351264Y-50970708D01*
X102996296Y-51325676D01*
X102292018Y-51325676D01*
X101937050Y-50970708D01*
X101582082Y-51325676D01*
X100877805Y-51325676D01*
X100522837Y-50970708D01*
X100167869Y-51325676D01*
X99463591Y-51325676D01*
X99108623Y-50970708D01*
X98753655Y-51325676D01*
X98049378Y-51325676D01*
X97694409Y-50970707D01*
X97339441Y-51325676D01*
X96635164Y-51325676D01*
X96280196Y-50970708D01*
X95925228Y-51325676D01*
X95220950Y-51325676D01*
X94865982Y-50970707D01*
X94511014Y-51325676D01*
X93806737Y-51325676D01*
X93451769Y-50970708D01*
X93408192Y-51014285D01*
X92910192Y-51014285D01*
X92910192Y-50917982D01*
X92910459Y-50909854D01*
X92912162Y-50883935D01*
X92925554Y-50680050D01*
X92927677Y-50663963D01*
X92936728Y-50618569D01*
X93803908Y-50618569D01*
X94158876Y-50973537D01*
X94513844Y-50618569D01*
X95218121Y-50618569D01*
X95573089Y-50973537D01*
X95928057Y-50618569D01*
X96632335Y-50618569D01*
X96987303Y-50973537D01*
X97342271Y-50618569D01*
X98046548Y-50618569D01*
X98401516Y-50973537D01*
X98756484Y-50618569D01*
X99460762Y-50618569D01*
X99815730Y-50973537D01*
X100170698Y-50618569D01*
X100874975Y-50618569D01*
X101229943Y-50973537D01*
X101584911Y-50618569D01*
X102289189Y-50618569D01*
X102644157Y-50973537D01*
X102999125Y-50618569D01*
X103703403Y-50618569D01*
X104058371Y-50973537D01*
X104413339Y-50618569D01*
X105117616Y-50618569D01*
X105472584Y-50973537D01*
X105827552Y-50618569D01*
X106531830Y-50618569D01*
X106886797Y-50973536D01*
X107207065Y-50653269D01*
X107189834Y-50566637D01*
X106886798Y-50263601D01*
X106531830Y-50618569D01*
X105827552Y-50618569D01*
X105472584Y-50263601D01*
X105117616Y-50618569D01*
X104413339Y-50618569D01*
X104058371Y-50263601D01*
X103703403Y-50618569D01*
X102999125Y-50618569D01*
X102644157Y-50263601D01*
X102289189Y-50618569D01*
X101584911Y-50618569D01*
X101229943Y-50263600D01*
X100874975Y-50618569D01*
X100170698Y-50618569D01*
X99815730Y-50263601D01*
X99460762Y-50618569D01*
X98756484Y-50618569D01*
X98401516Y-50263601D01*
X98046548Y-50618569D01*
X97342271Y-50618569D01*
X96987303Y-50263601D01*
X96632335Y-50618569D01*
X95928057Y-50618569D01*
X95573089Y-50263601D01*
X95218121Y-50618569D01*
X94513844Y-50618569D01*
X94158876Y-50263601D01*
X93803908Y-50618569D01*
X92936728Y-50618569D01*
X92971913Y-50442106D01*
X92976130Y-50426407D01*
X93028851Y-50271486D01*
X93049013Y-50212239D01*
X93055241Y-50197243D01*
X93155516Y-49994464D01*
X93163662Y-49980395D01*
X93209861Y-49911461D01*
X94511013Y-49911461D01*
X94865982Y-50266430D01*
X95220950Y-49911462D01*
X95925228Y-49911462D01*
X96280196Y-50266430D01*
X96635164Y-49911462D01*
X97339441Y-49911462D01*
X97694409Y-50266430D01*
X98049378Y-49911462D01*
X98753655Y-49911462D01*
X99108623Y-50266430D01*
X99463591Y-49911462D01*
X100167869Y-49911462D01*
X100522837Y-50266430D01*
X100877805Y-49911462D01*
X101582082Y-49911462D01*
X101937050Y-50266430D01*
X102292018Y-49911462D01*
X102996296Y-49911462D01*
X103351264Y-50266430D01*
X103706232Y-49911462D01*
X104410509Y-49911462D01*
X104765477Y-50266430D01*
X105120445Y-49911462D01*
X105120444Y-49911461D01*
X105824722Y-49911461D01*
X106179691Y-50266430D01*
X106534659Y-49911462D01*
X106232259Y-49609062D01*
X106144565Y-49591618D01*
X105824722Y-49911461D01*
X105120444Y-49911461D01*
X104771413Y-49562430D01*
X104759541Y-49562430D01*
X104410509Y-49911462D01*
X103706232Y-49911462D01*
X103357200Y-49562430D01*
X103345328Y-49562430D01*
X102996296Y-49911462D01*
X102292018Y-49911462D01*
X101942986Y-49562430D01*
X101931114Y-49562430D01*
X101582082Y-49911462D01*
X100877805Y-49911462D01*
X100528773Y-49562430D01*
X100516901Y-49562430D01*
X100167869Y-49911462D01*
X99463591Y-49911462D01*
X99114559Y-49562430D01*
X99102687Y-49562430D01*
X98753655Y-49911462D01*
X98049378Y-49911462D01*
X97700346Y-49562430D01*
X97688474Y-49562430D01*
X97339441Y-49911462D01*
X96635164Y-49911462D01*
X96286132Y-49562430D01*
X96274260Y-49562430D01*
X95925228Y-49911462D01*
X95220950Y-49911462D01*
X94871918Y-49562430D01*
X94860045Y-49562430D01*
X94511013Y-49911461D01*
X93209861Y-49911461D01*
X93289607Y-49792471D01*
X93299508Y-49779609D01*
X93448965Y-49609772D01*
X93460470Y-49598310D01*
X93630854Y-49449496D01*
X93643761Y-49439635D01*
X93832162Y-49314385D01*
X93846240Y-49306304D01*
X94049417Y-49206775D01*
X94064418Y-49200611D01*
X94278864Y-49128523D01*
X94294569Y-49124367D01*
X94516585Y-49080960D01*
X94532701Y-49078894D01*
X94762222Y-49064677D01*
X94770300Y-49064442D01*
X94800967Y-49064557D01*
X94800968Y-49064556D01*
X94813708Y-49064604D01*
X94815281Y-49064430D01*
X105850647Y-49064430D01*
X105880930Y-49064430D01*
X105889039Y-49064695D01*
G37*
%TD.AperFunction*%
M02*
