%TF.GenerationSoftware,KiCad,Pcbnew,9.0.3*%
%TF.CreationDate,2025-08-15T00:01:44-07:00*%
%TF.ProjectId,GCU-ADU,4743552d-4144-4552-9e6b-696361645f70,rev?*%
%TF.SameCoordinates,Original*%
%TF.FileFunction,Copper,L2,Bot*%
%TF.FilePolarity,Positive*%
%FSLAX46Y46*%
G04 Gerber Fmt 4.6, Leading zero omitted, Abs format (unit mm)*
G04 Created by KiCad (PCBNEW 9.0.3) date 2025-08-15 00:01:44*
%MOMM*%
%LPD*%
G01*
G04 APERTURE LIST*
G04 Aperture macros list*
%AMRoundRect*
0 Rectangle with rounded corners*
0 $1 Rounding radius*
0 $2 $3 $4 $5 $6 $7 $8 $9 X,Y pos of 4 corners*
0 Add a 4 corners polygon primitive as box body*
4,1,4,$2,$3,$4,$5,$6,$7,$8,$9,$2,$3,0*
0 Add four circle primitives for the rounded corners*
1,1,$1+$1,$2,$3*
1,1,$1+$1,$4,$5*
1,1,$1+$1,$6,$7*
1,1,$1+$1,$8,$9*
0 Add four rect primitives between the rounded corners*
20,1,$1+$1,$2,$3,$4,$5,0*
20,1,$1+$1,$4,$5,$6,$7,0*
20,1,$1+$1,$6,$7,$8,$9,0*
20,1,$1+$1,$8,$9,$2,$3,0*%
G04 Aperture macros list end*
%TA.AperFunction,ConnectorPad*%
%ADD10RoundRect,0.062500X0.937500X-0.062500X0.937500X0.062500X-0.937500X0.062500X-0.937500X-0.062500X0*%
%TD*%
%TA.AperFunction,ViaPad*%
%ADD11C,0.600000*%
%TD*%
%TA.AperFunction,ViaPad*%
%ADD12C,0.750000*%
%TD*%
%TA.AperFunction,Conductor*%
%ADD13C,0.200000*%
%TD*%
G04 APERTURE END LIST*
D10*
%TO.P,PINS1,1,1*%
%TO.N,X4*%
X77038200Y-78070200D03*
%TO.P,PINS1,2,2*%
%TO.N,X3*%
X77038200Y-78570200D03*
%TO.P,PINS1,3,3*%
%TO.N,X2*%
X77038200Y-79070200D03*
%TO.P,PINS1,4,4*%
%TO.N,X6*%
X77038200Y-79570200D03*
%TO.P,PINS1,5,5*%
%TO.N,X5*%
X77038200Y-80070200D03*
%TO.P,PINS1,6,6*%
%TO.N,X1*%
X77038200Y-80570200D03*
%TD*%
D11*
%TO.N,X3*%
X112852200Y-67335400D03*
%TO.N,X1*%
X110845600Y-70561200D03*
D12*
%TO.N,X2*%
X99212400Y-73685400D03*
%TO.N,X6*%
X87960200Y-77343000D03*
%TO.N,X5*%
X87147400Y-77978000D03*
%TO.N,X4*%
X95834200Y-74777600D03*
%TD*%
D13*
%TO.N,X1*%
X95326200Y-78689200D02*
X103454200Y-70561200D01*
X87401400Y-78689200D02*
X95326200Y-78689200D01*
X103454200Y-70561200D02*
X110845600Y-70561200D01*
X77038200Y-80570200D02*
X85520400Y-80570200D01*
X85520400Y-80570200D02*
X87401400Y-78689200D01*
%TO.N,X2*%
X84378800Y-79070200D02*
X77038200Y-79070200D01*
X86791800Y-76657200D02*
X84378800Y-79070200D01*
X98780600Y-73685400D02*
X95808800Y-76657200D01*
X99212400Y-73685400D02*
X98780600Y-73685400D01*
X95808800Y-76657200D02*
X86791800Y-76657200D01*
%TO.N,X3*%
X112801400Y-67335400D02*
X112852200Y-67335400D01*
X110032800Y-70104000D02*
X112801400Y-67335400D01*
X101523800Y-70104000D02*
X110032800Y-70104000D01*
X86639400Y-76174600D02*
X95453200Y-76174600D01*
X95453200Y-76174600D02*
X101523800Y-70104000D01*
X84243800Y-78570200D02*
X86639400Y-76174600D01*
X77038200Y-78570200D02*
X84243800Y-78570200D01*
%TO.N,X4*%
X94894400Y-75717400D02*
X86436200Y-75717400D01*
X95834200Y-74777600D02*
X94894400Y-75717400D01*
X86436200Y-75717400D02*
X84083400Y-78070200D01*
X84083400Y-78070200D02*
X77038200Y-78070200D01*
%TO.N,X6*%
X87731600Y-77114400D02*
X87960200Y-77343000D01*
X86969600Y-77114400D02*
X87731600Y-77114400D01*
X77038200Y-79570200D02*
X84513800Y-79570200D01*
X84513800Y-79570200D02*
X86969600Y-77114400D01*
%TO.N,X5*%
X85453300Y-80070200D02*
X77038200Y-80070200D01*
X87147400Y-78376100D02*
X85453300Y-80070200D01*
X87147400Y-77978000D02*
X87147400Y-78376100D01*
%TD*%
%TA.AperFunction,NonConductor*%
G36*
X102229342Y-70724185D02*
G01*
X102275097Y-70776989D01*
X102285041Y-70846147D01*
X102256016Y-70909703D01*
X102249984Y-70916181D01*
X100053335Y-73112828D01*
X99992012Y-73146313D01*
X99922320Y-73141329D01*
X99877973Y-73112828D01*
X99770502Y-73005357D01*
X99770498Y-73005354D01*
X99716999Y-72969607D01*
X99672194Y-72915995D01*
X99663487Y-72846670D01*
X99693641Y-72783642D01*
X99698189Y-72778844D01*
X101736216Y-70740819D01*
X101797539Y-70707334D01*
X101823897Y-70704500D01*
X102162303Y-70704500D01*
X102229342Y-70724185D01*
G37*
%TD.AperFunction*%
%TA.AperFunction,NonConductor*%
G36*
X95676141Y-77277385D02*
G01*
X95721896Y-77330189D01*
X95731840Y-77399347D01*
X95702815Y-77462903D01*
X95696783Y-77469381D01*
X95113784Y-78052381D01*
X95052461Y-78085866D01*
X95026103Y-78088700D01*
X88746882Y-78088700D01*
X88679843Y-78069015D01*
X88634088Y-78016211D01*
X88624144Y-77947053D01*
X88643780Y-77895809D01*
X88736054Y-77757711D01*
X88736054Y-77757710D01*
X88736058Y-77757705D01*
X88802055Y-77598374D01*
X88835700Y-77429229D01*
X88835700Y-77381700D01*
X88855385Y-77314661D01*
X88908189Y-77268906D01*
X88959700Y-77257700D01*
X95609102Y-77257700D01*
X95676141Y-77277385D01*
G37*
%TD.AperFunction*%
%TA.AperFunction,NonConductor*%
G36*
X88626505Y-79309385D02*
G01*
X88672260Y-79362189D01*
X88682204Y-79431347D01*
X88653179Y-79494903D01*
X88613277Y-79525416D01*
X88500354Y-79579807D01*
X88385755Y-79671212D01*
X88385746Y-79671220D01*
X88294361Y-79785829D01*
X88230762Y-79917913D01*
X88198151Y-80060822D01*
X88198150Y-80060831D01*
X88198153Y-80124480D01*
X88198153Y-80467687D01*
X88197091Y-80483878D01*
X88188373Y-80550073D01*
X88179993Y-80581343D01*
X88157571Y-80635464D01*
X88141384Y-80663495D01*
X88105722Y-80709965D01*
X88082830Y-80732854D01*
X88036354Y-80768511D01*
X88008318Y-80784695D01*
X87954200Y-80807106D01*
X87922933Y-80815481D01*
X87856377Y-80824238D01*
X87840192Y-80825298D01*
X87820007Y-80825296D01*
X87814317Y-80825296D01*
X87814316Y-80825296D01*
X87799904Y-80825295D01*
X87799870Y-80825299D01*
X86413898Y-80825299D01*
X86346859Y-80805614D01*
X86301104Y-80752810D01*
X86291160Y-80683652D01*
X86320185Y-80620096D01*
X86326217Y-80613618D01*
X86885156Y-80054680D01*
X87613817Y-79326019D01*
X87675140Y-79292534D01*
X87701498Y-79289700D01*
X88559466Y-79289700D01*
X88626505Y-79309385D01*
G37*
%TD.AperFunction*%
%TA.AperFunction,NonConductor*%
G36*
X105889039Y-49064695D02*
G01*
X105909343Y-49066025D01*
X106118311Y-49079721D01*
X106134367Y-49081836D01*
X106355717Y-49125865D01*
X106371361Y-49130057D01*
X106585069Y-49202602D01*
X106600052Y-49208808D01*
X106802449Y-49308619D01*
X106816496Y-49316729D01*
X107004137Y-49442108D01*
X107017001Y-49451979D01*
X107186667Y-49600773D01*
X107198137Y-49612243D01*
X107346929Y-49781910D01*
X107356802Y-49794778D01*
X107482177Y-49982416D01*
X107490288Y-49996463D01*
X107590099Y-50198863D01*
X107596304Y-50213844D01*
X107616376Y-50272976D01*
X107668842Y-50427538D01*
X107673040Y-50443206D01*
X107717064Y-50664541D01*
X107719181Y-50680622D01*
X107734226Y-50910205D01*
X107734491Y-50918295D01*
X107734491Y-55504239D01*
X107734468Y-55504317D01*
X107734470Y-55656279D01*
X107734471Y-55656280D01*
X107769431Y-55854534D01*
X107838287Y-56043704D01*
X107838294Y-56043717D01*
X107938945Y-56218044D01*
X107938950Y-56218052D01*
X108013750Y-56307193D01*
X108068351Y-56372263D01*
X108149420Y-56440287D01*
X108222566Y-56501663D01*
X108222568Y-56501664D01*
X108396911Y-56602320D01*
X108586084Y-56671173D01*
X108784340Y-56706131D01*
X108855061Y-56706131D01*
X110130234Y-56706131D01*
X110197273Y-56725816D01*
X110243028Y-56778620D01*
X110252972Y-56847778D01*
X110223947Y-56911334D01*
X110168553Y-56948061D01*
X110114501Y-56965624D01*
X110056582Y-56984443D01*
X109867176Y-57080950D01*
X109695210Y-57205889D01*
X109544887Y-57356212D01*
X109419948Y-57528178D01*
X109323441Y-57717584D01*
X109257750Y-57919759D01*
X109224497Y-58129712D01*
X109224497Y-58342285D01*
X109257370Y-58549841D01*
X109257751Y-58552242D01*
X109313402Y-58723518D01*
X109323441Y-58754413D01*
X109419948Y-58943819D01*
X109544887Y-59115785D01*
X109695210Y-59266108D01*
X109867176Y-59391047D01*
X109867178Y-59391048D01*
X109867181Y-59391050D01*
X110056585Y-59487556D01*
X110258754Y-59553245D01*
X110468710Y-59586499D01*
X110468711Y-59586499D01*
X110681283Y-59586499D01*
X110681284Y-59586499D01*
X110891240Y-59553245D01*
X111093409Y-59487556D01*
X111282813Y-59391050D01*
X111403977Y-59303020D01*
X111454783Y-59266108D01*
X111454785Y-59266105D01*
X111454789Y-59266103D01*
X111604627Y-59116265D01*
X112201098Y-59116265D01*
X112543651Y-59458818D01*
X112845537Y-59156933D01*
X112743744Y-59036133D01*
X112740359Y-59031933D01*
X112733715Y-59023314D01*
X112730512Y-59018967D01*
X112718033Y-59001232D01*
X112715022Y-58996748D01*
X112709152Y-58987582D01*
X112706343Y-58982978D01*
X112607453Y-58812683D01*
X112543652Y-58748882D01*
X112226890Y-59065643D01*
X112201098Y-59116265D01*
X111604627Y-59116265D01*
X111605101Y-59115791D01*
X111605103Y-59115787D01*
X111605106Y-59115785D01*
X111730045Y-58943819D01*
X111730044Y-58943819D01*
X111730048Y-58943815D01*
X111826554Y-58754411D01*
X111892243Y-58552242D01*
X111925497Y-58342286D01*
X111925497Y-58129712D01*
X111892243Y-57919756D01*
X111826554Y-57717587D01*
X111753698Y-57574598D01*
X112303721Y-57574598D01*
X112368891Y-57775165D01*
X112370306Y-57779829D01*
X112372970Y-57789276D01*
X112374196Y-57793978D01*
X112378764Y-57813001D01*
X112379810Y-57817764D01*
X112381726Y-57827397D01*
X112382581Y-57832189D01*
X112392243Y-57893196D01*
X112427578Y-57928531D01*
X112427578Y-57624100D01*
X112427334Y-57619432D01*
X112427483Y-57581725D01*
X112418676Y-57488709D01*
X112411972Y-57466347D01*
X112303721Y-57574598D01*
X111753698Y-57574598D01*
X111730048Y-57528183D01*
X111730046Y-57528180D01*
X111730045Y-57528178D01*
X111605106Y-57356212D01*
X111454783Y-57205889D01*
X111282817Y-57080950D01*
X111093411Y-56984443D01*
X111093410Y-56984442D01*
X111093409Y-56984442D01*
X110981440Y-56948061D01*
X110923766Y-56908625D01*
X110896568Y-56844266D01*
X110908483Y-56775420D01*
X110955727Y-56723944D01*
X111019760Y-56706131D01*
X112041747Y-56706131D01*
X112069989Y-56706131D01*
X112082173Y-56706731D01*
X112093529Y-56707852D01*
X112230059Y-56721333D01*
X112253954Y-56726099D01*
X112390250Y-56767556D01*
X112412755Y-56776904D01*
X112538313Y-56844219D01*
X112558551Y-56857786D01*
X112604369Y-56895522D01*
X112668518Y-56948357D01*
X112685716Y-56965624D01*
X112775845Y-57075954D01*
X112789333Y-57096251D01*
X112856139Y-57222071D01*
X112865398Y-57244614D01*
X112906308Y-57381079D01*
X112910978Y-57404998D01*
X112925002Y-57553108D01*
X112925553Y-57565289D01*
X112925391Y-57606021D01*
X112925578Y-57607706D01*
X112925578Y-58011978D01*
X112925381Y-58012648D01*
X112925577Y-58067727D01*
X112925578Y-58068168D01*
X112925578Y-58103748D01*
X112925709Y-58105057D01*
X112925917Y-58163639D01*
X112925917Y-58163642D01*
X112961454Y-58361316D01*
X112961454Y-58361317D01*
X113030697Y-58549842D01*
X113131549Y-58723516D01*
X113131550Y-58723517D01*
X113131552Y-58723520D01*
X113260969Y-58877101D01*
X113415036Y-59005940D01*
X113589092Y-59106141D01*
X113777876Y-59174675D01*
X113975677Y-59209468D01*
X114076097Y-59209447D01*
X114110447Y-59209447D01*
X120734547Y-59209447D01*
X120763895Y-59209447D01*
X120773883Y-59209850D01*
X120781259Y-59210446D01*
X120895327Y-59219664D01*
X120915023Y-59222868D01*
X121028444Y-59250855D01*
X121047385Y-59257186D01*
X121101912Y-59280445D01*
X121154838Y-59303021D01*
X121172514Y-59312310D01*
X121271211Y-59374807D01*
X121287168Y-59386816D01*
X121378617Y-59467960D01*
X121385815Y-59474884D01*
X121405839Y-59495766D01*
X121414223Y-59504509D01*
X121416075Y-59506040D01*
X124197783Y-62374002D01*
X124204234Y-62381195D01*
X124279362Y-62471833D01*
X124290481Y-62487599D01*
X124348167Y-62584632D01*
X124356706Y-62601933D01*
X124398641Y-62706737D01*
X124404393Y-62725153D01*
X124429563Y-62835193D01*
X124432389Y-62854280D01*
X124440505Y-62971536D01*
X124440796Y-62981185D01*
X124440437Y-63022045D01*
X124440831Y-63025674D01*
X124440831Y-73078085D01*
X124440636Y-73085036D01*
X124423308Y-73393650D01*
X124421751Y-73407468D01*
X124370563Y-73708760D01*
X124367469Y-73722317D01*
X124282869Y-74015982D01*
X124278277Y-74029108D01*
X124161323Y-74311468D01*
X124155289Y-74323997D01*
X124007459Y-74591478D01*
X124000061Y-74603251D01*
X123823216Y-74852496D01*
X123814546Y-74863368D01*
X123610903Y-75091247D01*
X123601071Y-75101080D01*
X123462967Y-75224499D01*
X123373193Y-75304726D01*
X123362326Y-75313393D01*
X123113076Y-75490247D01*
X123101302Y-75497645D01*
X122833826Y-75645475D01*
X122821297Y-75651509D01*
X122538949Y-75768463D01*
X122525823Y-75773056D01*
X122232149Y-75857661D01*
X122218593Y-75860755D01*
X121917301Y-75911947D01*
X121903483Y-75913504D01*
X121595492Y-75930801D01*
X121588539Y-75930996D01*
X107977960Y-75930996D01*
X107977956Y-75930995D01*
X107818414Y-75930995D01*
X107603909Y-75959236D01*
X107394917Y-76015236D01*
X107195024Y-76098036D01*
X107007645Y-76206221D01*
X106836002Y-76337930D01*
X106835992Y-76337939D01*
X106780676Y-76393254D01*
X106780672Y-76393260D01*
X102583292Y-80590638D01*
X102577330Y-80596220D01*
X102403497Y-80748536D01*
X102390545Y-80758457D01*
X102201616Y-80884369D01*
X102187475Y-80892504D01*
X101983659Y-80992520D01*
X101968571Y-80998729D01*
X101753373Y-81071125D01*
X101737601Y-81075298D01*
X101514773Y-81118813D01*
X101498590Y-81120880D01*
X101267967Y-81135010D01*
X101259813Y-81135241D01*
X101240485Y-81135152D01*
X101229464Y-81135101D01*
X101229463Y-81135101D01*
X101217024Y-81135044D01*
X101215085Y-81135258D01*
X91356825Y-81135258D01*
X91340640Y-81134197D01*
X91324294Y-81132045D01*
X91274410Y-81125477D01*
X91243146Y-81117100D01*
X91189003Y-81094673D01*
X91160971Y-81078489D01*
X91114479Y-81042814D01*
X91091593Y-81019929D01*
X91055917Y-80973439D01*
X91039730Y-80945405D01*
X91017816Y-80892504D01*
X91017301Y-80891261D01*
X91008924Y-80859998D01*
X91004649Y-80827536D01*
X91001763Y-80805614D01*
X91000221Y-80793905D01*
X90999160Y-80777717D01*
X90999160Y-80743965D01*
X90999158Y-80743943D01*
X90999158Y-80738112D01*
X90999153Y-80738064D01*
X90999153Y-80197872D01*
X91497153Y-80197872D01*
X91497153Y-80505318D01*
X91685417Y-80317054D01*
X92389694Y-80317054D01*
X92709898Y-80637258D01*
X92779426Y-80637258D01*
X93099630Y-80317054D01*
X93803908Y-80317054D01*
X94124112Y-80637258D01*
X94193640Y-80637258D01*
X94513844Y-80317054D01*
X95218121Y-80317054D01*
X95538325Y-80637258D01*
X95607853Y-80637258D01*
X95928057Y-80317054D01*
X96632335Y-80317054D01*
X96952539Y-80637258D01*
X97022067Y-80637258D01*
X97342271Y-80317054D01*
X98046548Y-80317054D01*
X98366752Y-80637258D01*
X98436280Y-80637258D01*
X98756484Y-80317054D01*
X99460762Y-80317054D01*
X99780966Y-80637258D01*
X99850494Y-80637258D01*
X100170698Y-80317054D01*
X100874975Y-80317054D01*
X101195179Y-80637258D01*
X101198307Y-80637258D01*
X101203757Y-80636977D01*
X101249794Y-80637189D01*
X101265752Y-80636211D01*
X101584911Y-80317053D01*
X101229943Y-79962085D01*
X100874975Y-80317054D01*
X100170698Y-80317054D01*
X99815730Y-79962086D01*
X99460762Y-80317054D01*
X98756484Y-80317054D01*
X98401516Y-79962086D01*
X98046548Y-80317054D01*
X97342271Y-80317054D01*
X96987303Y-79962086D01*
X96632335Y-80317054D01*
X95928057Y-80317054D01*
X95573089Y-79962086D01*
X95218121Y-80317054D01*
X94513844Y-80317054D01*
X94158876Y-79962086D01*
X93803908Y-80317054D01*
X93099630Y-80317054D01*
X92744662Y-79962086D01*
X92389694Y-80317054D01*
X91685417Y-80317054D01*
X91497184Y-80128821D01*
X91497754Y-80184829D01*
X91497153Y-80197872D01*
X90999153Y-80197872D01*
X90999153Y-80176759D01*
X90999602Y-80172580D01*
X90999493Y-80161845D01*
X90999494Y-80161844D01*
X90999159Y-80128872D01*
X90999153Y-80127612D01*
X90999153Y-80089951D01*
X90998734Y-80085911D01*
X90998441Y-80054680D01*
X90964799Y-79912984D01*
X90903342Y-79787700D01*
X91860340Y-79787700D01*
X92037555Y-79964915D01*
X92214770Y-79787700D01*
X93274554Y-79787700D01*
X93451769Y-79964915D01*
X93628984Y-79787700D01*
X94688767Y-79787700D01*
X94865982Y-79964915D01*
X95043198Y-79787700D01*
X94688767Y-79787700D01*
X93628984Y-79787700D01*
X93274554Y-79787700D01*
X92214770Y-79787700D01*
X91860340Y-79787700D01*
X90903342Y-79787700D01*
X90902426Y-79785832D01*
X90900662Y-79782236D01*
X90900657Y-79782228D01*
X90811071Y-79671220D01*
X90809198Y-79668899D01*
X90809196Y-79668897D01*
X90809195Y-79668896D01*
X90736088Y-79611114D01*
X95926395Y-79611114D01*
X96280196Y-79964915D01*
X96635164Y-79609947D01*
X97339441Y-79609947D01*
X97694409Y-79964915D01*
X98049378Y-79609947D01*
X98753655Y-79609947D01*
X99108623Y-79964915D01*
X99463591Y-79609947D01*
X100167869Y-79609947D01*
X100522837Y-79964915D01*
X100877805Y-79609947D01*
X101582082Y-79609947D01*
X101937050Y-79964915D01*
X102292018Y-79609947D01*
X101937050Y-79254979D01*
X101582082Y-79609947D01*
X100877805Y-79609947D01*
X100522837Y-79254979D01*
X100167869Y-79609947D01*
X99463591Y-79609947D01*
X99108623Y-79254979D01*
X98753655Y-79609947D01*
X98049378Y-79609947D01*
X97694409Y-79254978D01*
X97339441Y-79609947D01*
X96635164Y-79609947D01*
X96297063Y-79271846D01*
X96183334Y-79385575D01*
X96183319Y-79385595D01*
X96035520Y-79533396D01*
X96029592Y-79538948D01*
X96017279Y-79549745D01*
X96011005Y-79554892D01*
X95985121Y-79574751D01*
X95978530Y-79579474D01*
X95964924Y-79588565D01*
X95958031Y-79592852D01*
X95926395Y-79611114D01*
X90736088Y-79611114D01*
X90734611Y-79609947D01*
X90694941Y-79578593D01*
X90645357Y-79554892D01*
X90584027Y-79525576D01*
X90532032Y-79478904D01*
X90513523Y-79411530D01*
X90534377Y-79344846D01*
X90587974Y-79300022D01*
X90637504Y-79289700D01*
X95239531Y-79289700D01*
X95239547Y-79289701D01*
X95247143Y-79289701D01*
X95405254Y-79289701D01*
X95405257Y-79289701D01*
X95557985Y-79248777D01*
X95608104Y-79219839D01*
X95694916Y-79169720D01*
X95806720Y-79057916D01*
X95806720Y-79057914D01*
X95816928Y-79047707D01*
X95816929Y-79047704D01*
X95944926Y-78919707D01*
X96649202Y-78919707D01*
X96987303Y-79257808D01*
X97342271Y-78902840D01*
X98046548Y-78902840D01*
X98401516Y-79257808D01*
X98756484Y-78902840D01*
X99460762Y-78902840D01*
X99815730Y-79257808D01*
X100170698Y-78902840D01*
X100874975Y-78902840D01*
X101229943Y-79257808D01*
X101584911Y-78902840D01*
X102289189Y-78902840D01*
X102644157Y-79257808D01*
X102999125Y-78902840D01*
X102644157Y-78547872D01*
X102289189Y-78902840D01*
X101584911Y-78902840D01*
X101229943Y-78547871D01*
X100874975Y-78902840D01*
X100170698Y-78902840D01*
X99815730Y-78547872D01*
X99460762Y-78902840D01*
X98756484Y-78902840D01*
X98401516Y-78547872D01*
X98046548Y-78902840D01*
X97342271Y-78902840D01*
X97004170Y-78564739D01*
X96649202Y-78919707D01*
X95944926Y-78919707D01*
X96652033Y-78212600D01*
X97356308Y-78212600D01*
X97694409Y-78550702D01*
X98049378Y-78195734D01*
X98753655Y-78195734D01*
X99108623Y-78550702D01*
X99463591Y-78195734D01*
X100167869Y-78195734D01*
X100522837Y-78550702D01*
X100877805Y-78195734D01*
X101582082Y-78195734D01*
X101937050Y-78550702D01*
X102292018Y-78195734D01*
X102996296Y-78195734D01*
X103351264Y-78550702D01*
X103706232Y-78195734D01*
X103351264Y-77840766D01*
X102996296Y-78195734D01*
X102292018Y-78195734D01*
X101937050Y-77840766D01*
X101582082Y-78195734D01*
X100877805Y-78195734D01*
X100522837Y-77840766D01*
X100167869Y-78195734D01*
X99463591Y-78195734D01*
X99108623Y-77840766D01*
X98753655Y-78195734D01*
X98049378Y-78195734D01*
X97711276Y-77857632D01*
X97356308Y-78212600D01*
X96652033Y-78212600D01*
X97359139Y-77505494D01*
X98063415Y-77505494D01*
X98401516Y-77843595D01*
X98756484Y-77488627D01*
X99460762Y-77488627D01*
X99815730Y-77843595D01*
X100170698Y-77488627D01*
X100874975Y-77488627D01*
X101229943Y-77843595D01*
X101584911Y-77488627D01*
X102289189Y-77488627D01*
X102644157Y-77843595D01*
X102999125Y-77488627D01*
X103703403Y-77488627D01*
X104058371Y-77843595D01*
X104413339Y-77488627D01*
X104058371Y-77133659D01*
X103703403Y-77488627D01*
X102999125Y-77488627D01*
X102644157Y-77133659D01*
X102289189Y-77488627D01*
X101584911Y-77488627D01*
X101229943Y-77133658D01*
X100874975Y-77488627D01*
X100170698Y-77488627D01*
X99815730Y-77133659D01*
X99460762Y-77488627D01*
X98756484Y-77488627D01*
X98418383Y-77150526D01*
X98063415Y-77505494D01*
X97359139Y-77505494D01*
X98066246Y-76798387D01*
X98770522Y-76798387D01*
X99108623Y-77136488D01*
X99463591Y-76781520D01*
X100167869Y-76781520D01*
X100522837Y-77136488D01*
X100877805Y-76781520D01*
X101582082Y-76781520D01*
X101937050Y-77136488D01*
X102292018Y-76781520D01*
X102996296Y-76781520D01*
X103351264Y-77136488D01*
X103706232Y-76781520D01*
X104410509Y-76781520D01*
X104765477Y-77136488D01*
X105120445Y-76781520D01*
X104765477Y-76426552D01*
X104410509Y-76781520D01*
X103706232Y-76781520D01*
X103351264Y-76426552D01*
X102996296Y-76781520D01*
X102292018Y-76781520D01*
X101937050Y-76426552D01*
X101582082Y-76781520D01*
X100877805Y-76781520D01*
X100522837Y-76426552D01*
X100167869Y-76781520D01*
X99463591Y-76781520D01*
X99125490Y-76443419D01*
X98770522Y-76798387D01*
X98066246Y-76798387D01*
X98773353Y-76091280D01*
X99477629Y-76091280D01*
X99815730Y-76429381D01*
X100170698Y-76074413D01*
X100874975Y-76074413D01*
X101229943Y-76429381D01*
X101584911Y-76074413D01*
X102289189Y-76074413D01*
X102644157Y-76429381D01*
X102999125Y-76074413D01*
X103703403Y-76074413D01*
X104058371Y-76429381D01*
X104413339Y-76074413D01*
X105117616Y-76074413D01*
X105472584Y-76429381D01*
X105827552Y-76074413D01*
X105472584Y-75719445D01*
X105117616Y-76074413D01*
X104413339Y-76074413D01*
X104058371Y-75719445D01*
X103703403Y-76074413D01*
X102999125Y-76074413D01*
X102644157Y-75719445D01*
X102289189Y-76074413D01*
X101584911Y-76074413D01*
X101229943Y-75719444D01*
X100874975Y-76074413D01*
X100170698Y-76074413D01*
X99832597Y-75736312D01*
X99477629Y-76091280D01*
X98773353Y-76091280D01*
X99480459Y-75384174D01*
X100184736Y-75384174D01*
X100522837Y-75722274D01*
X100877805Y-75367306D01*
X101582081Y-75367306D01*
X101937050Y-75722274D01*
X102292018Y-75367306D01*
X102292017Y-75367305D01*
X102996295Y-75367305D01*
X103351264Y-75722274D01*
X103706232Y-75367306D01*
X104410508Y-75367306D01*
X104765477Y-75722274D01*
X105120445Y-75367306D01*
X105120444Y-75367305D01*
X105824722Y-75367305D01*
X106179691Y-75722274D01*
X106534659Y-75367306D01*
X107238936Y-75367306D01*
X107376289Y-75504659D01*
X107482885Y-75476097D01*
X107486815Y-75475112D01*
X107494782Y-75473254D01*
X107498755Y-75472396D01*
X107514743Y-75469216D01*
X107518734Y-75468490D01*
X107526808Y-75467157D01*
X107530822Y-75466562D01*
X107761494Y-75436193D01*
X107765524Y-75435729D01*
X107773666Y-75434927D01*
X107777711Y-75434595D01*
X107793976Y-75433529D01*
X107798025Y-75433331D01*
X107806203Y-75433063D01*
X107810263Y-75432996D01*
X107883182Y-75432995D01*
X107948871Y-75367306D01*
X108653150Y-75367306D01*
X108718840Y-75432996D01*
X109297396Y-75432996D01*
X109363086Y-75367306D01*
X110067364Y-75367306D01*
X110133054Y-75432996D01*
X110711610Y-75432996D01*
X110777300Y-75367306D01*
X111481577Y-75367306D01*
X111547267Y-75432996D01*
X112125823Y-75432996D01*
X112191513Y-75367306D01*
X112895791Y-75367306D01*
X112961481Y-75432996D01*
X113540037Y-75432996D01*
X113605727Y-75367306D01*
X114310004Y-75367306D01*
X114375694Y-75432996D01*
X114954250Y-75432996D01*
X115019940Y-75367306D01*
X115724218Y-75367306D01*
X115789908Y-75432996D01*
X116368464Y-75432996D01*
X116434154Y-75367306D01*
X117138431Y-75367306D01*
X117204121Y-75432996D01*
X117782678Y-75432996D01*
X117848367Y-75367306D01*
X118552645Y-75367306D01*
X118618335Y-75432996D01*
X119196891Y-75432996D01*
X119262581Y-75367306D01*
X119966858Y-75367306D01*
X120032548Y-75432996D01*
X120611105Y-75432996D01*
X120676795Y-75367306D01*
X121381072Y-75367306D01*
X121446762Y-75432996D01*
X121578038Y-75432996D01*
X121854588Y-75417464D01*
X122078973Y-75379338D01*
X122091007Y-75367305D01*
X121736040Y-75012338D01*
X121381072Y-75367306D01*
X120676795Y-75367306D01*
X120321826Y-75012337D01*
X119966858Y-75367306D01*
X119262581Y-75367306D01*
X118907613Y-75012338D01*
X118552645Y-75367306D01*
X117848367Y-75367306D01*
X117493399Y-75012337D01*
X117138431Y-75367306D01*
X116434154Y-75367306D01*
X116079186Y-75012338D01*
X115724218Y-75367306D01*
X115019940Y-75367306D01*
X114664972Y-75012338D01*
X114310004Y-75367306D01*
X113605727Y-75367306D01*
X113250759Y-75012338D01*
X112895791Y-75367306D01*
X112191513Y-75367306D01*
X111836545Y-75012338D01*
X111481577Y-75367306D01*
X110777300Y-75367306D01*
X110422332Y-75012338D01*
X110067364Y-75367306D01*
X109363086Y-75367306D01*
X109008118Y-75012338D01*
X108653150Y-75367306D01*
X107948871Y-75367306D01*
X107948872Y-75367305D01*
X107593904Y-75012337D01*
X107238936Y-75367306D01*
X106534659Y-75367306D01*
X106185874Y-75018521D01*
X106178354Y-75024585D01*
X106172851Y-75028774D01*
X106161522Y-75036909D01*
X106155795Y-75040784D01*
X106143267Y-75048760D01*
X105824722Y-75367305D01*
X105120444Y-75367305D01*
X104977638Y-75224499D01*
X104553316Y-75224499D01*
X104410508Y-75367306D01*
X103706232Y-75367306D01*
X103351263Y-75012337D01*
X102996295Y-75367305D01*
X102292017Y-75367305D01*
X101937050Y-75012338D01*
X101582081Y-75367306D01*
X100877805Y-75367306D01*
X100539705Y-75029206D01*
X100184736Y-75384174D01*
X99480459Y-75384174D01*
X100187565Y-74677068D01*
X100891843Y-74677068D01*
X101229943Y-75015168D01*
X101584911Y-74660200D01*
X102289189Y-74660200D01*
X102644157Y-75015168D01*
X102999125Y-74660200D01*
X102644157Y-74305232D01*
X102289189Y-74660200D01*
X101584911Y-74660200D01*
X101246811Y-74322099D01*
X100891843Y-74677068D01*
X100187565Y-74677068D01*
X100894672Y-73969961D01*
X101598950Y-73969961D01*
X101937050Y-74308061D01*
X102292018Y-73953093D01*
X101953918Y-73614993D01*
X101598950Y-73969961D01*
X100894672Y-73969961D01*
X101601780Y-73262854D01*
X102306057Y-73262854D01*
X102644157Y-73600954D01*
X102876497Y-73368614D01*
X102876497Y-73123358D01*
X102661025Y-72907886D01*
X102306057Y-73262854D01*
X101601780Y-73262854D01*
X102361905Y-72502729D01*
X103374494Y-72502729D01*
X103374494Y-72502734D01*
X103374497Y-72570067D01*
X103374497Y-74118928D01*
X103374501Y-74118965D01*
X103374501Y-74149298D01*
X103407118Y-74292204D01*
X103470717Y-74424269D01*
X103470718Y-74424271D01*
X103470720Y-74424274D01*
X103542117Y-74513804D01*
X103562115Y-74538881D01*
X103676719Y-74630276D01*
X103676724Y-74630279D01*
X103738854Y-74660199D01*
X103808791Y-74693879D01*
X103951703Y-74726498D01*
X103970394Y-74726498D01*
X103970398Y-74726499D01*
X103995061Y-74726499D01*
X104024996Y-74726499D01*
X104059347Y-74726499D01*
X105481920Y-74726499D01*
X105485790Y-74726916D01*
X105496747Y-74726813D01*
X105496749Y-74726814D01*
X105529818Y-74726504D01*
X105530980Y-74726499D01*
X105568961Y-74726499D01*
X105572771Y-74726105D01*
X105603951Y-74725835D01*
X105745744Y-74692271D01*
X105811219Y-74660199D01*
X106531829Y-74660199D01*
X106886798Y-75015168D01*
X107241766Y-74660200D01*
X107946043Y-74660200D01*
X108301011Y-75015168D01*
X108655979Y-74660200D01*
X109360257Y-74660200D01*
X109715225Y-75015168D01*
X110070193Y-74660200D01*
X110774470Y-74660200D01*
X111129438Y-75015168D01*
X111484406Y-74660200D01*
X112188684Y-74660200D01*
X112543652Y-75015168D01*
X112898620Y-74660200D01*
X113602897Y-74660200D01*
X113957865Y-75015168D01*
X114312834Y-74660200D01*
X115017111Y-74660200D01*
X115372079Y-75015168D01*
X115727047Y-74660200D01*
X116431325Y-74660200D01*
X116786293Y-75015168D01*
X117141261Y-74660200D01*
X117845538Y-74660200D01*
X118200506Y-75015168D01*
X118555474Y-74660200D01*
X119259752Y-74660200D01*
X119614720Y-75015168D01*
X119969688Y-74660200D01*
X120673965Y-74660200D01*
X121028933Y-75015168D01*
X121383901Y-74660200D01*
X122088179Y-74660200D01*
X122443147Y-75015168D01*
X122798115Y-74660200D01*
X122443147Y-74305232D01*
X122088179Y-74660200D01*
X121383901Y-74660200D01*
X121028933Y-74305232D01*
X120673965Y-74660200D01*
X119969688Y-74660200D01*
X119614720Y-74305232D01*
X119259752Y-74660200D01*
X118555474Y-74660200D01*
X118200506Y-74305232D01*
X117845538Y-74660200D01*
X117141261Y-74660200D01*
X116786293Y-74305232D01*
X116431325Y-74660200D01*
X115727047Y-74660200D01*
X115372079Y-74305232D01*
X115017111Y-74660200D01*
X114312834Y-74660200D01*
X113957865Y-74305231D01*
X113602897Y-74660200D01*
X112898620Y-74660200D01*
X112543652Y-74305232D01*
X112188684Y-74660200D01*
X111484406Y-74660200D01*
X111129438Y-74305231D01*
X110774470Y-74660200D01*
X110070193Y-74660200D01*
X109715225Y-74305232D01*
X109360257Y-74660200D01*
X108655979Y-74660200D01*
X108301011Y-74305232D01*
X107946043Y-74660200D01*
X107241766Y-74660200D01*
X106886797Y-74305231D01*
X106531829Y-74660199D01*
X105811219Y-74660199D01*
X105876601Y-74628173D01*
X105990036Y-74536717D01*
X106080430Y-74422433D01*
X106080430Y-74422431D01*
X106080432Y-74422430D01*
X106080433Y-74422428D01*
X106133506Y-74311468D01*
X106143304Y-74290984D01*
X106175543Y-74148883D01*
X106175497Y-74076027D01*
X106175498Y-74041677D01*
X106175497Y-74041674D01*
X106175497Y-73953093D01*
X107238936Y-73953093D01*
X107593904Y-74308061D01*
X107948873Y-73953093D01*
X108653150Y-73953093D01*
X109008118Y-74308061D01*
X109363086Y-73953093D01*
X110067364Y-73953093D01*
X110422332Y-74308061D01*
X110777300Y-73953093D01*
X111481577Y-73953093D01*
X111836545Y-74308061D01*
X112191513Y-73953093D01*
X112895791Y-73953093D01*
X113250759Y-74308061D01*
X113605727Y-73953093D01*
X114310004Y-73953093D01*
X114664972Y-74308061D01*
X115019940Y-73953093D01*
X115724218Y-73953093D01*
X116079186Y-74308061D01*
X116434154Y-73953093D01*
X117138431Y-73953093D01*
X117493399Y-74308061D01*
X117848367Y-73953093D01*
X118552645Y-73953093D01*
X118907613Y-74308061D01*
X119262581Y-73953093D01*
X119966858Y-73953093D01*
X120321826Y-74308061D01*
X120676795Y-73953093D01*
X121381072Y-73953093D01*
X121736040Y-74308061D01*
X122091008Y-73953093D01*
X122795286Y-73953093D01*
X123150254Y-74308061D01*
X123505222Y-73953093D01*
X123150254Y-73598125D01*
X122795286Y-73953093D01*
X122091008Y-73953093D01*
X121736040Y-73598125D01*
X121381072Y-73953093D01*
X120676795Y-73953093D01*
X120321826Y-73598124D01*
X119966858Y-73953093D01*
X119262581Y-73953093D01*
X118907613Y-73598125D01*
X118552645Y-73953093D01*
X117848367Y-73953093D01*
X117493399Y-73598124D01*
X117138431Y-73953093D01*
X116434154Y-73953093D01*
X116079186Y-73598125D01*
X115724218Y-73953093D01*
X115019940Y-73953093D01*
X114664972Y-73598125D01*
X114310004Y-73953093D01*
X113605727Y-73953093D01*
X113250759Y-73598125D01*
X112895791Y-73953093D01*
X112191513Y-73953093D01*
X111836545Y-73598125D01*
X111481577Y-73953093D01*
X110777300Y-73953093D01*
X110422332Y-73598125D01*
X110067364Y-73953093D01*
X109363086Y-73953093D01*
X109008118Y-73598125D01*
X108653150Y-73953093D01*
X107948873Y-73953093D01*
X107593904Y-73598124D01*
X107238936Y-73953093D01*
X106175497Y-73953093D01*
X106175497Y-73104319D01*
X106673497Y-73104319D01*
X106673497Y-73387653D01*
X106886798Y-73600954D01*
X107241766Y-73245986D01*
X107946043Y-73245986D01*
X108301011Y-73600954D01*
X108655979Y-73245986D01*
X109360257Y-73245986D01*
X109715225Y-73600954D01*
X110070193Y-73245986D01*
X110774470Y-73245986D01*
X111129438Y-73600954D01*
X111484406Y-73245986D01*
X112188684Y-73245986D01*
X112543652Y-73600954D01*
X112898620Y-73245986D01*
X113602897Y-73245986D01*
X113957865Y-73600954D01*
X114312834Y-73245986D01*
X115017111Y-73245986D01*
X115372079Y-73600954D01*
X115727047Y-73245986D01*
X116431325Y-73245986D01*
X116786293Y-73600954D01*
X117141261Y-73245986D01*
X117845538Y-73245986D01*
X118200506Y-73600954D01*
X118555474Y-73245986D01*
X119259752Y-73245986D01*
X119614720Y-73600954D01*
X119969688Y-73245986D01*
X120673965Y-73245986D01*
X121028933Y-73600954D01*
X121383901Y-73245986D01*
X122088179Y-73245986D01*
X122443147Y-73600954D01*
X122798115Y-73245986D01*
X123502392Y-73245986D01*
X123857359Y-73600953D01*
X123889142Y-73569170D01*
X123927267Y-73344767D01*
X123942831Y-73067589D01*
X123942831Y-72976488D01*
X123857360Y-72891017D01*
X123502392Y-73245986D01*
X122798115Y-73245986D01*
X122443147Y-72891018D01*
X122088179Y-73245986D01*
X121383901Y-73245986D01*
X121028933Y-72891018D01*
X120673965Y-73245986D01*
X119969688Y-73245986D01*
X119614720Y-72891018D01*
X119259752Y-73245986D01*
X118555474Y-73245986D01*
X118200506Y-72891018D01*
X117845538Y-73245986D01*
X117141261Y-73245986D01*
X116786293Y-72891018D01*
X116431325Y-73245986D01*
X115727047Y-73245986D01*
X115372079Y-72891018D01*
X115017111Y-73245986D01*
X114312834Y-73245986D01*
X113957865Y-72891017D01*
X113602897Y-73245986D01*
X112898620Y-73245986D01*
X112543652Y-72891018D01*
X112188684Y-73245986D01*
X111484406Y-73245986D01*
X111129438Y-72891017D01*
X110774470Y-73245986D01*
X110070193Y-73245986D01*
X109715225Y-72891018D01*
X109360257Y-73245986D01*
X108655979Y-73245986D01*
X108301011Y-72891018D01*
X107946043Y-73245986D01*
X107241766Y-73245986D01*
X106886798Y-72891018D01*
X106673497Y-73104319D01*
X106175497Y-73104319D01*
X106175497Y-72619228D01*
X106175904Y-72615462D01*
X106175502Y-72571272D01*
X106175497Y-72570143D01*
X106175497Y-72538879D01*
X107238936Y-72538879D01*
X107593904Y-72893847D01*
X107948873Y-72538879D01*
X108653150Y-72538879D01*
X109008118Y-72893847D01*
X109363086Y-72538879D01*
X110067364Y-72538879D01*
X110422332Y-72893847D01*
X110777300Y-72538879D01*
X111481577Y-72538879D01*
X111836545Y-72893847D01*
X112191513Y-72538879D01*
X112895791Y-72538879D01*
X113250759Y-72893847D01*
X113605727Y-72538879D01*
X114310004Y-72538879D01*
X114664972Y-72893847D01*
X115019940Y-72538879D01*
X115724218Y-72538879D01*
X116079186Y-72893847D01*
X116434154Y-72538879D01*
X117138431Y-72538879D01*
X117493399Y-72893847D01*
X117848367Y-72538879D01*
X118552645Y-72538879D01*
X118907613Y-72893847D01*
X119262581Y-72538879D01*
X119966858Y-72538879D01*
X120321826Y-72893847D01*
X120676795Y-72538879D01*
X121381072Y-72538879D01*
X121736040Y-72893847D01*
X122091008Y-72538879D01*
X122795286Y-72538879D01*
X123150254Y-72893847D01*
X123505222Y-72538879D01*
X123150254Y-72183911D01*
X122795286Y-72538879D01*
X122091008Y-72538879D01*
X121736040Y-72183911D01*
X121381072Y-72538879D01*
X120676795Y-72538879D01*
X120321826Y-72183910D01*
X119966858Y-72538879D01*
X119262581Y-72538879D01*
X118907613Y-72183911D01*
X118552645Y-72538879D01*
X117848367Y-72538879D01*
X117493399Y-72183910D01*
X117138431Y-72538879D01*
X116434154Y-72538879D01*
X116079186Y-72183911D01*
X115724218Y-72538879D01*
X115019940Y-72538879D01*
X114664972Y-72183911D01*
X114310004Y-72538879D01*
X113605727Y-72538879D01*
X113250759Y-72183911D01*
X112895791Y-72538879D01*
X112191513Y-72538879D01*
X111836545Y-72183911D01*
X111481577Y-72538879D01*
X110777300Y-72538879D01*
X110422332Y-72183911D01*
X110067364Y-72538879D01*
X109363086Y-72538879D01*
X109008118Y-72183911D01*
X108653150Y-72538879D01*
X107948873Y-72538879D01*
X107593904Y-72183910D01*
X107238936Y-72538879D01*
X106175497Y-72538879D01*
X106175497Y-72532063D01*
X106175120Y-72528414D01*
X106174857Y-72497199D01*
X106141316Y-72355370D01*
X106077227Y-72224477D01*
X105985767Y-72111008D01*
X105973457Y-72101270D01*
X105942884Y-72077084D01*
X105871468Y-72020587D01*
X105739995Y-71957695D01*
X105739993Y-71957694D01*
X105739992Y-71957694D01*
X105597862Y-71925450D01*
X105524996Y-71925499D01*
X104076360Y-71925499D01*
X104076349Y-71925496D01*
X103951704Y-71925497D01*
X103951701Y-71925497D01*
X103951700Y-71925498D01*
X103810647Y-71957694D01*
X103808781Y-71958120D01*
X103676715Y-72021721D01*
X103562102Y-72113126D01*
X103470708Y-72227736D01*
X103470706Y-72227740D01*
X103407107Y-72359816D01*
X103374494Y-72502729D01*
X102361905Y-72502729D01*
X103032863Y-71831772D01*
X106531829Y-71831772D01*
X106886798Y-72186741D01*
X107241766Y-71831772D01*
X107946042Y-71831772D01*
X108301011Y-72186741D01*
X108655979Y-71831772D01*
X109360256Y-71831772D01*
X109715225Y-72186741D01*
X110042265Y-71859700D01*
X110802397Y-71859700D01*
X111129438Y-72186741D01*
X111484406Y-71831772D01*
X112188683Y-71831772D01*
X112543652Y-72186741D01*
X112898620Y-71831772D01*
X113602897Y-71831772D01*
X113957865Y-72186741D01*
X114312834Y-71831772D01*
X115017110Y-71831772D01*
X115372079Y-72186741D01*
X115727047Y-71831772D01*
X116431324Y-71831772D01*
X116786293Y-72186741D01*
X117141261Y-71831772D01*
X117845537Y-71831772D01*
X118200506Y-72186741D01*
X118555474Y-71831773D01*
X119259752Y-71831773D01*
X119614720Y-72186741D01*
X119969688Y-71831773D01*
X119969687Y-71831772D01*
X120673964Y-71831772D01*
X121028933Y-72186741D01*
X121383901Y-71831772D01*
X122088178Y-71831772D01*
X122443147Y-72186741D01*
X122798115Y-71831772D01*
X123502391Y-71831772D01*
X123857360Y-72186741D01*
X123942831Y-72101270D01*
X123942831Y-71562275D01*
X123857360Y-71476804D01*
X123502391Y-71831772D01*
X122798115Y-71831772D01*
X122443147Y-71476804D01*
X122088178Y-71831772D01*
X121383901Y-71831772D01*
X121028933Y-71476804D01*
X120673964Y-71831772D01*
X119969687Y-71831772D01*
X119872016Y-71734101D01*
X119357424Y-71734101D01*
X119259752Y-71831773D01*
X118555474Y-71831773D01*
X118457874Y-71734173D01*
X118451910Y-71734179D01*
X118444991Y-71733992D01*
X118431041Y-71733225D01*
X118424133Y-71732651D01*
X118396465Y-71729572D01*
X118389605Y-71728614D01*
X118375829Y-71726296D01*
X118369034Y-71724957D01*
X118200091Y-71686724D01*
X118193410Y-71685015D01*
X118180034Y-71681195D01*
X118173456Y-71679117D01*
X118147259Y-71670032D01*
X118140804Y-71667590D01*
X118127928Y-71662305D01*
X118121621Y-71659509D01*
X118051332Y-71625976D01*
X117845537Y-71831772D01*
X117141261Y-71831772D01*
X116786293Y-71476804D01*
X116431324Y-71831772D01*
X115727047Y-71831772D01*
X115372079Y-71476804D01*
X115017110Y-71831772D01*
X114312834Y-71831772D01*
X113957865Y-71476804D01*
X113602897Y-71831772D01*
X112898620Y-71831772D01*
X112543652Y-71476804D01*
X112188683Y-71831772D01*
X111484406Y-71831772D01*
X111392702Y-71740068D01*
X111258375Y-71795708D01*
X111252700Y-71797898D01*
X111241147Y-71802032D01*
X111235366Y-71803941D01*
X111211961Y-71811041D01*
X111206106Y-71812662D01*
X111194198Y-71815646D01*
X111188248Y-71816982D01*
X111009603Y-71852517D01*
X111003603Y-71853558D01*
X110991459Y-71855359D01*
X110985420Y-71856104D01*
X110961079Y-71858501D01*
X110955010Y-71858949D01*
X110942753Y-71859551D01*
X110936670Y-71859700D01*
X110802397Y-71859700D01*
X110042265Y-71859700D01*
X110070193Y-71831772D01*
X109898121Y-71659700D01*
X109532329Y-71659700D01*
X109360256Y-71831772D01*
X108655979Y-71831772D01*
X108483907Y-71659700D01*
X108118115Y-71659700D01*
X107946042Y-71831772D01*
X107241766Y-71831772D01*
X107069694Y-71659700D01*
X106703902Y-71659700D01*
X106531829Y-71831772D01*
X103032863Y-71831772D01*
X103421512Y-71443123D01*
X111800034Y-71443123D01*
X111836545Y-71479634D01*
X112191513Y-71124666D01*
X112895791Y-71124666D01*
X113250759Y-71479634D01*
X113605727Y-71124666D01*
X114310004Y-71124666D01*
X114664972Y-71479634D01*
X115019940Y-71124666D01*
X115724218Y-71124666D01*
X116079186Y-71479634D01*
X116434154Y-71124666D01*
X117138431Y-71124666D01*
X117493399Y-71479634D01*
X117653996Y-71319036D01*
X117590776Y-71240946D01*
X117586582Y-71235461D01*
X117578443Y-71224177D01*
X117574569Y-71218479D01*
X117559623Y-71195125D01*
X117556067Y-71189212D01*
X117549230Y-71177093D01*
X117546009Y-71170992D01*
X117469445Y-71015678D01*
X117466567Y-71009406D01*
X117461119Y-70996604D01*
X117458596Y-70990187D01*
X117449174Y-70964111D01*
X117447013Y-70957566D01*
X117443019Y-70944237D01*
X117441222Y-70937570D01*
X117418837Y-70844259D01*
X117138431Y-71124666D01*
X116434154Y-71124666D01*
X116079186Y-70769698D01*
X115724218Y-71124666D01*
X115019940Y-71124666D01*
X114664972Y-70769698D01*
X114310004Y-71124666D01*
X113605727Y-71124666D01*
X113250759Y-70769698D01*
X112895791Y-71124666D01*
X112191513Y-71124666D01*
X112068601Y-71001754D01*
X112010407Y-71142251D01*
X112007941Y-71147815D01*
X112002694Y-71158909D01*
X111999958Y-71164345D01*
X111988429Y-71185915D01*
X111985433Y-71191204D01*
X111979122Y-71201735D01*
X111975861Y-71206885D01*
X111874667Y-71358331D01*
X111871164Y-71363305D01*
X111863853Y-71373163D01*
X111860107Y-71377964D01*
X111844591Y-71396870D01*
X111840622Y-71401471D01*
X111832379Y-71410567D01*
X111828176Y-71414981D01*
X111800034Y-71443123D01*
X103421512Y-71443123D01*
X103666616Y-71198019D01*
X103727939Y-71164534D01*
X103754297Y-71161700D01*
X110265834Y-71161700D01*
X110332873Y-71181385D01*
X110334725Y-71182598D01*
X110466414Y-71270590D01*
X110466427Y-71270597D01*
X110583371Y-71319036D01*
X110612103Y-71330937D01*
X110749821Y-71358331D01*
X110766753Y-71361699D01*
X110766756Y-71361700D01*
X110766758Y-71361700D01*
X110924444Y-71361700D01*
X110924445Y-71361699D01*
X111079097Y-71330937D01*
X111224779Y-71270594D01*
X111355889Y-71182989D01*
X111467389Y-71071489D01*
X111554994Y-70940379D01*
X111555830Y-70938362D01*
X111599588Y-70832719D01*
X111615337Y-70794697D01*
X111646100Y-70640042D01*
X111646100Y-70482358D01*
X111646100Y-70482355D01*
X111646099Y-70482353D01*
X111633210Y-70417558D01*
X112188683Y-70417558D01*
X112543652Y-70772527D01*
X112898620Y-70417559D01*
X113602897Y-70417559D01*
X113957865Y-70772527D01*
X114312834Y-70417559D01*
X115017111Y-70417559D01*
X115372079Y-70772527D01*
X115727047Y-70417559D01*
X116431325Y-70417559D01*
X116786293Y-70772527D01*
X117013092Y-70545728D01*
X117886851Y-70545728D01*
X117887241Y-70576086D01*
X117887242Y-70576191D01*
X117887448Y-70593364D01*
X117887457Y-70594851D01*
X117887457Y-70630318D01*
X117887945Y-70634995D01*
X117888322Y-70666494D01*
X117888323Y-70666499D01*
X117922248Y-70807915D01*
X117922251Y-70807923D01*
X117986552Y-70938362D01*
X117986554Y-70938365D01*
X118078060Y-71051393D01*
X118078063Y-71051396D01*
X118078065Y-71051398D01*
X118192269Y-71141446D01*
X118323532Y-71204066D01*
X118465379Y-71236167D01*
X118538030Y-71236101D01*
X118538097Y-71236101D01*
X120080067Y-71236101D01*
X120080473Y-71236060D01*
X120111138Y-71236062D01*
X120111230Y-71236063D01*
X120111230Y-71236062D01*
X120111235Y-71236063D01*
X120254144Y-71203457D01*
X120386215Y-71139867D01*
X120405279Y-71124666D01*
X121381072Y-71124666D01*
X121736040Y-71479634D01*
X122091008Y-71124666D01*
X122795286Y-71124666D01*
X123150254Y-71479634D01*
X123505222Y-71124666D01*
X123150254Y-70769698D01*
X122795286Y-71124666D01*
X122091008Y-71124666D01*
X121736040Y-70769698D01*
X121381072Y-71124666D01*
X120405279Y-71124666D01*
X120497170Y-71051396D01*
X120500817Y-71048488D01*
X120500818Y-71048486D01*
X120500823Y-71048483D01*
X120592223Y-70933886D01*
X120655829Y-70801824D01*
X120688454Y-70658918D01*
X120688454Y-70640226D01*
X120688457Y-70640215D01*
X120688457Y-70576086D01*
X120688458Y-70551277D01*
X120688457Y-70551274D01*
X120688457Y-70532401D01*
X121186457Y-70532401D01*
X121186458Y-70532418D01*
X121186457Y-70584531D01*
X121186457Y-70615003D01*
X121383901Y-70417559D01*
X122088179Y-70417559D01*
X122443147Y-70772527D01*
X122798115Y-70417559D01*
X123502392Y-70417559D01*
X123857360Y-70772527D01*
X123942831Y-70687056D01*
X123942831Y-70148061D01*
X123857360Y-70062590D01*
X123502392Y-70417559D01*
X122798115Y-70417559D01*
X122443147Y-70062591D01*
X122088179Y-70417559D01*
X121383901Y-70417559D01*
X121186457Y-70220115D01*
X121186457Y-70532401D01*
X120688457Y-70532401D01*
X120688457Y-69710452D01*
X121381072Y-69710452D01*
X121736040Y-70065420D01*
X122091008Y-69710452D01*
X122795286Y-69710452D01*
X123150254Y-70065420D01*
X123505222Y-69710452D01*
X123150254Y-69355484D01*
X122795286Y-69710452D01*
X122091008Y-69710452D01*
X121736040Y-69355484D01*
X121381072Y-69710452D01*
X120688457Y-69710452D01*
X120688457Y-69137005D01*
X120688499Y-69136861D01*
X120688499Y-69012307D01*
X120688498Y-69012303D01*
X120683723Y-68991381D01*
X120655880Y-68869395D01*
X120614726Y-68783938D01*
X120603923Y-68761505D01*
X121142061Y-68761505D01*
X121177124Y-68915118D01*
X121178482Y-68921945D01*
X121180832Y-68935779D01*
X121181803Y-68942663D01*
X121184933Y-68970444D01*
X121185518Y-68977378D01*
X121186304Y-68991381D01*
X121186499Y-68998330D01*
X121186499Y-69186691D01*
X121186457Y-69186901D01*
X121186457Y-69200789D01*
X121383901Y-69003345D01*
X122088178Y-69003345D01*
X122443147Y-69358313D01*
X122798115Y-69003345D01*
X123502391Y-69003345D01*
X123857360Y-69358313D01*
X123942831Y-69272843D01*
X123942831Y-68733847D01*
X123857360Y-68648376D01*
X123502391Y-69003345D01*
X122798115Y-69003345D01*
X122443147Y-68648377D01*
X122088178Y-69003345D01*
X121383901Y-69003345D01*
X121142061Y-68761505D01*
X120603923Y-68761505D01*
X120592280Y-68737327D01*
X120592277Y-68737322D01*
X120502522Y-68624772D01*
X120500882Y-68622716D01*
X120386274Y-68531321D01*
X120254203Y-68467719D01*
X120254201Y-68467718D01*
X120111295Y-68435101D01*
X120111290Y-68435101D01*
X120067933Y-68435101D01*
X118583257Y-68435101D01*
X118581791Y-68434670D01*
X118580431Y-68434682D01*
X118580371Y-68434675D01*
X118570340Y-68434765D01*
X118570272Y-68434766D01*
X118532178Y-68435083D01*
X118530492Y-68435097D01*
X118529464Y-68435101D01*
X118493953Y-68435101D01*
X118490770Y-68435427D01*
X118461035Y-68435674D01*
X118459296Y-68435689D01*
X118459294Y-68435689D01*
X118317434Y-68469216D01*
X118317431Y-68469217D01*
X118186513Y-68533300D01*
X118186503Y-68533306D01*
X118073010Y-68624771D01*
X118073007Y-68624774D01*
X117982564Y-68739089D01*
X117919659Y-68870583D01*
X117919658Y-68870586D01*
X117887407Y-69012745D01*
X117887457Y-69085600D01*
X117887457Y-70542852D01*
X117886866Y-70544862D01*
X117886874Y-70545493D01*
X117886851Y-70545728D01*
X117013092Y-70545728D01*
X117141261Y-70417559D01*
X116786293Y-70062591D01*
X116431325Y-70417559D01*
X115727047Y-70417559D01*
X115372079Y-70062591D01*
X115017111Y-70417559D01*
X114312834Y-70417559D01*
X113957865Y-70062590D01*
X113602897Y-70417559D01*
X112898620Y-70417559D01*
X112543651Y-70062590D01*
X112188683Y-70417558D01*
X111633210Y-70417558D01*
X111615337Y-70327703D01*
X111570773Y-70220115D01*
X111554997Y-70182027D01*
X111554990Y-70182014D01*
X111467389Y-70050911D01*
X111467386Y-70050907D01*
X111355892Y-69939413D01*
X111355888Y-69939410D01*
X111296127Y-69899479D01*
X111251322Y-69845867D01*
X111244931Y-69794985D01*
X111895325Y-69794985D01*
X111975861Y-69915515D01*
X111979122Y-69920665D01*
X111979937Y-69922026D01*
X112191511Y-69710452D01*
X112895791Y-69710452D01*
X113250759Y-70065420D01*
X113605727Y-69710452D01*
X114310004Y-69710452D01*
X114664972Y-70065420D01*
X115019940Y-69710452D01*
X115724218Y-69710452D01*
X116079186Y-70065420D01*
X116434154Y-69710452D01*
X117138431Y-69710452D01*
X117389457Y-69961478D01*
X117389457Y-69459426D01*
X117138431Y-69710452D01*
X116434154Y-69710452D01*
X116079186Y-69355484D01*
X115724218Y-69710452D01*
X115019940Y-69710452D01*
X114664972Y-69355484D01*
X114310004Y-69710452D01*
X113605727Y-69710452D01*
X113250759Y-69355484D01*
X112895791Y-69710452D01*
X112191511Y-69710452D01*
X112191512Y-69710451D01*
X112085686Y-69604625D01*
X111895325Y-69794985D01*
X111244931Y-69794985D01*
X111242615Y-69776542D01*
X111272769Y-69713515D01*
X111277316Y-69708717D01*
X111733548Y-69252486D01*
X112437824Y-69252486D01*
X112543652Y-69358313D01*
X112898620Y-69003345D01*
X113602897Y-69003345D01*
X113957865Y-69358313D01*
X114312834Y-69003345D01*
X115017110Y-69003345D01*
X115372079Y-69358313D01*
X115727047Y-69003345D01*
X116431324Y-69003345D01*
X116786293Y-69358313D01*
X117141261Y-69003345D01*
X116786293Y-68648377D01*
X116431324Y-69003345D01*
X115727047Y-69003345D01*
X115372079Y-68648377D01*
X115017110Y-69003345D01*
X114312834Y-69003345D01*
X113957865Y-68648376D01*
X113602897Y-69003345D01*
X112898620Y-69003345D01*
X112792793Y-68897518D01*
X112437824Y-69252486D01*
X111733548Y-69252486D01*
X112394171Y-68591864D01*
X113191416Y-68591864D01*
X113250759Y-68651207D01*
X113379491Y-68522474D01*
X113264975Y-68569908D01*
X113259300Y-68572098D01*
X113247747Y-68576232D01*
X113241966Y-68578141D01*
X113218561Y-68585241D01*
X113212706Y-68586862D01*
X113200798Y-68589846D01*
X113194848Y-68591182D01*
X113191416Y-68591864D01*
X112394171Y-68591864D01*
X112689797Y-68296239D01*
X114310004Y-68296239D01*
X114664972Y-68651207D01*
X115019940Y-68296239D01*
X115724218Y-68296239D01*
X116079186Y-68651207D01*
X116434154Y-68296239D01*
X117138431Y-68296239D01*
X117479300Y-68637108D01*
X117539322Y-68511641D01*
X117542478Y-68505490D01*
X117549189Y-68493263D01*
X117552685Y-68487295D01*
X117567398Y-68463710D01*
X117571224Y-68457941D01*
X117579257Y-68446535D01*
X117583393Y-68440998D01*
X117691087Y-68304878D01*
X117695532Y-68299570D01*
X117698484Y-68296239D01*
X121381072Y-68296239D01*
X121736040Y-68651207D01*
X122091008Y-68296239D01*
X122795286Y-68296239D01*
X123150254Y-68651207D01*
X123505222Y-68296239D01*
X123150254Y-67941271D01*
X122795286Y-68296239D01*
X122091008Y-68296239D01*
X121736040Y-67941271D01*
X121381072Y-68296239D01*
X117698484Y-68296239D01*
X117704789Y-68289125D01*
X117709518Y-68284080D01*
X117729086Y-68264337D01*
X117734087Y-68259565D01*
X117744438Y-68250225D01*
X117749698Y-68245738D01*
X117776370Y-68224242D01*
X117493399Y-67941270D01*
X117138431Y-68296239D01*
X116434154Y-68296239D01*
X116079186Y-67941271D01*
X115724218Y-68296239D01*
X115019940Y-68296239D01*
X114664972Y-67941271D01*
X114310004Y-68296239D01*
X112689797Y-68296239D01*
X112813817Y-68172219D01*
X112875140Y-68138734D01*
X112901498Y-68135900D01*
X112931044Y-68135900D01*
X112931045Y-68135899D01*
X113085697Y-68105137D01*
X113231379Y-68044794D01*
X113362489Y-67957189D01*
X113456987Y-67862691D01*
X114039274Y-67862691D01*
X114312834Y-67589132D01*
X115017111Y-67589132D01*
X115372079Y-67944100D01*
X115727047Y-67589132D01*
X116431325Y-67589132D01*
X116786293Y-67944100D01*
X117141261Y-67589132D01*
X117845538Y-67589132D01*
X118200505Y-67944099D01*
X118555472Y-67589132D01*
X119259752Y-67589132D01*
X119607721Y-67937101D01*
X119621719Y-67937101D01*
X119969688Y-67589132D01*
X120673965Y-67589132D01*
X121028933Y-67944100D01*
X121383901Y-67589132D01*
X122088179Y-67589132D01*
X122443147Y-67944100D01*
X122798115Y-67589132D01*
X123502392Y-67589132D01*
X123857360Y-67944100D01*
X123942831Y-67858629D01*
X123942831Y-67319634D01*
X123857360Y-67234163D01*
X123502392Y-67589132D01*
X122798115Y-67589132D01*
X122443147Y-67234164D01*
X122088179Y-67589132D01*
X121383901Y-67589132D01*
X121028933Y-67234164D01*
X120673965Y-67589132D01*
X119969688Y-67589132D01*
X119614720Y-67234164D01*
X119259752Y-67589132D01*
X118555472Y-67589132D01*
X118555473Y-67589131D01*
X118200506Y-67234164D01*
X117845538Y-67589132D01*
X117141261Y-67589132D01*
X116786293Y-67234164D01*
X116431325Y-67589132D01*
X115727047Y-67589132D01*
X115372079Y-67234164D01*
X115017111Y-67589132D01*
X114312834Y-67589132D01*
X114150687Y-67426985D01*
X114150551Y-67432553D01*
X114149949Y-67444810D01*
X114149501Y-67450879D01*
X114147104Y-67475220D01*
X114146359Y-67481259D01*
X114144558Y-67493403D01*
X114143517Y-67499403D01*
X114107982Y-67678048D01*
X114106646Y-67683998D01*
X114103662Y-67695906D01*
X114102041Y-67701761D01*
X114094941Y-67725166D01*
X114093032Y-67730947D01*
X114088898Y-67742500D01*
X114086708Y-67748175D01*
X114039274Y-67862691D01*
X113456987Y-67862691D01*
X113473989Y-67845689D01*
X113561594Y-67714579D01*
X113621937Y-67568897D01*
X113652700Y-67414242D01*
X113652700Y-67256558D01*
X113652700Y-67256555D01*
X113652699Y-67256553D01*
X113648808Y-67236993D01*
X113621937Y-67101903D01*
X113573556Y-66985100D01*
X113561597Y-66956227D01*
X113561590Y-66956214D01*
X113512018Y-66882025D01*
X114310004Y-66882025D01*
X114664972Y-67236993D01*
X115019940Y-66882025D01*
X115724218Y-66882025D01*
X116079186Y-67236993D01*
X116434154Y-66882025D01*
X117138431Y-66882025D01*
X117493399Y-67236993D01*
X117848367Y-66882025D01*
X118552645Y-66882025D01*
X118907613Y-67236993D01*
X119262581Y-66882025D01*
X119966858Y-66882025D01*
X120321826Y-67236993D01*
X120676795Y-66882025D01*
X121381072Y-66882025D01*
X121736040Y-67236993D01*
X122091008Y-66882025D01*
X122795286Y-66882025D01*
X123150254Y-67236993D01*
X123505222Y-66882025D01*
X123150254Y-66527057D01*
X122795286Y-66882025D01*
X122091008Y-66882025D01*
X121736040Y-66527057D01*
X121381072Y-66882025D01*
X120676795Y-66882025D01*
X120321826Y-66527056D01*
X119966858Y-66882025D01*
X119262581Y-66882025D01*
X118907613Y-66527057D01*
X118552645Y-66882025D01*
X117848367Y-66882025D01*
X117493399Y-66527056D01*
X117138431Y-66882025D01*
X116434154Y-66882025D01*
X116079186Y-66527057D01*
X115724218Y-66882025D01*
X115019940Y-66882025D01*
X114664972Y-66527057D01*
X114310004Y-66882025D01*
X113512018Y-66882025D01*
X113473989Y-66825111D01*
X113473986Y-66825107D01*
X113362492Y-66713613D01*
X113362488Y-66713610D01*
X113231385Y-66626009D01*
X113231372Y-66626002D01*
X113085701Y-66565664D01*
X113085689Y-66565661D01*
X112931045Y-66534900D01*
X112931042Y-66534900D01*
X112773358Y-66534900D01*
X112773355Y-66534900D01*
X112618710Y-66565661D01*
X112618698Y-66565664D01*
X112473027Y-66626002D01*
X112473014Y-66626009D01*
X112341911Y-66713610D01*
X112341907Y-66713613D01*
X112230413Y-66825107D01*
X112230410Y-66825111D01*
X112142809Y-66956214D01*
X112142802Y-66956227D01*
X112082464Y-67101898D01*
X112082461Y-67101908D01*
X112064176Y-67193833D01*
X112031791Y-67255744D01*
X112030240Y-67257322D01*
X109820384Y-69467181D01*
X109759061Y-69500666D01*
X109732703Y-69503500D01*
X101610469Y-69503500D01*
X101610453Y-69503499D01*
X101602857Y-69503499D01*
X101444743Y-69503499D01*
X101337387Y-69532265D01*
X101292010Y-69544424D01*
X101292009Y-69544425D01*
X101241896Y-69573359D01*
X101241895Y-69573360D01*
X101198489Y-69598420D01*
X101155085Y-69623479D01*
X101155082Y-69623481D01*
X101043278Y-69735286D01*
X96624335Y-74154228D01*
X96563012Y-74187713D01*
X96493320Y-74182729D01*
X96448973Y-74154228D01*
X96392302Y-74097557D01*
X96392298Y-74097554D01*
X96248911Y-74001745D01*
X96248898Y-74001738D01*
X96089578Y-73935746D01*
X96089566Y-73935743D01*
X95920432Y-73902100D01*
X95920429Y-73902100D01*
X95747971Y-73902100D01*
X95747968Y-73902100D01*
X95578833Y-73935743D01*
X95578821Y-73935746D01*
X95419501Y-74001738D01*
X95419488Y-74001745D01*
X95276101Y-74097554D01*
X95276097Y-74097557D01*
X95154157Y-74219497D01*
X95154154Y-74219501D01*
X95058345Y-74362888D01*
X95058338Y-74362901D01*
X94992346Y-74522221D01*
X94992343Y-74522233D01*
X94958700Y-74691366D01*
X94958700Y-74752503D01*
X94939015Y-74819542D01*
X94922381Y-74840184D01*
X94681984Y-75080581D01*
X94620661Y-75114066D01*
X94594303Y-75116900D01*
X86522870Y-75116900D01*
X86522854Y-75116899D01*
X86515258Y-75116899D01*
X86357143Y-75116899D01*
X86280779Y-75137361D01*
X86204414Y-75157823D01*
X86204409Y-75157826D01*
X86067490Y-75236875D01*
X86067482Y-75236881D01*
X83870984Y-77433381D01*
X83809661Y-77466866D01*
X83783303Y-77469700D01*
X82171910Y-77469700D01*
X82104871Y-77450015D01*
X82059116Y-77397211D01*
X82049172Y-77328053D01*
X82064523Y-77283699D01*
X82133686Y-77163912D01*
X82202543Y-76974748D01*
X82236621Y-76781520D01*
X83197306Y-76781520D01*
X83387486Y-76971700D01*
X83628387Y-76971700D01*
X83862904Y-76737182D01*
X83552274Y-76426552D01*
X83197306Y-76781520D01*
X82236621Y-76781520D01*
X82237506Y-76776501D01*
X82237507Y-76730444D01*
X82237510Y-76730433D01*
X82237510Y-76662955D01*
X82237511Y-76641497D01*
X82237510Y-76641494D01*
X82237510Y-75829102D01*
X82735510Y-75829102D01*
X82735510Y-76319724D01*
X82845167Y-76429381D01*
X83200135Y-76074413D01*
X83904413Y-76074413D01*
X84215043Y-76385043D01*
X84570011Y-76030075D01*
X84259381Y-75719445D01*
X83904413Y-76074413D01*
X83200135Y-76074413D01*
X82845167Y-75719445D01*
X82735510Y-75829102D01*
X82237510Y-75829102D01*
X82237510Y-75367306D01*
X83197305Y-75367306D01*
X83552274Y-75722274D01*
X83907242Y-75367306D01*
X84611519Y-75367306D01*
X84922149Y-75677936D01*
X85277117Y-75322967D01*
X84966487Y-75012337D01*
X84611519Y-75367306D01*
X83907242Y-75367306D01*
X83552274Y-75012338D01*
X83197305Y-75367306D01*
X82237510Y-75367306D01*
X82237510Y-74414889D01*
X82735510Y-74414889D01*
X82735510Y-74905511D01*
X82845167Y-75015168D01*
X83200135Y-74660200D01*
X83904413Y-74660200D01*
X84259381Y-75015168D01*
X84614349Y-74660200D01*
X85318626Y-74660200D01*
X85629256Y-74970830D01*
X85726878Y-74873208D01*
X85732801Y-74867660D01*
X85745105Y-74856870D01*
X85751374Y-74851725D01*
X85777256Y-74831864D01*
X85783854Y-74827136D01*
X85797467Y-74818040D01*
X85804359Y-74813755D01*
X85969545Y-74718386D01*
X85971326Y-74717433D01*
X86028561Y-74660199D01*
X85987262Y-74618900D01*
X86774140Y-74618900D01*
X87401476Y-74618900D01*
X88188353Y-74618900D01*
X88815690Y-74618900D01*
X89602567Y-74618900D01*
X90229903Y-74618900D01*
X91016780Y-74618900D01*
X91644117Y-74618900D01*
X92430994Y-74618900D01*
X93058330Y-74618900D01*
X93845208Y-74618900D01*
X94439386Y-74618900D01*
X94455964Y-74602320D01*
X94158876Y-74305232D01*
X93845208Y-74618900D01*
X93058330Y-74618900D01*
X92744662Y-74305232D01*
X92430994Y-74618900D01*
X91644117Y-74618900D01*
X91330448Y-74305231D01*
X91016780Y-74618900D01*
X90229903Y-74618900D01*
X89916235Y-74305232D01*
X89602567Y-74618900D01*
X88815690Y-74618900D01*
X88502021Y-74305231D01*
X88188353Y-74618900D01*
X87401476Y-74618900D01*
X87087808Y-74305232D01*
X86774140Y-74618900D01*
X85987262Y-74618900D01*
X85673594Y-74305232D01*
X85318626Y-74660200D01*
X84614349Y-74660200D01*
X84259381Y-74305232D01*
X83904413Y-74660200D01*
X83200135Y-74660200D01*
X82845167Y-74305232D01*
X82735510Y-74414889D01*
X82237510Y-74414889D01*
X82237510Y-73953093D01*
X83197306Y-73953093D01*
X83552274Y-74308061D01*
X83907242Y-73953093D01*
X84611519Y-73953093D01*
X84966487Y-74308061D01*
X85321456Y-73953093D01*
X86025733Y-73953093D01*
X86380701Y-74308061D01*
X86735669Y-73953093D01*
X87439947Y-73953093D01*
X87794915Y-74308061D01*
X88149883Y-73953093D01*
X88854160Y-73953093D01*
X89209128Y-74308061D01*
X89564096Y-73953093D01*
X90268374Y-73953093D01*
X90623342Y-74308061D01*
X90978310Y-73953093D01*
X91682587Y-73953093D01*
X92037555Y-74308061D01*
X92392523Y-73953093D01*
X93096801Y-73953093D01*
X93451769Y-74308061D01*
X93806737Y-73953093D01*
X94511014Y-73953093D01*
X94644218Y-74086297D01*
X94746877Y-73932659D01*
X94750380Y-73927685D01*
X94757691Y-73917827D01*
X94761437Y-73913026D01*
X94776953Y-73894120D01*
X94780922Y-73889519D01*
X94789165Y-73880423D01*
X94793368Y-73876009D01*
X94932609Y-73736768D01*
X94937023Y-73732565D01*
X94946119Y-73724322D01*
X94950720Y-73720353D01*
X94969626Y-73704837D01*
X94971349Y-73703492D01*
X94865982Y-73598125D01*
X94511014Y-73953093D01*
X93806737Y-73953093D01*
X93451769Y-73598125D01*
X93096801Y-73953093D01*
X92392523Y-73953093D01*
X92037555Y-73598125D01*
X91682587Y-73953093D01*
X90978310Y-73953093D01*
X90623342Y-73598125D01*
X90268374Y-73953093D01*
X89564096Y-73953093D01*
X89209128Y-73598125D01*
X88854160Y-73953093D01*
X88149883Y-73953093D01*
X87794915Y-73598125D01*
X87439947Y-73953093D01*
X86735669Y-73953093D01*
X86380701Y-73598125D01*
X86025733Y-73953093D01*
X85321456Y-73953093D01*
X84966487Y-73598124D01*
X84611519Y-73953093D01*
X83907242Y-73953093D01*
X83552274Y-73598125D01*
X83197306Y-73953093D01*
X82237510Y-73953093D01*
X82237510Y-73000675D01*
X82735510Y-73000675D01*
X82735510Y-73491297D01*
X82845167Y-73600954D01*
X83200135Y-73245986D01*
X83904413Y-73245986D01*
X84259381Y-73600954D01*
X84614349Y-73245986D01*
X85318626Y-73245986D01*
X85673594Y-73600954D01*
X86028562Y-73245986D01*
X86732840Y-73245986D01*
X87087808Y-73600954D01*
X87442776Y-73245986D01*
X88147053Y-73245986D01*
X88502021Y-73600954D01*
X88856989Y-73245986D01*
X89561267Y-73245986D01*
X89916235Y-73600954D01*
X90271203Y-73245986D01*
X90975480Y-73245986D01*
X91330448Y-73600954D01*
X91685417Y-73245986D01*
X92389694Y-73245986D01*
X92744662Y-73600954D01*
X93099630Y-73245986D01*
X93803908Y-73245986D01*
X94158876Y-73600954D01*
X94513844Y-73245986D01*
X95218121Y-73245986D01*
X95432008Y-73459873D01*
X95445957Y-73455641D01*
X95451829Y-73454016D01*
X95463738Y-73451033D01*
X95469676Y-73449700D01*
X95662811Y-73411283D01*
X95668810Y-73410242D01*
X95680953Y-73408441D01*
X95686993Y-73407696D01*
X95711334Y-73405299D01*
X95717403Y-73404851D01*
X95729660Y-73404249D01*
X95735743Y-73404100D01*
X95769943Y-73404100D01*
X95928057Y-73245986D01*
X96632335Y-73245986D01*
X96730316Y-73343967D01*
X97085284Y-72988999D01*
X96987303Y-72891018D01*
X96632335Y-73245986D01*
X95928057Y-73245986D01*
X95573089Y-72891018D01*
X95218121Y-73245986D01*
X94513844Y-73245986D01*
X94158876Y-72891018D01*
X93803908Y-73245986D01*
X93099630Y-73245986D01*
X92744662Y-72891018D01*
X92389694Y-73245986D01*
X91685417Y-73245986D01*
X91330448Y-72891017D01*
X90975480Y-73245986D01*
X90271203Y-73245986D01*
X89916235Y-72891018D01*
X89561267Y-73245986D01*
X88856989Y-73245986D01*
X88502021Y-72891017D01*
X88147053Y-73245986D01*
X87442776Y-73245986D01*
X87087808Y-72891018D01*
X86732840Y-73245986D01*
X86028562Y-73245986D01*
X85673594Y-72891018D01*
X85318626Y-73245986D01*
X84614349Y-73245986D01*
X84259381Y-72891018D01*
X83904413Y-73245986D01*
X83200135Y-73245986D01*
X82845167Y-72891018D01*
X82735510Y-73000675D01*
X82237510Y-73000675D01*
X82237510Y-72538879D01*
X83197306Y-72538879D01*
X83552274Y-72893847D01*
X83907242Y-72538879D01*
X84611519Y-72538879D01*
X84966487Y-72893847D01*
X85321456Y-72538879D01*
X86025733Y-72538879D01*
X86380701Y-72893847D01*
X86735669Y-72538879D01*
X87439947Y-72538879D01*
X87794915Y-72893847D01*
X88149883Y-72538879D01*
X88854160Y-72538879D01*
X89209128Y-72893847D01*
X89564096Y-72538879D01*
X90268374Y-72538879D01*
X90623342Y-72893847D01*
X90978310Y-72538879D01*
X91682587Y-72538879D01*
X92037555Y-72893847D01*
X92392523Y-72538879D01*
X93096801Y-72538879D01*
X93451769Y-72893847D01*
X93806737Y-72538879D01*
X94511014Y-72538879D01*
X94865982Y-72893847D01*
X95220950Y-72538879D01*
X95925228Y-72538879D01*
X96280196Y-72893847D01*
X96635164Y-72538879D01*
X96635163Y-72538878D01*
X97339441Y-72538878D01*
X97437422Y-72636860D01*
X97792391Y-72281892D01*
X97694409Y-72183910D01*
X97339441Y-72538878D01*
X96635163Y-72538878D01*
X96280196Y-72183911D01*
X95925228Y-72538879D01*
X95220950Y-72538879D01*
X94865982Y-72183910D01*
X94511014Y-72538879D01*
X93806737Y-72538879D01*
X93451769Y-72183911D01*
X93096801Y-72538879D01*
X92392523Y-72538879D01*
X92037555Y-72183911D01*
X91682587Y-72538879D01*
X90978310Y-72538879D01*
X90623342Y-72183911D01*
X90268374Y-72538879D01*
X89564096Y-72538879D01*
X89209128Y-72183911D01*
X88854160Y-72538879D01*
X88149883Y-72538879D01*
X87794915Y-72183911D01*
X87439947Y-72538879D01*
X86735669Y-72538879D01*
X86380701Y-72183911D01*
X86025733Y-72538879D01*
X85321456Y-72538879D01*
X84966487Y-72183910D01*
X84611519Y-72538879D01*
X83907242Y-72538879D01*
X83552274Y-72183911D01*
X83197306Y-72538879D01*
X82237510Y-72538879D01*
X82237510Y-71586461D01*
X82735510Y-71586461D01*
X82735510Y-72077084D01*
X82845167Y-72186741D01*
X83200135Y-71831772D01*
X83904412Y-71831772D01*
X84259381Y-72186741D01*
X84614349Y-71831772D01*
X85318625Y-71831772D01*
X85673594Y-72186741D01*
X86028562Y-71831772D01*
X86732839Y-71831772D01*
X87087808Y-72186741D01*
X87442776Y-71831772D01*
X88147052Y-71831772D01*
X88502021Y-72186741D01*
X88856989Y-71831772D01*
X89561266Y-71831772D01*
X89916235Y-72186741D01*
X90271203Y-71831772D01*
X90975480Y-71831772D01*
X91330448Y-72186741D01*
X91685417Y-71831772D01*
X92389693Y-71831772D01*
X92744662Y-72186741D01*
X93099630Y-71831772D01*
X93803907Y-71831772D01*
X94158876Y-72186741D01*
X94513844Y-71831772D01*
X95218120Y-71831772D01*
X95573089Y-72186741D01*
X95928057Y-71831772D01*
X96632334Y-71831772D01*
X96987303Y-72186741D01*
X97342271Y-71831772D01*
X98046547Y-71831772D01*
X98144529Y-71929754D01*
X98499497Y-71574785D01*
X98401516Y-71476804D01*
X98046547Y-71831772D01*
X97342271Y-71831772D01*
X96987303Y-71476804D01*
X96632334Y-71831772D01*
X95928057Y-71831772D01*
X95573089Y-71476804D01*
X95218120Y-71831772D01*
X94513844Y-71831772D01*
X94158876Y-71476804D01*
X93803907Y-71831772D01*
X93099630Y-71831772D01*
X92744662Y-71476804D01*
X92389693Y-71831772D01*
X91685417Y-71831772D01*
X91330448Y-71476804D01*
X90975480Y-71831772D01*
X90271203Y-71831772D01*
X89916235Y-71476804D01*
X89561266Y-71831772D01*
X88856989Y-71831772D01*
X88502021Y-71476804D01*
X88147052Y-71831772D01*
X87442776Y-71831772D01*
X87087808Y-71476804D01*
X86732839Y-71831772D01*
X86028562Y-71831772D01*
X85673594Y-71476804D01*
X85318625Y-71831772D01*
X84614349Y-71831772D01*
X84259381Y-71476804D01*
X83904412Y-71831772D01*
X83200135Y-71831772D01*
X82845166Y-71476804D01*
X82735510Y-71586461D01*
X82237510Y-71586461D01*
X82237510Y-71124666D01*
X83197306Y-71124666D01*
X83552274Y-71479634D01*
X83907242Y-71124666D01*
X84611519Y-71124666D01*
X84966487Y-71479634D01*
X85321456Y-71124666D01*
X86025733Y-71124666D01*
X86380701Y-71479634D01*
X86735669Y-71124666D01*
X87439947Y-71124666D01*
X87794915Y-71479634D01*
X88149883Y-71124666D01*
X88854160Y-71124666D01*
X89209128Y-71479634D01*
X89564096Y-71124666D01*
X90268374Y-71124666D01*
X90623342Y-71479634D01*
X90978310Y-71124666D01*
X91682587Y-71124666D01*
X92037555Y-71479634D01*
X92392523Y-71124666D01*
X93096801Y-71124666D01*
X93451769Y-71479634D01*
X93806737Y-71124666D01*
X94511014Y-71124666D01*
X94865982Y-71479634D01*
X95220950Y-71124666D01*
X95925228Y-71124666D01*
X96280196Y-71479634D01*
X96635164Y-71124666D01*
X97339441Y-71124666D01*
X97694409Y-71479634D01*
X98049378Y-71124666D01*
X98753655Y-71124666D01*
X98851637Y-71222648D01*
X99206605Y-70867680D01*
X99108623Y-70769698D01*
X98753655Y-71124666D01*
X98049378Y-71124666D01*
X97694409Y-70769697D01*
X97339441Y-71124666D01*
X96635164Y-71124666D01*
X96280196Y-70769698D01*
X95925228Y-71124666D01*
X95220950Y-71124666D01*
X94865982Y-70769697D01*
X94511014Y-71124666D01*
X93806737Y-71124666D01*
X93451769Y-70769698D01*
X93096801Y-71124666D01*
X92392523Y-71124666D01*
X92037555Y-70769698D01*
X91682587Y-71124666D01*
X90978310Y-71124666D01*
X90623342Y-70769698D01*
X90268374Y-71124666D01*
X89564096Y-71124666D01*
X89209128Y-70769698D01*
X88854160Y-71124666D01*
X88149883Y-71124666D01*
X87794915Y-70769698D01*
X87439947Y-71124666D01*
X86735669Y-71124666D01*
X86380701Y-70769698D01*
X86025733Y-71124666D01*
X85321456Y-71124666D01*
X84966487Y-70769697D01*
X84611519Y-71124666D01*
X83907242Y-71124666D01*
X83552274Y-70769698D01*
X83197306Y-71124666D01*
X82237510Y-71124666D01*
X82237510Y-70172248D01*
X82735510Y-70172248D01*
X82735510Y-70662870D01*
X82845167Y-70772527D01*
X83200135Y-70417559D01*
X83904413Y-70417559D01*
X84259381Y-70772527D01*
X84614349Y-70417559D01*
X85318626Y-70417559D01*
X85673594Y-70772527D01*
X86028562Y-70417559D01*
X86732840Y-70417559D01*
X87087808Y-70772527D01*
X87442776Y-70417559D01*
X88147053Y-70417559D01*
X88502021Y-70772527D01*
X88856989Y-70417559D01*
X89561267Y-70417559D01*
X89916235Y-70772527D01*
X90271203Y-70417559D01*
X90975480Y-70417559D01*
X91330448Y-70772527D01*
X91685417Y-70417559D01*
X92389694Y-70417559D01*
X92744662Y-70772527D01*
X93099630Y-70417559D01*
X93803908Y-70417559D01*
X94158876Y-70772527D01*
X94513844Y-70417559D01*
X95218121Y-70417559D01*
X95573089Y-70772527D01*
X95928057Y-70417559D01*
X96632335Y-70417559D01*
X96987303Y-70772527D01*
X97342271Y-70417559D01*
X98046548Y-70417559D01*
X98401516Y-70772527D01*
X98756484Y-70417559D01*
X99460762Y-70417559D01*
X99558744Y-70515541D01*
X99913712Y-70160573D01*
X99815730Y-70062591D01*
X99460762Y-70417559D01*
X98756484Y-70417559D01*
X98401516Y-70062591D01*
X98046548Y-70417559D01*
X97342271Y-70417559D01*
X96987303Y-70062591D01*
X96632335Y-70417559D01*
X95928057Y-70417559D01*
X95573089Y-70062591D01*
X95218121Y-70417559D01*
X94513844Y-70417559D01*
X94158876Y-70062591D01*
X93803908Y-70417559D01*
X93099630Y-70417559D01*
X92744662Y-70062591D01*
X92389694Y-70417559D01*
X91685417Y-70417559D01*
X91330448Y-70062590D01*
X90975480Y-70417559D01*
X90271203Y-70417559D01*
X89916235Y-70062591D01*
X89561267Y-70417559D01*
X88856989Y-70417559D01*
X88502021Y-70062590D01*
X88147053Y-70417559D01*
X87442776Y-70417559D01*
X87087808Y-70062591D01*
X86732840Y-70417559D01*
X86028562Y-70417559D01*
X85673594Y-70062591D01*
X85318626Y-70417559D01*
X84614349Y-70417559D01*
X84259381Y-70062591D01*
X83904413Y-70417559D01*
X83200135Y-70417559D01*
X82845167Y-70062591D01*
X82735510Y-70172248D01*
X82237510Y-70172248D01*
X82237510Y-69710452D01*
X83197306Y-69710452D01*
X83552274Y-70065420D01*
X83907242Y-69710452D01*
X84611519Y-69710452D01*
X84966487Y-70065420D01*
X85321456Y-69710452D01*
X86025733Y-69710452D01*
X86380701Y-70065420D01*
X86735669Y-69710452D01*
X87439947Y-69710452D01*
X87794915Y-70065420D01*
X88149883Y-69710452D01*
X88854160Y-69710452D01*
X89209128Y-70065420D01*
X89564096Y-69710452D01*
X90268374Y-69710452D01*
X90623342Y-70065420D01*
X90978310Y-69710452D01*
X91682587Y-69710452D01*
X92037555Y-70065420D01*
X92392523Y-69710452D01*
X93096801Y-69710452D01*
X93451769Y-70065420D01*
X93806737Y-69710452D01*
X94511014Y-69710452D01*
X94865982Y-70065420D01*
X95220950Y-69710452D01*
X95925228Y-69710452D01*
X96280196Y-70065420D01*
X96635164Y-69710452D01*
X97339441Y-69710452D01*
X97694409Y-70065420D01*
X98049378Y-69710452D01*
X98753655Y-69710452D01*
X99108623Y-70065420D01*
X99463591Y-69710452D01*
X100167869Y-69710452D01*
X100265851Y-69808434D01*
X100620819Y-69453466D01*
X100522837Y-69355484D01*
X100167869Y-69710452D01*
X99463591Y-69710452D01*
X99108623Y-69355484D01*
X98753655Y-69710452D01*
X98049378Y-69710452D01*
X97694409Y-69355483D01*
X97339441Y-69710452D01*
X96635164Y-69710452D01*
X96280196Y-69355484D01*
X95925228Y-69710452D01*
X95220950Y-69710452D01*
X94865982Y-69355483D01*
X94511014Y-69710452D01*
X93806737Y-69710452D01*
X93451769Y-69355484D01*
X93096801Y-69710452D01*
X92392523Y-69710452D01*
X92037555Y-69355484D01*
X91682587Y-69710452D01*
X90978310Y-69710452D01*
X90623342Y-69355484D01*
X90268374Y-69710452D01*
X89564096Y-69710452D01*
X89209128Y-69355484D01*
X88854160Y-69710452D01*
X88149883Y-69710452D01*
X87794915Y-69355484D01*
X87439947Y-69710452D01*
X86735669Y-69710452D01*
X86380701Y-69355484D01*
X86025733Y-69710452D01*
X85321456Y-69710452D01*
X84966487Y-69355483D01*
X84611519Y-69710452D01*
X83907242Y-69710452D01*
X83552274Y-69355484D01*
X83197306Y-69710452D01*
X82237510Y-69710452D01*
X82237510Y-68758034D01*
X82735510Y-68758034D01*
X82735510Y-69248656D01*
X82845167Y-69358313D01*
X83200135Y-69003345D01*
X83904412Y-69003345D01*
X84259381Y-69358313D01*
X84614349Y-69003345D01*
X85318625Y-69003345D01*
X85673594Y-69358313D01*
X86028562Y-69003345D01*
X86732839Y-69003345D01*
X87087808Y-69358313D01*
X87442776Y-69003345D01*
X88147052Y-69003345D01*
X88502021Y-69358313D01*
X88856989Y-69003345D01*
X89561266Y-69003345D01*
X89916235Y-69358313D01*
X90271203Y-69003345D01*
X90975480Y-69003345D01*
X91330448Y-69358313D01*
X91685417Y-69003345D01*
X92389693Y-69003345D01*
X92744662Y-69358313D01*
X93099630Y-69003345D01*
X93803907Y-69003345D01*
X94158876Y-69358313D01*
X94513844Y-69003345D01*
X95218120Y-69003345D01*
X95573089Y-69358313D01*
X95928057Y-69003345D01*
X96632334Y-69003345D01*
X96987303Y-69358313D01*
X97342271Y-69003345D01*
X98046547Y-69003345D01*
X98401516Y-69358313D01*
X98756484Y-69003345D01*
X99460761Y-69003345D01*
X99815730Y-69358313D01*
X100170698Y-69003345D01*
X100874974Y-69003345D01*
X101006090Y-69134461D01*
X101057140Y-69104987D01*
X101064299Y-69101160D01*
X101078985Y-69093918D01*
X101086380Y-69090568D01*
X101116521Y-69078085D01*
X101124108Y-69075229D01*
X101139603Y-69069969D01*
X101147369Y-69067613D01*
X101331604Y-69018247D01*
X101339505Y-69016405D01*
X101355556Y-69013212D01*
X101363561Y-69011890D01*
X101395905Y-69007631D01*
X101403981Y-69006836D01*
X101420317Y-69005765D01*
X101428429Y-69005499D01*
X101582758Y-69005499D01*
X101584911Y-69003345D01*
X102289189Y-69003345D01*
X102291344Y-69005500D01*
X102996970Y-69005500D01*
X102999125Y-69003345D01*
X103703403Y-69003345D01*
X103705558Y-69005500D01*
X104411184Y-69005500D01*
X104413339Y-69003345D01*
X105117616Y-69003345D01*
X105119771Y-69005500D01*
X105825397Y-69005500D01*
X105827552Y-69003345D01*
X106531830Y-69003345D01*
X106533985Y-69005500D01*
X107239611Y-69005500D01*
X107241766Y-69003345D01*
X107946043Y-69003345D01*
X107948198Y-69005500D01*
X108653824Y-69005500D01*
X108655979Y-69003345D01*
X109360257Y-69003345D01*
X109362412Y-69005500D01*
X109577787Y-69005500D01*
X109825067Y-68758219D01*
X109715225Y-68648377D01*
X109360257Y-69003345D01*
X108655979Y-69003345D01*
X108301011Y-68648377D01*
X107946043Y-69003345D01*
X107241766Y-69003345D01*
X106886798Y-68648377D01*
X106531830Y-69003345D01*
X105827552Y-69003345D01*
X105472584Y-68648377D01*
X105117616Y-69003345D01*
X104413339Y-69003345D01*
X104058371Y-68648377D01*
X103703403Y-69003345D01*
X102999125Y-69003345D01*
X102644157Y-68648377D01*
X102289189Y-69003345D01*
X101584911Y-69003345D01*
X101229943Y-68648376D01*
X100874974Y-69003345D01*
X100170698Y-69003345D01*
X99815730Y-68648377D01*
X99460761Y-69003345D01*
X98756484Y-69003345D01*
X98401516Y-68648377D01*
X98046547Y-69003345D01*
X97342271Y-69003345D01*
X96987303Y-68648377D01*
X96632334Y-69003345D01*
X95928057Y-69003345D01*
X95573089Y-68648377D01*
X95218120Y-69003345D01*
X94513844Y-69003345D01*
X94158876Y-68648377D01*
X93803907Y-69003345D01*
X93099630Y-69003345D01*
X92744662Y-68648377D01*
X92389693Y-69003345D01*
X91685417Y-69003345D01*
X91330448Y-68648376D01*
X90975480Y-69003345D01*
X90271203Y-69003345D01*
X89916235Y-68648377D01*
X89561266Y-69003345D01*
X88856989Y-69003345D01*
X88502021Y-68648376D01*
X88147052Y-69003345D01*
X87442776Y-69003345D01*
X87087808Y-68648377D01*
X86732839Y-69003345D01*
X86028562Y-69003345D01*
X85673594Y-68648377D01*
X85318625Y-69003345D01*
X84614349Y-69003345D01*
X84259381Y-68648377D01*
X83904412Y-69003345D01*
X83200135Y-69003345D01*
X82845167Y-68648377D01*
X82735510Y-68758034D01*
X82237510Y-68758034D01*
X82237510Y-68296239D01*
X83197306Y-68296239D01*
X83552274Y-68651207D01*
X83907242Y-68296239D01*
X84611519Y-68296239D01*
X84966487Y-68651207D01*
X85321456Y-68296239D01*
X86025733Y-68296239D01*
X86380701Y-68651207D01*
X86735669Y-68296239D01*
X87439947Y-68296239D01*
X87794915Y-68651207D01*
X88149883Y-68296239D01*
X88854160Y-68296239D01*
X89209128Y-68651207D01*
X89564096Y-68296239D01*
X90268374Y-68296239D01*
X90623342Y-68651207D01*
X90978310Y-68296239D01*
X91682587Y-68296239D01*
X92037555Y-68651207D01*
X92392523Y-68296239D01*
X93096801Y-68296239D01*
X93451769Y-68651207D01*
X93806737Y-68296239D01*
X94511014Y-68296239D01*
X94865982Y-68651207D01*
X95220950Y-68296239D01*
X95925228Y-68296239D01*
X96280196Y-68651207D01*
X96635164Y-68296239D01*
X97339441Y-68296239D01*
X97694409Y-68651207D01*
X98049378Y-68296239D01*
X98753655Y-68296239D01*
X99108623Y-68651207D01*
X99463591Y-68296239D01*
X100167869Y-68296239D01*
X100522837Y-68651207D01*
X100877805Y-68296239D01*
X101582082Y-68296239D01*
X101937050Y-68651207D01*
X102292018Y-68296239D01*
X102996296Y-68296239D01*
X103351264Y-68651207D01*
X103706232Y-68296239D01*
X104410509Y-68296239D01*
X104765477Y-68651207D01*
X105120445Y-68296239D01*
X105824723Y-68296239D01*
X106179691Y-68651207D01*
X106534659Y-68296239D01*
X107238936Y-68296239D01*
X107593904Y-68651207D01*
X107948873Y-68296239D01*
X108653150Y-68296239D01*
X109008118Y-68651207D01*
X109363086Y-68296239D01*
X110067364Y-68296239D01*
X110177204Y-68406079D01*
X110532172Y-68051111D01*
X110422332Y-67941271D01*
X110067364Y-68296239D01*
X109363086Y-68296239D01*
X109008118Y-67941271D01*
X108653150Y-68296239D01*
X107948873Y-68296239D01*
X107593904Y-67941270D01*
X107238936Y-68296239D01*
X106534659Y-68296239D01*
X106179691Y-67941271D01*
X105824723Y-68296239D01*
X105120445Y-68296239D01*
X104765477Y-67941271D01*
X104410509Y-68296239D01*
X103706232Y-68296239D01*
X103351264Y-67941271D01*
X102996296Y-68296239D01*
X102292018Y-68296239D01*
X101937050Y-67941271D01*
X101582082Y-68296239D01*
X100877805Y-68296239D01*
X100522837Y-67941271D01*
X100167869Y-68296239D01*
X99463591Y-68296239D01*
X99108623Y-67941271D01*
X98753655Y-68296239D01*
X98049378Y-68296239D01*
X97694409Y-67941270D01*
X97339441Y-68296239D01*
X96635164Y-68296239D01*
X96280196Y-67941271D01*
X95925228Y-68296239D01*
X95220950Y-68296239D01*
X94865982Y-67941270D01*
X94511014Y-68296239D01*
X93806737Y-68296239D01*
X93451769Y-67941271D01*
X93096801Y-68296239D01*
X92392523Y-68296239D01*
X92037555Y-67941271D01*
X91682587Y-68296239D01*
X90978310Y-68296239D01*
X90623342Y-67941271D01*
X90268374Y-68296239D01*
X89564096Y-68296239D01*
X89209128Y-67941271D01*
X88854160Y-68296239D01*
X88149883Y-68296239D01*
X87794915Y-67941271D01*
X87439947Y-68296239D01*
X86735669Y-68296239D01*
X86380701Y-67941271D01*
X86025733Y-68296239D01*
X85321456Y-68296239D01*
X84966487Y-67941270D01*
X84611519Y-68296239D01*
X83907242Y-68296239D01*
X83552274Y-67941271D01*
X83197306Y-68296239D01*
X82237510Y-68296239D01*
X82237510Y-67343821D01*
X82735510Y-67343821D01*
X82735510Y-67834443D01*
X82845167Y-67944100D01*
X83200135Y-67589132D01*
X83904413Y-67589132D01*
X84259381Y-67944100D01*
X84614349Y-67589132D01*
X85318626Y-67589132D01*
X85673594Y-67944100D01*
X86028562Y-67589132D01*
X86732840Y-67589132D01*
X87087808Y-67944100D01*
X87442776Y-67589132D01*
X88147053Y-67589132D01*
X88502021Y-67944100D01*
X88856989Y-67589132D01*
X89561267Y-67589132D01*
X89916235Y-67944100D01*
X90271203Y-67589132D01*
X90975480Y-67589132D01*
X91330448Y-67944100D01*
X91685417Y-67589132D01*
X92389694Y-67589132D01*
X92744662Y-67944100D01*
X93099630Y-67589132D01*
X93803908Y-67589132D01*
X94158876Y-67944100D01*
X94513844Y-67589132D01*
X95218121Y-67589132D01*
X95573089Y-67944100D01*
X95928057Y-67589132D01*
X96632335Y-67589132D01*
X96987303Y-67944100D01*
X97342271Y-67589132D01*
X98046548Y-67589132D01*
X98401516Y-67944100D01*
X98756484Y-67589132D01*
X99460762Y-67589132D01*
X99815730Y-67944100D01*
X100170698Y-67589132D01*
X100874975Y-67589132D01*
X101229943Y-67944100D01*
X101584911Y-67589132D01*
X102289189Y-67589132D01*
X102644157Y-67944100D01*
X102999125Y-67589132D01*
X103703403Y-67589132D01*
X104058371Y-67944100D01*
X104413339Y-67589132D01*
X105117616Y-67589132D01*
X105472584Y-67944100D01*
X105827552Y-67589132D01*
X106531830Y-67589132D01*
X106886798Y-67944100D01*
X107241766Y-67589132D01*
X107946043Y-67589132D01*
X108301011Y-67944100D01*
X108655979Y-67589132D01*
X109360257Y-67589132D01*
X109715225Y-67944100D01*
X110070193Y-67589132D01*
X110774470Y-67589132D01*
X110884310Y-67698972D01*
X111239278Y-67344004D01*
X111129438Y-67234163D01*
X110774470Y-67589132D01*
X110070193Y-67589132D01*
X109715225Y-67234164D01*
X109360257Y-67589132D01*
X108655979Y-67589132D01*
X108301011Y-67234164D01*
X107946043Y-67589132D01*
X107241766Y-67589132D01*
X106886798Y-67234164D01*
X106531830Y-67589132D01*
X105827552Y-67589132D01*
X105472584Y-67234164D01*
X105117616Y-67589132D01*
X104413339Y-67589132D01*
X104058371Y-67234164D01*
X103703403Y-67589132D01*
X102999125Y-67589132D01*
X102644157Y-67234164D01*
X102289189Y-67589132D01*
X101584911Y-67589132D01*
X101229943Y-67234163D01*
X100874975Y-67589132D01*
X100170698Y-67589132D01*
X99815730Y-67234164D01*
X99460762Y-67589132D01*
X98756484Y-67589132D01*
X98401516Y-67234164D01*
X98046548Y-67589132D01*
X97342271Y-67589132D01*
X96987303Y-67234164D01*
X96632335Y-67589132D01*
X95928057Y-67589132D01*
X95573089Y-67234164D01*
X95218121Y-67589132D01*
X94513844Y-67589132D01*
X94158876Y-67234164D01*
X93803908Y-67589132D01*
X93099630Y-67589132D01*
X92744662Y-67234164D01*
X92389694Y-67589132D01*
X91685417Y-67589132D01*
X91330448Y-67234163D01*
X90975480Y-67589132D01*
X90271203Y-67589132D01*
X89916235Y-67234164D01*
X89561267Y-67589132D01*
X88856989Y-67589132D01*
X88502021Y-67234163D01*
X88147053Y-67589132D01*
X87442776Y-67589132D01*
X87087808Y-67234164D01*
X86732840Y-67589132D01*
X86028562Y-67589132D01*
X85673594Y-67234164D01*
X85318626Y-67589132D01*
X84614349Y-67589132D01*
X84259381Y-67234164D01*
X83904413Y-67589132D01*
X83200135Y-67589132D01*
X82845167Y-67234164D01*
X82735510Y-67343821D01*
X82237510Y-67343821D01*
X82237510Y-66882024D01*
X83197305Y-66882024D01*
X83552274Y-67236993D01*
X83907242Y-66882025D01*
X83907241Y-66882024D01*
X84611519Y-66882024D01*
X84966487Y-67236993D01*
X85321456Y-66882025D01*
X86025733Y-66882025D01*
X86380701Y-67236993D01*
X86735669Y-66882025D01*
X87439947Y-66882025D01*
X87794915Y-67236993D01*
X88149883Y-66882025D01*
X88854160Y-66882025D01*
X89209128Y-67236993D01*
X89564096Y-66882025D01*
X90268374Y-66882025D01*
X90623342Y-67236993D01*
X90978310Y-66882025D01*
X90978309Y-66882024D01*
X91682586Y-66882024D01*
X92037555Y-67236993D01*
X92392523Y-66882025D01*
X93096801Y-66882025D01*
X93451769Y-67236993D01*
X93806737Y-66882025D01*
X94511014Y-66882025D01*
X94865982Y-67236993D01*
X95220950Y-66882025D01*
X95925228Y-66882025D01*
X96280196Y-67236993D01*
X96635164Y-66882025D01*
X97339441Y-66882025D01*
X97694409Y-67236993D01*
X98049378Y-66882025D01*
X98753655Y-66882025D01*
X99108623Y-67236993D01*
X99463591Y-66882025D01*
X100167869Y-66882025D01*
X100522837Y-67236993D01*
X100877805Y-66882025D01*
X101582082Y-66882025D01*
X101937050Y-67236993D01*
X102292018Y-66882025D01*
X102996296Y-66882025D01*
X103351264Y-67236993D01*
X103706232Y-66882025D01*
X104410509Y-66882025D01*
X104765477Y-67236993D01*
X105120445Y-66882025D01*
X105824723Y-66882025D01*
X106179691Y-67236993D01*
X106534659Y-66882025D01*
X107238936Y-66882025D01*
X107593904Y-67236993D01*
X107948873Y-66882025D01*
X108653150Y-66882025D01*
X109008118Y-67236993D01*
X109363086Y-66882025D01*
X110067364Y-66882025D01*
X110422332Y-67236993D01*
X110777300Y-66882025D01*
X111481577Y-66882025D01*
X111591416Y-66991864D01*
X111598181Y-66985100D01*
X111600735Y-66974905D01*
X111602359Y-66969036D01*
X111609459Y-66945632D01*
X111611368Y-66939853D01*
X111615502Y-66928300D01*
X111617692Y-66922625D01*
X111687393Y-66754349D01*
X111689859Y-66748785D01*
X111695106Y-66737691D01*
X111697842Y-66732255D01*
X111709371Y-66710685D01*
X111712367Y-66705396D01*
X111718678Y-66694865D01*
X111721939Y-66689715D01*
X111818702Y-66544899D01*
X111481577Y-66882025D01*
X110777300Y-66882025D01*
X110422332Y-66527057D01*
X110067364Y-66882025D01*
X109363086Y-66882025D01*
X109008118Y-66527057D01*
X108653150Y-66882025D01*
X107948873Y-66882025D01*
X107593904Y-66527056D01*
X107238936Y-66882025D01*
X106534659Y-66882025D01*
X106179691Y-66527057D01*
X105824723Y-66882025D01*
X105120445Y-66882025D01*
X104765477Y-66527057D01*
X104410509Y-66882025D01*
X103706232Y-66882025D01*
X103351264Y-66527057D01*
X102996296Y-66882025D01*
X102292018Y-66882025D01*
X101937050Y-66527057D01*
X101582082Y-66882025D01*
X100877805Y-66882025D01*
X100522837Y-66527057D01*
X100167869Y-66882025D01*
X99463591Y-66882025D01*
X99108623Y-66527057D01*
X98753655Y-66882025D01*
X98049378Y-66882025D01*
X97694409Y-66527056D01*
X97339441Y-66882025D01*
X96635164Y-66882025D01*
X96280196Y-66527057D01*
X95925228Y-66882025D01*
X95220950Y-66882025D01*
X94865982Y-66527056D01*
X94511014Y-66882025D01*
X93806737Y-66882025D01*
X93584322Y-66659610D01*
X93530586Y-66671207D01*
X93523719Y-66672487D01*
X93509806Y-66674678D01*
X93502886Y-66675569D01*
X93474949Y-66678370D01*
X93467972Y-66678872D01*
X93453890Y-66679485D01*
X93446904Y-66679592D01*
X93364925Y-66678539D01*
X93300287Y-66678539D01*
X93096801Y-66882025D01*
X92392523Y-66882025D01*
X92074485Y-66563987D01*
X92024631Y-66539979D01*
X91682586Y-66882024D01*
X90978309Y-66882024D01*
X90623342Y-66527057D01*
X90268374Y-66882025D01*
X89564096Y-66882025D01*
X89209128Y-66527057D01*
X88854160Y-66882025D01*
X88149883Y-66882025D01*
X87794915Y-66527057D01*
X87439947Y-66882025D01*
X86735669Y-66882025D01*
X86380701Y-66527057D01*
X86025733Y-66882025D01*
X85321456Y-66882025D01*
X85056866Y-66617435D01*
X85056524Y-66617562D01*
X85029810Y-66626585D01*
X85023095Y-66628643D01*
X85009453Y-66632405D01*
X85002645Y-66634077D01*
X84830586Y-66671207D01*
X84823719Y-66672487D01*
X84820559Y-66672984D01*
X84611519Y-66882024D01*
X83907241Y-66882024D01*
X83691530Y-66666313D01*
X83533843Y-66630323D01*
X83527114Y-66628588D01*
X83513633Y-66624705D01*
X83506996Y-66622589D01*
X83480609Y-66613355D01*
X83474119Y-66610878D01*
X83470111Y-66609218D01*
X83197305Y-66882024D01*
X82237510Y-66882024D01*
X82237510Y-65929607D01*
X82735510Y-65929607D01*
X82735510Y-66420229D01*
X82845166Y-66529885D01*
X83029648Y-66345403D01*
X85489111Y-66345403D01*
X85673594Y-66529886D01*
X86028562Y-66174918D01*
X86732840Y-66174918D01*
X87087808Y-66529886D01*
X87442776Y-66174918D01*
X88147053Y-66174918D01*
X88502021Y-66529886D01*
X88856989Y-66174918D01*
X89561267Y-66174918D01*
X89916235Y-66529886D01*
X90271203Y-66174918D01*
X90975480Y-66174918D01*
X91330448Y-66529885D01*
X91417657Y-66442676D01*
X94071666Y-66442676D01*
X94158876Y-66529886D01*
X94513844Y-66174918D01*
X95218121Y-66174918D01*
X95573089Y-66529886D01*
X95928057Y-66174918D01*
X96632335Y-66174918D01*
X96987303Y-66529886D01*
X97342271Y-66174918D01*
X98046548Y-66174918D01*
X98401516Y-66529886D01*
X98756484Y-66174918D01*
X99460762Y-66174918D01*
X99815730Y-66529886D01*
X100170698Y-66174918D01*
X100874975Y-66174918D01*
X101229943Y-66529886D01*
X101584911Y-66174918D01*
X102289189Y-66174918D01*
X102644157Y-66529886D01*
X102999125Y-66174918D01*
X103703403Y-66174918D01*
X104058371Y-66529886D01*
X104413339Y-66174918D01*
X105117616Y-66174918D01*
X105472584Y-66529886D01*
X105827552Y-66174918D01*
X106531830Y-66174918D01*
X106886798Y-66529886D01*
X107241766Y-66174918D01*
X107946043Y-66174918D01*
X108301011Y-66529886D01*
X108655979Y-66174918D01*
X109360257Y-66174918D01*
X109715225Y-66529886D01*
X110070193Y-66174918D01*
X110774470Y-66174918D01*
X111129438Y-66529886D01*
X111484406Y-66174918D01*
X112188684Y-66174918D01*
X112214152Y-66200386D01*
X112222196Y-66195567D01*
X112227485Y-66192571D01*
X112249055Y-66181042D01*
X112254491Y-66178306D01*
X112261654Y-66174918D01*
X113602897Y-66174918D01*
X113957865Y-66529886D01*
X114312834Y-66174918D01*
X115017111Y-66174918D01*
X115372079Y-66529886D01*
X115727047Y-66174918D01*
X116431325Y-66174918D01*
X116786293Y-66529886D01*
X117141261Y-66174918D01*
X117845538Y-66174918D01*
X118200506Y-66529886D01*
X118555474Y-66174918D01*
X119259752Y-66174918D01*
X119614720Y-66529886D01*
X119969688Y-66174918D01*
X120673965Y-66174918D01*
X121028933Y-66529886D01*
X121383901Y-66174918D01*
X122088179Y-66174918D01*
X122443147Y-66529886D01*
X122798115Y-66174918D01*
X123502392Y-66174918D01*
X123857360Y-66529886D01*
X123942831Y-66444415D01*
X123942831Y-65905420D01*
X123857360Y-65819949D01*
X123502392Y-66174918D01*
X122798115Y-66174918D01*
X122443147Y-65819950D01*
X122088179Y-66174918D01*
X121383901Y-66174918D01*
X121028933Y-65819950D01*
X120673965Y-66174918D01*
X119969688Y-66174918D01*
X119614720Y-65819950D01*
X119259752Y-66174918D01*
X118555474Y-66174918D01*
X118200506Y-65819950D01*
X117845538Y-66174918D01*
X117141261Y-66174918D01*
X116786293Y-65819950D01*
X116431325Y-66174918D01*
X115727047Y-66174918D01*
X115372079Y-65819950D01*
X115017111Y-66174918D01*
X114312834Y-66174918D01*
X113957865Y-65819949D01*
X113602897Y-66174918D01*
X112261654Y-66174918D01*
X112265585Y-66173059D01*
X112271149Y-66170593D01*
X112439425Y-66100892D01*
X112445100Y-66098702D01*
X112456653Y-66094568D01*
X112462434Y-66092659D01*
X112485839Y-66085559D01*
X112491694Y-66083938D01*
X112503602Y-66080954D01*
X112509552Y-66079618D01*
X112688197Y-66044083D01*
X112694197Y-66043042D01*
X112706341Y-66041241D01*
X112712380Y-66040496D01*
X112736721Y-66038099D01*
X112742790Y-66037651D01*
X112755047Y-66037049D01*
X112760614Y-66036912D01*
X112543652Y-65819950D01*
X112188684Y-66174918D01*
X111484406Y-66174918D01*
X111129438Y-65819949D01*
X110774470Y-66174918D01*
X110070193Y-66174918D01*
X109715225Y-65819950D01*
X109360257Y-66174918D01*
X108655979Y-66174918D01*
X108301011Y-65819950D01*
X107946043Y-66174918D01*
X107241766Y-66174918D01*
X106886798Y-65819950D01*
X106531830Y-66174918D01*
X105827552Y-66174918D01*
X105472584Y-65819950D01*
X105117616Y-66174918D01*
X104413339Y-66174918D01*
X104058371Y-65819950D01*
X103703403Y-66174918D01*
X102999125Y-66174918D01*
X102644157Y-65819950D01*
X102289189Y-66174918D01*
X101584911Y-66174918D01*
X101229943Y-65819949D01*
X100874975Y-66174918D01*
X100170698Y-66174918D01*
X99815730Y-65819950D01*
X99460762Y-66174918D01*
X98756484Y-66174918D01*
X98401516Y-65819950D01*
X98046548Y-66174918D01*
X97342271Y-66174918D01*
X96987303Y-65819950D01*
X96632335Y-66174918D01*
X95928057Y-66174918D01*
X95573089Y-65819950D01*
X95218121Y-66174918D01*
X94513844Y-66174918D01*
X94395417Y-66056491D01*
X94368561Y-66111676D01*
X94365312Y-66117897D01*
X94358410Y-66130250D01*
X94354817Y-66136274D01*
X94339694Y-66160072D01*
X94335767Y-66165883D01*
X94327515Y-66177377D01*
X94323263Y-66182958D01*
X94212645Y-66319959D01*
X94208091Y-66325284D01*
X94198592Y-66335776D01*
X94193728Y-66340852D01*
X94173649Y-66360649D01*
X94168519Y-66365429D01*
X94157900Y-66374776D01*
X94152507Y-66379258D01*
X94071666Y-66442676D01*
X91417657Y-66442676D01*
X91648893Y-66211440D01*
X91622135Y-66177888D01*
X91617954Y-66172333D01*
X91609834Y-66160890D01*
X91605965Y-66155100D01*
X91591092Y-66131429D01*
X91587562Y-66125446D01*
X91580777Y-66113171D01*
X91577583Y-66106988D01*
X91540510Y-66030011D01*
X91330448Y-65819949D01*
X90975480Y-66174918D01*
X90271203Y-66174918D01*
X89916235Y-65819950D01*
X89561267Y-66174918D01*
X88856989Y-66174918D01*
X88502021Y-65819949D01*
X88147053Y-66174918D01*
X87442776Y-66174918D01*
X87087808Y-65819950D01*
X86732840Y-66174918D01*
X86028562Y-66174918D01*
X85762890Y-65909246D01*
X85756487Y-65927363D01*
X85753962Y-65933911D01*
X85748501Y-65946960D01*
X85745612Y-65953350D01*
X85668561Y-66111676D01*
X85665312Y-66117897D01*
X85658410Y-66130250D01*
X85654817Y-66136274D01*
X85639694Y-66160072D01*
X85635767Y-66165883D01*
X85627515Y-66177377D01*
X85623263Y-66182958D01*
X85512645Y-66319959D01*
X85508091Y-66325284D01*
X85498592Y-66335776D01*
X85493728Y-66340852D01*
X85489111Y-66345403D01*
X83029648Y-66345403D01*
X83044861Y-66330190D01*
X83044794Y-66330119D01*
X83035448Y-66319660D01*
X83030965Y-66314352D01*
X82922134Y-66177888D01*
X82917954Y-66172333D01*
X82909834Y-66160890D01*
X82905965Y-66155100D01*
X82891092Y-66131429D01*
X82887562Y-66125446D01*
X82880777Y-66113171D01*
X82877583Y-66106988D01*
X82801847Y-65949730D01*
X82799006Y-65943382D01*
X82793637Y-65930421D01*
X82791156Y-65923922D01*
X82781923Y-65897537D01*
X82779812Y-65890914D01*
X82778557Y-65886559D01*
X82735510Y-65929607D01*
X82237510Y-65929607D01*
X82237510Y-63828742D01*
X83223958Y-63828742D01*
X83223965Y-63828801D01*
X83223965Y-65478661D01*
X83223959Y-65478681D01*
X83223963Y-65603319D01*
X83223964Y-65603325D01*
X83256587Y-65746232D01*
X83256588Y-65746235D01*
X83256589Y-65746238D01*
X83320196Y-65878311D01*
X83320197Y-65878312D01*
X83320198Y-65878314D01*
X83320199Y-65878315D01*
X83372090Y-65943382D01*
X83411597Y-65992919D01*
X83526209Y-66084316D01*
X83526210Y-66084316D01*
X83526211Y-66084317D01*
X83658284Y-66147919D01*
X83658282Y-66147919D01*
X83801193Y-66180537D01*
X83801198Y-66180537D01*
X83801200Y-66180538D01*
X83819894Y-66180538D01*
X83819898Y-66180539D01*
X83844561Y-66180539D01*
X83874496Y-66180539D01*
X83908847Y-66180539D01*
X84667313Y-66180539D01*
X84668903Y-66180548D01*
X84685113Y-66180757D01*
X84739254Y-66181452D01*
X84739254Y-66181451D01*
X84739257Y-66181452D01*
X84883814Y-66150257D01*
X85017684Y-66087418D01*
X85134038Y-65996140D01*
X85226941Y-65881079D01*
X85291654Y-65748105D01*
X85324876Y-65604000D01*
X85324913Y-65572571D01*
X85324965Y-65572064D01*
X85324965Y-65529986D01*
X85324965Y-65529976D01*
X85324973Y-65495707D01*
X85324972Y-65495705D01*
X85324975Y-65482089D01*
X85324965Y-65481988D01*
X85324965Y-65467811D01*
X86025732Y-65467811D01*
X86380701Y-65822780D01*
X86735669Y-65467811D01*
X87439946Y-65467811D01*
X87794915Y-65822780D01*
X88149883Y-65467811D01*
X88854159Y-65467811D01*
X89209128Y-65822780D01*
X89564096Y-65467811D01*
X90268373Y-65467811D01*
X90623342Y-65822780D01*
X90978310Y-65467811D01*
X90623342Y-65112843D01*
X90268373Y-65467811D01*
X89564096Y-65467811D01*
X89209128Y-65112843D01*
X88854159Y-65467811D01*
X88149883Y-65467811D01*
X87794915Y-65112843D01*
X87439946Y-65467811D01*
X86735669Y-65467811D01*
X86380701Y-65112843D01*
X86025732Y-65467811D01*
X85324965Y-65467811D01*
X85324965Y-64966302D01*
X85822965Y-64966302D01*
X86028562Y-64760705D01*
X86732840Y-64760705D01*
X87087808Y-65115673D01*
X87442776Y-64760705D01*
X88147053Y-64760705D01*
X88502021Y-65115673D01*
X88856989Y-64760705D01*
X89561267Y-64760705D01*
X89916235Y-65115673D01*
X90271203Y-64760705D01*
X90975480Y-64760705D01*
X91330448Y-65115673D01*
X91425965Y-65020157D01*
X91425965Y-64501253D01*
X91330448Y-64405736D01*
X90975480Y-64760705D01*
X90271203Y-64760705D01*
X89916235Y-64405737D01*
X89561267Y-64760705D01*
X88856989Y-64760705D01*
X88502021Y-64405736D01*
X88147053Y-64760705D01*
X87442776Y-64760705D01*
X87087808Y-64405737D01*
X86732840Y-64760705D01*
X86028562Y-64760705D01*
X85822965Y-64555108D01*
X85822965Y-64966302D01*
X85324965Y-64966302D01*
X85324965Y-64053598D01*
X86025733Y-64053598D01*
X86380701Y-64408566D01*
X86735669Y-64053598D01*
X87439947Y-64053598D01*
X87794915Y-64408566D01*
X88149883Y-64053598D01*
X88854160Y-64053598D01*
X89209128Y-64408566D01*
X89564096Y-64053598D01*
X90268374Y-64053598D01*
X90623342Y-64408566D01*
X90978310Y-64053598D01*
X90753454Y-63828742D01*
X91923958Y-63828742D01*
X91923965Y-63828801D01*
X91923965Y-65478661D01*
X91923959Y-65478681D01*
X91923963Y-65603319D01*
X91923964Y-65603325D01*
X91956587Y-65746232D01*
X91956588Y-65746235D01*
X91956589Y-65746238D01*
X92020196Y-65878311D01*
X92020197Y-65878312D01*
X92020198Y-65878314D01*
X92020199Y-65878315D01*
X92072090Y-65943382D01*
X92111597Y-65992919D01*
X92226209Y-66084316D01*
X92226210Y-66084316D01*
X92226211Y-66084317D01*
X92358284Y-66147919D01*
X92358282Y-66147919D01*
X92501193Y-66180537D01*
X92501198Y-66180537D01*
X92501200Y-66180538D01*
X92519894Y-66180538D01*
X92519898Y-66180539D01*
X92544561Y-66180539D01*
X92574496Y-66180539D01*
X92608847Y-66180539D01*
X93367313Y-66180539D01*
X93368903Y-66180548D01*
X93385113Y-66180757D01*
X93439254Y-66181452D01*
X93439254Y-66181451D01*
X93439257Y-66181452D01*
X93583814Y-66150257D01*
X93717684Y-66087418D01*
X93834038Y-65996140D01*
X93926941Y-65881079D01*
X93991654Y-65748105D01*
X94024876Y-65604000D01*
X94024913Y-65572571D01*
X94024965Y-65572064D01*
X94024965Y-65529986D01*
X94024965Y-65529976D01*
X94024973Y-65495707D01*
X94024972Y-65495705D01*
X94024975Y-65482089D01*
X94024965Y-65481988D01*
X94024965Y-65455860D01*
X94522965Y-65455860D01*
X94522965Y-65468301D01*
X94522979Y-65468561D01*
X94522976Y-65479774D01*
X94865982Y-65822780D01*
X95220950Y-65467811D01*
X95925227Y-65467811D01*
X96280196Y-65822780D01*
X96635164Y-65467811D01*
X97339441Y-65467811D01*
X97694409Y-65822780D01*
X98049378Y-65467811D01*
X98753654Y-65467811D01*
X99108623Y-65822780D01*
X99463591Y-65467811D01*
X100167868Y-65467811D01*
X100522837Y-65822780D01*
X100877805Y-65467811D01*
X101582081Y-65467811D01*
X101937050Y-65822780D01*
X102292018Y-65467811D01*
X102996295Y-65467811D01*
X103351264Y-65822780D01*
X103706232Y-65467811D01*
X104410508Y-65467811D01*
X104765477Y-65822780D01*
X105120445Y-65467811D01*
X105824722Y-65467811D01*
X106179691Y-65822780D01*
X106534659Y-65467811D01*
X107238936Y-65467811D01*
X107593904Y-65822780D01*
X107948873Y-65467811D01*
X108653149Y-65467811D01*
X109008118Y-65822780D01*
X109363086Y-65467811D01*
X110067363Y-65467811D01*
X110422332Y-65822780D01*
X110777300Y-65467811D01*
X111481576Y-65467811D01*
X111836545Y-65822780D01*
X112191513Y-65467811D01*
X112895790Y-65467811D01*
X113250759Y-65822780D01*
X113605727Y-65467811D01*
X114310003Y-65467811D01*
X114664972Y-65822780D01*
X115019940Y-65467811D01*
X115724217Y-65467811D01*
X116079186Y-65822780D01*
X116434154Y-65467811D01*
X117138430Y-65467811D01*
X117493399Y-65822780D01*
X117848367Y-65467811D01*
X118552644Y-65467811D01*
X118907613Y-65822780D01*
X119262581Y-65467811D01*
X119966858Y-65467811D01*
X120321826Y-65822780D01*
X120676795Y-65467811D01*
X121381071Y-65467811D01*
X121736040Y-65822780D01*
X122091008Y-65467811D01*
X122795285Y-65467811D01*
X123150254Y-65822780D01*
X123505222Y-65467811D01*
X123150254Y-65112843D01*
X122795285Y-65467811D01*
X122091008Y-65467811D01*
X121736040Y-65112843D01*
X121381071Y-65467811D01*
X120676795Y-65467811D01*
X120321826Y-65112843D01*
X119966858Y-65467811D01*
X119262581Y-65467811D01*
X118907613Y-65112843D01*
X118552644Y-65467811D01*
X117848367Y-65467811D01*
X117493399Y-65112843D01*
X117138430Y-65467811D01*
X116434154Y-65467811D01*
X116079186Y-65112843D01*
X115724217Y-65467811D01*
X115019940Y-65467811D01*
X114664972Y-65112843D01*
X114310003Y-65467811D01*
X113605727Y-65467811D01*
X113250759Y-65112843D01*
X112895790Y-65467811D01*
X112191513Y-65467811D01*
X111836545Y-65112843D01*
X111481576Y-65467811D01*
X110777300Y-65467811D01*
X110422332Y-65112843D01*
X110067363Y-65467811D01*
X109363086Y-65467811D01*
X109008118Y-65112843D01*
X108653149Y-65467811D01*
X107948873Y-65467811D01*
X107593904Y-65112843D01*
X107238936Y-65467811D01*
X106534659Y-65467811D01*
X106179691Y-65112843D01*
X105824722Y-65467811D01*
X105120445Y-65467811D01*
X104765477Y-65112843D01*
X104410508Y-65467811D01*
X103706232Y-65467811D01*
X103351264Y-65112843D01*
X102996295Y-65467811D01*
X102292018Y-65467811D01*
X101937050Y-65112843D01*
X101582081Y-65467811D01*
X100877805Y-65467811D01*
X100522837Y-65112843D01*
X100167868Y-65467811D01*
X99463591Y-65467811D01*
X99108623Y-65112843D01*
X98753654Y-65467811D01*
X98049378Y-65467811D01*
X97694409Y-65112843D01*
X97339441Y-65467811D01*
X96635164Y-65467811D01*
X96280196Y-65112843D01*
X95925227Y-65467811D01*
X95220950Y-65467811D01*
X94865982Y-65112843D01*
X94522965Y-65455860D01*
X94024965Y-65455860D01*
X94024965Y-64760705D01*
X95218121Y-64760705D01*
X95573089Y-65115673D01*
X95928057Y-64760705D01*
X96632335Y-64760705D01*
X96987303Y-65115673D01*
X97342271Y-64760705D01*
X98046548Y-64760705D01*
X98401516Y-65115673D01*
X98756484Y-64760705D01*
X99460762Y-64760705D01*
X99815730Y-65115673D01*
X100170698Y-64760705D01*
X100874975Y-64760705D01*
X101229943Y-65115673D01*
X101584911Y-64760705D01*
X102289189Y-64760705D01*
X102644157Y-65115673D01*
X102999125Y-64760705D01*
X103703403Y-64760705D01*
X104058371Y-65115673D01*
X104413339Y-64760705D01*
X105117616Y-64760705D01*
X105472584Y-65115673D01*
X105827552Y-64760705D01*
X106531830Y-64760705D01*
X106886798Y-65115673D01*
X107241766Y-64760705D01*
X107946043Y-64760705D01*
X108301011Y-65115673D01*
X108655979Y-64760705D01*
X109360257Y-64760705D01*
X109715225Y-65115673D01*
X110070193Y-64760705D01*
X110774470Y-64760705D01*
X111129438Y-65115673D01*
X111484406Y-64760705D01*
X112188684Y-64760705D01*
X112543652Y-65115673D01*
X112898620Y-64760705D01*
X113602897Y-64760705D01*
X113957865Y-65115673D01*
X114312834Y-64760705D01*
X115017111Y-64760705D01*
X115372079Y-65115673D01*
X115727047Y-64760705D01*
X116431325Y-64760705D01*
X116786293Y-65115673D01*
X117141261Y-64760705D01*
X117845538Y-64760705D01*
X118200506Y-65115673D01*
X118555474Y-64760705D01*
X119259752Y-64760705D01*
X119614720Y-65115673D01*
X119969688Y-64760705D01*
X120673965Y-64760705D01*
X121028933Y-65115673D01*
X121383901Y-64760705D01*
X122088179Y-64760705D01*
X122443147Y-65115673D01*
X122798115Y-64760705D01*
X123502392Y-64760705D01*
X123857360Y-65115673D01*
X123942831Y-65030202D01*
X123942831Y-64491207D01*
X123857360Y-64405736D01*
X123502392Y-64760705D01*
X122798115Y-64760705D01*
X122443147Y-64405737D01*
X122088179Y-64760705D01*
X121383901Y-64760705D01*
X121028933Y-64405737D01*
X120673965Y-64760705D01*
X119969688Y-64760705D01*
X119614720Y-64405737D01*
X119259752Y-64760705D01*
X118555474Y-64760705D01*
X118200506Y-64405737D01*
X117845538Y-64760705D01*
X117141261Y-64760705D01*
X116786293Y-64405737D01*
X116431325Y-64760705D01*
X115727047Y-64760705D01*
X115372079Y-64405737D01*
X115017111Y-64760705D01*
X114312834Y-64760705D01*
X113957865Y-64405736D01*
X113602897Y-64760705D01*
X112898620Y-64760705D01*
X112543652Y-64405737D01*
X112188684Y-64760705D01*
X111484406Y-64760705D01*
X111129438Y-64405736D01*
X110774470Y-64760705D01*
X110070193Y-64760705D01*
X109715225Y-64405737D01*
X109360257Y-64760705D01*
X108655979Y-64760705D01*
X108301011Y-64405737D01*
X107946043Y-64760705D01*
X107241766Y-64760705D01*
X106886798Y-64405737D01*
X106531830Y-64760705D01*
X105827552Y-64760705D01*
X105472584Y-64405737D01*
X105117616Y-64760705D01*
X104413339Y-64760705D01*
X104058371Y-64405737D01*
X103703403Y-64760705D01*
X102999125Y-64760705D01*
X102644157Y-64405737D01*
X102289189Y-64760705D01*
X101584911Y-64760705D01*
X101229943Y-64405736D01*
X100874975Y-64760705D01*
X100170698Y-64760705D01*
X99815730Y-64405737D01*
X99460762Y-64760705D01*
X98756484Y-64760705D01*
X98401516Y-64405737D01*
X98046548Y-64760705D01*
X97342271Y-64760705D01*
X96987303Y-64405737D01*
X96632335Y-64760705D01*
X95928057Y-64760705D01*
X95573089Y-64405737D01*
X95218121Y-64760705D01*
X94024965Y-64760705D01*
X94024965Y-64041647D01*
X94522965Y-64041647D01*
X94522965Y-64065549D01*
X94865982Y-64408566D01*
X95220950Y-64053598D01*
X95925228Y-64053598D01*
X96280196Y-64408566D01*
X96635164Y-64053598D01*
X97339441Y-64053598D01*
X97694409Y-64408566D01*
X98049378Y-64053598D01*
X98753655Y-64053598D01*
X99108623Y-64408566D01*
X99463591Y-64053598D01*
X100167869Y-64053598D01*
X100522837Y-64408566D01*
X100877805Y-64053598D01*
X101582082Y-64053598D01*
X101937050Y-64408566D01*
X102292018Y-64053598D01*
X102996296Y-64053598D01*
X103351264Y-64408566D01*
X103706232Y-64053598D01*
X104410509Y-64053598D01*
X104765477Y-64408566D01*
X105120445Y-64053598D01*
X105824723Y-64053598D01*
X106179691Y-64408566D01*
X106534659Y-64053598D01*
X107238936Y-64053598D01*
X107593904Y-64408566D01*
X107948873Y-64053598D01*
X108653150Y-64053598D01*
X109008118Y-64408566D01*
X109363086Y-64053598D01*
X110067364Y-64053598D01*
X110422332Y-64408566D01*
X110777300Y-64053598D01*
X111481577Y-64053598D01*
X111836545Y-64408566D01*
X112191513Y-64053598D01*
X112895791Y-64053598D01*
X113250759Y-64408566D01*
X113605727Y-64053598D01*
X114310004Y-64053598D01*
X114664972Y-64408566D01*
X115019940Y-64053598D01*
X115724218Y-64053598D01*
X116079186Y-64408566D01*
X116434154Y-64053598D01*
X117138431Y-64053598D01*
X117493399Y-64408566D01*
X117848367Y-64053598D01*
X118552645Y-64053598D01*
X118907613Y-64408566D01*
X119262581Y-64053598D01*
X119966858Y-64053598D01*
X120321826Y-64408566D01*
X120676795Y-64053598D01*
X121381072Y-64053598D01*
X121736040Y-64408566D01*
X122091008Y-64053598D01*
X122795286Y-64053598D01*
X123150254Y-64408566D01*
X123505222Y-64053598D01*
X123150254Y-63698630D01*
X122795286Y-64053598D01*
X122091008Y-64053598D01*
X121736040Y-63698630D01*
X121381072Y-64053598D01*
X120676795Y-64053598D01*
X120321826Y-63698629D01*
X119966858Y-64053598D01*
X119262581Y-64053598D01*
X118907613Y-63698630D01*
X118552645Y-64053598D01*
X117848367Y-64053598D01*
X117493399Y-63698629D01*
X117138431Y-64053598D01*
X116434154Y-64053598D01*
X116079186Y-63698630D01*
X115724218Y-64053598D01*
X115019940Y-64053598D01*
X114664972Y-63698630D01*
X114310004Y-64053598D01*
X113605727Y-64053598D01*
X113250759Y-63698630D01*
X112895791Y-64053598D01*
X112191513Y-64053598D01*
X111836545Y-63698630D01*
X111481577Y-64053598D01*
X110777300Y-64053598D01*
X110422332Y-63698630D01*
X110067364Y-64053598D01*
X109363086Y-64053598D01*
X109008118Y-63698630D01*
X108653150Y-64053598D01*
X107948873Y-64053598D01*
X107593904Y-63698629D01*
X107238936Y-64053598D01*
X106534659Y-64053598D01*
X106179691Y-63698630D01*
X105824723Y-64053598D01*
X105120445Y-64053598D01*
X104765477Y-63698630D01*
X104410509Y-64053598D01*
X103706232Y-64053598D01*
X103351264Y-63698630D01*
X102996296Y-64053598D01*
X102292018Y-64053598D01*
X101937050Y-63698630D01*
X101582082Y-64053598D01*
X100877805Y-64053598D01*
X100522837Y-63698630D01*
X100167869Y-64053598D01*
X99463591Y-64053598D01*
X99108623Y-63698630D01*
X98753655Y-64053598D01*
X98049378Y-64053598D01*
X97694409Y-63698629D01*
X97339441Y-64053598D01*
X96635164Y-64053598D01*
X96280196Y-63698630D01*
X95925228Y-64053598D01*
X95220950Y-64053598D01*
X94865982Y-63698629D01*
X94522965Y-64041647D01*
X94024965Y-64041647D01*
X94024965Y-63781988D01*
X94024968Y-63781153D01*
X94025177Y-63750074D01*
X94025440Y-63711092D01*
X94025439Y-63711086D01*
X93993567Y-63567332D01*
X93993566Y-63567330D01*
X93977219Y-63532931D01*
X93930363Y-63434331D01*
X93839030Y-63318824D01*
X93724188Y-63226656D01*
X93722389Y-63225785D01*
X93680710Y-63205607D01*
X94372960Y-63205607D01*
X94374131Y-63207901D01*
X94449388Y-63366263D01*
X94452208Y-63372656D01*
X94457531Y-63385707D01*
X94459987Y-63392250D01*
X94462057Y-63398277D01*
X94513842Y-63346491D01*
X95218121Y-63346491D01*
X95573089Y-63701459D01*
X95928057Y-63346491D01*
X96632335Y-63346491D01*
X96987303Y-63701459D01*
X97342271Y-63346491D01*
X98046548Y-63346491D01*
X98401516Y-63701459D01*
X98756484Y-63346491D01*
X99460762Y-63346491D01*
X99815730Y-63701459D01*
X100170698Y-63346491D01*
X100874975Y-63346491D01*
X101229943Y-63701459D01*
X101584911Y-63346491D01*
X102289189Y-63346491D01*
X102644157Y-63701459D01*
X102999125Y-63346491D01*
X103703403Y-63346491D01*
X104058371Y-63701459D01*
X104413339Y-63346491D01*
X105117616Y-63346491D01*
X105472584Y-63701459D01*
X105827552Y-63346491D01*
X106531830Y-63346491D01*
X106886798Y-63701459D01*
X107241766Y-63346491D01*
X107946043Y-63346491D01*
X108301011Y-63701459D01*
X108655979Y-63346491D01*
X109360257Y-63346491D01*
X109715225Y-63701459D01*
X110070193Y-63346491D01*
X110774470Y-63346491D01*
X111129438Y-63701459D01*
X111484406Y-63346491D01*
X112188684Y-63346491D01*
X112543652Y-63701459D01*
X112898620Y-63346491D01*
X113602897Y-63346491D01*
X113957865Y-63701459D01*
X114312834Y-63346491D01*
X115017111Y-63346491D01*
X115372079Y-63701459D01*
X115727047Y-63346491D01*
X116431325Y-63346491D01*
X116786293Y-63701459D01*
X117141261Y-63346491D01*
X117845538Y-63346491D01*
X118200506Y-63701459D01*
X118555474Y-63346491D01*
X119259752Y-63346491D01*
X119614720Y-63701459D01*
X119969688Y-63346491D01*
X120673965Y-63346491D01*
X121028933Y-63701459D01*
X121383901Y-63346491D01*
X122088179Y-63346491D01*
X122443147Y-63701459D01*
X122798115Y-63346491D01*
X123502392Y-63346491D01*
X123857360Y-63701459D01*
X123942831Y-63615988D01*
X123942831Y-63076994D01*
X123857360Y-62991523D01*
X123502392Y-63346491D01*
X122798115Y-63346491D01*
X122443147Y-62991523D01*
X122088179Y-63346491D01*
X121383901Y-63346491D01*
X121028933Y-62991523D01*
X120673965Y-63346491D01*
X119969688Y-63346491D01*
X119614720Y-62991523D01*
X119259752Y-63346491D01*
X118555474Y-63346491D01*
X118200506Y-62991523D01*
X117845538Y-63346491D01*
X117141261Y-63346491D01*
X116786293Y-62991523D01*
X116431325Y-63346491D01*
X115727047Y-63346491D01*
X115372079Y-62991523D01*
X115017111Y-63346491D01*
X114312834Y-63346491D01*
X113957865Y-62991522D01*
X113602897Y-63346491D01*
X112898620Y-63346491D01*
X112543652Y-62991523D01*
X112188684Y-63346491D01*
X111484406Y-63346491D01*
X111129438Y-62991522D01*
X110774470Y-63346491D01*
X110070193Y-63346491D01*
X109715225Y-62991523D01*
X109360257Y-63346491D01*
X108655979Y-63346491D01*
X108301011Y-62991523D01*
X107946043Y-63346491D01*
X107241766Y-63346491D01*
X106886798Y-62991523D01*
X106531830Y-63346491D01*
X105827552Y-63346491D01*
X105472584Y-62991523D01*
X105117616Y-63346491D01*
X104413339Y-63346491D01*
X104058371Y-62991523D01*
X103703403Y-63346491D01*
X102999125Y-63346491D01*
X102644157Y-62991523D01*
X102289189Y-63346491D01*
X101584911Y-63346491D01*
X101229943Y-62991522D01*
X100874975Y-63346491D01*
X100170698Y-63346491D01*
X99815730Y-62991523D01*
X99460762Y-63346491D01*
X98756484Y-63346491D01*
X98401516Y-62991523D01*
X98046548Y-63346491D01*
X97342271Y-63346491D01*
X96987303Y-62991523D01*
X96632335Y-63346491D01*
X95928057Y-63346491D01*
X95573089Y-62991523D01*
X95218121Y-63346491D01*
X94513842Y-63346491D01*
X94513843Y-63346490D01*
X94372960Y-63205607D01*
X93680710Y-63205607D01*
X93591656Y-63162493D01*
X93591648Y-63162490D01*
X93448123Y-63129576D01*
X93416752Y-63129560D01*
X93416539Y-63129539D01*
X93404433Y-63129539D01*
X92623250Y-63129539D01*
X92623223Y-63129536D01*
X92574472Y-63129538D01*
X92574454Y-63129539D01*
X92532772Y-63129539D01*
X92532484Y-63129566D01*
X92501168Y-63129568D01*
X92415299Y-63149171D01*
X92358269Y-63162190D01*
X92358267Y-63162190D01*
X92358266Y-63162191D01*
X92226214Y-63225785D01*
X92226212Y-63225786D01*
X92226211Y-63225787D01*
X92111612Y-63317171D01*
X92111611Y-63317172D01*
X92111610Y-63317173D01*
X92020219Y-63431759D01*
X91956608Y-63563816D01*
X91923975Y-63706710D01*
X91923970Y-63739235D01*
X91923965Y-63739301D01*
X91923965Y-63780015D01*
X91923958Y-63828742D01*
X90753454Y-63828742D01*
X90623342Y-63698630D01*
X90268374Y-64053598D01*
X89564096Y-64053598D01*
X89209128Y-63698630D01*
X88854160Y-64053598D01*
X88149883Y-64053598D01*
X87794915Y-63698630D01*
X87439947Y-64053598D01*
X86735669Y-64053598D01*
X86380701Y-63698630D01*
X86025733Y-64053598D01*
X85324965Y-64053598D01*
X85324965Y-63781988D01*
X85324968Y-63781153D01*
X85325177Y-63750074D01*
X85325440Y-63711092D01*
X85325439Y-63711086D01*
X85293567Y-63567332D01*
X85293566Y-63567330D01*
X85277219Y-63532931D01*
X85230363Y-63434331D01*
X85139030Y-63318824D01*
X85024188Y-63226656D01*
X85022389Y-63225785D01*
X84891656Y-63162493D01*
X84891648Y-63162490D01*
X84748123Y-63129576D01*
X84716752Y-63129560D01*
X84716539Y-63129539D01*
X84704433Y-63129539D01*
X83923250Y-63129539D01*
X83923223Y-63129536D01*
X83874472Y-63129538D01*
X83874454Y-63129539D01*
X83832772Y-63129539D01*
X83832484Y-63129566D01*
X83801168Y-63129568D01*
X83715299Y-63149171D01*
X83658269Y-63162190D01*
X83658267Y-63162190D01*
X83658266Y-63162191D01*
X83526214Y-63225785D01*
X83526212Y-63225786D01*
X83526211Y-63225787D01*
X83411612Y-63317171D01*
X83411611Y-63317172D01*
X83411610Y-63317173D01*
X83320219Y-63431759D01*
X83256608Y-63563816D01*
X83223975Y-63706710D01*
X83223970Y-63739235D01*
X83223965Y-63739301D01*
X83223965Y-63780015D01*
X83223958Y-63828742D01*
X82237510Y-63828742D01*
X82237510Y-63454677D01*
X82735510Y-63454677D01*
X82735510Y-63591802D01*
X82738673Y-63594965D01*
X82774219Y-63439315D01*
X82775957Y-63432580D01*
X82779842Y-63419101D01*
X82781956Y-63412473D01*
X82791192Y-63386089D01*
X82793672Y-63379594D01*
X82799041Y-63366636D01*
X82801882Y-63360288D01*
X82877621Y-63203054D01*
X82880812Y-63196879D01*
X82887596Y-63184606D01*
X82891131Y-63178615D01*
X82906003Y-63154950D01*
X82909864Y-63149171D01*
X82917983Y-63137729D01*
X82922168Y-63132169D01*
X82932980Y-63118611D01*
X82893059Y-63139950D01*
X82840161Y-63183362D01*
X82796743Y-63236267D01*
X82764489Y-63296614D01*
X82744626Y-63362097D01*
X82735510Y-63454677D01*
X82237510Y-63454677D01*
X82237510Y-63436307D01*
X82238107Y-63424155D01*
X82241249Y-63392250D01*
X82252633Y-63276637D01*
X82257375Y-63252799D01*
X82265305Y-63226656D01*
X82298624Y-63116810D01*
X82307925Y-63094356D01*
X82315582Y-63080030D01*
X85585085Y-63080030D01*
X85629710Y-63136466D01*
X85633893Y-63142074D01*
X85642001Y-63153610D01*
X85645855Y-63159435D01*
X85660685Y-63183285D01*
X85664205Y-63189320D01*
X85670957Y-63201681D01*
X85674131Y-63207901D01*
X85749388Y-63366263D01*
X85752208Y-63372656D01*
X85757531Y-63385707D01*
X85759987Y-63392250D01*
X85769112Y-63418812D01*
X85771195Y-63425481D01*
X85775016Y-63439047D01*
X85776720Y-63445825D01*
X85804396Y-63570656D01*
X86028562Y-63346491D01*
X86732840Y-63346491D01*
X87087808Y-63701459D01*
X87442776Y-63346491D01*
X88147053Y-63346491D01*
X88502021Y-63701459D01*
X88856989Y-63346491D01*
X89561267Y-63346491D01*
X89916235Y-63701459D01*
X90271203Y-63346491D01*
X90975480Y-63346491D01*
X91330448Y-63701458D01*
X91439185Y-63592721D01*
X91474219Y-63439315D01*
X91475957Y-63432580D01*
X91479842Y-63419101D01*
X91481956Y-63412473D01*
X91491192Y-63386089D01*
X91493672Y-63379594D01*
X91499041Y-63366636D01*
X91501882Y-63360288D01*
X91566034Y-63227108D01*
X91330448Y-62991522D01*
X90975480Y-63346491D01*
X90271203Y-63346491D01*
X89916235Y-62991523D01*
X89561267Y-63346491D01*
X88856989Y-63346491D01*
X88502021Y-62991522D01*
X88147053Y-63346491D01*
X87442776Y-63346491D01*
X87087808Y-62991523D01*
X86732840Y-63346491D01*
X86028562Y-63346491D01*
X85702113Y-63020042D01*
X85694544Y-63022429D01*
X85689350Y-63023943D01*
X85668353Y-63029569D01*
X85663093Y-63030856D01*
X85652441Y-63033217D01*
X85647136Y-63034272D01*
X85627357Y-63037758D01*
X85585085Y-63080030D01*
X82315582Y-63080030D01*
X82346369Y-63022429D01*
X82374914Y-62969023D01*
X82388414Y-62948818D01*
X82478573Y-62838958D01*
X82495752Y-62821779D01*
X82527497Y-62795726D01*
X86182074Y-62795726D01*
X86380701Y-62994352D01*
X86735669Y-62639384D01*
X87439946Y-62639384D01*
X87794915Y-62994352D01*
X88149883Y-62639384D01*
X88854159Y-62639384D01*
X89209128Y-62994352D01*
X89564096Y-62639384D01*
X90268373Y-62639384D01*
X90623342Y-62994352D01*
X90978310Y-62639384D01*
X91682587Y-62639384D01*
X91895643Y-62852440D01*
X91926652Y-62827713D01*
X91932201Y-62823536D01*
X91943637Y-62815421D01*
X91949427Y-62811553D01*
X91973095Y-62796682D01*
X91979076Y-62793154D01*
X91991354Y-62786367D01*
X91997541Y-62783170D01*
X92154787Y-62707443D01*
X92161140Y-62704601D01*
X92174103Y-62699232D01*
X92180598Y-62696752D01*
X92206982Y-62687520D01*
X92213613Y-62685407D01*
X92227086Y-62681526D01*
X92233811Y-62679791D01*
X92387111Y-62644793D01*
X92392522Y-62639383D01*
X92384678Y-62631539D01*
X93104646Y-62631539D01*
X93428945Y-62631539D01*
X93429508Y-62631566D01*
X93462390Y-62631584D01*
X93469346Y-62631783D01*
X93483377Y-62632579D01*
X93490329Y-62633170D01*
X93518171Y-62636328D01*
X93525069Y-62637307D01*
X93538936Y-62639675D01*
X93545781Y-62641044D01*
X93716655Y-62680231D01*
X93723415Y-62681983D01*
X93736954Y-62685902D01*
X93743615Y-62688035D01*
X93754320Y-62691799D01*
X93806735Y-62639384D01*
X94511013Y-62639384D01*
X94865982Y-62994352D01*
X95220950Y-62639384D01*
X95925227Y-62639384D01*
X96280196Y-62994352D01*
X96635164Y-62639384D01*
X97339441Y-62639384D01*
X97694409Y-62994352D01*
X98049378Y-62639384D01*
X98753654Y-62639384D01*
X99108623Y-62994352D01*
X99463591Y-62639384D01*
X100167868Y-62639384D01*
X100522837Y-62994352D01*
X100877805Y-62639384D01*
X101582081Y-62639384D01*
X101937050Y-62994352D01*
X102292018Y-62639384D01*
X102996295Y-62639384D01*
X103351264Y-62994352D01*
X103706232Y-62639384D01*
X104410508Y-62639384D01*
X104765477Y-62994352D01*
X105120445Y-62639384D01*
X105824722Y-62639384D01*
X106179691Y-62994352D01*
X106534659Y-62639384D01*
X107238936Y-62639384D01*
X107593904Y-62994352D01*
X107948873Y-62639384D01*
X108653149Y-62639384D01*
X109008118Y-62994352D01*
X109363086Y-62639384D01*
X110067363Y-62639384D01*
X110422332Y-62994352D01*
X110777300Y-62639384D01*
X111481576Y-62639384D01*
X111836545Y-62994352D01*
X112191513Y-62639384D01*
X112895790Y-62639384D01*
X113250759Y-62994352D01*
X113605727Y-62639384D01*
X114310003Y-62639384D01*
X114664972Y-62994352D01*
X115019940Y-62639384D01*
X115724217Y-62639384D01*
X116079186Y-62994352D01*
X116434154Y-62639384D01*
X117138430Y-62639384D01*
X117493399Y-62994352D01*
X117848367Y-62639384D01*
X118552644Y-62639384D01*
X118907613Y-62994352D01*
X119262581Y-62639384D01*
X119966858Y-62639384D01*
X120321826Y-62994352D01*
X120676795Y-62639384D01*
X121381071Y-62639384D01*
X121736040Y-62994352D01*
X122091008Y-62639384D01*
X122795285Y-62639384D01*
X123150254Y-62994352D01*
X123505222Y-62639384D01*
X123150254Y-62284416D01*
X122795285Y-62639384D01*
X122091008Y-62639384D01*
X121736040Y-62284416D01*
X121381071Y-62639384D01*
X120676795Y-62639384D01*
X120321826Y-62284415D01*
X119966858Y-62639384D01*
X119262581Y-62639384D01*
X118907613Y-62284416D01*
X118552644Y-62639384D01*
X117848367Y-62639384D01*
X117493399Y-62284415D01*
X117138430Y-62639384D01*
X116434154Y-62639384D01*
X116079186Y-62284416D01*
X115724217Y-62639384D01*
X115019940Y-62639384D01*
X114664972Y-62284416D01*
X114310003Y-62639384D01*
X113605727Y-62639384D01*
X113250759Y-62284416D01*
X112895790Y-62639384D01*
X112191513Y-62639384D01*
X111836545Y-62284416D01*
X111481576Y-62639384D01*
X110777300Y-62639384D01*
X110422332Y-62284416D01*
X110067363Y-62639384D01*
X109363086Y-62639384D01*
X109008118Y-62284416D01*
X108653149Y-62639384D01*
X107948873Y-62639384D01*
X107593904Y-62284415D01*
X107238936Y-62639384D01*
X106534659Y-62639384D01*
X106179691Y-62284416D01*
X105824722Y-62639384D01*
X105120445Y-62639384D01*
X104765477Y-62284416D01*
X104410508Y-62639384D01*
X103706232Y-62639384D01*
X103351264Y-62284416D01*
X102996295Y-62639384D01*
X102292018Y-62639384D01*
X101937050Y-62284416D01*
X101582081Y-62639384D01*
X100877805Y-62639384D01*
X100522837Y-62284416D01*
X100167868Y-62639384D01*
X99463591Y-62639384D01*
X99108623Y-62284416D01*
X98753654Y-62639384D01*
X98049378Y-62639384D01*
X97694409Y-62284415D01*
X97339441Y-62639384D01*
X96635164Y-62639384D01*
X96280196Y-62284416D01*
X95925227Y-62639384D01*
X95220950Y-62639384D01*
X94865982Y-62284415D01*
X94511013Y-62639384D01*
X93806735Y-62639384D01*
X93806736Y-62639383D01*
X93451769Y-62284416D01*
X93104646Y-62631539D01*
X92384678Y-62631539D01*
X92037555Y-62284416D01*
X91682587Y-62639384D01*
X90978310Y-62639384D01*
X90623342Y-62284416D01*
X90268373Y-62639384D01*
X89564096Y-62639384D01*
X89209128Y-62284416D01*
X88854159Y-62639384D01*
X88149883Y-62639384D01*
X87794915Y-62284416D01*
X87439946Y-62639384D01*
X86735669Y-62639384D01*
X86546843Y-62450558D01*
X86442190Y-62575274D01*
X86438624Y-62579341D01*
X86431261Y-62587376D01*
X86427527Y-62591277D01*
X86412157Y-62606649D01*
X86408241Y-62610397D01*
X86400189Y-62617775D01*
X86396121Y-62621343D01*
X86225248Y-62764715D01*
X86221029Y-62768100D01*
X86212370Y-62774744D01*
X86208001Y-62777948D01*
X86190193Y-62790415D01*
X86185697Y-62793419D01*
X86182074Y-62795726D01*
X82527497Y-62795726D01*
X82605608Y-62731621D01*
X82625812Y-62718121D01*
X82751152Y-62651126D01*
X82773593Y-62641830D01*
X82909600Y-62600574D01*
X82933425Y-62595835D01*
X83080946Y-62581306D01*
X83093099Y-62580710D01*
X85293329Y-62580710D01*
X85293713Y-62580670D01*
X85351719Y-62580673D01*
X85549969Y-62545722D01*
X85739138Y-62476877D01*
X85913478Y-62376228D01*
X86067692Y-62246834D01*
X86197094Y-62092627D01*
X86251671Y-61998103D01*
X86798665Y-61998103D01*
X87087808Y-62287246D01*
X87442776Y-61932278D01*
X88147053Y-61932278D01*
X88502021Y-62287246D01*
X88856989Y-61932278D01*
X89561267Y-61932278D01*
X89916235Y-62287246D01*
X90271203Y-61932278D01*
X90975480Y-61932278D01*
X91330448Y-62287246D01*
X91685417Y-61932278D01*
X92389694Y-61932278D01*
X92744662Y-62287246D01*
X93099630Y-61932278D01*
X93803908Y-61932278D01*
X94158876Y-62287246D01*
X94513844Y-61932278D01*
X95218121Y-61932278D01*
X95573089Y-62287246D01*
X95928057Y-61932278D01*
X96632335Y-61932278D01*
X96987303Y-62287246D01*
X97342271Y-61932278D01*
X98046548Y-61932278D01*
X98401516Y-62287246D01*
X98756484Y-61932278D01*
X99460762Y-61932278D01*
X99815730Y-62287246D01*
X100170698Y-61932278D01*
X100874975Y-61932278D01*
X101229943Y-62287246D01*
X101584911Y-61932278D01*
X102289189Y-61932278D01*
X102644157Y-62287246D01*
X102999125Y-61932278D01*
X103703403Y-61932278D01*
X104058371Y-62287246D01*
X104413339Y-61932278D01*
X105117616Y-61932278D01*
X105472584Y-62287246D01*
X105827552Y-61932278D01*
X106531830Y-61932278D01*
X106886798Y-62287246D01*
X107241766Y-61932278D01*
X107946043Y-61932278D01*
X108301011Y-62287246D01*
X108655979Y-61932278D01*
X109360257Y-61932278D01*
X109715225Y-62287246D01*
X110070193Y-61932278D01*
X110774470Y-61932278D01*
X111129438Y-62287246D01*
X111484406Y-61932278D01*
X112188684Y-61932278D01*
X112543652Y-62287246D01*
X112898620Y-61932278D01*
X113602897Y-61932278D01*
X113957865Y-62287246D01*
X114312834Y-61932278D01*
X115017111Y-61932278D01*
X115372079Y-62287246D01*
X115727047Y-61932278D01*
X116431325Y-61932278D01*
X116786293Y-62287246D01*
X117141261Y-61932278D01*
X117845538Y-61932278D01*
X118200506Y-62287246D01*
X118555474Y-61932278D01*
X119259752Y-61932278D01*
X119614720Y-62287246D01*
X119969688Y-61932278D01*
X120673965Y-61932278D01*
X121028933Y-62287246D01*
X121383901Y-61932278D01*
X122088179Y-61932278D01*
X122443147Y-62287246D01*
X122798115Y-61932278D01*
X122443147Y-61577310D01*
X122088179Y-61932278D01*
X121383901Y-61932278D01*
X121028933Y-61577310D01*
X120673965Y-61932278D01*
X119969688Y-61932278D01*
X119614720Y-61577310D01*
X119259752Y-61932278D01*
X118555474Y-61932278D01*
X118200506Y-61577310D01*
X117845538Y-61932278D01*
X117141261Y-61932278D01*
X116786293Y-61577310D01*
X116431325Y-61932278D01*
X115727047Y-61932278D01*
X115372079Y-61577310D01*
X115017111Y-61932278D01*
X114312834Y-61932278D01*
X113957865Y-61577309D01*
X113602897Y-61932278D01*
X112898620Y-61932278D01*
X112543652Y-61577310D01*
X112188684Y-61932278D01*
X111484406Y-61932278D01*
X111129438Y-61577309D01*
X110774470Y-61932278D01*
X110070193Y-61932278D01*
X109715225Y-61577310D01*
X109360257Y-61932278D01*
X108655979Y-61932278D01*
X108301011Y-61577310D01*
X107946043Y-61932278D01*
X107241766Y-61932278D01*
X106886798Y-61577310D01*
X106531830Y-61932278D01*
X105827552Y-61932278D01*
X105472584Y-61577310D01*
X105117616Y-61932278D01*
X104413339Y-61932278D01*
X104058371Y-61577310D01*
X103703403Y-61932278D01*
X102999125Y-61932278D01*
X102644157Y-61577310D01*
X102289189Y-61932278D01*
X101584911Y-61932278D01*
X101229943Y-61577309D01*
X100874975Y-61932278D01*
X100170698Y-61932278D01*
X99815730Y-61577310D01*
X99460762Y-61932278D01*
X98756484Y-61932278D01*
X98401516Y-61577310D01*
X98046548Y-61932278D01*
X97342271Y-61932278D01*
X96987303Y-61577310D01*
X96632335Y-61932278D01*
X95928057Y-61932278D01*
X95573089Y-61577310D01*
X95218121Y-61932278D01*
X94513844Y-61932278D01*
X94158876Y-61577310D01*
X93803908Y-61932278D01*
X93099630Y-61932278D01*
X92744662Y-61577310D01*
X92389694Y-61932278D01*
X91685417Y-61932278D01*
X91330448Y-61577309D01*
X90975480Y-61932278D01*
X90271203Y-61932278D01*
X89916235Y-61577310D01*
X89561267Y-61932278D01*
X88856989Y-61932278D01*
X88502021Y-61577309D01*
X88147053Y-61932278D01*
X87442776Y-61932278D01*
X87087807Y-61577309D01*
X86858652Y-61806464D01*
X86855152Y-61826315D01*
X86854098Y-61831614D01*
X86851738Y-61842261D01*
X86850451Y-61847521D01*
X86844825Y-61868517D01*
X86843312Y-61873708D01*
X86840030Y-61884118D01*
X86838289Y-61889246D01*
X86798665Y-61998103D01*
X86251671Y-61998103D01*
X86297752Y-61918292D01*
X86366607Y-61729126D01*
X86401568Y-61530878D01*
X86401568Y-61484822D01*
X86401570Y-61484818D01*
X86401570Y-61225171D01*
X87439947Y-61225171D01*
X87794915Y-61580139D01*
X88149883Y-61225171D01*
X88854160Y-61225171D01*
X89209128Y-61580139D01*
X89564096Y-61225171D01*
X90268374Y-61225171D01*
X90623342Y-61580139D01*
X90978310Y-61225171D01*
X91682587Y-61225171D01*
X92037555Y-61580139D01*
X92392523Y-61225171D01*
X93096801Y-61225171D01*
X93451769Y-61580139D01*
X93806737Y-61225171D01*
X94511014Y-61225171D01*
X94865982Y-61580139D01*
X95220950Y-61225171D01*
X95925228Y-61225171D01*
X96280196Y-61580139D01*
X96635164Y-61225171D01*
X97339441Y-61225171D01*
X97694409Y-61580139D01*
X98049378Y-61225171D01*
X98753655Y-61225171D01*
X99108623Y-61580139D01*
X99463591Y-61225171D01*
X100167869Y-61225171D01*
X100522837Y-61580139D01*
X100877805Y-61225171D01*
X100877804Y-61225170D01*
X101582081Y-61225170D01*
X101937050Y-61580139D01*
X102292018Y-61225171D01*
X102996296Y-61225171D01*
X103351264Y-61580139D01*
X103706232Y-61225171D01*
X104410509Y-61225171D01*
X104765477Y-61580139D01*
X105120445Y-61225171D01*
X105824723Y-61225171D01*
X106179691Y-61580139D01*
X106534659Y-61225171D01*
X107238936Y-61225171D01*
X107593904Y-61580139D01*
X107948873Y-61225171D01*
X108653150Y-61225171D01*
X109008118Y-61580139D01*
X109363086Y-61225171D01*
X110067364Y-61225171D01*
X110422332Y-61580139D01*
X110777300Y-61225171D01*
X111481577Y-61225171D01*
X111836545Y-61580139D01*
X112191513Y-61225171D01*
X112895791Y-61225171D01*
X113250759Y-61580139D01*
X113605727Y-61225171D01*
X114310004Y-61225171D01*
X114664972Y-61580139D01*
X115019940Y-61225171D01*
X115724218Y-61225171D01*
X116079186Y-61580139D01*
X116434154Y-61225171D01*
X117138431Y-61225171D01*
X117493399Y-61580139D01*
X117848367Y-61225171D01*
X118552645Y-61225171D01*
X118907613Y-61580139D01*
X119262581Y-61225171D01*
X119966858Y-61225171D01*
X120321826Y-61580139D01*
X120676795Y-61225171D01*
X121381072Y-61225171D01*
X121736040Y-61580139D01*
X122091008Y-61225171D01*
X121736040Y-60870203D01*
X121381072Y-61225171D01*
X120676795Y-61225171D01*
X120321826Y-60870202D01*
X119966858Y-61225171D01*
X119262581Y-61225171D01*
X118907613Y-60870203D01*
X118552645Y-61225171D01*
X117848367Y-61225171D01*
X117493399Y-60870202D01*
X117138431Y-61225171D01*
X116434154Y-61225171D01*
X116079186Y-60870203D01*
X115724218Y-61225171D01*
X115019940Y-61225171D01*
X114664972Y-60870203D01*
X114310004Y-61225171D01*
X113605727Y-61225171D01*
X113250759Y-60870203D01*
X112895791Y-61225171D01*
X112191513Y-61225171D01*
X111836545Y-60870203D01*
X111481577Y-61225171D01*
X110777300Y-61225171D01*
X110422332Y-60870203D01*
X110067364Y-61225171D01*
X109363086Y-61225171D01*
X109008118Y-60870203D01*
X108653150Y-61225171D01*
X107948873Y-61225171D01*
X107593904Y-60870202D01*
X107238936Y-61225171D01*
X106534659Y-61225171D01*
X106179691Y-60870203D01*
X105824723Y-61225171D01*
X105120445Y-61225171D01*
X104765477Y-60870203D01*
X104410509Y-61225171D01*
X103706232Y-61225171D01*
X103351264Y-60870203D01*
X102996296Y-61225171D01*
X102292018Y-61225171D01*
X101937049Y-60870202D01*
X101582081Y-61225170D01*
X100877804Y-61225170D01*
X100522837Y-60870203D01*
X100167869Y-61225171D01*
X99463591Y-61225171D01*
X99108623Y-60870203D01*
X98753655Y-61225171D01*
X98049378Y-61225171D01*
X97694409Y-60870202D01*
X97339441Y-61225171D01*
X96635164Y-61225171D01*
X96280196Y-60870203D01*
X95925228Y-61225171D01*
X95220950Y-61225171D01*
X94865982Y-60870202D01*
X94511014Y-61225171D01*
X93806737Y-61225171D01*
X93451769Y-60870203D01*
X93096801Y-61225171D01*
X92392523Y-61225171D01*
X92037555Y-60870203D01*
X91682587Y-61225171D01*
X90978310Y-61225171D01*
X90623342Y-60870203D01*
X90268374Y-61225171D01*
X89564096Y-61225171D01*
X89209128Y-60870203D01*
X88854160Y-61225171D01*
X88149883Y-61225171D01*
X87794915Y-60870203D01*
X87439947Y-61225171D01*
X86401570Y-61225171D01*
X86401570Y-60351334D01*
X86899570Y-60351334D01*
X86899570Y-60684794D01*
X87087808Y-60873032D01*
X87442776Y-60518064D01*
X88147053Y-60518064D01*
X88502021Y-60873032D01*
X88856989Y-60518064D01*
X89561267Y-60518064D01*
X89916235Y-60873032D01*
X90271203Y-60518064D01*
X90975480Y-60518064D01*
X91330448Y-60873032D01*
X91685417Y-60518064D01*
X92389694Y-60518064D01*
X92744662Y-60873032D01*
X93099630Y-60518064D01*
X93803908Y-60518064D01*
X94158876Y-60873032D01*
X94513844Y-60518064D01*
X95218121Y-60518064D01*
X95573089Y-60873032D01*
X95928057Y-60518064D01*
X96632335Y-60518064D01*
X96987303Y-60873032D01*
X97342271Y-60518064D01*
X98046548Y-60518064D01*
X98401516Y-60873032D01*
X98756484Y-60518064D01*
X98756483Y-60518063D01*
X99460761Y-60518063D01*
X99815729Y-60873031D01*
X99898055Y-60790706D01*
X99889018Y-60787544D01*
X99882519Y-60785064D01*
X99869559Y-60779696D01*
X99863209Y-60776854D01*
X99705951Y-60701123D01*
X99699769Y-60697930D01*
X99687493Y-60691145D01*
X99681507Y-60687613D01*
X99657837Y-60672741D01*
X99652054Y-60668878D01*
X99640612Y-60660760D01*
X99637185Y-60658181D01*
X102429306Y-60658181D01*
X102644157Y-60873032D01*
X102999125Y-60518064D01*
X103703403Y-60518064D01*
X104058371Y-60873032D01*
X104413339Y-60518064D01*
X105117616Y-60518064D01*
X105472584Y-60873032D01*
X105827552Y-60518064D01*
X106531830Y-60518064D01*
X106886798Y-60873032D01*
X107241766Y-60518064D01*
X107946043Y-60518064D01*
X108301011Y-60873032D01*
X108655979Y-60518064D01*
X109360257Y-60518064D01*
X109715225Y-60873032D01*
X110070193Y-60518064D01*
X110774470Y-60518064D01*
X111129438Y-60873032D01*
X111484406Y-60518064D01*
X112188684Y-60518064D01*
X112543652Y-60873032D01*
X112898620Y-60518064D01*
X113602897Y-60518064D01*
X113957865Y-60873032D01*
X114312834Y-60518064D01*
X115017111Y-60518064D01*
X115372079Y-60873032D01*
X115727047Y-60518064D01*
X116431325Y-60518064D01*
X116786293Y-60873032D01*
X117141261Y-60518064D01*
X117845538Y-60518064D01*
X118200506Y-60873032D01*
X118555474Y-60518064D01*
X119259752Y-60518064D01*
X119614720Y-60873032D01*
X119969688Y-60518064D01*
X120673965Y-60518064D01*
X121028933Y-60873032D01*
X121383901Y-60518064D01*
X121028933Y-60163096D01*
X120673965Y-60518064D01*
X119969688Y-60518064D01*
X119614720Y-60163096D01*
X119259752Y-60518064D01*
X118555474Y-60518064D01*
X118200506Y-60163096D01*
X117845538Y-60518064D01*
X117141261Y-60518064D01*
X116786293Y-60163096D01*
X116431325Y-60518064D01*
X115727047Y-60518064D01*
X115372079Y-60163096D01*
X115017111Y-60518064D01*
X114312834Y-60518064D01*
X113957865Y-60163095D01*
X113602897Y-60518064D01*
X112898620Y-60518064D01*
X112543652Y-60163096D01*
X112188684Y-60518064D01*
X111484406Y-60518064D01*
X111129438Y-60163095D01*
X110774470Y-60518064D01*
X110070193Y-60518064D01*
X109715225Y-60163096D01*
X109360257Y-60518064D01*
X108655979Y-60518064D01*
X108301011Y-60163096D01*
X107946043Y-60518064D01*
X107241766Y-60518064D01*
X106886798Y-60163096D01*
X106531830Y-60518064D01*
X105827552Y-60518064D01*
X105472584Y-60163096D01*
X105117616Y-60518064D01*
X104413339Y-60518064D01*
X104058371Y-60163096D01*
X103703403Y-60518064D01*
X102999125Y-60518064D01*
X102773805Y-60292744D01*
X102773148Y-60293949D01*
X102769687Y-60299893D01*
X102755116Y-60323393D01*
X102751324Y-60329145D01*
X102743363Y-60340521D01*
X102739264Y-60346046D01*
X102632561Y-60481818D01*
X102628160Y-60487108D01*
X102618997Y-60497522D01*
X102614314Y-60502556D01*
X102594926Y-60522271D01*
X102589967Y-60527042D01*
X102579701Y-60536383D01*
X102574485Y-60540870D01*
X102440511Y-60649823D01*
X102435051Y-60654018D01*
X102429306Y-60658181D01*
X99637185Y-60658181D01*
X99635052Y-60656576D01*
X99498585Y-60547750D01*
X99493272Y-60543263D01*
X99482810Y-60533914D01*
X99477756Y-60529136D01*
X99463722Y-60515103D01*
X99460761Y-60518063D01*
X98756483Y-60518063D01*
X98401516Y-60163096D01*
X98046548Y-60518064D01*
X97342271Y-60518064D01*
X96987303Y-60163096D01*
X96632335Y-60518064D01*
X95928057Y-60518064D01*
X95573089Y-60163096D01*
X95218121Y-60518064D01*
X94513844Y-60518064D01*
X94158876Y-60163096D01*
X93803908Y-60518064D01*
X93099630Y-60518064D01*
X92744662Y-60163096D01*
X92389694Y-60518064D01*
X91685417Y-60518064D01*
X91330448Y-60163095D01*
X90975480Y-60518064D01*
X90271203Y-60518064D01*
X89916235Y-60163096D01*
X89561267Y-60518064D01*
X88856989Y-60518064D01*
X88502021Y-60163095D01*
X88147053Y-60518064D01*
X87442776Y-60518064D01*
X87087808Y-60163096D01*
X86899570Y-60351334D01*
X86401570Y-60351334D01*
X86401570Y-59810957D01*
X87439947Y-59810957D01*
X87794915Y-60165925D01*
X88149883Y-59810957D01*
X88854160Y-59810957D01*
X89209128Y-60165925D01*
X89564096Y-59810957D01*
X90268374Y-59810957D01*
X90623342Y-60165925D01*
X90978310Y-59810957D01*
X91682587Y-59810957D01*
X92037555Y-60165925D01*
X92392523Y-59810957D01*
X93096801Y-59810957D01*
X93451769Y-60165925D01*
X93806737Y-59810957D01*
X94511014Y-59810957D01*
X94865982Y-60165925D01*
X95220950Y-59810957D01*
X95925228Y-59810957D01*
X96280196Y-60165925D01*
X96635164Y-59810957D01*
X97339441Y-59810957D01*
X97694409Y-60165925D01*
X98049378Y-59810957D01*
X98753655Y-59810957D01*
X99108622Y-60165924D01*
X99193570Y-60080976D01*
X99190336Y-60071733D01*
X99188225Y-60065110D01*
X99184341Y-60051631D01*
X99182603Y-60044894D01*
X99143757Y-59874729D01*
X99142400Y-59867906D01*
X99140050Y-59854077D01*
X99139077Y-59847192D01*
X99135946Y-59819414D01*
X99135362Y-59812490D01*
X99134574Y-59798483D01*
X99134378Y-59791525D01*
X99134376Y-59756859D01*
X99134372Y-59756757D01*
X99134372Y-59481738D01*
X99108623Y-59455989D01*
X98753655Y-59810957D01*
X98049378Y-59810957D01*
X97694409Y-59455988D01*
X97339441Y-59810957D01*
X96635164Y-59810957D01*
X96280196Y-59455989D01*
X95925228Y-59810957D01*
X95220950Y-59810957D01*
X94865982Y-59455988D01*
X94511014Y-59810957D01*
X93806737Y-59810957D01*
X93451769Y-59455989D01*
X93096801Y-59810957D01*
X92392523Y-59810957D01*
X92037555Y-59455989D01*
X91682587Y-59810957D01*
X90978310Y-59810957D01*
X90623342Y-59455989D01*
X90268374Y-59810957D01*
X89564096Y-59810957D01*
X89209128Y-59455989D01*
X88854160Y-59810957D01*
X88149883Y-59810957D01*
X87794915Y-59455989D01*
X87439947Y-59810957D01*
X86401570Y-59810957D01*
X86401570Y-58937120D01*
X86899570Y-58937120D01*
X86899570Y-59270581D01*
X87087808Y-59458819D01*
X87442776Y-59103850D01*
X88147052Y-59103850D01*
X88502021Y-59458819D01*
X88856989Y-59103850D01*
X89561266Y-59103850D01*
X89916235Y-59458819D01*
X90271203Y-59103850D01*
X90975480Y-59103850D01*
X91330448Y-59458819D01*
X91685417Y-59103850D01*
X92389693Y-59103850D01*
X92744662Y-59458819D01*
X93099630Y-59103850D01*
X93803907Y-59103850D01*
X94158876Y-59458819D01*
X94513844Y-59103850D01*
X95218120Y-59103850D01*
X95573089Y-59458819D01*
X95928057Y-59103850D01*
X96632334Y-59103850D01*
X96987303Y-59458819D01*
X97342271Y-59103850D01*
X98046547Y-59103850D01*
X98401516Y-59458819D01*
X98756484Y-59103850D01*
X98401516Y-58748882D01*
X98046547Y-59103850D01*
X97342271Y-59103850D01*
X96987303Y-58748882D01*
X96632334Y-59103850D01*
X95928057Y-59103850D01*
X95573089Y-58748882D01*
X95218120Y-59103850D01*
X94513844Y-59103850D01*
X94158876Y-58748882D01*
X93803907Y-59103850D01*
X93099630Y-59103850D01*
X92744662Y-58748882D01*
X92389693Y-59103850D01*
X91685417Y-59103850D01*
X91330448Y-58748882D01*
X90975480Y-59103850D01*
X90271203Y-59103850D01*
X89916235Y-58748882D01*
X89561266Y-59103850D01*
X88856989Y-59103850D01*
X88502021Y-58748882D01*
X88147052Y-59103850D01*
X87442776Y-59103850D01*
X87087807Y-58748882D01*
X86899570Y-58937120D01*
X86401570Y-58937120D01*
X86401570Y-58396744D01*
X87439947Y-58396744D01*
X87794915Y-58751712D01*
X88149883Y-58396744D01*
X88854160Y-58396744D01*
X89209128Y-58751712D01*
X89564096Y-58396744D01*
X90268374Y-58396744D01*
X90623342Y-58751712D01*
X90978310Y-58396744D01*
X91682587Y-58396744D01*
X92037555Y-58751712D01*
X92392523Y-58396744D01*
X93096801Y-58396744D01*
X93451769Y-58751712D01*
X93806737Y-58396744D01*
X94511014Y-58396744D01*
X94865982Y-58751712D01*
X95220950Y-58396744D01*
X95925228Y-58396744D01*
X96280196Y-58751712D01*
X96635164Y-58396744D01*
X97339441Y-58396744D01*
X97694409Y-58751712D01*
X98049378Y-58396744D01*
X98753655Y-58396744D01*
X99108623Y-58751712D01*
X99134372Y-58725963D01*
X99134372Y-58204622D01*
X99134312Y-58131429D01*
X99632312Y-58131429D01*
X99632372Y-58204215D01*
X99632372Y-59745958D01*
X99632376Y-59746005D01*
X99632377Y-59777517D01*
X99632378Y-59777525D01*
X99665000Y-59920428D01*
X99665004Y-59920439D01*
X99728608Y-60052504D01*
X99820007Y-60167110D01*
X99915311Y-60243109D01*
X99934616Y-60258504D01*
X100066688Y-60322106D01*
X100066687Y-60322106D01*
X100209596Y-60354724D01*
X100209599Y-60354724D01*
X100209602Y-60354725D01*
X100252961Y-60354725D01*
X101743798Y-60354725D01*
X101750598Y-60355432D01*
X101759363Y-60355283D01*
X101759364Y-60355284D01*
X101791345Y-60354742D01*
X101793443Y-60354725D01*
X101828426Y-60354725D01*
X101834928Y-60354031D01*
X101866215Y-60353541D01*
X102007128Y-60319226D01*
X102137031Y-60254734D01*
X102249551Y-60163229D01*
X102335610Y-60053725D01*
X102339162Y-60049206D01*
X102339163Y-60049204D01*
X102339162Y-60049204D01*
X102339167Y-60049199D01*
X102401484Y-59918238D01*
X102425721Y-59810957D01*
X102996296Y-59810957D01*
X103351264Y-60165925D01*
X103706232Y-59810957D01*
X104410509Y-59810957D01*
X104765477Y-60165925D01*
X105120445Y-59810957D01*
X105824723Y-59810957D01*
X106179691Y-60165925D01*
X106534659Y-59810957D01*
X107238936Y-59810957D01*
X107593904Y-60165925D01*
X107948873Y-59810957D01*
X108653150Y-59810957D01*
X109008118Y-60165925D01*
X109338088Y-59835955D01*
X111506575Y-59835955D01*
X111836545Y-60165925D01*
X112191513Y-59810957D01*
X112191512Y-59810956D01*
X112895790Y-59810956D01*
X113250759Y-60165925D01*
X113605727Y-59810957D01*
X114310004Y-59810957D01*
X114664972Y-60165925D01*
X115019940Y-59810957D01*
X115724218Y-59810957D01*
X116079186Y-60165925D01*
X116434154Y-59810957D01*
X117138431Y-59810957D01*
X117493399Y-60165925D01*
X117848366Y-59810957D01*
X118552645Y-59810957D01*
X118907613Y-60165925D01*
X119262581Y-59810957D01*
X119262580Y-59810956D01*
X119966858Y-59810956D01*
X120321826Y-60165925D01*
X120676795Y-59810957D01*
X120573285Y-59707447D01*
X120070368Y-59707447D01*
X119966858Y-59810956D01*
X119262580Y-59810956D01*
X119159071Y-59707447D01*
X118656155Y-59707447D01*
X118552645Y-59810957D01*
X117848366Y-59810957D01*
X117848367Y-59810956D01*
X117744858Y-59707447D01*
X117241941Y-59707447D01*
X117138431Y-59810957D01*
X116434154Y-59810957D01*
X116330644Y-59707447D01*
X115827728Y-59707447D01*
X115724218Y-59810957D01*
X115019940Y-59810957D01*
X114916430Y-59707447D01*
X114413514Y-59707447D01*
X114310004Y-59810957D01*
X113605727Y-59810957D01*
X113321474Y-59526704D01*
X113231715Y-59475031D01*
X112895790Y-59810956D01*
X112191512Y-59810956D01*
X111902862Y-59522306D01*
X111800015Y-59625154D01*
X111796509Y-59628526D01*
X111789307Y-59635184D01*
X111785673Y-59638413D01*
X111770798Y-59651120D01*
X111767031Y-59654212D01*
X111759312Y-59660298D01*
X111755423Y-59663242D01*
X111567615Y-59799691D01*
X111563615Y-59802479D01*
X111555450Y-59807934D01*
X111551355Y-59810555D01*
X111534676Y-59820776D01*
X111530473Y-59823240D01*
X111521907Y-59828037D01*
X111517614Y-59830331D01*
X111506575Y-59835955D01*
X109338088Y-59835955D01*
X109363086Y-59810957D01*
X109008118Y-59455989D01*
X108653150Y-59810957D01*
X107948873Y-59810957D01*
X107593904Y-59455988D01*
X107238936Y-59810957D01*
X106534659Y-59810957D01*
X106179691Y-59455989D01*
X105824723Y-59810957D01*
X105120445Y-59810957D01*
X104765477Y-59455989D01*
X104410509Y-59810957D01*
X103706232Y-59810957D01*
X103351264Y-59455989D01*
X102996296Y-59810957D01*
X102425721Y-59810957D01*
X102433444Y-59776773D01*
X102433372Y-59704257D01*
X102433380Y-59669907D01*
X102433379Y-59669905D01*
X102433382Y-59656289D01*
X102433372Y-59656188D01*
X102433372Y-59103850D01*
X103703402Y-59103850D01*
X104058371Y-59458819D01*
X104413339Y-59103850D01*
X105117615Y-59103850D01*
X105472584Y-59458819D01*
X105827552Y-59103850D01*
X106531829Y-59103850D01*
X106886798Y-59458819D01*
X107241766Y-59103850D01*
X107946042Y-59103850D01*
X108301011Y-59458819D01*
X108655979Y-59103850D01*
X108301011Y-58748882D01*
X107946042Y-59103850D01*
X107241766Y-59103850D01*
X106886798Y-58748882D01*
X106531829Y-59103850D01*
X105827552Y-59103850D01*
X105472584Y-58748882D01*
X105117615Y-59103850D01*
X104413339Y-59103850D01*
X104058371Y-58748882D01*
X103703402Y-59103850D01*
X102433372Y-59103850D01*
X102433372Y-58396744D01*
X102996296Y-58396744D01*
X103351264Y-58751712D01*
X103706232Y-58396744D01*
X104410509Y-58396744D01*
X104765477Y-58751712D01*
X105120445Y-58396744D01*
X105824723Y-58396744D01*
X106179691Y-58751712D01*
X106534659Y-58396744D01*
X107238936Y-58396744D01*
X107593904Y-58751712D01*
X107948873Y-58396744D01*
X107593904Y-58041775D01*
X107238936Y-58396744D01*
X106534659Y-58396744D01*
X106179691Y-58041776D01*
X105824723Y-58396744D01*
X105120445Y-58396744D01*
X104765477Y-58041776D01*
X104410509Y-58396744D01*
X103706232Y-58396744D01*
X103351264Y-58041776D01*
X102996296Y-58396744D01*
X102433372Y-58396744D01*
X102433372Y-58247428D01*
X102433779Y-58243662D01*
X102433377Y-58199472D01*
X102433372Y-58198343D01*
X102433372Y-58160277D01*
X102432994Y-58156618D01*
X102432731Y-58125402D01*
X102399192Y-57983579D01*
X102367942Y-57919756D01*
X102335108Y-57852696D01*
X102335104Y-57852689D01*
X102243652Y-57739232D01*
X102243646Y-57739225D01*
X102133802Y-57652328D01*
X102129354Y-57648809D01*
X102129353Y-57648808D01*
X102129350Y-57648806D01*
X101997891Y-57585922D01*
X101997892Y-57585922D01*
X101997887Y-57585920D01*
X101997885Y-57585919D01*
X101997884Y-57585919D01*
X101855759Y-57553676D01*
X101782896Y-57553725D01*
X100326905Y-57553725D01*
X100325174Y-57553216D01*
X100324150Y-57553227D01*
X100324036Y-57553215D01*
X100307216Y-57553396D01*
X100307129Y-57553397D01*
X100275890Y-57553710D01*
X100274988Y-57553719D01*
X100273750Y-57553725D01*
X100238464Y-57553725D01*
X100234615Y-57554122D01*
X100203095Y-57554438D01*
X100203090Y-57554438D01*
X100061455Y-57588146D01*
X99930767Y-57652329D01*
X99817500Y-57743806D01*
X99727250Y-57858060D01*
X99727249Y-57858060D01*
X99664487Y-57989433D01*
X99664487Y-57989434D01*
X99632312Y-58131429D01*
X99134312Y-58131429D01*
X99134301Y-58117902D01*
X99134490Y-58110964D01*
X99135261Y-58097000D01*
X99135836Y-58090097D01*
X99137953Y-58071106D01*
X99108623Y-58041776D01*
X98753655Y-58396744D01*
X98049378Y-58396744D01*
X97694409Y-58041775D01*
X97339441Y-58396744D01*
X96635164Y-58396744D01*
X96280196Y-58041776D01*
X95925228Y-58396744D01*
X95220950Y-58396744D01*
X94865982Y-58041775D01*
X94511014Y-58396744D01*
X93806737Y-58396744D01*
X93451769Y-58041776D01*
X93096801Y-58396744D01*
X92392523Y-58396744D01*
X92037555Y-58041776D01*
X91682587Y-58396744D01*
X90978310Y-58396744D01*
X90623342Y-58041776D01*
X90268374Y-58396744D01*
X89564096Y-58396744D01*
X89209128Y-58041776D01*
X88854160Y-58396744D01*
X88149883Y-58396744D01*
X87794915Y-58041776D01*
X87439947Y-58396744D01*
X86401570Y-58396744D01*
X86401570Y-57522907D01*
X86899570Y-57522907D01*
X86899570Y-57856367D01*
X87087808Y-58044605D01*
X87442776Y-57689637D01*
X88147053Y-57689637D01*
X88502021Y-58044605D01*
X88856989Y-57689637D01*
X89561267Y-57689637D01*
X89916235Y-58044605D01*
X90271203Y-57689637D01*
X90975480Y-57689637D01*
X91330448Y-58044605D01*
X91685417Y-57689637D01*
X92389694Y-57689637D01*
X92744662Y-58044605D01*
X93099630Y-57689637D01*
X93803908Y-57689637D01*
X94158876Y-58044605D01*
X94513844Y-57689637D01*
X95218121Y-57689637D01*
X95573089Y-58044605D01*
X95928057Y-57689637D01*
X96632335Y-57689637D01*
X96987303Y-58044605D01*
X97342271Y-57689637D01*
X98046548Y-57689637D01*
X98401516Y-58044605D01*
X98756484Y-57689637D01*
X98451915Y-57385068D01*
X102593756Y-57385068D01*
X102604049Y-57395267D01*
X102608827Y-57400273D01*
X102618170Y-57410626D01*
X102622655Y-57415885D01*
X102731550Y-57550983D01*
X102735736Y-57556483D01*
X102743866Y-57567807D01*
X102747739Y-57573531D01*
X102762665Y-57596976D01*
X102766218Y-57602917D01*
X102773044Y-57615089D01*
X102776257Y-57621213D01*
X102852567Y-57777067D01*
X102855432Y-57783356D01*
X102860858Y-57796205D01*
X102863371Y-57802653D01*
X102869364Y-57819396D01*
X102999123Y-57689637D01*
X103703403Y-57689637D01*
X104058371Y-58044605D01*
X104413339Y-57689637D01*
X105117616Y-57689637D01*
X105472584Y-58044605D01*
X105827552Y-57689637D01*
X106531830Y-57689637D01*
X106886798Y-58044605D01*
X107241766Y-57689637D01*
X107946043Y-57689637D01*
X108301011Y-58044605D01*
X108655979Y-57689637D01*
X108301011Y-57334669D01*
X107946043Y-57689637D01*
X107241766Y-57689637D01*
X106886798Y-57334669D01*
X106531830Y-57689637D01*
X105827552Y-57689637D01*
X105472584Y-57334669D01*
X105117616Y-57689637D01*
X104413339Y-57689637D01*
X104058371Y-57334669D01*
X103703403Y-57689637D01*
X102999123Y-57689637D01*
X102999124Y-57689636D01*
X102644156Y-57334668D01*
X102593756Y-57385068D01*
X98451915Y-57385068D01*
X98401516Y-57334669D01*
X98046548Y-57689637D01*
X97342271Y-57689637D01*
X96987303Y-57334669D01*
X96632335Y-57689637D01*
X95928057Y-57689637D01*
X95573089Y-57334669D01*
X95218121Y-57689637D01*
X94513844Y-57689637D01*
X94158876Y-57334669D01*
X93803908Y-57689637D01*
X93099630Y-57689637D01*
X92744662Y-57334669D01*
X92389694Y-57689637D01*
X91685417Y-57689637D01*
X91330448Y-57334668D01*
X90975480Y-57689637D01*
X90271203Y-57689637D01*
X89916235Y-57334669D01*
X89561267Y-57689637D01*
X88856989Y-57689637D01*
X88502021Y-57334668D01*
X88147053Y-57689637D01*
X87442776Y-57689637D01*
X87087808Y-57334669D01*
X86899570Y-57522907D01*
X86401570Y-57522907D01*
X86401570Y-56982530D01*
X87439947Y-56982530D01*
X87794915Y-57337498D01*
X88149883Y-56982530D01*
X88854160Y-56982530D01*
X89209128Y-57337498D01*
X89564096Y-56982530D01*
X90268374Y-56982530D01*
X90623342Y-57337498D01*
X90978310Y-56982530D01*
X91682587Y-56982530D01*
X92037555Y-57337498D01*
X92392523Y-56982530D01*
X93096801Y-56982530D01*
X93451769Y-57337498D01*
X93806737Y-56982530D01*
X94511014Y-56982530D01*
X94865982Y-57337498D01*
X95220950Y-56982530D01*
X95925228Y-56982530D01*
X96280196Y-57337498D01*
X96635164Y-56982530D01*
X97339441Y-56982530D01*
X97694409Y-57337498D01*
X98049378Y-56982530D01*
X98753655Y-56982530D01*
X99108623Y-57337498D01*
X99463591Y-56982530D01*
X100167869Y-56982530D01*
X100241064Y-57055725D01*
X100271894Y-57055725D01*
X100301963Y-57055423D01*
X100332514Y-57055096D01*
X100332959Y-57055114D01*
X100372746Y-57054723D01*
X100378020Y-57055725D01*
X100804610Y-57055725D01*
X100877805Y-56982530D01*
X101582082Y-56982530D01*
X101655277Y-57055725D01*
X101782565Y-57055725D01*
X101869374Y-57055667D01*
X101876315Y-57055857D01*
X101890289Y-57056631D01*
X101897199Y-57057208D01*
X101924901Y-57060303D01*
X101931770Y-57061265D01*
X101945557Y-57063592D01*
X101952354Y-57064936D01*
X102121617Y-57103336D01*
X102128314Y-57105053D01*
X102141719Y-57108891D01*
X102148308Y-57110978D01*
X102159632Y-57114915D01*
X102292016Y-56982530D01*
X102996296Y-56982530D01*
X103351264Y-57337498D01*
X103706232Y-56982530D01*
X104410509Y-56982530D01*
X104765477Y-57337498D01*
X105120445Y-56982530D01*
X105824723Y-56982530D01*
X106179691Y-57337498D01*
X106534659Y-56982530D01*
X107238936Y-56982530D01*
X107593904Y-57337498D01*
X107948873Y-56982530D01*
X107593904Y-56627561D01*
X107238936Y-56982530D01*
X106534659Y-56982530D01*
X106179691Y-56627562D01*
X105824723Y-56982530D01*
X105120445Y-56982530D01*
X104765477Y-56627562D01*
X104410509Y-56982530D01*
X103706232Y-56982530D01*
X103351264Y-56627562D01*
X102996296Y-56982530D01*
X102292016Y-56982530D01*
X102292017Y-56982529D01*
X101937050Y-56627562D01*
X101582082Y-56982530D01*
X100877805Y-56982530D01*
X100522837Y-56627562D01*
X100167869Y-56982530D01*
X99463591Y-56982530D01*
X99108623Y-56627562D01*
X98753655Y-56982530D01*
X98049378Y-56982530D01*
X97694409Y-56627561D01*
X97339441Y-56982530D01*
X96635164Y-56982530D01*
X96280196Y-56627562D01*
X95925228Y-56982530D01*
X95220950Y-56982530D01*
X94865982Y-56627561D01*
X94511014Y-56982530D01*
X93806737Y-56982530D01*
X93451769Y-56627562D01*
X93096801Y-56982530D01*
X92392523Y-56982530D01*
X92037555Y-56627562D01*
X91682587Y-56982530D01*
X90978310Y-56982530D01*
X90623342Y-56627562D01*
X90268374Y-56982530D01*
X89564096Y-56982530D01*
X89209128Y-56627562D01*
X88854160Y-56982530D01*
X88149883Y-56982530D01*
X87794915Y-56627562D01*
X87439947Y-56982530D01*
X86401570Y-56982530D01*
X86401570Y-56613122D01*
X86402171Y-56600933D01*
X86404527Y-56577085D01*
X86414916Y-56471906D01*
X86929323Y-56471906D01*
X87087808Y-56630391D01*
X87442776Y-56275423D01*
X88147053Y-56275423D01*
X88502021Y-56630391D01*
X88856988Y-56275423D01*
X89561267Y-56275423D01*
X89916235Y-56630391D01*
X90271203Y-56275423D01*
X90271202Y-56275422D01*
X90975480Y-56275422D01*
X91330448Y-56630391D01*
X91685417Y-56275423D01*
X91685416Y-56275422D01*
X92389693Y-56275422D01*
X92744662Y-56630391D01*
X93099630Y-56275423D01*
X93803908Y-56275423D01*
X94158876Y-56630391D01*
X94513844Y-56275423D01*
X95218121Y-56275423D01*
X95573089Y-56630391D01*
X95928057Y-56275423D01*
X96632335Y-56275423D01*
X96987303Y-56630391D01*
X97342271Y-56275423D01*
X98046548Y-56275423D01*
X98401516Y-56630391D01*
X98756484Y-56275423D01*
X99460762Y-56275423D01*
X99815730Y-56630391D01*
X100170698Y-56275423D01*
X100874975Y-56275423D01*
X101229943Y-56630391D01*
X101584911Y-56275423D01*
X102289189Y-56275423D01*
X102644157Y-56630391D01*
X102999125Y-56275423D01*
X103703403Y-56275423D01*
X104058371Y-56630391D01*
X104413339Y-56275423D01*
X105117616Y-56275423D01*
X105472584Y-56630391D01*
X105827552Y-56275423D01*
X106531830Y-56275423D01*
X106886798Y-56630391D01*
X107241766Y-56275423D01*
X106886798Y-55920455D01*
X106531830Y-56275423D01*
X105827552Y-56275423D01*
X105472584Y-55920455D01*
X105117616Y-56275423D01*
X104413339Y-56275423D01*
X104058371Y-55920455D01*
X103703403Y-56275423D01*
X102999125Y-56275423D01*
X102644157Y-55920455D01*
X102289189Y-56275423D01*
X101584911Y-56275423D01*
X101229943Y-55920454D01*
X100874975Y-56275423D01*
X100170698Y-56275423D01*
X99815730Y-55920455D01*
X99460762Y-56275423D01*
X98756484Y-56275423D01*
X98401516Y-55920455D01*
X98046548Y-56275423D01*
X97342271Y-56275423D01*
X96987303Y-55920455D01*
X96632335Y-56275423D01*
X95928057Y-56275423D01*
X95573089Y-55920455D01*
X95218121Y-56275423D01*
X94513844Y-56275423D01*
X94158876Y-55920455D01*
X93803908Y-56275423D01*
X93099630Y-56275423D01*
X92751365Y-55927158D01*
X92737272Y-55939040D01*
X92733073Y-55942427D01*
X92724456Y-55949073D01*
X92720107Y-55952278D01*
X92702381Y-55964757D01*
X92697909Y-55967762D01*
X92696363Y-55968752D01*
X92389693Y-56275422D01*
X91685416Y-56275422D01*
X91665500Y-56255506D01*
X90995397Y-56255506D01*
X90975480Y-56275422D01*
X90271202Y-56275422D01*
X90251286Y-56255506D01*
X89581184Y-56255506D01*
X89561267Y-56275423D01*
X88856988Y-56275423D01*
X88856989Y-56275422D01*
X88837073Y-56255506D01*
X88166970Y-56255506D01*
X88147053Y-56275423D01*
X87442776Y-56275423D01*
X87422859Y-56255506D01*
X87320996Y-56255506D01*
X87315187Y-56255804D01*
X87277102Y-56255616D01*
X87184466Y-56264311D01*
X87118678Y-56283983D01*
X87058033Y-56316136D01*
X87004848Y-56359540D01*
X86961183Y-56412515D01*
X86929323Y-56471906D01*
X86414916Y-56471906D01*
X86416788Y-56452957D01*
X86421556Y-56429057D01*
X86463064Y-56292665D01*
X86472420Y-56270158D01*
X86539814Y-56144532D01*
X86553389Y-56124293D01*
X86644077Y-56014268D01*
X86661341Y-55997089D01*
X86771802Y-55906942D01*
X86792100Y-55893469D01*
X86918060Y-55826685D01*
X86940607Y-55817443D01*
X87077207Y-55776598D01*
X87101125Y-55771947D01*
X87248936Y-55758073D01*
X87261105Y-55757532D01*
X87289609Y-55757672D01*
X87289610Y-55757671D01*
X87301968Y-55757732D01*
X87304020Y-55757506D01*
X91715866Y-55757506D01*
X91717647Y-55757703D01*
X91730226Y-55757649D01*
X91730227Y-55757650D01*
X91764103Y-55757506D01*
X91764626Y-55757506D01*
X91804692Y-55757506D01*
X91806597Y-55757313D01*
X91864959Y-55757080D01*
X92062542Y-55721473D01*
X92250972Y-55652187D01*
X92388158Y-55572466D01*
X93100950Y-55572466D01*
X93451769Y-55923285D01*
X93806737Y-55568317D01*
X94511014Y-55568317D01*
X94865982Y-55923285D01*
X95220950Y-55568317D01*
X95925228Y-55568317D01*
X96280196Y-55923285D01*
X96635164Y-55568317D01*
X97339441Y-55568317D01*
X97694409Y-55923285D01*
X98049378Y-55568317D01*
X98753655Y-55568317D01*
X99108623Y-55923285D01*
X99463591Y-55568317D01*
X100167869Y-55568317D01*
X100522837Y-55923285D01*
X100877805Y-55568317D01*
X101582082Y-55568317D01*
X101937050Y-55923285D01*
X102292018Y-55568317D01*
X102996296Y-55568317D01*
X103351264Y-55923285D01*
X103706232Y-55568317D01*
X104410509Y-55568317D01*
X104765477Y-55923285D01*
X105120445Y-55568317D01*
X105824723Y-55568317D01*
X106179691Y-55923285D01*
X106534659Y-55568317D01*
X106179691Y-55213349D01*
X105824723Y-55568317D01*
X105120445Y-55568317D01*
X104765477Y-55213349D01*
X104410509Y-55568317D01*
X103706232Y-55568317D01*
X103351264Y-55213349D01*
X102996296Y-55568317D01*
X102292018Y-55568317D01*
X101937050Y-55213349D01*
X101582082Y-55568317D01*
X100877805Y-55568317D01*
X100522837Y-55213349D01*
X100167869Y-55568317D01*
X99463591Y-55568317D01*
X99108623Y-55213349D01*
X98753655Y-55568317D01*
X98049378Y-55568317D01*
X97694409Y-55213348D01*
X97339441Y-55568317D01*
X96635164Y-55568317D01*
X96280196Y-55213349D01*
X95925228Y-55568317D01*
X95220950Y-55568317D01*
X94865982Y-55213348D01*
X94511014Y-55568317D01*
X93806737Y-55568317D01*
X93451768Y-55213348D01*
X93121918Y-55543198D01*
X93121410Y-55543962D01*
X93109004Y-55561740D01*
X93105822Y-55566095D01*
X93100950Y-55572466D01*
X92388158Y-55572466D01*
X92424557Y-55551314D01*
X92433278Y-55543962D01*
X92578045Y-55421907D01*
X92578049Y-55421904D01*
X92706810Y-55267868D01*
X92806950Y-55093859D01*
X92875441Y-54905138D01*
X92883166Y-54861210D01*
X93803908Y-54861210D01*
X94158876Y-55216178D01*
X94513844Y-54861210D01*
X95218121Y-54861210D01*
X95573089Y-55216178D01*
X95928057Y-54861210D01*
X96632335Y-54861210D01*
X96987303Y-55216178D01*
X97342271Y-54861210D01*
X98046548Y-54861210D01*
X98401516Y-55216178D01*
X98756484Y-54861210D01*
X99460762Y-54861210D01*
X99815730Y-55216178D01*
X100170698Y-54861210D01*
X100874975Y-54861210D01*
X101229943Y-55216178D01*
X101584911Y-54861210D01*
X102289189Y-54861210D01*
X102644157Y-55216178D01*
X102999125Y-54861210D01*
X103703403Y-54861210D01*
X104058371Y-55216178D01*
X104413339Y-54861210D01*
X105117616Y-54861210D01*
X105472584Y-55216178D01*
X105827552Y-54861210D01*
X106531830Y-54861210D01*
X106886798Y-55216178D01*
X107236491Y-54866485D01*
X107236491Y-54855935D01*
X106886798Y-54506242D01*
X106531830Y-54861210D01*
X105827552Y-54861210D01*
X105472584Y-54506242D01*
X105117616Y-54861210D01*
X104413339Y-54861210D01*
X104058371Y-54506242D01*
X103703403Y-54861210D01*
X102999125Y-54861210D01*
X102644157Y-54506242D01*
X102289189Y-54861210D01*
X101584911Y-54861210D01*
X101229943Y-54506241D01*
X100874975Y-54861210D01*
X100170698Y-54861210D01*
X99815730Y-54506242D01*
X99460762Y-54861210D01*
X98756484Y-54861210D01*
X98401516Y-54506242D01*
X98046548Y-54861210D01*
X97342271Y-54861210D01*
X96987303Y-54506242D01*
X96632335Y-54861210D01*
X95928057Y-54861210D01*
X95573089Y-54506242D01*
X95218121Y-54861210D01*
X94513844Y-54861210D01*
X94158876Y-54506242D01*
X93803908Y-54861210D01*
X92883166Y-54861210D01*
X92910214Y-54707407D01*
X92910192Y-54607024D01*
X92910192Y-54572674D01*
X92910192Y-53842712D01*
X93408192Y-53842712D01*
X93408192Y-54465494D01*
X93451769Y-54509071D01*
X93806737Y-54154103D01*
X94511014Y-54154103D01*
X94865982Y-54509071D01*
X95220950Y-54154103D01*
X95925228Y-54154103D01*
X96280196Y-54509071D01*
X96635164Y-54154103D01*
X97339441Y-54154103D01*
X97694409Y-54509071D01*
X98049378Y-54154103D01*
X98753655Y-54154103D01*
X99108623Y-54509071D01*
X99463591Y-54154103D01*
X100167869Y-54154103D01*
X100522837Y-54509071D01*
X100877805Y-54154103D01*
X101582082Y-54154103D01*
X101937050Y-54509071D01*
X102292018Y-54154103D01*
X102996296Y-54154103D01*
X103351264Y-54509071D01*
X103706232Y-54154103D01*
X104410509Y-54154103D01*
X104765477Y-54509071D01*
X105120445Y-54154103D01*
X105824723Y-54154103D01*
X106179691Y-54509071D01*
X106534659Y-54154103D01*
X106179691Y-53799135D01*
X105824723Y-54154103D01*
X105120445Y-54154103D01*
X104765477Y-53799135D01*
X104410509Y-54154103D01*
X103706232Y-54154103D01*
X103351264Y-53799135D01*
X102996296Y-54154103D01*
X102292018Y-54154103D01*
X101937050Y-53799135D01*
X101582082Y-54154103D01*
X100877805Y-54154103D01*
X100522837Y-53799135D01*
X100167869Y-54154103D01*
X99463591Y-54154103D01*
X99108623Y-53799135D01*
X98753655Y-54154103D01*
X98049378Y-54154103D01*
X97694409Y-53799134D01*
X97339441Y-54154103D01*
X96635164Y-54154103D01*
X96280196Y-53799135D01*
X95925228Y-54154103D01*
X95220950Y-54154103D01*
X94865982Y-53799134D01*
X94511014Y-54154103D01*
X93806737Y-54154103D01*
X93451769Y-53799135D01*
X93408192Y-53842712D01*
X92910192Y-53842712D01*
X92910192Y-53446996D01*
X93803908Y-53446996D01*
X94158876Y-53801964D01*
X94513844Y-53446996D01*
X95218121Y-53446996D01*
X95573089Y-53801964D01*
X95928057Y-53446996D01*
X96632335Y-53446996D01*
X96987303Y-53801964D01*
X97342271Y-53446996D01*
X98046548Y-53446996D01*
X98401516Y-53801964D01*
X98756484Y-53446996D01*
X99460762Y-53446996D01*
X99815730Y-53801964D01*
X100170698Y-53446996D01*
X100874975Y-53446996D01*
X101229943Y-53801964D01*
X101584911Y-53446996D01*
X102289189Y-53446996D01*
X102644157Y-53801964D01*
X102999125Y-53446996D01*
X103703403Y-53446996D01*
X104058371Y-53801964D01*
X104413339Y-53446996D01*
X105117616Y-53446996D01*
X105472584Y-53801964D01*
X105827552Y-53446996D01*
X106531830Y-53446996D01*
X106886798Y-53801964D01*
X107236491Y-53452271D01*
X107236491Y-53441721D01*
X106886798Y-53092028D01*
X106531830Y-53446996D01*
X105827552Y-53446996D01*
X105472584Y-53092028D01*
X105117616Y-53446996D01*
X104413339Y-53446996D01*
X104058371Y-53092028D01*
X103703403Y-53446996D01*
X102999125Y-53446996D01*
X102644157Y-53092028D01*
X102289189Y-53446996D01*
X101584911Y-53446996D01*
X101229943Y-53092027D01*
X100874975Y-53446996D01*
X100170698Y-53446996D01*
X99815730Y-53092028D01*
X99460762Y-53446996D01*
X98756484Y-53446996D01*
X98401516Y-53092028D01*
X98046548Y-53446996D01*
X97342271Y-53446996D01*
X96987303Y-53092028D01*
X96632335Y-53446996D01*
X95928057Y-53446996D01*
X95573089Y-53092028D01*
X95218121Y-53446996D01*
X94513844Y-53446996D01*
X94158876Y-53092028D01*
X93803908Y-53446996D01*
X92910192Y-53446996D01*
X92910192Y-52428498D01*
X93408192Y-52428498D01*
X93408192Y-53051279D01*
X93451769Y-53094857D01*
X93806737Y-52739889D01*
X94511013Y-52739889D01*
X94865982Y-53094857D01*
X95220950Y-52739889D01*
X95925227Y-52739889D01*
X96280196Y-53094857D01*
X96635164Y-52739889D01*
X97339441Y-52739889D01*
X97694409Y-53094857D01*
X98049378Y-52739889D01*
X98753654Y-52739889D01*
X99108623Y-53094857D01*
X99463591Y-52739889D01*
X100167868Y-52739889D01*
X100522837Y-53094857D01*
X100877805Y-52739889D01*
X101582081Y-52739889D01*
X101937050Y-53094857D01*
X102292018Y-52739889D01*
X102996295Y-52739889D01*
X103351264Y-53094857D01*
X103706232Y-52739889D01*
X104410508Y-52739889D01*
X104765477Y-53094857D01*
X105120445Y-52739889D01*
X105824722Y-52739889D01*
X106179691Y-53094857D01*
X106534659Y-52739889D01*
X106179691Y-52384921D01*
X105824722Y-52739889D01*
X105120445Y-52739889D01*
X104765477Y-52384921D01*
X104410508Y-52739889D01*
X103706232Y-52739889D01*
X103351264Y-52384921D01*
X102996295Y-52739889D01*
X102292018Y-52739889D01*
X101937050Y-52384921D01*
X101582081Y-52739889D01*
X100877805Y-52739889D01*
X100522837Y-52384921D01*
X100167868Y-52739889D01*
X99463591Y-52739889D01*
X99108623Y-52384921D01*
X98753654Y-52739889D01*
X98049378Y-52739889D01*
X97694409Y-52384920D01*
X97339441Y-52739889D01*
X96635164Y-52739889D01*
X96280196Y-52384921D01*
X95925227Y-52739889D01*
X95220950Y-52739889D01*
X94865982Y-52384920D01*
X94511013Y-52739889D01*
X93806737Y-52739889D01*
X93451769Y-52384921D01*
X93408192Y-52428498D01*
X92910192Y-52428498D01*
X92910192Y-52032783D01*
X93803908Y-52032783D01*
X94158876Y-52387751D01*
X94513844Y-52032783D01*
X95218121Y-52032783D01*
X95573089Y-52387751D01*
X95928057Y-52032783D01*
X96632335Y-52032783D01*
X96987303Y-52387751D01*
X97342271Y-52032783D01*
X98046548Y-52032783D01*
X98401516Y-52387751D01*
X98756484Y-52032783D01*
X99460762Y-52032783D01*
X99815730Y-52387751D01*
X100170698Y-52032783D01*
X100874975Y-52032783D01*
X101229943Y-52387751D01*
X101584911Y-52032783D01*
X102289189Y-52032783D01*
X102644157Y-52387751D01*
X102999125Y-52032783D01*
X103703403Y-52032783D01*
X104058371Y-52387751D01*
X104413339Y-52032783D01*
X105117616Y-52032783D01*
X105472584Y-52387751D01*
X105827552Y-52032783D01*
X106531830Y-52032783D01*
X106886798Y-52387751D01*
X107236491Y-52038058D01*
X107236491Y-52027508D01*
X106886798Y-51677815D01*
X106531830Y-52032783D01*
X105827552Y-52032783D01*
X105472584Y-51677815D01*
X105117616Y-52032783D01*
X104413339Y-52032783D01*
X104058371Y-51677815D01*
X103703403Y-52032783D01*
X102999125Y-52032783D01*
X102644157Y-51677815D01*
X102289189Y-52032783D01*
X101584911Y-52032783D01*
X101229943Y-51677814D01*
X100874975Y-52032783D01*
X100170698Y-52032783D01*
X99815730Y-51677815D01*
X99460762Y-52032783D01*
X98756484Y-52032783D01*
X98401516Y-51677815D01*
X98046548Y-52032783D01*
X97342271Y-52032783D01*
X96987303Y-51677815D01*
X96632335Y-52032783D01*
X95928057Y-52032783D01*
X95573089Y-51677815D01*
X95218121Y-52032783D01*
X94513844Y-52032783D01*
X94158876Y-51677815D01*
X93803908Y-52032783D01*
X92910192Y-52032783D01*
X92910192Y-51014285D01*
X93408192Y-51014285D01*
X93408192Y-51637067D01*
X93451769Y-51680644D01*
X93806737Y-51325676D01*
X94511014Y-51325676D01*
X94865982Y-51680644D01*
X95220950Y-51325676D01*
X95925228Y-51325676D01*
X96280196Y-51680644D01*
X96635164Y-51325676D01*
X97339441Y-51325676D01*
X97694409Y-51680644D01*
X98049378Y-51325676D01*
X98753655Y-51325676D01*
X99108623Y-51680644D01*
X99463591Y-51325676D01*
X100167869Y-51325676D01*
X100522837Y-51680644D01*
X100877805Y-51325676D01*
X101582082Y-51325676D01*
X101937050Y-51680644D01*
X102292018Y-51325676D01*
X102996296Y-51325676D01*
X103351264Y-51680644D01*
X103706232Y-51325676D01*
X104410509Y-51325676D01*
X104765477Y-51680644D01*
X105120445Y-51325676D01*
X105824723Y-51325676D01*
X106179691Y-51680644D01*
X106534659Y-51325676D01*
X106179691Y-50970708D01*
X105824723Y-51325676D01*
X105120445Y-51325676D01*
X104765477Y-50970708D01*
X104410509Y-51325676D01*
X103706232Y-51325676D01*
X103351264Y-50970708D01*
X102996296Y-51325676D01*
X102292018Y-51325676D01*
X101937050Y-50970708D01*
X101582082Y-51325676D01*
X100877805Y-51325676D01*
X100522837Y-50970708D01*
X100167869Y-51325676D01*
X99463591Y-51325676D01*
X99108623Y-50970708D01*
X98753655Y-51325676D01*
X98049378Y-51325676D01*
X97694409Y-50970707D01*
X97339441Y-51325676D01*
X96635164Y-51325676D01*
X96280196Y-50970708D01*
X95925228Y-51325676D01*
X95220950Y-51325676D01*
X94865982Y-50970707D01*
X94511014Y-51325676D01*
X93806737Y-51325676D01*
X93451769Y-50970708D01*
X93408192Y-51014285D01*
X92910192Y-51014285D01*
X92910192Y-50917982D01*
X92910459Y-50909854D01*
X92912162Y-50883935D01*
X92925554Y-50680050D01*
X92927677Y-50663963D01*
X92936728Y-50618569D01*
X93803908Y-50618569D01*
X94158876Y-50973537D01*
X94513844Y-50618569D01*
X95218121Y-50618569D01*
X95573089Y-50973537D01*
X95928057Y-50618569D01*
X96632335Y-50618569D01*
X96987303Y-50973537D01*
X97342271Y-50618569D01*
X98046548Y-50618569D01*
X98401516Y-50973537D01*
X98756484Y-50618569D01*
X99460762Y-50618569D01*
X99815730Y-50973537D01*
X100170698Y-50618569D01*
X100874975Y-50618569D01*
X101229943Y-50973537D01*
X101584911Y-50618569D01*
X102289189Y-50618569D01*
X102644157Y-50973537D01*
X102999125Y-50618569D01*
X103703403Y-50618569D01*
X104058371Y-50973537D01*
X104413339Y-50618569D01*
X105117616Y-50618569D01*
X105472584Y-50973537D01*
X105827552Y-50618569D01*
X106531830Y-50618569D01*
X106886797Y-50973536D01*
X107207065Y-50653269D01*
X107189834Y-50566637D01*
X106886798Y-50263601D01*
X106531830Y-50618569D01*
X105827552Y-50618569D01*
X105472584Y-50263601D01*
X105117616Y-50618569D01*
X104413339Y-50618569D01*
X104058371Y-50263601D01*
X103703403Y-50618569D01*
X102999125Y-50618569D01*
X102644157Y-50263601D01*
X102289189Y-50618569D01*
X101584911Y-50618569D01*
X101229943Y-50263600D01*
X100874975Y-50618569D01*
X100170698Y-50618569D01*
X99815730Y-50263601D01*
X99460762Y-50618569D01*
X98756484Y-50618569D01*
X98401516Y-50263601D01*
X98046548Y-50618569D01*
X97342271Y-50618569D01*
X96987303Y-50263601D01*
X96632335Y-50618569D01*
X95928057Y-50618569D01*
X95573089Y-50263601D01*
X95218121Y-50618569D01*
X94513844Y-50618569D01*
X94158876Y-50263601D01*
X93803908Y-50618569D01*
X92936728Y-50618569D01*
X92971913Y-50442106D01*
X92976130Y-50426407D01*
X93028851Y-50271486D01*
X93049013Y-50212239D01*
X93055241Y-50197243D01*
X93155516Y-49994464D01*
X93163662Y-49980395D01*
X93209861Y-49911461D01*
X94511013Y-49911461D01*
X94865982Y-50266430D01*
X95220950Y-49911462D01*
X95925228Y-49911462D01*
X96280196Y-50266430D01*
X96635164Y-49911462D01*
X97339441Y-49911462D01*
X97694409Y-50266430D01*
X98049378Y-49911462D01*
X98753655Y-49911462D01*
X99108623Y-50266430D01*
X99463591Y-49911462D01*
X100167869Y-49911462D01*
X100522837Y-50266430D01*
X100877805Y-49911462D01*
X101582082Y-49911462D01*
X101937050Y-50266430D01*
X102292018Y-49911462D01*
X102996296Y-49911462D01*
X103351264Y-50266430D01*
X103706232Y-49911462D01*
X104410509Y-49911462D01*
X104765477Y-50266430D01*
X105120445Y-49911462D01*
X105120444Y-49911461D01*
X105824722Y-49911461D01*
X106179691Y-50266430D01*
X106534659Y-49911462D01*
X106232259Y-49609062D01*
X106144565Y-49591618D01*
X105824722Y-49911461D01*
X105120444Y-49911461D01*
X104771413Y-49562430D01*
X104759541Y-49562430D01*
X104410509Y-49911462D01*
X103706232Y-49911462D01*
X103357200Y-49562430D01*
X103345328Y-49562430D01*
X102996296Y-49911462D01*
X102292018Y-49911462D01*
X101942986Y-49562430D01*
X101931114Y-49562430D01*
X101582082Y-49911462D01*
X100877805Y-49911462D01*
X100528773Y-49562430D01*
X100516901Y-49562430D01*
X100167869Y-49911462D01*
X99463591Y-49911462D01*
X99114559Y-49562430D01*
X99102687Y-49562430D01*
X98753655Y-49911462D01*
X98049378Y-49911462D01*
X97700346Y-49562430D01*
X97688474Y-49562430D01*
X97339441Y-49911462D01*
X96635164Y-49911462D01*
X96286132Y-49562430D01*
X96274260Y-49562430D01*
X95925228Y-49911462D01*
X95220950Y-49911462D01*
X94871918Y-49562430D01*
X94860045Y-49562430D01*
X94511013Y-49911461D01*
X93209861Y-49911461D01*
X93289607Y-49792471D01*
X93299508Y-49779609D01*
X93448965Y-49609772D01*
X93460470Y-49598310D01*
X93630854Y-49449496D01*
X93643761Y-49439635D01*
X93832162Y-49314385D01*
X93846240Y-49306304D01*
X94049417Y-49206775D01*
X94064418Y-49200611D01*
X94278864Y-49128523D01*
X94294569Y-49124367D01*
X94516585Y-49080960D01*
X94532701Y-49078894D01*
X94762222Y-49064677D01*
X94770300Y-49064442D01*
X94800967Y-49064557D01*
X94800968Y-49064556D01*
X94813708Y-49064604D01*
X94815281Y-49064430D01*
X105850647Y-49064430D01*
X105880930Y-49064430D01*
X105889039Y-49064695D01*
G37*
%TD.AperFunction*%
M02*
